<?xml version="1.0" encoding="UTF-8" standalone="no"?><svg xmlns="http://www.w3.org/2000/svg" xmlns:xlink="http://www.w3.org/1999/xlink" height="436" version="1.1" width="612"><defs/><g><g transform="translate(-214,-86) scale(1,1)"><rect fill="#C0C0C0" height="391" opacity="0.2" stroke="none" width="295" x="359" y="119"/></g><g transform="translate(-214,-86) scale(1,1)"><rect fill="#ffffff" height="391" stroke="none" width="295" x="352" y="112"/></g><g transform="translate(-214,-86) scale(1,1)"><path d="M 352 112 L 647 112 L 647 503 L 352 503 L 352 112 Z Z" fill="none" stroke="#000000" stroke-miterlimit="10"/></g><g transform="translate(-214,-86) scale(1,1)"><g><path fill="none" stroke="none"/><text fill="#000000" font-family="Arial" font-size="13px" font-style="normal" font-weight="bold" stroke="none" text-decoration="none" x="474.569580078125" y="129.5">Sistema</text></g></g><g transform="translate(-214,-86) scale(1,1)"><path d="M 224 96 L 816 96 L 816 512 L 224 512 L 224 96" fill="none" stroke="#000000" stroke-miterlimit="10"/></g><g transform="translate(-214,-86) scale(1,1)"><path d="M 224 96 L 224 118 L 339.0107421875 118 L 350.0107421875 107 L 350.0107421875 96 L 224 96" fill="#ffffff" stroke="none"/></g><g transform="translate(-214,-86) scale(1,1)"><path d="M 224 96 L 224 118 L 339.0107421875 118 L 350.0107421875 107 L 350.0107421875 96 L 224 96 L 224 96" fill="none" stroke="#000000" stroke-miterlimit="10"/></g><g transform="translate(-214,-86) scale(1,1)"><g><path fill="none" stroke="none"/><text fill="#000000" font-family="Arial" font-size="13px" font-style="normal" font-weight="normal" stroke="none" text-decoration="none" x="248.72998046875" y="111.5">Autenticazione</text></g></g><g transform="translate(-214,-86) scale(1,1)"><g><path fill="none" stroke="none"/><text fill="#000000" font-family="Arial" font-size="13px" font-style="normal" font-weight="bold" stroke="none" text-decoration="none" x="228.279541015625" y="110.5">uc</text></g></g><g transform="translate(-214,-86) scale(1,1)"><path d="M 749.3102292258523 185.68 C 749.3102292258523 180.886167936 753.1960715507977 177 757.989501953125 177 C 762.7829323554523 177 766.6687746803977 180.886167936 766.6687746803977 185.68 C 766.6687746803977 190.47383206400002 762.7829323554523 194.36 757.989501953125 194.36 C 753.1960715507977 194.36 749.3102292258523 190.47383206400002 749.3102292258523 185.68 Z" fill="#ffffff" stroke="none"/></g><g transform="translate(-214,-86) scale(1,1)"><path d="M 749.3102292258523 185.68 C 749.3102292258523 180.886167936 753.1960715507977 177 757.989501953125 177 C 762.7829323554523 177 766.6687746803977 180.886167936 766.6687746803977 185.68 C 766.6687746803977 190.47383206400002 762.7829323554523 194.36 757.989501953125 194.36 C 753.1960715507977 194.36 749.3102292258523 190.47383206400002 749.3102292258523 185.68 Z" fill="none" stroke="#000000" stroke-miterlimit="10"/></g><g transform="translate(-214,-86) scale(1,1)"><path d="M 757.989501953125 194.36 L 757.989501953125 211.64" fill="none" stroke="#000000" stroke-miterlimit="10"/></g><g transform="translate(-214,-86) scale(1,1)"><path d="M 748.7996837713068 200.84 L 767.1793201349432 200.84" fill="none" stroke="#000000" stroke-miterlimit="10"/></g><g transform="translate(-214,-86) scale(1,1)"><path d="M 757.989501953125 211.64 L 745.2258655894886 229" fill="none" stroke="#000000" stroke-miterlimit="10"/></g><g transform="translate(-214,-86) scale(1,1)"><path d="M 757.989501953125 211.64 L 770.7531383167614 229" fill="none" stroke="#000000" stroke-miterlimit="10"/></g><g transform="translate(-214,-86) scale(1,1)"><g><path fill="none" stroke="none"/><text fill="#000000" font-family="Arial" font-size="13px" font-style="normal" font-weight="bold" stroke="none" text-decoration="none" x="708.5" y="247.5">DBMS Farmacie</text></g></g><g transform="translate(-214,-86) scale(1,1)"><path d="M 745.6857175071023 409.68 C 745.6857175071023 404.886167936 749.5715598320477 401 754.364990234375 401 C 759.1584206367023 401 763.0442629616477 404.886167936 763.0442629616477 409.68 C 763.0442629616477 414.473832064 759.1584206367023 418.36 754.364990234375 418.36 C 749.5715598320477 418.36 745.6857175071023 414.473832064 745.6857175071023 409.68 Z" fill="#ffffff" stroke="none"/></g><g transform="translate(-214,-86) scale(1,1)"><path d="M 745.6857175071023 409.68 C 745.6857175071023 404.886167936 749.5715598320477 401 754.364990234375 401 C 759.1584206367023 401 763.0442629616477 404.886167936 763.0442629616477 409.68 C 763.0442629616477 414.473832064 759.1584206367023 418.36 754.364990234375 418.36 C 749.5715598320477 418.36 745.6857175071023 414.473832064 745.6857175071023 409.68 Z" fill="none" stroke="#000000" stroke-miterlimit="10"/></g><g transform="translate(-214,-86) scale(1,1)"><path d="M 754.364990234375 418.36 L 754.364990234375 435.64" fill="none" stroke="#000000" stroke-miterlimit="10"/></g><g transform="translate(-214,-86) scale(1,1)"><path d="M 745.1751720525568 424.84 L 763.5548084161932 424.84" fill="none" stroke="#000000" stroke-miterlimit="10"/></g><g transform="translate(-214,-86) scale(1,1)"><path d="M 754.364990234375 435.64 L 741.6013538707386 453" fill="none" stroke="#000000" stroke-miterlimit="10"/></g><g transform="translate(-214,-86) scale(1,1)"><path d="M 754.364990234375 435.64 L 767.1286265980114 453" fill="none" stroke="#000000" stroke-miterlimit="10"/></g><g transform="translate(-214,-86) scale(1,1)"><g><path fill="none" stroke="none"/><text fill="#000000" font-family="Arial" font-size="13px" font-style="normal" font-weight="bold" stroke="none" text-decoration="none" x="708.5" y="471.5">DBMS Azienda</text></g></g><g transform="translate(-214,-86) scale(1,1)"><path d="M 383 206.5 C 383 193.5213072 437.3973968 183 504.5 183 C 571.6026032 183 626 193.5213072 626 206.5 C 626 219.4786928 571.6026032 230 504.5 230 C 437.3973968 230 383 219.4786928 383 206.5 Z" fill="#C0C0C0" opacity="0.2" stroke="none"/></g><g transform="translate(-214,-86) scale(1,1)"><path d="M 376 199.5 C 376 186.5213072 430.3973968 176 497.5 176 C 564.6026032 176 619 186.5213072 619 199.5 C 619 212.4786928 564.6026032 223 497.5 223 C 430.3973968 223 376 212.4786928 376 199.5 Z" fill="#ffffff" stroke="none"/></g><g transform="translate(-214,-86) scale(1,1)"><path d="M 376 199.5 C 376 186.5213072 430.3973968 176 497.5 176 C 564.6026032 176 619 186.5213072 619 199.5 C 619 212.4786928 564.6026032 223 497.5 223 C 430.3973968 223 376 212.4786928 376 199.5 Z" fill="none" stroke="#000000" stroke-miterlimit="10"/></g><g transform="translate(-214,-86) scale(1,1)"><g><path fill="none" stroke="none"/><text fill="#000000" font-family="Arial" font-size="13px" font-style="normal" font-weight="bold" stroke="none" text-decoration="none" x="451.273193359375" y="204.5">Autenticazione</text></g></g><g transform="translate(-214,-86) scale(1,1)"><path d="M 620 207 L 703 212" fill="none" stroke="#000000" stroke-miterlimit="10"/></g><g transform="translate(-214,-86) scale(1,1)"><path d="M 261.47160617897725 289.68 C 261.47160617897725 284.886167936 265.35744850392274 281 270.15087890625 281 C 274.94430930857726 281 278.83015163352275 284.886167936 278.83015163352275 289.68 C 278.83015163352275 294.473832064 274.94430930857726 298.36 270.15087890625 298.36 C 265.35744850392274 298.36 261.47160617897725 294.473832064 261.47160617897725 289.68 Z" fill="#ffffff" stroke="none"/></g><g transform="translate(-214,-86) scale(1,1)"><path d="M 261.47160617897725 289.68 C 261.47160617897725 284.886167936 265.35744850392274 281 270.15087890625 281 C 274.94430930857726 281 278.83015163352275 284.886167936 278.83015163352275 289.68 C 278.83015163352275 294.473832064 274.94430930857726 298.36 270.15087890625 298.36 C 265.35744850392274 298.36 261.47160617897725 294.473832064 261.47160617897725 289.68 Z" fill="none" stroke="#000000" stroke-miterlimit="10"/></g><g transform="translate(-214,-86) scale(1,1)"><path d="M 270.15087890625 298.36 L 270.15087890625 315.64" fill="none" stroke="#000000" stroke-miterlimit="10"/></g><g transform="translate(-214,-86) scale(1,1)"><path d="M 260.96106072443183 304.84 L 279.34069708806817 304.84" fill="none" stroke="#000000" stroke-miterlimit="10"/></g><g transform="translate(-214,-86) scale(1,1)"><path d="M 270.15087890625 315.64 L 257.38724254261365 333" fill="none" stroke="#000000" stroke-miterlimit="10"/></g><g transform="translate(-214,-86) scale(1,1)"><path d="M 270.15087890625 315.64 L 282.91451526988635 333" fill="none" stroke="#000000" stroke-miterlimit="10"/></g><g transform="translate(-214,-86) scale(1,1)"><g><path fill="none" stroke="none"/><text fill="#000000" font-family="Arial" font-size="13px" font-style="normal" font-weight="bold" stroke="none" text-decoration="none" x="244.5" y="351.5">Persona</text></g></g><g transform="translate(-214,-86) scale(1,1)"><path d="M 301 302 L 450 224" fill="none" stroke="#000000" stroke-miterlimit="10"/></g><g transform="translate(-214,-86) scale(1,1)"><path d="M 524 224 L 711 399" fill="none" stroke="#000000" stroke-miterlimit="10"/></g><g transform="translate(-214,-86) scale(1,1)"><path d="M 383 374.5 C 383 361.5213072 437.3973968 351 504.5 351 C 571.6026032 351 626 361.5213072 626 374.5 C 626 387.4786928 571.6026032 398 504.5 398 C 437.3973968 398 383 387.4786928 383 374.5 Z" fill="#C0C0C0" opacity="0.2" stroke="none"/></g><g transform="translate(-214,-86) scale(1,1)"><path d="M 376 367.5 C 376 354.5213072 430.3973968 344 497.5 344 C 564.6026032 344 619 354.5213072 619 367.5 C 619 380.4786928 564.6026032 391 497.5 391 C 430.3973968 391 376 380.4786928 376 367.5 Z" fill="#ffffff" stroke="none"/></g><g transform="translate(-214,-86) scale(1,1)"><path d="M 376 367.5 C 376 354.5213072 430.3973968 344 497.5 344 C 564.6026032 344 619 354.5213072 619 367.5 C 619 380.4786928 564.6026032 391 497.5 391 C 430.3973968 391 376 380.4786928 376 367.5 Z" fill="none" stroke="#000000" stroke-miterlimit="10"/></g><g transform="translate(-214,-86) scale(1,1)"><g><path fill="none" stroke="none"/><text fill="#000000" font-family="Arial" font-size="13px" font-style="normal" font-weight="bold" stroke="none" text-decoration="none" x="431.392333984375" y="372.5">Recupera Credenziali</text></g></g><g transform="translate(-214,-86) scale(1,1)"><path d="M 383 462.5 C 383 449.5213072 437.3973968 439 504.5 439 C 571.6026032 439 626 449.5213072 626 462.5 C 626 475.4786928 571.6026032 486 504.5 486 C 437.3973968 486 383 475.4786928 383 462.5 Z" fill="#C0C0C0" opacity="0.2" stroke="none"/></g><g transform="translate(-214,-86) scale(1,1)"><path d="M 376 455.5 C 376 442.5213072 430.3973968 432 497.5 432 C 564.6026032 432 619 442.5213072 619 455.5 C 619 468.4786928 564.6026032 479 497.5 479 C 430.3973968 479 376 468.4786928 376 455.5 Z" fill="#ffffff" stroke="none"/></g><g transform="translate(-214,-86) scale(1,1)"><path d="M 376 455.5 C 376 442.5213072 430.3973968 432 497.5 432 C 564.6026032 432 619 442.5213072 619 455.5 C 619 468.4786928 564.6026032 479 497.5 479 C 430.3973968 479 376 468.4786928 376 455.5 Z" fill="none" stroke="#000000" stroke-miterlimit="10"/></g><g transform="translate(-214,-86) scale(1,1)"><g><path fill="none" stroke="none"/><text fill="#000000" font-family="Arial" font-size="13px" font-style="normal" font-weight="bold" stroke="none" text-decoration="none" x="438.62548828125" y="460.5">Modifica Password</text></g></g><g transform="translate(-214,-86) scale(1,1)"><path d="M 301 326 L 383 343" fill="none" stroke="#000000" stroke-miterlimit="10"/></g><g transform="translate(-214,-86) scale(1,1)"><path d="M 301 338 L 457 431" fill="none" stroke="#000000" stroke-miterlimit="10"/></g><g transform="translate(-214,-86) scale(1,1)"><path d="M 620 447 L 703 442" fill="none" stroke="#000000" stroke-miterlimit="10"/></g><g transform="translate(-214,-86) scale(1,1)"><path d="M 586 392 L 703 425" fill="none" stroke="#000000" stroke-miterlimit="10"/></g><g transform="translate(-214,-86) scale(1,1)"><path d="M 538 343 L 703 247" fill="none" stroke="#000000" stroke-miterlimit="10"/></g><g transform="translate(-214,-86) scale(1,1)"><path d="M 523 431 L 713 256" fill="none" stroke="#000000" stroke-miterlimit="10"/></g><g transform="translate(-214,-86) scale(1,1)"><path d="M 383 286.5 C 383 273.5213072 438.2928272 263 506.5 263 C 574.7071728 263 630 273.5213072 630 286.5 C 630 299.4786928 574.7071728 310 506.5 310 C 438.2928272 310 383 299.4786928 383 286.5 Z" fill="#C0C0C0" opacity="0.2" stroke="none"/></g><g transform="translate(-214,-86) scale(1,1)"><path d="M 376 279.5 C 376 266.5213072 431.2928272 256 499.5 256 C 567.7071728 256 623 266.5213072 623 279.5 C 623 292.4786928 567.7071728 303 499.5 303 C 431.2928272 303 376 292.4786928 376 279.5 Z" fill="#ffffff" stroke="none"/></g><g transform="translate(-214,-86) scale(1,1)"><path d="M 376 279.5 C 376 266.5213072 431.2928272 256 499.5 256 C 567.7071728 256 623 266.5213072 623 279.5 C 623 292.4786928 567.7071728 303 499.5 303 C 431.2928272 303 376 292.4786928 376 279.5 Z" fill="none" stroke="#000000" stroke-miterlimit="10"/></g><g transform="translate(-214,-86) scale(1,1)"><g><path fill="none" stroke="none"/><text fill="#000000" font-family="Arial" font-size="13px" font-style="normal" font-weight="bold" stroke="none" text-decoration="none" x="456.878662109375" y="284.5">Registrazione</text></g></g><g transform="translate(-214,-86) scale(1,1)"><path d="M 301 314 L 375 301" fill="none" stroke="#000000" stroke-miterlimit="10"/></g><g transform="translate(-214,-86) scale(1,1)"><path d="M 596 255 L 703 228" fill="none" stroke="#000000" stroke-miterlimit="10"/></g><g transform="translate(-214,-86) scale(1,1)"><path d="M 539 304 L 703 407" fill="none" stroke="#000000" stroke-miterlimit="10"/></g></g></svg>