<?xml version="1.0" encoding="UTF-8" standalone="no"?><svg xmlns="http://www.w3.org/2000/svg" xmlns:xlink="http://www.w3.org/1999/xlink" height="531" version="1.1" width="963"><defs/><g><g transform="translate(-22,-46) scale(1,1)"><rect fill="#C0C0C0" height="391" opacity="0.2" stroke="none" width="295" x="359" y="119"/></g><g transform="translate(-22,-46) scale(1,1)"><rect fill="#ffffff" height="391" stroke="none" width="295" x="352" y="112"/></g><g transform="translate(-22,-46) scale(1,1)"><path d="M 352 112 L 647 112 L 647 503 L 352 503 L 352 112 Z Z" fill="none" stroke="#000000" stroke-miterlimit="10"/></g><g transform="translate(-22,-46) scale(1,1)"><g><path fill="none" stroke="none"/><text fill="#000000" font-family="Arial" font-size="13px" font-style="normal" font-weight="bold" stroke="none" text-decoration="none" x="474.569580078125" y="129.5">Sistema</text></g></g><g transform="translate(-22,-46) scale(1,1)"><path d="M 32 56 L 975 56 L 975 567 L 32 567 L 32 56" fill="none" stroke="#000000" stroke-miterlimit="10"/></g><g transform="translate(-22,-46) scale(1,1)"><path d="M 32 56 L 32 78 L 147.0107421875 78 L 158.0107421875 67 L 158.0107421875 56 L 32 56" fill="#ffffff" stroke="none"/></g><g transform="translate(-22,-46) scale(1,1)"><path d="M 32 56 L 32 78 L 147.0107421875 78 L 158.0107421875 67 L 158.0107421875 56 L 32 56 L 32 56" fill="none" stroke="#000000" stroke-miterlimit="10"/></g><g transform="translate(-22,-46) scale(1,1)"><g><path fill="none" stroke="none"/><text fill="#000000" font-family="Arial" font-size="13px" font-style="normal" font-weight="normal" stroke="none" text-decoration="none" x="56.72998046875" y="71.5">Autenticazione</text></g></g><g transform="translate(-22,-46) scale(1,1)"><g><path fill="none" stroke="none"/><text fill="#000000" font-family="Arial" font-size="13px" font-style="normal" font-weight="bold" stroke="none" text-decoration="none" x="36.279541015625" y="70.5">uc</text></g></g><g transform="translate(-22,-46) scale(1,1)"><path d="M 789.3102292258523 209.68 C 789.3102292258523 204.886167936 793.1960715507977 201 797.989501953125 201 C 802.7829323554523 201 806.6687746803977 204.886167936 806.6687746803977 209.68 C 806.6687746803977 214.47383206400002 802.7829323554523 218.36 797.989501953125 218.36 C 793.1960715507977 218.36 789.3102292258523 214.47383206400002 789.3102292258523 209.68 Z" fill="#ffffff" stroke="none"/></g><g transform="translate(-22,-46) scale(1,1)"><path d="M 789.3102292258523 209.68 C 789.3102292258523 204.886167936 793.1960715507977 201 797.989501953125 201 C 802.7829323554523 201 806.6687746803977 204.886167936 806.6687746803977 209.68 C 806.6687746803977 214.47383206400002 802.7829323554523 218.36 797.989501953125 218.36 C 793.1960715507977 218.36 789.3102292258523 214.47383206400002 789.3102292258523 209.68 Z" fill="none" stroke="#000000" stroke-miterlimit="10"/></g><g transform="translate(-22,-46) scale(1,1)"><path d="M 797.989501953125 218.36 L 797.989501953125 235.64" fill="none" stroke="#000000" stroke-miterlimit="10"/></g><g transform="translate(-22,-46) scale(1,1)"><path d="M 788.7996837713068 224.84 L 807.1793201349432 224.84" fill="none" stroke="#000000" stroke-miterlimit="10"/></g><g transform="translate(-22,-46) scale(1,1)"><path d="M 797.989501953125 235.64 L 785.2258655894886 253" fill="none" stroke="#000000" stroke-miterlimit="10"/></g><g transform="translate(-22,-46) scale(1,1)"><path d="M 797.989501953125 235.64 L 810.7531383167614 253" fill="none" stroke="#000000" stroke-miterlimit="10"/></g><g transform="translate(-22,-46) scale(1,1)"><g><path fill="none" stroke="none"/><text fill="#000000" font-family="Arial" font-size="13px" font-style="normal" font-weight="bold" stroke="none" text-decoration="none" x="748.5" y="271.5">DBMS Farmacie</text></g></g><g transform="translate(-22,-46) scale(1,1)"><path d="M 801.6857175071023 385.68 C 801.6857175071023 380.886167936 805.5715598320477 377 810.364990234375 377 C 815.1584206367023 377 819.0442629616477 380.886167936 819.0442629616477 385.68 C 819.0442629616477 390.473832064 815.1584206367023 394.36 810.364990234375 394.36 C 805.5715598320477 394.36 801.6857175071023 390.473832064 801.6857175071023 385.68 Z" fill="#ffffff" stroke="none"/></g><g transform="translate(-22,-46) scale(1,1)"><path d="M 801.6857175071023 385.68 C 801.6857175071023 380.886167936 805.5715598320477 377 810.364990234375 377 C 815.1584206367023 377 819.0442629616477 380.886167936 819.0442629616477 385.68 C 819.0442629616477 390.473832064 815.1584206367023 394.36 810.364990234375 394.36 C 805.5715598320477 394.36 801.6857175071023 390.473832064 801.6857175071023 385.68 Z" fill="none" stroke="#000000" stroke-miterlimit="10"/></g><g transform="translate(-22,-46) scale(1,1)"><path d="M 810.364990234375 394.36 L 810.364990234375 411.64" fill="none" stroke="#000000" stroke-miterlimit="10"/></g><g transform="translate(-22,-46) scale(1,1)"><path d="M 801.1751720525568 400.84 L 819.5548084161932 400.84" fill="none" stroke="#000000" stroke-miterlimit="10"/></g><g transform="translate(-22,-46) scale(1,1)"><path d="M 810.364990234375 411.64 L 797.6013538707386 429" fill="none" stroke="#000000" stroke-miterlimit="10"/></g><g transform="translate(-22,-46) scale(1,1)"><path d="M 810.364990234375 411.64 L 823.1286265980114 429" fill="none" stroke="#000000" stroke-miterlimit="10"/></g><g transform="translate(-22,-46) scale(1,1)"><g><path fill="none" stroke="none"/><text fill="#000000" font-family="Arial" font-size="13px" font-style="normal" font-weight="bold" stroke="none" text-decoration="none" x="764.5" y="447.5">DBMS Azienda</text></g></g><g transform="translate(-22,-46) scale(1,1)"><path d="M 383 256 C 383 246.6111584 437.3973968 239 504.5 239 C 571.6026032 239 626 246.6111584 626 256 C 626 265.3888416 571.6026032 273 504.5 273 C 437.3973968 273 383 265.3888416 383 256 Z" fill="#C0C0C0" opacity="0.2" stroke="none"/></g><g transform="translate(-22,-46) scale(1,1)"><path d="M 376 249 C 376 239.6111584 430.3973968 232 497.5 232 C 564.6026032 232 619 239.6111584 619 249 C 619 258.3888416 564.6026032 266 497.5 266 C 430.3973968 266 376 258.3888416 376 249 Z" fill="#ffffff" stroke="none"/></g><g transform="translate(-22,-46) scale(1,1)"><path d="M 376 249 C 376 239.6111584 430.3973968 232 497.5 232 C 564.6026032 232 619 239.6111584 619 249 C 619 258.3888416 564.6026032 266 497.5 266 C 430.3973968 266 376 258.3888416 376 249 Z" fill="none" stroke="#000000" stroke-miterlimit="10"/></g><g transform="translate(-22,-46) scale(1,1)"><g><path fill="none" stroke="none"/><text fill="#000000" font-family="Arial" font-size="13px" font-style="normal" font-weight="bold" stroke="none" text-decoration="none" x="451.273193359375" y="254">Autenticazione</text></g></g><g transform="translate(-22,-46) scale(1,1)"><path d="M 620 245 L 743 241" fill="none" stroke="#000000" stroke-miterlimit="10"/></g><g transform="translate(-22,-46) scale(1,1)"><path d="M 189.47160617897728 217.68 C 189.47160617897728 212.886167936 193.35744850392274 209 198.15087890625 209 C 202.94430930857726 209 206.83015163352272 212.886167936 206.83015163352272 217.68 C 206.83015163352272 222.47383206400002 202.94430930857726 226.36 198.15087890625 226.36 C 193.35744850392274 226.36 189.47160617897728 222.47383206400002 189.47160617897728 217.68 Z" fill="#ffffff" stroke="none"/></g><g transform="translate(-22,-46) scale(1,1)"><path d="M 189.47160617897728 217.68 C 189.47160617897728 212.886167936 193.35744850392274 209 198.15087890625 209 C 202.94430930857726 209 206.83015163352272 212.886167936 206.83015163352272 217.68 C 206.83015163352272 222.47383206400002 202.94430930857726 226.36 198.15087890625 226.36 C 193.35744850392274 226.36 189.47160617897728 222.47383206400002 189.47160617897728 217.68 Z" fill="none" stroke="#000000" stroke-miterlimit="10"/></g><g transform="translate(-22,-46) scale(1,1)"><path d="M 198.15087890625 226.36 L 198.15087890625 243.64" fill="none" stroke="#000000" stroke-miterlimit="10"/></g><g transform="translate(-22,-46) scale(1,1)"><path d="M 188.96106072443183 232.84 L 207.34069708806817 232.84" fill="none" stroke="#000000" stroke-miterlimit="10"/></g><g transform="translate(-22,-46) scale(1,1)"><path d="M 198.15087890625 243.64 L 185.38724254261365 261" fill="none" stroke="#000000" stroke-miterlimit="10"/></g><g transform="translate(-22,-46) scale(1,1)"><path d="M 198.15087890625 243.64 L 210.91451526988635 261" fill="none" stroke="#000000" stroke-miterlimit="10"/></g><g transform="translate(-22,-46) scale(1,1)"><g><path fill="none" stroke="none"/><text fill="#000000" font-family="Arial" font-size="13px" font-style="normal" font-weight="bold" stroke="none" text-decoration="none" x="172.5" y="279.5">Persona</text></g></g><g transform="translate(-22,-46) scale(1,1)"><path d="M 229 247 L 375 248" fill="none" stroke="#000000" stroke-miterlimit="10"/></g><g transform="translate(-22,-46) scale(1,1)"><path d="M 531 267 L 759 388" fill="none" stroke="#000000" stroke-miterlimit="10"/></g><g transform="translate(-22,-46) scale(1,1)"><path d="M 408 368 L 529.4453125 368 L 539.4453125 378 L 539.4453125 443 L 408 443 L 408 368" fill="#ffffff" stroke="none"/></g><g transform="translate(-22,-46) scale(1,1)"><path d="M 408 368 L 529.4453125 368 L 539.4453125 378 L 539.4453125 443 L 408 443 L 408 368 L 408 368" fill="none" stroke="#000000" stroke-miterlimit="10"/></g><g transform="translate(-22,-46) scale(1,1)"><path d="M 529.4453125 368 L 529.4453125 378 L 539.4453125 378 L 529.4453125 368" fill="none" stroke="#000000" stroke-miterlimit="10"/></g><g transform="translate(-22,-46) scale(1,1)"><g><path fill="none" stroke="none"/><text fill="#000000" font-family="Arial" font-size="13px" font-style="normal" font-weight="normal" stroke="none" text-decoration="none" x="413" y="380">manca</text><text fill="#000000" font-family="Arial" font-size="13px" font-style="normal" font-weight="normal" stroke="none" text-decoration="none" x="413" y="395">RecuperaPassowrd</text><text fill="#000000" font-family="Arial" font-size="13px" font-style="normal" font-weight="normal" stroke="none" text-decoration="none" x="413" y="408">e modificaPassword</text><text fill="#000000" font-family="Arial" font-size="13px" font-style="normal" font-weight="normal" stroke="none" text-decoration="none" x="413" y="421">(?)</text></g></g></g></svg>