<?xml version="1.0" encoding="UTF-8" standalone="no"?><svg xmlns="http://www.w3.org/2000/svg" xmlns:xlink="http://www.w3.org/1999/xlink" height="1300" version="1.1" width="1380"><defs/><g><g transform="translate(2,2) scale(1,1)"><path d="M 8 8 L 1368 8 L 1368 1288 L 8 1288 L 8 8" fill="none" stroke="#000000" stroke-miterlimit="10"/></g><g transform="translate(2,2) scale(1,1)"><path d="M 8 8 L 8 30 L 143.21533203125 30 L 154.21533203125 19 L 154.21533203125 8 L 8 8" fill="#ffffff" stroke="none"/></g><g transform="translate(2,2) scale(1,1)"><path d="M 8 8 L 8 30 L 143.21533203125 30 L 154.21533203125 19 L 154.21533203125 8 L 8 8 L 8 8" fill="none" stroke="#000000" stroke-miterlimit="10"/></g><g transform="translate(2,2) scale(1,1)"><g><path fill="none" stroke="none"/><text fill="#000000" font-family="Arial" font-size="13px" font-style="normal" font-weight="normal" stroke="none" text-decoration="none" x="32.72998046875" y="23.5">ModificaPassword</text></g></g><g transform="translate(2,2) scale(1,1)"><g><path fill="none" stroke="none"/><text fill="#000000" font-family="Arial" font-size="13px" font-style="normal" font-weight="bold" stroke="none" text-decoration="none" x="12.279541015625" y="23.5">sd</text></g></g><g transform="translate(2,2) scale(1,1)"><path d="M 59.69224698153409 47.3 C 59.69224698153409 43.82060576 62.57064870371591 41 66.121337890625 41 C 69.6720270775341 41 72.5504287997159 43.82060576 72.5504287997159 47.3 C 72.5504287997159 50.779394239999995 69.6720270775341 53.6 66.121337890625 53.6 C 62.57064870371591 53.6 59.69224698153409 50.779394239999995 59.69224698153409 47.3 Z" fill="#ffffff" stroke="none"/></g><g transform="translate(2,2) scale(1,1)"><path d="M 59.69224698153409 47.3 C 59.69224698153409 43.82060576 62.57064870371591 41 66.121337890625 41 C 69.6720270775341 41 72.5504287997159 43.82060576 72.5504287997159 47.3 C 72.5504287997159 50.779394239999995 69.6720270775341 53.6 66.121337890625 53.6 C 62.57064870371591 53.6 59.69224698153409 50.779394239999995 59.69224698153409 47.3 Z" fill="none" stroke="#000000" stroke-miterlimit="10"/></g><g transform="translate(2,2) scale(1,1)"><path d="M 66.121337890625 53.6 L 66.121337890625 66.4" fill="none" stroke="#000000" stroke-miterlimit="10"/></g><g transform="translate(2,2) scale(1,1)"><path d="M 59.314065163352275 58.4 L 72.92861061789773 58.4" fill="none" stroke="#000000" stroke-miterlimit="10"/></g><g transform="translate(2,2) scale(1,1)"><path d="M 66.121337890625 66.4 L 56.66679243607955 79" fill="none" stroke="#000000" stroke-miterlimit="10"/></g><g transform="translate(2,2) scale(1,1)"><path d="M 66.121337890625 66.4 L 75.57588334517045 79" fill="none" stroke="#000000" stroke-miterlimit="10"/></g><g transform="translate(2,2) scale(1,1)"><g><path fill="none" stroke="none"/><text fill="#000000" font-family="Arial" font-size="13px" font-style="normal" font-weight="bold" stroke="none" text-decoration="none" x="36.5" y="97.5">: Persona</text></g></g><g transform="translate(2,2) scale(1,1)"><path d="M 67.5 105 L 67.5 1227" fill="none" stroke="#000000" stroke-dasharray="3" stroke-miterlimit="10"/></g><g transform="translate(2,2) scale(1,1)"><rect fill="#C0C0C0" height="39" opacity="0.2" stroke="none" width="280.84716796875" x="111" y="47"/></g><g transform="translate(2,2) scale(1,1)"><rect fill="#ffffff" height="39" stroke="none" width="280.84716796875" x="104" y="40"/></g><g transform="translate(2,2) scale(1,1)"><path d="M 104 40 L 384.84716796875 40 L 384.84716796875 79 L 104 79 L 104 40 Z Z" fill="none" stroke="#000000" stroke-miterlimit="10"/></g><g transform="translate(2,2) scale(1,1)"><g><path fill="none" stroke="none"/><text fill="#000000" font-family="Arial" font-size="13px" font-style="normal" font-weight="normal" stroke="none" text-decoration="none" x="209.36865234375" y="55.5">«Boundary»</text></g></g><g transform="translate(2,2) scale(1,1)"><g><path fill="none" stroke="none"/><text fill="#000000" font-family="Arial" font-size="13px" font-style="normal" font-weight="bold" stroke="none" text-decoration="none" x="113.5" y="70.5">InterfacciaPrincipale[tipo=tipologiaUtente]</text></g></g><g transform="translate(2,2) scale(1,1)"><path d="M 245.5 80 L 245.5 672" fill="none" stroke="#000000" stroke-dasharray="3" stroke-miterlimit="10"/></g><g transform="translate(2,2) scale(1,1)"><rect fill="#C0C0C0" height="39" opacity="0.2" stroke="none" width="195.2998046875" x="407" y="47"/></g><g transform="translate(2,2) scale(1,1)"><rect fill="#ffffff" height="39" stroke="none" width="195.2998046875" x="400" y="40"/></g><g transform="translate(2,2) scale(1,1)"><path d="M 400 40 L 595.2998046875 40 L 595.2998046875 79 L 400 79 L 400 40 Z Z" fill="none" stroke="#000000" stroke-miterlimit="10"/></g><g transform="translate(2,2) scale(1,1)"><g><path fill="none" stroke="none"/><text fill="#000000" font-family="Arial" font-size="13px" font-style="normal" font-weight="normal" stroke="none" text-decoration="none" x="469.46630859375" y="55.5">«Control»</text></g></g><g transform="translate(2,2) scale(1,1)"><g><path fill="none" stroke="none"/><text fill="#000000" font-family="Arial" font-size="13px" font-style="normal" font-weight="bold" stroke="none" text-decoration="none" x="409.5" y="70.5">GestoreInterfacciaPrincipale</text></g></g><g transform="translate(2,2) scale(1,1)"><path d="M 498.5 80 L 498.5 269" fill="none" stroke="#000000" stroke-dasharray="3" stroke-miterlimit="10"/></g><g transform="translate(2,2) scale(1,1)"><rect fill="#C0C0C0" height="39" opacity="0.2" stroke="none" width="187.314453125" x="223" y="211"/></g><g transform="translate(2,2) scale(1,1)"><rect fill="#ffffff" height="39" stroke="none" width="187.314453125" x="216" y="204"/></g><g transform="translate(2,2) scale(1,1)"><path d="M 216 204 L 403.314453125 204 L 403.314453125 243 L 216 243 L 216 204 Z Z" fill="none" stroke="#000000" stroke-miterlimit="10"/></g><g transform="translate(2,2) scale(1,1)"><g><path fill="none" stroke="none"/><text fill="#000000" font-family="Arial" font-size="13px" font-style="normal" font-weight="normal" stroke="none" text-decoration="none" x="274.602294921875" y="219.5">«Boundary»</text></g></g><g transform="translate(2,2) scale(1,1)"><g><path fill="none" stroke="none"/><text fill="#000000" font-family="Arial" font-size="13px" font-style="normal" font-weight="bold" stroke="none" text-decoration="none" x="229.486328125" y="234.5">ModuloModificaPassword</text></g></g><g transform="translate(2,2) scale(1,1)"><path d="M 310.5 244 L 310.5 1218" fill="none" stroke="#000000" stroke-dasharray="3" stroke-miterlimit="10"/></g><g transform="translate(2,2) scale(1,1)"><rect fill="#C0C0C0" height="39" opacity="0.2" stroke="none" width="182.26806640625" x="527" y="283"/></g><g transform="translate(2,2) scale(1,1)"><rect fill="#ffffff" height="39" stroke="none" width="182.26806640625" x="520" y="276"/></g><g transform="translate(2,2) scale(1,1)"><path d="M 520 276 L 702.26806640625 276 L 702.26806640625 315 L 520 315 L 520 276 Z Z" fill="none" stroke="#000000" stroke-miterlimit="10"/></g><g transform="translate(2,2) scale(1,1)"><g><path fill="none" stroke="none"/><text fill="#000000" font-family="Arial" font-size="13px" font-style="normal" font-weight="normal" stroke="none" text-decoration="none" x="582.950439453125" y="291.5">«Control»</text></g></g><g transform="translate(2,2) scale(1,1)"><g><path fill="none" stroke="none"/><text fill="#000000" font-family="Arial" font-size="13px" font-style="normal" font-weight="bold" stroke="none" text-decoration="none" x="529.5" y="306.5">GestoreModificaPassword</text></g></g><g transform="translate(2,2) scale(1,1)"><path d="M 612.5 316 L 612.5 1133" fill="none" stroke="#000000" stroke-dasharray="3" stroke-miterlimit="10"/></g><g transform="translate(2,2) scale(1,1)"><rect fill="#C0C0C0" height="39" opacity="0.2" stroke="none" width="112.1962890625" x="439" y="411"/></g><g transform="translate(2,2) scale(1,1)"><rect fill="#ffffff" height="39" stroke="none" width="112.1962890625" x="432" y="404"/></g><g transform="translate(2,2) scale(1,1)"><path d="M 432 404 L 544.1962890625 404 L 544.1962890625 443 L 432 443 L 432 404 Z Z" fill="none" stroke="#000000" stroke-miterlimit="10"/></g><g transform="translate(2,2) scale(1,1)"><g><path fill="none" stroke="none"/><text fill="#000000" font-family="Arial" font-size="13px" font-style="normal" font-weight="normal" stroke="none" text-decoration="none" x="453.043212890625" y="419.5">«Boundary»</text></g></g><g transform="translate(2,2) scale(1,1)"><g><path fill="none" stroke="none"/><text fill="#000000" font-family="Arial" font-size="13px" font-style="normal" font-weight="bold" stroke="none" text-decoration="none" x="441.5" y="434.5">PannelloErrore</text></g></g><g transform="translate(2,2) scale(1,1)"><path d="M 489.5 444 L 489.5 536" fill="none" stroke="#000000" stroke-dasharray="3" stroke-miterlimit="10"/></g><g transform="translate(2,2) scale(1,1)"><rect fill="#C0C0C0" height="39" opacity="0.2" stroke="none" width="108.5654296875" x="823" y="47"/></g><g transform="translate(2,2) scale(1,1)"><rect fill="#ffffff" height="39" stroke="none" width="108.5654296875" x="816" y="40"/></g><g transform="translate(2,2) scale(1,1)"><path d="M 816 40 L 924.5654296875 40 L 924.5654296875 79 L 816 79 L 816 40 Z Z" fill="none" stroke="#000000" stroke-miterlimit="10"/></g><g transform="translate(2,2) scale(1,1)"><g><path fill="none" stroke="none"/><text fill="#000000" font-family="Arial" font-size="13px" font-style="normal" font-weight="normal" stroke="none" text-decoration="none" x="835.227783203125" y="55.5">«Boundary»</text></g></g><g transform="translate(2,2) scale(1,1)"><g><path fill="none" stroke="none"/><text fill="#000000" font-family="Arial" font-size="13px" font-style="normal" font-weight="bold" stroke="none" text-decoration="none" x="825.5" y="70.5">DBMSDaemon</text></g></g><g transform="translate(2,2) scale(1,1)"><path d="M 871.5 80 L 871.5 942" fill="none" stroke="#000000" stroke-dasharray="3" stroke-miterlimit="10"/></g><g transform="translate(2,2) scale(1,1)"><path d="M 1258.274522372159 47.3 C 1258.274522372159 43.82060576 1261.152924094341 41 1264.70361328125 41 C 1268.254302468159 41 1271.132704190341 43.82060576 1271.132704190341 47.3 C 1271.132704190341 50.779394239999995 1268.254302468159 53.6 1264.70361328125 53.6 C 1261.152924094341 53.6 1258.274522372159 50.779394239999995 1258.274522372159 47.3 Z" fill="#ffffff" stroke="none"/></g><g transform="translate(2,2) scale(1,1)"><path d="M 1258.274522372159 47.3 C 1258.274522372159 43.82060576 1261.152924094341 41 1264.70361328125 41 C 1268.254302468159 41 1271.132704190341 43.82060576 1271.132704190341 47.3 C 1271.132704190341 50.779394239999995 1268.254302468159 53.6 1264.70361328125 53.6 C 1261.152924094341 53.6 1258.274522372159 50.779394239999995 1258.274522372159 47.3 Z" fill="none" stroke="#000000" stroke-miterlimit="10"/></g><g transform="translate(2,2) scale(1,1)"><path d="M 1264.70361328125 53.6 L 1264.70361328125 66.4" fill="none" stroke="#000000" stroke-miterlimit="10"/></g><g transform="translate(2,2) scale(1,1)"><path d="M 1257.8963405539773 58.4 L 1271.5108860085227 58.4" fill="none" stroke="#000000" stroke-miterlimit="10"/></g><g transform="translate(2,2) scale(1,1)"><path d="M 1264.70361328125 66.4 L 1255.2490678267045 79" fill="none" stroke="#000000" stroke-miterlimit="10"/></g><g transform="translate(2,2) scale(1,1)"><path d="M 1264.70361328125 66.4 L 1274.1581587357955 79" fill="none" stroke="#000000" stroke-miterlimit="10"/></g><g transform="translate(2,2) scale(1,1)"><g><path fill="none" stroke="none"/><text fill="#000000" font-family="Arial" font-size="13px" font-style="normal" font-weight="bold" stroke="none" text-decoration="none" x="1214.8681640625" y="97.5">: DBMS Azienda</text></g></g><g transform="translate(2,2) scale(1,1)"><path d="M 1265.5 105 L 1265.5 818" fill="none" stroke="#000000" stroke-dasharray="3" stroke-miterlimit="10"/></g><g transform="translate(2,2) scale(1,1)"><path d="M 1077.899034090909 47.3 C 1077.899034090909 43.82060576 1080.777435813091 41 1084.328125 41 C 1087.878814186909 41 1090.757215909091 43.82060576 1090.757215909091 47.3 C 1090.757215909091 50.779394239999995 1087.878814186909 53.6 1084.328125 53.6 C 1080.777435813091 53.6 1077.899034090909 50.779394239999995 1077.899034090909 47.3 Z" fill="#ffffff" stroke="none"/></g><g transform="translate(2,2) scale(1,1)"><path d="M 1077.899034090909 47.3 C 1077.899034090909 43.82060576 1080.777435813091 41 1084.328125 41 C 1087.878814186909 41 1090.757215909091 43.82060576 1090.757215909091 47.3 C 1090.757215909091 50.779394239999995 1087.878814186909 53.6 1084.328125 53.6 C 1080.777435813091 53.6 1077.899034090909 50.779394239999995 1077.899034090909 47.3 Z" fill="none" stroke="#000000" stroke-miterlimit="10"/></g><g transform="translate(2,2) scale(1,1)"><path d="M 1084.328125 53.6 L 1084.328125 66.4" fill="none" stroke="#000000" stroke-miterlimit="10"/></g><g transform="translate(2,2) scale(1,1)"><path d="M 1077.5208522727273 58.4 L 1091.1353977272727 58.4" fill="none" stroke="#000000" stroke-miterlimit="10"/></g><g transform="translate(2,2) scale(1,1)"><path d="M 1084.328125 66.4 L 1074.8735795454545 79" fill="none" stroke="#000000" stroke-miterlimit="10"/></g><g transform="translate(2,2) scale(1,1)"><path d="M 1084.328125 66.4 L 1093.7826704545455 79" fill="none" stroke="#000000" stroke-miterlimit="10"/></g><g transform="translate(2,2) scale(1,1)"><g><path fill="none" stroke="none"/><text fill="#000000" font-family="Arial" font-size="13px" font-style="normal" font-weight="bold" stroke="none" text-decoration="none" x="1030.8681640625" y="97.5">: DBMS Farmacie</text></g></g><g transform="translate(2,2) scale(1,1)"><path d="M 1085.5 105 L 1085.5 666" fill="none" stroke="#000000" stroke-dasharray="3" stroke-miterlimit="10"/></g><g transform="translate(2,2) scale(1,1)"><rect fill="#C0C0C0" height="39" opacity="0.2" stroke="none" width="112.1962890625" x="431" y="907"/></g><g transform="translate(2,2) scale(1,1)"><rect fill="#ffffff" height="39" stroke="none" width="112.1962890625" x="424" y="900"/></g><g transform="translate(2,2) scale(1,1)"><path d="M 424 900 L 536.1962890625 900 L 536.1962890625 939 L 424 939 L 424 900 Z Z" fill="none" stroke="#000000" stroke-miterlimit="10"/></g><g transform="translate(2,2) scale(1,1)"><g><path fill="none" stroke="none"/><text fill="#000000" font-family="Arial" font-size="13px" font-style="normal" font-weight="normal" stroke="none" text-decoration="none" x="445.043212890625" y="915.5">«Boundary»</text></g></g><g transform="translate(2,2) scale(1,1)"><g><path fill="none" stroke="none"/><text fill="#000000" font-family="Arial" font-size="13px" font-style="normal" font-weight="bold" stroke="none" text-decoration="none" x="433.5" y="930.5">PannelloErrore</text></g></g><g transform="translate(2,2) scale(1,1)"><path d="M 481.5 940 L 481.5 1010" fill="none" stroke="#000000" stroke-dasharray="3" stroke-miterlimit="10"/></g><g transform="translate(2,2) scale(1,1)"><rect fill="#C0C0C0" height="39" opacity="0.2" stroke="none" width="133.8544921875" x="151" y="1075"/></g><g transform="translate(2,2) scale(1,1)"><rect fill="#ffffff" height="39" stroke="none" width="133.8544921875" x="144" y="1068"/></g><g transform="translate(2,2) scale(1,1)"><path d="M 144 1068 L 277.8544921875 1068 L 277.8544921875 1107 L 144 1107 L 144 1068 Z Z" fill="none" stroke="#000000" stroke-miterlimit="10"/></g><g transform="translate(2,2) scale(1,1)"><g><path fill="none" stroke="none"/><text fill="#000000" font-family="Arial" font-size="13px" font-style="normal" font-weight="normal" stroke="none" text-decoration="none" x="175.872314453125" y="1083.5">«Boundary»</text></g></g><g transform="translate(2,2) scale(1,1)"><g><path fill="none" stroke="none"/><text fill="#000000" font-family="Arial" font-size="13px" font-style="normal" font-weight="bold" stroke="none" text-decoration="none" x="153.5" y="1098.5">PannelloConferma</text></g></g><g transform="translate(2,2) scale(1,1)"><path d="M 211.5 1108 L 211.5 1218" fill="none" stroke="#000000" stroke-dasharray="3" stroke-miterlimit="10"/></g><g transform="translate(2,2) scale(1,1)"><path d="M 67 128 L 238 128" fill="none" stroke="#000000" stroke-miterlimit="10"/></g><g transform="translate(2,2) scale(1,1)"><path d="M 227.83732514237585 132.209517756016 L 238 128 L 227.83732514237585 123.79048224398402" fill="#000000" stroke="none"/></g><g transform="translate(2,2) scale(1,1)"><path d="M 227.83732514237585 132.209517756016 L 238 128 L 227.83732514237585 123.79048224398402 L 227.83732514237585 132.209517756016" fill="none" stroke="#000000" stroke-miterlimit="10"/></g><g transform="translate(2,2) scale(1,1)"><g><path fill="none" stroke="none"/><text fill="#000000" font-family="Arial" font-size="13px" font-style="normal" font-weight="normal" stroke="none" text-decoration="none" x="87.75634765625" y="122.5">1 : clickModificaPwd( )</text></g></g><g transform="translate(2,2) scale(1,1)"><rect fill="#ffffff" height="28" stroke="none" width="13" x="238" y="128"/></g><g transform="translate(2,2) scale(1,1)"><path d="M 238 128 L 251 128 L 251 156 L 238 156 L 238 128 Z Z" fill="none" stroke="#000000" stroke-miterlimit="10"/></g><g transform="translate(2,2) scale(1,1)"><path d="M 251 144 L 491 144" fill="none" stroke="#000000" stroke-miterlimit="10"/></g><g transform="translate(2,2) scale(1,1)"><path d="M 480.83732514237585 148.209517756016 L 491 144 L 480.83732514237585 139.790482243984" fill="#000000" stroke="none"/></g><g transform="translate(2,2) scale(1,1)"><path d="M 480.83732514237585 148.209517756016 L 491 144 L 480.83732514237585 139.790482243984 L 480.83732514237585 148.209517756016" fill="none" stroke="#000000" stroke-miterlimit="10"/></g><g transform="translate(2,2) scale(1,1)"><g><path fill="none" stroke="none"/><text fill="#000000" font-family="Arial" font-size="13px" font-style="normal" font-weight="normal" stroke="none" text-decoration="none" x="306.75634765625" y="138.5">2 : clickModificaPwd( )</text></g></g><g transform="translate(2,2) scale(1,1)"><rect fill="#ffffff" height="80" stroke="none" width="13" x="491" y="144"/></g><g transform="translate(2,2) scale(1,1)"><path d="M 491 144 L 504 144 L 504 224 L 491 224 L 491 144 Z Z" fill="none" stroke="#000000" stroke-miterlimit="10"/></g><g transform="translate(2,2) scale(1,1)"><path d="M 498 224 L 403.314453125 224" fill="none" stroke="#000000" stroke-dasharray="3" stroke-miterlimit="10"/></g><g transform="translate(2,2) scale(1,1)"><path d="M 413.47712798262415 219.790482243984 L 403.314453125 224 L 413.47712798262415 228.209517756016" fill="none" stroke="#000000" stroke-miterlimit="10"/></g><g transform="translate(2,2) scale(1,1)"><g><path fill="none" stroke="none"/><text fill="#000000" font-family="Arial" font-size="13px" font-style="normal" font-weight="normal" stroke="none" text-decoration="none" x="439.5" y="238.5">3 : </text></g></g><g transform="translate(2,2) scale(1,1)"><g><path fill="none" stroke="none"/><text fill="#000000" font-family="Arial" font-size="13px" font-style="normal" font-weight="normal" stroke="none" text-decoration="none" x="423.5" y="253.5">«create»</text></g></g><g transform="translate(2,2) scale(1,1)"><path d="M 310 296 L 520 296" fill="none" stroke="#000000" stroke-dasharray="3" stroke-miterlimit="10"/></g><g transform="translate(2,2) scale(1,1)"><path d="M 509.83732514237585 300.209517756016 L 520 296 L 509.83732514237585 291.790482243984" fill="none" stroke="#000000" stroke-miterlimit="10"/></g><g transform="translate(2,2) scale(1,1)"><g><path fill="none" stroke="none"/><text fill="#000000" font-family="Arial" font-size="13px" font-style="normal" font-weight="normal" stroke="none" text-decoration="none" x="406.24267578125" y="290.5">4 : </text></g></g><g transform="translate(2,2) scale(1,1)"><g><path fill="none" stroke="none"/><text fill="#000000" font-family="Arial" font-size="13px" font-style="normal" font-weight="normal" stroke="none" text-decoration="none" x="346.5" y="289.5">«create»</text></g></g><g transform="translate(2,2) scale(1,1)"><path d="M 67 328 L 303 328" fill="none" stroke="#000000" stroke-miterlimit="10"/></g><g transform="translate(2,2) scale(1,1)"><path d="M 292.83732514237585 332.209517756016 L 303 328 L 292.83732514237585 323.790482243984" fill="#000000" stroke="none"/></g><g transform="translate(2,2) scale(1,1)"><path d="M 292.83732514237585 332.209517756016 L 303 328 L 292.83732514237585 323.790482243984 L 292.83732514237585 332.209517756016" fill="none" stroke="#000000" stroke-miterlimit="10"/></g><g transform="translate(2,2) scale(1,1)"><g><path fill="none" stroke="none"/><text fill="#000000" font-family="Arial" font-size="13px" font-style="normal" font-weight="normal" stroke="none" text-decoration="none" x="120.06005859375" y="304.5">5 : modificaPassword(</text><text fill="#000000" font-family="Arial" font-size="13px" font-style="normal" font-weight="normal" stroke="none" text-decoration="none" x="99.81103515625" y="317.5">old_pwd, new_pwd, re_pwd )</text></g></g><g transform="translate(2,2) scale(1,1)"><rect fill="#ffffff" height="48" stroke="none" width="13" x="303" y="328"/></g><g transform="translate(2,2) scale(1,1)"><path d="M 303 328 L 316 328 L 316 376 L 303 376 L 303 328 Z Z" fill="none" stroke="#000000" stroke-miterlimit="10"/></g><g transform="translate(2,2) scale(1,1)"><path d="M 316 360 L 605 360" fill="none" stroke="#000000" stroke-miterlimit="10"/></g><g transform="translate(2,2) scale(1,1)"><path d="M 594.8373251423759 364.209517756016 L 605 360 L 594.8373251423758 355.790482243984" fill="#000000" stroke="none"/></g><g transform="translate(2,2) scale(1,1)"><path d="M 594.8373251423759 364.209517756016 L 605 360 L 594.8373251423758 355.790482243984 L 594.8373251423759 364.209517756016" fill="none" stroke="#000000" stroke-miterlimit="10"/></g><g transform="translate(2,2) scale(1,1)"><g><path fill="none" stroke="none"/><text fill="#000000" font-family="Arial" font-size="13px" font-style="normal" font-weight="normal" stroke="none" text-decoration="none" x="391.56005859375" y="336.5">6 : modificaPassword(</text><text fill="#000000" font-family="Arial" font-size="13px" font-style="normal" font-weight="normal" stroke="none" text-decoration="none" x="371.31103515625" y="349.5">old_pwd, new_pwd, re_pwd )</text></g></g><g transform="translate(2,2) scale(1,1)"><rect fill="#ffffff" height="40" stroke="none" width="13" x="605" y="360"/></g><g transform="translate(2,2) scale(1,1)"><path d="M 605 360 L 618 360 L 618 400 L 605 400 L 605 360 Z Z" fill="none" stroke="#000000" stroke-miterlimit="10"/></g><g transform="translate(2,2) scale(1,1)"><path d="M 612 424 L 544.1962890625 424" fill="none" stroke="#000000" stroke-dasharray="3" stroke-miterlimit="10"/></g><g transform="translate(2,2) scale(1,1)"><path d="M 554.3589639201241 419.790482243984 L 544.1962890625 424 L 554.3589639201241 428.209517756016" fill="none" stroke="#000000" stroke-miterlimit="10"/></g><g transform="translate(2,2) scale(1,1)"><g><path fill="none" stroke="none"/><text fill="#000000" font-family="Arial" font-size="13px" font-style="normal" font-weight="normal" stroke="none" text-decoration="none" x="567.5" y="438.5">7 : </text></g></g><g transform="translate(2,2) scale(1,1)"><g><path fill="none" stroke="none"/><text fill="#000000" font-family="Arial" font-size="13px" font-style="normal" font-weight="normal" stroke="none" text-decoration="none" x="551.5" y="453.5">«create»</text></g></g><g transform="translate(2,2) scale(1,1)"><path d="M 67 469 L 482 469" fill="none" stroke="#000000" stroke-miterlimit="10"/></g><g transform="translate(2,2) scale(1,1)"><path d="M 471.83732514237585 473.209517756016 L 482 469 L 471.83732514237585 464.790482243984" fill="#000000" stroke="none"/></g><g transform="translate(2,2) scale(1,1)"><path d="M 471.83732514237585 473.209517756016 L 482 469 L 471.83732514237585 464.790482243984 L 471.83732514237585 473.209517756016" fill="none" stroke="#000000" stroke-miterlimit="10"/></g><g transform="translate(2,2) scale(1,1)"><path d="M 479 526 L 499 546" fill="none" stroke="#000000" stroke-miterlimit="10"/></g><g transform="translate(2,2) scale(1,1)"><path d="M 499 526 L 479 546" fill="none" stroke="#000000" stroke-miterlimit="10"/></g><g transform="translate(2,2) scale(1,1)"><g><path fill="none" stroke="none"/><text fill="#000000" font-family="Arial" font-size="13px" font-style="normal" font-weight="normal" stroke="none" text-decoration="none" x="159.5" y="457.5">8 : invioConferma</text></g></g><g transform="translate(2,2) scale(1,1)"><g><path fill="none" stroke="none"/><text fill="#000000" font-family="Arial" font-size="13px" font-style="normal" font-weight="normal" stroke="none" text-decoration="none" x="95.5" y="457.5">«destroy»</text></g></g><g transform="translate(2,2) scale(1,1)"><rect fill="#ffffff" height="28" stroke="none" width="13" x="482" y="469"/></g><g transform="translate(2,2) scale(1,1)"><path d="M 482 469 L 495 469 L 495 497 L 482 497 L 482 469 Z Z" fill="none" stroke="#000000" stroke-miterlimit="10"/></g><g transform="translate(2,2) scale(1,1)"><path d="M 612 600 L 864 600" fill="none" stroke="#000000" stroke-miterlimit="10"/></g><g transform="translate(2,2) scale(1,1)"><path d="M 853.8373251423759 604.209517756016 L 864 600 L 853.8373251423758 595.790482243984" fill="#000000" stroke="none"/></g><g transform="translate(2,2) scale(1,1)"><path d="M 853.8373251423759 604.209517756016 L 864 600 L 853.8373251423758 595.790482243984 L 853.8373251423759 604.209517756016" fill="none" stroke="#000000" stroke-miterlimit="10"/></g><g transform="translate(2,2) scale(1,1)"><g><path fill="none" stroke="none"/><text fill="#000000" font-family="Arial" font-size="13px" font-style="normal" font-weight="normal" stroke="none" text-decoration="none" x="632.114990234375" y="594.5">9 : modificaPassword(mail, newPwd)</text></g></g><g transform="translate(2,2) scale(1,1)"><rect fill="#ffffff" height="248" stroke="none" width="13" x="864" y="600"/></g><g transform="translate(2,2) scale(1,1)"><path d="M 864 600 L 877 600 L 877 848 L 864 848 L 864 600 Z Z" fill="none" stroke="#000000" stroke-miterlimit="10"/></g><g transform="translate(2,2) scale(1,1)"><path d="M 877 632 L 1078 632" fill="none" stroke="#000000" stroke-miterlimit="10"/></g><g transform="translate(2,2) scale(1,1)"><path d="M 1067.837325142376 636.209517756016 L 1078 632 L 1067.837325142376 627.790482243984" fill="#000000" stroke="none"/></g><g transform="translate(2,2) scale(1,1)"><path d="M 1067.837325142376 636.209517756016 L 1078 632 L 1067.837325142376 627.790482243984 L 1067.837325142376 636.209517756016" fill="none" stroke="#000000" stroke-miterlimit="10"/></g><g transform="translate(2,2) scale(1,1)"><g><path fill="none" stroke="none"/><text fill="#000000" font-family="Arial" font-size="13px" font-style="normal" font-weight="normal" stroke="none" text-decoration="none" x="878.5" y="626.5">10 : queryEditPwd(mail, oldPwd, newPwd)</text></g></g><g transform="translate(2,2) scale(1,1)"><rect fill="#ffffff" height="28" stroke="none" width="13" x="1078" y="632"/></g><g transform="translate(2,2) scale(1,1)"><path d="M 1078 632 L 1091 632 L 1091 660 L 1078 660 L 1078 632 Z Z" fill="none" stroke="#000000" stroke-miterlimit="10"/></g><g transform="translate(2,2) scale(1,1)"><path d="M 1078 652 L 877 652" fill="none" stroke="#000000" stroke-dasharray="3" stroke-miterlimit="10"/></g><g transform="translate(2,2) scale(1,1)"><path d="M 887.1626748576241 647.790482243984 L 877 652 L 887.1626748576241 656.209517756016" fill="none" stroke="#000000" stroke-miterlimit="10"/></g><g transform="translate(2,2) scale(1,1)"><g><path fill="none" stroke="none"/><text fill="#000000" font-family="Arial" font-size="13px" font-style="normal" font-weight="normal" stroke="none" text-decoration="none" x="949.759521484375" y="666.5">11 : esito</text></g></g><g transform="translate(2,2) scale(1,1)"><path d="M 877 784 L 1258 784" fill="none" stroke="#000000" stroke-miterlimit="10"/></g><g transform="translate(2,2) scale(1,1)"><path d="M 1247.837325142376 788.209517756016 L 1258 784 L 1247.837325142376 779.790482243984" fill="#000000" stroke="none"/></g><g transform="translate(2,2) scale(1,1)"><path d="M 1247.837325142376 788.209517756016 L 1258 784 L 1247.837325142376 779.790482243984 L 1247.837325142376 788.209517756016" fill="none" stroke="#000000" stroke-miterlimit="10"/></g><g transform="translate(2,2) scale(1,1)"><g><path fill="none" stroke="none"/><text fill="#000000" font-family="Arial" font-size="13px" font-style="normal" font-weight="normal" stroke="none" text-decoration="none" x="948.11181640625" y="778.5">12 : queryEditPwd(mail,oldPwd newPwd)</text></g></g><g transform="translate(2,2) scale(1,1)"><rect fill="#ffffff" height="28" stroke="none" width="13" x="1258" y="784"/></g><g transform="translate(2,2) scale(1,1)"><path d="M 1258 784 L 1271 784 L 1271 812 L 1258 812 L 1258 784 Z Z" fill="none" stroke="#000000" stroke-miterlimit="10"/></g><g transform="translate(2,2) scale(1,1)"><path d="M 1258 804 L 877 804" fill="none" stroke="#000000" stroke-dasharray="3" stroke-miterlimit="10"/></g><g transform="translate(2,2) scale(1,1)"><path d="M 887.1626748576241 799.790482243984 L 877 804 L 887.1626748576241 808.209517756016" fill="none" stroke="#000000" stroke-miterlimit="10"/></g><g transform="translate(2,2) scale(1,1)"><g><path fill="none" stroke="none"/><text fill="#000000" font-family="Arial" font-size="13px" font-style="normal" font-weight="normal" stroke="none" text-decoration="none" x="1039.759521484375" y="818.5">13 : esito</text></g></g><g transform="translate(2,2) scale(1,1)"><path d="M 864 840 L 612 840" fill="none" stroke="#000000" stroke-dasharray="3" stroke-miterlimit="10"/></g><g transform="translate(2,2) scale(1,1)"><path d="M 622.1626748576241 835.790482243984 L 612 840 L 622.1626748576241 844.209517756016" fill="none" stroke="#000000" stroke-miterlimit="10"/></g><g transform="translate(2,2) scale(1,1)"><g><path fill="none" stroke="none"/><text fill="#000000" font-family="Arial" font-size="13px" font-style="normal" font-weight="normal" stroke="none" text-decoration="none" x="710.5" y="854.5">14 : esito</text></g></g><g transform="translate(2,2) scale(1,1)"><path d="M 612 920 L 536.1962890625 920" fill="none" stroke="#000000" stroke-dasharray="3" stroke-miterlimit="10"/></g><g transform="translate(2,2) scale(1,1)"><path d="M 546.3589639201241 915.790482243984 L 536.1962890625 920 L 546.3589639201241 924.209517756016" fill="none" stroke="#000000" stroke-miterlimit="10"/></g><g transform="translate(2,2) scale(1,1)"><g><path fill="none" stroke="none"/><text fill="#000000" font-family="Arial" font-size="13px" font-style="normal" font-weight="normal" stroke="none" text-decoration="none" x="560.5" y="934.5">15 : </text></g></g><g transform="translate(2,2) scale(1,1)"><g><path fill="none" stroke="none"/><text fill="#000000" font-family="Arial" font-size="13px" font-style="normal" font-weight="normal" stroke="none" text-decoration="none" x="547.5" y="949.5">«create»</text></g></g><g transform="translate(2,2) scale(1,1)"><path d="M 67 968 L 474 968" fill="none" stroke="#000000" stroke-miterlimit="10"/></g><g transform="translate(2,2) scale(1,1)"><path d="M 463.83732514237585 972.209517756016 L 474 968 L 463.83732514237585 963.790482243984" fill="#000000" stroke="none"/></g><g transform="translate(2,2) scale(1,1)"><path d="M 463.83732514237585 972.209517756016 L 474 968 L 463.83732514237585 963.790482243984 L 463.83732514237585 972.209517756016" fill="none" stroke="#000000" stroke-miterlimit="10"/></g><g transform="translate(2,2) scale(1,1)"><path d="M 471 1000 L 491 1020" fill="none" stroke="#000000" stroke-miterlimit="10"/></g><g transform="translate(2,2) scale(1,1)"><path d="M 491 1000 L 471 1020" fill="none" stroke="#000000" stroke-miterlimit="10"/></g><g transform="translate(2,2) scale(1,1)"><g><path fill="none" stroke="none"/><text fill="#000000" font-family="Arial" font-size="13px" font-style="normal" font-weight="normal" stroke="none" text-decoration="none" x="209.5" y="962.5">16 : invioConferma( )</text></g></g><g transform="translate(2,2) scale(1,1)"><g><path fill="none" stroke="none"/><text fill="#000000" font-family="Arial" font-size="13px" font-style="normal" font-weight="normal" stroke="none" text-decoration="none" x="241.5" y="947.5">«destroy»</text></g></g><g transform="translate(2,2) scale(1,1)"><rect fill="#ffffff" height="28" stroke="none" width="13" x="474" y="968"/></g><g transform="translate(2,2) scale(1,1)"><path d="M 474 968 L 487 968 L 487 996 L 474 996 L 474 968 Z Z" fill="none" stroke="#000000" stroke-miterlimit="10"/></g><g transform="translate(2,2) scale(1,1)"><path d="M 612 1064 L 642 1064 L 642 1084 L 618 1084" fill="none" stroke="#000000" stroke-miterlimit="10"/></g><g transform="translate(2,2) scale(1,1)"><path d="M 628.1626748576241 1079.7904822439841 L 618 1084 L 628.1626748576241 1088.2095177560159" fill="#000000" stroke="none"/></g><g transform="translate(2,2) scale(1,1)"><path d="M 628.1626748576241 1079.7904822439841 L 618 1084 L 628.1626748576241 1088.2095177560159 L 628.1626748576241 1079.7904822439841" fill="none" stroke="#000000" stroke-miterlimit="10"/></g><g transform="translate(2,2) scale(1,1)"><path d="M 602 1123 L 622 1143" fill="none" stroke="#000000" stroke-miterlimit="10"/></g><g transform="translate(2,2) scale(1,1)"><path d="M 622 1123 L 602 1143" fill="none" stroke="#000000" stroke-miterlimit="10"/></g><g transform="translate(2,2) scale(1,1)"><g><path fill="none" stroke="none"/><text fill="#000000" font-family="Arial" font-size="13px" font-style="normal" font-weight="normal" stroke="none" text-decoration="none" x="647.5" y="1077.5">17 : </text></g></g><g transform="translate(2,2) scale(1,1)"><g><path fill="none" stroke="none"/><text fill="#000000" font-family="Arial" font-size="13px" font-style="normal" font-weight="normal" stroke="none" text-decoration="none" x="671.5" y="1077.5">«destroy»</text></g></g><g transform="translate(2,2) scale(1,1)"><rect fill="#ffffff" height="28" stroke="none" width="13" x="605" y="1084"/></g><g transform="translate(2,2) scale(1,1)"><path d="M 605 1084 L 618 1084 L 618 1112 L 605 1112 L 605 1084 Z Z" fill="none" stroke="#000000" stroke-miterlimit="10"/></g><g transform="translate(2,2) scale(1,1)"><path d="M 605 1088 L 277.8544921875 1088" fill="none" stroke="#000000" stroke-dasharray="3" stroke-miterlimit="10"/></g><g transform="translate(2,2) scale(1,1)"><path d="M 288.01716704512415 1083.7904822439841 L 277.8544921875 1088 L 288.01716704512415 1092.2095177560159" fill="none" stroke="#000000" stroke-miterlimit="10"/></g><g transform="translate(2,2) scale(1,1)"><g><path fill="none" stroke="none"/><text fill="#000000" font-family="Arial" font-size="13px" font-style="normal" font-weight="normal" stroke="none" text-decoration="none" x="427.5" y="1102.5">18 : </text></g></g><g transform="translate(2,2) scale(1,1)"><g><path fill="none" stroke="none"/><text fill="#000000" font-family="Arial" font-size="13px" font-style="normal" font-weight="normal" stroke="none" text-decoration="none" x="414.5" y="1117.5">«create»</text></g></g><g transform="translate(2,2) scale(1,1)"><path d="M 67 1160 L 204 1160" fill="none" stroke="#000000" stroke-miterlimit="10"/></g><g transform="translate(2,2) scale(1,1)"><path d="M 193.83732514237585 1164.2095177560159 L 204 1160 L 193.83732514237585 1155.7904822439841" fill="#000000" stroke="none"/></g><g transform="translate(2,2) scale(1,1)"><path d="M 193.83732514237585 1164.2095177560159 L 204 1160 L 193.83732514237585 1155.7904822439841 L 193.83732514237585 1164.2095177560159" fill="none" stroke="#000000" stroke-miterlimit="10"/></g><g transform="translate(2,2) scale(1,1)"><path d="M 201 1208 L 221 1228" fill="none" stroke="#000000" stroke-miterlimit="10"/></g><g transform="translate(2,2) scale(1,1)"><path d="M 221 1208 L 201 1228" fill="none" stroke="#000000" stroke-miterlimit="10"/></g><g transform="translate(2,2) scale(1,1)"><g><path fill="none" stroke="none"/><text fill="#000000" font-family="Arial" font-size="13px" font-style="normal" font-weight="normal" stroke="none" text-decoration="none" x="80.5" y="1154.5">19 : invioConferma</text></g></g><g transform="translate(2,2) scale(1,1)"><g><path fill="none" stroke="none"/><text fill="#000000" font-family="Arial" font-size="13px" font-style="normal" font-weight="normal" stroke="none" text-decoration="none" x="106.5" y="1139.5">«destroy»</text></g></g><g transform="translate(2,2) scale(1,1)"><rect fill="#ffffff" height="28" stroke="none" width="13" x="204" y="1160"/></g><g transform="translate(2,2) scale(1,1)"><path d="M 204 1160 L 217 1160 L 217 1188 L 204 1188 L 204 1160 Z Z" fill="none" stroke="#000000" stroke-miterlimit="10"/></g><g transform="translate(2,2) scale(1,1)"><path d="M 217 1176 L 303 1176" fill="none" stroke="#000000" stroke-miterlimit="10"/></g><g transform="translate(2,2) scale(1,1)"><path d="M 292.83732514237585 1180.2095177560159 L 303 1176 L 292.83732514237585 1171.7904822439841" fill="#000000" stroke="none"/></g><g transform="translate(2,2) scale(1,1)"><path d="M 292.83732514237585 1180.2095177560159 L 303 1176 L 292.83732514237585 1171.7904822439841 L 292.83732514237585 1180.2095177560159" fill="none" stroke="#000000" stroke-miterlimit="10"/></g><g transform="translate(2,2) scale(1,1)"><path d="M 300 1208 L 320 1228" fill="none" stroke="#000000" stroke-miterlimit="10"/></g><g transform="translate(2,2) scale(1,1)"><path d="M 320 1208 L 300 1228" fill="none" stroke="#000000" stroke-miterlimit="10"/></g><g transform="translate(2,2) scale(1,1)"><g><path fill="none" stroke="none"/><text fill="#000000" font-family="Arial" font-size="13px" font-style="normal" font-weight="normal" stroke="none" text-decoration="none" x="247.5" y="1170.5">20 : </text></g></g><g transform="translate(2,2) scale(1,1)"><g><path fill="none" stroke="none"/><text fill="#000000" font-family="Arial" font-size="13px" font-style="normal" font-weight="normal" stroke="none" text-decoration="none" x="231.5" y="1155.5">«destroy»</text></g></g><g transform="translate(2,2) scale(1,1)"><rect fill="#ffffff" height="28" stroke="none" width="13" x="303" y="1176"/></g><g transform="translate(2,2) scale(1,1)"><path d="M 303 1176 L 316 1176 L 316 1204 L 303 1204 L 303 1176 Z Z" fill="none" stroke="#000000" stroke-miterlimit="10"/></g><g transform="translate(2,2) scale(1,1)"><path d="M 48 264 L 1352 264 L 1352 1056 L 48 1056 L 48 264" fill="none" stroke="#000000" stroke-miterlimit="10"/></g><g transform="translate(2,2) scale(1,1)"><path d="M 48 264 L 48 286 L 182.5234375 286 L 193.5234375 275 L 193.5234375 264 L 48 264" fill="#ffffff" stroke="none"/></g><g transform="translate(2,2) scale(1,1)"><path d="M 48 264 L 48 286 L 182.5234375 286 L 193.5234375 275 L 193.5234375 264 L 48 264 L 48 264" fill="none" stroke="#000000" stroke-miterlimit="10"/></g><g transform="translate(2,2) scale(1,1)"><g><path fill="none" stroke="none"/><text fill="#000000" font-family="Arial" font-size="13px" font-style="normal" font-weight="normal" stroke="none" text-decoration="none" x="83.578125" y="279.5">[ dati non validi ]</text></g></g><g transform="translate(2,2) scale(1,1)"><g><path fill="none" stroke="none"/><text fill="#000000" font-family="Arial" font-size="13px" font-style="normal" font-weight="bold" stroke="none" text-decoration="none" x="51.57177734375" y="279.5">loop</text></g></g><g transform="translate(2,2) scale(1,1)"><path d="M 56 376 L 744 376 L 744 568 L 56 568 L 56 376" fill="none" stroke="#000000" stroke-miterlimit="10"/></g><g transform="translate(2,2) scale(1,1)"><path d="M 56 376 L 56 398 L 184.01708984375 398 L 195.01708984375 387 L 195.01708984375 376 L 56 376" fill="#ffffff" stroke="none"/></g><g transform="translate(2,2) scale(1,1)"><path d="M 56 376 L 56 398 L 184.01708984375 398 L 195.01708984375 387 L 195.01708984375 376 L 56 376 L 56 376" fill="none" stroke="#000000" stroke-miterlimit="10"/></g><g transform="translate(2,2) scale(1,1)"><g><path fill="none" stroke="none"/><text fill="#000000" font-family="Arial" font-size="13px" font-style="normal" font-weight="normal" stroke="none" text-decoration="none" x="85.07177734375" y="391.5">[ dati non validi ]</text></g></g><g transform="translate(2,2) scale(1,1)"><g><path fill="none" stroke="none"/><text fill="#000000" font-family="Arial" font-size="13px" font-style="normal" font-weight="bold" stroke="none" text-decoration="none" x="59.930419921875" y="391.5">opt</text></g></g><g transform="translate(2,2) scale(1,1)"><path d="M 840 536 L 1352 536 L 1352 824 L 840 824 L 840 536" fill="none" stroke="#000000" stroke-miterlimit="10"/></g><g transform="translate(2,2) scale(1,1)"><path d="M 840 536 L 840 558 L 902.236328125 558 L 913.236328125 547 L 913.236328125 536 L 840 536" fill="#ffffff" stroke="none"/></g><g transform="translate(2,2) scale(1,1)"><path d="M 840 536 L 840 558 L 902.236328125 558 L 913.236328125 547 L 913.236328125 536 L 840 536 L 840 536" fill="none" stroke="#000000" stroke-miterlimit="10"/></g><g transform="translate(2,2) scale(1,1)"><g><path fill="none" stroke="none"/><text fill="#000000" font-family="Arial" font-size="13px" font-style="normal" font-weight="normal" stroke="none" text-decoration="none" x="864.72998046875" y="547">         </text></g></g><g transform="translate(2,2) scale(1,1)"><g><path fill="none" stroke="none"/><text fill="#000000" font-family="Arial" font-size="13px" font-style="normal" font-weight="bold" stroke="none" text-decoration="none" x="844.279541015625" y="551.5">alt</text></g></g><g transform="translate(2,2) scale(1,1)"><g><path fill="none" stroke="none"/><text fill="#000000" font-family="Arial" font-size="13px" font-style="normal" font-weight="normal" stroke="none" text-decoration="none" x="859.5" y="584.5">[    il sistema è installato in una Farmacia]</text></g></g><g transform="translate(2,2) scale(1,1)"><path d="M 840 689 L 1352 689" fill="none" stroke="#000000" stroke-dasharray="10,3" stroke-miterlimit="10"/></g><g transform="translate(2,2) scale(1,1)"><g><path fill="none" stroke="none"/><text fill="#000000" font-family="Arial" font-size="13px" font-style="normal" font-weight="normal" stroke="none" text-decoration="none" x="859.5" y="714.5">[     il sistema è installato in una Azienda o Palmare]</text></g></g><g transform="translate(2,2) scale(1,1)"><path d="M 56 872 L 624 872 L 624 1032 L 56 1032 L 56 872" fill="none" stroke="#000000" stroke-miterlimit="10"/></g><g transform="translate(2,2) scale(1,1)"><path d="M 56 872 L 56 894 L 184.01708984375 894 L 195.01708984375 883 L 195.01708984375 872 L 56 872" fill="#ffffff" stroke="none"/></g><g transform="translate(2,2) scale(1,1)"><path d="M 56 872 L 56 894 L 184.01708984375 894 L 195.01708984375 883 L 195.01708984375 872 L 56 872 L 56 872" fill="none" stroke="#000000" stroke-miterlimit="10"/></g><g transform="translate(2,2) scale(1,1)"><g><path fill="none" stroke="none"/><text fill="#000000" font-family="Arial" font-size="13px" font-style="normal" font-weight="normal" stroke="none" text-decoration="none" x="85.07177734375" y="887.5">[ dati non validi ]</text></g></g><g transform="translate(2,2) scale(1,1)"><g><path fill="none" stroke="none"/><text fill="#000000" font-family="Arial" font-size="13px" font-style="normal" font-weight="bold" stroke="none" text-decoration="none" x="59.930419921875" y="887.5">opt</text></g></g></g></svg>