<?xml version="1.0" encoding="UTF-8" standalone="no"?><svg xmlns="http://www.w3.org/2000/svg" xmlns:xlink="http://www.w3.org/1999/xlink" height="940" version="1.1" width="1180"><defs/><g><g transform="translate(-70,2) scale(1,1)"><path d="M 80 8 L 1240 8 L 1240 928 L 80 928 L 80 8" fill="none" stroke="#000000" stroke-miterlimit="10"/></g><g transform="translate(-70,2) scale(1,1)"><path d="M 80 8 L 80 30 L 195.0107421875 30 L 206.0107421875 19 L 206.0107421875 8 L 80 8" fill="#ffffff" stroke="none"/></g><g transform="translate(-70,2) scale(1,1)"><path d="M 80 8 L 80 30 L 195.0107421875 30 L 206.0107421875 19 L 206.0107421875 8 L 80 8 L 80 8" fill="none" stroke="#000000" stroke-miterlimit="10"/></g><g transform="translate(-70,2) scale(1,1)"><g><path fill="none" stroke="none"/><text fill="#000000" font-family="Arial" font-size="13px" font-style="normal" font-weight="normal" stroke="none" text-decoration="none" x="104.72998046875" y="23.5">Autenticazione</text></g></g><g transform="translate(-70,2) scale(1,1)"><g><path fill="none" stroke="none"/><text fill="#000000" font-family="Arial" font-size="13px" font-style="normal" font-weight="bold" stroke="none" text-decoration="none" x="84.279541015625" y="23.5">sd</text></g></g><g transform="translate(-70,2) scale(1,1)"><path d="M 174.0604110440341 47.3 C 174.0604110440341 43.82060576 176.9388127662159 41 180.489501953125 41 C 184.0401911400341 41 186.91859286221592 43.82060576 186.91859286221592 47.3 C 186.91859286221592 50.779394239999995 184.0401911400341 53.6 180.489501953125 53.6 C 176.9388127662159 53.6 174.0604110440341 50.779394239999995 174.0604110440341 47.3 Z" fill="#ffffff" stroke="none"/></g><g transform="translate(-70,2) scale(1,1)"><path d="M 174.0604110440341 47.3 C 174.0604110440341 43.82060576 176.9388127662159 41 180.489501953125 41 C 184.0401911400341 41 186.91859286221592 43.82060576 186.91859286221592 47.3 C 186.91859286221592 50.779394239999995 184.0401911400341 53.6 180.489501953125 53.6 C 176.9388127662159 53.6 174.0604110440341 50.779394239999995 174.0604110440341 47.3 Z" fill="none" stroke="#000000" stroke-miterlimit="10"/></g><g transform="translate(-70,2) scale(1,1)"><path d="M 180.489501953125 53.6 L 180.489501953125 66.4" fill="none" stroke="#000000" stroke-miterlimit="10"/></g><g transform="translate(-70,2) scale(1,1)"><path d="M 173.6822292258523 58.4 L 187.29677468039773 58.4" fill="none" stroke="#000000" stroke-miterlimit="10"/></g><g transform="translate(-70,2) scale(1,1)"><path d="M 180.489501953125 66.4 L 171.03495649857956 79" fill="none" stroke="#000000" stroke-miterlimit="10"/></g><g transform="translate(-70,2) scale(1,1)"><path d="M 180.489501953125 66.4 L 189.94404740767047 79" fill="none" stroke="#000000" stroke-miterlimit="10"/></g><g transform="translate(-70,2) scale(1,1)"><g><path fill="none" stroke="none"/><text fill="#000000" font-family="Arial" font-size="13px" font-style="normal" font-weight="bold" stroke="none" text-decoration="none" x="149.062255859375" y="97.5"> : Persona</text></g></g><g transform="translate(-70,2) scale(1,1)"><path d="M 181.5 105 L 181.5 920" fill="none" stroke="#000000" stroke-dasharray="3" stroke-miterlimit="10"/></g><g transform="translate(-70,2) scale(1,1)"><rect fill="#C0C0C0" height="39" opacity="0.2" stroke="none" width="114.29736328125" x="319" y="47"/></g><g transform="translate(-70,2) scale(1,1)"><rect fill="#ffffff" height="39" stroke="none" width="114.29736328125" x="312" y="40"/></g><g transform="translate(-70,2) scale(1,1)"><path d="M 312 40 L 426.29736328125 40 L 426.29736328125 79 L 312 79 L 312 40 Z Z" fill="none" stroke="#000000" stroke-miterlimit="10"/></g><g transform="translate(-70,2) scale(1,1)"><g><path fill="none" stroke="none"/><text fill="#000000" font-family="Arial" font-size="13px" font-style="normal" font-weight="normal" stroke="none" text-decoration="none" x="334.09375" y="55.5">«Boundary»</text></g></g><g transform="translate(-70,2) scale(1,1)"><g><path fill="none" stroke="none"/><text fill="#000000" font-family="Arial" font-size="13px" font-style="normal" font-weight="bold" stroke="none" text-decoration="none" x="326.194091796875" y="70.5">:ModuloLogin</text></g></g><g transform="translate(-70,2) scale(1,1)"><path d="M 370.5 80 L 370.5 693" fill="none" stroke="#000000" stroke-dasharray="3" stroke-miterlimit="10"/></g><g transform="translate(-70,2) scale(1,1)"><rect fill="#C0C0C0" height="39" opacity="0.2" stroke="none" width="164.91357421875" x="471" y="47"/></g><g transform="translate(-70,2) scale(1,1)"><rect fill="#ffffff" height="39" stroke="none" width="164.91357421875" x="464" y="40"/></g><g transform="translate(-70,2) scale(1,1)"><path d="M 464 40 L 628.91357421875 40 L 628.91357421875 79 L 464 79 L 464 40 Z Z" fill="none" stroke="#000000" stroke-miterlimit="10"/></g><g transform="translate(-70,2) scale(1,1)"><g><path fill="none" stroke="none"/><text fill="#000000" font-family="Arial" font-size="13px" font-style="normal" font-weight="normal" stroke="none" text-decoration="none" x="518.273193359375" y="55.5">«Control»</text></g></g><g transform="translate(-70,2) scale(1,1)"><g><path fill="none" stroke="none"/><text fill="#000000" font-family="Arial" font-size="13px" font-style="normal" font-weight="bold" stroke="none" text-decoration="none" x="473.5" y="70.5">:GestoreAutenticazione</text></g></g><g transform="translate(-70,2) scale(1,1)"><path d="M 547.5 80 L 547.5 789" fill="none" stroke="#000000" stroke-dasharray="3" stroke-miterlimit="10"/></g><g transform="translate(-70,2) scale(1,1)"><rect fill="#C0C0C0" height="39" opacity="0.2" stroke="none" width="116.50634765625" x="743" y="47"/></g><g transform="translate(-70,2) scale(1,1)"><rect fill="#ffffff" height="39" stroke="none" width="116.50634765625" x="736" y="40"/></g><g transform="translate(-70,2) scale(1,1)"><path d="M 736 40 L 852.50634765625 40 L 852.50634765625 79 L 736 79 L 736 40 Z Z" fill="none" stroke="#000000" stroke-miterlimit="10"/></g><g transform="translate(-70,2) scale(1,1)"><g><path fill="none" stroke="none"/><text fill="#000000" font-family="Arial" font-size="13px" font-style="normal" font-weight="normal" stroke="none" text-decoration="none" x="759.1982421875" y="55.5">«Boundary»</text></g></g><g transform="translate(-70,2) scale(1,1)"><g><path fill="none" stroke="none"/><text fill="#000000" font-family="Arial" font-size="13px" font-style="normal" font-weight="bold" stroke="none" text-decoration="none" x="749.470458984375" y="70.5">DBMSDaemon</text></g></g><g transform="translate(-70,2) scale(1,1)"><path d="M 795.5 80 L 795.5 904" fill="none" stroke="#000000" stroke-dasharray="3" stroke-miterlimit="10"/></g><g transform="translate(-70,2) scale(1,1)"><rect fill="#C0C0C0" height="39" opacity="0.2" stroke="none" width="71.736328125" x="943" y="47"/></g><g transform="translate(-70,2) scale(1,1)"><rect fill="#ffffff" height="39" stroke="none" width="71.736328125" x="936" y="40"/></g><g transform="translate(-70,2) scale(1,1)"><path d="M 936 40 L 1007.736328125 40 L 1007.736328125 79 L 936 79 L 936 40 Z Z" fill="none" stroke="#000000" stroke-miterlimit="10"/></g><g transform="translate(-70,2) scale(1,1)"><g><path fill="none" stroke="none"/><text fill="#000000" font-family="Arial" font-size="13px" font-style="normal" font-weight="bold" stroke="none" text-decoration="none" x="952.72998046875" y="57.5">DBMS</text></g></g><g transform="translate(-70,2) scale(1,1)"><path d="M 972.5 80 L 972.5 904" fill="none" stroke="#000000" stroke-dasharray="3" stroke-miterlimit="10"/></g><g transform="translate(-70,2) scale(1,1)"><path d="M 1016 32 L 1221 32 L 1231 42 L 1231 111 L 1016 111 L 1016 32" fill="#ffffff" stroke="none"/></g><g transform="translate(-70,2) scale(1,1)"><path d="M 1016 32 L 1221 32 L 1231 42 L 1231 111 L 1016 111 L 1016 32 L 1016 32" fill="none" stroke="#000000" stroke-miterlimit="10"/></g><g transform="translate(-70,2) scale(1,1)"><path d="M 1221 32 L 1221 42 L 1231 42 L 1221 32" fill="none" stroke="#000000" stroke-miterlimit="10"/></g><g transform="translate(-70,2) scale(1,1)"><g><path fill="none" stroke="none"/><text fill="#000000" font-family="Arial" font-size="13px" font-style="normal" font-weight="normal" stroke="none" text-decoration="none" x="1021" y="46">Se il Sistema è installato in una</text><text fill="#000000" font-family="Arial" font-size="13px" font-style="normal" font-weight="normal" stroke="none" text-decoration="none" x="1021" y="59">Farmacia il DBMS corrispondente è</text><text fill="#000000" font-family="Arial" font-size="13px" font-style="normal" font-weight="normal" stroke="none" text-decoration="none" x="1021" y="72">DBMS Farmacie, altrimenti DBMS</text><text fill="#000000" font-family="Arial" font-size="13px" font-style="normal" font-weight="normal" stroke="none" text-decoration="none" x="1021" y="85">Azienda</text></g></g><g transform="translate(-70,2) scale(1,1)"><rect fill="#C0C0C0" height="39" opacity="0.2" stroke="none" width="112.1962890625" x="695" y="419"/></g><g transform="translate(-70,2) scale(1,1)"><rect fill="#ffffff" height="39" stroke="none" width="112.1962890625" x="688" y="412"/></g><g transform="translate(-70,2) scale(1,1)"><path d="M 688 412 L 800.1962890625 412 L 800.1962890625 451 L 688 451 L 688 412 Z Z" fill="none" stroke="#000000" stroke-miterlimit="10"/></g><g transform="translate(-70,2) scale(1,1)"><g><path fill="none" stroke="none"/><text fill="#000000" font-family="Arial" font-size="13px" font-style="normal" font-weight="normal" stroke="none" text-decoration="none" x="709.043212890625" y="427.5">«Boundary»</text></g></g><g transform="translate(-70,2) scale(1,1)"><g><path fill="none" stroke="none"/><text fill="#000000" font-family="Arial" font-size="13px" font-style="normal" font-weight="bold" stroke="none" text-decoration="none" x="697.5" y="442.5">PannelloErrore</text></g></g><g transform="translate(-70,2) scale(1,1)"><path d="M 745.5 452 L 745.5 538" fill="none" stroke="#000000" stroke-dasharray="3" stroke-miterlimit="10"/></g><g transform="translate(-70,2) scale(1,1)"><rect fill="#C0C0C0" height="39" opacity="0.2" stroke="none" width="153.7607421875" x="303" y="731"/></g><g transform="translate(-70,2) scale(1,1)"><rect fill="#ffffff" height="39" stroke="none" width="153.7607421875" x="296" y="724"/></g><g transform="translate(-70,2) scale(1,1)"><path d="M 296 724 L 449.7607421875 724 L 449.7607421875 763 L 296 763 L 296 724 Z Z" fill="none" stroke="#000000" stroke-miterlimit="10"/></g><g transform="translate(-70,2) scale(1,1)"><g><path fill="none" stroke="none"/><text fill="#000000" font-family="Arial" font-size="13px" font-style="normal" font-weight="normal" stroke="none" text-decoration="none" x="337.825439453125" y="739.5">«Boundary»</text></g></g><g transform="translate(-70,2) scale(1,1)"><g><path fill="none" stroke="none"/><text fill="#000000" font-family="Arial" font-size="13px" font-style="normal" font-weight="bold" stroke="none" text-decoration="none" x="307.13134765625" y="754.5">:InterfacciaPrincipale</text></g></g><g transform="translate(-70,2) scale(1,1)"><path d="M 373.5 764 L 373.5 912" fill="none" stroke="#000000" stroke-dasharray="3" stroke-miterlimit="10"/></g><g transform="translate(-70,2) scale(1,1)"><path d="M 181 183 L 363 183" fill="none" stroke="#000000" stroke-miterlimit="10"/></g><g transform="translate(-70,2) scale(1,1)"><path d="M 352.83732514237585 187.209517756016 L 363 183 L 352.83732514237585 178.790482243984" fill="#000000" stroke="none"/></g><g transform="translate(-70,2) scale(1,1)"><path d="M 352.83732514237585 187.209517756016 L 363 183 L 352.83732514237585 178.790482243984 L 352.83732514237585 187.209517756016" fill="none" stroke="#000000" stroke-miterlimit="10"/></g><g transform="translate(-70,2) scale(1,1)"><g><path fill="none" stroke="none"/><text fill="#000000" font-family="Arial" font-size="13px" font-style="normal" font-weight="normal" stroke="none" text-decoration="none" x="205.25634765625" y="161.5">1 : InserisciCredenziali(</text><text fill="#000000" font-family="Arial" font-size="13px" font-style="normal" font-weight="normal" stroke="none" text-decoration="none" x="208.509521484375" y="174.5">IDUnivoco, Password)</text></g></g><g transform="translate(-70,2) scale(1,1)"><rect fill="#ffffff" height="28" stroke="none" width="13" x="363" y="183"/></g><g transform="translate(-70,2) scale(1,1)"><path d="M 363 183 L 376 183 L 376 211 L 363 211 L 363 183 Z Z" fill="none" stroke="#000000" stroke-miterlimit="10"/></g><g transform="translate(-70,2) scale(1,1)"><path d="M 370 216 L 540 216" fill="none" stroke="#000000" stroke-miterlimit="10"/></g><g transform="translate(-70,2) scale(1,1)"><path d="M 529.8373251423759 220.209517756016 L 540 216 L 529.8373251423758 211.790482243984" fill="#000000" stroke="none"/></g><g transform="translate(-70,2) scale(1,1)"><path d="M 529.8373251423759 220.209517756016 L 540 216 L 529.8373251423758 211.790482243984 L 529.8373251423759 220.209517756016" fill="none" stroke="#000000" stroke-miterlimit="10"/></g><g transform="translate(-70,2) scale(1,1)"><g><path fill="none" stroke="none"/><text fill="#000000" font-family="Arial" font-size="13px" font-style="normal" font-weight="normal" stroke="none" text-decoration="none" x="386.774169921875" y="193.5">2 : ControlloCredenziali(</text><text fill="#000000" font-family="Arial" font-size="13px" font-style="normal" font-weight="normal" stroke="none" text-decoration="none" x="392.201416015625" y="206.5">IDUnivoco, Password)</text></g></g><g transform="translate(-70,2) scale(1,1)"><rect fill="#ffffff" height="28" stroke="none" width="13" x="540" y="216"/></g><g transform="translate(-70,2) scale(1,1)"><path d="M 540 216 L 553 216 L 553 244 L 540 244 L 540 216 Z Z" fill="none" stroke="#000000" stroke-miterlimit="10"/></g><g transform="translate(-70,2) scale(1,1)"><path d="M 553 240 L 788 240" fill="none" stroke="#000000" stroke-miterlimit="10"/></g><g transform="translate(-70,2) scale(1,1)"><path d="M 777.8373251423759 244.209517756016 L 788 240 L 777.8373251423758 235.790482243984" fill="#000000" stroke="none"/></g><g transform="translate(-70,2) scale(1,1)"><path d="M 777.8373251423759 244.209517756016 L 788 240 L 777.8373251423758 235.790482243984 L 777.8373251423759 244.209517756016" fill="none" stroke="#000000" stroke-miterlimit="10"/></g><g transform="translate(-70,2) scale(1,1)"><g><path fill="none" stroke="none"/><text fill="#000000" font-family="Arial" font-size="13px" font-style="normal" font-weight="normal" stroke="none" text-decoration="none" x="596.774169921875" y="216.5">3 : ControlloCredenziali(</text><text fill="#000000" font-family="Arial" font-size="13px" font-style="normal" font-weight="normal" stroke="none" text-decoration="none" x="602.201416015625" y="229.5">IDUnivoco, Password)</text></g></g><g transform="translate(-70,2) scale(1,1)"><rect fill="#ffffff" height="28" stroke="none" width="13" x="788" y="240"/></g><g transform="translate(-70,2) scale(1,1)"><path d="M 788 240 L 801 240 L 801 268 L 788 268 L 788 240 Z Z" fill="none" stroke="#000000" stroke-miterlimit="10"/></g><g transform="translate(-70,2) scale(1,1)"><path d="M 795 272 L 965 272" fill="none" stroke="#000000" stroke-miterlimit="10"/></g><g transform="translate(-70,2) scale(1,1)"><path d="M 954.8373251423759 276.209517756016 L 965 272 L 954.8373251423758 267.790482243984" fill="#000000" stroke="none"/></g><g transform="translate(-70,2) scale(1,1)"><path d="M 954.8373251423759 276.209517756016 L 965 272 L 954.8373251423758 267.790482243984 L 954.8373251423759 276.209517756016" fill="none" stroke="#000000" stroke-miterlimit="10"/></g><g transform="translate(-70,2) scale(1,1)"><g><path fill="none" stroke="none"/><text fill="#000000" font-family="Arial" font-size="13px" font-style="normal" font-weight="normal" stroke="none" text-decoration="none" x="820.274169921875" y="245.5">4 : ControlloCredenziali(</text><text fill="#000000" font-family="Arial" font-size="13px" font-style="normal" font-weight="normal" stroke="none" text-decoration="none" x="825.701416015625" y="258.5">IDUnivoco, Password)</text></g></g><g transform="translate(-70,2) scale(1,1)"><rect fill="#ffffff" height="28" stroke="none" width="13" x="965" y="272"/></g><g transform="translate(-70,2) scale(1,1)"><path d="M 965 272 L 978 272 L 978 300 L 965 300 L 965 272 Z Z" fill="none" stroke="#000000" stroke-miterlimit="10"/></g><g transform="translate(-70,2) scale(1,1)"><path d="M 972 312 L 795 312" fill="none" stroke="#000000" stroke-dasharray="3" stroke-miterlimit="10"/></g><g transform="translate(-70,2) scale(1,1)"><path d="M 805.1626748576241 307.790482243984 L 795 312 L 805.1626748576241 316.209517756016" fill="none" stroke="#000000" stroke-miterlimit="10"/></g><g transform="translate(-70,2) scale(1,1)"><g><path fill="none" stroke="none"/><text fill="#000000" font-family="Arial" font-size="13px" font-style="normal" font-weight="normal" stroke="none" text-decoration="none" x="832.5" y="326.5">5 : esitoRichiesta</text></g></g><g transform="translate(-70,2) scale(1,1)"><path d="M 795 352 L 547 352" fill="none" stroke="#000000" stroke-dasharray="3" stroke-miterlimit="10"/></g><g transform="translate(-70,2) scale(1,1)"><path d="M 557.1626748576241 347.790482243984 L 547 352 L 557.1626748576241 356.209517756016" fill="none" stroke="#000000" stroke-miterlimit="10"/></g><g transform="translate(-70,2) scale(1,1)"><g><path fill="none" stroke="none"/><text fill="#000000" font-family="Arial" font-size="13px" font-style="normal" font-weight="normal" stroke="none" text-decoration="none" x="620.5" y="366.5">6 : esitoRichiesta</text></g></g><g transform="translate(-70,2) scale(1,1)"><path d="M 547 432 L 688 432" fill="none" stroke="#000000" stroke-dasharray="3" stroke-miterlimit="10"/></g><g transform="translate(-70,2) scale(1,1)"><path d="M 677.8373251423759 436.209517756016 L 688 432 L 677.8373251423758 427.790482243984" fill="none" stroke="#000000" stroke-miterlimit="10"/></g><g transform="translate(-70,2) scale(1,1)"><g><path fill="none" stroke="none"/><text fill="#000000" font-family="Arial" font-size="13px" font-style="normal" font-weight="normal" stroke="none" text-decoration="none" x="607.5" y="426.5">7 : </text></g></g><g transform="translate(-70,2) scale(1,1)"><g><path fill="none" stroke="none"/><text fill="#000000" font-family="Arial" font-size="13px" font-style="normal" font-weight="normal" stroke="none" text-decoration="none" x="591.5" y="411.5">«create»</text></g></g><g transform="translate(-70,2) scale(1,1)"><path d="M 181 496 L 738 496" fill="none" stroke="#000000" stroke-miterlimit="10"/></g><g transform="translate(-70,2) scale(1,1)"><path d="M 727.8373251423759 500.209517756016 L 738 496 L 727.8373251423758 491.790482243984" fill="#000000" stroke="none"/></g><g transform="translate(-70,2) scale(1,1)"><path d="M 727.8373251423759 500.209517756016 L 738 496 L 727.8373251423758 491.790482243984 L 727.8373251423759 500.209517756016" fill="none" stroke="#000000" stroke-miterlimit="10"/></g><g transform="translate(-70,2) scale(1,1)"><path d="M 735 528 L 755 548" fill="none" stroke="#000000" stroke-miterlimit="10"/></g><g transform="translate(-70,2) scale(1,1)"><path d="M 755 528 L 735 548" fill="none" stroke="#000000" stroke-miterlimit="10"/></g><g transform="translate(-70,2) scale(1,1)"><g><path fill="none" stroke="none"/><text fill="#000000" font-family="Arial" font-size="13px" font-style="normal" font-weight="normal" stroke="none" text-decoration="none" x="401.5" y="490.5">8 : invioConferma( )</text></g></g><g transform="translate(-70,2) scale(1,1)"><g><path fill="none" stroke="none"/><text fill="#000000" font-family="Arial" font-size="13px" font-style="normal" font-weight="normal" stroke="none" text-decoration="none" x="430.5" y="475.5">«destroy»</text></g></g><g transform="translate(-70,2) scale(1,1)"><rect fill="#ffffff" height="28" stroke="none" width="13" x="738" y="496"/></g><g transform="translate(-70,2) scale(1,1)"><path d="M 738 496 L 751 496 L 751 524 L 738 524 L 738 496 Z Z" fill="none" stroke="#000000" stroke-miterlimit="10"/></g><g transform="translate(-70,2) scale(1,1)"><path d="M 547 648 L 376 648" fill="none" stroke="#000000" stroke-miterlimit="10"/></g><g transform="translate(-70,2) scale(1,1)"><path d="M 386.16267485762415 643.790482243984 L 376 648 L 386.16267485762415 652.209517756016" fill="#000000" stroke="none"/></g><g transform="translate(-70,2) scale(1,1)"><path d="M 386.16267485762415 643.790482243984 L 376 648 L 386.16267485762415 652.209517756016 L 386.16267485762415 643.790482243984" fill="none" stroke="#000000" stroke-miterlimit="10"/></g><g transform="translate(-70,2) scale(1,1)"><path d="M 360 683 L 380 703" fill="none" stroke="#000000" stroke-miterlimit="10"/></g><g transform="translate(-70,2) scale(1,1)"><path d="M 380 683 L 360 703" fill="none" stroke="#000000" stroke-miterlimit="10"/></g><g transform="translate(-70,2) scale(1,1)"><g><path fill="none" stroke="none"/><text fill="#000000" font-family="Arial" font-size="13px" font-style="normal" font-weight="normal" stroke="none" text-decoration="none" x="450.5" y="662.5">9 : </text></g></g><g transform="translate(-70,2) scale(1,1)"><g><path fill="none" stroke="none"/><text fill="#000000" font-family="Arial" font-size="13px" font-style="normal" font-weight="normal" stroke="none" text-decoration="none" x="431.5" y="677.5">«destroy»</text></g></g><g transform="translate(-70,2) scale(1,1)"><rect fill="#ffffff" height="28" stroke="none" width="13" x="363" y="648"/></g><g transform="translate(-70,2) scale(1,1)"><path d="M 363 648 L 376 648 L 376 676 L 363 676 L 363 648 Z Z" fill="none" stroke="#000000" stroke-miterlimit="10"/></g><g transform="translate(-70,2) scale(1,1)"><path d="M 547 744 L 449.7607421875 744" fill="none" stroke="#000000" stroke-dasharray="3" stroke-miterlimit="10"/></g><g transform="translate(-70,2) scale(1,1)"><path d="M 459.92341704512415 739.790482243984 L 449.7607421875 744 L 459.92341704512415 748.209517756016" fill="none" stroke="#000000" stroke-miterlimit="10"/></g><g transform="translate(-70,2) scale(1,1)"><g><path fill="none" stroke="none"/><text fill="#000000" font-family="Arial" font-size="13px" font-style="normal" font-weight="normal" stroke="none" text-decoration="none" x="484.5" y="758.5">10 : </text></g></g><g transform="translate(-70,2) scale(1,1)"><g><path fill="none" stroke="none"/><text fill="#000000" font-family="Arial" font-size="13px" font-style="normal" font-weight="normal" stroke="none" text-decoration="none" x="471.5" y="773.5">«create»</text></g></g><g transform="translate(-70,2) scale(1,1)"><path d="M 200 120 L 1040 120 L 1040 616 L 200 616 L 200 120" fill="none" stroke="#000000" stroke-miterlimit="10"/></g><g transform="translate(-70,2) scale(1,1)"><path d="M 200 120 L 200 142 L 327.2998046875 142 L 338.2998046875 131 L 338.2998046875 120 L 200 120" fill="#ffffff" stroke="none"/></g><g transform="translate(-70,2) scale(1,1)"><path d="M 200 120 L 200 142 L 327.2998046875 142 L 338.2998046875 131 L 338.2998046875 120 L 200 120 L 200 120" fill="none" stroke="#000000" stroke-miterlimit="10"/></g><g transform="translate(-70,2) scale(1,1)"><g><path fill="none" stroke="none"/><text fill="#000000" font-family="Arial" font-size="13px" font-style="normal" font-weight="normal" stroke="none" text-decoration="none" x="235.578125" y="135.5">[dati non validi]</text></g></g><g transform="translate(-70,2) scale(1,1)"><g><path fill="none" stroke="none"/><text fill="#000000" font-family="Arial" font-size="13px" font-style="normal" font-weight="bold" stroke="none" text-decoration="none" x="203.57177734375" y="135.5">loop</text></g></g><g transform="translate(-70,2) scale(1,1)"><path d="M 352 336 L 991 336 L 991 552 L 352 552 L 352 336" fill="none" stroke="#000000" stroke-miterlimit="10"/></g><g transform="translate(-70,2) scale(1,1)"><path d="M 352 336 L 352 358 L 472.79345703125 358 L 483.79345703125 347 L 483.79345703125 336 L 352 336" fill="#ffffff" stroke="none"/></g><g transform="translate(-70,2) scale(1,1)"><path d="M 352 336 L 352 358 L 472.79345703125 358 L 483.79345703125 347 L 483.79345703125 336 L 352 336 L 352 336" fill="none" stroke="#000000" stroke-miterlimit="10"/></g><g transform="translate(-70,2) scale(1,1)"><g><path fill="none" stroke="none"/><text fill="#000000" font-family="Arial" font-size="13px" font-style="normal" font-weight="normal" stroke="none" text-decoration="none" x="381.07177734375" y="351.5">[dati non validi]</text></g></g><g transform="translate(-70,2) scale(1,1)"><g><path fill="none" stroke="none"/><text fill="#000000" font-family="Arial" font-size="13px" font-style="normal" font-weight="bold" stroke="none" text-decoration="none" x="355.930419921875" y="351.5">opt</text></g></g></g></svg>