<?xml version="1.0" encoding="UTF-8" standalone="no"?><svg xmlns="http://www.w3.org/2000/svg" xmlns:xlink="http://www.w3.org/1999/xlink" height="1494" version="1.1" width="1316"><defs/><g><g transform="translate(-6,-6) scale(1,1)"><path d="M 16 16 L 1312 16 L 1312 1456 L 16 1456 L 16 16" fill="none" stroke="#000000" stroke-miterlimit="10"/></g><g transform="translate(-6,-6) scale(1,1)"><path d="M 16 16 L 16 38 L 167.12890625 38 L 178.12890625 27 L 178.12890625 16 L 16 16" fill="#ffffff" stroke="none"/></g><g transform="translate(-6,-6) scale(1,1)"><path d="M 16 16 L 16 38 L 167.12890625 38 L 178.12890625 27 L 178.12890625 16 L 16 16 L 16 16" fill="none" stroke="#000000" stroke-miterlimit="10"/></g><g transform="translate(-6,-6) scale(1,1)"><g><path fill="none" stroke="none"/><text fill="#000000" font-family="Arial" font-size="13px" font-style="normal" font-weight="normal" stroke="none" text-decoration="none" x="40.72998046875" y="31.5">RecuperoCredenziali</text></g></g><g transform="translate(-6,-6) scale(1,1)"><g><path fill="none" stroke="none"/><text fill="#000000" font-family="Arial" font-size="13px" font-style="normal" font-weight="bold" stroke="none" text-decoration="none" x="20.279541015625" y="31.5">sd</text></g></g><g transform="translate(-6,-6) scale(1,1)"><path d="M 94.0604110440341 47.3 C 94.0604110440341 43.82060576 96.93881276621592 41 100.489501953125 41 C 104.04019114003408 41 106.9185928622159 43.82060576 106.9185928622159 47.3 C 106.9185928622159 50.779394239999995 104.04019114003408 53.6 100.489501953125 53.6 C 96.93881276621592 53.6 94.0604110440341 50.779394239999995 94.0604110440341 47.3 Z" fill="#ffffff" stroke="none"/></g><g transform="translate(-6,-6) scale(1,1)"><path d="M 94.0604110440341 47.3 C 94.0604110440341 43.82060576 96.93881276621592 41 100.489501953125 41 C 104.04019114003408 41 106.9185928622159 43.82060576 106.9185928622159 47.3 C 106.9185928622159 50.779394239999995 104.04019114003408 53.6 100.489501953125 53.6 C 96.93881276621592 53.6 94.0604110440341 50.779394239999995 94.0604110440341 47.3 Z" fill="none" stroke="#000000" stroke-miterlimit="10"/></g><g transform="translate(-6,-6) scale(1,1)"><path d="M 100.489501953125 53.6 L 100.489501953125 66.4" fill="none" stroke="#000000" stroke-miterlimit="10"/></g><g transform="translate(-6,-6) scale(1,1)"><path d="M 93.68222922585227 58.4 L 107.29677468039773 58.4" fill="none" stroke="#000000" stroke-miterlimit="10"/></g><g transform="translate(-6,-6) scale(1,1)"><path d="M 100.489501953125 66.4 L 91.03495649857955 79" fill="none" stroke="#000000" stroke-miterlimit="10"/></g><g transform="translate(-6,-6) scale(1,1)"><path d="M 100.489501953125 66.4 L 109.94404740767045 79" fill="none" stroke="#000000" stroke-miterlimit="10"/></g><g transform="translate(-6,-6) scale(1,1)"><g><path fill="none" stroke="none"/><text fill="#000000" font-family="Arial" font-size="13px" font-style="normal" font-weight="bold" stroke="none" text-decoration="none" x="70.8681640625" y="97.5">: Persona</text></g></g><g transform="translate(-6,-6) scale(1,1)"><path d="M 101.5 105 L 101.5 1490" fill="none" stroke="#000000" stroke-dasharray="3" stroke-miterlimit="10"/></g><g transform="translate(-6,-6) scale(1,1)"><path d="M 1061.899034090909 47.3 C 1061.899034090909 43.82060576 1064.777435813091 41 1068.328125 41 C 1071.878814186909 41 1074.757215909091 43.82060576 1074.757215909091 47.3 C 1074.757215909091 50.779394239999995 1071.878814186909 53.6 1068.328125 53.6 C 1064.777435813091 53.6 1061.899034090909 50.779394239999995 1061.899034090909 47.3 Z" fill="#ffffff" stroke="none"/></g><g transform="translate(-6,-6) scale(1,1)"><path d="M 1061.899034090909 47.3 C 1061.899034090909 43.82060576 1064.777435813091 41 1068.328125 41 C 1071.878814186909 41 1074.757215909091 43.82060576 1074.757215909091 47.3 C 1074.757215909091 50.779394239999995 1071.878814186909 53.6 1068.328125 53.6 C 1064.777435813091 53.6 1061.899034090909 50.779394239999995 1061.899034090909 47.3 Z" fill="none" stroke="#000000" stroke-miterlimit="10"/></g><g transform="translate(-6,-6) scale(1,1)"><path d="M 1068.328125 53.6 L 1068.328125 66.4" fill="none" stroke="#000000" stroke-miterlimit="10"/></g><g transform="translate(-6,-6) scale(1,1)"><path d="M 1061.5208522727273 58.4 L 1075.1353977272727 58.4" fill="none" stroke="#000000" stroke-miterlimit="10"/></g><g transform="translate(-6,-6) scale(1,1)"><path d="M 1068.328125 66.4 L 1058.8735795454545 79" fill="none" stroke="#000000" stroke-miterlimit="10"/></g><g transform="translate(-6,-6) scale(1,1)"><path d="M 1068.328125 66.4 L 1077.7826704545455 79" fill="none" stroke="#000000" stroke-miterlimit="10"/></g><g transform="translate(-6,-6) scale(1,1)"><g><path fill="none" stroke="none"/><text fill="#000000" font-family="Arial" font-size="13px" font-style="normal" font-weight="bold" stroke="none" text-decoration="none" x="1014.8681640625" y="97.5">: DBMS Farmacie</text></g></g><g transform="translate(-6,-6) scale(1,1)"><path d="M 1069.5 105 L 1069.5 1082" fill="none" stroke="#000000" stroke-dasharray="3" stroke-miterlimit="10"/></g><g transform="translate(-6,-6) scale(1,1)"><path d="M 1194.274522372159 47.3 C 1194.274522372159 43.82060576 1197.152924094341 41 1200.70361328125 41 C 1204.254302468159 41 1207.132704190341 43.82060576 1207.132704190341 47.3 C 1207.132704190341 50.779394239999995 1204.254302468159 53.6 1200.70361328125 53.6 C 1197.152924094341 53.6 1194.274522372159 50.779394239999995 1194.274522372159 47.3 Z" fill="#ffffff" stroke="none"/></g><g transform="translate(-6,-6) scale(1,1)"><path d="M 1194.274522372159 47.3 C 1194.274522372159 43.82060576 1197.152924094341 41 1200.70361328125 41 C 1204.254302468159 41 1207.132704190341 43.82060576 1207.132704190341 47.3 C 1207.132704190341 50.779394239999995 1204.254302468159 53.6 1200.70361328125 53.6 C 1197.152924094341 53.6 1194.274522372159 50.779394239999995 1194.274522372159 47.3 Z" fill="none" stroke="#000000" stroke-miterlimit="10"/></g><g transform="translate(-6,-6) scale(1,1)"><path d="M 1200.70361328125 53.6 L 1200.70361328125 66.4" fill="none" stroke="#000000" stroke-miterlimit="10"/></g><g transform="translate(-6,-6) scale(1,1)"><path d="M 1193.8963405539773 58.4 L 1207.5108860085227 58.4" fill="none" stroke="#000000" stroke-miterlimit="10"/></g><g transform="translate(-6,-6) scale(1,1)"><path d="M 1200.70361328125 66.4 L 1191.2490678267045 79" fill="none" stroke="#000000" stroke-miterlimit="10"/></g><g transform="translate(-6,-6) scale(1,1)"><path d="M 1200.70361328125 66.4 L 1210.1581587357955 79" fill="none" stroke="#000000" stroke-miterlimit="10"/></g><g transform="translate(-6,-6) scale(1,1)"><g><path fill="none" stroke="none"/><text fill="#000000" font-family="Arial" font-size="13px" font-style="normal" font-weight="bold" stroke="none" text-decoration="none" x="1150.8681640625" y="97.5">: DBMS Azienda</text></g></g><g transform="translate(-6,-6) scale(1,1)"><path d="M 1201.5 105 L 1201.5 1210" fill="none" stroke="#000000" stroke-dasharray="3" stroke-miterlimit="10"/></g><g transform="translate(-6,-6) scale(1,1)"><rect fill="#C0C0C0" height="39" opacity="0.2" stroke="none" width="161.9873046875" x="207" y="47"/></g><g transform="translate(-6,-6) scale(1,1)"><rect fill="#ffffff" height="39" stroke="none" width="161.9873046875" x="200" y="40"/></g><g transform="translate(-6,-6) scale(1,1)"><path d="M 200 40 L 361.9873046875 40 L 361.9873046875 79 L 200 79 L 200 40 Z Z" fill="none" stroke="#000000" stroke-miterlimit="10"/></g><g transform="translate(-6,-6) scale(1,1)"><g><path fill="none" stroke="none"/><text fill="#000000" font-family="Arial" font-size="13px" font-style="normal" font-weight="normal" stroke="none" text-decoration="none" x="245.938720703125" y="55.5">«Boundary»</text></g></g><g transform="translate(-6,-6) scale(1,1)"><g><path fill="none" stroke="none"/><text fill="#000000" font-family="Arial" font-size="13px" font-style="normal" font-weight="bold" stroke="none" text-decoration="none" x="209.5" y="70.5">:ModuloAutenticazione</text></g></g><g transform="translate(-6,-6) scale(1,1)"><path d="M 281.5 80 L 281.5 214" fill="none" stroke="#000000" stroke-dasharray="3" stroke-miterlimit="10"/></g><g transform="translate(-6,-6) scale(1,1)"><rect fill="#C0C0C0" height="39" opacity="0.2" stroke="none" width="164.91357421875" x="423" y="47"/></g><g transform="translate(-6,-6) scale(1,1)"><rect fill="#ffffff" height="39" stroke="none" width="164.91357421875" x="416" y="40"/></g><g transform="translate(-6,-6) scale(1,1)"><path d="M 416 40 L 580.91357421875 40 L 580.91357421875 79 L 416 79 L 416 40 Z Z" fill="none" stroke="#000000" stroke-miterlimit="10"/></g><g transform="translate(-6,-6) scale(1,1)"><g><path fill="none" stroke="none"/><text fill="#000000" font-family="Arial" font-size="13px" font-style="normal" font-weight="normal" stroke="none" text-decoration="none" x="470.273193359375" y="55.5">«Control»</text></g></g><g transform="translate(-6,-6) scale(1,1)"><g><path fill="none" stroke="none"/><text fill="#000000" font-family="Arial" font-size="13px" font-style="normal" font-weight="bold" stroke="none" text-decoration="none" x="425.5" y="70.5">:GestoreAutenticazione</text></g></g><g transform="translate(-6,-6) scale(1,1)"><path d="M 499.5 80 L 499.5 253" fill="none" stroke="#000000" stroke-dasharray="3" stroke-miterlimit="10"/></g><g transform="translate(-6,-6) scale(1,1)"><rect fill="#C0C0C0" height="39" opacity="0.2" stroke="none" width="125.16455078125" x="295" y="163"/></g><g transform="translate(-6,-6) scale(1,1)"><rect fill="#ffffff" height="39" stroke="none" width="125.16455078125" x="288" y="156"/></g><g transform="translate(-6,-6) scale(1,1)"><path d="M 288 156 L 413.16455078125 156 L 413.16455078125 195 L 288 195 L 288 156 Z Z" fill="none" stroke="#000000" stroke-miterlimit="10"/></g><g transform="translate(-6,-6) scale(1,1)"><g><path fill="none" stroke="none"/><text fill="#000000" font-family="Arial" font-size="13px" font-style="normal" font-weight="normal" stroke="none" text-decoration="none" x="315.52734375" y="171.5">«Boundary»</text></g></g><g transform="translate(-6,-6) scale(1,1)"><g><path fill="none" stroke="none"/><text fill="#000000" font-family="Arial" font-size="13px" font-style="normal" font-weight="bold" stroke="none" text-decoration="none" x="297.5" y="186.5">ModuloRecupero</text></g></g><g transform="translate(-6,-6) scale(1,1)"><path d="M 351.5 196 L 351.5 1426" fill="none" stroke="#000000" stroke-dasharray="3" stroke-miterlimit="10"/></g><g transform="translate(-6,-6) scale(1,1)"><rect fill="#C0C0C0" height="39" opacity="0.2" stroke="none" width="108.5654296875" x="855" y="47"/></g><g transform="translate(-6,-6) scale(1,1)"><rect fill="#ffffff" height="39" stroke="none" width="108.5654296875" x="848" y="40"/></g><g transform="translate(-6,-6) scale(1,1)"><path d="M 848 40 L 956.5654296875 40 L 956.5654296875 79 L 848 79 L 848 40 Z Z" fill="none" stroke="#000000" stroke-miterlimit="10"/></g><g transform="translate(-6,-6) scale(1,1)"><g><path fill="none" stroke="none"/><text fill="#000000" font-family="Arial" font-size="13px" font-style="normal" font-weight="normal" stroke="none" text-decoration="none" x="867.227783203125" y="55.5">«Boundary»</text></g></g><g transform="translate(-6,-6) scale(1,1)"><g><path fill="none" stroke="none"/><text fill="#000000" font-family="Arial" font-size="13px" font-style="normal" font-weight="bold" stroke="none" text-decoration="none" x="857.5" y="70.5">DBMSDaemon</text></g></g><g transform="translate(-6,-6) scale(1,1)"><path d="M 903.5 80 L 903.5 1240" fill="none" stroke="#000000" stroke-dasharray="3" stroke-miterlimit="10"/></g><g transform="translate(-6,-6) scale(1,1)"><rect fill="#C0C0C0" height="39" opacity="0.2" stroke="none" width="128.0908203125" x="535" y="275"/></g><g transform="translate(-6,-6) scale(1,1)"><rect fill="#ffffff" height="39" stroke="none" width="128.0908203125" x="528" y="268"/></g><g transform="translate(-6,-6) scale(1,1)"><path d="M 528 268 L 656.0908203125 268 L 656.0908203125 307 L 528 307 L 528 268 Z Z" fill="none" stroke="#000000" stroke-miterlimit="10"/></g><g transform="translate(-6,-6) scale(1,1)"><g><path fill="none" stroke="none"/><text fill="#000000" font-family="Arial" font-size="13px" font-style="normal" font-weight="normal" stroke="none" text-decoration="none" x="563.86181640625" y="283.5">«Control»</text></g></g><g transform="translate(-6,-6) scale(1,1)"><g><path fill="none" stroke="none"/><text fill="#000000" font-family="Arial" font-size="13px" font-style="normal" font-weight="bold" stroke="none" text-decoration="none" x="537.5" y="298.5">GestoreRecupero</text></g></g><g transform="translate(-6,-6) scale(1,1)"><path d="M 593.5 308 L 593.5 1365" fill="none" stroke="#000000" stroke-dasharray="3" stroke-miterlimit="10"/></g><g transform="translate(-6,-6) scale(1,1)"><rect fill="#C0C0C0" height="39" opacity="0.2" stroke="none" width="112.1962890625" x="679" y="803"/></g><g transform="translate(-6,-6) scale(1,1)"><rect fill="#ffffff" height="39" stroke="none" width="112.1962890625" x="672" y="796"/></g><g transform="translate(-6,-6) scale(1,1)"><path d="M 672 796 L 784.1962890625 796 L 784.1962890625 835 L 672 835 L 672 796 Z Z" fill="none" stroke="#000000" stroke-miterlimit="10"/></g><g transform="translate(-6,-6) scale(1,1)"><g><path fill="none" stroke="none"/><text fill="#000000" font-family="Arial" font-size="13px" font-style="normal" font-weight="normal" stroke="none" text-decoration="none" x="693.043212890625" y="811.5">«Boundary»</text></g></g><g transform="translate(-6,-6) scale(1,1)"><g><path fill="none" stroke="none"/><text fill="#000000" font-family="Arial" font-size="13px" font-style="normal" font-weight="bold" stroke="none" text-decoration="none" x="681.5" y="826.5">PannelloErrore</text></g></g><g transform="translate(-6,-6) scale(1,1)"><path d="M 729.5 836 L 729.5 890" fill="none" stroke="#000000" stroke-dasharray="3" stroke-miterlimit="10"/></g><g transform="translate(-6,-6) scale(1,1)"><rect fill="#C0C0C0" height="39" opacity="0.2" stroke="none" width="133.8544921875" x="191" y="1307"/></g><g transform="translate(-6,-6) scale(1,1)"><rect fill="#ffffff" height="39" stroke="none" width="133.8544921875" x="184" y="1300"/></g><g transform="translate(-6,-6) scale(1,1)"><path d="M 184 1300 L 317.8544921875 1300 L 317.8544921875 1339 L 184 1339 L 184 1300 Z Z" fill="none" stroke="#000000" stroke-miterlimit="10"/></g><g transform="translate(-6,-6) scale(1,1)"><g><path fill="none" stroke="none"/><text fill="#000000" font-family="Arial" font-size="13px" font-style="normal" font-weight="normal" stroke="none" text-decoration="none" x="215.872314453125" y="1315.5">«Boundary»</text></g></g><g transform="translate(-6,-6) scale(1,1)"><g><path fill="none" stroke="none"/><text fill="#000000" font-family="Arial" font-size="13px" font-style="normal" font-weight="bold" stroke="none" text-decoration="none" x="193.5" y="1330.5">PannelloConferma</text></g></g><g transform="translate(-6,-6) scale(1,1)"><path d="M 251.5 1340 L 251.5 1426" fill="none" stroke="#000000" stroke-dasharray="3" stroke-miterlimit="10"/></g><g transform="translate(-6,-6) scale(1,1)"><path d="M 101 120 L 274 120" fill="none" stroke="#000000" stroke-miterlimit="10"/></g><g transform="translate(-6,-6) scale(1,1)"><path d="M 263.83732514237585 124.20951775601598 L 274 120 L 263.83732514237585 115.79048224398402" fill="#000000" stroke="none"/></g><g transform="translate(-6,-6) scale(1,1)"><path d="M 263.83732514237585 124.20951775601598 L 274 120 L 263.83732514237585 115.79048224398402 L 263.83732514237585 124.20951775601598" fill="none" stroke="#000000" stroke-miterlimit="10"/></g><g transform="translate(-6,-6) scale(1,1)"><g><path fill="none" stroke="none"/><text fill="#000000" font-family="Arial" font-size="13px" font-style="normal" font-weight="normal" stroke="none" text-decoration="none" x="113.5" y="114.5">1 : recuperaCredenziali( )</text></g></g><g transform="translate(-6,-6) scale(1,1)"><rect fill="#ffffff" height="28" stroke="none" width="13" x="274" y="120"/></g><g transform="translate(-6,-6) scale(1,1)"><path d="M 274 120 L 287 120 L 287 148 L 274 148 L 274 120 Z Z" fill="none" stroke="#000000" stroke-miterlimit="10"/></g><g transform="translate(-6,-6) scale(1,1)"><path d="M 287 136 L 492 136" fill="none" stroke="#000000" stroke-miterlimit="10"/></g><g transform="translate(-6,-6) scale(1,1)"><path d="M 481.83732514237585 140.209517756016 L 492 136 L 481.83732514237585 131.790482243984" fill="#000000" stroke="none"/></g><g transform="translate(-6,-6) scale(1,1)"><path d="M 481.83732514237585 140.209517756016 L 492 136 L 481.83732514237585 131.790482243984 L 481.83732514237585 140.209517756016" fill="none" stroke="#000000" stroke-miterlimit="10"/></g><g transform="translate(-6,-6) scale(1,1)"><g><path fill="none" stroke="none"/><text fill="#000000" font-family="Arial" font-size="13px" font-style="normal" font-weight="normal" stroke="none" text-decoration="none" x="315.5" y="130.5">2 : recuperaCredenziali( )</text></g></g><g transform="translate(-6,-6) scale(1,1)"><rect fill="#ffffff" height="64" stroke="none" width="13" x="492" y="136"/></g><g transform="translate(-6,-6) scale(1,1)"><path d="M 492 136 L 505 136 L 505 200 L 492 200 L 492 136 Z Z" fill="none" stroke="#000000" stroke-miterlimit="10"/></g><g transform="translate(-6,-6) scale(1,1)"><path d="M 492 176 L 413.16455078125 176" fill="none" stroke="#000000" stroke-dasharray="3" stroke-miterlimit="10"/></g><g transform="translate(-6,-6) scale(1,1)"><path d="M 423.32722563887415 171.790482243984 L 413.16455078125 176 L 423.32722563887415 180.209517756016" fill="none" stroke="#000000" stroke-miterlimit="10"/></g><g transform="translate(-6,-6) scale(1,1)"><g><path fill="none" stroke="none"/><text fill="#000000" font-family="Arial" font-size="13px" font-style="normal" font-weight="normal" stroke="none" text-decoration="none" x="441.5" y="190.5">3 : </text></g></g><g transform="translate(-6,-6) scale(1,1)"><g><path fill="none" stroke="none"/><text fill="#000000" font-family="Arial" font-size="13px" font-style="normal" font-weight="normal" stroke="none" text-decoration="none" x="425.5" y="205.5">«create»</text></g></g><g transform="translate(-6,-6) scale(1,1)"><path d="M 101 248 L 344 248" fill="none" stroke="#000000" stroke-miterlimit="10"/></g><g transform="translate(-6,-6) scale(1,1)"><path d="M 333.83732514237585 252.209517756016 L 344 248 L 333.83732514237585 243.790482243984" fill="#000000" stroke="none"/></g><g transform="translate(-6,-6) scale(1,1)"><path d="M 333.83732514237585 252.209517756016 L 344 248 L 333.83732514237585 243.790482243984 L 333.83732514237585 252.209517756016" fill="none" stroke="#000000" stroke-miterlimit="10"/></g><g transform="translate(-6,-6) scale(1,1)"><g><path fill="none" stroke="none"/><text fill="#000000" font-family="Arial" font-size="13px" font-style="normal" font-weight="normal" stroke="none" text-decoration="none" x="161.5" y="242.5">4 : inserisciMail(mail)</text></g></g><g transform="translate(-6,-6) scale(1,1)"><rect fill="#ffffff" height="80" stroke="none" width="13" x="344" y="248"/></g><g transform="translate(-6,-6) scale(1,1)"><path d="M 344 248 L 357 248 L 357 328 L 344 328 L 344 248 Z Z" fill="none" stroke="#000000" stroke-miterlimit="10"/></g><g transform="translate(-6,-6) scale(1,1)"><path d="M 357 288 L 528 288" fill="none" stroke="#000000" stroke-dasharray="3" stroke-miterlimit="10"/></g><g transform="translate(-6,-6) scale(1,1)"><path d="M 517.8373251423759 292.209517756016 L 528 288 L 517.8373251423758 283.790482243984" fill="none" stroke="#000000" stroke-miterlimit="10"/></g><g transform="translate(-6,-6) scale(1,1)"><g><path fill="none" stroke="none"/><text fill="#000000" font-family="Arial" font-size="13px" font-style="normal" font-weight="normal" stroke="none" text-decoration="none" x="381.5" y="282.5">5 : inserisciMail(mail)</text></g></g><g transform="translate(-6,-6) scale(1,1)"><g><path fill="none" stroke="none"/><text fill="#000000" font-family="Arial" font-size="13px" font-style="normal" font-weight="normal" stroke="none" text-decoration="none" x="416.5" y="267.5">«create»</text></g></g><g transform="translate(-6,-6) scale(1,1)"><path d="M 593 368 L 896 368" fill="none" stroke="#000000" stroke-miterlimit="10"/></g><g transform="translate(-6,-6) scale(1,1)"><path d="M 885.8373251423759 372.209517756016 L 896 368 L 885.8373251423758 363.790482243984" fill="#000000" stroke="none"/></g><g transform="translate(-6,-6) scale(1,1)"><path d="M 885.8373251423759 372.209517756016 L 896 368 L 885.8373251423758 363.790482243984 L 885.8373251423759 372.209517756016" fill="none" stroke="#000000" stroke-miterlimit="10"/></g><g transform="translate(-6,-6) scale(1,1)"><g><path fill="none" stroke="none"/><text fill="#000000" font-family="Arial" font-size="13px" font-style="normal" font-weight="normal" stroke="none" text-decoration="none" x="669.5" y="362.5">6 : verificaEsistenza(mail)</text></g></g><g transform="translate(-6,-6) scale(1,1)"><rect fill="#ffffff" height="352" stroke="none" width="13" x="896" y="368"/></g><g transform="translate(-6,-6) scale(1,1)"><path d="M 896 368 L 909 368 L 909 720 L 896 720 L 896 368 Z Z" fill="none" stroke="#000000" stroke-miterlimit="10"/></g><g transform="translate(-6,-6) scale(1,1)"><path d="M 909 488 L 1062 488" fill="none" stroke="#000000" stroke-miterlimit="10"/></g><g transform="translate(-6,-6) scale(1,1)"><path d="M 1051.837325142376 492.209517756016 L 1062 488 L 1051.837325142376 483.790482243984" fill="#000000" stroke="none"/></g><g transform="translate(-6,-6) scale(1,1)"><path d="M 1051.837325142376 492.209517756016 L 1062 488 L 1051.837325142376 483.790482243984 L 1051.837325142376 492.209517756016" fill="none" stroke="#000000" stroke-miterlimit="10"/></g><g transform="translate(-6,-6) scale(1,1)"><g><path fill="none" stroke="none"/><text fill="#000000" font-family="Arial" font-size="13px" font-style="normal" font-weight="normal" stroke="none" text-decoration="none" x="910.5" y="482.5">7 : verificaEsistenza(mail)</text></g></g><g transform="translate(-6,-6) scale(1,1)"><rect fill="#ffffff" height="28" stroke="none" width="13" x="1062" y="488"/></g><g transform="translate(-6,-6) scale(1,1)"><path d="M 1062 488 L 1075 488 L 1075 516 L 1062 516 L 1062 488 Z Z" fill="none" stroke="#000000" stroke-miterlimit="10"/></g><g transform="translate(-6,-6) scale(1,1)"><path d="M 1062 508 L 909 508" fill="none" stroke="#000000" stroke-dasharray="3" stroke-miterlimit="10"/></g><g transform="translate(-6,-6) scale(1,1)"><path d="M 919.1626748576241 503.790482243984 L 909 508 L 919.1626748576241 512.209517756016" fill="none" stroke="#000000" stroke-miterlimit="10"/></g><g transform="translate(-6,-6) scale(1,1)"><g><path fill="none" stroke="none"/><text fill="#000000" font-family="Arial" font-size="13px" font-style="normal" font-weight="normal" stroke="none" text-decoration="none" x="960.759521484375" y="522.5">8 : esito</text></g></g><g transform="translate(-6,-6) scale(1,1)"><path d="M 909 640 L 1194 640" fill="none" stroke="#000000" stroke-miterlimit="10"/></g><g transform="translate(-6,-6) scale(1,1)"><path d="M 1183.837325142376 644.209517756016 L 1194 640 L 1183.837325142376 635.790482243984" fill="#000000" stroke="none"/></g><g transform="translate(-6,-6) scale(1,1)"><path d="M 1183.837325142376 644.209517756016 L 1194 640 L 1183.837325142376 635.790482243984 L 1183.837325142376 644.209517756016" fill="none" stroke="#000000" stroke-miterlimit="10"/></g><g transform="translate(-6,-6) scale(1,1)"><g><path fill="none" stroke="none"/><text fill="#000000" font-family="Arial" font-size="13px" font-style="normal" font-weight="normal" stroke="none" text-decoration="none" x="977.114990234375" y="634.5">9 : verificaEsistenza(mail)</text></g></g><g transform="translate(-6,-6) scale(1,1)"><rect fill="#ffffff" height="28" stroke="none" width="13" x="1194" y="640"/></g><g transform="translate(-6,-6) scale(1,1)"><path d="M 1194 640 L 1207 640 L 1207 668 L 1194 668 L 1194 640 Z Z" fill="none" stroke="#000000" stroke-miterlimit="10"/></g><g transform="translate(-6,-6) scale(1,1)"><path d="M 1194 660 L 909 660" fill="none" stroke="#000000" stroke-dasharray="3" stroke-miterlimit="10"/></g><g transform="translate(-6,-6) scale(1,1)"><path d="M 919.1626748576241 655.790482243984 L 909 660 L 919.1626748576241 664.209517756016" fill="none" stroke="#000000" stroke-miterlimit="10"/></g><g transform="translate(-6,-6) scale(1,1)"><g><path fill="none" stroke="none"/><text fill="#000000" font-family="Arial" font-size="13px" font-style="normal" font-weight="normal" stroke="none" text-decoration="none" x="1023.759521484375" y="674.5">10 : esito</text></g></g><g transform="translate(-6,-6) scale(1,1)"><path d="M 896 699 L 593 699" fill="none" stroke="#000000" stroke-dasharray="3" stroke-miterlimit="10"/></g><g transform="translate(-6,-6) scale(1,1)"><path d="M 603.1626748576241 694.790482243984 L 593 699 L 603.1626748576241 703.209517756016" fill="none" stroke="#000000" stroke-miterlimit="10"/></g><g transform="translate(-6,-6) scale(1,1)"><g><path fill="none" stroke="none"/><text fill="#000000" font-family="Arial" font-size="13px" font-style="normal" font-weight="normal" stroke="none" text-decoration="none" x="716.982421875" y="713.5">11 : esito</text></g></g><g transform="translate(-6,-6) scale(1,1)"><path d="M 593 816 L 672 816" fill="none" stroke="#000000" stroke-dasharray="3" stroke-miterlimit="10"/></g><g transform="translate(-6,-6) scale(1,1)"><path d="M 661.8373251423759 820.209517756016 L 672 816 L 661.8373251423758 811.790482243984" fill="none" stroke="#000000" stroke-miterlimit="10"/></g><g transform="translate(-6,-6) scale(1,1)"><g><path fill="none" stroke="none"/><text fill="#000000" font-family="Arial" font-size="13px" font-style="normal" font-weight="normal" stroke="none" text-decoration="none" x="619.5" y="810.5">12 : </text></g></g><g transform="translate(-6,-6) scale(1,1)"><g><path fill="none" stroke="none"/><text fill="#000000" font-family="Arial" font-size="13px" font-style="normal" font-weight="normal" stroke="none" text-decoration="none" x="606.5" y="795.5">«create»</text></g></g><g transform="translate(-6,-6) scale(1,1)"><path d="M 101 848 L 722 848" fill="none" stroke="#000000" stroke-miterlimit="10"/></g><g transform="translate(-6,-6) scale(1,1)"><path d="M 711.8373251423759 852.209517756016 L 722 848 L 711.8373251423758 843.790482243984" fill="#000000" stroke="none"/></g><g transform="translate(-6,-6) scale(1,1)"><path d="M 711.8373251423759 852.209517756016 L 722 848 L 711.8373251423758 843.790482243984 L 711.8373251423759 852.209517756016" fill="none" stroke="#000000" stroke-miterlimit="10"/></g><g transform="translate(-6,-6) scale(1,1)"><path d="M 719 880 L 739 900" fill="none" stroke="#000000" stroke-miterlimit="10"/></g><g transform="translate(-6,-6) scale(1,1)"><path d="M 739 880 L 719 900" fill="none" stroke="#000000" stroke-miterlimit="10"/></g><g transform="translate(-6,-6) scale(1,1)"><g><path fill="none" stroke="none"/><text fill="#000000" font-family="Arial" font-size="13px" font-style="normal" font-weight="normal" stroke="none" text-decoration="none" x="350.5" y="842.5">13 : invioConferma( )</text></g></g><g transform="translate(-6,-6) scale(1,1)"><g><path fill="none" stroke="none"/><text fill="#000000" font-family="Arial" font-size="13px" font-style="normal" font-weight="normal" stroke="none" text-decoration="none" x="382.5" y="827.5">«destroy»</text></g></g><g transform="translate(-6,-6) scale(1,1)"><rect fill="#ffffff" height="28" stroke="none" width="13" x="722" y="848"/></g><g transform="translate(-6,-6) scale(1,1)"><path d="M 722 848 L 735 848 L 735 876 L 722 876 L 722 848 Z Z" fill="none" stroke="#000000" stroke-miterlimit="10"/></g><g transform="translate(-6,-6) scale(1,1)"><path d="M 593 944 L 623 944 L 623 964 L 599 964" fill="none" stroke="#000000" stroke-miterlimit="10"/></g><g transform="translate(-6,-6) scale(1,1)"><path d="M 609.1626748576241 959.790482243984 L 599 964 L 609.1626748576241 968.209517756016" fill="#000000" stroke="none"/></g><g transform="translate(-6,-6) scale(1,1)"><path d="M 609.1626748576241 959.790482243984 L 599 964 L 609.1626748576241 968.209517756016 L 609.1626748576241 959.790482243984" fill="none" stroke="#000000" stroke-miterlimit="10"/></g><g transform="translate(-6,-6) scale(1,1)"><g><path fill="none" stroke="none"/><text fill="#000000" font-family="Arial" font-size="13px" font-style="normal" font-weight="normal" stroke="none" text-decoration="none" x="455.5" y="956.5">14 : generaPassword( )</text></g></g><g transform="translate(-6,-6) scale(1,1)"><rect fill="#ffffff" height="28" stroke="none" width="13" x="586" y="964"/></g><g transform="translate(-6,-6) scale(1,1)"><path d="M 586 964 L 599 964 L 599 992 L 586 992 L 586 964 Z Z" fill="none" stroke="#000000" stroke-miterlimit="10"/></g><g transform="translate(-6,-6) scale(1,1)"><path d="M 593 1008 L 896 1008" fill="none" stroke="#000000" stroke-miterlimit="10"/></g><g transform="translate(-6,-6) scale(1,1)"><path d="M 885.8373251423759 1012.209517756016 L 896 1008 L 885.8373251423758 1003.790482243984" fill="#000000" stroke="none"/></g><g transform="translate(-6,-6) scale(1,1)"><path d="M 885.8373251423759 1012.209517756016 L 896 1008 L 885.8373251423758 1003.790482243984 L 885.8373251423759 1012.209517756016" fill="none" stroke="#000000" stroke-miterlimit="10"/></g><g transform="translate(-6,-6) scale(1,1)"><g><path fill="none" stroke="none"/><text fill="#000000" font-family="Arial" font-size="13px" font-style="normal" font-weight="normal" stroke="none" text-decoration="none" x="617.5" y="1002.5">15 : aggiornaPassword(mail, newPassword)</text></g></g><g transform="translate(-6,-6) scale(1,1)"><rect fill="#ffffff" height="208" stroke="none" width="13" x="896" y="1008"/></g><g transform="translate(-6,-6) scale(1,1)"><path d="M 896 1008 L 909 1008 L 909 1216 L 896 1216 L 896 1008 Z Z" fill="none" stroke="#000000" stroke-miterlimit="10"/></g><g transform="translate(-6,-6) scale(1,1)"><path d="M 909 1048 L 1062 1048" fill="none" stroke="#000000" stroke-miterlimit="10"/></g><g transform="translate(-6,-6) scale(1,1)"><path d="M 1051.837325142376 1052.2095177560159 L 1062 1048 L 1051.837325142376 1043.7904822439841" fill="#000000" stroke="none"/></g><g transform="translate(-6,-6) scale(1,1)"><path d="M 1051.837325142376 1052.2095177560159 L 1062 1048 L 1051.837325142376 1043.7904822439841 L 1051.837325142376 1052.2095177560159" fill="none" stroke="#000000" stroke-miterlimit="10"/></g><g transform="translate(-6,-6) scale(1,1)"><g><path fill="none" stroke="none"/><text fill="#000000" font-family="Arial" font-size="13px" font-style="normal" font-weight="normal" stroke="none" text-decoration="none" x="918.93359375" y="1025.5">16 : aggiornaPassword(mail,</text><text fill="#000000" font-family="Arial" font-size="13px" font-style="normal" font-weight="normal" stroke="none" text-decoration="none" x="958.679443359375" y="1038.5">newPassword)</text></g></g><g transform="translate(-6,-6) scale(1,1)"><rect fill="#ffffff" height="28" stroke="none" width="13" x="1062" y="1048"/></g><g transform="translate(-6,-6) scale(1,1)"><path d="M 1062 1048 L 1075 1048 L 1075 1076 L 1062 1076 L 1062 1048 Z Z" fill="none" stroke="#000000" stroke-miterlimit="10"/></g><g transform="translate(-6,-6) scale(1,1)"><path d="M 1062 1068 L 909 1068" fill="none" stroke="#000000" stroke-dasharray="3" stroke-miterlimit="10"/></g><g transform="translate(-6,-6) scale(1,1)"><path d="M 919.1626748576241 1063.7904822439841 L 909 1068 L 919.1626748576241 1072.2095177560159" fill="none" stroke="#000000" stroke-miterlimit="10"/></g><g transform="translate(-6,-6) scale(1,1)"><g><path fill="none" stroke="none"/><text fill="#000000" font-family="Arial" font-size="13px" font-style="normal" font-weight="normal" stroke="none" text-decoration="none" x="957.759521484375" y="1082.5">17 : esito</text></g></g><g transform="translate(-6,-6) scale(1,1)"><path d="M 909 1176 L 1194 1176" fill="none" stroke="#000000" stroke-miterlimit="10"/></g><g transform="translate(-6,-6) scale(1,1)"><path d="M 1183.837325142376 1180.2095177560159 L 1194 1176 L 1183.837325142376 1171.7904822439841" fill="#000000" stroke="none"/></g><g transform="translate(-6,-6) scale(1,1)"><path d="M 1183.837325142376 1180.2095177560159 L 1194 1176 L 1183.837325142376 1171.7904822439841 L 1183.837325142376 1180.2095177560159" fill="none" stroke="#000000" stroke-miterlimit="10"/></g><g transform="translate(-6,-6) scale(1,1)"><g><path fill="none" stroke="none"/><text fill="#000000" font-family="Arial" font-size="13px" font-style="normal" font-weight="normal" stroke="none" text-decoration="none" x="924.5" y="1170.5">18 : aggiornaPassword(mail, newPassword)</text></g></g><g transform="translate(-6,-6) scale(1,1)"><rect fill="#ffffff" height="28" stroke="none" width="13" x="1194" y="1176"/></g><g transform="translate(-6,-6) scale(1,1)"><path d="M 1194 1176 L 1207 1176 L 1207 1204 L 1194 1204 L 1194 1176 Z Z" fill="none" stroke="#000000" stroke-miterlimit="10"/></g><g transform="translate(-6,-6) scale(1,1)"><path d="M 1194 1196 L 909 1196" fill="none" stroke="#000000" stroke-dasharray="3" stroke-miterlimit="10"/></g><g transform="translate(-6,-6) scale(1,1)"><path d="M 919.1626748576241 1191.7904822439841 L 909 1196 L 919.1626748576241 1200.2095177560159" fill="none" stroke="#000000" stroke-miterlimit="10"/></g><g transform="translate(-6,-6) scale(1,1)"><g><path fill="none" stroke="none"/><text fill="#000000" font-family="Arial" font-size="13px" font-style="normal" font-weight="normal" stroke="none" text-decoration="none" x="1023.759521484375" y="1210.5">19 : esito</text></g></g><g transform="translate(-6,-6) scale(1,1)"><path d="M 896 1210 L 593 1210" fill="none" stroke="#000000" stroke-dasharray="3" stroke-miterlimit="10"/></g><g transform="translate(-6,-6) scale(1,1)"><path d="M 603.1626748576241 1205.7904822439841 L 593 1210 L 603.1626748576241 1214.2095177560159" fill="none" stroke="#000000" stroke-miterlimit="10"/></g><g transform="translate(-6,-6) scale(1,1)"><g><path fill="none" stroke="none"/><text fill="#000000" font-family="Arial" font-size="13px" font-style="normal" font-weight="normal" stroke="none" text-decoration="none" x="716.5" y="1224.5">20 : esito</text></g></g><g transform="translate(-6,-6) scale(1,1)"><path d="M 593 1224 L 623 1224 L 623 1244 L 599 1244" fill="none" stroke="#000000" stroke-miterlimit="10"/></g><g transform="translate(-6,-6) scale(1,1)"><path d="M 609.1626748576241 1239.7904822439841 L 599 1244 L 609.1626748576241 1248.2095177560159" fill="#000000" stroke="none"/></g><g transform="translate(-6,-6) scale(1,1)"><path d="M 609.1626748576241 1239.7904822439841 L 599 1244 L 609.1626748576241 1248.2095177560159 L 609.1626748576241 1239.7904822439841" fill="none" stroke="#000000" stroke-miterlimit="10"/></g><g transform="translate(-6,-6) scale(1,1)"><g><path fill="none" stroke="none"/><text fill="#000000" font-family="Arial" font-size="13px" font-style="normal" font-weight="normal" stroke="none" text-decoration="none" x="617.93359375" y="1257.5">21 : inviaMail(mail,</text><text fill="#000000" font-family="Arial" font-size="13px" font-style="normal" font-weight="normal" stroke="none" text-decoration="none" x="629.127685546875" y="1270.5">newPassword)</text></g></g><g transform="translate(-6,-6) scale(1,1)"><rect fill="#ffffff" height="28" stroke="none" width="13" x="586" y="1244"/></g><g transform="translate(-6,-6) scale(1,1)"><path d="M 586 1244 L 599 1244 L 599 1272 L 586 1272 L 586 1244 Z Z" fill="none" stroke="#000000" stroke-miterlimit="10"/></g><g transform="translate(-6,-6) scale(1,1)"><path d="M 593 1288 L 623 1288 L 623 1308 L 599 1308" fill="none" stroke="#000000" stroke-miterlimit="10"/></g><g transform="translate(-6,-6) scale(1,1)"><path d="M 609.1626748576241 1303.7904822439841 L 599 1308 L 609.1626748576241 1312.2095177560159" fill="#000000" stroke="none"/></g><g transform="translate(-6,-6) scale(1,1)"><path d="M 609.1626748576241 1303.7904822439841 L 599 1308 L 609.1626748576241 1312.2095177560159 L 609.1626748576241 1303.7904822439841" fill="none" stroke="#000000" stroke-miterlimit="10"/></g><g transform="translate(-6,-6) scale(1,1)"><path d="M 583 1355 L 603 1375" fill="none" stroke="#000000" stroke-miterlimit="10"/></g><g transform="translate(-6,-6) scale(1,1)"><path d="M 603 1355 L 583 1375" fill="none" stroke="#000000" stroke-miterlimit="10"/></g><g transform="translate(-6,-6) scale(1,1)"><g><path fill="none" stroke="none"/><text fill="#000000" font-family="Arial" font-size="13px" font-style="normal" font-weight="normal" stroke="none" text-decoration="none" x="623.5" y="1290.5">22 : </text></g></g><g transform="translate(-6,-6) scale(1,1)"><g><path fill="none" stroke="none"/><text fill="#000000" font-family="Arial" font-size="13px" font-style="normal" font-weight="normal" stroke="none" text-decoration="none" x="647.5" y="1290.5">«destroy»</text></g></g><g transform="translate(-6,-6) scale(1,1)"><rect fill="#ffffff" height="28" stroke="none" width="13" x="586" y="1308"/></g><g transform="translate(-6,-6) scale(1,1)"><path d="M 586 1308 L 599 1308 L 599 1336 L 586 1336 L 586 1308 Z Z" fill="none" stroke="#000000" stroke-miterlimit="10"/></g><g transform="translate(-6,-6) scale(1,1)"><path d="M 586 1320 L 317.8544921875 1320" fill="none" stroke="#000000" stroke-dasharray="3" stroke-miterlimit="10"/></g><g transform="translate(-6,-6) scale(1,1)"><path d="M 328.01716704512415 1315.7904822439841 L 317.8544921875 1320 L 328.01716704512415 1324.2095177560159" fill="none" stroke="#000000" stroke-miterlimit="10"/></g><g transform="translate(-6,-6) scale(1,1)"><g><path fill="none" stroke="none"/><text fill="#000000" font-family="Arial" font-size="13px" font-style="normal" font-weight="normal" stroke="none" text-decoration="none" x="437.5" y="1334.5">23 : </text></g></g><g transform="translate(-6,-6) scale(1,1)"><g><path fill="none" stroke="none"/><text fill="#000000" font-family="Arial" font-size="13px" font-style="normal" font-weight="normal" stroke="none" text-decoration="none" x="424.5" y="1349.5">«create»</text></g></g><g transform="translate(-6,-6) scale(1,1)"><path d="M 101 1368 L 244 1368" fill="none" stroke="#000000" stroke-miterlimit="10"/></g><g transform="translate(-6,-6) scale(1,1)"><path d="M 233.83732514237585 1372.2095177560159 L 244 1368 L 233.83732514237585 1363.7904822439841" fill="#000000" stroke="none"/></g><g transform="translate(-6,-6) scale(1,1)"><path d="M 233.83732514237585 1372.2095177560159 L 244 1368 L 233.83732514237585 1363.7904822439841 L 233.83732514237585 1372.2095177560159" fill="none" stroke="#000000" stroke-miterlimit="10"/></g><g transform="translate(-6,-6) scale(1,1)"><path d="M 241 1416 L 261 1436" fill="none" stroke="#000000" stroke-miterlimit="10"/></g><g transform="translate(-6,-6) scale(1,1)"><path d="M 261 1416 L 241 1436" fill="none" stroke="#000000" stroke-miterlimit="10"/></g><g transform="translate(-6,-6) scale(1,1)"><g><path fill="none" stroke="none"/><text fill="#000000" font-family="Arial" font-size="13px" font-style="normal" font-weight="normal" stroke="none" text-decoration="none" x="103.5" y="1361.5">24 : invioConferma( )</text></g></g><g transform="translate(-6,-6) scale(1,1)"><g><path fill="none" stroke="none"/><text fill="#000000" font-family="Arial" font-size="13px" font-style="normal" font-weight="normal" stroke="none" text-decoration="none" x="143.5" y="1347.5">«destroy»</text></g></g><g transform="translate(-6,-6) scale(1,1)"><rect fill="#ffffff" height="28" stroke="none" width="13" x="244" y="1368"/></g><g transform="translate(-6,-6) scale(1,1)"><path d="M 244 1368 L 257 1368 L 257 1396 L 244 1396 L 244 1368 Z Z" fill="none" stroke="#000000" stroke-miterlimit="10"/></g><g transform="translate(-6,-6) scale(1,1)"><path d="M 257 1384 L 344 1384" fill="none" stroke="#000000" stroke-miterlimit="10"/></g><g transform="translate(-6,-6) scale(1,1)"><path d="M 333.83732514237585 1388.2095177560159 L 344 1384 L 333.83732514237585 1379.7904822439841" fill="#000000" stroke="none"/></g><g transform="translate(-6,-6) scale(1,1)"><path d="M 333.83732514237585 1388.2095177560159 L 344 1384 L 333.83732514237585 1379.7904822439841 L 333.83732514237585 1388.2095177560159" fill="none" stroke="#000000" stroke-miterlimit="10"/></g><g transform="translate(-6,-6) scale(1,1)"><path d="M 341 1416 L 361 1436" fill="none" stroke="#000000" stroke-miterlimit="10"/></g><g transform="translate(-6,-6) scale(1,1)"><path d="M 361 1416 L 341 1436" fill="none" stroke="#000000" stroke-miterlimit="10"/></g><g transform="translate(-6,-6) scale(1,1)"><g><path fill="none" stroke="none"/><text fill="#000000" font-family="Arial" font-size="13px" font-style="normal" font-weight="normal" stroke="none" text-decoration="none" x="287.5" y="1378.5">25 : </text></g></g><g transform="translate(-6,-6) scale(1,1)"><g><path fill="none" stroke="none"/><text fill="#000000" font-family="Arial" font-size="13px" font-style="normal" font-weight="normal" stroke="none" text-decoration="none" x="271.5" y="1363.5">«destroy»</text></g></g><g transform="translate(-6,-6) scale(1,1)"><rect fill="#ffffff" height="28" stroke="none" width="13" x="344" y="1384"/></g><g transform="translate(-6,-6) scale(1,1)"><path d="M 344 1384 L 357 1384 L 357 1412 L 344 1412 L 344 1384 Z Z" fill="none" stroke="#000000" stroke-miterlimit="10"/></g><g transform="translate(-6,-6) scale(1,1)"><path d="M 56 208 L 1247 208 L 1247 928 L 56 928 L 56 208" fill="none" stroke="#000000" stroke-miterlimit="10"/></g><g transform="translate(-6,-6) scale(1,1)"><path d="M 56 208 L 56 230 L 215.80615234375 230 L 226.80615234375 219 L 226.80615234375 208 L 56 208" fill="#ffffff" stroke="none"/></g><g transform="translate(-6,-6) scale(1,1)"><path d="M 56 208 L 56 230 L 215.80615234375 230 L 226.80615234375 219 L 226.80615234375 208 L 56 208 L 56 208" fill="none" stroke="#000000" stroke-miterlimit="10"/></g><g transform="translate(-6,-6) scale(1,1)"><g><path fill="none" stroke="none"/><text fill="#000000" font-family="Arial" font-size="13px" font-style="normal" font-weight="normal" stroke="none" text-decoration="none" x="91.578125" y="223.5">[ mail non esistente ]</text></g></g><g transform="translate(-6,-6) scale(1,1)"><g><path fill="none" stroke="none"/><text fill="#000000" font-family="Arial" font-size="13px" font-style="normal" font-weight="bold" stroke="none" text-decoration="none" x="59.57177734375" y="223.5">loop</text></g></g><g transform="translate(-6,-6) scale(1,1)"><path d="M 840 400 L 1248 400 L 1248 680 L 840 680 L 840 400" fill="none" stroke="#000000" stroke-miterlimit="10"/></g><g transform="translate(-6,-6) scale(1,1)"><path d="M 840 400 L 840 422 L 880.5654296875 422 L 891.5654296875 411 L 891.5654296875 400 L 840 400" fill="#ffffff" stroke="none"/></g><g transform="translate(-6,-6) scale(1,1)"><path d="M 840 400 L 840 422 L 880.5654296875 422 L 891.5654296875 411 L 891.5654296875 400 L 840 400 L 840 400" fill="none" stroke="#000000" stroke-miterlimit="10"/></g><g transform="translate(-6,-6) scale(1,1)"><g><path fill="none" stroke="none"/><text fill="#000000" font-family="Arial" font-size="13px" font-style="normal" font-weight="normal" stroke="none" text-decoration="none" x="864.72998046875" y="411">   </text></g></g><g transform="translate(-6,-6) scale(1,1)"><g><path fill="none" stroke="none"/><text fill="#000000" font-family="Arial" font-size="13px" font-style="normal" font-weight="bold" stroke="none" text-decoration="none" x="844.279541015625" y="415.5">alt</text></g></g><g transform="translate(-6,-6) scale(1,1)"><g><path fill="none" stroke="none"/><text fill="#000000" font-family="Arial" font-size="13px" font-style="normal" font-weight="normal" stroke="none" text-decoration="none" x="859.5" y="448.5">[ il sistema è installato in una Farmacia]</text></g></g><g transform="translate(-6,-6) scale(1,1)"><path d="M 840 561 L 1248 561" fill="none" stroke="#000000" stroke-dasharray="10,3" stroke-miterlimit="10"/></g><g transform="translate(-6,-6) scale(1,1)"><g><path fill="none" stroke="none"/><text fill="#000000" font-family="Arial" font-size="13px" font-style="normal" font-weight="normal" stroke="none" text-decoration="none" x="859.5" y="586.5">[ il sistema è installato in una Azienda o Palmare]</text></g></g><g transform="translate(-6,-6) scale(1,1)"><path d="M 496 736 L 1015 736 L 1015 912 L 496 912 L 496 736" fill="none" stroke="#000000" stroke-miterlimit="10"/></g><g transform="translate(-6,-6) scale(1,1)"><path d="M 496 736 L 496 758 L 652.91162109375 758 L 663.91162109375 747 L 663.91162109375 736 L 496 736" fill="#ffffff" stroke="none"/></g><g transform="translate(-6,-6) scale(1,1)"><path d="M 496 736 L 496 758 L 652.91162109375 758 L 663.91162109375 747 L 663.91162109375 736 L 496 736 L 496 736" fill="none" stroke="#000000" stroke-miterlimit="10"/></g><g transform="translate(-6,-6) scale(1,1)"><g><path fill="none" stroke="none"/><text fill="#000000" font-family="Arial" font-size="13px" font-style="normal" font-weight="normal" stroke="none" text-decoration="none" x="525.07177734375" y="751.5"> [ mail non esistente ]</text></g></g><g transform="translate(-6,-6) scale(1,1)"><g><path fill="none" stroke="none"/><text fill="#000000" font-family="Arial" font-size="13px" font-style="normal" font-weight="bold" stroke="none" text-decoration="none" x="499.930419921875" y="751.5">opt</text></g></g><g transform="translate(-6,-6) scale(1,1)"><path d="M 880 944 L 1280 944 L 1280 1295 L 880 1295 L 880 944" fill="none" stroke="#000000" stroke-miterlimit="10"/></g><g transform="translate(-6,-6) scale(1,1)"><path d="M 880 944 L 880 966 L 913.341796875 966 L 924.341796875 955 L 924.341796875 944 L 880 944" fill="#ffffff" stroke="none"/></g><g transform="translate(-6,-6) scale(1,1)"><path d="M 880 944 L 880 966 L 913.341796875 966 L 924.341796875 955 L 924.341796875 944 L 880 944 L 880 944" fill="none" stroke="#000000" stroke-miterlimit="10"/></g><g transform="translate(-6,-6) scale(1,1)"><g><path fill="none" stroke="none"/><text fill="#000000" font-family="Arial" font-size="13px" font-style="normal" font-weight="normal" stroke="none" text-decoration="none" x="904.72998046875" y="955"> </text></g></g><g transform="translate(-6,-6) scale(1,1)"><g><path fill="none" stroke="none"/><text fill="#000000" font-family="Arial" font-size="13px" font-style="normal" font-weight="bold" stroke="none" text-decoration="none" x="884.279541015625" y="959.5">alt</text></g></g><g transform="translate(-6,-6) scale(1,1)"><g><path fill="none" stroke="none"/><text fill="#000000" font-family="Arial" font-size="13px" font-style="normal" font-weight="normal" stroke="none" text-decoration="none" x="899.5" y="992.5">[ il sistema è installato in una Farmacia]</text></g></g><g transform="translate(-6,-6) scale(1,1)"><path d="M 880 1104 L 1280 1104" fill="none" stroke="#000000" stroke-dasharray="10,3" stroke-miterlimit="10"/></g><g transform="translate(-6,-6) scale(1,1)"><g><path fill="none" stroke="none"/><text fill="#000000" font-family="Arial" font-size="13px" font-style="normal" font-weight="normal" stroke="none" text-decoration="none" x="899.5" y="1129.5">[ il sistema è installato in una Azienda o Palmare]</text></g></g></g></svg>