<?xml version="1.0" encoding="UTF-8" standalone="no"?><svg xmlns="http://www.w3.org/2000/svg" xmlns:xlink="http://www.w3.org/1999/xlink" height="1212" version="1.1" width="1180"><defs/><g><g transform="translate(-70,2) scale(1,1)"><path d="M 80 8 L 1240 8 L 1240 1200 L 80 1200 L 80 8" fill="none" stroke="#000000" stroke-miterlimit="10"/></g><g transform="translate(-70,2) scale(1,1)"><path d="M 80 8 L 80 30 L 195.0107421875 30 L 206.0107421875 19 L 206.0107421875 8 L 80 8" fill="#ffffff" stroke="none"/></g><g transform="translate(-70,2) scale(1,1)"><path d="M 80 8 L 80 30 L 195.0107421875 30 L 206.0107421875 19 L 206.0107421875 8 L 80 8 L 80 8" fill="none" stroke="#000000" stroke-miterlimit="10"/></g><g transform="translate(-70,2) scale(1,1)"><g><path fill="none" stroke="none"/><text fill="#000000" font-family="Arial" font-size="13px" font-style="normal" font-weight="normal" stroke="none" text-decoration="none" x="104.72998046875" y="23.5">Autenticazione</text></g></g><g transform="translate(-70,2) scale(1,1)"><g><path fill="none" stroke="none"/><text fill="#000000" font-family="Arial" font-size="13px" font-style="normal" font-weight="bold" stroke="none" text-decoration="none" x="84.279541015625" y="23.5">sd</text></g></g><g transform="translate(-70,2) scale(1,1)"><path d="M 142.0604110440341 47.3 C 142.0604110440341 43.82060576 144.9388127662159 41 148.489501953125 41 C 152.0401911400341 41 154.91859286221592 43.82060576 154.91859286221592 47.3 C 154.91859286221592 50.779394239999995 152.0401911400341 53.6 148.489501953125 53.6 C 144.9388127662159 53.6 142.0604110440341 50.779394239999995 142.0604110440341 47.3 Z" fill="#ffffff" stroke="none"/></g><g transform="translate(-70,2) scale(1,1)"><path d="M 142.0604110440341 47.3 C 142.0604110440341 43.82060576 144.9388127662159 41 148.489501953125 41 C 152.0401911400341 41 154.91859286221592 43.82060576 154.91859286221592 47.3 C 154.91859286221592 50.779394239999995 152.0401911400341 53.6 148.489501953125 53.6 C 144.9388127662159 53.6 142.0604110440341 50.779394239999995 142.0604110440341 47.3 Z" fill="none" stroke="#000000" stroke-miterlimit="10"/></g><g transform="translate(-70,2) scale(1,1)"><path d="M 148.489501953125 53.6 L 148.489501953125 66.4" fill="none" stroke="#000000" stroke-miterlimit="10"/></g><g transform="translate(-70,2) scale(1,1)"><path d="M 141.6822292258523 58.4 L 155.29677468039773 58.4" fill="none" stroke="#000000" stroke-miterlimit="10"/></g><g transform="translate(-70,2) scale(1,1)"><path d="M 148.489501953125 66.4 L 139.03495649857956 79" fill="none" stroke="#000000" stroke-miterlimit="10"/></g><g transform="translate(-70,2) scale(1,1)"><path d="M 148.489501953125 66.4 L 157.94404740767047 79" fill="none" stroke="#000000" stroke-miterlimit="10"/></g><g transform="translate(-70,2) scale(1,1)"><g><path fill="none" stroke="none"/><text fill="#000000" font-family="Arial" font-size="13px" font-style="normal" font-weight="bold" stroke="none" text-decoration="none" x="117.062255859375" y="97.5"> : Persona</text></g></g><g transform="translate(-70,2) scale(1,1)"><path d="M 149.5 105 L 149.5 1080" fill="none" stroke="#000000" stroke-dasharray="3" stroke-miterlimit="10"/></g><g transform="translate(-70,2) scale(1,1)"><rect fill="#C0C0C0" height="39" opacity="0.2" stroke="none" width="161.9873046875" x="287" y="47"/></g><g transform="translate(-70,2) scale(1,1)"><rect fill="#ffffff" height="39" stroke="none" width="161.9873046875" x="280" y="40"/></g><g transform="translate(-70,2) scale(1,1)"><path d="M 280 40 L 441.9873046875 40 L 441.9873046875 79 L 280 79 L 280 40 Z Z" fill="none" stroke="#000000" stroke-miterlimit="10"/></g><g transform="translate(-70,2) scale(1,1)"><g><path fill="none" stroke="none"/><text fill="#000000" font-family="Arial" font-size="13px" font-style="normal" font-weight="normal" stroke="none" text-decoration="none" x="325.938720703125" y="55.5">«Boundary»</text></g></g><g transform="translate(-70,2) scale(1,1)"><g><path fill="none" stroke="none"/><text fill="#000000" font-family="Arial" font-size="13px" font-style="normal" font-weight="bold" stroke="none" text-decoration="none" x="289.5" y="70.5">:ModuloAutenticazione</text></g></g><g transform="translate(-70,2) scale(1,1)"><path d="M 361.5 80 L 361.5 917" fill="none" stroke="#000000" stroke-dasharray="3" stroke-miterlimit="10"/></g><g transform="translate(-70,2) scale(1,1)"><rect fill="#C0C0C0" height="39" opacity="0.2" stroke="none" width="164.91357421875" x="471" y="47"/></g><g transform="translate(-70,2) scale(1,1)"><rect fill="#ffffff" height="39" stroke="none" width="164.91357421875" x="464" y="40"/></g><g transform="translate(-70,2) scale(1,1)"><path d="M 464 40 L 628.91357421875 40 L 628.91357421875 79 L 464 79 L 464 40 Z Z" fill="none" stroke="#000000" stroke-miterlimit="10"/></g><g transform="translate(-70,2) scale(1,1)"><g><path fill="none" stroke="none"/><text fill="#000000" font-family="Arial" font-size="13px" font-style="normal" font-weight="normal" stroke="none" text-decoration="none" x="518.273193359375" y="55.5">«Control»</text></g></g><g transform="translate(-70,2) scale(1,1)"><g><path fill="none" stroke="none"/><text fill="#000000" font-family="Arial" font-size="13px" font-style="normal" font-weight="bold" stroke="none" text-decoration="none" x="473.5" y="70.5">:GestoreAutenticazione</text></g></g><g transform="translate(-70,2) scale(1,1)"><path d="M 547.5 80 L 547.5 1024" fill="none" stroke="#000000" stroke-dasharray="3" stroke-miterlimit="10"/></g><g transform="translate(-70,2) scale(1,1)"><rect fill="#C0C0C0" height="39" opacity="0.2" stroke="none" width="116.50634765625" x="743" y="47"/></g><g transform="translate(-70,2) scale(1,1)"><rect fill="#ffffff" height="39" stroke="none" width="116.50634765625" x="736" y="40"/></g><g transform="translate(-70,2) scale(1,1)"><path d="M 736 40 L 852.50634765625 40 L 852.50634765625 79 L 736 79 L 736 40 Z Z" fill="none" stroke="#000000" stroke-miterlimit="10"/></g><g transform="translate(-70,2) scale(1,1)"><g><path fill="none" stroke="none"/><text fill="#000000" font-family="Arial" font-size="13px" font-style="normal" font-weight="normal" stroke="none" text-decoration="none" x="759.1982421875" y="55.5">«Boundary»</text></g></g><g transform="translate(-70,2) scale(1,1)"><g><path fill="none" stroke="none"/><text fill="#000000" font-family="Arial" font-size="13px" font-style="normal" font-weight="bold" stroke="none" text-decoration="none" x="749.470458984375" y="70.5">DBMSDaemon</text></g></g><g transform="translate(-70,2) scale(1,1)"><path d="M 795.5 80 L 795.5 904" fill="none" stroke="#000000" stroke-dasharray="3" stroke-miterlimit="10"/></g><g transform="translate(-70,2) scale(1,1)"><rect fill="#C0C0C0" height="39" opacity="0.2" stroke="none" width="112.1962890625" x="663" y="667"/></g><g transform="translate(-70,2) scale(1,1)"><rect fill="#ffffff" height="39" stroke="none" width="112.1962890625" x="656" y="660"/></g><g transform="translate(-70,2) scale(1,1)"><path d="M 656 660 L 768.1962890625 660 L 768.1962890625 699 L 656 699 L 656 660 Z Z" fill="none" stroke="#000000" stroke-miterlimit="10"/></g><g transform="translate(-70,2) scale(1,1)"><g><path fill="none" stroke="none"/><text fill="#000000" font-family="Arial" font-size="13px" font-style="normal" font-weight="normal" stroke="none" text-decoration="none" x="677.043212890625" y="675.5">«Boundary»</text></g></g><g transform="translate(-70,2) scale(1,1)"><g><path fill="none" stroke="none"/><text fill="#000000" font-family="Arial" font-size="13px" font-style="normal" font-weight="bold" stroke="none" text-decoration="none" x="665.5" y="690.5">PannelloErrore</text></g></g><g transform="translate(-70,2) scale(1,1)"><path d="M 713.5 700 L 713.5 776" fill="none" stroke="#000000" stroke-dasharray="3" stroke-miterlimit="10"/></g><g transform="translate(-70,2) scale(1,1)"><rect fill="#C0C0C0" height="39" opacity="0.2" stroke="none" width="153.7607421875" x="295" y="947"/></g><g transform="translate(-70,2) scale(1,1)"><rect fill="#ffffff" height="39" stroke="none" width="153.7607421875" x="288" y="940"/></g><g transform="translate(-70,2) scale(1,1)"><path d="M 288 940 L 441.7607421875 940 L 441.7607421875 979 L 288 979 L 288 940 Z Z" fill="none" stroke="#000000" stroke-miterlimit="10"/></g><g transform="translate(-70,2) scale(1,1)"><g><path fill="none" stroke="none"/><text fill="#000000" font-family="Arial" font-size="13px" font-style="normal" font-weight="normal" stroke="none" text-decoration="none" x="329.825439453125" y="955.5">«Boundary»</text></g></g><g transform="translate(-70,2) scale(1,1)"><g><path fill="none" stroke="none"/><text fill="#000000" font-family="Arial" font-size="13px" font-style="normal" font-weight="bold" stroke="none" text-decoration="none" x="299.13134765625" y="970.5">:InterfacciaPrincipale</text></g></g><g transform="translate(-70,2) scale(1,1)"><path d="M 365.5 980 L 365.5 1088" fill="none" stroke="#000000" stroke-dasharray="3" stroke-miterlimit="10"/></g><g transform="translate(-70,2) scale(1,1)"><path d="M 933.899034090909 47.3 C 933.899034090909 43.82060576 936.777435813091 41 940.328125 41 C 943.878814186909 41 946.7572159090909 43.82060576 946.7572159090909 47.3 C 946.7572159090909 50.779394239999995 943.878814186909 53.6 940.328125 53.6 C 936.777435813091 53.6 933.899034090909 50.779394239999995 933.899034090909 47.3 Z" fill="#ffffff" stroke="none"/></g><g transform="translate(-70,2) scale(1,1)"><path d="M 933.899034090909 47.3 C 933.899034090909 43.82060576 936.777435813091 41 940.328125 41 C 943.878814186909 41 946.7572159090909 43.82060576 946.7572159090909 47.3 C 946.7572159090909 50.779394239999995 943.878814186909 53.6 940.328125 53.6 C 936.777435813091 53.6 933.899034090909 50.779394239999995 933.899034090909 47.3 Z" fill="none" stroke="#000000" stroke-miterlimit="10"/></g><g transform="translate(-70,2) scale(1,1)"><path d="M 940.328125 53.6 L 940.328125 66.4" fill="none" stroke="#000000" stroke-miterlimit="10"/></g><g transform="translate(-70,2) scale(1,1)"><path d="M 933.5208522727272 58.4 L 947.1353977272727 58.4" fill="none" stroke="#000000" stroke-miterlimit="10"/></g><g transform="translate(-70,2) scale(1,1)"><path d="M 940.328125 66.4 L 930.8735795454545 79" fill="none" stroke="#000000" stroke-miterlimit="10"/></g><g transform="translate(-70,2) scale(1,1)"><path d="M 940.328125 66.4 L 949.7826704545454 79" fill="none" stroke="#000000" stroke-miterlimit="10"/></g><g transform="translate(-70,2) scale(1,1)"><g><path fill="none" stroke="none"/><text fill="#000000" font-family="Arial" font-size="13px" font-style="normal" font-weight="bold" stroke="none" text-decoration="none" x="886.8681640625" y="97.5">: DBMS Farmacie</text></g></g><g transform="translate(-70,2) scale(1,1)"><path d="M 941.5 105 L 941.5 416" fill="none" stroke="#000000" stroke-dasharray="3" stroke-miterlimit="10"/></g><g transform="translate(-70,2) scale(1,1)"><path d="M 1106.274522372159 47.3 C 1106.274522372159 43.82060576 1109.152924094341 41 1112.70361328125 41 C 1116.254302468159 41 1119.132704190341 43.82060576 1119.132704190341 47.3 C 1119.132704190341 50.779394239999995 1116.254302468159 53.6 1112.70361328125 53.6 C 1109.152924094341 53.6 1106.274522372159 50.779394239999995 1106.274522372159 47.3 Z" fill="#ffffff" stroke="none"/></g><g transform="translate(-70,2) scale(1,1)"><path d="M 1106.274522372159 47.3 C 1106.274522372159 43.82060576 1109.152924094341 41 1112.70361328125 41 C 1116.254302468159 41 1119.132704190341 43.82060576 1119.132704190341 47.3 C 1119.132704190341 50.779394239999995 1116.254302468159 53.6 1112.70361328125 53.6 C 1109.152924094341 53.6 1106.274522372159 50.779394239999995 1106.274522372159 47.3 Z" fill="none" stroke="#000000" stroke-miterlimit="10"/></g><g transform="translate(-70,2) scale(1,1)"><path d="M 1112.70361328125 53.6 L 1112.70361328125 66.4" fill="none" stroke="#000000" stroke-miterlimit="10"/></g><g transform="translate(-70,2) scale(1,1)"><path d="M 1105.8963405539773 58.4 L 1119.5108860085227 58.4" fill="none" stroke="#000000" stroke-miterlimit="10"/></g><g transform="translate(-70,2) scale(1,1)"><path d="M 1112.70361328125 66.4 L 1103.2490678267045 79" fill="none" stroke="#000000" stroke-miterlimit="10"/></g><g transform="translate(-70,2) scale(1,1)"><path d="M 1112.70361328125 66.4 L 1122.1581587357955 79" fill="none" stroke="#000000" stroke-miterlimit="10"/></g><g transform="translate(-70,2) scale(1,1)"><g><path fill="none" stroke="none"/><text fill="#000000" font-family="Arial" font-size="13px" font-style="normal" font-weight="bold" stroke="none" text-decoration="none" x="1062.8681640625" y="97.5">: DBMS Azienda</text></g></g><g transform="translate(-70,2) scale(1,1)"><path d="M 1113.5 105 L 1113.5 543" fill="none" stroke="#000000" stroke-dasharray="3" stroke-miterlimit="10"/></g><g transform="translate(-70,2) scale(1,1)"><path d="M 149 183 L 354 183" fill="none" stroke="#000000" stroke-miterlimit="10"/></g><g transform="translate(-70,2) scale(1,1)"><path d="M 343.83732514237585 187.209517756016 L 354 183 L 343.83732514237585 178.790482243984" fill="#000000" stroke="none"/></g><g transform="translate(-70,2) scale(1,1)"><path d="M 343.83732514237585 187.209517756016 L 354 183 L 343.83732514237585 178.790482243984 L 343.83732514237585 187.209517756016" fill="none" stroke="#000000" stroke-miterlimit="10"/></g><g transform="translate(-70,2) scale(1,1)"><g><path fill="none" stroke="none"/><text fill="#000000" font-family="Arial" font-size="13px" font-style="normal" font-weight="normal" stroke="none" text-decoration="none" x="183.9482421875" y="161.5">1 : InserisciCredenziali(</text><text fill="#000000" font-family="Arial" font-size="13px" font-style="normal" font-weight="normal" stroke="none" text-decoration="none" x="205.9873046875" y="174.5">mail, password)</text></g></g><g transform="translate(-70,2) scale(1,1)"><rect fill="#ffffff" height="28" stroke="none" width="13" x="354" y="183"/></g><g transform="translate(-70,2) scale(1,1)"><path d="M 354 183 L 367 183 L 367 211 L 354 211 L 354 183 Z Z" fill="none" stroke="#000000" stroke-miterlimit="10"/></g><g transform="translate(-70,2) scale(1,1)"><path d="M 361 216 L 540 216" fill="none" stroke="#000000" stroke-miterlimit="10"/></g><g transform="translate(-70,2) scale(1,1)"><path d="M 529.8373251423759 220.209517756016 L 540 216 L 529.8373251423758 211.790482243984" fill="#000000" stroke="none"/></g><g transform="translate(-70,2) scale(1,1)"><path d="M 529.8373251423759 220.209517756016 L 540 216 L 529.8373251423758 211.790482243984 L 529.8373251423759 220.209517756016" fill="none" stroke="#000000" stroke-miterlimit="10"/></g><g transform="translate(-70,2) scale(1,1)"><g><path fill="none" stroke="none"/><text fill="#000000" font-family="Arial" font-size="13px" font-style="normal" font-weight="normal" stroke="none" text-decoration="none" x="381.774169921875" y="193.5">2 : ControlloCredenziali(</text><text fill="#000000" font-family="Arial" font-size="13px" font-style="normal" font-weight="normal" stroke="none" text-decoration="none" x="405.9873046875" y="206.5">mail, password)</text></g></g><g transform="translate(-70,2) scale(1,1)"><rect fill="#ffffff" height="28" stroke="none" width="13" x="540" y="216"/></g><g transform="translate(-70,2) scale(1,1)"><path d="M 540 216 L 553 216 L 553 244 L 540 244 L 540 216 Z Z" fill="none" stroke="#000000" stroke-miterlimit="10"/></g><g transform="translate(-70,2) scale(1,1)"><path d="M 553 240 L 788 240" fill="none" stroke="#000000" stroke-miterlimit="10"/></g><g transform="translate(-70,2) scale(1,1)"><path d="M 777.8373251423759 244.209517756016 L 788 240 L 777.8373251423758 235.790482243984" fill="#000000" stroke="none"/></g><g transform="translate(-70,2) scale(1,1)"><path d="M 777.8373251423759 244.209517756016 L 788 240 L 777.8373251423758 235.790482243984 L 777.8373251423759 244.209517756016" fill="none" stroke="#000000" stroke-miterlimit="10"/></g><g transform="translate(-70,2) scale(1,1)"><g><path fill="none" stroke="none"/><text fill="#000000" font-family="Arial" font-size="13px" font-style="normal" font-weight="normal" stroke="none" text-decoration="none" x="597.274169921875" y="216.5">3 : ControlloCredenziali(</text><text fill="#000000" font-family="Arial" font-size="13px" font-style="normal" font-weight="normal" stroke="none" text-decoration="none" x="619.681396484375" y="229.5">mail, password )</text></g></g><g transform="translate(-70,2) scale(1,1)"><rect fill="#ffffff" height="28" stroke="none" width="13" x="788" y="240"/></g><g transform="translate(-70,2) scale(1,1)"><path d="M 788 240 L 801 240 L 801 268 L 788 268 L 788 240 Z Z" fill="none" stroke="#000000" stroke-miterlimit="10"/></g><g transform="translate(-70,2) scale(1,1)"><path d="M 795 384 L 934 384" fill="none" stroke="#000000" stroke-miterlimit="10"/></g><g transform="translate(-70,2) scale(1,1)"><path d="M 923.8373251423759 388.209517756016 L 934 384 L 923.8373251423758 379.790482243984" fill="#000000" stroke="none"/></g><g transform="translate(-70,2) scale(1,1)"><path d="M 923.8373251423759 388.209517756016 L 934 384 L 923.8373251423758 379.790482243984 L 923.8373251423759 388.209517756016" fill="none" stroke="#000000" stroke-miterlimit="10"/></g><g transform="translate(-70,2) scale(1,1)"><g><path fill="none" stroke="none"/><text fill="#000000" font-family="Arial" font-size="13px" font-style="normal" font-weight="normal" stroke="none" text-decoration="none" x="813.004150390625" y="360.5">4 : autentica(mail</text><text fill="#000000" font-family="Arial" font-size="13px" font-style="normal" font-weight="normal" stroke="none" text-decoration="none" x="832.516845703125" y="373.5">password)</text></g></g><g transform="translate(-70,2) scale(1,1)"><rect fill="#ffffff" height="28" stroke="none" width="13" x="934" y="384"/></g><g transform="translate(-70,2) scale(1,1)"><path d="M 934 384 L 947 384 L 947 412 L 934 412 L 934 384 Z Z" fill="none" stroke="#000000" stroke-miterlimit="10"/></g><g transform="translate(-70,2) scale(1,1)"><path d="M 934 402 L 795 402" fill="none" stroke="#000000" stroke-dasharray="3" stroke-miterlimit="10"/></g><g transform="translate(-70,2) scale(1,1)"><path d="M 805.1626748576241 397.790482243984 L 795 402 L 805.1626748576241 406.209517756016" fill="none" stroke="#000000" stroke-miterlimit="10"/></g><g transform="translate(-70,2) scale(1,1)"><g><path fill="none" stroke="none"/><text fill="#000000" font-family="Arial" font-size="13px" font-style="normal" font-weight="normal" stroke="none" text-decoration="none" x="840.5" y="416.5">5 : esito</text></g></g><g transform="translate(-70,2) scale(1,1)"><path d="M 795 504 L 1106 504" fill="none" stroke="#000000" stroke-miterlimit="10"/></g><g transform="translate(-70,2) scale(1,1)"><path d="M 1095.837325142376 508.209517756016 L 1106 504 L 1095.837325142376 499.790482243984" fill="#000000" stroke="none"/></g><g transform="translate(-70,2) scale(1,1)"><path d="M 1095.837325142376 508.209517756016 L 1106 504 L 1095.837325142376 499.790482243984 L 1095.837325142376 508.209517756016" fill="none" stroke="#000000" stroke-miterlimit="10"/></g><g transform="translate(-70,2) scale(1,1)"><g><path fill="none" stroke="none"/><text fill="#000000" font-family="Arial" font-size="13px" font-style="normal" font-weight="normal" stroke="none" text-decoration="none" x="866.5" y="498.5">6 : autentica(mail, password)</text></g></g><g transform="translate(-70,2) scale(1,1)"><rect fill="#ffffff" height="28" stroke="none" width="13" x="1106" y="504"/></g><g transform="translate(-70,2) scale(1,1)"><path d="M 1106 504 L 1119 504 L 1119 532 L 1106 532 L 1106 504 Z Z" fill="none" stroke="#000000" stroke-miterlimit="10"/></g><g transform="translate(-70,2) scale(1,1)"><path d="M 1106 529 L 795 529" fill="none" stroke="#000000" stroke-dasharray="3" stroke-miterlimit="10"/></g><g transform="translate(-70,2) scale(1,1)"><path d="M 805.1626748576241 524.790482243984 L 795 529 L 805.1626748576241 533.209517756016" fill="none" stroke="#000000" stroke-miterlimit="10"/></g><g transform="translate(-70,2) scale(1,1)"><g><path fill="none" stroke="none"/><text fill="#000000" font-family="Arial" font-size="13px" font-style="normal" font-weight="normal" stroke="none" text-decoration="none" x="926.5" y="543.5">7 : esito</text></g></g><g transform="translate(-70,2) scale(1,1)"><path d="M 795 608 L 547 608" fill="none" stroke="#000000" stroke-dasharray="3" stroke-miterlimit="10"/></g><g transform="translate(-70,2) scale(1,1)"><path d="M 557.1626748576241 603.790482243984 L 547 608 L 557.1626748576241 612.209517756016" fill="none" stroke="#000000" stroke-miterlimit="10"/></g><g transform="translate(-70,2) scale(1,1)"><g><path fill="none" stroke="none"/><text fill="#000000" font-family="Arial" font-size="13px" font-style="normal" font-weight="normal" stroke="none" text-decoration="none" x="620.5" y="622.5">8 : esitoRichiesta</text></g></g><g transform="translate(-70,2) scale(1,1)"><path d="M 547 680 L 656 680" fill="none" stroke="#000000" stroke-dasharray="3" stroke-miterlimit="10"/></g><g transform="translate(-70,2) scale(1,1)"><path d="M 645.8373251423759 684.209517756016 L 656 680 L 645.8373251423758 675.790482243984" fill="none" stroke="#000000" stroke-miterlimit="10"/></g><g transform="translate(-70,2) scale(1,1)"><g><path fill="none" stroke="none"/><text fill="#000000" font-family="Arial" font-size="13px" font-style="normal" font-weight="normal" stroke="none" text-decoration="none" x="591.5" y="674.5">9 : </text></g></g><g transform="translate(-70,2) scale(1,1)"><g><path fill="none" stroke="none"/><text fill="#000000" font-family="Arial" font-size="13px" font-style="normal" font-weight="normal" stroke="none" text-decoration="none" x="575.5" y="659.5">«create»</text></g></g><g transform="translate(-70,2) scale(1,1)"><path d="M 149 728 L 706 728" fill="none" stroke="#000000" stroke-miterlimit="10"/></g><g transform="translate(-70,2) scale(1,1)"><path d="M 695.8373251423759 732.209517756016 L 706 728 L 695.8373251423758 723.790482243984" fill="#000000" stroke="none"/></g><g transform="translate(-70,2) scale(1,1)"><path d="M 695.8373251423759 732.209517756016 L 706 728 L 695.8373251423758 723.790482243984 L 695.8373251423759 732.209517756016" fill="none" stroke="#000000" stroke-miterlimit="10"/></g><g transform="translate(-70,2) scale(1,1)"><path d="M 703 766 L 723 786" fill="none" stroke="#000000" stroke-miterlimit="10"/></g><g transform="translate(-70,2) scale(1,1)"><path d="M 723 766 L 703 786" fill="none" stroke="#000000" stroke-miterlimit="10"/></g><g transform="translate(-70,2) scale(1,1)"><g><path fill="none" stroke="none"/><text fill="#000000" font-family="Arial" font-size="13px" font-style="normal" font-weight="normal" stroke="none" text-decoration="none" x="366.5" y="722.5">10 : invioConferma( )</text></g></g><g transform="translate(-70,2) scale(1,1)"><g><path fill="none" stroke="none"/><text fill="#000000" font-family="Arial" font-size="13px" font-style="normal" font-weight="normal" stroke="none" text-decoration="none" x="398.5" y="707.5">«destroy»</text></g></g><g transform="translate(-70,2) scale(1,1)"><rect fill="#ffffff" height="28" stroke="none" width="13" x="706" y="728"/></g><g transform="translate(-70,2) scale(1,1)"><path d="M 706 728 L 719 728 L 719 756 L 706 756 L 706 728 Z Z" fill="none" stroke="#000000" stroke-miterlimit="10"/></g><g transform="translate(-70,2) scale(1,1)"><path d="M 547 848 L 577 848 L 577 868 L 553 868" fill="none" stroke="#000000" stroke-miterlimit="10"/></g><g transform="translate(-70,2) scale(1,1)"><path d="M 563.1626748576241 863.790482243984 L 553 868 L 563.1626748576241 872.209517756016" fill="#000000" stroke="none"/></g><g transform="translate(-70,2) scale(1,1)"><path d="M 563.1626748576241 863.790482243984 L 553 868 L 563.1626748576241 872.209517756016 L 563.1626748576241 863.790482243984" fill="none" stroke="#000000" stroke-miterlimit="10"/></g><g transform="translate(-70,2) scale(1,1)"><path d="M 537 1014 L 557 1034" fill="none" stroke="#000000" stroke-miterlimit="10"/></g><g transform="translate(-70,2) scale(1,1)"><path d="M 557 1014 L 537 1034" fill="none" stroke="#000000" stroke-miterlimit="10"/></g><g transform="translate(-70,2) scale(1,1)"><g><path fill="none" stroke="none"/><text fill="#000000" font-family="Arial" font-size="13px" font-style="normal" font-weight="normal" stroke="none" text-decoration="none" x="575.982421875" y="861.5">11 : </text></g></g><g transform="translate(-70,2) scale(1,1)"><g><path fill="none" stroke="none"/><text fill="#000000" font-family="Arial" font-size="13px" font-style="normal" font-weight="normal" stroke="none" text-decoration="none" x="598.5" y="858.5">«destroy»</text></g></g><g transform="translate(-70,2) scale(1,1)"><rect fill="#ffffff" height="124" stroke="none" width="13" x="540" y="868"/></g><g transform="translate(-70,2) scale(1,1)"><path d="M 540 868 L 553 868 L 553 992 L 540 992 L 540 868 Z Z" fill="none" stroke="#000000" stroke-miterlimit="10"/></g><g transform="translate(-70,2) scale(1,1)"><path d="M 540 872 L 367 872" fill="none" stroke="#000000" stroke-miterlimit="10"/></g><g transform="translate(-70,2) scale(1,1)"><path d="M 377.16267485762415 867.790482243984 L 367 872 L 377.16267485762415 876.209517756016" fill="#000000" stroke="none"/></g><g transform="translate(-70,2) scale(1,1)"><path d="M 377.16267485762415 867.790482243984 L 367 872 L 377.16267485762415 876.209517756016 L 377.16267485762415 867.790482243984" fill="none" stroke="#000000" stroke-miterlimit="10"/></g><g transform="translate(-70,2) scale(1,1)"><path d="M 351 907 L 371 927" fill="none" stroke="#000000" stroke-miterlimit="10"/></g><g transform="translate(-70,2) scale(1,1)"><path d="M 371 907 L 351 927" fill="none" stroke="#000000" stroke-miterlimit="10"/></g><g transform="translate(-70,2) scale(1,1)"><g><path fill="none" stroke="none"/><text fill="#000000" font-family="Arial" font-size="13px" font-style="normal" font-weight="normal" stroke="none" text-decoration="none" x="439.5" y="886.5">12 : </text></g></g><g transform="translate(-70,2) scale(1,1)"><g><path fill="none" stroke="none"/><text fill="#000000" font-family="Arial" font-size="13px" font-style="normal" font-weight="normal" stroke="none" text-decoration="none" x="423.5" y="901.5">«destroy»</text></g></g><g transform="translate(-70,2) scale(1,1)"><rect fill="#ffffff" height="28" stroke="none" width="13" x="354" y="872"/></g><g transform="translate(-70,2) scale(1,1)"><path d="M 354 872 L 367 872 L 367 900 L 354 900 L 354 872 Z Z" fill="none" stroke="#000000" stroke-miterlimit="10"/></g><g transform="translate(-70,2) scale(1,1)"><path d="M 540 960 L 441.7607421875 960" fill="none" stroke="#000000" stroke-dasharray="3" stroke-miterlimit="10"/></g><g transform="translate(-70,2) scale(1,1)"><path d="M 451.92341704512415 955.790482243984 L 441.7607421875 960 L 451.92341704512415 964.209517756016" fill="none" stroke="#000000" stroke-miterlimit="10"/></g><g transform="translate(-70,2) scale(1,1)"><g><path fill="none" stroke="none"/><text fill="#000000" font-family="Arial" font-size="13px" font-style="normal" font-weight="normal" stroke="none" text-decoration="none" x="476.5" y="974.5">13 : </text></g></g><g transform="translate(-70,2) scale(1,1)"><g><path fill="none" stroke="none"/><text fill="#000000" font-family="Arial" font-size="13px" font-style="normal" font-weight="normal" stroke="none" text-decoration="none" x="463.5" y="989.5">«create»</text></g></g><g transform="translate(-70,2) scale(1,1)"><path d="M 200 120 L 1224 120 L 1224 824 L 200 824 L 200 120" fill="none" stroke="#000000" stroke-miterlimit="10"/></g><g transform="translate(-70,2) scale(1,1)"><path d="M 200 120 L 200 142 L 327.2998046875 142 L 338.2998046875 131 L 338.2998046875 120 L 200 120" fill="#ffffff" stroke="none"/></g><g transform="translate(-70,2) scale(1,1)"><path d="M 200 120 L 200 142 L 327.2998046875 142 L 338.2998046875 131 L 338.2998046875 120 L 200 120 L 200 120" fill="none" stroke="#000000" stroke-miterlimit="10"/></g><g transform="translate(-70,2) scale(1,1)"><g><path fill="none" stroke="none"/><text fill="#000000" font-family="Arial" font-size="13px" font-style="normal" font-weight="normal" stroke="none" text-decoration="none" x="235.578125" y="135.5">[dati non validi]</text></g></g><g transform="translate(-70,2) scale(1,1)"><g><path fill="none" stroke="none"/><text fill="#000000" font-family="Arial" font-size="13px" font-style="normal" font-weight="bold" stroke="none" text-decoration="none" x="203.57177734375" y="135.5">loop</text></g></g><g transform="translate(-70,2) scale(1,1)"><path d="M 320 576 L 959 576 L 959 792 L 320 792 L 320 576" fill="none" stroke="#000000" stroke-miterlimit="10"/></g><g transform="translate(-70,2) scale(1,1)"><path d="M 320 576 L 320 598 L 440.79345703125 598 L 451.79345703125 587 L 451.79345703125 576 L 320 576" fill="#ffffff" stroke="none"/></g><g transform="translate(-70,2) scale(1,1)"><path d="M 320 576 L 320 598 L 440.79345703125 598 L 451.79345703125 587 L 451.79345703125 576 L 320 576 L 320 576" fill="none" stroke="#000000" stroke-miterlimit="10"/></g><g transform="translate(-70,2) scale(1,1)"><g><path fill="none" stroke="none"/><text fill="#000000" font-family="Arial" font-size="13px" font-style="normal" font-weight="normal" stroke="none" text-decoration="none" x="349.07177734375" y="591.5">[dati non validi]</text></g></g><g transform="translate(-70,2) scale(1,1)"><g><path fill="none" stroke="none"/><text fill="#000000" font-family="Arial" font-size="13px" font-style="normal" font-weight="bold" stroke="none" text-decoration="none" x="323.930419921875" y="591.5">opt</text></g></g><g transform="translate(-70,2) scale(1,1)"><path d="M 744 280 L 1224 280 L 1224 560 L 744 560 L 744 280" fill="none" stroke="#000000" stroke-miterlimit="10"/></g><g transform="translate(-70,2) scale(1,1)"><path d="M 744 280 L 744 302 L 777.341796875 302 L 788.341796875 291 L 788.341796875 280 L 744 280" fill="#ffffff" stroke="none"/></g><g transform="translate(-70,2) scale(1,1)"><path d="M 744 280 L 744 302 L 777.341796875 302 L 788.341796875 291 L 788.341796875 280 L 744 280 L 744 280" fill="none" stroke="#000000" stroke-miterlimit="10"/></g><g transform="translate(-70,2) scale(1,1)"><g><path fill="none" stroke="none"/><text fill="#000000" font-family="Arial" font-size="13px" font-style="normal" font-weight="normal" stroke="none" text-decoration="none" x="768.72998046875" y="291"> </text></g></g><g transform="translate(-70,2) scale(1,1)"><g><path fill="none" stroke="none"/><text fill="#000000" font-family="Arial" font-size="13px" font-style="normal" font-weight="bold" stroke="none" text-decoration="none" x="748.279541015625" y="295.5">alt</text></g></g><g transform="translate(-70,2) scale(1,1)"><g><path fill="none" stroke="none"/><text fill="#000000" font-family="Arial" font-size="13px" font-style="normal" font-weight="normal" stroke="none" text-decoration="none" x="763.5" y="328.5">[ il sistema è installato in una Farmacia]</text></g></g><g transform="translate(-70,2) scale(1,1)"><path d="M 744 433 L 1224 433" fill="none" stroke="#000000" stroke-dasharray="10,3" stroke-miterlimit="10"/></g><g transform="translate(-70,2) scale(1,1)"><g><path fill="none" stroke="none"/><text fill="#000000" font-family="Arial" font-size="13px" font-style="normal" font-weight="normal" stroke="none" text-decoration="none" x="763.5" y="458.5">[ il sistema è installato in una Azienda o Palmare]</text></g></g></g></svg>