<?xml version="1.0" encoding="UTF-8" standalone="no"?><svg xmlns="http://www.w3.org/2000/svg" xmlns:xlink="http://www.w3.org/1999/xlink" height="884" version="1.1" width="964.65625"><defs/><g><g transform="translate(-70,2) scale(1,1)"><path d="M 80 8 L 1024 8 L 1024 872 L 80 872 L 80 8" fill="none" stroke="#000000" stroke-miterlimit="10"/></g><g transform="translate(-70,2) scale(1,1)"><path d="M 80 8 L 80 30 L 195.0107421875 30 L 206.0107421875 19 L 206.0107421875 8 L 80 8" fill="#ffffff" stroke="none"/></g><g transform="translate(-70,2) scale(1,1)"><path d="M 80 8 L 80 30 L 195.0107421875 30 L 206.0107421875 19 L 206.0107421875 8 L 80 8 L 80 8" fill="none" stroke="#000000" stroke-miterlimit="10"/></g><g transform="translate(-70,2) scale(1,1)"><g><path fill="none" stroke="none"/><text fill="#000000" font-family="Arial" font-size="13px" font-style="normal" font-weight="normal" stroke="none" text-decoration="none" x="104.72998046875" y="23.5">Autenticazione</text></g></g><g transform="translate(-70,2) scale(1,1)"><g><path fill="none" stroke="none"/><text fill="#000000" font-family="Arial" font-size="13px" font-style="normal" font-weight="bold" stroke="none" text-decoration="none" x="84.279541015625" y="23.5">sd</text></g></g><g transform="translate(-70,2) scale(1,1)"><path d="M 142.0604110440341 47.3 C 142.0604110440341 43.82060576 144.9388127662159 41 148.489501953125 41 C 152.0401911400341 41 154.91859286221592 43.82060576 154.91859286221592 47.3 C 154.91859286221592 50.779394239999995 152.0401911400341 53.6 148.489501953125 53.6 C 144.9388127662159 53.6 142.0604110440341 50.779394239999995 142.0604110440341 47.3 Z" fill="#ffffff" stroke="none"/></g><g transform="translate(-70,2) scale(1,1)"><path d="M 142.0604110440341 47.3 C 142.0604110440341 43.82060576 144.9388127662159 41 148.489501953125 41 C 152.0401911400341 41 154.91859286221592 43.82060576 154.91859286221592 47.3 C 154.91859286221592 50.779394239999995 152.0401911400341 53.6 148.489501953125 53.6 C 144.9388127662159 53.6 142.0604110440341 50.779394239999995 142.0604110440341 47.3 Z" fill="none" stroke="#000000" stroke-miterlimit="10"/></g><g transform="translate(-70,2) scale(1,1)"><path d="M 148.489501953125 53.6 L 148.489501953125 66.4" fill="none" stroke="#000000" stroke-miterlimit="10"/></g><g transform="translate(-70,2) scale(1,1)"><path d="M 141.6822292258523 58.4 L 155.29677468039773 58.4" fill="none" stroke="#000000" stroke-miterlimit="10"/></g><g transform="translate(-70,2) scale(1,1)"><path d="M 148.489501953125 66.4 L 139.03495649857956 79" fill="none" stroke="#000000" stroke-miterlimit="10"/></g><g transform="translate(-70,2) scale(1,1)"><path d="M 148.489501953125 66.4 L 157.94404740767047 79" fill="none" stroke="#000000" stroke-miterlimit="10"/></g><g transform="translate(-70,2) scale(1,1)"><g><path fill="none" stroke="none"/><text fill="#000000" font-family="Arial" font-size="13px" font-style="normal" font-weight="bold" stroke="none" text-decoration="none" x="117.062255859375" y="97.5"> : Persona</text></g></g><g transform="translate(-70,2) scale(1,1)"><path d="M 149.5 105 L 149.5 848" fill="none" stroke="#000000" stroke-dasharray="3" stroke-miterlimit="10"/></g><g transform="translate(-70,2) scale(1,1)"><rect fill="#C0C0C0" height="39" opacity="0.2" stroke="none" width="161.9873046875" x="287" y="47"/></g><g transform="translate(-70,2) scale(1,1)"><rect fill="#ffffff" height="39" stroke="none" width="161.9873046875" x="280" y="40"/></g><g transform="translate(-70,2) scale(1,1)"><path d="M 280 40 L 441.9873046875 40 L 441.9873046875 79 L 280 79 L 280 40 Z Z" fill="none" stroke="#000000" stroke-miterlimit="10"/></g><g transform="translate(-70,2) scale(1,1)"><g><path fill="none" stroke="none"/><text fill="#000000" font-family="Arial" font-size="13px" font-style="normal" font-weight="normal" stroke="none" text-decoration="none" x="325.938720703125" y="55.5">«Boundary»</text></g></g><g transform="translate(-70,2) scale(1,1)"><g><path fill="none" stroke="none"/><text fill="#000000" font-family="Arial" font-size="13px" font-style="normal" font-weight="bold" stroke="none" text-decoration="none" x="318.0390625" y="70.5">:ModuloLogin</text></g></g><g transform="translate(-70,2) scale(1,1)"><path d="M 361.5 80 L 361.5 733" fill="none" stroke="#000000" stroke-dasharray="3" stroke-miterlimit="10"/></g><g transform="translate(-70,2) scale(1,1)"><rect fill="#C0C0C0" height="39" opacity="0.2" stroke="none" width="164.91357421875" x="471" y="47"/></g><g transform="translate(-70,2) scale(1,1)"><rect fill="#ffffff" height="39" stroke="none" width="164.91357421875" x="464" y="40"/></g><g transform="translate(-70,2) scale(1,1)"><path d="M 464 40 L 628.91357421875 40 L 628.91357421875 79 L 464 79 L 464 40 Z Z" fill="none" stroke="#000000" stroke-miterlimit="10"/></g><g transform="translate(-70,2) scale(1,1)"><g><path fill="none" stroke="none"/><text fill="#000000" font-family="Arial" font-size="13px" font-style="normal" font-weight="normal" stroke="none" text-decoration="none" x="518.273193359375" y="55.5">«Control»</text></g></g><g transform="translate(-70,2) scale(1,1)"><g><path fill="none" stroke="none"/><text fill="#000000" font-family="Arial" font-size="13px" font-style="normal" font-weight="bold" stroke="none" text-decoration="none" x="473.5" y="70.5">:GestoreAutenticazione</text></g></g><g transform="translate(-70,2) scale(1,1)"><path d="M 547.5 80 L 547.5 832" fill="none" stroke="#000000" stroke-dasharray="3" stroke-miterlimit="10"/></g><g transform="translate(-70,2) scale(1,1)"><rect fill="#C0C0C0" height="39" opacity="0.2" stroke="none" width="116.50634765625" x="743" y="47"/></g><g transform="translate(-70,2) scale(1,1)"><rect fill="#ffffff" height="39" stroke="none" width="116.50634765625" x="736" y="40"/></g><g transform="translate(-70,2) scale(1,1)"><path d="M 736 40 L 852.50634765625 40 L 852.50634765625 79 L 736 79 L 736 40 Z Z" fill="none" stroke="#000000" stroke-miterlimit="10"/></g><g transform="translate(-70,2) scale(1,1)"><g><path fill="none" stroke="none"/><text fill="#000000" font-family="Arial" font-size="13px" font-style="normal" font-weight="normal" stroke="none" text-decoration="none" x="759.1982421875" y="55.5">«Boundary»</text></g></g><g transform="translate(-70,2) scale(1,1)"><g><path fill="none" stroke="none"/><text fill="#000000" font-family="Arial" font-size="13px" font-style="normal" font-weight="bold" stroke="none" text-decoration="none" x="749.470458984375" y="70.5">DBMSDaemon</text></g></g><g transform="translate(-70,2) scale(1,1)"><path d="M 795.5 80 L 795.5 840" fill="none" stroke="#000000" stroke-dasharray="3" stroke-miterlimit="10"/></g><g transform="translate(-70,2) scale(1,1)"><rect fill="#C0C0C0" height="39" opacity="0.2" stroke="none" width="112.1962890625" x="383" y="515"/></g><g transform="translate(-70,2) scale(1,1)"><rect fill="#ffffff" height="39" stroke="none" width="112.1962890625" x="376" y="508"/></g><g transform="translate(-70,2) scale(1,1)"><path d="M 376 508 L 488.1962890625 508 L 488.1962890625 547 L 376 547 L 376 508 Z Z" fill="none" stroke="#000000" stroke-miterlimit="10"/></g><g transform="translate(-70,2) scale(1,1)"><g><path fill="none" stroke="none"/><text fill="#000000" font-family="Arial" font-size="13px" font-style="normal" font-weight="normal" stroke="none" text-decoration="none" x="397.043212890625" y="523.5">«Boundary»</text></g></g><g transform="translate(-70,2) scale(1,1)"><g><path fill="none" stroke="none"/><text fill="#000000" font-family="Arial" font-size="13px" font-style="normal" font-weight="bold" stroke="none" text-decoration="none" x="385.5" y="538.5">PannelloErrore</text></g></g><g transform="translate(-70,2) scale(1,1)"><path d="M 433.5 548 L 433.5 624" fill="none" stroke="#000000" stroke-dasharray="3" stroke-miterlimit="10"/></g><g transform="translate(-70,2) scale(1,1)"><rect fill="#C0C0C0" height="39" opacity="0.2" stroke="none" width="153.7607421875" x="239" y="763"/></g><g transform="translate(-70,2) scale(1,1)"><rect fill="#ffffff" height="39" stroke="none" width="153.7607421875" x="232" y="756"/></g><g transform="translate(-70,2) scale(1,1)"><path d="M 232 756 L 385.7607421875 756 L 385.7607421875 795 L 232 795 L 232 756 Z Z" fill="none" stroke="#000000" stroke-miterlimit="10"/></g><g transform="translate(-70,2) scale(1,1)"><g><path fill="none" stroke="none"/><text fill="#000000" font-family="Arial" font-size="13px" font-style="normal" font-weight="normal" stroke="none" text-decoration="none" x="273.825439453125" y="771.5">«Boundary»</text></g></g><g transform="translate(-70,2) scale(1,1)"><g><path fill="none" stroke="none"/><text fill="#000000" font-family="Arial" font-size="13px" font-style="normal" font-weight="bold" stroke="none" text-decoration="none" x="243.13134765625" y="786.5">:InterfacciaPrincipale</text></g></g><g transform="translate(-70,2) scale(1,1)"><path d="M 309.5 796 L 309.5 856" fill="none" stroke="#000000" stroke-dasharray="3" stroke-miterlimit="10"/></g><g transform="translate(-70,2) scale(1,1)"><path d="M 933.899034090909 47.3 C 933.899034090909 43.82060576 936.777435813091 41 940.328125 41 C 943.878814186909 41 946.7572159090909 43.82060576 946.7572159090909 47.3 C 946.7572159090909 50.779394239999995 943.878814186909 53.6 940.328125 53.6 C 936.777435813091 53.6 933.899034090909 50.779394239999995 933.899034090909 47.3 Z" fill="#ffffff" stroke="none"/></g><g transform="translate(-70,2) scale(1,1)"><path d="M 933.899034090909 47.3 C 933.899034090909 43.82060576 936.777435813091 41 940.328125 41 C 943.878814186909 41 946.7572159090909 43.82060576 946.7572159090909 47.3 C 946.7572159090909 50.779394239999995 943.878814186909 53.6 940.328125 53.6 C 936.777435813091 53.6 933.899034090909 50.779394239999995 933.899034090909 47.3 Z" fill="none" stroke="#000000" stroke-miterlimit="10"/></g><g transform="translate(-70,2) scale(1,1)"><path d="M 940.328125 53.6 L 940.328125 66.4" fill="none" stroke="#000000" stroke-miterlimit="10"/></g><g transform="translate(-70,2) scale(1,1)"><path d="M 933.5208522727272 58.4 L 947.1353977272727 58.4" fill="none" stroke="#000000" stroke-miterlimit="10"/></g><g transform="translate(-70,2) scale(1,1)"><path d="M 940.328125 66.4 L 930.8735795454545 79" fill="none" stroke="#000000" stroke-miterlimit="10"/></g><g transform="translate(-70,2) scale(1,1)"><path d="M 940.328125 66.4 L 949.7826704545454 79" fill="none" stroke="#000000" stroke-miterlimit="10"/></g><g transform="translate(-70,2) scale(1,1)"><g><path fill="none" stroke="none"/><text fill="#000000" font-family="Arial" font-size="13px" font-style="normal" font-weight="bold" stroke="none" text-decoration="none" x="886.8681640625" y="97.5">: DBMS Farmacie</text></g></g><g transform="translate(-70,2) scale(1,1)"><path d="M 941.5 105 L 941.5 416" fill="none" stroke="#000000" stroke-dasharray="3" stroke-miterlimit="10"/></g><g transform="translate(-70,2) scale(1,1)"><path d="M 149 183 L 354 183" fill="none" stroke="#000000" stroke-miterlimit="10"/></g><g transform="translate(-70,2) scale(1,1)"><path d="M 343.83732514237585 187.209517756016 L 354 183 L 343.83732514237585 178.790482243984" fill="#000000" stroke="none"/></g><g transform="translate(-70,2) scale(1,1)"><path d="M 343.83732514237585 187.209517756016 L 354 183 L 343.83732514237585 178.790482243984 L 343.83732514237585 187.209517756016" fill="none" stroke="#000000" stroke-miterlimit="10"/></g><g transform="translate(-70,2) scale(1,1)"><g><path fill="none" stroke="none"/><text fill="#000000" font-family="Arial" font-size="13px" font-style="normal" font-weight="normal" stroke="none" text-decoration="none" x="244.273193359375" y="155.5">1 :</text><text fill="#000000" font-family="Arial" font-size="13px" font-style="normal" font-weight="normal" stroke="none" text-decoration="none" x="179.619140625" y="168.5">inserisciCredenziali(mail,</text><text fill="#000000" font-family="Arial" font-size="13px" font-style="normal" font-weight="normal" stroke="none" text-decoration="none" x="221.516845703125" y="181.5">password)</text></g></g><g transform="translate(-70,2) scale(1,1)"><rect fill="#ffffff" height="28" stroke="none" width="13" x="354" y="183"/></g><g transform="translate(-70,2) scale(1,1)"><path d="M 354 183 L 367 183 L 367 211 L 354 211 L 354 183 Z Z" fill="none" stroke="#000000" stroke-miterlimit="10"/></g><g transform="translate(-70,2) scale(1,1)"><path d="M 361 216 L 540 216" fill="none" stroke="#000000" stroke-miterlimit="10"/></g><g transform="translate(-70,2) scale(1,1)"><path d="M 529.8373251423759 220.209517756016 L 540 216 L 529.8373251423758 211.790482243984" fill="#000000" stroke="none"/></g><g transform="translate(-70,2) scale(1,1)"><path d="M 529.8373251423759 220.209517756016 L 540 216 L 529.8373251423758 211.790482243984 L 529.8373251423759 220.209517756016" fill="none" stroke="#000000" stroke-miterlimit="10"/></g><g transform="translate(-70,2) scale(1,1)"><g><path fill="none" stroke="none"/><text fill="#000000" font-family="Arial" font-size="13px" font-style="normal" font-weight="normal" stroke="none" text-decoration="none" x="369.49462890625" y="193.5">2 : controlloCredenziali(mail,</text><text fill="#000000" font-family="Arial" font-size="13px" font-style="normal" font-weight="normal" stroke="none" text-decoration="none" x="421.516845703125" y="206.5">password)</text></g></g><g transform="translate(-70,2) scale(1,1)"><rect fill="#ffffff" height="28" stroke="none" width="13" x="540" y="216"/></g><g transform="translate(-70,2) scale(1,1)"><path d="M 540 216 L 553 216 L 553 244 L 540 244 L 540 216 Z Z" fill="none" stroke="#000000" stroke-miterlimit="10"/></g><g transform="translate(-70,2) scale(1,1)"><path d="M 553 240 L 788 240" fill="none" stroke="#000000" stroke-miterlimit="10"/></g><g transform="translate(-70,2) scale(1,1)"><path d="M 777.8373251423759 244.209517756016 L 788 240 L 777.8373251423758 235.790482243984" fill="#000000" stroke="none"/></g><g transform="translate(-70,2) scale(1,1)"><path d="M 777.8373251423759 244.209517756016 L 788 240 L 777.8373251423758 235.790482243984 L 777.8373251423759 244.209517756016" fill="none" stroke="#000000" stroke-miterlimit="10"/></g><g transform="translate(-70,2) scale(1,1)"><g><path fill="none" stroke="none"/><text fill="#000000" font-family="Arial" font-size="13px" font-style="normal" font-weight="normal" stroke="none" text-decoration="none" x="659.773193359375" y="210.5">3 :</text><text fill="#000000" font-family="Arial" font-size="13px" font-style="normal" font-weight="normal" stroke="none" text-decoration="none" x="594.02734375" y="223.5">controlloCredenziali(mail,</text><text fill="#000000" font-family="Arial" font-size="13px" font-style="normal" font-weight="normal" stroke="none" text-decoration="none" x="637.016845703125" y="236.5">password)</text></g></g><g transform="translate(-70,2) scale(1,1)"><rect fill="#ffffff" height="28" stroke="none" width="13" x="788" y="240"/></g><g transform="translate(-70,2) scale(1,1)"><path d="M 788 240 L 801 240 L 801 268 L 788 268 L 788 240 Z Z" fill="none" stroke="#000000" stroke-miterlimit="10"/></g><g transform="translate(-70,2) scale(1,1)"><path d="M 795 384 L 934 384" fill="none" stroke="#000000" stroke-miterlimit="10"/></g><g transform="translate(-70,2) scale(1,1)"><path d="M 923.8373251423759 388.209517756016 L 934 384 L 923.8373251423758 379.790482243984" fill="#000000" stroke="none"/></g><g transform="translate(-70,2) scale(1,1)"><path d="M 923.8373251423759 388.209517756016 L 934 384 L 923.8373251423758 379.790482243984 L 923.8373251423759 388.209517756016" fill="none" stroke="#000000" stroke-miterlimit="10"/></g><g transform="translate(-70,2) scale(1,1)"><g><path fill="none" stroke="none"/><text fill="#000000" font-family="Arial" font-size="13px" font-style="normal" font-weight="normal" stroke="none" text-decoration="none" x="782.300537109375" y="360.5">4 : controlloCredenziali(mail</text><text fill="#000000" font-family="Arial" font-size="13px" font-style="normal" font-weight="normal" stroke="none" text-decoration="none" x="832.516845703125" y="373.5">password)</text></g></g><g transform="translate(-70,2) scale(1,1)"><rect fill="#ffffff" height="28" stroke="none" width="13" x="934" y="384"/></g><g transform="translate(-70,2) scale(1,1)"><path d="M 934 384 L 947 384 L 947 412 L 934 412 L 934 384 Z Z" fill="none" stroke="#000000" stroke-miterlimit="10"/></g><g transform="translate(-70,2) scale(1,1)"><path d="M 934 402 L 795 402" fill="none" stroke="#000000" stroke-dasharray="3" stroke-miterlimit="10"/></g><g transform="translate(-70,2) scale(1,1)"><path d="M 805.1626748576241 397.790482243984 L 795 402 L 805.1626748576241 406.209517756016" fill="none" stroke="#000000" stroke-miterlimit="10"/></g><g transform="translate(-70,2) scale(1,1)"><g><path fill="none" stroke="none"/><text fill="#000000" font-family="Arial" font-size="13px" font-style="normal" font-weight="normal" stroke="none" text-decoration="none" x="840.5" y="416.5">5 : esito</text></g></g><g transform="translate(-70,2) scale(1,1)"><path d="M 795 432 L 547 432" fill="none" stroke="#000000" stroke-dasharray="3" stroke-miterlimit="10"/></g><g transform="translate(-70,2) scale(1,1)"><path d="M 557.1626748576241 427.790482243984 L 547 432 L 557.1626748576241 436.209517756016" fill="none" stroke="#000000" stroke-miterlimit="10"/></g><g transform="translate(-70,2) scale(1,1)"><g><path fill="none" stroke="none"/><text fill="#000000" font-family="Arial" font-size="13px" font-style="normal" font-weight="normal" stroke="none" text-decoration="none" x="620.5" y="446.5">6 : esitoRichiesta</text></g></g><g transform="translate(-70,2) scale(1,1)"><path d="M 547 528 L 488.1962890625 528" fill="none" stroke="#000000" stroke-dasharray="3" stroke-miterlimit="10"/></g><g transform="translate(-70,2) scale(1,1)"><path d="M 498.35896392012415 523.790482243984 L 488.1962890625 528 L 498.35896392012415 532.209517756016" fill="none" stroke="#000000" stroke-miterlimit="10"/></g><g transform="translate(-70,2) scale(1,1)"><g><path fill="none" stroke="none"/><text fill="#000000" font-family="Arial" font-size="13px" font-style="normal" font-weight="normal" stroke="none" text-decoration="none" x="506.5" y="542.5">7 : </text></g></g><g transform="translate(-70,2) scale(1,1)"><g><path fill="none" stroke="none"/><text fill="#000000" font-family="Arial" font-size="13px" font-style="normal" font-weight="normal" stroke="none" text-decoration="none" x="490.5" y="557.5">«create»</text></g></g><g transform="translate(-70,2) scale(1,1)"><path d="M 149 576 L 426 576" fill="none" stroke="#000000" stroke-miterlimit="10"/></g><g transform="translate(-70,2) scale(1,1)"><path d="M 415.83732514237585 580.209517756016 L 426 576 L 415.83732514237585 571.790482243984" fill="#000000" stroke="none"/></g><g transform="translate(-70,2) scale(1,1)"><path d="M 415.83732514237585 580.209517756016 L 426 576 L 415.83732514237585 571.790482243984 L 415.83732514237585 580.209517756016" fill="none" stroke="#000000" stroke-miterlimit="10"/></g><g transform="translate(-70,2) scale(1,1)"><path d="M 423 614 L 443 634" fill="none" stroke="#000000" stroke-miterlimit="10"/></g><g transform="translate(-70,2) scale(1,1)"><path d="M 443 614 L 423 634" fill="none" stroke="#000000" stroke-miterlimit="10"/></g><g transform="translate(-70,2) scale(1,1)"><g><path fill="none" stroke="none"/><text fill="#000000" font-family="Arial" font-size="13px" font-style="normal" font-weight="normal" stroke="none" text-decoration="none" x="230.114990234375" y="570.5">8 : invioConferma( )</text></g></g><g transform="translate(-70,2) scale(1,1)"><g><path fill="none" stroke="none"/><text fill="#000000" font-family="Arial" font-size="13px" font-style="normal" font-weight="normal" stroke="none" text-decoration="none" x="258.5" y="555.5">«destroy»</text></g></g><g transform="translate(-70,2) scale(1,1)"><rect fill="#ffffff" height="28" stroke="none" width="13" x="426" y="576"/></g><g transform="translate(-70,2) scale(1,1)"><path d="M 426 576 L 439 576 L 439 604 L 426 604 L 426 576 Z Z" fill="none" stroke="#000000" stroke-miterlimit="10"/></g><g transform="translate(-70,2) scale(1,1)"><path d="M 547 664 L 577 664 L 577 684 L 553 684" fill="none" stroke="#000000" stroke-miterlimit="10"/></g><g transform="translate(-70,2) scale(1,1)"><path d="M 563.1626748576241 679.790482243984 L 553 684 L 563.1626748576241 688.209517756016" fill="#000000" stroke="none"/></g><g transform="translate(-70,2) scale(1,1)"><path d="M 563.1626748576241 679.790482243984 L 553 684 L 563.1626748576241 688.209517756016 L 563.1626748576241 679.790482243984" fill="none" stroke="#000000" stroke-miterlimit="10"/></g><g transform="translate(-70,2) scale(1,1)"><path d="M 537 822 L 557 842" fill="none" stroke="#000000" stroke-miterlimit="10"/></g><g transform="translate(-70,2) scale(1,1)"><path d="M 557 822 L 537 842" fill="none" stroke="#000000" stroke-miterlimit="10"/></g><g transform="translate(-70,2) scale(1,1)"><g><path fill="none" stroke="none"/><text fill="#000000" font-family="Arial" font-size="13px" font-style="normal" font-weight="normal" stroke="none" text-decoration="none" x="579.114990234375" y="677.5">9 : </text></g></g><g transform="translate(-70,2) scale(1,1)"><g><path fill="none" stroke="none"/><text fill="#000000" font-family="Arial" font-size="13px" font-style="normal" font-weight="normal" stroke="none" text-decoration="none" x="598.5" y="674.5">«destroy»</text></g></g><g transform="translate(-70,2) scale(1,1)"><rect fill="#ffffff" height="124" stroke="none" width="13" x="540" y="684"/></g><g transform="translate(-70,2) scale(1,1)"><path d="M 540 684 L 553 684 L 553 808 L 540 808 L 540 684 Z Z" fill="none" stroke="#000000" stroke-miterlimit="10"/></g><g transform="translate(-70,2) scale(1,1)"><path d="M 540 688 L 367 688" fill="none" stroke="#000000" stroke-miterlimit="10"/></g><g transform="translate(-70,2) scale(1,1)"><path d="M 377.16267485762415 683.790482243984 L 367 688 L 377.16267485762415 692.209517756016" fill="#000000" stroke="none"/></g><g transform="translate(-70,2) scale(1,1)"><path d="M 377.16267485762415 683.790482243984 L 367 688 L 377.16267485762415 692.209517756016 L 377.16267485762415 683.790482243984" fill="none" stroke="#000000" stroke-miterlimit="10"/></g><g transform="translate(-70,2) scale(1,1)"><path d="M 351 723 L 371 743" fill="none" stroke="#000000" stroke-miterlimit="10"/></g><g transform="translate(-70,2) scale(1,1)"><path d="M 371 723 L 351 743" fill="none" stroke="#000000" stroke-miterlimit="10"/></g><g transform="translate(-70,2) scale(1,1)"><g><path fill="none" stroke="none"/><text fill="#000000" font-family="Arial" font-size="13px" font-style="normal" font-weight="normal" stroke="none" text-decoration="none" x="439.5" y="702.5">10 : </text></g></g><g transform="translate(-70,2) scale(1,1)"><g><path fill="none" stroke="none"/><text fill="#000000" font-family="Arial" font-size="13px" font-style="normal" font-weight="normal" stroke="none" text-decoration="none" x="423.5" y="717.5">«destroy»</text></g></g><g transform="translate(-70,2) scale(1,1)"><rect fill="#ffffff" height="28" stroke="none" width="13" x="354" y="688"/></g><g transform="translate(-70,2) scale(1,1)"><path d="M 354 688 L 367 688 L 367 716 L 354 716 L 354 688 Z Z" fill="none" stroke="#000000" stroke-miterlimit="10"/></g><g transform="translate(-70,2) scale(1,1)"><path d="M 540 776 L 385.7607421875 776" fill="none" stroke="#000000" stroke-dasharray="3" stroke-miterlimit="10"/></g><g transform="translate(-70,2) scale(1,1)"><path d="M 395.92341704512415 771.790482243984 L 385.7607421875 776 L 395.92341704512415 780.209517756016" fill="none" stroke="#000000" stroke-miterlimit="10"/></g><g transform="translate(-70,2) scale(1,1)"><g><path fill="none" stroke="none"/><text fill="#000000" font-family="Arial" font-size="13px" font-style="normal" font-weight="normal" stroke="none" text-decoration="none" x="448.982421875" y="790.5">11 : </text></g></g><g transform="translate(-70,2) scale(1,1)"><g><path fill="none" stroke="none"/><text fill="#000000" font-family="Arial" font-size="13px" font-style="normal" font-weight="normal" stroke="none" text-decoration="none" x="435.5" y="805.5">«create»</text></g></g><g transform="translate(-70,2) scale(1,1)"><path d="M 112 120 L 968 120 L 968 648 L 112 648 L 112 120" fill="none" stroke="#000000" stroke-miterlimit="10"/></g><g transform="translate(-70,2) scale(1,1)"><path d="M 112 120 L 112 142 L 239.2998046875 142 L 250.2998046875 131 L 250.2998046875 120 L 112 120" fill="#ffffff" stroke="none"/></g><g transform="translate(-70,2) scale(1,1)"><path d="M 112 120 L 112 142 L 239.2998046875 142 L 250.2998046875 131 L 250.2998046875 120 L 112 120 L 112 120" fill="none" stroke="#000000" stroke-miterlimit="10"/></g><g transform="translate(-70,2) scale(1,1)"><g><path fill="none" stroke="none"/><text fill="#000000" font-family="Arial" font-size="13px" font-style="normal" font-weight="normal" stroke="none" text-decoration="none" x="147.578125" y="135.5">[dati non validi]</text></g></g><g transform="translate(-70,2) scale(1,1)"><g><path fill="none" stroke="none"/><text fill="#000000" font-family="Arial" font-size="13px" font-style="normal" font-weight="bold" stroke="none" text-decoration="none" x="115.57177734375" y="135.5">loop</text></g></g><g transform="translate(-70,2) scale(1,1)"><path d="M 136 472 L 584 472 L 584 640 L 136 640 L 136 472" fill="none" stroke="#000000" stroke-miterlimit="10"/></g><g transform="translate(-70,2) scale(1,1)"><path d="M 136 472 L 136 494 L 256.79345703125 494 L 267.79345703125 483 L 267.79345703125 472 L 136 472" fill="#ffffff" stroke="none"/></g><g transform="translate(-70,2) scale(1,1)"><path d="M 136 472 L 136 494 L 256.79345703125 494 L 267.79345703125 483 L 267.79345703125 472 L 136 472 L 136 472" fill="none" stroke="#000000" stroke-miterlimit="10"/></g><g transform="translate(-70,2) scale(1,1)"><g><path fill="none" stroke="none"/><text fill="#000000" font-family="Arial" font-size="13px" font-style="normal" font-weight="normal" stroke="none" text-decoration="none" x="165.07177734375" y="487.5">[dati non validi]</text></g></g><g transform="translate(-70,2) scale(1,1)"><g><path fill="none" stroke="none"/><text fill="#000000" font-family="Arial" font-size="13px" font-style="normal" font-weight="bold" stroke="none" text-decoration="none" x="139.930419921875" y="487.5">opt</text></g></g></g></svg>