<?xml version="1.0" encoding="UTF-8" standalone="no"?><svg xmlns="http://www.w3.org/2000/svg" xmlns:xlink="http://www.w3.org/1999/xlink" height="1292" version="1.1" width="1372"><defs/><g><g transform="translate(-102,10) scale(1,1)"><path d="M 112 0 L 1464 0 L 1464 1272 L 112 1272 L 112 0" fill="none" stroke="#000000" stroke-miterlimit="10"/></g><g transform="translate(-102,10) scale(1,1)"><path d="M 112 0 L 112 22 L 232.76806640625 22 L 243.76806640625 11 L 243.76806640625 0 L 112 0" fill="#ffffff" stroke="none"/></g><g transform="translate(-102,10) scale(1,1)"><path d="M 112 0 L 112 22 L 232.76806640625 22 L 243.76806640625 11 L 243.76806640625 0 L 112 0 L 112 0" fill="none" stroke="#000000" stroke-miterlimit="10"/></g><g transform="translate(-102,10) scale(1,1)"><g><path fill="none" stroke="none"/><text fill="#000000" font-family="Arial" font-size="13px" font-style="normal" font-weight="normal" stroke="none" text-decoration="none" x="136.72998046875" y="15.5">Modifica Ordine</text></g></g><g transform="translate(-102,10) scale(1,1)"><g><path fill="none" stroke="none"/><text fill="#000000" font-family="Arial" font-size="13px" font-style="normal" font-weight="bold" stroke="none" text-decoration="none" x="116.279541015625" y="15.5">sd</text></g></g><g transform="translate(-102,10) scale(1,1)"><path d="M 230.7344833096591 47.3 C 230.7344833096591 43.82060576 233.6128850318409 41 237.16357421875 41 C 240.7142634056591 41 243.59266512784092 43.82060576 243.59266512784092 47.3 C 243.59266512784092 50.779394239999995 240.7142634056591 53.6 237.16357421875 53.6 C 233.6128850318409 53.6 230.7344833096591 50.779394239999995 230.7344833096591 47.3 Z" fill="#ffffff" stroke="none"/></g><g transform="translate(-102,10) scale(1,1)"><path d="M 230.7344833096591 47.3 C 230.7344833096591 43.82060576 233.6128850318409 41 237.16357421875 41 C 240.7142634056591 41 243.59266512784092 43.82060576 243.59266512784092 47.3 C 243.59266512784092 50.779394239999995 240.7142634056591 53.6 237.16357421875 53.6 C 233.6128850318409 53.6 230.7344833096591 50.779394239999995 230.7344833096591 47.3 Z" fill="none" stroke="#000000" stroke-miterlimit="10"/></g><g transform="translate(-102,10) scale(1,1)"><path d="M 237.16357421875 53.6 L 237.16357421875 66.4" fill="none" stroke="#000000" stroke-miterlimit="10"/></g><g transform="translate(-102,10) scale(1,1)"><path d="M 230.3563014914773 58.4 L 243.97084694602273 58.4" fill="none" stroke="#000000" stroke-miterlimit="10"/></g><g transform="translate(-102,10) scale(1,1)"><path d="M 237.16357421875 66.4 L 227.70902876420456 79" fill="none" stroke="#000000" stroke-miterlimit="10"/></g><g transform="translate(-102,10) scale(1,1)"><path d="M 237.16357421875 66.4 L 246.61811967329547 79" fill="none" stroke="#000000" stroke-miterlimit="10"/></g><g transform="translate(-102,10) scale(1,1)"><g><path fill="none" stroke="none"/><text fill="#000000" font-family="Arial" font-size="13px" font-style="normal" font-weight="bold" stroke="none" text-decoration="none" x="198.8681640625" y="97.5">: Farmacista</text></g></g><g transform="translate(-102,10) scale(1,1)"><path d="M 238.5 105 L 238.5 1042" fill="none" stroke="#000000" stroke-dasharray="3" stroke-miterlimit="10"/></g><g transform="translate(-102,10) scale(1,1)"><rect fill="#C0C0C0" height="39" opacity="0.2" stroke="none" width="170.658203125" x="327" y="47"/></g><g transform="translate(-102,10) scale(1,1)"><rect fill="#ffffff" height="39" stroke="none" width="170.658203125" x="320" y="40"/></g><g transform="translate(-102,10) scale(1,1)"><path d="M 320 40 L 490.658203125 40 L 490.658203125 79 L 320 79 L 320 40 Z Z" fill="none" stroke="#000000" stroke-miterlimit="10"/></g><g transform="translate(-102,10) scale(1,1)"><g><path fill="none" stroke="none"/><text fill="#000000" font-family="Arial" font-size="13px" font-style="normal" font-weight="normal" stroke="none" text-decoration="none" x="370.274169921875" y="55.5">«Boundary»</text></g></g><g transform="translate(-102,10) scale(1,1)"><g><path fill="none" stroke="none"/><text fill="#000000" font-family="Arial" font-size="13px" font-style="normal" font-weight="bold" stroke="none" text-decoration="none" x="329.5" y="70.5">: BottoneModificaOrdine</text></g></g><g transform="translate(-102,10) scale(1,1)"><path d="M 406.5 80 L 406.5 266" fill="none" stroke="#000000" stroke-dasharray="3" stroke-miterlimit="10"/></g><g transform="translate(-102,10) scale(1,1)"><rect fill="#C0C0C0" height="39" opacity="0.2" stroke="none" width="170.68994140625" x="543" y="131"/></g><g transform="translate(-102,10) scale(1,1)"><rect fill="#ffffff" height="39" stroke="none" width="170.68994140625" x="536" y="124"/></g><g transform="translate(-102,10) scale(1,1)"><path d="M 536 124 L 706.68994140625 124 L 706.68994140625 163 L 536 163 L 536 124 Z Z" fill="none" stroke="#000000" stroke-miterlimit="10"/></g><g transform="translate(-102,10) scale(1,1)"><g><path fill="none" stroke="none"/><text fill="#000000" font-family="Arial" font-size="13px" font-style="normal" font-weight="normal" stroke="none" text-decoration="none" x="593.161376953125" y="139.5">«Control»</text></g></g><g transform="translate(-102,10) scale(1,1)"><g><path fill="none" stroke="none"/><text fill="#000000" font-family="Arial" font-size="13px" font-style="normal" font-weight="bold" stroke="none" text-decoration="none" x="545.5" y="154.5">: GestoreModificaOrdine</text></g></g><g transform="translate(-102,10) scale(1,1)"><path d="M 622.5 164 L 622.5 1254" fill="none" stroke="#000000" stroke-dasharray="3" stroke-miterlimit="10"/></g><g transform="translate(-102,10) scale(1,1)"><rect fill="#C0C0C0" height="39" opacity="0.2" stroke="none" width="182.97900390625" x="367" y="339"/></g><g transform="translate(-102,10) scale(1,1)"><rect fill="#ffffff" height="39" stroke="none" width="182.97900390625" x="360" y="332"/></g><g transform="translate(-102,10) scale(1,1)"><path d="M 360 332 L 542.97900390625 332 L 542.97900390625 371 L 360 371 L 360 332 Z Z" fill="none" stroke="#000000" stroke-miterlimit="10"/></g><g transform="translate(-102,10) scale(1,1)"><g><path fill="none" stroke="none"/><text fill="#000000" font-family="Arial" font-size="13px" font-style="normal" font-weight="normal" stroke="none" text-decoration="none" x="416.4345703125" y="347.5">«Boundary»</text></g></g><g transform="translate(-102,10) scale(1,1)"><g><path fill="none" stroke="none"/><text fill="#000000" font-family="Arial" font-size="13px" font-style="normal" font-weight="bold" stroke="none" text-decoration="none" x="369.5" y="362.5">:InterfacciaModificaOrdine</text></g></g><g transform="translate(-102,10) scale(1,1)"><path d="M 452.5 372 L 452.5 1233" fill="none" stroke="#000000" stroke-dasharray="3" stroke-miterlimit="10"/></g><g transform="translate(-102,10) scale(1,1)"><rect fill="#C0C0C0" height="39" opacity="0.2" stroke="none" width="108.5654296875" x="991" y="47"/></g><g transform="translate(-102,10) scale(1,1)"><rect fill="#ffffff" height="39" stroke="none" width="108.5654296875" x="984" y="40"/></g><g transform="translate(-102,10) scale(1,1)"><path d="M 984 40 L 1092.5654296875 40 L 1092.5654296875 79 L 984 79 L 984 40 Z Z" fill="none" stroke="#000000" stroke-miterlimit="10"/></g><g transform="translate(-102,10) scale(1,1)"><g><path fill="none" stroke="none"/><text fill="#000000" font-family="Arial" font-size="13px" font-style="normal" font-weight="normal" stroke="none" text-decoration="none" x="1003.227783203125" y="55.5">«Boundary»</text></g></g><g transform="translate(-102,10) scale(1,1)"><g><path fill="none" stroke="none"/><text fill="#000000" font-family="Arial" font-size="13px" font-style="normal" font-weight="bold" stroke="none" text-decoration="none" x="993.5" y="70.5">DBMSDaemon</text></g></g><g transform="translate(-102,10) scale(1,1)"><path d="M 1039.5 80 L 1039.5 944" fill="none" stroke="#000000" stroke-dasharray="3" stroke-miterlimit="10"/></g><g transform="translate(-102,10) scale(1,1)"><path d="M 1298.274522372159 47.3 C 1298.274522372159 43.82060576 1301.152924094341 41 1304.70361328125 41 C 1308.254302468159 41 1311.132704190341 43.82060576 1311.132704190341 47.3 C 1311.132704190341 50.779394239999995 1308.254302468159 53.6 1304.70361328125 53.6 C 1301.152924094341 53.6 1298.274522372159 50.779394239999995 1298.274522372159 47.3 Z" fill="#ffffff" stroke="none"/></g><g transform="translate(-102,10) scale(1,1)"><path d="M 1298.274522372159 47.3 C 1298.274522372159 43.82060576 1301.152924094341 41 1304.70361328125 41 C 1308.254302468159 41 1311.132704190341 43.82060576 1311.132704190341 47.3 C 1311.132704190341 50.779394239999995 1308.254302468159 53.6 1304.70361328125 53.6 C 1301.152924094341 53.6 1298.274522372159 50.779394239999995 1298.274522372159 47.3 Z" fill="none" stroke="#000000" stroke-miterlimit="10"/></g><g transform="translate(-102,10) scale(1,1)"><path d="M 1304.70361328125 53.6 L 1304.70361328125 66.4" fill="none" stroke="#000000" stroke-miterlimit="10"/></g><g transform="translate(-102,10) scale(1,1)"><path d="M 1297.8963405539773 58.4 L 1311.5108860085227 58.4" fill="none" stroke="#000000" stroke-miterlimit="10"/></g><g transform="translate(-102,10) scale(1,1)"><path d="M 1304.70361328125 66.4 L 1295.2490678267045 79" fill="none" stroke="#000000" stroke-miterlimit="10"/></g><g transform="translate(-102,10) scale(1,1)"><path d="M 1304.70361328125 66.4 L 1314.1581587357955 79" fill="none" stroke="#000000" stroke-miterlimit="10"/></g><g transform="translate(-102,10) scale(1,1)"><g><path fill="none" stroke="none"/><text fill="#000000" font-family="Arial" font-size="13px" font-style="normal" font-weight="bold" stroke="none" text-decoration="none" x="1254.8681640625" y="97.5">: DBMS Azienda</text></g></g><g transform="translate(-102,10) scale(1,1)"><path d="M 1305.5 105 L 1305.5 944" fill="none" stroke="#000000" stroke-dasharray="3" stroke-miterlimit="10"/></g><g transform="translate(-102,10) scale(1,1)"><rect fill="#C0C0C0" height="39" opacity="0.2" stroke="none" width="71.736328125" x="519" y="275"/></g><g transform="translate(-102,10) scale(1,1)"><rect fill="#ffffff" height="39" stroke="none" width="71.736328125" x="512" y="268"/></g><g transform="translate(-102,10) scale(1,1)"><path d="M 512 268 L 583.736328125 268 L 583.736328125 307 L 512 307 L 512 268 Z Z" fill="none" stroke="#000000" stroke-miterlimit="10"/></g><g transform="translate(-102,10) scale(1,1)"><g><path fill="none" stroke="none"/><text fill="#000000" font-family="Arial" font-size="13px" font-style="normal" font-weight="normal" stroke="none" text-decoration="none" x="524.3818359375" y="283.5">«Entity»</text></g></g><g transform="translate(-102,10) scale(1,1)"><g><path fill="none" stroke="none"/><text fill="#000000" font-family="Arial" font-size="13px" font-style="normal" font-weight="bold" stroke="none" text-decoration="none" x="526.9208984375" y="298.5">Ordine</text></g></g><g transform="translate(-102,10) scale(1,1)"><path d="M 548.5 308 L 548.5 499" fill="none" stroke="#000000" stroke-dasharray="3" stroke-miterlimit="10"/></g><g transform="translate(-102,10) scale(1,1)"><rect fill="#C0C0C0" height="39" opacity="0.2" stroke="none" width="197.65478515625" x="391" y="643"/></g><g transform="translate(-102,10) scale(1,1)"><rect fill="#ffffff" height="39" stroke="none" width="197.65478515625" x="384" y="636"/></g><g transform="translate(-102,10) scale(1,1)"><path d="M 384 636 L 581.65478515625 636 L 581.65478515625 675 L 384 675 L 384 636 Z Z" fill="none" stroke="#000000" stroke-miterlimit="10"/></g><g transform="translate(-102,10) scale(1,1)"><g><path fill="none" stroke="none"/><text fill="#000000" font-family="Arial" font-size="13px" font-style="normal" font-weight="normal" stroke="none" text-decoration="none" x="447.7724609375" y="651.5">«Boundary»</text></g></g><g transform="translate(-102,10) scale(1,1)"><g><path fill="none" stroke="none"/><text fill="#000000" font-family="Arial" font-size="13px" font-style="normal" font-weight="bold" stroke="none" text-decoration="none" x="393.5" y="666.5">:PannelloAvvisoDisponibilita</text></g></g><g transform="translate(-102,10) scale(1,1)"><path d="M 483.5 676 L 483.5 744" fill="none" stroke="#000000" stroke-dasharray="3" stroke-miterlimit="10"/></g><g transform="translate(-102,10) scale(1,1)"><rect fill="#C0C0C0" height="39" opacity="0.2" stroke="none" width="149.76171875" x="431" y="963"/></g><g transform="translate(-102,10) scale(1,1)"><rect fill="#ffffff" height="39" stroke="none" width="149.76171875" x="424" y="956"/></g><g transform="translate(-102,10) scale(1,1)"><path d="M 424 956 L 573.76171875 956 L 573.76171875 995 L 424 995 L 424 956 Z Z" fill="none" stroke="#000000" stroke-miterlimit="10"/></g><g transform="translate(-102,10) scale(1,1)"><g><path fill="none" stroke="none"/><text fill="#000000" font-family="Arial" font-size="13px" font-style="normal" font-weight="normal" stroke="none" text-decoration="none" x="463.825927734375" y="971.5">«Boundary»</text></g></g><g transform="translate(-102,10) scale(1,1)"><g><path fill="none" stroke="none"/><text fill="#000000" font-family="Arial" font-size="13px" font-style="normal" font-weight="bold" stroke="none" text-decoration="none" x="433.5" y="986.5">PannelloDataInvalida</text></g></g><g transform="translate(-102,10) scale(1,1)"><path d="M 499.5 996 L 499.5 1064" fill="none" stroke="#000000" stroke-dasharray="3" stroke-miterlimit="10"/></g><g transform="translate(-102,10) scale(1,1)"><path d="M 238 120 L 399 120" fill="none" stroke="#000000" stroke-miterlimit="10"/></g><g transform="translate(-102,10) scale(1,1)"><path d="M 388.83732514237585 124.20951775601598 L 399 120 L 388.83732514237585 115.79048224398402" fill="#000000" stroke="none"/></g><g transform="translate(-102,10) scale(1,1)"><path d="M 388.83732514237585 124.20951775601598 L 399 120 L 388.83732514237585 115.79048224398402 L 388.83732514237585 124.20951775601598" fill="none" stroke="#000000" stroke-miterlimit="10"/></g><g transform="translate(-102,10) scale(1,1)"><g><path fill="none" stroke="none"/><text fill="#000000" font-family="Arial" font-size="13px" font-style="normal" font-weight="normal" stroke="none" text-decoration="none" x="292.236328125" y="114.5">1 : clicca</text></g></g><g transform="translate(-102,10) scale(1,1)"><rect fill="#ffffff" height="28" stroke="none" width="13" x="399" y="120"/></g><g transform="translate(-102,10) scale(1,1)"><path d="M 399 120 L 412 120 L 412 148 L 399 148 L 399 120 Z Z" fill="none" stroke="#000000" stroke-miterlimit="10"/></g><g transform="translate(-102,10) scale(1,1)"><path d="M 412 144 L 536 144" fill="none" stroke="#000000" stroke-dasharray="3" stroke-miterlimit="10"/></g><g transform="translate(-102,10) scale(1,1)"><path d="M 525.8373251423759 148.209517756016 L 536 144 L 525.8373251423758 139.790482243984" fill="none" stroke="#000000" stroke-miterlimit="10"/></g><g transform="translate(-102,10) scale(1,1)"><g><path fill="none" stroke="none"/><text fill="#000000" font-family="Arial" font-size="13px" font-style="normal" font-weight="normal" stroke="none" text-decoration="none" x="464.5" y="138.5">2 : </text></g></g><g transform="translate(-102,10) scale(1,1)"><g><path fill="none" stroke="none"/><text fill="#000000" font-family="Arial" font-size="13px" font-style="normal" font-weight="normal" stroke="none" text-decoration="none" x="448.5" y="123.5">«create»</text></g></g><g transform="translate(-102,10) scale(1,1)"><path d="M 622 184 L 1032 184" fill="none" stroke="#000000" stroke-miterlimit="10"/></g><g transform="translate(-102,10) scale(1,1)"><path d="M 1021.8373251423759 188.209517756016 L 1032 184 L 1021.8373251423758 179.790482243984" fill="#000000" stroke="none"/></g><g transform="translate(-102,10) scale(1,1)"><path d="M 1021.8373251423759 188.209517756016 L 1032 184 L 1021.8373251423758 179.790482243984 L 1021.8373251423759 188.209517756016" fill="none" stroke="#000000" stroke-miterlimit="10"/></g><g transform="translate(-102,10) scale(1,1)"><g><path fill="none" stroke="none"/><text fill="#000000" font-family="Arial" font-size="13px" font-style="normal" font-weight="normal" stroke="none" text-decoration="none" x="788.944091796875" y="178.5">3 : getOrdine</text></g></g><g transform="translate(-102,10) scale(1,1)"><rect fill="#ffffff" height="28" stroke="none" width="13" x="1032" y="184"/></g><g transform="translate(-102,10) scale(1,1)"><path d="M 1032 184 L 1045 184 L 1045 212 L 1032 212 L 1032 184 Z Z" fill="none" stroke="#000000" stroke-miterlimit="10"/></g><g transform="translate(-102,10) scale(1,1)"><path d="M 1045 200 L 1298 200" fill="none" stroke="#000000" stroke-miterlimit="10"/></g><g transform="translate(-102,10) scale(1,1)"><path d="M 1287.837325142376 204.209517756016 L 1298 200 L 1287.837325142376 195.790482243984" fill="#000000" stroke="none"/></g><g transform="translate(-102,10) scale(1,1)"><path d="M 1287.837325142376 204.209517756016 L 1298 200 L 1287.837325142376 195.790482243984 L 1287.837325142376 204.209517756016" fill="none" stroke="#000000" stroke-miterlimit="10"/></g><g transform="translate(-102,10) scale(1,1)"><g><path fill="none" stroke="none"/><text fill="#000000" font-family="Arial" font-size="13px" font-style="normal" font-weight="normal" stroke="none" text-decoration="none" x="1133.55908203125" y="194.5">4 : getOrdine</text></g></g><g transform="translate(-102,10) scale(1,1)"><rect fill="#ffffff" height="28" stroke="none" width="13" x="1298" y="200"/></g><g transform="translate(-102,10) scale(1,1)"><path d="M 1298 200 L 1311 200 L 1311 228 L 1298 228 L 1298 200 Z Z" fill="none" stroke="#000000" stroke-miterlimit="10"/></g><g transform="translate(-102,10) scale(1,1)"><path d="M 1298 224 L 1039 224" fill="none" stroke="#000000" stroke-dasharray="3" stroke-miterlimit="10"/></g><g transform="translate(-102,10) scale(1,1)"><path d="M 1049.162674857624 219.790482243984 L 1039 224 L 1049.162674857624 228.209517756016" fill="none" stroke="#000000" stroke-miterlimit="10"/></g><g transform="translate(-102,10) scale(1,1)"><g><path fill="none" stroke="none"/><text fill="#000000" font-family="Arial" font-size="13px" font-style="normal" font-weight="normal" stroke="none" text-decoration="none" x="1157.5" y="238.5">5 : </text></g></g><g transform="translate(-102,10) scale(1,1)"><path d="M 1039 240 L 622 240" fill="none" stroke="#000000" stroke-dasharray="3" stroke-miterlimit="10"/></g><g transform="translate(-102,10) scale(1,1)"><path d="M 632.1626748576241 235.790482243984 L 622 240 L 632.1626748576241 244.209517756016" fill="none" stroke="#000000" stroke-miterlimit="10"/></g><g transform="translate(-102,10) scale(1,1)"><g><path fill="none" stroke="none"/><text fill="#000000" font-family="Arial" font-size="13px" font-style="normal" font-weight="normal" stroke="none" text-decoration="none" x="819.5" y="254.5">6 : </text></g></g><g transform="translate(-102,10) scale(1,1)"><path d="M 622 288 L 583.736328125 288" fill="none" stroke="#000000" stroke-dasharray="3" stroke-miterlimit="10"/></g><g transform="translate(-102,10) scale(1,1)"><path d="M 593.8990029826241 283.790482243984 L 583.736328125 288 L 593.8990029826241 292.209517756016" fill="none" stroke="#000000" stroke-miterlimit="10"/></g><g transform="translate(-102,10) scale(1,1)"><g><path fill="none" stroke="none"/><text fill="#000000" font-family="Arial" font-size="13px" font-style="normal" font-weight="normal" stroke="none" text-decoration="none" x="591.5" y="302.5">7 : </text></g></g><g transform="translate(-102,10) scale(1,1)"><g><path fill="none" stroke="none"/><text fill="#000000" font-family="Arial" font-size="13px" font-style="normal" font-weight="normal" stroke="none" text-decoration="none" x="575.5" y="317.5">«create»</text></g></g><g transform="translate(-102,10) scale(1,1)"><path d="M 622 352 L 542.97900390625 352" fill="none" stroke="#000000" stroke-dasharray="3" stroke-miterlimit="10"/></g><g transform="translate(-102,10) scale(1,1)"><path d="M 553.1416787638741 347.790482243984 L 542.97900390625 352 L 553.1416787638741 356.209517756016" fill="none" stroke="#000000" stroke-miterlimit="10"/></g><g transform="translate(-102,10) scale(1,1)"><g><path fill="none" stroke="none"/><text fill="#000000" font-family="Arial" font-size="13px" font-style="normal" font-weight="normal" stroke="none" text-decoration="none" x="571.5" y="366.5">8 : </text></g></g><g transform="translate(-102,10) scale(1,1)"><g><path fill="none" stroke="none"/><text fill="#000000" font-family="Arial" font-size="13px" font-style="normal" font-weight="normal" stroke="none" text-decoration="none" x="555.5" y="381.5">«create»</text></g></g><g transform="translate(-102,10) scale(1,1)"><path d="M 238 464 L 445 464" fill="none" stroke="#000000" stroke-miterlimit="10"/></g><g transform="translate(-102,10) scale(1,1)"><path d="M 434.83732514237585 468.209517756016 L 445 464 L 434.83732514237585 459.790482243984" fill="#000000" stroke="none"/></g><g transform="translate(-102,10) scale(1,1)"><path d="M 434.83732514237585 468.209517756016 L 445 464 L 434.83732514237585 459.790482243984 L 434.83732514237585 468.209517756016" fill="none" stroke="#000000" stroke-miterlimit="10"/></g><g transform="translate(-102,10) scale(1,1)"><g><path fill="none" stroke="none"/><text fill="#000000" font-family="Arial" font-size="13px" font-style="normal" font-weight="normal" stroke="none" text-decoration="none" x="215.2099609375" y="458.5">9 : inserisciDati(nuovaQuantita, nuovaData)</text></g></g><g transform="translate(-102,10) scale(1,1)"><rect fill="#ffffff" height="28" stroke="none" width="13" x="445" y="464"/></g><g transform="translate(-102,10) scale(1,1)"><path d="M 445 464 L 458 464 L 458 492 L 445 492 L 445 464 Z Z" fill="none" stroke="#000000" stroke-miterlimit="10"/></g><g transform="translate(-102,10) scale(1,1)"><path d="M 238 496 L 445 496" fill="none" stroke="#000000" stroke-miterlimit="10"/></g><g transform="translate(-102,10) scale(1,1)"><path d="M 434.83732514237585 500.209517756016 L 445 496 L 434.83732514237585 491.790482243984" fill="#000000" stroke="none"/></g><g transform="translate(-102,10) scale(1,1)"><path d="M 434.83732514237585 500.209517756016 L 445 496 L 434.83732514237585 491.790482243984 L 434.83732514237585 500.209517756016" fill="none" stroke="#000000" stroke-miterlimit="10"/></g><g transform="translate(-102,10) scale(1,1)"><g><path fill="none" stroke="none"/><text fill="#000000" font-family="Arial" font-size="13px" font-style="normal" font-weight="normal" stroke="none" text-decoration="none" x="301.39453125" y="490.5">10 : conferma</text></g></g><g transform="translate(-102,10) scale(1,1)"><rect fill="#ffffff" height="28" stroke="none" width="13" x="445" y="496"/></g><g transform="translate(-102,10) scale(1,1)"><path d="M 445 496 L 458 496 L 458 524 L 445 524 L 445 496 Z Z" fill="none" stroke="#000000" stroke-miterlimit="10"/></g><g transform="translate(-102,10) scale(1,1)"><path d="M 458 512 L 615 512" fill="none" stroke="#000000" stroke-miterlimit="10"/></g><g transform="translate(-102,10) scale(1,1)"><path d="M 604.8373251423759 516.209517756016 L 615 512 L 604.8373251423758 507.790482243984" fill="#000000" stroke="none"/></g><g transform="translate(-102,10) scale(1,1)"><path d="M 604.8373251423759 516.209517756016 L 615 512 L 604.8373251423758 507.790482243984 L 604.8373251423759 516.209517756016" fill="none" stroke="#000000" stroke-miterlimit="10"/></g><g transform="translate(-102,10) scale(1,1)"><g><path fill="none" stroke="none"/><text fill="#000000" font-family="Arial" font-size="13px" font-style="normal" font-weight="normal" stroke="none" text-decoration="none" x="461.020263671875" y="488.5">11 : modificaOrdine(quantita,</text><text fill="#000000" font-family="Arial" font-size="13px" font-style="normal" font-weight="normal" stroke="none" text-decoration="none" x="510.3955078125" y="501.5">nuovaData)</text></g></g><g transform="translate(-102,10) scale(1,1)"><rect fill="#ffffff" height="707" stroke="none" width="13" x="615" y="512"/></g><g transform="translate(-102,10) scale(1,1)"><path d="M 615 512 L 628 512 L 628 1219 L 615 1219 L 615 512 Z Z" fill="none" stroke="#000000" stroke-miterlimit="10"/></g><g transform="translate(-102,10) scale(1,1)"><path d="M 628 520 L 1032 520" fill="none" stroke="#000000" stroke-miterlimit="10"/></g><g transform="translate(-102,10) scale(1,1)"><path d="M 1021.8373251423759 524.209517756016 L 1032 520 L 1021.8373251423758 515.790482243984" fill="#000000" stroke="none"/></g><g transform="translate(-102,10) scale(1,1)"><path d="M 1021.8373251423759 524.209517756016 L 1032 520 L 1021.8373251423758 515.790482243984 L 1021.8373251423759 524.209517756016" fill="none" stroke="#000000" stroke-miterlimit="10"/></g><g transform="translate(-102,10) scale(1,1)"><g><path fill="none" stroke="none"/><text fill="#000000" font-family="Arial" font-size="13px" font-style="normal" font-weight="normal" stroke="none" text-decoration="none" x="720.66259765625" y="514.5">12 : aggiornaQuantitaOrdine(quantita)</text></g></g><g transform="translate(-102,10) scale(1,1)"><rect fill="#ffffff" height="72" stroke="none" width="13" x="1032" y="520"/></g><g transform="translate(-102,10) scale(1,1)"><path d="M 1032 520 L 1045 520 L 1045 592 L 1032 592 L 1032 520 Z Z" fill="none" stroke="#000000" stroke-miterlimit="10"/></g><g transform="translate(-102,10) scale(1,1)"><path d="M 1045 544 L 1298 544" fill="none" stroke="#000000" stroke-miterlimit="10"/></g><g transform="translate(-102,10) scale(1,1)"><path d="M 1287.837325142376 548.209517756016 L 1298 544 L 1287.837325142376 539.790482243984" fill="#000000" stroke="none"/></g><g transform="translate(-102,10) scale(1,1)"><path d="M 1287.837325142376 548.209517756016 L 1298 544 L 1287.837325142376 539.790482243984 L 1287.837325142376 548.209517756016" fill="none" stroke="#000000" stroke-miterlimit="10"/></g><g transform="translate(-102,10) scale(1,1)"><g><path fill="none" stroke="none"/><text fill="#000000" font-family="Arial" font-size="13px" font-style="normal" font-weight="normal" stroke="none" text-decoration="none" x="1156.658203125" y="511.5">13 :</text><text fill="#000000" font-family="Arial" font-size="13px" font-style="normal" font-weight="normal" stroke="none" text-decoration="none" x="1070.66015625" y="524.5">aggiornaQuantitaOrdine(quantita)</text></g></g><g transform="translate(-102,10) scale(1,1)"><rect fill="#ffffff" height="28" stroke="none" width="13" x="1298" y="544"/></g><g transform="translate(-102,10) scale(1,1)"><path d="M 1298 544 L 1311 544 L 1311 572 L 1298 572 L 1298 544 Z Z" fill="none" stroke="#000000" stroke-miterlimit="10"/></g><g transform="translate(-102,10) scale(1,1)"><path d="M 1298 570 L 1045 570" fill="none" stroke="#000000" stroke-dasharray="3" stroke-miterlimit="10"/></g><g transform="translate(-102,10) scale(1,1)"><path d="M 1055.162674857624 565.790482243984 L 1045 570 L 1055.162674857624 574.209517756016" fill="none" stroke="#000000" stroke-miterlimit="10"/></g><g transform="translate(-102,10) scale(1,1)"><g><path fill="none" stroke="none"/><text fill="#000000" font-family="Arial" font-size="13px" font-style="normal" font-weight="normal" stroke="none" text-decoration="none" x="1143.5" y="584.5">14 : esito</text></g></g><g transform="translate(-102,10) scale(1,1)"><path d="M 1039 592 L 628 592" fill="none" stroke="#000000" stroke-dasharray="3" stroke-miterlimit="10"/></g><g transform="translate(-102,10) scale(1,1)"><path d="M 638.1626748576241 587.790482243984 L 628 592 L 638.1626748576241 596.209517756016" fill="none" stroke="#000000" stroke-miterlimit="10"/></g><g transform="translate(-102,10) scale(1,1)"><g><path fill="none" stroke="none"/><text fill="#000000" font-family="Arial" font-size="13px" font-style="normal" font-weight="normal" stroke="none" text-decoration="none" x="805.5" y="606.5">15 : esito</text></g></g><g transform="translate(-102,10) scale(1,1)"><path d="M 615 656 L 581.65478515625 656" fill="none" stroke="#000000" stroke-dasharray="3" stroke-miterlimit="10"/></g><g transform="translate(-102,10) scale(1,1)"><path d="M 591.8174600138741 651.790482243984 L 581.65478515625 656 L 591.8174600138741 660.209517756016" fill="none" stroke="#000000" stroke-miterlimit="10"/></g><g transform="translate(-102,10) scale(1,1)"><g><path fill="none" stroke="none"/><text fill="#000000" font-family="Arial" font-size="13px" font-style="normal" font-weight="normal" stroke="none" text-decoration="none" x="584.5" y="670.5">16 : </text></g></g><g transform="translate(-102,10) scale(1,1)"><g><path fill="none" stroke="none"/><text fill="#000000" font-family="Arial" font-size="13px" font-style="normal" font-weight="normal" stroke="none" text-decoration="none" x="571.5" y="685.5">«create»</text></g></g><g transform="translate(-102,10) scale(1,1)"><path d="M 238 696 L 476 696" fill="none" stroke="#000000" stroke-miterlimit="10"/></g><g transform="translate(-102,10) scale(1,1)"><path d="M 465.83732514237585 700.209517756016 L 476 696 L 465.83732514237585 691.790482243984" fill="#000000" stroke="none"/></g><g transform="translate(-102,10) scale(1,1)"><path d="M 465.83732514237585 700.209517756016 L 476 696 L 465.83732514237585 691.790482243984 L 465.83732514237585 700.209517756016" fill="none" stroke="#000000" stroke-miterlimit="10"/></g><g transform="translate(-102,10) scale(1,1)"><path d="M 473 734 L 493 754" fill="none" stroke="#000000" stroke-miterlimit="10"/></g><g transform="translate(-102,10) scale(1,1)"><path d="M 493 734 L 473 754" fill="none" stroke="#000000" stroke-miterlimit="10"/></g><g transform="translate(-102,10) scale(1,1)"><g><path fill="none" stroke="none"/><text fill="#000000" font-family="Arial" font-size="13px" font-style="normal" font-weight="normal" stroke="none" text-decoration="none" x="317.5" y="690.5">17 : conferma</text></g></g><g transform="translate(-102,10) scale(1,1)"><g><path fill="none" stroke="none"/><text fill="#000000" font-family="Arial" font-size="13px" font-style="normal" font-weight="normal" stroke="none" text-decoration="none" x="328.5" y="675.5">«destroy»</text></g></g><g transform="translate(-102,10) scale(1,1)"><rect fill="#ffffff" height="28" stroke="none" width="13" x="476" y="696"/></g><g transform="translate(-102,10) scale(1,1)"><path d="M 476 696 L 489 696 L 489 724 L 476 724 L 476 696 Z Z" fill="none" stroke="#000000" stroke-miterlimit="10"/></g><g transform="translate(-102,10) scale(1,1)"><path d="M 628 796 L 1032 796" fill="none" stroke="#000000" stroke-miterlimit="10"/></g><g transform="translate(-102,10) scale(1,1)"><path d="M 1021.8373251423759 800.209517756016 L 1032 796 L 1021.8373251423758 791.790482243984" fill="#000000" stroke="none"/></g><g transform="translate(-102,10) scale(1,1)"><path d="M 1021.8373251423759 800.209517756016 L 1032 796 L 1021.8373251423758 791.790482243984 L 1021.8373251423759 800.209517756016" fill="none" stroke="#000000" stroke-miterlimit="10"/></g><g transform="translate(-102,10) scale(1,1)"><g><path fill="none" stroke="none"/><text fill="#000000" font-family="Arial" font-size="13px" font-style="normal" font-weight="normal" stroke="none" text-decoration="none" x="743.035888671875" y="790.5">18 : aggiornaData(nuovaData)</text></g></g><g transform="translate(-102,10) scale(1,1)"><rect fill="#ffffff" height="76" stroke="none" width="13" x="1032" y="796"/></g><g transform="translate(-102,10) scale(1,1)"><path d="M 1032 796 L 1045 796 L 1045 872 L 1032 872 L 1032 796 Z Z" fill="none" stroke="#000000" stroke-miterlimit="10"/></g><g transform="translate(-102,10) scale(1,1)"><path d="M 1045 825 L 1298 825" fill="none" stroke="#000000" stroke-miterlimit="10"/></g><g transform="translate(-102,10) scale(1,1)"><path d="M 1287.837325142376 829.209517756016 L 1298 825 L 1287.837325142376 820.790482243984" fill="#000000" stroke="none"/></g><g transform="translate(-102,10) scale(1,1)"><path d="M 1287.837325142376 829.209517756016 L 1298 825 L 1287.837325142376 820.790482243984 L 1287.837325142376 829.209517756016" fill="none" stroke="#000000" stroke-miterlimit="10"/></g><g transform="translate(-102,10) scale(1,1)"><g><path fill="none" stroke="none"/><text fill="#000000" font-family="Arial" font-size="13px" font-style="normal" font-weight="normal" stroke="none" text-decoration="none" x="1066.5" y="819.5">19 : queryAggiornaData(nuovaData)</text></g></g><g transform="translate(-102,10) scale(1,1)"><rect fill="#ffffff" height="28" stroke="none" width="13" x="1298" y="825"/></g><g transform="translate(-102,10) scale(1,1)"><path d="M 1298 825 L 1311 825 L 1311 853 L 1298 853 L 1298 825 Z Z" fill="none" stroke="#000000" stroke-miterlimit="10"/></g><g transform="translate(-102,10) scale(1,1)"><path d="M 1305 856 L 1045 856" fill="none" stroke="#000000" stroke-dasharray="3" stroke-miterlimit="10"/></g><g transform="translate(-102,10) scale(1,1)"><path d="M 1055.162674857624 851.790482243984 L 1045 856 L 1055.162674857624 860.209517756016" fill="none" stroke="#000000" stroke-miterlimit="10"/></g><g transform="translate(-102,10) scale(1,1)"><g><path fill="none" stroke="none"/><text fill="#000000" font-family="Arial" font-size="13px" font-style="normal" font-weight="normal" stroke="none" text-decoration="none" x="1147.5" y="870.5">20 : esito</text></g></g><g transform="translate(-102,10) scale(1,1)"><path d="M 1032 865 L 628 865" fill="none" stroke="#000000" stroke-dasharray="3" stroke-miterlimit="10"/></g><g transform="translate(-102,10) scale(1,1)"><path d="M 638.1626748576241 860.790482243984 L 628 865 L 638.1626748576241 869.209517756016" fill="none" stroke="#000000" stroke-miterlimit="10"/></g><g transform="translate(-102,10) scale(1,1)"><g><path fill="none" stroke="none"/><text fill="#000000" font-family="Arial" font-size="13px" font-style="normal" font-weight="normal" stroke="none" text-decoration="none" x="802.5" y="879.5">21 : esito</text></g></g><g transform="translate(-102,10) scale(1,1)"><path d="M 615 976 L 573.76171875 976" fill="none" stroke="#000000" stroke-dasharray="3" stroke-miterlimit="10"/></g><g transform="translate(-102,10) scale(1,1)"><path d="M 583.9243936076241 971.790482243984 L 573.76171875 976 L 583.9243936076241 980.209517756016" fill="none" stroke="#000000" stroke-miterlimit="10"/></g><g transform="translate(-102,10) scale(1,1)"><g><path fill="none" stroke="none"/><text fill="#000000" font-family="Arial" font-size="13px" font-style="normal" font-weight="normal" stroke="none" text-decoration="none" x="580.5" y="990.5">22 : </text></g></g><g transform="translate(-102,10) scale(1,1)"><g><path fill="none" stroke="none"/><text fill="#000000" font-family="Arial" font-size="13px" font-style="normal" font-weight="normal" stroke="none" text-decoration="none" x="567.5" y="1005.5">«create»</text></g></g><g transform="translate(-102,10) scale(1,1)"><path d="M 238 1016 L 492 1016" fill="none" stroke="#000000" stroke-miterlimit="10"/></g><g transform="translate(-102,10) scale(1,1)"><path d="M 481.83732514237585 1020.209517756016 L 492 1016 L 481.83732514237585 1011.790482243984" fill="#000000" stroke="none"/></g><g transform="translate(-102,10) scale(1,1)"><path d="M 481.83732514237585 1020.209517756016 L 492 1016 L 481.83732514237585 1011.790482243984 L 481.83732514237585 1020.209517756016" fill="none" stroke="#000000" stroke-miterlimit="10"/></g><g transform="translate(-102,10) scale(1,1)"><path d="M 489 1054 L 509 1074" fill="none" stroke="#000000" stroke-miterlimit="10"/></g><g transform="translate(-102,10) scale(1,1)"><path d="M 509 1054 L 489 1074" fill="none" stroke="#000000" stroke-miterlimit="10"/></g><g transform="translate(-102,10) scale(1,1)"><g><path fill="none" stroke="none"/><text fill="#000000" font-family="Arial" font-size="13px" font-style="normal" font-weight="normal" stroke="none" text-decoration="none" x="325.5" y="1010.5">23 : conferma</text></g></g><g transform="translate(-102,10) scale(1,1)"><g><path fill="none" stroke="none"/><text fill="#000000" font-family="Arial" font-size="13px" font-style="normal" font-weight="normal" stroke="none" text-decoration="none" x="336.5" y="995.5">«destroy»</text></g></g><g transform="translate(-102,10) scale(1,1)"><rect fill="#ffffff" height="28" stroke="none" width="13" x="492" y="1016"/></g><g transform="translate(-102,10) scale(1,1)"><path d="M 492 1016 L 505 1016 L 505 1044 L 492 1044 L 492 1016 Z Z" fill="none" stroke="#000000" stroke-miterlimit="10"/></g><g transform="translate(-102,10) scale(1,1)"><path d="M 615 1152 L 458 1152" fill="none" stroke="#000000" stroke-miterlimit="10"/></g><g transform="translate(-102,10) scale(1,1)"><path d="M 468.16267485762415 1147.7904822439841 L 458 1152 L 468.16267485762415 1156.2095177560159" fill="#000000" stroke="none"/></g><g transform="translate(-102,10) scale(1,1)"><path d="M 468.16267485762415 1147.7904822439841 L 458 1152 L 468.16267485762415 1156.2095177560159 L 468.16267485762415 1147.7904822439841" fill="none" stroke="#000000" stroke-miterlimit="10"/></g><g transform="translate(-102,10) scale(1,1)"><path d="M 442 1223 L 462 1243" fill="none" stroke="#000000" stroke-miterlimit="10"/></g><g transform="translate(-102,10) scale(1,1)"><path d="M 462 1223 L 442 1243" fill="none" stroke="#000000" stroke-miterlimit="10"/></g><g transform="translate(-102,10) scale(1,1)"><g><path fill="none" stroke="none"/><text fill="#000000" font-family="Arial" font-size="13px" font-style="normal" font-weight="normal" stroke="none" text-decoration="none" x="522.5" y="1166.5">24 : </text></g></g><g transform="translate(-102,10) scale(1,1)"><g><path fill="none" stroke="none"/><text fill="#000000" font-family="Arial" font-size="13px" font-style="normal" font-weight="normal" stroke="none" text-decoration="none" x="506.5" y="1181.5">«destroy»</text></g></g><g transform="translate(-102,10) scale(1,1)"><rect fill="#ffffff" height="28" stroke="none" width="13" x="445" y="1152"/></g><g transform="translate(-102,10) scale(1,1)"><path d="M 445 1152 L 458 1152 L 458 1180 L 445 1180 L 445 1152 Z Z" fill="none" stroke="#000000" stroke-miterlimit="10"/></g><g transform="translate(-102,10) scale(1,1)"><path d="M 628 1168 L 658 1168 L 658 1188 L 635 1188" fill="none" stroke="#000000" stroke-miterlimit="10"/></g><g transform="translate(-102,10) scale(1,1)"><path d="M 645.1626748576241 1183.7904822439841 L 635 1188 L 645.1626748576241 1192.2095177560159" fill="#000000" stroke="none"/></g><g transform="translate(-102,10) scale(1,1)"><path d="M 645.1626748576241 1183.7904822439841 L 635 1188 L 645.1626748576241 1192.2095177560159 L 645.1626748576241 1183.7904822439841" fill="none" stroke="#000000" stroke-miterlimit="10"/></g><g transform="translate(-102,10) scale(1,1)"><path d="M 612 1244 L 632 1264" fill="none" stroke="#000000" stroke-miterlimit="10"/></g><g transform="translate(-102,10) scale(1,1)"><path d="M 632 1244 L 612 1264" fill="none" stroke="#000000" stroke-miterlimit="10"/></g><g transform="translate(-102,10) scale(1,1)"><g><path fill="none" stroke="none"/><text fill="#000000" font-family="Arial" font-size="13px" font-style="normal" font-weight="normal" stroke="none" text-decoration="none" x="654.5" y="1181.5">25 : </text></g></g><g transform="translate(-102,10) scale(1,1)"><g><path fill="none" stroke="none"/><text fill="#000000" font-family="Arial" font-size="13px" font-style="normal" font-weight="normal" stroke="none" text-decoration="none" x="677.5" y="1178.5">«destroy»</text></g></g><g transform="translate(-102,10) scale(1,1)"><rect fill="#ffffff" height="28" stroke="none" width="13" x="622" y="1188"/></g><g transform="translate(-102,10) scale(1,1)"><path d="M 622 1188 L 635 1188 L 635 1216 L 622 1216 L 622 1188 Z Z" fill="none" stroke="#000000" stroke-miterlimit="10"/></g><g transform="translate(-102,10) scale(1,1)"><path d="M 128 384 L 1367 384 L 1367 1127 L 128 1127 L 128 384" fill="none" stroke="#000000" stroke-miterlimit="10"/></g><g transform="translate(-102,10) scale(1,1)"><path d="M 128 384 L 128 406 L 168.578125 406 L 179.578125 395 L 179.578125 384 L 128 384" fill="#ffffff" stroke="none"/></g><g transform="translate(-102,10) scale(1,1)"><path d="M 128 384 L 128 406 L 168.578125 406 L 179.578125 395 L 179.578125 384 L 128 384 L 128 384" fill="none" stroke="#000000" stroke-miterlimit="10"/></g><g transform="translate(-102,10) scale(1,1)"><g><path fill="none" stroke="none"/><text fill="#000000" font-family="Arial" font-size="13px" font-style="normal" font-weight="bold" stroke="none" text-decoration="none" x="131.57177734375" y="399.5">loop</text></g></g><g transform="translate(-102,10) scale(1,1)"><g><path fill="none" stroke="none"/><text fill="#000000" font-family="Arial" font-size="13px" font-style="normal" font-weight="normal" stroke="none" text-decoration="none" x="147.5" y="432.5">[finchè non vengono inseriti dati validi]</text></g></g><g transform="translate(-102,10) scale(1,1)"><path d="M 200 600 L 640 600 L 640 760 L 200 760 L 200 600" fill="none" stroke="#000000" stroke-miterlimit="10"/></g><g transform="translate(-102,10) scale(1,1)"><path d="M 200 600 L 200 622 L 234.07177734375 622 L 245.07177734375 611 L 245.07177734375 600 L 200 600" fill="#ffffff" stroke="none"/></g><g transform="translate(-102,10) scale(1,1)"><path d="M 200 600 L 200 622 L 234.07177734375 622 L 245.07177734375 611 L 245.07177734375 600 L 200 600 L 200 600" fill="none" stroke="#000000" stroke-miterlimit="10"/></g><g transform="translate(-102,10) scale(1,1)"><g><path fill="none" stroke="none"/><text fill="#000000" font-family="Arial" font-size="13px" font-style="normal" font-weight="bold" stroke="none" text-decoration="none" x="203.930419921875" y="615.5">opt</text></g></g><g transform="translate(-102,10) scale(1,1)"><g><path fill="none" stroke="none"/><text fill="#000000" font-family="Arial" font-size="13px" font-style="normal" font-weight="normal" stroke="none" text-decoration="none" x="219.5" y="648.5">[farmaci non disponibili]</text></g></g><g transform="translate(-102,10) scale(1,1)"><path d="M 192 888 L 792 888 L 792 1088 L 192 1088 L 192 888" fill="none" stroke="#000000" stroke-miterlimit="10"/></g><g transform="translate(-102,10) scale(1,1)"><path d="M 192 888 L 192 910 L 226.07177734375 910 L 237.07177734375 899 L 237.07177734375 888 L 192 888" fill="#ffffff" stroke="none"/></g><g transform="translate(-102,10) scale(1,1)"><path d="M 192 888 L 192 910 L 226.07177734375 910 L 237.07177734375 899 L 237.07177734375 888 L 192 888 L 192 888" fill="none" stroke="#000000" stroke-miterlimit="10"/></g><g transform="translate(-102,10) scale(1,1)"><g><path fill="none" stroke="none"/><text fill="#000000" font-family="Arial" font-size="13px" font-style="normal" font-weight="bold" stroke="none" text-decoration="none" x="195.930419921875" y="903.5">opt</text></g></g><g transform="translate(-102,10) scale(1,1)"><g><path fill="none" stroke="none"/><text fill="#000000" font-family="Arial" font-size="13px" font-style="normal" font-weight="normal" stroke="none" text-decoration="none" x="211.5" y="936.5">[(in attesa disponibilità E nuova data&lt;data prima disponibilità) O (nuova data &lt; data corrente-2)]</text></g></g></g></svg>