<?xml version="1.0" encoding="UTF-8" standalone="no"?><svg xmlns="http://www.w3.org/2000/svg" xmlns:xlink="http://www.w3.org/1999/xlink" height="1084" version="1.1" width="1172.65625"><defs/><g><g transform="translate(2,2) scale(1,1)"><path d="M 8 8 L 1152 8 L 1152 1072 L 8 1072 L 8 8" fill="none" stroke="#000000" stroke-miterlimit="10"/></g><g transform="translate(2,2) scale(1,1)"><path d="M 8 8 L 8 30 L 143.21533203125 30 L 154.21533203125 19 L 154.21533203125 8 L 8 8" fill="#ffffff" stroke="none"/></g><g transform="translate(2,2) scale(1,1)"><path d="M 8 8 L 8 30 L 143.21533203125 30 L 154.21533203125 19 L 154.21533203125 8 L 8 8 L 8 8" fill="none" stroke="#000000" stroke-miterlimit="10"/></g><g transform="translate(2,2) scale(1,1)"><g><path fill="none" stroke="none"/><text fill="#000000" font-family="Arial" font-size="13px" font-style="normal" font-weight="normal" stroke="none" text-decoration="none" x="32.72998046875" y="23.5">ModificaPassword</text></g></g><g transform="translate(2,2) scale(1,1)"><g><path fill="none" stroke="none"/><text fill="#000000" font-family="Arial" font-size="13px" font-style="normal" font-weight="bold" stroke="none" text-decoration="none" x="12.279541015625" y="23.5">sd</text></g></g><g transform="translate(2,2) scale(1,1)"><path d="M 59.69224698153409 47.3 C 59.69224698153409 43.82060576 62.57064870371591 41 66.121337890625 41 C 69.6720270775341 41 72.5504287997159 43.82060576 72.5504287997159 47.3 C 72.5504287997159 50.779394239999995 69.6720270775341 53.6 66.121337890625 53.6 C 62.57064870371591 53.6 59.69224698153409 50.779394239999995 59.69224698153409 47.3 Z" fill="#ffffff" stroke="none"/></g><g transform="translate(2,2) scale(1,1)"><path d="M 59.69224698153409 47.3 C 59.69224698153409 43.82060576 62.57064870371591 41 66.121337890625 41 C 69.6720270775341 41 72.5504287997159 43.82060576 72.5504287997159 47.3 C 72.5504287997159 50.779394239999995 69.6720270775341 53.6 66.121337890625 53.6 C 62.57064870371591 53.6 59.69224698153409 50.779394239999995 59.69224698153409 47.3 Z" fill="none" stroke="#000000" stroke-miterlimit="10"/></g><g transform="translate(2,2) scale(1,1)"><path d="M 66.121337890625 53.6 L 66.121337890625 66.4" fill="none" stroke="#000000" stroke-miterlimit="10"/></g><g transform="translate(2,2) scale(1,1)"><path d="M 59.314065163352275 58.4 L 72.92861061789773 58.4" fill="none" stroke="#000000" stroke-miterlimit="10"/></g><g transform="translate(2,2) scale(1,1)"><path d="M 66.121337890625 66.4 L 56.66679243607955 79" fill="none" stroke="#000000" stroke-miterlimit="10"/></g><g transform="translate(2,2) scale(1,1)"><path d="M 66.121337890625 66.4 L 75.57588334517045 79" fill="none" stroke="#000000" stroke-miterlimit="10"/></g><g transform="translate(2,2) scale(1,1)"><g><path fill="none" stroke="none"/><text fill="#000000" font-family="Arial" font-size="13px" font-style="normal" font-weight="bold" stroke="none" text-decoration="none" x="36.5" y="97.5">: Persona</text></g></g><g transform="translate(2,2) scale(1,1)"><path d="M 67.5 105 L 67.5 1000" fill="none" stroke="#000000" stroke-dasharray="3" stroke-miterlimit="10"/></g><g transform="translate(2,2) scale(1,1)"><rect fill="#C0C0C0" height="39" opacity="0.2" stroke="none" width="280.84716796875" x="111" y="47"/></g><g transform="translate(2,2) scale(1,1)"><rect fill="#ffffff" height="39" stroke="none" width="280.84716796875" x="104" y="40"/></g><g transform="translate(2,2) scale(1,1)"><path d="M 104 40 L 384.84716796875 40 L 384.84716796875 79 L 104 79 L 104 40 Z Z" fill="none" stroke="#000000" stroke-miterlimit="10"/></g><g transform="translate(2,2) scale(1,1)"><g><path fill="none" stroke="none"/><text fill="#000000" font-family="Arial" font-size="13px" font-style="normal" font-weight="normal" stroke="none" text-decoration="none" x="209.36865234375" y="55.5">«Boundary»</text></g></g><g transform="translate(2,2) scale(1,1)"><g><path fill="none" stroke="none"/><text fill="#000000" font-family="Arial" font-size="13px" font-style="normal" font-weight="bold" stroke="none" text-decoration="none" x="140.5791015625" y="70.5">InterfacciaPrincipale[tipo=Utente]</text></g></g><g transform="translate(2,2) scale(1,1)"><path d="M 245.5 80 L 245.5 624" fill="none" stroke="#000000" stroke-dasharray="3" stroke-miterlimit="10"/></g><g transform="translate(2,2) scale(1,1)"><rect fill="#C0C0C0" height="39" opacity="0.2" stroke="none" width="187.314453125" x="279" y="179"/></g><g transform="translate(2,2) scale(1,1)"><rect fill="#ffffff" height="39" stroke="none" width="187.314453125" x="272" y="172"/></g><g transform="translate(2,2) scale(1,1)"><path d="M 272 172 L 459.314453125 172 L 459.314453125 211 L 272 211 L 272 172 Z Z" fill="none" stroke="#000000" stroke-miterlimit="10"/></g><g transform="translate(2,2) scale(1,1)"><g><path fill="none" stroke="none"/><text fill="#000000" font-family="Arial" font-size="13px" font-style="normal" font-weight="normal" stroke="none" text-decoration="none" x="330.602294921875" y="187.5">«Boundary»</text></g></g><g transform="translate(2,2) scale(1,1)"><g><path fill="none" stroke="none"/><text fill="#000000" font-family="Arial" font-size="13px" font-style="normal" font-weight="bold" stroke="none" text-decoration="none" x="285.486328125" y="202.5">ModuloModificaPassword</text></g></g><g transform="translate(2,2) scale(1,1)"><path d="M 366.5 212 L 366.5 1048" fill="none" stroke="#000000" stroke-dasharray="3" stroke-miterlimit="10"/></g><g transform="translate(2,2) scale(1,1)"><rect fill="#C0C0C0" height="39" opacity="0.2" stroke="none" width="182.26806640625" x="535" y="123"/></g><g transform="translate(2,2) scale(1,1)"><rect fill="#ffffff" height="39" stroke="none" width="182.26806640625" x="528" y="116"/></g><g transform="translate(2,2) scale(1,1)"><path d="M 528 116 L 710.26806640625 116 L 710.26806640625 155 L 528 155 L 528 116 Z Z" fill="none" stroke="#000000" stroke-miterlimit="10"/></g><g transform="translate(2,2) scale(1,1)"><g><path fill="none" stroke="none"/><text fill="#000000" font-family="Arial" font-size="13px" font-style="normal" font-weight="normal" stroke="none" text-decoration="none" x="590.950439453125" y="131.5">«Control»</text></g></g><g transform="translate(2,2) scale(1,1)"><g><path fill="none" stroke="none"/><text fill="#000000" font-family="Arial" font-size="13px" font-style="normal" font-weight="bold" stroke="none" text-decoration="none" x="537.5" y="146.5">GestoreModificaPassword</text></g></g><g transform="translate(2,2) scale(1,1)"><path d="M 620.5 156 L 620.5 957" fill="none" stroke="#000000" stroke-dasharray="3" stroke-miterlimit="10"/></g><g transform="translate(2,2) scale(1,1)"><rect fill="#C0C0C0" height="39" opacity="0.2" stroke="none" width="112.1962890625" x="439" y="411"/></g><g transform="translate(2,2) scale(1,1)"><rect fill="#ffffff" height="39" stroke="none" width="112.1962890625" x="432" y="404"/></g><g transform="translate(2,2) scale(1,1)"><path d="M 432 404 L 544.1962890625 404 L 544.1962890625 443 L 432 443 L 432 404 Z Z" fill="none" stroke="#000000" stroke-miterlimit="10"/></g><g transform="translate(2,2) scale(1,1)"><g><path fill="none" stroke="none"/><text fill="#000000" font-family="Arial" font-size="13px" font-style="normal" font-weight="normal" stroke="none" text-decoration="none" x="453.043212890625" y="419.5">«Boundary»</text></g></g><g transform="translate(2,2) scale(1,1)"><g><path fill="none" stroke="none"/><text fill="#000000" font-family="Arial" font-size="13px" font-style="normal" font-weight="bold" stroke="none" text-decoration="none" x="441.5" y="434.5">PannelloErrore</text></g></g><g transform="translate(2,2) scale(1,1)"><path d="M 489.5 444 L 489.5 536" fill="none" stroke="#000000" stroke-dasharray="3" stroke-miterlimit="10"/></g><g transform="translate(2,2) scale(1,1)"><rect fill="#C0C0C0" height="39" opacity="0.2" stroke="none" width="108.5654296875" x="823" y="47"/></g><g transform="translate(2,2) scale(1,1)"><rect fill="#ffffff" height="39" stroke="none" width="108.5654296875" x="816" y="40"/></g><g transform="translate(2,2) scale(1,1)"><path d="M 816 40 L 924.5654296875 40 L 924.5654296875 79 L 816 79 L 816 40 Z Z" fill="none" stroke="#000000" stroke-miterlimit="10"/></g><g transform="translate(2,2) scale(1,1)"><g><path fill="none" stroke="none"/><text fill="#000000" font-family="Arial" font-size="13px" font-style="normal" font-weight="normal" stroke="none" text-decoration="none" x="835.227783203125" y="55.5">«Boundary»</text></g></g><g transform="translate(2,2) scale(1,1)"><g><path fill="none" stroke="none"/><text fill="#000000" font-family="Arial" font-size="13px" font-style="normal" font-weight="bold" stroke="none" text-decoration="none" x="825.5" y="70.5">DBMSDaemon</text></g></g><g transform="translate(2,2) scale(1,1)"><path d="M 871.5 80 L 871.5 942" fill="none" stroke="#000000" stroke-dasharray="3" stroke-miterlimit="10"/></g><g transform="translate(2,2) scale(1,1)"><path d="M 1069.899034090909 47.3 C 1069.899034090909 43.82060576 1072.777435813091 41 1076.328125 41 C 1079.878814186909 41 1082.757215909091 43.82060576 1082.757215909091 47.3 C 1082.757215909091 50.779394239999995 1079.878814186909 53.6 1076.328125 53.6 C 1072.777435813091 53.6 1069.899034090909 50.779394239999995 1069.899034090909 47.3 Z" fill="#ffffff" stroke="none"/></g><g transform="translate(2,2) scale(1,1)"><path d="M 1069.899034090909 47.3 C 1069.899034090909 43.82060576 1072.777435813091 41 1076.328125 41 C 1079.878814186909 41 1082.757215909091 43.82060576 1082.757215909091 47.3 C 1082.757215909091 50.779394239999995 1079.878814186909 53.6 1076.328125 53.6 C 1072.777435813091 53.6 1069.899034090909 50.779394239999995 1069.899034090909 47.3 Z" fill="none" stroke="#000000" stroke-miterlimit="10"/></g><g transform="translate(2,2) scale(1,1)"><path d="M 1076.328125 53.6 L 1076.328125 66.4" fill="none" stroke="#000000" stroke-miterlimit="10"/></g><g transform="translate(2,2) scale(1,1)"><path d="M 1069.5208522727273 58.4 L 1083.1353977272727 58.4" fill="none" stroke="#000000" stroke-miterlimit="10"/></g><g transform="translate(2,2) scale(1,1)"><path d="M 1076.328125 66.4 L 1066.8735795454545 79" fill="none" stroke="#000000" stroke-miterlimit="10"/></g><g transform="translate(2,2) scale(1,1)"><path d="M 1076.328125 66.4 L 1085.7826704545455 79" fill="none" stroke="#000000" stroke-miterlimit="10"/></g><g transform="translate(2,2) scale(1,1)"><g><path fill="none" stroke="none"/><text fill="#000000" font-family="Arial" font-size="13px" font-style="normal" font-weight="bold" stroke="none" text-decoration="none" x="1022.8681640625" y="97.5">: DBMS Farmacie</text></g></g><g transform="translate(2,2) scale(1,1)"><path d="M 1077.5 105 L 1077.5 666" fill="none" stroke="#000000" stroke-dasharray="3" stroke-miterlimit="10"/></g><g transform="translate(2,2) scale(1,1)"><rect fill="#C0C0C0" height="39" opacity="0.2" stroke="none" width="112.1962890625" x="431" y="700"/></g><g transform="translate(2,2) scale(1,1)"><rect fill="#ffffff" height="39" stroke="none" width="112.1962890625" x="424" y="693"/></g><g transform="translate(2,2) scale(1,1)"><path d="M 424 693 L 536.1962890625 693 L 536.1962890625 732 L 424 732 L 424 693 Z Z" fill="none" stroke="#000000" stroke-miterlimit="10"/></g><g transform="translate(2,2) scale(1,1)"><g><path fill="none" stroke="none"/><text fill="#000000" font-family="Arial" font-size="13px" font-style="normal" font-weight="normal" stroke="none" text-decoration="none" x="445.043212890625" y="708.5">«Boundary»</text></g></g><g transform="translate(2,2) scale(1,1)"><g><path fill="none" stroke="none"/><text fill="#000000" font-family="Arial" font-size="13px" font-style="normal" font-weight="bold" stroke="none" text-decoration="none" x="433.5" y="723.5">PannelloErrore</text></g></g><g transform="translate(2,2) scale(1,1)"><path d="M 481.5 733 L 481.5 802" fill="none" stroke="#000000" stroke-dasharray="3" stroke-miterlimit="10"/></g><g transform="translate(2,2) scale(1,1)"><rect fill="#C0C0C0" height="39" opacity="0.2" stroke="none" width="133.8544921875" x="151" y="899"/></g><g transform="translate(2,2) scale(1,1)"><rect fill="#ffffff" height="39" stroke="none" width="133.8544921875" x="144" y="892"/></g><g transform="translate(2,2) scale(1,1)"><path d="M 144 892 L 277.8544921875 892 L 277.8544921875 931 L 144 931 L 144 892 Z Z" fill="none" stroke="#000000" stroke-miterlimit="10"/></g><g transform="translate(2,2) scale(1,1)"><g><path fill="none" stroke="none"/><text fill="#000000" font-family="Arial" font-size="13px" font-style="normal" font-weight="normal" stroke="none" text-decoration="none" x="175.872314453125" y="907.5">«Boundary»</text></g></g><g transform="translate(2,2) scale(1,1)"><g><path fill="none" stroke="none"/><text fill="#000000" font-family="Arial" font-size="13px" font-style="normal" font-weight="bold" stroke="none" text-decoration="none" x="153.5" y="922.5">PannelloConferma</text></g></g><g transform="translate(2,2) scale(1,1)"><path d="M 211.5 932 L 211.5 1056" fill="none" stroke="#000000" stroke-dasharray="3" stroke-miterlimit="10"/></g><g transform="translate(2,2) scale(1,1)"><rect fill="#C0C0C0" height="39" opacity="0.2" stroke="none" width="65.97265625" x="719" y="47"/></g><g transform="translate(2,2) scale(1,1)"><rect fill="#ffffff" height="39" stroke="none" width="65.97265625" x="712" y="40"/></g><g transform="translate(2,2) scale(1,1)"><path d="M 712 40 L 777.97265625 40 L 777.97265625 79 L 712 79 L 712 40 Z Z" fill="none" stroke="#000000" stroke-miterlimit="10"/></g><g transform="translate(2,2) scale(1,1)"><g><path fill="none" stroke="none"/><text fill="#000000" font-family="Arial" font-size="13px" font-style="normal" font-weight="normal" stroke="none" text-decoration="none" x="721.5" y="55.5">«Entity»</text></g></g><g transform="translate(2,2) scale(1,1)"><g><path fill="none" stroke="none"/><text fill="#000000" font-family="Arial" font-size="13px" font-style="normal" font-weight="bold" stroke="none" text-decoration="none" x="724.7626953125" y="70.5">Utente</text></g></g><g transform="translate(2,2) scale(1,1)"><path d="M 745.5 80 L 745.5 258" fill="none" stroke="#000000" stroke-dasharray="3" stroke-miterlimit="10"/></g><g transform="translate(2,2) scale(1,1)"><path d="M 67 128 L 238 128" fill="none" stroke="#000000" stroke-miterlimit="10"/></g><g transform="translate(2,2) scale(1,1)"><path d="M 227.83732514237585 132.209517756016 L 238 128 L 227.83732514237585 123.79048224398402" fill="#000000" stroke="none"/></g><g transform="translate(2,2) scale(1,1)"><path d="M 227.83732514237585 132.209517756016 L 238 128 L 227.83732514237585 123.79048224398402 L 227.83732514237585 132.209517756016" fill="none" stroke="#000000" stroke-miterlimit="10"/></g><g transform="translate(2,2) scale(1,1)"><g><path fill="none" stroke="none"/><text fill="#000000" font-family="Arial" font-size="13px" font-style="normal" font-weight="normal" stroke="none" text-decoration="none" x="90.2763671875" y="122.5">1 : cliccaModificaPwd</text></g></g><g transform="translate(2,2) scale(1,1)"><rect fill="#ffffff" height="28" stroke="none" width="13" x="238" y="128"/></g><g transform="translate(2,2) scale(1,1)"><path d="M 238 128 L 251 128 L 251 156 L 238 156 L 238 128 Z Z" fill="none" stroke="#000000" stroke-miterlimit="10"/></g><g transform="translate(2,2) scale(1,1)"><path d="M 251 136 L 528 136" fill="none" stroke="#000000" stroke-dasharray="3" stroke-miterlimit="10"/></g><g transform="translate(2,2) scale(1,1)"><path d="M 517.8373251423759 140.209517756016 L 528 136 L 517.8373251423758 131.790482243984" fill="none" stroke="#000000" stroke-miterlimit="10"/></g><g transform="translate(2,2) scale(1,1)"><g><path fill="none" stroke="none"/><text fill="#000000" font-family="Arial" font-size="13px" font-style="normal" font-weight="normal" stroke="none" text-decoration="none" x="380.114990234375" y="130.5">2 : </text></g></g><g transform="translate(2,2) scale(1,1)"><g><path fill="none" stroke="none"/><text fill="#000000" font-family="Arial" font-size="13px" font-style="normal" font-weight="normal" stroke="none" text-decoration="none" x="363.5" y="115.5">«create»</text></g></g><g transform="translate(2,2) scale(1,1)"><path d="M 620 192 L 459.314453125 192" fill="none" stroke="#000000" stroke-dasharray="3" stroke-miterlimit="10"/></g><g transform="translate(2,2) scale(1,1)"><path d="M 469.47712798262415 187.790482243984 L 459.314453125 192 L 469.47712798262415 196.209517756016" fill="none" stroke="#000000" stroke-miterlimit="10"/></g><g transform="translate(2,2) scale(1,1)"><g><path fill="none" stroke="none"/><text fill="#000000" font-family="Arial" font-size="13px" font-style="normal" font-weight="normal" stroke="none" text-decoration="none" x="529.114990234375" y="206.5">3 : </text></g></g><g transform="translate(2,2) scale(1,1)"><g><path fill="none" stroke="none"/><text fill="#000000" font-family="Arial" font-size="13px" font-style="normal" font-weight="normal" stroke="none" text-decoration="none" x="512.5" y="221.5">«create»</text></g></g><g transform="translate(2,2) scale(1,1)"><path d="M 620 208 L 738 208" fill="none" stroke="#000000" stroke-miterlimit="10"/></g><g transform="translate(2,2) scale(1,1)"><path d="M 727.8373251423759 212.209517756016 L 738 208 L 727.8373251423758 203.790482243984" fill="#000000" stroke="none"/></g><g transform="translate(2,2) scale(1,1)"><path d="M 727.8373251423759 212.209517756016 L 738 208 L 727.8373251423758 203.790482243984 L 727.8373251423759 212.209517756016" fill="none" stroke="#000000" stroke-miterlimit="10"/></g><g transform="translate(2,2) scale(1,1)"><g><path fill="none" stroke="none"/><text fill="#000000" font-family="Arial" font-size="13px" font-style="normal" font-weight="normal" stroke="none" text-decoration="none" x="642.40087890625" y="202.5">4 : getMail( )</text></g></g><g transform="translate(2,2) scale(1,1)"><rect fill="#ffffff" height="28" stroke="none" width="13" x="738" y="208"/></g><g transform="translate(2,2) scale(1,1)"><path d="M 738 208 L 751 208 L 751 236 L 738 236 L 738 208 Z Z" fill="none" stroke="#000000" stroke-miterlimit="10"/></g><g transform="translate(2,2) scale(1,1)"><path d="M 738 228 L 620 228" fill="none" stroke="#000000" stroke-dasharray="3" stroke-miterlimit="10"/></g><g transform="translate(2,2) scale(1,1)"><path d="M 630.1626748576241 223.790482243984 L 620 228 L 630.1626748576241 232.209517756016" fill="none" stroke="#000000" stroke-miterlimit="10"/></g><g transform="translate(2,2) scale(1,1)"><g><path fill="none" stroke="none"/><text fill="#000000" font-family="Arial" font-size="13px" font-style="normal" font-weight="normal" stroke="none" text-decoration="none" x="656.57177734375" y="242.5">5 : mail</text></g></g><g transform="translate(2,2) scale(1,1)"><path d="M 67 296 L 359 296" fill="none" stroke="#000000" stroke-miterlimit="10"/></g><g transform="translate(2,2) scale(1,1)"><path d="M 348.83732514237585 300.209517756016 L 359 296 L 348.83732514237585 291.790482243984" fill="#000000" stroke="none"/></g><g transform="translate(2,2) scale(1,1)"><path d="M 348.83732514237585 300.209517756016 L 359 296 L 348.83732514237585 291.790482243984 L 348.83732514237585 300.209517756016" fill="none" stroke="#000000" stroke-miterlimit="10"/></g><g transform="translate(2,2) scale(1,1)"><g><path fill="none" stroke="none"/><text fill="#000000" font-family="Arial" font-size="13px" font-style="normal" font-weight="normal" stroke="none" text-decoration="none" x="192.06005859375" y="271.5">6 : modificaPassword(</text><text fill="#000000" font-family="Arial" font-size="13px" font-style="normal" font-weight="normal" stroke="none" text-decoration="none" x="171.81103515625" y="284.5">old_pwd, new_pwd, re_pwd )</text></g></g><g transform="translate(2,2) scale(1,1)"><rect fill="#ffffff" height="28" stroke="none" width="13" x="359" y="296"/></g><g transform="translate(2,2) scale(1,1)"><path d="M 359 296 L 372 296 L 372 324 L 359 324 L 359 296 Z Z" fill="none" stroke="#000000" stroke-miterlimit="10"/></g><g transform="translate(2,2) scale(1,1)"><path d="M 67 328 L 359 328" fill="none" stroke="#000000" stroke-miterlimit="10"/></g><g transform="translate(2,2) scale(1,1)"><path d="M 348.83732514237585 332.209517756016 L 359 328 L 348.83732514237585 323.790482243984" fill="#000000" stroke="none"/></g><g transform="translate(2,2) scale(1,1)"><path d="M 348.83732514237585 332.209517756016 L 359 328 L 348.83732514237585 323.790482243984 L 348.83732514237585 332.209517756016" fill="none" stroke="#000000" stroke-miterlimit="10"/></g><g transform="translate(2,2) scale(1,1)"><g><path fill="none" stroke="none"/><text fill="#000000" font-family="Arial" font-size="13px" font-style="normal" font-weight="normal" stroke="none" text-decoration="none" x="176.39453125" y="322.5">7 : conferma</text></g></g><g transform="translate(2,2) scale(1,1)"><rect fill="#ffffff" height="28" stroke="none" width="13" x="359" y="328"/></g><g transform="translate(2,2) scale(1,1)"><path d="M 359 328 L 372 328 L 372 356 L 359 356 L 359 328 Z Z" fill="none" stroke="#000000" stroke-miterlimit="10"/></g><g transform="translate(2,2) scale(1,1)"><path d="M 372 344 L 613 344" fill="none" stroke="#000000" stroke-miterlimit="10"/></g><g transform="translate(2,2) scale(1,1)"><path d="M 602.8373251423759 348.209517756016 L 613 344 L 602.8373251423758 339.790482243984" fill="#000000" stroke="none"/></g><g transform="translate(2,2) scale(1,1)"><path d="M 602.8373251423759 348.209517756016 L 613 344 L 602.8373251423758 339.790482243984 L 602.8373251423759 348.209517756016" fill="none" stroke="#000000" stroke-miterlimit="10"/></g><g transform="translate(2,2) scale(1,1)"><g><path fill="none" stroke="none"/><text fill="#000000" font-family="Arial" font-size="13px" font-style="normal" font-weight="normal" stroke="none" text-decoration="none" x="423.56005859375" y="320.5">8 : modificaPassword(</text><text fill="#000000" font-family="Arial" font-size="13px" font-style="normal" font-weight="normal" stroke="none" text-decoration="none" x="403.31103515625" y="333.5">old_pwd, new_pwd, re_pwd )</text></g></g><g transform="translate(2,2) scale(1,1)"><rect fill="#ffffff" height="536" stroke="none" width="13" x="613" y="344"/></g><g transform="translate(2,2) scale(1,1)"><path d="M 613 344 L 626 344 L 626 880 L 613 880 L 613 344 Z Z" fill="none" stroke="#000000" stroke-miterlimit="10"/></g><g transform="translate(2,2) scale(1,1)"><path d="M 626 352 L 656 352 L 656 372 L 633 372" fill="none" stroke="#000000" stroke-miterlimit="10"/></g><g transform="translate(2,2) scale(1,1)"><path d="M 643.1626748576241 367.790482243984 L 633 372 L 643.1626748576241 376.209517756016" fill="#000000" stroke="none"/></g><g transform="translate(2,2) scale(1,1)"><path d="M 643.1626748576241 367.790482243984 L 633 372 L 643.1626748576241 376.209517756016 L 643.1626748576241 367.790482243984" fill="none" stroke="#000000" stroke-miterlimit="10"/></g><g transform="translate(2,2) scale(1,1)"><g><path fill="none" stroke="none"/><text fill="#000000" font-family="Arial" font-size="13px" font-style="normal" font-weight="normal" stroke="none" text-decoration="none" x="662.5" y="365.5">9 : controllaPassword</text></g></g><g transform="translate(2,2) scale(1,1)"><rect fill="#ffffff" height="28" stroke="none" width="13" x="620" y="372"/></g><g transform="translate(2,2) scale(1,1)"><path d="M 620 372 L 633 372 L 633 400 L 620 400 L 620 372 Z Z" fill="none" stroke="#000000" stroke-miterlimit="10"/></g><g transform="translate(2,2) scale(1,1)"><path d="M 613 424 L 544.1962890625 424" fill="none" stroke="#000000" stroke-dasharray="3" stroke-miterlimit="10"/></g><g transform="translate(2,2) scale(1,1)"><path d="M 554.3589639201241 419.790482243984 L 544.1962890625 424 L 554.3589639201241 428.209517756016" fill="none" stroke="#000000" stroke-miterlimit="10"/></g><g transform="translate(2,2) scale(1,1)"><g><path fill="none" stroke="none"/><text fill="#000000" font-family="Arial" font-size="13px" font-style="normal" font-weight="normal" stroke="none" text-decoration="none" x="564.5" y="438.5">10 : </text></g></g><g transform="translate(2,2) scale(1,1)"><g><path fill="none" stroke="none"/><text fill="#000000" font-family="Arial" font-size="13px" font-style="normal" font-weight="normal" stroke="none" text-decoration="none" x="551.5" y="453.5">«create»</text></g></g><g transform="translate(2,2) scale(1,1)"><path d="M 67 469 L 482 469" fill="none" stroke="#000000" stroke-miterlimit="10"/></g><g transform="translate(2,2) scale(1,1)"><path d="M 471.83732514237585 473.209517756016 L 482 469 L 471.83732514237585 464.790482243984" fill="#000000" stroke="none"/></g><g transform="translate(2,2) scale(1,1)"><path d="M 471.83732514237585 473.209517756016 L 482 469 L 471.83732514237585 464.790482243984 L 471.83732514237585 473.209517756016" fill="none" stroke="#000000" stroke-miterlimit="10"/></g><g transform="translate(2,2) scale(1,1)"><path d="M 479 526 L 499 546" fill="none" stroke="#000000" stroke-miterlimit="10"/></g><g transform="translate(2,2) scale(1,1)"><path d="M 499 526 L 479 546" fill="none" stroke="#000000" stroke-miterlimit="10"/></g><g transform="translate(2,2) scale(1,1)"><g><path fill="none" stroke="none"/><text fill="#000000" font-family="Arial" font-size="13px" font-style="normal" font-weight="normal" stroke="none" text-decoration="none" x="171.1796875" y="457.5">11 : conferma</text></g></g><g transform="translate(2,2) scale(1,1)"><g><path fill="none" stroke="none"/><text fill="#000000" font-family="Arial" font-size="13px" font-style="normal" font-weight="normal" stroke="none" text-decoration="none" x="95.5" y="457.5">«destroy»</text></g></g><g transform="translate(2,2) scale(1,1)"><rect fill="#ffffff" height="28" stroke="none" width="13" x="482" y="469"/></g><g transform="translate(2,2) scale(1,1)"><path d="M 482 469 L 495 469 L 495 497 L 482 497 L 482 469 Z Z" fill="none" stroke="#000000" stroke-miterlimit="10"/></g><g transform="translate(2,2) scale(1,1)"><path d="M 1077 652 L 877 652" fill="none" stroke="#000000" stroke-dasharray="3" stroke-miterlimit="10"/></g><g transform="translate(2,2) scale(1,1)"><path d="M 887.1626748576241 647.790482243984 L 877 652 L 887.1626748576241 656.209517756016" fill="none" stroke="#000000" stroke-miterlimit="10"/></g><g transform="translate(2,2) scale(1,1)"><g><path fill="none" stroke="none"/><text fill="#000000" font-family="Arial" font-size="13px" font-style="normal" font-weight="normal" stroke="none" text-decoration="none" x="949.277099609375" y="666.5">14 : esito</text></g></g><g transform="translate(2,2) scale(1,1)"><path d="M 877 616 L 1070 616" fill="none" stroke="#000000" stroke-miterlimit="10"/></g><g transform="translate(2,2) scale(1,1)"><path d="M 1059.837325142376 620.209517756016 L 1070 616 L 1059.837325142376 611.790482243984" fill="#000000" stroke="none"/></g><g transform="translate(2,2) scale(1,1)"><path d="M 1059.837325142376 620.209517756016 L 1070 616 L 1059.837325142376 611.790482243984 L 1059.837325142376 620.209517756016" fill="none" stroke="#000000" stroke-miterlimit="10"/></g><g transform="translate(2,2) scale(1,1)"><g><path fill="none" stroke="none"/><text fill="#000000" font-family="Arial" font-size="13px" font-style="normal" font-weight="normal" stroke="none" text-decoration="none" x="897.221435546875" y="593.5">13 : modificaPassword(mail,</text><text fill="#000000" font-family="Arial" font-size="13px" font-style="normal" font-weight="normal" stroke="none" text-decoration="none" x="921.04736328125" y="606.5">old_pwd, new_pwd)</text></g></g><g transform="translate(2,2) scale(1,1)"><rect fill="#ffffff" height="28" stroke="none" width="13" x="1070" y="616"/></g><g transform="translate(2,2) scale(1,1)"><path d="M 1070 616 L 1083 616 L 1083 644 L 1070 644 L 1070 616 Z Z" fill="none" stroke="#000000" stroke-miterlimit="10"/></g><g transform="translate(2,2) scale(1,1)"><path d="M 626 600 L 864 600" fill="none" stroke="#000000" stroke-miterlimit="10"/></g><g transform="translate(2,2) scale(1,1)"><path d="M 853.8373251423759 604.209517756016 L 864 600 L 853.8373251423758 595.790482243984" fill="#000000" stroke="none"/></g><g transform="translate(2,2) scale(1,1)"><path d="M 853.8373251423759 604.209517756016 L 864 600 L 853.8373251423758 595.790482243984 L 853.8373251423759 604.209517756016" fill="none" stroke="#000000" stroke-miterlimit="10"/></g><g transform="translate(2,2) scale(1,1)"><g><path fill="none" stroke="none"/><text fill="#000000" font-family="Arial" font-size="13px" font-style="normal" font-weight="normal" stroke="none" text-decoration="none" x="663.221435546875" y="577.5">12 : modificaPassword(mail,</text><text fill="#000000" font-family="Arial" font-size="13px" font-style="normal" font-weight="normal" stroke="none" text-decoration="none" x="687.04736328125" y="590.5">old_pwd, new_pwd)</text></g></g><g transform="translate(2,2) scale(1,1)"><rect fill="#ffffff" height="72" stroke="none" width="13" x="864" y="600"/></g><g transform="translate(2,2) scale(1,1)"><path d="M 864 600 L 877 600 L 877 672 L 864 672 L 864 600 Z Z" fill="none" stroke="#000000" stroke-miterlimit="10"/></g><g transform="translate(2,2) scale(1,1)"><path d="M 864 664 L 626 664" fill="none" stroke="#000000" stroke-dasharray="3" stroke-miterlimit="10"/></g><g transform="translate(2,2) scale(1,1)"><path d="M 636.1626748576241 659.790482243984 L 626 664 L 636.1626748576241 668.209517756016" fill="none" stroke="#000000" stroke-miterlimit="10"/></g><g transform="translate(2,2) scale(1,1)"><g><path fill="none" stroke="none"/><text fill="#000000" font-family="Arial" font-size="13px" font-style="normal" font-weight="normal" stroke="none" text-decoration="none" x="717.5" y="678.5">15 : esito</text></g></g><g transform="translate(2,2) scale(1,1)"><path d="M 613 713 L 536.1962890625 713" fill="none" stroke="#000000" stroke-dasharray="3" stroke-miterlimit="10"/></g><g transform="translate(2,2) scale(1,1)"><path d="M 546.3589639201241 708.790482243984 L 536.1962890625 713 L 546.3589639201241 717.209517756016" fill="none" stroke="#000000" stroke-miterlimit="10"/></g><g transform="translate(2,2) scale(1,1)"><g><path fill="none" stroke="none"/><text fill="#000000" font-family="Arial" font-size="13px" font-style="normal" font-weight="normal" stroke="none" text-decoration="none" x="560.5" y="727.5">16 : </text></g></g><g transform="translate(2,2) scale(1,1)"><g><path fill="none" stroke="none"/><text fill="#000000" font-family="Arial" font-size="13px" font-style="normal" font-weight="normal" stroke="none" text-decoration="none" x="547.5" y="742.5">«create»</text></g></g><g transform="translate(2,2) scale(1,1)"><path d="M 67 760 L 474 760" fill="none" stroke="#000000" stroke-miterlimit="10"/></g><g transform="translate(2,2) scale(1,1)"><path d="M 463.83732514237585 764.209517756016 L 474 760 L 463.83732514237585 755.790482243984" fill="#000000" stroke="none"/></g><g transform="translate(2,2) scale(1,1)"><path d="M 463.83732514237585 764.209517756016 L 474 760 L 463.83732514237585 755.790482243984 L 463.83732514237585 764.209517756016" fill="none" stroke="#000000" stroke-miterlimit="10"/></g><g transform="translate(2,2) scale(1,1)"><path d="M 471 792 L 491 812" fill="none" stroke="#000000" stroke-miterlimit="10"/></g><g transform="translate(2,2) scale(1,1)"><path d="M 491 792 L 471 812" fill="none" stroke="#000000" stroke-miterlimit="10"/></g><g transform="translate(2,2) scale(1,1)"><g><path fill="none" stroke="none"/><text fill="#000000" font-family="Arial" font-size="13px" font-style="normal" font-weight="normal" stroke="none" text-decoration="none" x="230.447265625" y="754.5">17 : conferma</text></g></g><g transform="translate(2,2) scale(1,1)"><g><path fill="none" stroke="none"/><text fill="#000000" font-family="Arial" font-size="13px" font-style="normal" font-weight="normal" stroke="none" text-decoration="none" x="241.5" y="739.5">«destroy»</text></g></g><g transform="translate(2,2) scale(1,1)"><rect fill="#ffffff" height="28" stroke="none" width="13" x="474" y="760"/></g><g transform="translate(2,2) scale(1,1)"><path d="M 474 760 L 487 760 L 487 788 L 474 788 L 474 760 Z Z" fill="none" stroke="#000000" stroke-miterlimit="10"/></g><g transform="translate(2,2) scale(1,1)"><path d="M 626 872 L 656 872 L 656 892 L 626 892" fill="none" stroke="#000000" stroke-miterlimit="10"/></g><g transform="translate(2,2) scale(1,1)"><path d="M 636.1626748576241 887.790482243984 L 626 892 L 636.1626748576241 896.209517756016" fill="#000000" stroke="none"/></g><g transform="translate(2,2) scale(1,1)"><path d="M 636.1626748576241 887.790482243984 L 626 892 L 636.1626748576241 896.209517756016 L 636.1626748576241 887.790482243984" fill="none" stroke="#000000" stroke-miterlimit="10"/></g><g transform="translate(2,2) scale(1,1)"><path d="M 610 947 L 630 967" fill="none" stroke="#000000" stroke-miterlimit="10"/></g><g transform="translate(2,2) scale(1,1)"><path d="M 630 947 L 610 967" fill="none" stroke="#000000" stroke-miterlimit="10"/></g><g transform="translate(2,2) scale(1,1)"><g><path fill="none" stroke="none"/><text fill="#000000" font-family="Arial" font-size="13px" font-style="normal" font-weight="normal" stroke="none" text-decoration="none" x="661.5" y="885.5">18 : </text></g></g><g transform="translate(2,2) scale(1,1)"><g><path fill="none" stroke="none"/><text fill="#000000" font-family="Arial" font-size="13px" font-style="normal" font-weight="normal" stroke="none" text-decoration="none" x="685.5" y="885.5">«destroy»</text></g></g><g transform="translate(2,2) scale(1,1)"><rect fill="#ffffff" height="28" stroke="none" width="13" x="613" y="892"/></g><g transform="translate(2,2) scale(1,1)"><path d="M 613 892 L 626 892 L 626 920 L 613 920 L 613 892 Z Z" fill="none" stroke="#000000" stroke-miterlimit="10"/></g><g transform="translate(2,2) scale(1,1)"><path d="M 613 912 L 277.8544921875 912" fill="none" stroke="#000000" stroke-dasharray="3" stroke-miterlimit="10"/></g><g transform="translate(2,2) scale(1,1)"><path d="M 288.01716704512415 907.790482243984 L 277.8544921875 912 L 288.01716704512415 916.209517756016" fill="none" stroke="#000000" stroke-miterlimit="10"/></g><g transform="translate(2,2) scale(1,1)"><g><path fill="none" stroke="none"/><text fill="#000000" font-family="Arial" font-size="13px" font-style="normal" font-weight="normal" stroke="none" text-decoration="none" x="431.5" y="926.5">19 : </text></g></g><g transform="translate(2,2) scale(1,1)"><g><path fill="none" stroke="none"/><text fill="#000000" font-family="Arial" font-size="13px" font-style="normal" font-weight="normal" stroke="none" text-decoration="none" x="418.5" y="941.5">«create»</text></g></g><g transform="translate(2,2) scale(1,1)"><path d="M 67 960 L 204 960" fill="none" stroke="#000000" stroke-miterlimit="10"/></g><g transform="translate(2,2) scale(1,1)"><path d="M 193.83732514237585 964.209517756016 L 204 960 L 193.83732514237585 955.790482243984" fill="#000000" stroke="none"/></g><g transform="translate(2,2) scale(1,1)"><path d="M 193.83732514237585 964.209517756016 L 204 960 L 193.83732514237585 955.790482243984 L 193.83732514237585 964.209517756016" fill="none" stroke="#000000" stroke-miterlimit="10"/></g><g transform="translate(2,2) scale(1,1)"><path d="M 201 1046 L 221 1066" fill="none" stroke="#000000" stroke-miterlimit="10"/></g><g transform="translate(2,2) scale(1,1)"><path d="M 221 1046 L 201 1066" fill="none" stroke="#000000" stroke-miterlimit="10"/></g><g transform="translate(2,2) scale(1,1)"><g><path fill="none" stroke="none"/><text fill="#000000" font-family="Arial" font-size="13px" font-style="normal" font-weight="normal" stroke="none" text-decoration="none" x="95.312255859375" y="954.5">20 : conferma</text></g></g><g transform="translate(2,2) scale(1,1)"><g><path fill="none" stroke="none"/><text fill="#000000" font-family="Arial" font-size="13px" font-style="normal" font-weight="normal" stroke="none" text-decoration="none" x="106.5" y="939.5">«destroy»</text></g></g><g transform="translate(2,2) scale(1,1)"><rect fill="#ffffff" height="28" stroke="none" width="13" x="204" y="960"/></g><g transform="translate(2,2) scale(1,1)"><path d="M 204 960 L 217 960 L 217 988 L 204 988 L 204 960 Z Z" fill="none" stroke="#000000" stroke-miterlimit="10"/></g><g transform="translate(2,2) scale(1,1)"><path d="M 217 984 L 359 984" fill="none" stroke="#000000" stroke-miterlimit="10"/></g><g transform="translate(2,2) scale(1,1)"><path d="M 348.83732514237585 988.209517756016 L 359 984 L 348.83732514237585 979.790482243984" fill="#000000" stroke="none"/></g><g transform="translate(2,2) scale(1,1)"><path d="M 348.83732514237585 988.209517756016 L 359 984 L 348.83732514237585 979.790482243984 L 348.83732514237585 988.209517756016" fill="none" stroke="#000000" stroke-miterlimit="10"/></g><g transform="translate(2,2) scale(1,1)"><path d="M 356 1038 L 376 1058" fill="none" stroke="#000000" stroke-miterlimit="10"/></g><g transform="translate(2,2) scale(1,1)"><path d="M 376 1038 L 356 1058" fill="none" stroke="#000000" stroke-miterlimit="10"/></g><g transform="translate(2,2) scale(1,1)"><g><path fill="none" stroke="none"/><text fill="#000000" font-family="Arial" font-size="13px" font-style="normal" font-weight="normal" stroke="none" text-decoration="none" x="250.5" y="998.5">21 : </text></g></g><g transform="translate(2,2) scale(1,1)"><g><path fill="none" stroke="none"/><text fill="#000000" font-family="Arial" font-size="13px" font-style="normal" font-weight="normal" stroke="none" text-decoration="none" x="282.5" y="997.5">«destroy»</text></g></g><g transform="translate(2,2) scale(1,1)"><rect fill="#ffffff" height="28" stroke="none" width="13" x="359" y="984"/></g><g transform="translate(2,2) scale(1,1)"><path d="M 359 984 L 372 984 L 372 1012 L 359 1012 L 359 984 Z Z" fill="none" stroke="#000000" stroke-miterlimit="10"/></g><g transform="translate(2,2) scale(1,1)"><path d="M 16 248 L 1136 248 L 1136 848 L 16 848 L 16 248" fill="none" stroke="#000000" stroke-miterlimit="10"/></g><g transform="translate(2,2) scale(1,1)"><path d="M 16 248 L 16 270 L 150.5234375 270 L 161.5234375 259 L 161.5234375 248 L 16 248" fill="#ffffff" stroke="none"/></g><g transform="translate(2,2) scale(1,1)"><path d="M 16 248 L 16 270 L 150.5234375 270 L 161.5234375 259 L 161.5234375 248 L 16 248 L 16 248" fill="none" stroke="#000000" stroke-miterlimit="10"/></g><g transform="translate(2,2) scale(1,1)"><g><path fill="none" stroke="none"/><text fill="#000000" font-family="Arial" font-size="13px" font-style="normal" font-weight="normal" stroke="none" text-decoration="none" x="51.578125" y="263.5">[ dati non validi ]</text></g></g><g transform="translate(2,2) scale(1,1)"><g><path fill="none" stroke="none"/><text fill="#000000" font-family="Arial" font-size="13px" font-style="normal" font-weight="bold" stroke="none" text-decoration="none" x="19.57177734375" y="263.5">loop</text></g></g><g transform="translate(2,2) scale(1,1)"><path d="M 56 680 L 648 680 L 648 824 L 56 824 L 56 680" fill="none" stroke="#000000" stroke-miterlimit="10"/></g><g transform="translate(2,2) scale(1,1)"><path d="M 56 680 L 56 702 L 184.01708984375 702 L 195.01708984375 691 L 195.01708984375 680 L 56 680" fill="#ffffff" stroke="none"/></g><g transform="translate(2,2) scale(1,1)"><path d="M 56 680 L 56 702 L 184.01708984375 702 L 195.01708984375 691 L 195.01708984375 680 L 56 680 L 56 680" fill="none" stroke="#000000" stroke-miterlimit="10"/></g><g transform="translate(2,2) scale(1,1)"><g><path fill="none" stroke="none"/><text fill="#000000" font-family="Arial" font-size="13px" font-style="normal" font-weight="normal" stroke="none" text-decoration="none" x="85.07177734375" y="695.5">[ dati non validi ]</text></g></g><g transform="translate(2,2) scale(1,1)"><g><path fill="none" stroke="none"/><text fill="#000000" font-family="Arial" font-size="13px" font-style="normal" font-weight="bold" stroke="none" text-decoration="none" x="59.930419921875" y="695.5">opt</text></g></g><g transform="translate(2,2) scale(1,1)"><path d="M 56 384 L 632 384 L 632 576 L 56 576 L 56 384" fill="none" stroke="#000000" stroke-miterlimit="10"/></g><g transform="translate(2,2) scale(1,1)"><path d="M 56 384 L 56 406 L 184.01708984375 406 L 195.01708984375 395 L 195.01708984375 384 L 56 384" fill="#ffffff" stroke="none"/></g><g transform="translate(2,2) scale(1,1)"><path d="M 56 384 L 56 406 L 184.01708984375 406 L 195.01708984375 395 L 195.01708984375 384 L 56 384 L 56 384" fill="none" stroke="#000000" stroke-miterlimit="10"/></g><g transform="translate(2,2) scale(1,1)"><g><path fill="none" stroke="none"/><text fill="#000000" font-family="Arial" font-size="13px" font-style="normal" font-weight="normal" stroke="none" text-decoration="none" x="85.07177734375" y="399.5">[ dati non validi ]</text></g></g><g transform="translate(2,2) scale(1,1)"><g><path fill="none" stroke="none"/><text fill="#000000" font-family="Arial" font-size="13px" font-style="normal" font-weight="bold" stroke="none" text-decoration="none" x="59.930419921875" y="399.5">opt</text></g></g></g></svg>