<?xml version="1.0" encoding="UTF-8" standalone="no"?><svg xmlns="http://www.w3.org/2000/svg" xmlns:xlink="http://www.w3.org/1999/xlink" height="420" version="1.1" width="660"><defs/><g><g transform="translate(-334,-326) scale(1,1)"><path d="M 344 336 L 984 336 L 984 736 L 344 736 L 344 336" fill="none" stroke="#000000" stroke-miterlimit="10"/></g><g transform="translate(-334,-326) scale(1,1)"><path d="M 344 336 L 344 358 L 488.6416015625 358 L 499.6416015625 347 L 499.6416015625 336 L 344 336" fill="#ffffff" stroke="none"/></g><g transform="translate(-334,-326) scale(1,1)"><path d="M 344 336 L 344 358 L 488.6416015625 358 L 499.6416015625 347 L 499.6416015625 336 L 344 336 L 344 336" fill="none" stroke="#000000" stroke-miterlimit="10"/></g><g transform="translate(-334,-326) scale(1,1)"><g><path fill="none" stroke="none"/><text fill="#000000" font-family="Arial" font-size="13px" font-style="normal" font-weight="normal" stroke="none" text-decoration="none" x="368.72998046875" y="351.5">Gestione Consegna</text></g></g><g transform="translate(-334,-326) scale(1,1)"><g><path fill="none" stroke="none"/><text fill="#000000" font-family="Arial" font-size="13px" font-style="normal" font-weight="bold" stroke="none" text-decoration="none" x="348.279541015625" y="350.5">uc</text></g></g><g transform="translate(-334,-326) scale(1,1)"><rect fill="#C0C0C0" height="344" opacity="0.2" stroke="none" width="280" x="526" y="375"/></g><g transform="translate(-334,-326) scale(1,1)"><rect fill="#ffffff" height="344" stroke="none" width="280" x="519" y="368"/></g><g transform="translate(-334,-326) scale(1,1)"><path d="M 519 368 L 799 368 L 799 712 L 519 712 L 519 368 Z Z" fill="none" stroke="#000000" stroke-miterlimit="10"/></g><g transform="translate(-334,-326) scale(1,1)"><g><path fill="none" stroke="none"/><text fill="#000000" font-family="Arial" font-size="13px" font-style="normal" font-weight="bold" stroke="none" text-decoration="none" x="634.069580078125" y="385.5">Sistema</text></g></g><g transform="translate(-334,-326) scale(1,1)"><path d="M 382.14567844460225 613.6800000000001 C 382.14567844460225 608.8861679360001 386.03152076954774 605 390.824951171875 605 C 395.61838157420226 605 399.50422389914775 608.8861679360001 399.50422389914775 613.6800000000001 C 399.50422389914775 618.473832064 395.61838157420226 622.36 390.824951171875 622.36 C 386.03152076954774 622.36 382.14567844460225 618.473832064 382.14567844460225 613.6800000000001 Z" fill="#ffffff" stroke="none"/></g><g transform="translate(-334,-326) scale(1,1)"><path d="M 382.14567844460225 613.6800000000001 C 382.14567844460225 608.8861679360001 386.03152076954774 605 390.824951171875 605 C 395.61838157420226 605 399.50422389914775 608.8861679360001 399.50422389914775 613.6800000000001 C 399.50422389914775 618.473832064 395.61838157420226 622.36 390.824951171875 622.36 C 386.03152076954774 622.36 382.14567844460225 618.473832064 382.14567844460225 613.6800000000001 Z" fill="none" stroke="#000000" stroke-miterlimit="10"/></g><g transform="translate(-334,-326) scale(1,1)"><path d="M 390.824951171875 622.36 L 390.824951171875 639.64" fill="none" stroke="#000000" stroke-miterlimit="10"/></g><g transform="translate(-334,-326) scale(1,1)"><path d="M 381.63513299005683 628.84 L 400.01476935369317 628.84" fill="none" stroke="#000000" stroke-miterlimit="10"/></g><g transform="translate(-334,-326) scale(1,1)"><path d="M 390.824951171875 639.64 L 378.06131480823865 657" fill="none" stroke="#000000" stroke-miterlimit="10"/></g><g transform="translate(-334,-326) scale(1,1)"><path d="M 390.824951171875 639.64 L 403.58858753551135 657" fill="none" stroke="#000000" stroke-miterlimit="10"/></g><g transform="translate(-334,-326) scale(1,1)"><g><path fill="none" stroke="none"/><text fill="#000000" font-family="Arial" font-size="13px" font-style="normal" font-weight="bold" stroke="none" text-decoration="none" x="356.5" y="675.5">Farmacista</text></g></g><g transform="translate(-334,-326) scale(1,1)"><path d="M 381.10978977272725 409.68 C 381.10978977272725 404.886167936 384.99563209767274 401 389.7890625 401 C 394.58249290232726 401 398.46833522727275 404.886167936 398.46833522727275 409.68 C 398.46833522727275 414.473832064 394.58249290232726 418.36 389.7890625 418.36 C 384.99563209767274 418.36 381.10978977272725 414.473832064 381.10978977272725 409.68 Z" fill="#ffffff" stroke="none"/></g><g transform="translate(-334,-326) scale(1,1)"><path d="M 381.10978977272725 409.68 C 381.10978977272725 404.886167936 384.99563209767274 401 389.7890625 401 C 394.58249290232726 401 398.46833522727275 404.886167936 398.46833522727275 409.68 C 398.46833522727275 414.473832064 394.58249290232726 418.36 389.7890625 418.36 C 384.99563209767274 418.36 381.10978977272725 414.473832064 381.10978977272725 409.68 Z" fill="none" stroke="#000000" stroke-miterlimit="10"/></g><g transform="translate(-334,-326) scale(1,1)"><path d="M 389.7890625 418.36 L 389.7890625 435.64" fill="none" stroke="#000000" stroke-miterlimit="10"/></g><g transform="translate(-334,-326) scale(1,1)"><path d="M 380.59924431818183 424.84 L 398.97888068181817 424.84" fill="none" stroke="#000000" stroke-miterlimit="10"/></g><g transform="translate(-334,-326) scale(1,1)"><path d="M 389.7890625 435.64 L 377.02542613636365 453" fill="none" stroke="#000000" stroke-miterlimit="10"/></g><g transform="translate(-334,-326) scale(1,1)"><path d="M 389.7890625 435.64 L 402.55269886363635 453" fill="none" stroke="#000000" stroke-miterlimit="10"/></g><g transform="translate(-334,-326) scale(1,1)"><g><path fill="none" stroke="none"/><text fill="#000000" font-family="Arial" font-size="13px" font-style="normal" font-weight="bold" stroke="none" text-decoration="none" x="364.5" y="471.5">Corriere</text></g></g><g transform="translate(-334,-326) scale(1,1)"><path d="M 907.5043210227273 409.68 C 907.5043210227273 404.886167936 911.3901633476727 401 916.18359375 401 C 920.9770241523273 401 924.8628664772727 404.886167936 924.8628664772727 409.68 C 924.8628664772727 414.473832064 920.9770241523273 418.36 916.18359375 418.36 C 911.3901633476727 418.36 907.5043210227273 414.473832064 907.5043210227273 409.68 Z" fill="#ffffff" stroke="none"/></g><g transform="translate(-334,-326) scale(1,1)"><path d="M 907.5043210227273 409.68 C 907.5043210227273 404.886167936 911.3901633476727 401 916.18359375 401 C 920.9770241523273 401 924.8628664772727 404.886167936 924.8628664772727 409.68 C 924.8628664772727 414.473832064 920.9770241523273 418.36 916.18359375 418.36 C 911.3901633476727 418.36 907.5043210227273 414.473832064 907.5043210227273 409.68 Z" fill="none" stroke="#000000" stroke-miterlimit="10"/></g><g transform="translate(-334,-326) scale(1,1)"><path d="M 916.18359375 418.36 L 916.18359375 435.64" fill="none" stroke="#000000" stroke-miterlimit="10"/></g><g transform="translate(-334,-326) scale(1,1)"><path d="M 906.9937755681818 424.84 L 925.3734119318182 424.84" fill="none" stroke="#000000" stroke-miterlimit="10"/></g><g transform="translate(-334,-326) scale(1,1)"><path d="M 916.18359375 435.64 L 903.4199573863636 453" fill="none" stroke="#000000" stroke-miterlimit="10"/></g><g transform="translate(-334,-326) scale(1,1)"><path d="M 916.18359375 435.64 L 928.9472301136364 453" fill="none" stroke="#000000" stroke-miterlimit="10"/></g><g transform="translate(-334,-326) scale(1,1)"><g><path fill="none" stroke="none"/><text fill="#000000" font-family="Arial" font-size="13px" font-style="normal" font-weight="bold" stroke="none" text-decoration="none" x="872.12451171875" y="471.5">DBMSAzienda</text></g></g><g transform="translate(-334,-326) scale(1,1)"><path d="M 573 450.5 C 573 435.312168 615.3090864 423 667.5 423 C 719.6909136 423 762 435.312168 762 450.5 C 762 465.687832 719.6909136 478 667.5 478 C 615.3090864 478 573 465.687832 573 450.5 Z" fill="#C0C0C0" opacity="0.2" stroke="none"/></g><g transform="translate(-334,-326) scale(1,1)"><path d="M 566 443.5 C 566 428.312168 608.3090864 416 660.5 416 C 712.6909136 416 755 428.312168 755 443.5 C 755 458.687832 712.6909136 471 660.5 471 C 608.3090864 471 566 458.687832 566 443.5 Z" fill="#ffffff" stroke="none"/></g><g transform="translate(-334,-326) scale(1,1)"><path d="M 566 443.5 C 566 428.312168 608.3090864 416 660.5 416 C 712.6909136 416 755 428.312168 755 443.5 C 755 458.687832 712.6909136 471 660.5 471 C 608.3090864 471 566 458.687832 566 443.5 Z" fill="none" stroke="#000000" stroke-miterlimit="10"/></g><g transform="translate(-334,-326) scale(1,1)"><g><path fill="none" stroke="none"/><text fill="#000000" font-family="Arial" font-size="13px" font-style="normal" font-weight="bold" stroke="none" text-decoration="none" x="598.1279296875" y="448.5">VisualizzaConsegne</text></g></g><g transform="translate(-334,-326) scale(1,1)"><path d="M 575 650.5 C 575 635.312168 617.3090864 623 669.5 623 C 721.6909136 623 764 635.312168 764 650.5 C 764 665.687832 721.6909136 678 669.5 678 C 617.3090864 678 575 665.687832 575 650.5 Z" fill="#C0C0C0" opacity="0.2" stroke="none"/></g><g transform="translate(-334,-326) scale(1,1)"><path d="M 568 643.5 C 568 628.312168 610.3090864 616 662.5 616 C 714.6909136 616 757 628.312168 757 643.5 C 757 658.687832 714.6909136 671 662.5 671 C 610.3090864 671 568 658.687832 568 643.5 Z" fill="#ffffff" stroke="none"/></g><g transform="translate(-334,-326) scale(1,1)"><path d="M 568 643.5 C 568 628.312168 610.3090864 616 662.5 616 C 714.6909136 616 757 628.312168 757 643.5 C 757 658.687832 714.6909136 671 662.5 671 C 610.3090864 671 568 658.687832 568 643.5 Z" fill="none" stroke="#000000" stroke-miterlimit="10"/></g><g transform="translate(-334,-326) scale(1,1)"><g><path fill="none" stroke="none"/><text fill="#000000" font-family="Arial" font-size="13px" font-style="normal" font-weight="bold" stroke="none" text-decoration="none" x="613.378662109375" y="648.5">FirmaConsegna</text></g></g><g transform="translate(-334,-326) scale(1,1)"><path d="M 431 643 L 567 643" fill="none" stroke="#000000" stroke-miterlimit="10"/></g><g transform="translate(-334,-326) scale(1,1)"><path d="M 421 439 L 565 442" fill="none" stroke="#000000" stroke-miterlimit="10"/></g><g transform="translate(-334,-326) scale(1,1)"><path d="M 421 463 L 625 615" fill="none" stroke="#000000" stroke-miterlimit="10"/></g><g transform="translate(-334,-326) scale(1,1)"><path d="M 863 440 L 756 442" fill="none" stroke="#000000" stroke-miterlimit="10"/></g><g transform="translate(-334,-326) scale(1,1)"><path d="M 865 480 L 697 615" fill="none" stroke="#000000" stroke-miterlimit="10"/></g><g transform="translate(-334,-326) scale(1,1)"><path d="M 907.5043210227273 613.6800000000001 C 907.5043210227273 608.8861679360001 911.3901633476727 605 916.18359375 605 C 920.9770241523273 605 924.8628664772727 608.8861679360001 924.8628664772727 613.6800000000001 C 924.8628664772727 618.473832064 920.9770241523273 622.36 916.18359375 622.36 C 911.3901633476727 622.36 907.5043210227273 618.473832064 907.5043210227273 613.6800000000001 Z" fill="#ffffff" stroke="none"/></g><g transform="translate(-334,-326) scale(1,1)"><path d="M 907.5043210227273 613.6800000000001 C 907.5043210227273 608.8861679360001 911.3901633476727 605 916.18359375 605 C 920.9770241523273 605 924.8628664772727 608.8861679360001 924.8628664772727 613.6800000000001 C 924.8628664772727 618.473832064 920.9770241523273 622.36 916.18359375 622.36 C 911.3901633476727 622.36 907.5043210227273 618.473832064 907.5043210227273 613.6800000000001 Z" fill="none" stroke="#000000" stroke-miterlimit="10"/></g><g transform="translate(-334,-326) scale(1,1)"><path d="M 916.18359375 622.36 L 916.18359375 639.64" fill="none" stroke="#000000" stroke-miterlimit="10"/></g><g transform="translate(-334,-326) scale(1,1)"><path d="M 906.9937755681818 628.84 L 925.3734119318182 628.84" fill="none" stroke="#000000" stroke-miterlimit="10"/></g><g transform="translate(-334,-326) scale(1,1)"><path d="M 916.18359375 639.64 L 903.4199573863636 657" fill="none" stroke="#000000" stroke-miterlimit="10"/></g><g transform="translate(-334,-326) scale(1,1)"><path d="M 916.18359375 639.64 L 928.9472301136364 657" fill="none" stroke="#000000" stroke-miterlimit="10"/></g><g transform="translate(-334,-326) scale(1,1)"><g><path fill="none" stroke="none"/><text fill="#000000" font-family="Arial" font-size="13px" font-style="normal" font-weight="bold" stroke="none" text-decoration="none" x="868.5" y="675.5">DBMSFarmacie</text></g></g><g transform="translate(-334,-326) scale(1,1)"><path d="M 863 643 L 758 643" fill="none" stroke="#000000" stroke-miterlimit="10"/></g></g></svg>