<?xml version="1.0" encoding="UTF-8" standalone="no"?><svg xmlns="http://www.w3.org/2000/svg" xmlns:xlink="http://www.w3.org/1999/xlink" height="892" version="1.1" width="1212"><defs/><g><g transform="translate(-38,2) scale(1,1)"><rect fill="#C0C0C0" height="840" opacity="0.2" stroke="none" width="624" x="391" y="31"/></g><g transform="translate(-38,2) scale(1,1)"><rect fill="#ffffff" height="840" stroke="none" width="624" x="384" y="24"/></g><g transform="translate(-38,2) scale(1,1)"><path d="M 384 24 L 1008 24 L 1008 864 L 384 864 L 384 24 Z Z" fill="none" stroke="#000000" stroke-miterlimit="10"/></g><g transform="translate(-38,2) scale(1,1)"><g><path fill="none" stroke="none"/><text fill="#000000" font-family="Arial" font-size="13px" font-style="normal" font-weight="bold" stroke="none" text-decoration="none" x="671.069580078125" y="41.5">Sistema</text></g></g><g transform="translate(-38,2) scale(1,1)"><path d="M 48 8 L 1240 8 L 1240 880 L 48 880 L 48 8" fill="none" stroke="#000000" stroke-miterlimit="10"/></g><g transform="translate(-38,2) scale(1,1)"><path d="M 48 8 L 48 30 L 180.32080078125 30 L 191.32080078125 19 L 191.32080078125 8 L 48 8" fill="#ffffff" stroke="none"/></g><g transform="translate(-38,2) scale(1,1)"><path d="M 48 8 L 48 30 L 180.32080078125 30 L 191.32080078125 19 L 191.32080078125 8 L 48 8 L 48 8" fill="none" stroke="#000000" stroke-miterlimit="10"/></g><g transform="translate(-38,2) scale(1,1)"><g><path fill="none" stroke="none"/><text fill="#000000" font-family="Arial" font-size="13px" font-style="normal" font-weight="normal" stroke="none" text-decoration="none" x="72.72998046875" y="23.5">Gestione Farmaci</text></g></g><g transform="translate(-38,2) scale(1,1)"><g><path fill="none" stroke="none"/><text fill="#000000" font-family="Arial" font-size="13px" font-style="normal" font-weight="bold" stroke="none" text-decoration="none" x="52.279541015625" y="22.5">uc</text></g></g><g transform="translate(-38,2) scale(1,1)"><path d="M 134.14567844460228 433.68 C 134.14567844460228 428.886167936 138.03152076954774 425 142.824951171875 425 C 147.61838157420226 425 151.50422389914772 428.886167936 151.50422389914772 433.68 C 151.50422389914772 438.473832064 147.61838157420226 442.36 142.824951171875 442.36 C 138.03152076954774 442.36 134.14567844460228 438.473832064 134.14567844460228 433.68 Z" fill="#ffffff" stroke="none"/></g><g transform="translate(-38,2) scale(1,1)"><path d="M 134.14567844460228 433.68 C 134.14567844460228 428.886167936 138.03152076954774 425 142.824951171875 425 C 147.61838157420226 425 151.50422389914772 428.886167936 151.50422389914772 433.68 C 151.50422389914772 438.473832064 147.61838157420226 442.36 142.824951171875 442.36 C 138.03152076954774 442.36 134.14567844460228 438.473832064 134.14567844460228 433.68 Z" fill="none" stroke="#000000" stroke-miterlimit="10"/></g><g transform="translate(-38,2) scale(1,1)"><path d="M 142.824951171875 442.36 L 142.824951171875 459.64" fill="none" stroke="#000000" stroke-miterlimit="10"/></g><g transform="translate(-38,2) scale(1,1)"><path d="M 133.63513299005683 448.84 L 152.01476935369317 448.84" fill="none" stroke="#000000" stroke-miterlimit="10"/></g><g transform="translate(-38,2) scale(1,1)"><path d="M 142.824951171875 459.64 L 130.06131480823865 477" fill="none" stroke="#000000" stroke-miterlimit="10"/></g><g transform="translate(-38,2) scale(1,1)"><path d="M 142.824951171875 459.64 L 155.58858753551135 477" fill="none" stroke="#000000" stroke-miterlimit="10"/></g><g transform="translate(-38,2) scale(1,1)"><g><path fill="none" stroke="none"/><text fill="#000000" font-family="Arial" font-size="13px" font-style="normal" font-weight="bold" stroke="none" text-decoration="none" x="108.5" y="495.5">Farmacista</text></g></g><g transform="translate(-38,2) scale(1,1)"><path d="M 441 441 C 441 421.1177472 495.845112 405 563.5 405 C 631.154888 405 686 421.1177472 686 441 C 686 460.8822528 631.154888 477 563.5 477 C 495.845112 477 441 460.8822528 441 441 Z" fill="#C0C0C0" opacity="0.2" stroke="none"/></g><g transform="translate(-38,2) scale(1,1)"><path d="M 434 434 C 434 414.1177472 488.845112 398 556.5 398 C 624.154888 398 679 414.1177472 679 434 C 679 453.8822528 624.154888 470 556.5 470 C 488.845112 470 434 453.8822528 434 434 Z" fill="#ffffff" stroke="none"/></g><g transform="translate(-38,2) scale(1,1)"><path d="M 434 434 C 434 414.1177472 488.845112 398 556.5 398 C 624.154888 398 679 414.1177472 679 434 C 679 453.8822528 624.154888 470 556.5 470 C 488.845112 470 434 453.8822528 434 434 Z" fill="none" stroke="#000000" stroke-miterlimit="10"/></g><g transform="translate(-38,2) scale(1,1)"><g><path fill="none" stroke="none"/><text fill="#000000" font-family="Arial" font-size="13px" font-style="normal" font-weight="bold" stroke="none" text-decoration="none" x="517.484130859375" y="439">Carico Merci</text></g></g><g transform="translate(-38,2) scale(1,1)"><path d="M 183 460 L 433 443" fill="none" stroke="#000000" stroke-miterlimit="10"/></g><g transform="translate(-38,2) scale(1,1)"><path d="M 441 195 C 441 175.1177472 495.845112 159 563.5 159 C 631.154888 159 686 175.1177472 686 195 C 686 214.8822528 631.154888 231 563.5 231 C 495.845112 231 441 214.8822528 441 195 Z" fill="#C0C0C0" opacity="0.2" stroke="none"/></g><g transform="translate(-38,2) scale(1,1)"><path d="M 434 188 C 434 168.1177472 488.845112 152 556.5 152 C 624.154888 152 679 168.1177472 679 188 C 679 207.8822528 624.154888 224 556.5 224 C 488.845112 224 434 207.8822528 434 188 Z" fill="#ffffff" stroke="none"/></g><g transform="translate(-38,2) scale(1,1)"><path d="M 434 188 C 434 168.1177472 488.845112 152 556.5 152 C 624.154888 152 679 168.1177472 679 188 C 679 207.8822528 624.154888 224 556.5 224 C 488.845112 224 434 207.8822528 434 188 Z" fill="none" stroke="#000000" stroke-miterlimit="10"/></g><g transform="translate(-38,2) scale(1,1)"><g><path fill="none" stroke="none"/><text fill="#000000" font-family="Arial" font-size="13px" font-style="normal" font-weight="bold" stroke="none" text-decoration="none" x="514.227783203125" y="193">Scarico Merci</text></g></g><g transform="translate(-38,2) scale(1,1)"><path d="M 181 423 Q 328 272 456 225" fill="none" stroke="#000000" stroke-miterlimit="10"/></g><g transform="translate(-38,2) scale(1,1)"><path d="M 441 687 C 441 667.1177472 495.845112 651 563.5 651 C 631.154888 651 686 667.1177472 686 687 C 686 706.8822528 631.154888 723 563.5 723 C 495.845112 723 441 706.8822528 441 687 Z" fill="#C0C0C0" opacity="0.2" stroke="none"/></g><g transform="translate(-38,2) scale(1,1)"><path d="M 434 680 C 434 660.1177472 488.845112 644 556.5 644 C 624.154888 644 679 660.1177472 679 680 C 679 699.8822528 624.154888 716 556.5 716 C 488.845112 716 434 699.8822528 434 680 Z" fill="#ffffff" stroke="none"/></g><g transform="translate(-38,2) scale(1,1)"><path d="M 434 680 C 434 660.1177472 488.845112 644 556.5 644 C 624.154888 644 679 660.1177472 679 680 C 679 699.8822528 624.154888 716 556.5 716 C 488.845112 716 434 699.8822528 434 680 Z" fill="none" stroke="#000000" stroke-miterlimit="10"/></g><g transform="translate(-38,2) scale(1,1)"><g><path fill="none" stroke="none"/><text fill="#000000" font-family="Arial" font-size="13px" font-style="normal" font-weight="bold" stroke="none" text-decoration="none" x="506.65185546875" y="685">Ordina Farmaco</text></g></g><g transform="translate(-38,2) scale(1,1)"><path d="M 171 504 Q 256 624 433 657" fill="none" stroke="#000000" stroke-miterlimit="10"/></g><g transform="translate(-38,2) scale(1,1)"><path d="M 1176.6442136008523 425.68 C 1176.6442136008523 420.886167936 1180.5300559257978 417 1185.323486328125 417 C 1190.1169167304522 417 1194.0027590553977 420.886167936 1194.0027590553977 425.68 C 1194.0027590553977 430.473832064 1190.1169167304522 434.36 1185.323486328125 434.36 C 1180.5300559257978 434.36 1176.6442136008523 430.473832064 1176.6442136008523 425.68 Z" fill="#ffffff" stroke="none"/></g><g transform="translate(-38,2) scale(1,1)"><path d="M 1176.6442136008523 425.68 C 1176.6442136008523 420.886167936 1180.5300559257978 417 1185.323486328125 417 C 1190.1169167304522 417 1194.0027590553977 420.886167936 1194.0027590553977 425.68 C 1194.0027590553977 430.473832064 1190.1169167304522 434.36 1185.323486328125 434.36 C 1180.5300559257978 434.36 1176.6442136008523 430.473832064 1176.6442136008523 425.68 Z" fill="none" stroke="#000000" stroke-miterlimit="10"/></g><g transform="translate(-38,2) scale(1,1)"><path d="M 1185.323486328125 434.36 L 1185.323486328125 451.64" fill="none" stroke="#000000" stroke-miterlimit="10"/></g><g transform="translate(-38,2) scale(1,1)"><path d="M 1176.1336681463067 440.84 L 1194.5133045099433 440.84" fill="none" stroke="#000000" stroke-miterlimit="10"/></g><g transform="translate(-38,2) scale(1,1)"><path d="M 1185.323486328125 451.64 L 1172.5598499644886 469" fill="none" stroke="#000000" stroke-miterlimit="10"/></g><g transform="translate(-38,2) scale(1,1)"><path d="M 1185.323486328125 451.64 L 1198.0871226917614 469" fill="none" stroke="#000000" stroke-miterlimit="10"/></g><g transform="translate(-38,2) scale(1,1)"><g><path fill="none" stroke="none"/><text fill="#000000" font-family="Arial" font-size="13px" font-style="normal" font-weight="bold" stroke="none" text-decoration="none" x="1164.5" y="487.5">Tempo</text></g></g><g transform="translate(-38,2) scale(1,1)"><path d="M 794 465 C 794 450.6405952 836.9806592 439 890 439 C 943.0193408 439 986 450.6405952 986 465 C 986 479.3594048 943.0193408 491 890 491 C 836.9806592 491 794 479.3594048 794 465 Z" fill="#C0C0C0" opacity="0.2" stroke="none"/></g><g transform="translate(-38,2) scale(1,1)"><path d="M 787 458 C 787 443.6405952 829.9806592 432 883 432 C 936.0193408 432 979 443.6405952 979 458 C 979 472.3594048 936.0193408 484 883 484 C 829.9806592 484 787 472.3594048 787 458 Z" fill="#ffffff" stroke="none"/></g><g transform="translate(-38,2) scale(1,1)"><path d="M 787 458 C 787 443.6405952 829.9806592 432 883 432 C 936.0193408 432 979 443.6405952 979 458 C 979 472.3594048 936.0193408 484 883 484 C 829.9806592 484 787 472.3594048 787 458 Z" fill="none" stroke="#000000" stroke-miterlimit="10"/></g><g transform="translate(-38,2) scale(1,1)"><g><path fill="none" stroke="none"/><text fill="#000000" font-family="Arial" font-size="13px" font-style="normal" font-weight="bold" stroke="none" text-decoration="none" x="854.1181640625" y="456.5">Controllo</text><text fill="#000000" font-family="Arial" font-size="13px" font-style="normal" font-weight="bold" stroke="none" text-decoration="none" x="824.839599609375" y="469.5">Caricamento Merci</text></g></g><g transform="translate(-38,2) scale(1,1)"><path d="M 1160 456 L 979 456" fill="none" stroke="#000000" stroke-miterlimit="10"/></g><g transform="translate(-38,2) scale(1,1)"><path d="M 1125.3102292258523 169.68 C 1125.3102292258523 164.886167936 1129.1960715507978 161 1133.989501953125 161 C 1138.7829323554522 161 1142.6687746803977 164.886167936 1142.6687746803977 169.68 C 1142.6687746803977 174.47383206400002 1138.7829323554522 178.36 1133.989501953125 178.36 C 1129.1960715507978 178.36 1125.3102292258523 174.47383206400002 1125.3102292258523 169.68 Z" fill="#ffffff" stroke="none"/></g><g transform="translate(-38,2) scale(1,1)"><path d="M 1125.3102292258523 169.68 C 1125.3102292258523 164.886167936 1129.1960715507978 161 1133.989501953125 161 C 1138.7829323554522 161 1142.6687746803977 164.886167936 1142.6687746803977 169.68 C 1142.6687746803977 174.47383206400002 1138.7829323554522 178.36 1133.989501953125 178.36 C 1129.1960715507978 178.36 1125.3102292258523 174.47383206400002 1125.3102292258523 169.68 Z" fill="none" stroke="#000000" stroke-miterlimit="10"/></g><g transform="translate(-38,2) scale(1,1)"><path d="M 1133.989501953125 178.36 L 1133.989501953125 195.64" fill="none" stroke="#000000" stroke-miterlimit="10"/></g><g transform="translate(-38,2) scale(1,1)"><path d="M 1124.7996837713067 184.84 L 1143.1793201349433 184.84" fill="none" stroke="#000000" stroke-miterlimit="10"/></g><g transform="translate(-38,2) scale(1,1)"><path d="M 1133.989501953125 195.64 L 1121.2258655894886 213" fill="none" stroke="#000000" stroke-miterlimit="10"/></g><g transform="translate(-38,2) scale(1,1)"><path d="M 1133.989501953125 195.64 L 1146.7531383167614 213" fill="none" stroke="#000000" stroke-miterlimit="10"/></g><g transform="translate(-38,2) scale(1,1)"><g><path fill="none" stroke="none"/><text fill="#000000" font-family="Arial" font-size="13px" font-style="normal" font-weight="bold" stroke="none" text-decoration="none" x="1084.5" y="231.5">DBMS Farmacie</text></g></g><g transform="translate(-38,2) scale(1,1)"><path d="M 1121.6857175071023 689.6800000000001 C 1121.6857175071023 684.8861679360001 1125.5715598320478 681 1130.364990234375 681 C 1135.1584206367022 681 1139.0442629616477 684.8861679360001 1139.0442629616477 689.6800000000001 C 1139.0442629616477 694.473832064 1135.1584206367022 698.36 1130.364990234375 698.36 C 1125.5715598320478 698.36 1121.6857175071023 694.473832064 1121.6857175071023 689.6800000000001 Z" fill="#ffffff" stroke="none"/></g><g transform="translate(-38,2) scale(1,1)"><path d="M 1121.6857175071023 689.6800000000001 C 1121.6857175071023 684.8861679360001 1125.5715598320478 681 1130.364990234375 681 C 1135.1584206367022 681 1139.0442629616477 684.8861679360001 1139.0442629616477 689.6800000000001 C 1139.0442629616477 694.473832064 1135.1584206367022 698.36 1130.364990234375 698.36 C 1125.5715598320478 698.36 1121.6857175071023 694.473832064 1121.6857175071023 689.6800000000001 Z" fill="none" stroke="#000000" stroke-miterlimit="10"/></g><g transform="translate(-38,2) scale(1,1)"><path d="M 1130.364990234375 698.36 L 1130.364990234375 715.64" fill="none" stroke="#000000" stroke-miterlimit="10"/></g><g transform="translate(-38,2) scale(1,1)"><path d="M 1121.1751720525567 704.84 L 1139.5548084161933 704.84" fill="none" stroke="#000000" stroke-miterlimit="10"/></g><g transform="translate(-38,2) scale(1,1)"><path d="M 1130.364990234375 715.64 L 1117.6013538707386 733" fill="none" stroke="#000000" stroke-miterlimit="10"/></g><g transform="translate(-38,2) scale(1,1)"><path d="M 1130.364990234375 715.64 L 1143.1286265980114 733" fill="none" stroke="#000000" stroke-miterlimit="10"/></g><g transform="translate(-38,2) scale(1,1)"><g><path fill="none" stroke="none"/><text fill="#000000" font-family="Arial" font-size="13px" font-style="normal" font-weight="bold" stroke="none" text-decoration="none" x="1084.5" y="751.5">DBMS Azienda</text></g></g><g transform="translate(-38,2) scale(1,1)"><path d="M 647 397 L 1079 221" fill="none" stroke="#000000" stroke-miterlimit="10"/></g><g transform="translate(-38,2) scale(1,1)"><path d="M 680 190 L 1079 198" fill="none" stroke="#000000" stroke-miterlimit="10"/></g><g transform="translate(-38,2) scale(1,1)"><path d="M 680 688 L 1079 716" fill="none" stroke="#000000" stroke-miterlimit="10"/></g><g transform="translate(-38,2) scale(1,1)"><path d="M 980 460 Q 1120 464 1128 679" fill="none" stroke="#000000" stroke-miterlimit="10"/></g><g transform="translate(-38,2) scale(1,1)"><path d="M 631 471 L 1079 694" fill="none" stroke="#000000" stroke-miterlimit="10"/></g><g transform="translate(-38,2) scale(1,1)"><path d="M 441 564 C 441 544.1177472 495.845112 528 563.5 528 C 631.154888 528 686 544.1177472 686 564 C 686 583.8822528 631.154888 600 563.5 600 C 495.845112 600 441 583.8822528 441 564 Z" fill="#C0C0C0" opacity="0.2" stroke="none"/></g><g transform="translate(-38,2) scale(1,1)"><path d="M 434 557 C 434 537.1177472 488.845112 521 556.5 521 C 624.154888 521 679 537.1177472 679 557 C 679 576.8822528 624.154888 593 556.5 593 C 488.845112 593 434 576.8822528 434 557 Z" fill="#ffffff" stroke="none"/></g><g transform="translate(-38,2) scale(1,1)"><path d="M 434 557 C 434 537.1177472 488.845112 521 556.5 521 C 624.154888 521 679 537.1177472 679 557 C 679 576.8822528 624.154888 593 556.5 593 C 488.845112 593 434 576.8822528 434 557 Z" fill="none" stroke="#000000" stroke-miterlimit="10"/></g><g transform="translate(-38,2) scale(1,1)"><g><path fill="none" stroke="none"/><text fill="#000000" font-family="Arial" font-size="13px" font-style="normal" font-weight="bold" stroke="none" text-decoration="none" x="504.604736328125" y="555.5">Visualizza Ordini</text><text fill="#000000" font-family="Arial" font-size="13px" font-style="normal" font-weight="bold" stroke="none" text-decoration="none" x="527.95458984375" y="568.5">Farmacia</text></g></g><g transform="translate(-38,2) scale(1,1)"><path d="M 183 484 Q 296 544 433 551" fill="none" stroke="#000000" stroke-miterlimit="10"/></g><g transform="translate(-38,2) scale(1,1)"><path d="M 680 592 L 1079 705" fill="none" stroke="#000000" stroke-miterlimit="10"/></g><g transform="translate(-38,2) scale(1,1)"><path d="M 441 810 C 441 790.1177472 495.845112 774 563.5 774 C 631.154888 774 686 790.1177472 686 810 C 686 829.8822528 631.154888 846 563.5 846 C 495.845112 846 441 829.8822528 441 810 Z" fill="#C0C0C0" opacity="0.2" stroke="none"/></g><g transform="translate(-38,2) scale(1,1)"><path d="M 434 803 C 434 783.1177472 488.845112 767 556.5 767 C 624.154888 767 679 783.1177472 679 803 C 679 822.8822528 624.154888 839 556.5 839 C 488.845112 839 434 822.8822528 434 803 Z" fill="#ffffff" stroke="none"/></g><g transform="translate(-38,2) scale(1,1)"><path d="M 434 803 C 434 783.1177472 488.845112 767 556.5 767 C 624.154888 767 679 783.1177472 679 803 C 679 822.8822528 624.154888 839 556.5 839 C 488.845112 839 434 822.8822528 434 803 Z" fill="none" stroke="#000000" stroke-miterlimit="10"/></g><g transform="translate(-38,2) scale(1,1)"><g><path fill="none" stroke="none"/><text fill="#000000" font-family="Arial" font-size="13px" font-style="normal" font-weight="bold" stroke="none" text-decoration="none" x="507.385009765625" y="808">Modifica Ordine</text></g></g><g transform="translate(-38,2) scale(1,1)"><path d="M 150 504 Q 200 752 433 785" fill="none" stroke="#000000" stroke-miterlimit="10"/></g><g transform="translate(-38,2) scale(1,1)"><path d="M 680 785 L 1079 726" fill="none" stroke="#000000" stroke-miterlimit="10"/></g><g transform="translate(-38,2) scale(1,1)"><path d="M 794 377 C 794 362.6405952 836.9806592 351 890 351 C 943.0193408 351 986 362.6405952 986 377 C 986 391.3594048 943.0193408 403 890 403 C 836.9806592 403 794 391.3594048 794 377 Z" fill="#C0C0C0" opacity="0.2" stroke="none"/></g><g transform="translate(-38,2) scale(1,1)"><path d="M 787 370 C 787 355.6405952 829.9806592 344 883 344 C 936.0193408 344 979 355.6405952 979 370 C 979 384.3594048 936.0193408 396 883 396 C 829.9806592 396 787 384.3594048 787 370 Z" fill="#ffffff" stroke="none"/></g><g transform="translate(-38,2) scale(1,1)"><path d="M 787 370 C 787 355.6405952 829.9806592 344 883 344 C 936.0193408 344 979 355.6405952 979 370 C 979 384.3594048 936.0193408 396 883 396 C 829.9806592 396 787 384.3594048 787 370 Z" fill="none" stroke="#000000" stroke-miterlimit="10"/></g><g transform="translate(-38,2) scale(1,1)"><g><path fill="none" stroke="none"/><text fill="#000000" font-family="Arial" font-size="13px" font-style="normal" font-weight="bold" stroke="none" text-decoration="none" x="830.628662109375" y="375">Ordine Periodico</text></g></g><g transform="translate(-38,2) scale(1,1)"><path d="M 1184 416 L 1184 370 L 979 370" fill="none" stroke="#000000" stroke-miterlimit="10"/></g><g transform="translate(-38,2) scale(1,1)"><path d="M 980 375 Q 1136 384 1131 679" fill="none" stroke="#000000" stroke-miterlimit="10"/></g><g transform="translate(-38,2) scale(1,1)"><path d="M 980 369 Q 1136 368 1134 240" fill="none" stroke="#000000" stroke-miterlimit="10"/></g><g transform="translate(-38,2) scale(1,1)"><path d="M 1133 240 Q 1136 456 980 457" fill="none" stroke="#000000" stroke-miterlimit="10"/></g><g transform="translate(-38,2) scale(1,1)"><path d="M 441 318 C 441 298.1177472 495.845112 282 563.5 282 C 631.154888 282 686 298.1177472 686 318 C 686 337.8822528 631.154888 354 563.5 354 C 495.845112 354 441 337.8822528 441 318 Z" fill="#C0C0C0" opacity="0.2" stroke="none"/></g><g transform="translate(-38,2) scale(1,1)"><path d="M 434 311 C 434 291.1177472 488.845112 275 556.5 275 C 624.154888 275 679 291.1177472 679 311 C 679 330.8822528 624.154888 347 556.5 347 C 488.845112 347 434 330.8822528 434 311 Z" fill="#ffffff" stroke="none"/></g><g transform="translate(-38,2) scale(1,1)"><path d="M 434 311 C 434 291.1177472 488.845112 275 556.5 275 C 624.154888 275 679 291.1177472 679 311 C 679 330.8822528 624.154888 347 556.5 347 C 488.845112 347 434 330.8822528 434 311 Z" fill="none" stroke="#000000" stroke-miterlimit="10"/></g><g transform="translate(-38,2) scale(1,1)"><g><path fill="none" stroke="none"/><text fill="#000000" font-family="Arial" font-size="13px" font-style="normal" font-weight="bold" stroke="none" text-decoration="none" x="509.530517578125" y="316">Cerca Farmaco</text></g></g><g transform="translate(-38,2) scale(1,1)"><path d="M 680 287 L 1079 209" fill="none" stroke="#000000" stroke-miterlimit="10"/></g><g transform="translate(-38,2) scale(1,1)"><path d="M 608 348 L 1079 683" fill="none" stroke="#000000" stroke-miterlimit="10"/></g><g transform="translate(-38,2) scale(1,1)"><path d="M 433 336 Q 312 360 183 438" fill="none" stroke="#000000" stroke-miterlimit="10"/></g><g transform="translate(-38,2) scale(1,1)"><path d="M 455 100 C 455 79.5654624 508.725824 63 575 63 C 641.274176 63 695 79.5654624 695 100 C 695 120.4345376 641.274176 137 575 137 C 508.725824 137 455 120.4345376 455 100 Z" fill="#C0C0C0" opacity="0.2" stroke="none"/></g><g transform="translate(-38,2) scale(1,1)"><path d="M 448 93 C 448 72.5654624 501.725824 56 568 56 C 634.274176 56 688 72.5654624 688 93 C 688 113.4345376 634.274176 130 568 130 C 501.725824 130 448 113.4345376 448 93 Z" fill="#ffffff" stroke="none"/></g><g transform="translate(-38,2) scale(1,1)"><path d="M 448 93 C 448 72.5654624 501.725824 56 568 56 C 634.274176 56 688 72.5654624 688 93 C 688 113.4345376 634.274176 130 568 130 C 501.725824 130 448 113.4345376 448 93 Z" fill="none" stroke="#000000" stroke-miterlimit="10"/></g><g transform="translate(-38,2) scale(1,1)"><g><path fill="none" stroke="none"/><text fill="#000000" font-family="Arial" font-size="13px" font-style="normal" font-weight="bold" stroke="none" text-decoration="none" x="487.4609375" y="98">Modifica Ordine Periodico</text></g></g><g transform="translate(-38,2) scale(1,1)"><path d="M 155 423 Q 216 232 292 172 Q 368 112 447 104" fill="none" stroke="#000000" stroke-miterlimit="10"/></g><g transform="translate(-38,2) scale(1,1)"><path d="M 689 116 L 1079 189" fill="none" stroke="#000000" stroke-miterlimit="10"/></g><g transform="translate(-38,2) scale(1,1)"><path d="M 183 466 Q 672 504 772 504 Q 872 504 877 485" fill="none" stroke="#000000" stroke-miterlimit="10"/></g></g></svg>