<?xml version="1.0" encoding="UTF-8" standalone="no"?><svg xmlns="http://www.w3.org/2000/svg" xmlns:xlink="http://www.w3.org/1999/xlink" height="1028" version="1.1" width="1156.65625"><defs/><g><g transform="translate(-6,-6) scale(1,1)"><path d="M 16 16 L 1112 16 L 1112 1024 L 16 1024 L 16 16" fill="none" stroke="#000000" stroke-miterlimit="10"/></g><g transform="translate(-6,-6) scale(1,1)"><path d="M 16 16 L 16 38 L 167.12890625 38 L 178.12890625 27 L 178.12890625 16 L 16 16" fill="#ffffff" stroke="none"/></g><g transform="translate(-6,-6) scale(1,1)"><path d="M 16 16 L 16 38 L 167.12890625 38 L 178.12890625 27 L 178.12890625 16 L 16 16 L 16 16" fill="none" stroke="#000000" stroke-miterlimit="10"/></g><g transform="translate(-6,-6) scale(1,1)"><g><path fill="none" stroke="none"/><text fill="#000000" font-family="Arial" font-size="13px" font-style="normal" font-weight="normal" stroke="none" text-decoration="none" x="40.72998046875" y="31.5">RecuperoCredenziali</text></g></g><g transform="translate(-6,-6) scale(1,1)"><g><path fill="none" stroke="none"/><text fill="#000000" font-family="Arial" font-size="13px" font-style="normal" font-weight="bold" stroke="none" text-decoration="none" x="20.279541015625" y="31.5">sd</text></g></g><g transform="translate(-6,-6) scale(1,1)"><path d="M 94.0604110440341 47.3 C 94.0604110440341 43.82060576 96.93881276621592 41 100.489501953125 41 C 104.04019114003408 41 106.9185928622159 43.82060576 106.9185928622159 47.3 C 106.9185928622159 50.779394239999995 104.04019114003408 53.6 100.489501953125 53.6 C 96.93881276621592 53.6 94.0604110440341 50.779394239999995 94.0604110440341 47.3 Z" fill="#ffffff" stroke="none"/></g><g transform="translate(-6,-6) scale(1,1)"><path d="M 94.0604110440341 47.3 C 94.0604110440341 43.82060576 96.93881276621592 41 100.489501953125 41 C 104.04019114003408 41 106.9185928622159 43.82060576 106.9185928622159 47.3 C 106.9185928622159 50.779394239999995 104.04019114003408 53.6 100.489501953125 53.6 C 96.93881276621592 53.6 94.0604110440341 50.779394239999995 94.0604110440341 47.3 Z" fill="none" stroke="#000000" stroke-miterlimit="10"/></g><g transform="translate(-6,-6) scale(1,1)"><path d="M 100.489501953125 53.6 L 100.489501953125 66.4" fill="none" stroke="#000000" stroke-miterlimit="10"/></g><g transform="translate(-6,-6) scale(1,1)"><path d="M 93.68222922585227 58.4 L 107.29677468039773 58.4" fill="none" stroke="#000000" stroke-miterlimit="10"/></g><g transform="translate(-6,-6) scale(1,1)"><path d="M 100.489501953125 66.4 L 91.03495649857955 79" fill="none" stroke="#000000" stroke-miterlimit="10"/></g><g transform="translate(-6,-6) scale(1,1)"><path d="M 100.489501953125 66.4 L 109.94404740767045 79" fill="none" stroke="#000000" stroke-miterlimit="10"/></g><g transform="translate(-6,-6) scale(1,1)"><g><path fill="none" stroke="none"/><text fill="#000000" font-family="Arial" font-size="13px" font-style="normal" font-weight="bold" stroke="none" text-decoration="none" x="70.8681640625" y="97.5">: Persona</text></g></g><g transform="translate(-6,-6) scale(1,1)"><path d="M 101.5 105 L 101.5 1016" fill="none" stroke="#000000" stroke-dasharray="3" stroke-miterlimit="10"/></g><g transform="translate(-6,-6) scale(1,1)"><path d="M 1061.899034090909 47.3 C 1061.899034090909 43.82060576 1064.777435813091 41 1068.328125 41 C 1071.878814186909 41 1074.757215909091 43.82060576 1074.757215909091 47.3 C 1074.757215909091 50.779394239999995 1071.878814186909 53.6 1068.328125 53.6 C 1064.777435813091 53.6 1061.899034090909 50.779394239999995 1061.899034090909 47.3 Z" fill="#ffffff" stroke="none"/></g><g transform="translate(-6,-6) scale(1,1)"><path d="M 1061.899034090909 47.3 C 1061.899034090909 43.82060576 1064.777435813091 41 1068.328125 41 C 1071.878814186909 41 1074.757215909091 43.82060576 1074.757215909091 47.3 C 1074.757215909091 50.779394239999995 1071.878814186909 53.6 1068.328125 53.6 C 1064.777435813091 53.6 1061.899034090909 50.779394239999995 1061.899034090909 47.3 Z" fill="none" stroke="#000000" stroke-miterlimit="10"/></g><g transform="translate(-6,-6) scale(1,1)"><path d="M 1068.328125 53.6 L 1068.328125 66.4" fill="none" stroke="#000000" stroke-miterlimit="10"/></g><g transform="translate(-6,-6) scale(1,1)"><path d="M 1061.5208522727273 58.4 L 1075.1353977272727 58.4" fill="none" stroke="#000000" stroke-miterlimit="10"/></g><g transform="translate(-6,-6) scale(1,1)"><path d="M 1068.328125 66.4 L 1058.8735795454545 79" fill="none" stroke="#000000" stroke-miterlimit="10"/></g><g transform="translate(-6,-6) scale(1,1)"><path d="M 1068.328125 66.4 L 1077.7826704545455 79" fill="none" stroke="#000000" stroke-miterlimit="10"/></g><g transform="translate(-6,-6) scale(1,1)"><g><path fill="none" stroke="none"/><text fill="#000000" font-family="Arial" font-size="13px" font-style="normal" font-weight="bold" stroke="none" text-decoration="none" x="1014.8681640625" y="97.5">: DBMS Farmacie</text></g></g><g transform="translate(-6,-6) scale(1,1)"><path d="M 1069.5 105 L 1069.5 768" fill="none" stroke="#000000" stroke-dasharray="3" stroke-miterlimit="10"/></g><g transform="translate(-6,-6) scale(1,1)"><rect fill="#C0C0C0" height="39" opacity="0.2" stroke="none" width="161.9873046875" x="207" y="47"/></g><g transform="translate(-6,-6) scale(1,1)"><rect fill="#ffffff" height="39" stroke="none" width="161.9873046875" x="200" y="40"/></g><g transform="translate(-6,-6) scale(1,1)"><path d="M 200 40 L 361.9873046875 40 L 361.9873046875 79 L 200 79 L 200 40 Z Z" fill="none" stroke="#000000" stroke-miterlimit="10"/></g><g transform="translate(-6,-6) scale(1,1)"><g><path fill="none" stroke="none"/><text fill="#000000" font-family="Arial" font-size="13px" font-style="normal" font-weight="normal" stroke="none" text-decoration="none" x="245.938720703125" y="55.5">«Boundary»</text></g></g><g transform="translate(-6,-6) scale(1,1)"><g><path fill="none" stroke="none"/><text fill="#000000" font-family="Arial" font-size="13px" font-style="normal" font-weight="bold" stroke="none" text-decoration="none" x="238.0390625" y="70.5">:ModuloLogin</text></g></g><g transform="translate(-6,-6) scale(1,1)"><path d="M 281.5 80 L 281.5 309" fill="none" stroke="#000000" stroke-dasharray="3" stroke-miterlimit="10"/></g><g transform="translate(-6,-6) scale(1,1)"><rect fill="#C0C0C0" height="39" opacity="0.2" stroke="none" width="125.16455078125" x="295" y="163"/></g><g transform="translate(-6,-6) scale(1,1)"><rect fill="#ffffff" height="39" stroke="none" width="125.16455078125" x="288" y="156"/></g><g transform="translate(-6,-6) scale(1,1)"><path d="M 288 156 L 413.16455078125 156 L 413.16455078125 195 L 288 195 L 288 156 Z Z" fill="none" stroke="#000000" stroke-miterlimit="10"/></g><g transform="translate(-6,-6) scale(1,1)"><g><path fill="none" stroke="none"/><text fill="#000000" font-family="Arial" font-size="13px" font-style="normal" font-weight="normal" stroke="none" text-decoration="none" x="315.52734375" y="171.5">«Boundary»</text></g></g><g transform="translate(-6,-6) scale(1,1)"><g><path fill="none" stroke="none"/><text fill="#000000" font-family="Arial" font-size="13px" font-style="normal" font-weight="bold" stroke="none" text-decoration="none" x="297.5" y="186.5">ModuloRecupero</text></g></g><g transform="translate(-6,-6) scale(1,1)"><path d="M 351.5 196 L 351.5 1008" fill="none" stroke="#000000" stroke-dasharray="3" stroke-miterlimit="10"/></g><g transform="translate(-6,-6) scale(1,1)"><rect fill="#C0C0C0" height="39" opacity="0.2" stroke="none" width="108.5654296875" x="855" y="47"/></g><g transform="translate(-6,-6) scale(1,1)"><rect fill="#ffffff" height="39" stroke="none" width="108.5654296875" x="848" y="40"/></g><g transform="translate(-6,-6) scale(1,1)"><path d="M 848 40 L 956.5654296875 40 L 956.5654296875 79 L 848 79 L 848 40 Z Z" fill="none" stroke="#000000" stroke-miterlimit="10"/></g><g transform="translate(-6,-6) scale(1,1)"><g><path fill="none" stroke="none"/><text fill="#000000" font-family="Arial" font-size="13px" font-style="normal" font-weight="normal" stroke="none" text-decoration="none" x="867.227783203125" y="55.5">«Boundary»</text></g></g><g transform="translate(-6,-6) scale(1,1)"><g><path fill="none" stroke="none"/><text fill="#000000" font-family="Arial" font-size="13px" font-style="normal" font-weight="bold" stroke="none" text-decoration="none" x="857.5" y="70.5">DBMSDaemon</text></g></g><g transform="translate(-6,-6) scale(1,1)"><path d="M 903.5 80 L 903.5 768" fill="none" stroke="#000000" stroke-dasharray="3" stroke-miterlimit="10"/></g><g transform="translate(-6,-6) scale(1,1)"><rect fill="#C0C0C0" height="39" opacity="0.2" stroke="none" width="128.0908203125" x="479" y="123"/></g><g transform="translate(-6,-6) scale(1,1)"><rect fill="#ffffff" height="39" stroke="none" width="128.0908203125" x="472" y="116"/></g><g transform="translate(-6,-6) scale(1,1)"><path d="M 472 116 L 600.0908203125 116 L 600.0908203125 155 L 472 155 L 472 116 Z Z" fill="none" stroke="#000000" stroke-miterlimit="10"/></g><g transform="translate(-6,-6) scale(1,1)"><g><path fill="none" stroke="none"/><text fill="#000000" font-family="Arial" font-size="13px" font-style="normal" font-weight="normal" stroke="none" text-decoration="none" x="507.86181640625" y="131.5">«Control»</text></g></g><g transform="translate(-6,-6) scale(1,1)"><g><path fill="none" stroke="none"/><text fill="#000000" font-family="Arial" font-size="13px" font-style="normal" font-weight="bold" stroke="none" text-decoration="none" x="481.5" y="146.5">GestoreRecupero</text></g></g><g transform="translate(-6,-6) scale(1,1)"><path d="M 537.5 156 L 537.5 920" fill="none" stroke="#000000" stroke-dasharray="3" stroke-miterlimit="10"/></g><g transform="translate(-6,-6) scale(1,1)"><rect fill="#C0C0C0" height="39" opacity="0.2" stroke="none" width="112.1962890625" x="679" y="459"/></g><g transform="translate(-6,-6) scale(1,1)"><rect fill="#ffffff" height="39" stroke="none" width="112.1962890625" x="672" y="452"/></g><g transform="translate(-6,-6) scale(1,1)"><path d="M 672 452 L 784.1962890625 452 L 784.1962890625 491 L 672 491 L 672 452 Z Z" fill="none" stroke="#000000" stroke-miterlimit="10"/></g><g transform="translate(-6,-6) scale(1,1)"><g><path fill="none" stroke="none"/><text fill="#000000" font-family="Arial" font-size="13px" font-style="normal" font-weight="normal" stroke="none" text-decoration="none" x="693.043212890625" y="467.5">«Boundary»</text></g></g><g transform="translate(-6,-6) scale(1,1)"><g><path fill="none" stroke="none"/><text fill="#000000" font-family="Arial" font-size="13px" font-style="normal" font-weight="bold" stroke="none" text-decoration="none" x="681.5" y="482.5">PannelloErrore</text></g></g><g transform="translate(-6,-6) scale(1,1)"><path d="M 729.5 492 L 729.5 546" fill="none" stroke="#000000" stroke-dasharray="3" stroke-miterlimit="10"/></g><g transform="translate(-6,-6) scale(1,1)"><rect fill="#C0C0C0" height="39" opacity="0.2" stroke="none" width="133.8544921875" x="191" y="846"/></g><g transform="translate(-6,-6) scale(1,1)"><rect fill="#ffffff" height="39" stroke="none" width="133.8544921875" x="184" y="839"/></g><g transform="translate(-6,-6) scale(1,1)"><path d="M 184 839 L 317.8544921875 839 L 317.8544921875 878 L 184 878 L 184 839 Z Z" fill="none" stroke="#000000" stroke-miterlimit="10"/></g><g transform="translate(-6,-6) scale(1,1)"><g><path fill="none" stroke="none"/><text fill="#000000" font-family="Arial" font-size="13px" font-style="normal" font-weight="normal" stroke="none" text-decoration="none" x="215.872314453125" y="854.5">«Boundary»</text></g></g><g transform="translate(-6,-6) scale(1,1)"><g><path fill="none" stroke="none"/><text fill="#000000" font-family="Arial" font-size="13px" font-style="normal" font-weight="bold" stroke="none" text-decoration="none" x="193.5" y="869.5">PannelloConferma</text></g></g><g transform="translate(-6,-6) scale(1,1)"><path d="M 251.5 879 L 251.5 994" fill="none" stroke="#000000" stroke-dasharray="3" stroke-miterlimit="10"/></g><g transform="translate(-6,-6) scale(1,1)"><path d="M 101 120 L 274 120" fill="none" stroke="#000000" stroke-miterlimit="10"/></g><g transform="translate(-6,-6) scale(1,1)"><path d="M 263.83732514237585 124.20951775601598 L 274 120 L 263.83732514237585 115.79048224398402" fill="#000000" stroke="none"/></g><g transform="translate(-6,-6) scale(1,1)"><path d="M 263.83732514237585 124.20951775601598 L 274 120 L 263.83732514237585 115.79048224398402 L 263.83732514237585 124.20951775601598" fill="none" stroke="#000000" stroke-miterlimit="10"/></g><g transform="translate(-6,-6) scale(1,1)"><g><path fill="none" stroke="none"/><text fill="#000000" font-family="Arial" font-size="13px" font-style="normal" font-weight="normal" stroke="none" text-decoration="none" x="104.5" y="114.5">1 : clickRecuperaCredenziali</text></g></g><g transform="translate(-6,-6) scale(1,1)"><rect fill="#ffffff" height="28" stroke="none" width="13" x="274" y="120"/></g><g transform="translate(-6,-6) scale(1,1)"><path d="M 274 120 L 287 120 L 287 148 L 274 148 L 274 120 Z Z" fill="none" stroke="#000000" stroke-miterlimit="10"/></g><g transform="translate(-6,-6) scale(1,1)"><path d="M 287 136 L 472 136" fill="none" stroke="#000000" stroke-dasharray="3" stroke-miterlimit="10"/></g><g transform="translate(-6,-6) scale(1,1)"><path d="M 461.83732514237585 140.209517756016 L 472 136 L 461.83732514237585 131.790482243984" fill="none" stroke="#000000" stroke-miterlimit="10"/></g><g transform="translate(-6,-6) scale(1,1)"><g><path fill="none" stroke="none"/><text fill="#000000" font-family="Arial" font-size="13px" font-style="normal" font-weight="normal" stroke="none" text-decoration="none" x="290.5" y="130.5">2 : clickRecuperaCredenziali( )</text></g></g><g transform="translate(-6,-6) scale(1,1)"><g><path fill="none" stroke="none"/><text fill="#000000" font-family="Arial" font-size="13px" font-style="normal" font-weight="normal" stroke="none" text-decoration="none" x="353.5" y="115.5">«create»</text></g></g><g transform="translate(-6,-6) scale(1,1)"><path d="M 537 176 L 413.16455078125 176" fill="none" stroke="#000000" stroke-dasharray="3" stroke-miterlimit="10"/></g><g transform="translate(-6,-6) scale(1,1)"><path d="M 423.32722563887415 171.790482243984 L 413.16455078125 176 L 423.32722563887415 180.209517756016" fill="none" stroke="#000000" stroke-miterlimit="10"/></g><g transform="translate(-6,-6) scale(1,1)"><g><path fill="none" stroke="none"/><text fill="#000000" font-family="Arial" font-size="13px" font-style="normal" font-weight="normal" stroke="none" text-decoration="none" x="464.5" y="190.5">3 : </text></g></g><g transform="translate(-6,-6) scale(1,1)"><g><path fill="none" stroke="none"/><text fill="#000000" font-family="Arial" font-size="13px" font-style="normal" font-weight="normal" stroke="none" text-decoration="none" x="448.5" y="205.5">«create»</text></g></g><g transform="translate(-6,-6) scale(1,1)"><path d="M 101 296 L 344 296" fill="none" stroke="#000000" stroke-miterlimit="10"/></g><g transform="translate(-6,-6) scale(1,1)"><path d="M 333.83732514237585 300.209517756016 L 344 296 L 333.83732514237585 291.790482243984" fill="#000000" stroke="none"/></g><g transform="translate(-6,-6) scale(1,1)"><path d="M 333.83732514237585 300.209517756016 L 344 296 L 333.83732514237585 291.790482243984 L 333.83732514237585 300.209517756016" fill="none" stroke="#000000" stroke-miterlimit="10"/></g><g transform="translate(-6,-6) scale(1,1)"><g><path fill="none" stroke="none"/><text fill="#000000" font-family="Arial" font-size="13px" font-style="normal" font-weight="normal" stroke="none" text-decoration="none" x="185.39453125" y="290.5">5 : conferma</text></g></g><g transform="translate(-6,-6) scale(1,1)"><rect fill="#ffffff" height="28" stroke="none" width="13" x="344" y="296"/></g><g transform="translate(-6,-6) scale(1,1)"><path d="M 344 296 L 357 296 L 357 324 L 344 324 L 344 296 Z Z" fill="none" stroke="#000000" stroke-miterlimit="10"/></g><g transform="translate(-6,-6) scale(1,1)"><path d="M 357 304 L 530 304" fill="none" stroke="#000000" stroke-miterlimit="10"/></g><g transform="translate(-6,-6) scale(1,1)"><path d="M 519.8373251423759 308.209517756016 L 530 304 L 519.8373251423758 299.790482243984" fill="#000000" stroke="none"/></g><g transform="translate(-6,-6) scale(1,1)"><path d="M 519.8373251423759 308.209517756016 L 530 304 L 519.8373251423758 299.790482243984 L 519.8373251423759 308.209517756016" fill="none" stroke="#000000" stroke-miterlimit="10"/></g><g transform="translate(-6,-6) scale(1,1)"><g><path fill="none" stroke="none"/><text fill="#000000" font-family="Arial" font-size="13px" font-style="normal" font-weight="normal" stroke="none" text-decoration="none" x="368.5" y="298.5">6 : verificaEsistenza(mail)</text></g></g><g transform="translate(-6,-6) scale(1,1)"><rect fill="#ffffff" height="72" stroke="none" width="13" x="530" y="304"/></g><g transform="translate(-6,-6) scale(1,1)"><path d="M 530 304 L 543 304 L 543 376 L 530 376 L 530 304 Z Z" fill="none" stroke="#000000" stroke-miterlimit="10"/></g><g transform="translate(-6,-6) scale(1,1)"><path d="M 543 312 L 896 312" fill="none" stroke="#000000" stroke-miterlimit="10"/></g><g transform="translate(-6,-6) scale(1,1)"><path d="M 885.8373251423759 316.209517756016 L 896 312 L 885.8373251423758 307.790482243984" fill="#000000" stroke="none"/></g><g transform="translate(-6,-6) scale(1,1)"><path d="M 885.8373251423759 316.209517756016 L 896 312 L 885.8373251423758 307.790482243984 L 885.8373251423759 316.209517756016" fill="none" stroke="#000000" stroke-miterlimit="10"/></g><g transform="translate(-6,-6) scale(1,1)"><g><path fill="none" stroke="none"/><text fill="#000000" font-family="Arial" font-size="13px" font-style="normal" font-weight="normal" stroke="none" text-decoration="none" x="645.114990234375" y="306.5">7 : verificaEsistenza(mail)</text></g></g><g transform="translate(-6,-6) scale(1,1)"><rect fill="#ffffff" height="64" stroke="none" width="13" x="896" y="312"/></g><g transform="translate(-6,-6) scale(1,1)"><path d="M 896 312 L 909 312 L 909 376 L 896 376 L 896 312 Z Z" fill="none" stroke="#000000" stroke-miterlimit="10"/></g><g transform="translate(-6,-6) scale(1,1)"><path d="M 909 328 L 1062 328" fill="none" stroke="#000000" stroke-miterlimit="10"/></g><g transform="translate(-6,-6) scale(1,1)"><path d="M 1051.837325142376 332.209517756016 L 1062 328 L 1051.837325142376 323.790482243984" fill="#000000" stroke="none"/></g><g transform="translate(-6,-6) scale(1,1)"><path d="M 1051.837325142376 332.209517756016 L 1062 328 L 1051.837325142376 323.790482243984 L 1051.837325142376 332.209517756016" fill="none" stroke="#000000" stroke-miterlimit="10"/></g><g transform="translate(-6,-6) scale(1,1)"><g><path fill="none" stroke="none"/><text fill="#000000" font-family="Arial" font-size="13px" font-style="normal" font-weight="normal" stroke="none" text-decoration="none" x="910.5" y="322.5">8 : verificaEsistenza(mail)</text></g></g><g transform="translate(-6,-6) scale(1,1)"><rect fill="#ffffff" height="28" stroke="none" width="13" x="1062" y="328"/></g><g transform="translate(-6,-6) scale(1,1)"><path d="M 1062 328 L 1075 328 L 1075 356 L 1062 356 L 1062 328 Z Z" fill="none" stroke="#000000" stroke-miterlimit="10"/></g><g transform="translate(-6,-6) scale(1,1)"><path d="M 1062 348 L 909 348" fill="none" stroke="#000000" stroke-dasharray="3" stroke-miterlimit="10"/></g><g transform="translate(-6,-6) scale(1,1)"><path d="M 919.1626748576241 343.790482243984 L 909 348 L 919.1626748576241 352.209517756016" fill="none" stroke="#000000" stroke-miterlimit="10"/></g><g transform="translate(-6,-6) scale(1,1)"><g><path fill="none" stroke="none"/><text fill="#000000" font-family="Arial" font-size="13px" font-style="normal" font-weight="normal" stroke="none" text-decoration="none" x="960.759521484375" y="362.5">9 : esito</text></g></g><g transform="translate(-6,-6) scale(1,1)"><path d="M 896 363 L 543 363" fill="none" stroke="#000000" stroke-dasharray="3" stroke-miterlimit="10"/></g><g transform="translate(-6,-6) scale(1,1)"><path d="M 553.1626748576241 358.790482243984 L 543 363 L 553.1626748576241 367.209517756016" fill="none" stroke="#000000" stroke-miterlimit="10"/></g><g transform="translate(-6,-6) scale(1,1)"><g><path fill="none" stroke="none"/><text fill="#000000" font-family="Arial" font-size="13px" font-style="normal" font-weight="normal" stroke="none" text-decoration="none" x="691.5" y="377.5">10 : esito</text></g></g><g transform="translate(-6,-6) scale(1,1)"><path d="M 537 472 L 672 472" fill="none" stroke="#000000" stroke-dasharray="3" stroke-miterlimit="10"/></g><g transform="translate(-6,-6) scale(1,1)"><path d="M 661.8373251423759 476.209517756016 L 672 472 L 661.8373251423758 467.790482243984" fill="none" stroke="#000000" stroke-miterlimit="10"/></g><g transform="translate(-6,-6) scale(1,1)"><g><path fill="none" stroke="none"/><text fill="#000000" font-family="Arial" font-size="13px" font-style="normal" font-weight="normal" stroke="none" text-decoration="none" x="591.982421875" y="466.5">11 : </text></g></g><g transform="translate(-6,-6) scale(1,1)"><g><path fill="none" stroke="none"/><text fill="#000000" font-family="Arial" font-size="13px" font-style="normal" font-weight="normal" stroke="none" text-decoration="none" x="578.5" y="451.5">«create»</text></g></g><g transform="translate(-6,-6) scale(1,1)"><path d="M 101 504 L 722 504" fill="none" stroke="#000000" stroke-miterlimit="10"/></g><g transform="translate(-6,-6) scale(1,1)"><path d="M 711.8373251423759 508.209517756016 L 722 504 L 711.8373251423758 499.790482243984" fill="#000000" stroke="none"/></g><g transform="translate(-6,-6) scale(1,1)"><path d="M 711.8373251423759 508.209517756016 L 722 504 L 711.8373251423758 499.790482243984 L 711.8373251423759 508.209517756016" fill="none" stroke="#000000" stroke-miterlimit="10"/></g><g transform="translate(-6,-6) scale(1,1)"><path d="M 719 536 L 739 556" fill="none" stroke="#000000" stroke-miterlimit="10"/></g><g transform="translate(-6,-6) scale(1,1)"><path d="M 739 536 L 719 556" fill="none" stroke="#000000" stroke-miterlimit="10"/></g><g transform="translate(-6,-6) scale(1,1)"><g><path fill="none" stroke="none"/><text fill="#000000" font-family="Arial" font-size="13px" font-style="normal" font-weight="normal" stroke="none" text-decoration="none" x="365.312255859375" y="498.5">12 : conferma( )</text></g></g><g transform="translate(-6,-6) scale(1,1)"><g><path fill="none" stroke="none"/><text fill="#000000" font-family="Arial" font-size="13px" font-style="normal" font-weight="normal" stroke="none" text-decoration="none" x="382.5" y="483.5">«destroy»</text></g></g><g transform="translate(-6,-6) scale(1,1)"><rect fill="#ffffff" height="28" stroke="none" width="13" x="722" y="504"/></g><g transform="translate(-6,-6) scale(1,1)"><path d="M 722 504 L 735 504 L 735 532 L 722 532 L 722 504 Z Z" fill="none" stroke="#000000" stroke-miterlimit="10"/></g><g transform="translate(-6,-6) scale(1,1)"><path d="M 537 592 L 567 592 L 567 612 L 543 612" fill="none" stroke="#000000" stroke-miterlimit="10"/></g><g transform="translate(-6,-6) scale(1,1)"><path d="M 553.1626748576241 607.790482243984 L 543 612 L 553.1626748576241 616.209517756016" fill="#000000" stroke="none"/></g><g transform="translate(-6,-6) scale(1,1)"><path d="M 553.1626748576241 607.790482243984 L 543 612 L 553.1626748576241 616.209517756016 L 553.1626748576241 607.790482243984" fill="none" stroke="#000000" stroke-miterlimit="10"/></g><g transform="translate(-6,-6) scale(1,1)"><g><path fill="none" stroke="none"/><text fill="#000000" font-family="Arial" font-size="13px" font-style="normal" font-weight="normal" stroke="none" text-decoration="none" x="399.5" y="604.5">13 : generaPassword( )</text></g></g><g transform="translate(-6,-6) scale(1,1)"><rect fill="#ffffff" height="220" stroke="none" width="13" x="530" y="612"/></g><g transform="translate(-6,-6) scale(1,1)"><path d="M 530 612 L 543 612 L 543 832 L 530 832 L 530 612 Z Z" fill="none" stroke="#000000" stroke-miterlimit="10"/></g><g transform="translate(-6,-6) scale(1,1)"><path d="M 543 656 L 896 656" fill="none" stroke="#000000" stroke-miterlimit="10"/></g><g transform="translate(-6,-6) scale(1,1)"><path d="M 885.8373251423759 660.209517756016 L 896 656 L 885.8373251423758 651.790482243984" fill="#000000" stroke="none"/></g><g transform="translate(-6,-6) scale(1,1)"><path d="M 885.8373251423759 660.209517756016 L 896 656 L 885.8373251423758 651.790482243984 L 885.8373251423759 660.209517756016" fill="none" stroke="#000000" stroke-miterlimit="10"/></g><g transform="translate(-6,-6) scale(1,1)"><g><path fill="none" stroke="none"/><text fill="#000000" font-family="Arial" font-size="13px" font-style="normal" font-weight="normal" stroke="none" text-decoration="none" x="586.5" y="650.5">14 : aggiornaPassword(mail, nuovaPassword)</text></g></g><g transform="translate(-6,-6) scale(1,1)"><rect fill="#ffffff" height="64" stroke="none" width="13" x="896" y="656"/></g><g transform="translate(-6,-6) scale(1,1)"><path d="M 896 656 L 909 656 L 909 720 L 896 720 L 896 656 Z Z" fill="none" stroke="#000000" stroke-miterlimit="10"/></g><g transform="translate(-6,-6) scale(1,1)"><path d="M 909 672 L 1062 672" fill="none" stroke="#000000" stroke-miterlimit="10"/></g><g transform="translate(-6,-6) scale(1,1)"><path d="M 1051.837325142376 676.209517756016 L 1062 672 L 1051.837325142376 667.790482243984" fill="#000000" stroke="none"/></g><g transform="translate(-6,-6) scale(1,1)"><path d="M 1051.837325142376 676.209517756016 L 1062 672 L 1051.837325142376 667.790482243984 L 1051.837325142376 676.209517756016" fill="none" stroke="#000000" stroke-miterlimit="10"/></g><g transform="translate(-6,-6) scale(1,1)"><g><path fill="none" stroke="none"/><text fill="#000000" font-family="Arial" font-size="13px" font-style="normal" font-weight="normal" stroke="none" text-decoration="none" x="918.93359375" y="649.5">15 : aggiornaPassword(mail,</text><text fill="#000000" font-family="Arial" font-size="13px" font-style="normal" font-weight="normal" stroke="none" text-decoration="none" x="952.8935546875" y="662.5">nuovaPassword)</text></g></g><g transform="translate(-6,-6) scale(1,1)"><rect fill="#ffffff" height="28" stroke="none" width="13" x="1062" y="672"/></g><g transform="translate(-6,-6) scale(1,1)"><path d="M 1062 672 L 1075 672 L 1075 700 L 1062 700 L 1062 672 Z Z" fill="none" stroke="#000000" stroke-miterlimit="10"/></g><g transform="translate(-6,-6) scale(1,1)"><path d="M 1062 692 L 909 692" fill="none" stroke="#000000" stroke-dasharray="3" stroke-miterlimit="10"/></g><g transform="translate(-6,-6) scale(1,1)"><path d="M 919.1626748576241 687.790482243984 L 909 692 L 919.1626748576241 696.209517756016" fill="none" stroke="#000000" stroke-miterlimit="10"/></g><g transform="translate(-6,-6) scale(1,1)"><g><path fill="none" stroke="none"/><text fill="#000000" font-family="Arial" font-size="13px" font-style="normal" font-weight="normal" stroke="none" text-decoration="none" x="957.759521484375" y="706.5">16 : esito</text></g></g><g transform="translate(-6,-6) scale(1,1)"><path d="M 896 706 L 543 706" fill="none" stroke="#000000" stroke-dasharray="3" stroke-miterlimit="10"/></g><g transform="translate(-6,-6) scale(1,1)"><path d="M 553.1626748576241 701.790482243984 L 543 706 L 553.1626748576241 710.209517756016" fill="none" stroke="#000000" stroke-miterlimit="10"/></g><g transform="translate(-6,-6) scale(1,1)"><g><path fill="none" stroke="none"/><text fill="#000000" font-family="Arial" font-size="13px" font-style="normal" font-weight="normal" stroke="none" text-decoration="none" x="691.5" y="720.5">17 : esito</text></g></g><g transform="translate(-6,-6) scale(1,1)"><path d="M 543 728 L 573 728 L 573 748 L 550 748" fill="none" stroke="#000000" stroke-miterlimit="10"/></g><g transform="translate(-6,-6) scale(1,1)"><path d="M 560.1626748576241 743.790482243984 L 550 748 L 560.1626748576241 752.209517756016" fill="#000000" stroke="none"/></g><g transform="translate(-6,-6) scale(1,1)"><path d="M 560.1626748576241 743.790482243984 L 550 748 L 560.1626748576241 752.209517756016 L 560.1626748576241 743.790482243984" fill="none" stroke="#000000" stroke-miterlimit="10"/></g><g transform="translate(-6,-6) scale(1,1)"><g><path fill="none" stroke="none"/><text fill="#000000" font-family="Arial" font-size="13px" font-style="normal" font-weight="normal" stroke="none" text-decoration="none" x="567.93359375" y="761.5">18 : inviaMail(mail,</text><text fill="#000000" font-family="Arial" font-size="13px" font-style="normal" font-weight="normal" stroke="none" text-decoration="none" x="573.341796875" y="774.5">nuovaPassword)</text></g></g><g transform="translate(-6,-6) scale(1,1)"><rect fill="#ffffff" height="28" stroke="none" width="13" x="537" y="748"/></g><g transform="translate(-6,-6) scale(1,1)"><path d="M 537 748 L 550 748 L 550 776 L 537 776 L 537 748 Z Z" fill="none" stroke="#000000" stroke-miterlimit="10"/></g><g transform="translate(-6,-6) scale(1,1)"><path d="M 543 824 L 573 824 L 573 844 L 543 844" fill="none" stroke="#000000" stroke-miterlimit="10"/></g><g transform="translate(-6,-6) scale(1,1)"><path d="M 553.1626748576241 839.790482243984 L 543 844 L 553.1626748576241 848.209517756016" fill="#000000" stroke="none"/></g><g transform="translate(-6,-6) scale(1,1)"><path d="M 553.1626748576241 839.790482243984 L 543 844 L 553.1626748576241 848.209517756016 L 553.1626748576241 839.790482243984" fill="none" stroke="#000000" stroke-miterlimit="10"/></g><g transform="translate(-6,-6) scale(1,1)"><path d="M 527 910 L 547 930" fill="none" stroke="#000000" stroke-miterlimit="10"/></g><g transform="translate(-6,-6) scale(1,1)"><path d="M 547 910 L 527 930" fill="none" stroke="#000000" stroke-miterlimit="10"/></g><g transform="translate(-6,-6) scale(1,1)"><g><path fill="none" stroke="none"/><text fill="#000000" font-family="Arial" font-size="13px" font-style="normal" font-weight="normal" stroke="none" text-decoration="none" x="573.5" y="826.5">19 : </text></g></g><g transform="translate(-6,-6) scale(1,1)"><g><path fill="none" stroke="none"/><text fill="#000000" font-family="Arial" font-size="13px" font-style="normal" font-weight="normal" stroke="none" text-decoration="none" x="597.5" y="826.5">«destroy»</text></g></g><g transform="translate(-6,-6) scale(1,1)"><rect fill="#ffffff" height="28" stroke="none" width="13" x="530" y="844"/></g><g transform="translate(-6,-6) scale(1,1)"><path d="M 530 844 L 543 844 L 543 872 L 530 872 L 530 844 Z Z" fill="none" stroke="#000000" stroke-miterlimit="10"/></g><g transform="translate(-6,-6) scale(1,1)"><path d="M 530 859 L 317.8544921875 859" fill="none" stroke="#000000" stroke-dasharray="3" stroke-miterlimit="10"/></g><g transform="translate(-6,-6) scale(1,1)"><path d="M 328.01716704512415 854.790482243984 L 317.8544921875 859 L 328.01716704512415 863.209517756016" fill="none" stroke="#000000" stroke-miterlimit="10"/></g><g transform="translate(-6,-6) scale(1,1)"><g><path fill="none" stroke="none"/><text fill="#000000" font-family="Arial" font-size="13px" font-style="normal" font-weight="normal" stroke="none" text-decoration="none" x="409.5" y="873.5">20 : </text></g></g><g transform="translate(-6,-6) scale(1,1)"><g><path fill="none" stroke="none"/><text fill="#000000" font-family="Arial" font-size="13px" font-style="normal" font-weight="normal" stroke="none" text-decoration="none" x="396.5" y="888.5">«create»</text></g></g><g transform="translate(-6,-6) scale(1,1)"><path d="M 101 936 L 244 936" fill="none" stroke="#000000" stroke-miterlimit="10"/></g><g transform="translate(-6,-6) scale(1,1)"><path d="M 233.83732514237585 940.209517756016 L 244 936 L 233.83732514237585 931.790482243984" fill="#000000" stroke="none"/></g><g transform="translate(-6,-6) scale(1,1)"><path d="M 233.83732514237585 940.209517756016 L 244 936 L 233.83732514237585 931.790482243984 L 233.83732514237585 940.209517756016" fill="none" stroke="#000000" stroke-miterlimit="10"/></g><g transform="translate(-6,-6) scale(1,1)"><path d="M 241 984 L 261 1004" fill="none" stroke="#000000" stroke-miterlimit="10"/></g><g transform="translate(-6,-6) scale(1,1)"><path d="M 261 984 L 241 1004" fill="none" stroke="#000000" stroke-miterlimit="10"/></g><g transform="translate(-6,-6) scale(1,1)"><g><path fill="none" stroke="none"/><text fill="#000000" font-family="Arial" font-size="13px" font-style="normal" font-weight="normal" stroke="none" text-decoration="none" x="124.447265625" y="929.5">21 : conferma</text></g></g><g transform="translate(-6,-6) scale(1,1)"><g><path fill="none" stroke="none"/><text fill="#000000" font-family="Arial" font-size="13px" font-style="normal" font-weight="normal" stroke="none" text-decoration="none" x="143.5" y="915.5">«destroy»</text></g></g><g transform="translate(-6,-6) scale(1,1)"><rect fill="#ffffff" height="28" stroke="none" width="13" x="244" y="936"/></g><g transform="translate(-6,-6) scale(1,1)"><path d="M 244 936 L 257 936 L 257 964 L 244 964 L 244 936 Z Z" fill="none" stroke="#000000" stroke-miterlimit="10"/></g><g transform="translate(-6,-6) scale(1,1)"><path d="M 257 952 L 344 952" fill="none" stroke="#000000" stroke-miterlimit="10"/></g><g transform="translate(-6,-6) scale(1,1)"><path d="M 333.83732514237585 956.209517756016 L 344 952 L 333.83732514237585 947.790482243984" fill="#000000" stroke="none"/></g><g transform="translate(-6,-6) scale(1,1)"><path d="M 333.83732514237585 956.209517756016 L 344 952 L 333.83732514237585 947.790482243984 L 333.83732514237585 956.209517756016" fill="none" stroke="#000000" stroke-miterlimit="10"/></g><g transform="translate(-6,-6) scale(1,1)"><path d="M 341 998 L 361 1018" fill="none" stroke="#000000" stroke-miterlimit="10"/></g><g transform="translate(-6,-6) scale(1,1)"><path d="M 361 998 L 341 1018" fill="none" stroke="#000000" stroke-miterlimit="10"/></g><g transform="translate(-6,-6) scale(1,1)"><g><path fill="none" stroke="none"/><text fill="#000000" font-family="Arial" font-size="13px" font-style="normal" font-weight="normal" stroke="none" text-decoration="none" x="287.5" y="946.5">22 : </text></g></g><g transform="translate(-6,-6) scale(1,1)"><g><path fill="none" stroke="none"/><text fill="#000000" font-family="Arial" font-size="13px" font-style="normal" font-weight="normal" stroke="none" text-decoration="none" x="271.5" y="931.5">«destroy»</text></g></g><g transform="translate(-6,-6) scale(1,1)"><rect fill="#ffffff" height="28" stroke="none" width="13" x="344" y="952"/></g><g transform="translate(-6,-6) scale(1,1)"><path d="M 344 952 L 357 952 L 357 980 L 344 980 L 344 952 Z Z" fill="none" stroke="#000000" stroke-miterlimit="10"/></g><g transform="translate(-6,-6) scale(1,1)"><path d="M 101 248 L 344 248" fill="none" stroke="#000000" stroke-miterlimit="10"/></g><g transform="translate(-6,-6) scale(1,1)"><path d="M 333.83732514237585 252.209517756016 L 344 248 L 333.83732514237585 243.790482243984" fill="#000000" stroke="none"/></g><g transform="translate(-6,-6) scale(1,1)"><path d="M 333.83732514237585 252.209517756016 L 344 248 L 333.83732514237585 243.790482243984 L 333.83732514237585 252.209517756016" fill="none" stroke="#000000" stroke-miterlimit="10"/></g><g transform="translate(-6,-6) scale(1,1)"><g><path fill="none" stroke="none"/><text fill="#000000" font-family="Arial" font-size="13px" font-style="normal" font-weight="normal" stroke="none" text-decoration="none" x="161.114990234375" y="242.5">4 : inserisciMail(mail)</text></g></g><g transform="translate(-6,-6) scale(1,1)"><rect fill="#ffffff" height="32" stroke="none" width="13" x="344" y="248"/></g><g transform="translate(-6,-6) scale(1,1)"><path d="M 344 248 L 357 248 L 357 280 L 344 280 L 344 248 Z Z" fill="none" stroke="#000000" stroke-miterlimit="10"/></g><g transform="translate(-6,-6) scale(1,1)"><path d="M 56 208 L 1096 208 L 1096 584 L 56 584 L 56 208" fill="none" stroke="#000000" stroke-miterlimit="10"/></g><g transform="translate(-6,-6) scale(1,1)"><path d="M 56 208 L 56 230 L 215.80615234375 230 L 226.80615234375 219 L 226.80615234375 208 L 56 208" fill="#ffffff" stroke="none"/></g><g transform="translate(-6,-6) scale(1,1)"><path d="M 56 208 L 56 230 L 215.80615234375 230 L 226.80615234375 219 L 226.80615234375 208 L 56 208 L 56 208" fill="none" stroke="#000000" stroke-miterlimit="10"/></g><g transform="translate(-6,-6) scale(1,1)"><g><path fill="none" stroke="none"/><text fill="#000000" font-family="Arial" font-size="13px" font-style="normal" font-weight="normal" stroke="none" text-decoration="none" x="91.578125" y="223.5">[ mail non esistente ]</text></g></g><g transform="translate(-6,-6) scale(1,1)"><g><path fill="none" stroke="none"/><text fill="#000000" font-family="Arial" font-size="13px" font-style="normal" font-weight="bold" stroke="none" text-decoration="none" x="59.57177734375" y="223.5">loop</text></g></g><g transform="translate(-6,-6) scale(1,1)"><path d="M 288 392 L 807 392 L 807 568 L 288 568 L 288 392" fill="none" stroke="#000000" stroke-miterlimit="10"/></g><g transform="translate(-6,-6) scale(1,1)"><path d="M 288 392 L 288 414 L 444.91162109375 414 L 455.91162109375 403 L 455.91162109375 392 L 288 392" fill="#ffffff" stroke="none"/></g><g transform="translate(-6,-6) scale(1,1)"><path d="M 288 392 L 288 414 L 444.91162109375 414 L 455.91162109375 403 L 455.91162109375 392 L 288 392 L 288 392" fill="none" stroke="#000000" stroke-miterlimit="10"/></g><g transform="translate(-6,-6) scale(1,1)"><g><path fill="none" stroke="none"/><text fill="#000000" font-family="Arial" font-size="13px" font-style="normal" font-weight="normal" stroke="none" text-decoration="none" x="317.07177734375" y="407.5"> [ mail non esistente ]</text></g></g><g transform="translate(-6,-6) scale(1,1)"><g><path fill="none" stroke="none"/><text fill="#000000" font-family="Arial" font-size="13px" font-style="normal" font-weight="bold" stroke="none" text-decoration="none" x="291.930419921875" y="407.5">opt</text></g></g></g></svg>