<?xml version="1.0" encoding="UTF-8" standalone="no"?><svg xmlns="http://www.w3.org/2000/svg" xmlns:xlink="http://www.w3.org/1999/xlink" height="700" version="1.1" width="1100.65625"><defs/><g><g transform="translate(-6,2) scale(1,1)"><path d="M 16 8 L 1088 8 L 1088 688 L 16 688 L 16 8" fill="none" stroke="#000000" stroke-miterlimit="10"/></g><g transform="translate(-6,2) scale(1,1)"><path d="M 16 8 L 16 30 L 118.68359375 30 L 129.68359375 19 L 129.68359375 8 L 16 8" fill="#ffffff" stroke="none"/></g><g transform="translate(-6,2) scale(1,1)"><path d="M 16 8 L 16 30 L 118.68359375 30 L 129.68359375 19 L 129.68359375 8 L 16 8 L 16 8" fill="none" stroke="#000000" stroke-miterlimit="10"/></g><g transform="translate(-6,2) scale(1,1)"><g><path fill="none" stroke="none"/><text fill="#000000" font-family="Arial" font-size="13px" font-style="normal" font-weight="normal" stroke="none" text-decoration="none" x="40.72998046875" y="23.5">Carico Merci</text></g></g><g transform="translate(-6,2) scale(1,1)"><g><path fill="none" stroke="none"/><text fill="#000000" font-family="Arial" font-size="13px" font-style="normal" font-weight="bold" stroke="none" text-decoration="none" x="20.279541015625" y="23.5">sd</text></g></g><g transform="translate(-6,2) scale(1,1)"><path d="M 103.7344833096591 47.3 C 103.7344833096591 43.82060576 106.61288503184092 41 110.16357421875 41 C 113.71426340565908 41 116.5926651278409 43.82060576 116.5926651278409 47.3 C 116.5926651278409 50.779394239999995 113.71426340565908 53.6 110.16357421875 53.6 C 106.61288503184092 53.6 103.7344833096591 50.779394239999995 103.7344833096591 47.3 Z" fill="#ffffff" stroke="none"/></g><g transform="translate(-6,2) scale(1,1)"><path d="M 103.7344833096591 47.3 C 103.7344833096591 43.82060576 106.61288503184092 41 110.16357421875 41 C 113.71426340565908 41 116.5926651278409 43.82060576 116.5926651278409 47.3 C 116.5926651278409 50.779394239999995 113.71426340565908 53.6 110.16357421875 53.6 C 106.61288503184092 53.6 103.7344833096591 50.779394239999995 103.7344833096591 47.3 Z" fill="none" stroke="#000000" stroke-miterlimit="10"/></g><g transform="translate(-6,2) scale(1,1)"><path d="M 110.16357421875 53.6 L 110.16357421875 66.4" fill="none" stroke="#000000" stroke-miterlimit="10"/></g><g transform="translate(-6,2) scale(1,1)"><path d="M 103.35630149147727 58.4 L 116.97084694602273 58.4" fill="none" stroke="#000000" stroke-miterlimit="10"/></g><g transform="translate(-6,2) scale(1,1)"><path d="M 110.16357421875 66.4 L 100.70902876420455 79" fill="none" stroke="#000000" stroke-miterlimit="10"/></g><g transform="translate(-6,2) scale(1,1)"><path d="M 110.16357421875 66.4 L 119.61811967329545 79" fill="none" stroke="#000000" stroke-miterlimit="10"/></g><g transform="translate(-6,2) scale(1,1)"><g><path fill="none" stroke="none"/><text fill="#000000" font-family="Arial" font-size="13px" font-style="normal" font-weight="bold" stroke="none" text-decoration="none" x="71.8681640625" y="97.5">: Farmacista</text></g></g><g transform="translate(-6,2) scale(1,1)"><path d="M 111.5 105 L 111.5 618" fill="none" stroke="#000000" stroke-dasharray="3" stroke-miterlimit="10"/></g><g transform="translate(-6,2) scale(1,1)"><path d="M 1005.899034090909 47.3 C 1005.899034090909 43.82060576 1008.777435813091 41 1012.328125 41 C 1015.878814186909 41 1018.7572159090909 43.82060576 1018.7572159090909 47.3 C 1018.7572159090909 50.779394239999995 1015.878814186909 53.6 1012.328125 53.6 C 1008.777435813091 53.6 1005.899034090909 50.779394239999995 1005.899034090909 47.3 Z" fill="#ffffff" stroke="none"/></g><g transform="translate(-6,2) scale(1,1)"><path d="M 1005.899034090909 47.3 C 1005.899034090909 43.82060576 1008.777435813091 41 1012.328125 41 C 1015.878814186909 41 1018.7572159090909 43.82060576 1018.7572159090909 47.3 C 1018.7572159090909 50.779394239999995 1015.878814186909 53.6 1012.328125 53.6 C 1008.777435813091 53.6 1005.899034090909 50.779394239999995 1005.899034090909 47.3 Z" fill="none" stroke="#000000" stroke-miterlimit="10"/></g><g transform="translate(-6,2) scale(1,1)"><path d="M 1012.328125 53.6 L 1012.328125 66.4" fill="none" stroke="#000000" stroke-miterlimit="10"/></g><g transform="translate(-6,2) scale(1,1)"><path d="M 1005.5208522727272 58.4 L 1019.1353977272727 58.4" fill="none" stroke="#000000" stroke-miterlimit="10"/></g><g transform="translate(-6,2) scale(1,1)"><path d="M 1012.328125 66.4 L 1002.8735795454545 79" fill="none" stroke="#000000" stroke-miterlimit="10"/></g><g transform="translate(-6,2) scale(1,1)"><path d="M 1012.328125 66.4 L 1021.7826704545454 79" fill="none" stroke="#000000" stroke-miterlimit="10"/></g><g transform="translate(-6,2) scale(1,1)"><g><path fill="none" stroke="none"/><text fill="#000000" font-family="Arial" font-size="13px" font-style="normal" font-weight="bold" stroke="none" text-decoration="none" x="958.8681640625" y="97.5">: DBMS Farmacie</text></g></g><g transform="translate(-6,2) scale(1,1)"><path d="M 1013.5 105 L 1013.5 672" fill="none" stroke="#000000" stroke-dasharray="3" stroke-miterlimit="10"/></g><g transform="translate(-6,2) scale(1,1)"><rect fill="#C0C0C0" height="39" opacity="0.2" stroke="none" width="108.5654296875" x="735" y="47"/></g><g transform="translate(-6,2) scale(1,1)"><rect fill="#ffffff" height="39" stroke="none" width="108.5654296875" x="728" y="40"/></g><g transform="translate(-6,2) scale(1,1)"><path d="M 728 40 L 836.5654296875 40 L 836.5654296875 79 L 728 79 L 728 40 Z Z" fill="none" stroke="#000000" stroke-miterlimit="10"/></g><g transform="translate(-6,2) scale(1,1)"><g><path fill="none" stroke="none"/><text fill="#000000" font-family="Arial" font-size="13px" font-style="normal" font-weight="normal" stroke="none" text-decoration="none" x="747.227783203125" y="55.5">«Boundary»</text></g></g><g transform="translate(-6,2) scale(1,1)"><g><path fill="none" stroke="none"/><text fill="#000000" font-family="Arial" font-size="13px" font-style="normal" font-weight="bold" stroke="none" text-decoration="none" x="737.5" y="70.5">DBMSDaemon</text></g></g><g transform="translate(-6,2) scale(1,1)"><path d="M 783.5 80 L 783.5 672" fill="none" stroke="#000000" stroke-dasharray="3" stroke-miterlimit="10"/></g><g transform="translate(-6,2) scale(1,1)"><rect fill="#C0C0C0" height="39" opacity="0.2" stroke="none" width="273.62353515625" x="191" y="47"/></g><g transform="translate(-6,2) scale(1,1)"><rect fill="#ffffff" height="39" stroke="none" width="273.62353515625" x="184" y="40"/></g><g transform="translate(-6,2) scale(1,1)"><path d="M 184 40 L 457.62353515625 40 L 457.62353515625 79 L 184 79 L 184 40 Z Z" fill="none" stroke="#000000" stroke-miterlimit="10"/></g><g transform="translate(-6,2) scale(1,1)"><g><path fill="none" stroke="none"/><text fill="#000000" font-family="Arial" font-size="13px" font-style="normal" font-weight="normal" stroke="none" text-decoration="none" x="285.7568359375" y="55.5">«Boundary»</text></g></g><g transform="translate(-6,2) scale(1,1)"><g><path fill="none" stroke="none"/><text fill="#000000" font-family="Arial" font-size="13px" font-style="normal" font-weight="bold" stroke="none" text-decoration="none" x="193.5" y="70.5">: BottoneCaricoMerci[id = codice_ordine]</text></g></g><g transform="translate(-6,2) scale(1,1)"><path d="M 321.5 80 L 321.5 162" fill="none" stroke="#000000" stroke-dasharray="3" stroke-miterlimit="10"/></g><g transform="translate(-6,2) scale(1,1)"><rect fill="#C0C0C0" height="39" opacity="0.2" stroke="none" width="265.71435546875" x="439" y="123"/></g><g transform="translate(-6,2) scale(1,1)"><rect fill="#ffffff" height="39" stroke="none" width="265.71435546875" x="432" y="116"/></g><g transform="translate(-6,2) scale(1,1)"><path d="M 432 116 L 697.71435546875 116 L 697.71435546875 155 L 432 155 L 432 116 Z Z" fill="none" stroke="#000000" stroke-miterlimit="10"/></g><g transform="translate(-6,2) scale(1,1)"><g><path fill="none" stroke="none"/><text fill="#000000" font-family="Arial" font-size="13px" font-style="normal" font-weight="normal" stroke="none" text-decoration="none" x="536.673583984375" y="131.5">«Control»</text></g></g><g transform="translate(-6,2) scale(1,1)"><g><path fill="none" stroke="none"/><text fill="#000000" font-family="Arial" font-size="13px" font-style="normal" font-weight="bold" stroke="none" text-decoration="none" x="441.5" y="146.5">GestoreCaricoMerci[id = codice_ordine]</text></g></g><g transform="translate(-6,2) scale(1,1)"><path d="M 565.5 156 L 565.5 669" fill="none" stroke="#000000" stroke-dasharray="3" stroke-miterlimit="10"/></g><g transform="translate(-6,2) scale(1,1)"><rect fill="#C0C0C0" height="39" opacity="0.2" stroke="none" width="289.55615234375" x="167" y="187"/></g><g transform="translate(-6,2) scale(1,1)"><rect fill="#ffffff" height="39" stroke="none" width="289.55615234375" x="160" y="180"/></g><g transform="translate(-6,2) scale(1,1)"><path d="M 160 180 L 449.55615234375 180 L 449.55615234375 219 L 160 219 L 160 180 Z Z" fill="none" stroke="#000000" stroke-miterlimit="10"/></g><g transform="translate(-6,2) scale(1,1)"><g><path fill="none" stroke="none"/><text fill="#000000" font-family="Arial" font-size="13px" font-style="normal" font-weight="normal" stroke="none" text-decoration="none" x="269.72314453125" y="195.5">«Boundary»</text></g></g><g transform="translate(-6,2) scale(1,1)"><g><path fill="none" stroke="none"/><text fill="#000000" font-family="Arial" font-size="13px" font-style="normal" font-weight="bold" stroke="none" text-decoration="none" x="169.5" y="210.5">: InterfacciaCaricoMerci[id = codice_ordine]</text></g></g><g transform="translate(-6,2) scale(1,1)"><path d="M 305.5 220 L 305.5 669" fill="none" stroke="#000000" stroke-dasharray="3" stroke-miterlimit="10"/></g><g transform="translate(-6,2) scale(1,1)"><rect fill="#C0C0C0" height="39" opacity="0.2" stroke="none" width="165.64990234375" x="327" y="539"/></g><g transform="translate(-6,2) scale(1,1)"><rect fill="#ffffff" height="39" stroke="none" width="165.64990234375" x="320" y="532"/></g><g transform="translate(-6,2) scale(1,1)"><path d="M 320 532 L 485.64990234375 532 L 485.64990234375 571 L 320 571 L 320 532 Z Z" fill="none" stroke="#000000" stroke-miterlimit="10"/></g><g transform="translate(-6,2) scale(1,1)"><g><path fill="none" stroke="none"/><text fill="#000000" font-family="Arial" font-size="13px" font-style="normal" font-weight="normal" stroke="none" text-decoration="none" x="367.77001953125" y="547.5">«Boundary»</text></g></g><g transform="translate(-6,2) scale(1,1)"><g><path fill="none" stroke="none"/><text fill="#000000" font-family="Arial" font-size="13px" font-style="normal" font-weight="bold" stroke="none" text-decoration="none" x="329.5" y="562.5">: InterfacciaDiConferma</text></g></g><g transform="translate(-6,2) scale(1,1)"><path d="M 403.5 572 L 403.5 664" fill="none" stroke="#000000" stroke-dasharray="3" stroke-miterlimit="10"/></g><g transform="translate(-6,2) scale(1,1)"><path d="M 408 376 L 538.814453125 376 L 548.814453125 386 L 548.814453125 503 L 408 503 L 408 376" fill="#ffffff" stroke="none"/></g><g transform="translate(-6,2) scale(1,1)"><path d="M 408 376 L 538.814453125 376 L 548.814453125 386 L 548.814453125 503 L 408 503 L 408 376 L 408 376" fill="none" stroke="#000000" stroke-miterlimit="10"/></g><g transform="translate(-6,2) scale(1,1)"><path d="M 538.814453125 376 L 538.814453125 386 L 548.814453125 386 L 538.814453125 376" fill="none" stroke="#000000" stroke-miterlimit="10"/></g><g transform="translate(-6,2) scale(1,1)"><g><path fill="none" stroke="none"/><text fill="#000000" font-family="Arial" font-size="13px" font-style="normal" font-weight="normal" stroke="none" text-decoration="none" x="413" y="390">Per ottenere la data lo</text><text fill="#000000" font-family="Arial" font-size="13px" font-style="normal" font-weight="normal" stroke="none" text-decoration="none" x="413" y="403">può fare direttamente</text><text fill="#000000" font-family="Arial" font-size="13px" font-style="normal" font-weight="normal" stroke="none" text-decoration="none" x="413" y="416">la control</text><text fill="#000000" font-family="Arial" font-size="13px" font-style="normal" font-weight="normal" stroke="none" text-decoration="none" x="413" y="429">GestoreCaricoMerci?</text></g></g><g transform="translate(-6,2) scale(1,1)"><path d="M 111 120 L 314 120" fill="none" stroke="#000000" stroke-miterlimit="10"/></g><g transform="translate(-6,2) scale(1,1)"><path d="M 303.83732514237585 124.20951775601598 L 314 120 L 303.83732514237585 115.79048224398402" fill="#000000" stroke="none"/></g><g transform="translate(-6,2) scale(1,1)"><path d="M 303.83732514237585 124.20951775601598 L 314 120 L 303.83732514237585 115.79048224398402 L 303.83732514237585 124.20951775601598" fill="none" stroke="#000000" stroke-miterlimit="10"/></g><g transform="translate(-6,2) scale(1,1)"><g><path fill="none" stroke="none"/><text fill="#000000" font-family="Arial" font-size="13px" font-style="normal" font-weight="normal" stroke="none" text-decoration="none" x="186.236328125" y="114.5">1 : clicca</text></g></g><g transform="translate(-6,2) scale(1,1)"><rect fill="#ffffff" height="28" stroke="none" width="13" x="314" y="120"/></g><g transform="translate(-6,2) scale(1,1)"><path d="M 314 120 L 327 120 L 327 148 L 314 148 L 314 120 Z Z" fill="none" stroke="#000000" stroke-miterlimit="10"/></g><g transform="translate(-6,2) scale(1,1)"><path d="M 327 136 L 432 136" fill="none" stroke="#000000" stroke-dasharray="3" stroke-miterlimit="10"/></g><g transform="translate(-6,2) scale(1,1)"><path d="M 421.83732514237585 140.209517756016 L 432 136 L 421.83732514237585 131.790482243984" fill="none" stroke="#000000" stroke-miterlimit="10"/></g><g transform="translate(-6,2) scale(1,1)"><g><path fill="none" stroke="none"/><text fill="#000000" font-family="Arial" font-size="13px" font-style="normal" font-weight="normal" stroke="none" text-decoration="none" x="330.5" y="130.5">2 : (codice_lotto)</text></g></g><g transform="translate(-6,2) scale(1,1)"><g><path fill="none" stroke="none"/><text fill="#000000" font-family="Arial" font-size="13px" font-style="normal" font-weight="normal" stroke="none" text-decoration="none" x="353.5" y="115.5">«create»</text></g></g><g transform="translate(-6,2) scale(1,1)"><path d="M 565 200 L 449.55615234375 200" fill="none" stroke="#000000" stroke-dasharray="3" stroke-miterlimit="10"/></g><g transform="translate(-6,2) scale(1,1)"><path d="M 459.71882720137415 195.790482243984 L 449.55615234375 200 L 459.71882720137415 204.209517756016" fill="none" stroke="#000000" stroke-miterlimit="10"/></g><g transform="translate(-6,2) scale(1,1)"><g><path fill="none" stroke="none"/><text fill="#000000" font-family="Arial" font-size="13px" font-style="normal" font-weight="normal" stroke="none" text-decoration="none" x="457.5" y="214.5">3 : (codice_lotto)</text></g></g><g transform="translate(-6,2) scale(1,1)"><g><path fill="none" stroke="none"/><text fill="#000000" font-family="Arial" font-size="13px" font-style="normal" font-weight="normal" stroke="none" text-decoration="none" x="480.5" y="229.5">«create»</text></g></g><g transform="translate(-6,2) scale(1,1)"><path d="M 111 288 L 298 288" fill="none" stroke="#000000" stroke-miterlimit="10"/></g><g transform="translate(-6,2) scale(1,1)"><path d="M 287.83732514237585 292.209517756016 L 298 288 L 287.83732514237585 283.790482243984" fill="#000000" stroke="none"/></g><g transform="translate(-6,2) scale(1,1)"><path d="M 287.83732514237585 292.209517756016 L 298 288 L 287.83732514237585 283.790482243984 L 287.83732514237585 292.209517756016" fill="none" stroke="#000000" stroke-miterlimit="10"/></g><g transform="translate(-6,2) scale(1,1)"><g><path fill="none" stroke="none"/><text fill="#000000" font-family="Arial" font-size="13px" font-style="normal" font-weight="normal" stroke="none" text-decoration="none" x="69.75" y="282.5">4 : inserisciDatiFarmaco(codiceLotto, quantita)</text></g></g><g transform="translate(-6,2) scale(1,1)"><rect fill="#ffffff" height="28" stroke="none" width="13" x="298" y="288"/></g><g transform="translate(-6,2) scale(1,1)"><path d="M 298 288 L 311 288 L 311 316 L 298 316 L 298 288 Z Z" fill="none" stroke="#000000" stroke-miterlimit="10"/></g><g transform="translate(-6,2) scale(1,1)"><path d="M 111 328 L 298 328" fill="none" stroke="#000000" stroke-miterlimit="10"/></g><g transform="translate(-6,2) scale(1,1)"><path d="M 287.83732514237585 332.209517756016 L 298 328 L 287.83732514237585 323.790482243984" fill="#000000" stroke="none"/></g><g transform="translate(-6,2) scale(1,1)"><path d="M 287.83732514237585 332.209517756016 L 298 328 L 287.83732514237585 323.790482243984 L 287.83732514237585 332.209517756016" fill="none" stroke="#000000" stroke-miterlimit="10"/></g><g transform="translate(-6,2) scale(1,1)"><g><path fill="none" stroke="none"/><text fill="#000000" font-family="Arial" font-size="13px" font-style="normal" font-weight="normal" stroke="none" text-decoration="none" x="168.197265625" y="322.5">5 : conferma</text></g></g><g transform="translate(-6,2) scale(1,1)"><rect fill="#ffffff" height="28" stroke="none" width="13" x="298" y="328"/></g><g transform="translate(-6,2) scale(1,1)"><path d="M 298 328 L 311 328 L 311 356 L 298 356 L 298 328 Z Z" fill="none" stroke="#000000" stroke-miterlimit="10"/></g><g transform="translate(-6,2) scale(1,1)"><path d="M 311 344 L 558 344" fill="none" stroke="#000000" stroke-miterlimit="10"/></g><g transform="translate(-6,2) scale(1,1)"><path d="M 547.8373251423759 348.209517756016 L 558 344 L 547.8373251423758 339.790482243984" fill="#000000" stroke="none"/></g><g transform="translate(-6,2) scale(1,1)"><path d="M 547.8373251423759 348.209517756016 L 558 344 L 547.8373251423758 339.790482243984 L 547.8373251423759 348.209517756016" fill="none" stroke="#000000" stroke-miterlimit="10"/></g><g transform="translate(-6,2) scale(1,1)"><g><path fill="none" stroke="none"/><text fill="#000000" font-family="Arial" font-size="13px" font-style="normal" font-weight="normal" stroke="none" text-decoration="none" x="344.767822265625" y="321.5">6 : caricaFarmaco(codiceLotto,</text><text fill="#000000" font-family="Arial" font-size="13px" font-style="normal" font-weight="normal" stroke="none" text-decoration="none" x="408.70458984375" y="334.5">quantita)</text></g></g><g transform="translate(-6,2) scale(1,1)"><rect fill="#ffffff" height="224" stroke="none" width="13" x="558" y="344"/></g><g transform="translate(-6,2) scale(1,1)"><path d="M 558 344 L 571 344 L 571 568 L 558 568 L 558 344 Z Z" fill="none" stroke="#000000" stroke-miterlimit="10"/></g><g transform="translate(-6,2) scale(1,1)"><path d="M 571 408 L 601 408 L 601 428 L 578 428" fill="none" stroke="#000000" stroke-miterlimit="10"/></g><g transform="translate(-6,2) scale(1,1)"><path d="M 588.1626748576241 423.790482243984 L 578 428 L 588.1626748576241 432.209517756016" fill="#000000" stroke="none"/></g><g transform="translate(-6,2) scale(1,1)"><path d="M 588.1626748576241 423.790482243984 L 578 428 L 588.1626748576241 432.209517756016 L 588.1626748576241 423.790482243984" fill="none" stroke="#000000" stroke-miterlimit="10"/></g><g transform="translate(-6,2) scale(1,1)"><g><path fill="none" stroke="none"/><text fill="#000000" font-family="Arial" font-size="13px" font-style="normal" font-weight="normal" stroke="none" text-decoration="none" x="613.5" y="421.5">7 : chiediData</text></g></g><g transform="translate(-6,2) scale(1,1)"><rect fill="#ffffff" height="28" stroke="none" width="13" x="565" y="428"/></g><g transform="translate(-6,2) scale(1,1)"><path d="M 565 428 L 578 428 L 578 456 L 565 456 L 565 428 Z Z" fill="none" stroke="#000000" stroke-miterlimit="10"/></g><g transform="translate(-6,2) scale(1,1)"><path d="M 571 496 L 776 496" fill="none" stroke="#000000" stroke-miterlimit="10"/></g><g transform="translate(-6,2) scale(1,1)"><path d="M 765.8373251423759 500.209517756016 L 776 496 L 765.8373251423758 491.790482243984" fill="#000000" stroke="none"/></g><g transform="translate(-6,2) scale(1,1)"><path d="M 765.8373251423759 500.209517756016 L 776 496 L 765.8373251423758 491.790482243984 L 765.8373251423759 500.209517756016" fill="none" stroke="#000000" stroke-miterlimit="10"/></g><g transform="translate(-6,2) scale(1,1)"><g><path fill="none" stroke="none"/><text fill="#000000" font-family="Arial" font-size="13px" font-style="normal" font-weight="normal" stroke="none" text-decoration="none" x="572.302734375" y="473.5">8 : caricaFarmaco(codiceLotto, quantita,</text><text fill="#000000" font-family="Arial" font-size="13px" font-style="normal" font-weight="normal" stroke="none" text-decoration="none" x="630.475830078125" y="486.5">dataDiCaricametno)</text></g></g><g transform="translate(-6,2) scale(1,1)"><rect fill="#ffffff" height="56" stroke="none" width="13" x="776" y="496"/></g><g transform="translate(-6,2) scale(1,1)"><path d="M 776 496 L 789 496 L 789 552 L 776 552 L 776 496 Z Z" fill="none" stroke="#000000" stroke-miterlimit="10"/></g><g transform="translate(-6,2) scale(1,1)"><path d="M 789 504 L 1006 504" fill="none" stroke="#000000" stroke-miterlimit="10"/></g><g transform="translate(-6,2) scale(1,1)"><path d="M 995.8373251423759 508.209517756016 L 1006 504 L 995.8373251423758 499.790482243984" fill="#000000" stroke="none"/></g><g transform="translate(-6,2) scale(1,1)"><path d="M 995.8373251423759 508.209517756016 L 1006 504 L 995.8373251423758 499.790482243984 L 995.8373251423759 508.209517756016" fill="none" stroke="#000000" stroke-miterlimit="10"/></g><g transform="translate(-6,2) scale(1,1)"><g><path fill="none" stroke="none"/><text fill="#000000" font-family="Arial" font-size="13px" font-style="normal" font-weight="normal" stroke="none" text-decoration="none" x="784.944091796875" y="472.5">9 : caricaFarmaco(codiceLotto, quantita)</text></g></g><g transform="translate(-6,2) scale(1,1)"><rect fill="#ffffff" height="28" stroke="none" width="13" x="1006" y="504"/></g><g transform="translate(-6,2) scale(1,1)"><path d="M 1006 504 L 1019 504 L 1019 532 L 1006 532 L 1006 504 Z Z" fill="none" stroke="#000000" stroke-miterlimit="10"/></g><g transform="translate(-6,2) scale(1,1)"><path d="M 1013 536 L 789 536" fill="none" stroke="#000000" stroke-dasharray="3" stroke-miterlimit="10"/></g><g transform="translate(-6,2) scale(1,1)"><path d="M 799.1626748576241 531.790482243984 L 789 536 L 799.1626748576241 540.209517756016" fill="none" stroke="#000000" stroke-miterlimit="10"/></g><g transform="translate(-6,2) scale(1,1)"><g><path fill="none" stroke="none"/><text fill="#000000" font-family="Arial" font-size="13px" font-style="normal" font-weight="normal" stroke="none" text-decoration="none" x="873.5" y="550.5">10 : esito</text></g></g><g transform="translate(-6,2) scale(1,1)"><path d="M 776 544 L 571 544" fill="none" stroke="#000000" stroke-dasharray="3" stroke-miterlimit="10"/></g><g transform="translate(-6,2) scale(1,1)"><path d="M 581.1626748576241 539.790482243984 L 571 544 L 581.1626748576241 548.209517756016" fill="none" stroke="#000000" stroke-miterlimit="10"/></g><g transform="translate(-6,2) scale(1,1)"><g><path fill="none" stroke="none"/><text fill="#000000" font-family="Arial" font-size="13px" font-style="normal" font-weight="normal" stroke="none" text-decoration="none" x="645.982421875" y="558.5">11 : esito</text></g></g><g transform="translate(-6,2) scale(1,1)"><path d="M 558 552 L 485.64990234375 552" fill="none" stroke="#000000" stroke-dasharray="3" stroke-miterlimit="10"/></g><g transform="translate(-6,2) scale(1,1)"><path d="M 495.81257720137415 547.790482243984 L 485.64990234375 552 L 495.81257720137415 556.209517756016" fill="none" stroke="#000000" stroke-miterlimit="10"/></g><g transform="translate(-6,2) scale(1,1)"><g><path fill="none" stroke="none"/><text fill="#000000" font-family="Arial" font-size="13px" font-style="normal" font-weight="normal" stroke="none" text-decoration="none" x="507.5" y="566.5">12 : </text></g></g><g transform="translate(-6,2) scale(1,1)"><g><path fill="none" stroke="none"/><text fill="#000000" font-family="Arial" font-size="13px" font-style="normal" font-weight="normal" stroke="none" text-decoration="none" x="494.5" y="581.5">«create»</text></g></g><g transform="translate(-6,2) scale(1,1)"><path d="M 111 592 L 396 592" fill="none" stroke="#000000" stroke-miterlimit="10"/></g><g transform="translate(-6,2) scale(1,1)"><path d="M 385.83732514237585 596.209517756016 L 396 592 L 385.83732514237585 587.790482243984" fill="#000000" stroke="none"/></g><g transform="translate(-6,2) scale(1,1)"><path d="M 385.83732514237585 596.209517756016 L 396 592 L 385.83732514237585 587.790482243984 L 385.83732514237585 596.209517756016" fill="none" stroke="#000000" stroke-miterlimit="10"/></g><g transform="translate(-6,2) scale(1,1)"><path d="M 393 654 L 413 674" fill="none" stroke="#000000" stroke-miterlimit="10"/></g><g transform="translate(-6,2) scale(1,1)"><path d="M 413 654 L 393 674" fill="none" stroke="#000000" stroke-miterlimit="10"/></g><g transform="translate(-6,2) scale(1,1)"><g><path fill="none" stroke="none"/><text fill="#000000" font-family="Arial" font-size="13px" font-style="normal" font-weight="normal" stroke="none" text-decoration="none" x="213.197265625" y="586.5">13 : conferma</text></g></g><g transform="translate(-6,2) scale(1,1)"><g><path fill="none" stroke="none"/><text fill="#000000" font-family="Arial" font-size="13px" font-style="normal" font-weight="normal" stroke="none" text-decoration="none" x="224.5" y="571.5">«destroy»</text></g></g><g transform="translate(-6,2) scale(1,1)"><rect fill="#ffffff" height="28" stroke="none" width="13" x="396" y="592"/></g><g transform="translate(-6,2) scale(1,1)"><path d="M 396 592 L 409 592 L 409 620 L 396 620 L 396 592 Z Z" fill="none" stroke="#000000" stroke-miterlimit="10"/></g><g transform="translate(-6,2) scale(1,1)"><path d="M 409 608 L 558 608" fill="none" stroke="#000000" stroke-miterlimit="10"/></g><g transform="translate(-6,2) scale(1,1)"><path d="M 547.8373251423759 612.209517756016 L 558 608 L 547.8373251423758 603.790482243984" fill="#000000" stroke="none"/></g><g transform="translate(-6,2) scale(1,1)"><path d="M 547.8373251423759 612.209517756016 L 558 608 L 547.8373251423758 603.790482243984 L 547.8373251423759 612.209517756016" fill="none" stroke="#000000" stroke-miterlimit="10"/></g><g transform="translate(-6,2) scale(1,1)"><path d="M 555 659 L 575 679" fill="none" stroke="#000000" stroke-miterlimit="10"/></g><g transform="translate(-6,2) scale(1,1)"><path d="M 575 659 L 555 679" fill="none" stroke="#000000" stroke-miterlimit="10"/></g><g transform="translate(-6,2) scale(1,1)"><g><path fill="none" stroke="none"/><text fill="#000000" font-family="Arial" font-size="13px" font-style="normal" font-weight="normal" stroke="none" text-decoration="none" x="470.5" y="602.5">14 : </text></g></g><g transform="translate(-6,2) scale(1,1)"><g><path fill="none" stroke="none"/><text fill="#000000" font-family="Arial" font-size="13px" font-style="normal" font-weight="normal" stroke="none" text-decoration="none" x="454.5" y="587.5">«destroy»</text></g></g><g transform="translate(-6,2) scale(1,1)"><rect fill="#ffffff" height="28" stroke="none" width="13" x="558" y="608"/></g><g transform="translate(-6,2) scale(1,1)"><path d="M 558 608 L 571 608 L 571 636 L 558 636 L 558 608 Z Z" fill="none" stroke="#000000" stroke-miterlimit="10"/></g><g transform="translate(-6,2) scale(1,1)"><path d="M 558 624 L 311 624" fill="none" stroke="#000000" stroke-miterlimit="10"/></g><g transform="translate(-6,2) scale(1,1)"><path d="M 321.16267485762415 619.790482243984 L 311 624 L 321.16267485762415 628.209517756016" fill="#000000" stroke="none"/></g><g transform="translate(-6,2) scale(1,1)"><path d="M 321.16267485762415 619.790482243984 L 311 624 L 321.16267485762415 628.209517756016 L 321.16267485762415 619.790482243984" fill="none" stroke="#000000" stroke-miterlimit="10"/></g><g transform="translate(-6,2) scale(1,1)"><path d="M 295 659 L 315 679" fill="none" stroke="#000000" stroke-miterlimit="10"/></g><g transform="translate(-6,2) scale(1,1)"><path d="M 315 659 L 295 679" fill="none" stroke="#000000" stroke-miterlimit="10"/></g><g transform="translate(-6,2) scale(1,1)"><g><path fill="none" stroke="none"/><text fill="#000000" font-family="Arial" font-size="13px" font-style="normal" font-weight="normal" stroke="none" text-decoration="none" x="420.5" y="638.5">15 : </text></g></g><g transform="translate(-6,2) scale(1,1)"><g><path fill="none" stroke="none"/><text fill="#000000" font-family="Arial" font-size="13px" font-style="normal" font-weight="normal" stroke="none" text-decoration="none" x="404.5" y="653.5">«destroy»</text></g></g><g transform="translate(-6,2) scale(1,1)"><rect fill="#ffffff" height="28" stroke="none" width="13" x="298" y="624"/></g><g transform="translate(-6,2) scale(1,1)"><path d="M 298 624 L 311 624 L 311 652 L 298 652 L 298 624 Z Z" fill="none" stroke="#000000" stroke-miterlimit="10"/></g></g></svg>