<?xml version="1.0" encoding="UTF-8" standalone="no"?><svg xmlns="http://www.w3.org/2000/svg" xmlns:xlink="http://www.w3.org/1999/xlink" height="1268" version="1.1" width="1028.65625"><defs/><g><g transform="translate(-38,2) scale(1,1)"><path d="M 48 8 L 1048 8 L 1048 1256 L 48 1256 L 48 8" fill="none" stroke="#000000" stroke-miterlimit="10"/></g><g transform="translate(-38,2) scale(1,1)"><path d="M 48 8 L 48 30 L 157.21533203125 30 L 168.21533203125 19 L 168.21533203125 8 L 48 8" fill="#ffffff" stroke="none"/></g><g transform="translate(-38,2) scale(1,1)"><path d="M 48 8 L 48 30 L 157.21533203125 30 L 168.21533203125 19 L 168.21533203125 8 L 48 8 L 48 8" fill="none" stroke="#000000" stroke-miterlimit="10"/></g><g transform="translate(-38,2) scale(1,1)"><g><path fill="none" stroke="none"/><text fill="#000000" font-family="Arial" font-size="13px" font-style="normal" font-weight="normal" stroke="none" text-decoration="none" x="72.72998046875" y="23.5">Registrazione</text></g></g><g transform="translate(-38,2) scale(1,1)"><g><path fill="none" stroke="none"/><text fill="#000000" font-family="Arial" font-size="13px" font-style="normal" font-weight="bold" stroke="none" text-decoration="none" x="52.279541015625" y="23.5">sd</text></g></g><g transform="translate(-38,2) scale(1,1)"><path d="M 126.0604110440341 47.3 C 126.0604110440341 43.82060576 128.9388127662159 41 132.489501953125 41 C 136.0401911400341 41 138.91859286221592 43.82060576 138.91859286221592 47.3 C 138.91859286221592 50.779394239999995 136.0401911400341 53.6 132.489501953125 53.6 C 128.9388127662159 53.6 126.0604110440341 50.779394239999995 126.0604110440341 47.3 Z" fill="#ffffff" stroke="none"/></g><g transform="translate(-38,2) scale(1,1)"><path d="M 126.0604110440341 47.3 C 126.0604110440341 43.82060576 128.9388127662159 41 132.489501953125 41 C 136.0401911400341 41 138.91859286221592 43.82060576 138.91859286221592 47.3 C 138.91859286221592 50.779394239999995 136.0401911400341 53.6 132.489501953125 53.6 C 128.9388127662159 53.6 126.0604110440341 50.779394239999995 126.0604110440341 47.3 Z" fill="none" stroke="#000000" stroke-miterlimit="10"/></g><g transform="translate(-38,2) scale(1,1)"><path d="M 132.489501953125 53.6 L 132.489501953125 66.4" fill="none" stroke="#000000" stroke-miterlimit="10"/></g><g transform="translate(-38,2) scale(1,1)"><path d="M 125.68222922585228 58.4 L 139.29677468039773 58.4" fill="none" stroke="#000000" stroke-miterlimit="10"/></g><g transform="translate(-38,2) scale(1,1)"><path d="M 132.489501953125 66.4 L 123.03495649857955 79" fill="none" stroke="#000000" stroke-miterlimit="10"/></g><g transform="translate(-38,2) scale(1,1)"><path d="M 132.489501953125 66.4 L 141.94404740767047 79" fill="none" stroke="#000000" stroke-miterlimit="10"/></g><g transform="translate(-38,2) scale(1,1)"><g><path fill="none" stroke="none"/><text fill="#000000" font-family="Arial" font-size="13px" font-style="normal" font-weight="bold" stroke="none" text-decoration="none" x="102.8681640625" y="97.5">: Persona</text></g></g><g transform="translate(-38,2) scale(1,1)"><path d="M 133.5 105 L 133.5 1216" fill="none" stroke="#000000" stroke-dasharray="3" stroke-miterlimit="10"/></g><g transform="translate(-38,2) scale(1,1)"><rect fill="#C0C0C0" height="39" opacity="0.2" stroke="none" width="161.9873046875" x="215" y="47"/></g><g transform="translate(-38,2) scale(1,1)"><rect fill="#ffffff" height="39" stroke="none" width="161.9873046875" x="208" y="40"/></g><g transform="translate(-38,2) scale(1,1)"><path d="M 208 40 L 369.9873046875 40 L 369.9873046875 79 L 208 79 L 208 40 Z Z" fill="none" stroke="#000000" stroke-miterlimit="10"/></g><g transform="translate(-38,2) scale(1,1)"><g><path fill="none" stroke="none"/><text fill="#000000" font-family="Arial" font-size="13px" font-style="normal" font-weight="normal" stroke="none" text-decoration="none" x="253.938720703125" y="55.5">«Boundary»</text></g></g><g transform="translate(-38,2) scale(1,1)"><g><path fill="none" stroke="none"/><text fill="#000000" font-family="Arial" font-size="13px" font-style="normal" font-weight="bold" stroke="none" text-decoration="none" x="246.0390625" y="70.5">:ModuloLogin</text></g></g><g transform="translate(-38,2) scale(1,1)"><path d="M 289.5 80 L 289.5 172" fill="none" stroke="#000000" stroke-dasharray="3" stroke-miterlimit="10"/></g><g transform="translate(-38,2) scale(1,1)"><rect fill="#C0C0C0" height="39" opacity="0.2" stroke="none" width="108.5654296875" x="735" y="47"/></g><g transform="translate(-38,2) scale(1,1)"><rect fill="#ffffff" height="39" stroke="none" width="108.5654296875" x="728" y="40"/></g><g transform="translate(-38,2) scale(1,1)"><path d="M 728 40 L 836.5654296875 40 L 836.5654296875 79 L 728 79 L 728 40 Z Z" fill="none" stroke="#000000" stroke-miterlimit="10"/></g><g transform="translate(-38,2) scale(1,1)"><g><path fill="none" stroke="none"/><text fill="#000000" font-family="Arial" font-size="13px" font-style="normal" font-weight="normal" stroke="none" text-decoration="none" x="747.227783203125" y="55.5">«Boundary»</text></g></g><g transform="translate(-38,2) scale(1,1)"><g><path fill="none" stroke="none"/><text fill="#000000" font-family="Arial" font-size="13px" font-style="normal" font-weight="bold" stroke="none" text-decoration="none" x="737.5" y="70.5">DBMSDaemon</text></g></g><g transform="translate(-38,2) scale(1,1)"><path d="M 783.5 80 L 783.5 1232" fill="none" stroke="#000000" stroke-dasharray="3" stroke-miterlimit="10"/></g><g transform="translate(-38,2) scale(1,1)"><rect fill="#C0C0C0" height="39" opacity="0.2" stroke="none" width="153.37353515625" x="487" y="115"/></g><g transform="translate(-38,2) scale(1,1)"><rect fill="#ffffff" height="39" stroke="none" width="153.37353515625" x="480" y="108"/></g><g transform="translate(-38,2) scale(1,1)"><path d="M 480 108 L 633.37353515625 108 L 633.37353515625 147 L 480 147 L 480 108 Z Z" fill="none" stroke="#000000" stroke-miterlimit="10"/></g><g transform="translate(-38,2) scale(1,1)"><g><path fill="none" stroke="none"/><text fill="#000000" font-family="Arial" font-size="13px" font-style="normal" font-weight="normal" stroke="none" text-decoration="none" x="528.503173828125" y="123.5">«Control»</text></g></g><g transform="translate(-38,2) scale(1,1)"><g><path fill="none" stroke="none"/><text fill="#000000" font-family="Arial" font-size="13px" font-style="normal" font-weight="bold" stroke="none" text-decoration="none" x="489.5" y="138.5">GestoreRegistrazione</text></g></g><g transform="translate(-38,2) scale(1,1)"><path d="M 557.5 148 L 557.5 1232" fill="none" stroke="#000000" stroke-dasharray="3" stroke-miterlimit="10"/></g><g transform="translate(-38,2) scale(1,1)"><rect fill="#C0C0C0" height="39" opacity="0.2" stroke="none" width="150.447265625" x="295" y="187"/></g><g transform="translate(-38,2) scale(1,1)"><rect fill="#ffffff" height="39" stroke="none" width="150.447265625" x="288" y="180"/></g><g transform="translate(-38,2) scale(1,1)"><path d="M 288 180 L 438.447265625 180 L 438.447265625 219 L 288 219 L 288 180 Z Z" fill="none" stroke="#000000" stroke-miterlimit="10"/></g><g transform="translate(-38,2) scale(1,1)"><g><path fill="none" stroke="none"/><text fill="#000000" font-family="Arial" font-size="13px" font-style="normal" font-weight="normal" stroke="none" text-decoration="none" x="328.168701171875" y="195.5">«Boundary»</text></g></g><g transform="translate(-38,2) scale(1,1)"><g><path fill="none" stroke="none"/><text fill="#000000" font-family="Arial" font-size="13px" font-style="normal" font-weight="bold" stroke="none" text-decoration="none" x="297.5" y="210.5">ModuloRegistrazione</text></g></g><g transform="translate(-38,2) scale(1,1)"><path d="M 364.5 220 L 364.5 1224" fill="none" stroke="#000000" stroke-dasharray="3" stroke-miterlimit="10"/></g><g transform="translate(-38,2) scale(1,1)"><rect fill="#C0C0C0" height="39" opacity="0.2" stroke="none" width="112.1962890625" x="391" y="419"/></g><g transform="translate(-38,2) scale(1,1)"><rect fill="#ffffff" height="39" stroke="none" width="112.1962890625" x="384" y="412"/></g><g transform="translate(-38,2) scale(1,1)"><path d="M 384 412 L 496.1962890625 412 L 496.1962890625 451 L 384 451 L 384 412 Z Z" fill="none" stroke="#000000" stroke-miterlimit="10"/></g><g transform="translate(-38,2) scale(1,1)"><g><path fill="none" stroke="none"/><text fill="#000000" font-family="Arial" font-size="13px" font-style="normal" font-weight="normal" stroke="none" text-decoration="none" x="405.043212890625" y="427.5">«Boundary»</text></g></g><g transform="translate(-38,2) scale(1,1)"><g><path fill="none" stroke="none"/><text fill="#000000" font-family="Arial" font-size="13px" font-style="normal" font-weight="bold" stroke="none" text-decoration="none" x="393.5" y="442.5">PannelloErrore</text></g></g><g transform="translate(-38,2) scale(1,1)"><path d="M 441.5 452 L 441.5 528" fill="none" stroke="#000000" stroke-dasharray="3" stroke-miterlimit="10"/></g><g transform="translate(-38,2) scale(1,1)"><path d="M 965.899034090909 47.3 C 965.899034090909 43.82060576 968.777435813091 41 972.328125 41 C 975.878814186909 41 978.7572159090909 43.82060576 978.7572159090909 47.3 C 978.7572159090909 50.779394239999995 975.878814186909 53.6 972.328125 53.6 C 968.777435813091 53.6 965.899034090909 50.779394239999995 965.899034090909 47.3 Z" fill="#ffffff" stroke="none"/></g><g transform="translate(-38,2) scale(1,1)"><path d="M 965.899034090909 47.3 C 965.899034090909 43.82060576 968.777435813091 41 972.328125 41 C 975.878814186909 41 978.7572159090909 43.82060576 978.7572159090909 47.3 C 978.7572159090909 50.779394239999995 975.878814186909 53.6 972.328125 53.6 C 968.777435813091 53.6 965.899034090909 50.779394239999995 965.899034090909 47.3 Z" fill="none" stroke="#000000" stroke-miterlimit="10"/></g><g transform="translate(-38,2) scale(1,1)"><path d="M 972.328125 53.6 L 972.328125 66.4" fill="none" stroke="#000000" stroke-miterlimit="10"/></g><g transform="translate(-38,2) scale(1,1)"><path d="M 965.5208522727272 58.4 L 979.1353977272727 58.4" fill="none" stroke="#000000" stroke-miterlimit="10"/></g><g transform="translate(-38,2) scale(1,1)"><path d="M 972.328125 66.4 L 962.8735795454545 79" fill="none" stroke="#000000" stroke-miterlimit="10"/></g><g transform="translate(-38,2) scale(1,1)"><path d="M 972.328125 66.4 L 981.7826704545454 79" fill="none" stroke="#000000" stroke-miterlimit="10"/></g><g transform="translate(-38,2) scale(1,1)"><g><path fill="none" stroke="none"/><text fill="#000000" font-family="Arial" font-size="13px" font-style="normal" font-weight="bold" stroke="none" text-decoration="none" x="918.8681640625" y="97.5">: DBMS Farmacie</text></g></g><g transform="translate(-38,2) scale(1,1)"><path d="M 973.5 105 L 973.5 1232" fill="none" stroke="#000000" stroke-dasharray="3" stroke-miterlimit="10"/></g><g transform="translate(-38,2) scale(1,1)"><rect fill="#C0C0C0" height="39" opacity="0.2" stroke="none" width="112.1962890625" x="399" y="659"/></g><g transform="translate(-38,2) scale(1,1)"><rect fill="#ffffff" height="39" stroke="none" width="112.1962890625" x="392" y="652"/></g><g transform="translate(-38,2) scale(1,1)"><path d="M 392 652 L 504.1962890625 652 L 504.1962890625 691 L 392 691 L 392 652 Z Z" fill="none" stroke="#000000" stroke-miterlimit="10"/></g><g transform="translate(-38,2) scale(1,1)"><g><path fill="none" stroke="none"/><text fill="#000000" font-family="Arial" font-size="13px" font-style="normal" font-weight="normal" stroke="none" text-decoration="none" x="413.043212890625" y="667.5">«Boundary»</text></g></g><g transform="translate(-38,2) scale(1,1)"><g><path fill="none" stroke="none"/><text fill="#000000" font-family="Arial" font-size="13px" font-style="normal" font-weight="bold" stroke="none" text-decoration="none" x="401.5" y="682.5">PannelloErrore</text></g></g><g transform="translate(-38,2) scale(1,1)"><path d="M 449.5 692 L 449.5 771" fill="none" stroke="#000000" stroke-dasharray="3" stroke-miterlimit="10"/></g><g transform="translate(-38,2) scale(1,1)"><rect fill="#C0C0C0" height="39" opacity="0.2" stroke="none" width="143.24267578125" x="319" y="843"/></g><g transform="translate(-38,2) scale(1,1)"><rect fill="#ffffff" height="39" stroke="none" width="143.24267578125" x="312" y="836"/></g><g transform="translate(-38,2) scale(1,1)"><path d="M 312 836 L 455.24267578125 836 L 455.24267578125 875 L 312 875 L 312 836 Z Z" fill="none" stroke="#000000" stroke-miterlimit="10"/></g><g transform="translate(-38,2) scale(1,1)"><g><path fill="none" stroke="none"/><text fill="#000000" font-family="Arial" font-size="13px" font-style="normal" font-weight="normal" stroke="none" text-decoration="none" x="348.56640625" y="851.5">«Boundary»</text></g></g><g transform="translate(-38,2) scale(1,1)"><g><path fill="none" stroke="none"/><text fill="#000000" font-family="Arial" font-size="13px" font-style="normal" font-weight="bold" stroke="none" text-decoration="none" x="321.5" y="866.5">PannelloCodiceOTP</text></g></g><g transform="translate(-38,2) scale(1,1)"><path d="M 384.5 876 L 384.5 1080" fill="none" stroke="#000000" stroke-dasharray="3" stroke-miterlimit="10"/></g><g transform="translate(-38,2) scale(1,1)"><path d="M 370 328 L 550 328" fill="none" stroke="#000000" stroke-miterlimit="10"/></g><g transform="translate(-38,2) scale(1,1)"><path d="M 539.8373251423759 332.209517756016 L 550 328 L 539.8373251423758 323.790482243984" fill="#000000" stroke="none"/></g><g transform="translate(-38,2) scale(1,1)"><path d="M 539.8373251423759 332.209517756016 L 550 328 L 539.8373251423758 323.790482243984 L 539.8373251423759 332.209517756016" fill="none" stroke="#000000" stroke-miterlimit="10"/></g><g transform="translate(-38,2) scale(1,1)"><g><path fill="none" stroke="none"/><text fill="#000000" font-family="Arial" font-size="13px" font-style="normal" font-weight="normal" stroke="none" text-decoration="none" x="460.773193359375" y="290.5">5 :</text><text fill="#000000" font-family="Arial" font-size="13px" font-style="normal" font-weight="normal" stroke="none" text-decoration="none" x="376.603271484375" y="303.5">inserisciCredenziali(nominativo,</text><text fill="#000000" font-family="Arial" font-size="13px" font-style="normal" font-weight="normal" stroke="none" text-decoration="none" x="381.662353515625" y="316.5">mail, password, re_password)</text></g></g><g transform="translate(-38,2) scale(1,1)"><rect fill="#ffffff" height="28" stroke="none" width="13" x="550" y="328"/></g><g transform="translate(-38,2) scale(1,1)"><path d="M 550 328 L 563 328 L 563 356 L 550 356 L 550 328 Z Z" fill="none" stroke="#000000" stroke-miterlimit="10"/></g><g transform="translate(-38,2) scale(1,1)"><path d="M 133 122 L 282 122" fill="none" stroke="#000000" stroke-miterlimit="10"/></g><g transform="translate(-38,2) scale(1,1)"><path d="M 271.83732514237585 126.20951775601598 L 282 122 L 271.83732514237585 117.79048224398402" fill="#000000" stroke="none"/></g><g transform="translate(-38,2) scale(1,1)"><path d="M 271.83732514237585 126.20951775601598 L 282 122 L 271.83732514237585 117.79048224398402 L 271.83732514237585 126.20951775601598" fill="none" stroke="#000000" stroke-miterlimit="10"/></g><g transform="translate(-38,2) scale(1,1)"><g><path fill="none" stroke="none"/><text fill="#000000" font-family="Arial" font-size="13px" font-style="normal" font-weight="normal" stroke="none" text-decoration="none" x="151.5" y="116.5">1 : cliccaRegistra( )</text></g></g><g transform="translate(-38,2) scale(1,1)"><rect fill="#ffffff" height="28" stroke="none" width="13" x="282" y="122"/></g><g transform="translate(-38,2) scale(1,1)"><path d="M 282 122 L 295 122 L 295 150 L 282 150 L 282 122 Z Z" fill="none" stroke="#000000" stroke-miterlimit="10"/></g><g transform="translate(-38,2) scale(1,1)"><path d="M 295 128 L 480 128" fill="none" stroke="#000000" stroke-dasharray="3" stroke-miterlimit="10"/></g><g transform="translate(-38,2) scale(1,1)"><path d="M 469.83732514237585 132.209517756016 L 480 128 L 469.83732514237585 123.79048224398402" fill="none" stroke="#000000" stroke-miterlimit="10"/></g><g transform="translate(-38,2) scale(1,1)"><g><path fill="none" stroke="none"/><text fill="#000000" font-family="Arial" font-size="13px" font-style="normal" font-weight="normal" stroke="none" text-decoration="none" x="377.5" y="122.5">2 : </text></g></g><g transform="translate(-38,2) scale(1,1)"><g><path fill="none" stroke="none"/><text fill="#000000" font-family="Arial" font-size="13px" font-style="normal" font-weight="normal" stroke="none" text-decoration="none" x="361.5" y="107.5">«create»</text></g></g><g transform="translate(-38,2) scale(1,1)"><path d="M 557 200 L 438.447265625 200" fill="none" stroke="#000000" stroke-dasharray="3" stroke-miterlimit="10"/></g><g transform="translate(-38,2) scale(1,1)"><path d="M 448.60994048262415 195.790482243984 L 438.447265625 200 L 448.60994048262415 204.209517756016" fill="none" stroke="#000000" stroke-miterlimit="10"/></g><g transform="translate(-38,2) scale(1,1)"><g><path fill="none" stroke="none"/><text fill="#000000" font-family="Arial" font-size="13px" font-style="normal" font-weight="normal" stroke="none" text-decoration="none" x="486.5" y="214.5">3 : </text></g></g><g transform="translate(-38,2) scale(1,1)"><g><path fill="none" stroke="none"/><text fill="#000000" font-family="Arial" font-size="13px" font-style="normal" font-weight="normal" stroke="none" text-decoration="none" x="470.5" y="229.5">«create»</text></g></g><g transform="translate(-38,2) scale(1,1)"><path d="M 133 296 L 357 296" fill="none" stroke="#000000" stroke-miterlimit="10"/></g><g transform="translate(-38,2) scale(1,1)"><path d="M 346.83732514237585 300.209517756016 L 357 296 L 346.83732514237585 291.790482243984" fill="#000000" stroke="none"/></g><g transform="translate(-38,2) scale(1,1)"><path d="M 346.83732514237585 300.209517756016 L 357 296 L 346.83732514237585 291.790482243984 L 346.83732514237585 300.209517756016" fill="none" stroke="#000000" stroke-miterlimit="10"/></g><g transform="translate(-38,2) scale(1,1)"><g><path fill="none" stroke="none"/><text fill="#000000" font-family="Arial" font-size="13px" font-style="normal" font-weight="normal" stroke="none" text-decoration="none" x="235.669921875" y="266.5">4 :</text><text fill="#000000" font-family="Arial" font-size="13px" font-style="normal" font-weight="normal" stroke="none" text-decoration="none" x="151.5" y="279.5">inserisciCredenziali(nominativo,</text><text fill="#000000" font-family="Arial" font-size="13px" font-style="normal" font-weight="normal" stroke="none" text-decoration="none" x="156.55908203125" y="292.5">mail, password, re_password)</text></g></g><g transform="translate(-38,2) scale(1,1)"><rect fill="#ffffff" height="40" stroke="none" width="13" x="357" y="296"/></g><g transform="translate(-38,2) scale(1,1)"><path d="M 357 296 L 370 296 L 370 336 L 357 336 L 357 296 Z Z" fill="none" stroke="#000000" stroke-miterlimit="10"/></g><g transform="translate(-38,2) scale(1,1)"><path d="M 563 344 L 593 344 L 593 364 L 563 364" fill="none" stroke="#000000" stroke-miterlimit="10"/></g><g transform="translate(-38,2) scale(1,1)"><path d="M 573.1626748576241 359.790482243984 L 563 364 L 573.1626748576241 368.209517756016" fill="#000000" stroke="none"/></g><g transform="translate(-38,2) scale(1,1)"><path d="M 573.1626748576241 359.790482243984 L 563 364 L 573.1626748576241 368.209517756016 L 573.1626748576241 359.790482243984" fill="none" stroke="#000000" stroke-miterlimit="10"/></g><g transform="translate(-38,2) scale(1,1)"><g><path fill="none" stroke="none"/><text fill="#000000" font-family="Arial" font-size="13px" font-style="normal" font-weight="normal" stroke="none" text-decoration="none" x="590.5" y="357.5">6 : controllaValiditaPwd( )</text></g></g><g transform="translate(-38,2) scale(1,1)"><rect fill="#ffffff" height="28" stroke="none" width="13" x="550" y="364"/></g><g transform="translate(-38,2) scale(1,1)"><path d="M 550 364 L 563 364 L 563 392 L 550 392 L 550 364 Z Z" fill="none" stroke="#000000" stroke-miterlimit="10"/></g><g transform="translate(-38,2) scale(1,1)"><path d="M 557 432 L 496.1962890625 432" fill="none" stroke="#000000" stroke-dasharray="3" stroke-miterlimit="10"/></g><g transform="translate(-38,2) scale(1,1)"><path d="M 506.35896392012415 427.790482243984 L 496.1962890625 432 L 506.35896392012415 436.209517756016" fill="none" stroke="#000000" stroke-miterlimit="10"/></g><g transform="translate(-38,2) scale(1,1)"><g><path fill="none" stroke="none"/><text fill="#000000" font-family="Arial" font-size="13px" font-style="normal" font-weight="normal" stroke="none" text-decoration="none" x="515.564453125" y="446.5">7 : </text></g></g><g transform="translate(-38,2) scale(1,1)"><g><path fill="none" stroke="none"/><text fill="#000000" font-family="Arial" font-size="13px" font-style="normal" font-weight="normal" stroke="none" text-decoration="none" x="499.5" y="461.5">«create»</text></g></g><g transform="translate(-38,2) scale(1,1)"><path d="M 133 480 L 434 480" fill="none" stroke="#000000" stroke-miterlimit="10"/></g><g transform="translate(-38,2) scale(1,1)"><path d="M 423.83732514237585 484.209517756016 L 434 480 L 423.83732514237585 475.790482243984" fill="#000000" stroke="none"/></g><g transform="translate(-38,2) scale(1,1)"><path d="M 423.83732514237585 484.209517756016 L 434 480 L 423.83732514237585 475.790482243984 L 423.83732514237585 484.209517756016" fill="none" stroke="#000000" stroke-miterlimit="10"/></g><g transform="translate(-38,2) scale(1,1)"><path d="M 431 518 L 451 538" fill="none" stroke="#000000" stroke-miterlimit="10"/></g><g transform="translate(-38,2) scale(1,1)"><path d="M 451 518 L 431 538" fill="none" stroke="#000000" stroke-miterlimit="10"/></g><g transform="translate(-38,2) scale(1,1)"><g><path fill="none" stroke="none"/><text fill="#000000" font-family="Arial" font-size="13px" font-style="normal" font-weight="normal" stroke="none" text-decoration="none" x="221.5" y="474.5">8 : inserisciConferma</text></g></g><g transform="translate(-38,2) scale(1,1)"><g><path fill="none" stroke="none"/><text fill="#000000" font-family="Arial" font-size="13px" font-style="normal" font-weight="normal" stroke="none" text-decoration="none" x="254.5" y="459.5">«destroy»</text></g></g><g transform="translate(-38,2) scale(1,1)"><rect fill="#ffffff" height="28" stroke="none" width="13" x="434" y="480"/></g><g transform="translate(-38,2) scale(1,1)"><path d="M 434 480 L 447 480 L 447 508 L 434 508 L 434 480 Z Z" fill="none" stroke="#000000" stroke-miterlimit="10"/></g><g transform="translate(-38,2) scale(1,1)"><path d="M 557 568 L 776 568" fill="none" stroke="#000000" stroke-miterlimit="10"/></g><g transform="translate(-38,2) scale(1,1)"><path d="M 765.8373251423759 572.209517756016 L 776 568 L 765.8373251423758 563.790482243984" fill="#000000" stroke="none"/></g><g transform="translate(-38,2) scale(1,1)"><path d="M 765.8373251423759 572.209517756016 L 776 568 L 765.8373251423758 563.790482243984 L 765.8373251423759 572.209517756016" fill="none" stroke="#000000" stroke-miterlimit="10"/></g><g transform="translate(-38,2) scale(1,1)"><g><path fill="none" stroke="none"/><text fill="#000000" font-family="Arial" font-size="13px" font-style="normal" font-weight="normal" stroke="none" text-decoration="none" x="623.246826171875" y="562.5">9 : controllaMail(mail)</text></g></g><g transform="translate(-38,2) scale(1,1)"><rect fill="#ffffff" height="64" stroke="none" width="13" x="776" y="568"/></g><g transform="translate(-38,2) scale(1,1)"><path d="M 776 568 L 789 568 L 789 632 L 776 632 L 776 568 Z Z" fill="none" stroke="#000000" stroke-miterlimit="10"/></g><g transform="translate(-38,2) scale(1,1)"><path d="M 789 584 L 966 584" fill="none" stroke="#000000" stroke-miterlimit="10"/></g><g transform="translate(-38,2) scale(1,1)"><path d="M 955.8373251423759 588.209517756016 L 966 584 L 955.8373251423758 579.790482243984" fill="#000000" stroke="none"/></g><g transform="translate(-38,2) scale(1,1)"><path d="M 955.8373251423759 588.209517756016 L 966 584 L 955.8373251423758 579.790482243984 L 955.8373251423759 588.209517756016" fill="none" stroke="#000000" stroke-miterlimit="10"/></g><g transform="translate(-38,2) scale(1,1)"><g><path fill="none" stroke="none"/><text fill="#000000" font-family="Arial" font-size="13px" font-style="normal" font-weight="normal" stroke="none" text-decoration="none" x="811.614990234375" y="578.5">10 : controllaMail(mail)</text></g></g><g transform="translate(-38,2) scale(1,1)"><rect fill="#ffffff" height="28" stroke="none" width="13" x="966" y="584"/></g><g transform="translate(-38,2) scale(1,1)"><path d="M 966 584 L 979 584 L 979 612 L 966 612 L 966 584 Z Z" fill="none" stroke="#000000" stroke-miterlimit="10"/></g><g transform="translate(-38,2) scale(1,1)"><path d="M 966 608 L 789 608" fill="none" stroke="#000000" stroke-dasharray="3" stroke-miterlimit="10"/></g><g transform="translate(-38,2) scale(1,1)"><path d="M 799.1626748576241 603.790482243984 L 789 608 L 799.1626748576241 612.209517756016" fill="none" stroke="#000000" stroke-miterlimit="10"/></g><g transform="translate(-38,2) scale(1,1)"><g><path fill="none" stroke="none"/><text fill="#000000" font-family="Arial" font-size="13px" font-style="normal" font-weight="normal" stroke="none" text-decoration="none" x="849.759521484375" y="622.5">11 : esito</text></g></g><g transform="translate(-38,2) scale(1,1)"><path d="M 776 624 L 557 624" fill="none" stroke="#000000" stroke-dasharray="3" stroke-miterlimit="10"/></g><g transform="translate(-38,2) scale(1,1)"><path d="M 567.1626748576241 619.790482243984 L 557 624 L 567.1626748576241 628.209517756016" fill="none" stroke="#000000" stroke-miterlimit="10"/></g><g transform="translate(-38,2) scale(1,1)"><g><path fill="none" stroke="none"/><text fill="#000000" font-family="Arial" font-size="13px" font-style="normal" font-weight="normal" stroke="none" text-decoration="none" x="638.759521484375" y="638.5">12 : esito</text></g></g><g transform="translate(-38,2) scale(1,1)"><path d="M 557 672 L 504.1962890625 672" fill="none" stroke="#000000" stroke-dasharray="3" stroke-miterlimit="10"/></g><g transform="translate(-38,2) scale(1,1)"><path d="M 514.3589639201241 667.790482243984 L 504.1962890625 672 L 514.3589639201241 676.209517756016" fill="none" stroke="#000000" stroke-miterlimit="10"/></g><g transform="translate(-38,2) scale(1,1)"><g><path fill="none" stroke="none"/><text fill="#000000" font-family="Arial" font-size="13px" font-style="normal" font-weight="normal" stroke="none" text-decoration="none" x="516.5" y="686.5">13 : </text></g></g><g transform="translate(-38,2) scale(1,1)"><g><path fill="none" stroke="none"/><text fill="#000000" font-family="Arial" font-size="13px" font-style="normal" font-weight="normal" stroke="none" text-decoration="none" x="503.5" y="701.5">«create»</text></g></g><g transform="translate(-38,2) scale(1,1)"><path d="M 133 729 L 442 729" fill="none" stroke="#000000" stroke-miterlimit="10"/></g><g transform="translate(-38,2) scale(1,1)"><path d="M 431.83732514237585 733.209517756016 L 442 729 L 431.83732514237585 724.790482243984" fill="#000000" stroke="none"/></g><g transform="translate(-38,2) scale(1,1)"><path d="M 431.83732514237585 733.209517756016 L 442 729 L 431.83732514237585 724.790482243984 L 431.83732514237585 733.209517756016" fill="none" stroke="#000000" stroke-miterlimit="10"/></g><g transform="translate(-38,2) scale(1,1)"><path d="M 439 761 L 459 781" fill="none" stroke="#000000" stroke-miterlimit="10"/></g><g transform="translate(-38,2) scale(1,1)"><path d="M 459 761 L 439 781" fill="none" stroke="#000000" stroke-miterlimit="10"/></g><g transform="translate(-38,2) scale(1,1)"><g><path fill="none" stroke="none"/><text fill="#000000" font-family="Arial" font-size="13px" font-style="normal" font-weight="normal" stroke="none" text-decoration="none" x="222.5" y="723.5">14 : inserisciConferma</text></g></g><g transform="translate(-38,2) scale(1,1)"><g><path fill="none" stroke="none"/><text fill="#000000" font-family="Arial" font-size="13px" font-style="normal" font-weight="normal" stroke="none" text-decoration="none" x="258.5" y="708.5">«destroy»</text></g></g><g transform="translate(-38,2) scale(1,1)"><rect fill="#ffffff" height="28" stroke="none" width="13" x="442" y="729"/></g><g transform="translate(-38,2) scale(1,1)"><path d="M 442 729 L 455 729 L 455 757 L 442 757 L 442 729 Z Z" fill="none" stroke="#000000" stroke-miterlimit="10"/></g><g transform="translate(-38,2) scale(1,1)"><path d="M 557 800 L 587 800 L 587 820 L 563 820" fill="none" stroke="#000000" stroke-miterlimit="10"/></g><g transform="translate(-38,2) scale(1,1)"><path d="M 573.1626748576241 815.790482243984 L 563 820 L 573.1626748576241 824.209517756016" fill="#000000" stroke="none"/></g><g transform="translate(-38,2) scale(1,1)"><path d="M 573.1626748576241 815.790482243984 L 563 820 L 573.1626748576241 824.209517756016 L 573.1626748576241 815.790482243984" fill="none" stroke="#000000" stroke-miterlimit="10"/></g><g transform="translate(-38,2) scale(1,1)"><g><path fill="none" stroke="none"/><text fill="#000000" font-family="Arial" font-size="13px" font-style="normal" font-weight="normal" stroke="none" text-decoration="none" x="592.5" y="813.5">15 : inviaMailOTP( )</text></g></g><g transform="translate(-38,2) scale(1,1)"><rect fill="#ffffff" height="28" stroke="none" width="13" x="550" y="820"/></g><g transform="translate(-38,2) scale(1,1)"><path d="M 550 820 L 563 820 L 563 848 L 550 848 L 550 820 Z Z" fill="none" stroke="#000000" stroke-miterlimit="10"/></g><g transform="translate(-38,2) scale(1,1)"><path d="M 557 856 L 455.24267578125 856" fill="none" stroke="#000000" stroke-dasharray="3" stroke-miterlimit="10"/></g><g transform="translate(-38,2) scale(1,1)"><path d="M 465.40535063887415 851.790482243984 L 455.24267578125 856 L 465.40535063887415 860.209517756016" fill="none" stroke="#000000" stroke-miterlimit="10"/></g><g transform="translate(-38,2) scale(1,1)"><g><path fill="none" stroke="none"/><text fill="#000000" font-family="Arial" font-size="13px" font-style="normal" font-weight="normal" stroke="none" text-decoration="none" x="492.5" y="870.5">16 : </text></g></g><g transform="translate(-38,2) scale(1,1)"><g><path fill="none" stroke="none"/><text fill="#000000" font-family="Arial" font-size="13px" font-style="normal" font-weight="normal" stroke="none" text-decoration="none" x="479.5" y="885.5">«create»</text></g></g><g transform="translate(-38,2) scale(1,1)"><path d="M 133 936 L 377 936" fill="none" stroke="#000000" stroke-miterlimit="10"/></g><g transform="translate(-38,2) scale(1,1)"><path d="M 366.83732514237585 940.209517756016 L 377 936 L 366.83732514237585 931.790482243984" fill="#000000" stroke="none"/></g><g transform="translate(-38,2) scale(1,1)"><path d="M 366.83732514237585 940.209517756016 L 377 936 L 366.83732514237585 931.790482243984 L 366.83732514237585 940.209517756016" fill="none" stroke="#000000" stroke-miterlimit="10"/></g><g transform="translate(-38,2) scale(1,1)"><g><path fill="none" stroke="none"/><text fill="#000000" font-family="Arial" font-size="13px" font-style="normal" font-weight="normal" stroke="none" text-decoration="none" x="192.5" y="930.5">17 : inserisciOTP(otp)</text></g></g><g transform="translate(-38,2) scale(1,1)"><rect fill="#ffffff" height="28" stroke="none" width="13" x="377" y="936"/></g><g transform="translate(-38,2) scale(1,1)"><path d="M 377 936 L 390 936 L 390 964 L 377 964 L 377 936 Z Z" fill="none" stroke="#000000" stroke-miterlimit="10"/></g><g transform="translate(-38,2) scale(1,1)"><path d="M 390 960 L 550 960" fill="none" stroke="#000000" stroke-miterlimit="10"/></g><g transform="translate(-38,2) scale(1,1)"><path d="M 539.8373251423759 964.209517756016 L 550 960 L 539.8373251423758 955.790482243984" fill="#000000" stroke="none"/></g><g transform="translate(-38,2) scale(1,1)"><path d="M 539.8373251423759 964.209517756016 L 550 960 L 539.8373251423758 955.790482243984 L 539.8373251423759 964.209517756016" fill="none" stroke="#000000" stroke-miterlimit="10"/></g><g transform="translate(-38,2) scale(1,1)"><g><path fill="none" stroke="none"/><text fill="#000000" font-family="Arial" font-size="13px" font-style="normal" font-weight="normal" stroke="none" text-decoration="none" x="402.148681640625" y="953.5">18 : inserisciOTP(otp)</text></g></g><g transform="translate(-38,2) scale(1,1)"><rect fill="#ffffff" height="28" stroke="none" width="13" x="550" y="960"/></g><g transform="translate(-38,2) scale(1,1)"><path d="M 550 960 L 563 960 L 563 988 L 550 988 L 550 960 Z Z" fill="none" stroke="#000000" stroke-miterlimit="10"/></g><g transform="translate(-38,2) scale(1,1)"><path d="M 557 1024 L 390 1024" fill="none" stroke="#000000" stroke-miterlimit="10"/></g><g transform="translate(-38,2) scale(1,1)"><path d="M 400.16267485762415 1019.790482243984 L 390 1024 L 400.16267485762415 1028.2095177560159" fill="#000000" stroke="none"/></g><g transform="translate(-38,2) scale(1,1)"><path d="M 400.16267485762415 1019.790482243984 L 390 1024 L 400.16267485762415 1028.2095177560159 L 400.16267485762415 1019.790482243984" fill="none" stroke="#000000" stroke-miterlimit="10"/></g><g transform="translate(-38,2) scale(1,1)"><path d="M 374 1070 L 394 1090" fill="none" stroke="#000000" stroke-miterlimit="10"/></g><g transform="translate(-38,2) scale(1,1)"><path d="M 394 1070 L 374 1090" fill="none" stroke="#000000" stroke-miterlimit="10"/></g><g transform="translate(-38,2) scale(1,1)"><g><path fill="none" stroke="none"/><text fill="#000000" font-family="Arial" font-size="13px" font-style="normal" font-weight="normal" stroke="none" text-decoration="none" x="459.5" y="1038.5">19 : </text></g></g><g transform="translate(-38,2) scale(1,1)"><g><path fill="none" stroke="none"/><text fill="#000000" font-family="Arial" font-size="13px" font-style="normal" font-weight="normal" stroke="none" text-decoration="none" x="443.5" y="1053.5">«destroy»</text></g></g><g transform="translate(-38,2) scale(1,1)"><rect fill="#ffffff" height="28" stroke="none" width="13" x="377" y="1024"/></g><g transform="translate(-38,2) scale(1,1)"><path d="M 377 1024 L 390 1024 L 390 1052 L 377 1052 L 377 1024 Z Z" fill="none" stroke="#000000" stroke-miterlimit="10"/></g><g transform="translate(-38,2) scale(1,1)"><path d="M 557 1048 L 776 1048" fill="none" stroke="#000000" stroke-miterlimit="10"/></g><g transform="translate(-38,2) scale(1,1)"><path d="M 765.8373251423759 1052.2095177560159 L 776 1048 L 765.8373251423758 1043.7904822439841" fill="#000000" stroke="none"/></g><g transform="translate(-38,2) scale(1,1)"><path d="M 765.8373251423759 1052.2095177560159 L 776 1048 L 765.8373251423758 1043.7904822439841 L 765.8373251423759 1052.2095177560159" fill="none" stroke="#000000" stroke-miterlimit="10"/></g><g transform="translate(-38,2) scale(1,1)"><g><path fill="none" stroke="none"/><text fill="#000000" font-family="Arial" font-size="13px" font-style="normal" font-weight="normal" stroke="none" text-decoration="none" x="571.287841796875" y="1024.5">20 : registraAccount(nominativo,</text><text fill="#000000" font-family="Arial" font-size="13px" font-style="normal" font-weight="normal" stroke="none" text-decoration="none" x="618.9873046875" y="1037.5">mail, password)</text></g></g><g transform="translate(-38,2) scale(1,1)"><rect fill="#ffffff" height="64" stroke="none" width="13" x="776" y="1048"/></g><g transform="translate(-38,2) scale(1,1)"><path d="M 776 1048 L 789 1048 L 789 1112 L 776 1112 L 776 1048 Z Z" fill="none" stroke="#000000" stroke-miterlimit="10"/></g><g transform="translate(-38,2) scale(1,1)"><path d="M 789 1072 L 966 1072" fill="none" stroke="#000000" stroke-miterlimit="10"/></g><g transform="translate(-38,2) scale(1,1)"><path d="M 955.8373251423759 1076.2095177560159 L 966 1072 L 955.8373251423758 1067.7904822439841" fill="#000000" stroke="none"/></g><g transform="translate(-38,2) scale(1,1)"><path d="M 955.8373251423759 1076.2095177560159 L 966 1072 L 955.8373251423758 1067.7904822439841 L 955.8373251423759 1076.2095177560159" fill="none" stroke="#000000" stroke-miterlimit="10"/></g><g transform="translate(-38,2) scale(1,1)"><g><path fill="none" stroke="none"/><text fill="#000000" font-family="Arial" font-size="13px" font-style="normal" font-weight="normal" stroke="none" text-decoration="none" x="787.287841796875" y="1049.5">21 : registraAccount(nominativo,</text><text fill="#000000" font-family="Arial" font-size="13px" font-style="normal" font-weight="normal" stroke="none" text-decoration="none" x="834.9873046875" y="1062.5">mail, password)</text></g></g><g transform="translate(-38,2) scale(1,1)"><rect fill="#ffffff" height="28" stroke="none" width="13" x="966" y="1072"/></g><g transform="translate(-38,2) scale(1,1)"><path d="M 966 1072 L 979 1072 L 979 1100 L 966 1100 L 966 1072 Z Z" fill="none" stroke="#000000" stroke-miterlimit="10"/></g><g transform="translate(-38,2) scale(1,1)"><path d="M 966 1096 L 789 1096" fill="none" stroke="#000000" stroke-dasharray="3" stroke-miterlimit="10"/></g><g transform="translate(-38,2) scale(1,1)"><path d="M 799.1626748576241 1091.7904822439841 L 789 1096 L 799.1626748576241 1100.2095177560159" fill="none" stroke="#000000" stroke-miterlimit="10"/></g><g transform="translate(-38,2) scale(1,1)"><g><path fill="none" stroke="none"/><text fill="#000000" font-family="Arial" font-size="13px" font-style="normal" font-weight="normal" stroke="none" text-decoration="none" x="849.759521484375" y="1110.5">22 : esito</text></g></g><g transform="translate(-38,2) scale(1,1)"><path d="M 776 1104 L 557 1104" fill="none" stroke="#000000" stroke-dasharray="3" stroke-miterlimit="10"/></g><g transform="translate(-38,2) scale(1,1)"><path d="M 567.1626748576241 1099.7904822439841 L 557 1104 L 567.1626748576241 1108.2095177560159" fill="none" stroke="#000000" stroke-miterlimit="10"/></g><g transform="translate(-38,2) scale(1,1)"><g><path fill="none" stroke="none"/><text fill="#000000" font-family="Arial" font-size="13px" font-style="normal" font-weight="normal" stroke="none" text-decoration="none" x="638.5" y="1118.5">23 : esito</text></g></g><g transform="translate(-38,2) scale(1,1)"><path d="M 557 1136 L 587 1136 L 587 1156 L 563 1156" fill="none" stroke="#000000" stroke-miterlimit="10"/></g><g transform="translate(-38,2) scale(1,1)"><path d="M 573.1626748576241 1151.7904822439841 L 563 1156 L 573.1626748576241 1160.2095177560159" fill="#000000" stroke="none"/></g><g transform="translate(-38,2) scale(1,1)"><path d="M 573.1626748576241 1151.7904822439841 L 563 1156 L 573.1626748576241 1160.2095177560159 L 573.1626748576241 1151.7904822439841" fill="none" stroke="#000000" stroke-miterlimit="10"/></g><g transform="translate(-38,2) scale(1,1)"><path d="M 547 1222 L 567 1242" fill="none" stroke="#000000" stroke-miterlimit="10"/></g><g transform="translate(-38,2) scale(1,1)"><path d="M 567 1222 L 547 1242" fill="none" stroke="#000000" stroke-miterlimit="10"/></g><g transform="translate(-38,2) scale(1,1)"><g><path fill="none" stroke="none"/><text fill="#000000" font-family="Arial" font-size="13px" font-style="normal" font-weight="normal" stroke="none" text-decoration="none" x="582.5" y="1170.5">24 : </text></g></g><g transform="translate(-38,2) scale(1,1)"><g><path fill="none" stroke="none"/><text fill="#000000" font-family="Arial" font-size="13px" font-style="normal" font-weight="normal" stroke="none" text-decoration="none" x="606.5" y="1170.5">«destroy»</text></g></g><g transform="translate(-38,2) scale(1,1)"><rect fill="#ffffff" height="28" stroke="none" width="13" x="550" y="1156"/></g><g transform="translate(-38,2) scale(1,1)"><path d="M 550 1156 L 563 1156 L 563 1184 L 550 1184 L 550 1156 Z Z" fill="none" stroke="#000000" stroke-miterlimit="10"/></g><g transform="translate(-38,2) scale(1,1)"><path d="M 550 1168 L 370 1168" fill="none" stroke="#000000" stroke-miterlimit="10"/></g><g transform="translate(-38,2) scale(1,1)"><path d="M 380.16267485762415 1163.7904822439841 L 370 1168 L 380.16267485762415 1172.2095177560159" fill="#000000" stroke="none"/></g><g transform="translate(-38,2) scale(1,1)"><path d="M 380.16267485762415 1163.7904822439841 L 370 1168 L 380.16267485762415 1172.2095177560159 L 380.16267485762415 1163.7904822439841" fill="none" stroke="#000000" stroke-miterlimit="10"/></g><g transform="translate(-38,2) scale(1,1)"><path d="M 354 1214 L 374 1234" fill="none" stroke="#000000" stroke-miterlimit="10"/></g><g transform="translate(-38,2) scale(1,1)"><path d="M 374 1214 L 354 1234" fill="none" stroke="#000000" stroke-miterlimit="10"/></g><g transform="translate(-38,2) scale(1,1)"><g><path fill="none" stroke="none"/><text fill="#000000" font-family="Arial" font-size="13px" font-style="normal" font-weight="normal" stroke="none" text-decoration="none" x="446.5" y="1182.5">25 : </text></g></g><g transform="translate(-38,2) scale(1,1)"><g><path fill="none" stroke="none"/><text fill="#000000" font-family="Arial" font-size="13px" font-style="normal" font-weight="normal" stroke="none" text-decoration="none" x="430.5" y="1197.5">«destroy»</text></g></g><g transform="translate(-38,2) scale(1,1)"><rect fill="#ffffff" height="28" stroke="none" width="13" x="357" y="1168"/></g><g transform="translate(-38,2) scale(1,1)"><path d="M 357 1168 L 370 1168 L 370 1196 L 357 1196 L 357 1168 Z Z" fill="none" stroke="#000000" stroke-miterlimit="10"/></g><g transform="translate(-38,2) scale(1,1)"><path d="M 80 232 L 1016 232 L 1016 792 L 80 792 L 80 232" fill="none" stroke="#000000" stroke-miterlimit="10"/></g><g transform="translate(-38,2) scale(1,1)"><path d="M 80 232 L 80 254 L 380.705078125 254 L 391.705078125 243 L 391.705078125 232 L 80 232" fill="#ffffff" stroke="none"/></g><g transform="translate(-38,2) scale(1,1)"><path d="M 80 232 L 80 254 L 380.705078125 254 L 391.705078125 243 L 391.705078125 232 L 80 232 L 80 232" fill="none" stroke="#000000" stroke-miterlimit="10"/></g><g transform="translate(-38,2) scale(1,1)"><g><path fill="none" stroke="none"/><text fill="#000000" font-family="Arial" font-size="13px" font-style="normal" font-weight="normal" stroke="none" text-decoration="none" x="115.578125" y="247.5">[ password non valida OR mail già esistente ]</text></g></g><g transform="translate(-38,2) scale(1,1)"><g><path fill="none" stroke="none"/><text fill="#000000" font-family="Arial" font-size="13px" font-style="normal" font-weight="bold" stroke="none" text-decoration="none" x="83.57177734375" y="247.5">loop</text></g></g><g transform="translate(-38,2) scale(1,1)"><path d="M 88 400 L 624 400 L 624 544 L 88 544 L 88 400" fill="none" stroke="#000000" stroke-miterlimit="10"/></g><g transform="translate(-38,2) scale(1,1)"><path d="M 88 400 L 88 422 L 255.0361328125 422 L 266.0361328125 411 L 266.0361328125 400 L 88 400" fill="#ffffff" stroke="none"/></g><g transform="translate(-38,2) scale(1,1)"><path d="M 88 400 L 88 422 L 255.0361328125 422 L 266.0361328125 411 L 266.0361328125 400 L 88 400 L 88 400" fill="none" stroke="#000000" stroke-miterlimit="10"/></g><g transform="translate(-38,2) scale(1,1)"><g><path fill="none" stroke="none"/><text fill="#000000" font-family="Arial" font-size="13px" font-style="normal" font-weight="normal" stroke="none" text-decoration="none" x="117.07177734375" y="415.5">[ password non valida ]</text></g></g><g transform="translate(-38,2) scale(1,1)"><g><path fill="none" stroke="none"/><text fill="#000000" font-family="Arial" font-size="13px" font-style="normal" font-weight="bold" stroke="none" text-decoration="none" x="91.930419921875" y="415.5">opt</text></g></g><g transform="translate(-38,2) scale(1,1)"><path d="M 104 640 L 608 640 L 608 784 L 104 784 L 104 640" fill="none" stroke="#000000" stroke-miterlimit="10"/></g><g transform="translate(-38,2) scale(1,1)"><path d="M 104 640 L 104 662 L 256.56982421875 662 L 267.56982421875 651 L 267.56982421875 640 L 104 640" fill="#ffffff" stroke="none"/></g><g transform="translate(-38,2) scale(1,1)"><path d="M 104 640 L 104 662 L 256.56982421875 662 L 267.56982421875 651 L 267.56982421875 640 L 104 640 L 104 640" fill="none" stroke="#000000" stroke-miterlimit="10"/></g><g transform="translate(-38,2) scale(1,1)"><g><path fill="none" stroke="none"/><text fill="#000000" font-family="Arial" font-size="13px" font-style="normal" font-weight="normal" stroke="none" text-decoration="none" x="133.07177734375" y="655.5">[ mail già esistente  ]</text></g></g><g transform="translate(-38,2) scale(1,1)"><g><path fill="none" stroke="none"/><text fill="#000000" font-family="Arial" font-size="13px" font-style="normal" font-weight="bold" stroke="none" text-decoration="none" x="107.930419921875" y="655.5">opt</text></g></g><g transform="translate(-38,2) scale(1,1)"><path d="M 112 888 L 599 888 L 599 999 L 112 999 L 112 888" fill="none" stroke="#000000" stroke-miterlimit="10"/></g><g transform="translate(-38,2) scale(1,1)"><path d="M 112 888 L 112 910 L 251.5888671875 910 L 262.5888671875 899 L 262.5888671875 888 L 112 888" fill="#ffffff" stroke="none"/></g><g transform="translate(-38,2) scale(1,1)"><path d="M 112 888 L 112 910 L 251.5888671875 910 L 262.5888671875 899 L 262.5888671875 888 L 112 888 L 112 888" fill="none" stroke="#000000" stroke-miterlimit="10"/></g><g transform="translate(-38,2) scale(1,1)"><g><path fill="none" stroke="none"/><text fill="#000000" font-family="Arial" font-size="13px" font-style="normal" font-weight="normal" stroke="none" text-decoration="none" x="147.578125" y="903.5"> [ otp non valido ]</text></g></g><g transform="translate(-38,2) scale(1,1)"><g><path fill="none" stroke="none"/><text fill="#000000" font-family="Arial" font-size="13px" font-style="normal" font-weight="bold" stroke="none" text-decoration="none" x="115.57177734375" y="903.5">loop</text></g></g></g></svg>