<?xml version="1.0" encoding="UTF-8" standalone="no"?><svg xmlns="http://www.w3.org/2000/svg" xmlns:xlink="http://www.w3.org/1999/xlink" height="700" version="1.1" width="1316"><defs/><g><g transform="translate(-6,2) scale(1,1)"><path d="M 16 8 L 1312 8 L 1312 688 L 16 688 L 16 8" fill="none" stroke="#000000" stroke-miterlimit="10"/></g><g transform="translate(-6,2) scale(1,1)"><path d="M 16 8 L 16 30 L 118.68359375 30 L 129.68359375 19 L 129.68359375 8 L 16 8" fill="#ffffff" stroke="none"/></g><g transform="translate(-6,2) scale(1,1)"><path d="M 16 8 L 16 30 L 118.68359375 30 L 129.68359375 19 L 129.68359375 8 L 16 8 L 16 8" fill="none" stroke="#000000" stroke-miterlimit="10"/></g><g transform="translate(-6,2) scale(1,1)"><g><path fill="none" stroke="none"/><text fill="#000000" font-family="Arial" font-size="13px" font-style="normal" font-weight="normal" stroke="none" text-decoration="none" x="40.72998046875" y="23.5">Carico Merci</text></g></g><g transform="translate(-6,2) scale(1,1)"><g><path fill="none" stroke="none"/><text fill="#000000" font-family="Arial" font-size="13px" font-style="normal" font-weight="bold" stroke="none" text-decoration="none" x="20.279541015625" y="23.5">sd</text></g></g><g transform="translate(-6,2) scale(1,1)"><path d="M 103.7344833096591 47.3 C 103.7344833096591 43.82060576 106.61288503184092 41 110.16357421875 41 C 113.71426340565908 41 116.5926651278409 43.82060576 116.5926651278409 47.3 C 116.5926651278409 50.779394239999995 113.71426340565908 53.6 110.16357421875 53.6 C 106.61288503184092 53.6 103.7344833096591 50.779394239999995 103.7344833096591 47.3 Z" fill="#ffffff" stroke="none"/></g><g transform="translate(-6,2) scale(1,1)"><path d="M 103.7344833096591 47.3 C 103.7344833096591 43.82060576 106.61288503184092 41 110.16357421875 41 C 113.71426340565908 41 116.5926651278409 43.82060576 116.5926651278409 47.3 C 116.5926651278409 50.779394239999995 113.71426340565908 53.6 110.16357421875 53.6 C 106.61288503184092 53.6 103.7344833096591 50.779394239999995 103.7344833096591 47.3 Z" fill="none" stroke="#000000" stroke-miterlimit="10"/></g><g transform="translate(-6,2) scale(1,1)"><path d="M 110.16357421875 53.6 L 110.16357421875 66.4" fill="none" stroke="#000000" stroke-miterlimit="10"/></g><g transform="translate(-6,2) scale(1,1)"><path d="M 103.35630149147727 58.4 L 116.97084694602273 58.4" fill="none" stroke="#000000" stroke-miterlimit="10"/></g><g transform="translate(-6,2) scale(1,1)"><path d="M 110.16357421875 66.4 L 100.70902876420455 79" fill="none" stroke="#000000" stroke-miterlimit="10"/></g><g transform="translate(-6,2) scale(1,1)"><path d="M 110.16357421875 66.4 L 119.61811967329545 79" fill="none" stroke="#000000" stroke-miterlimit="10"/></g><g transform="translate(-6,2) scale(1,1)"><g><path fill="none" stroke="none"/><text fill="#000000" font-family="Arial" font-size="13px" font-style="normal" font-weight="bold" stroke="none" text-decoration="none" x="71.8681640625" y="97.5">: Farmacista</text></g></g><g transform="translate(-6,2) scale(1,1)"><path d="M 111.5 105 L 111.5 594" fill="none" stroke="#000000" stroke-dasharray="3" stroke-miterlimit="10"/></g><g transform="translate(-6,2) scale(1,1)"><path d="M 1157.899034090909 47.3 C 1157.899034090909 43.82060576 1160.777435813091 41 1164.328125 41 C 1167.878814186909 41 1170.757215909091 43.82060576 1170.757215909091 47.3 C 1170.757215909091 50.779394239999995 1167.878814186909 53.6 1164.328125 53.6 C 1160.777435813091 53.6 1157.899034090909 50.779394239999995 1157.899034090909 47.3 Z" fill="#ffffff" stroke="none"/></g><g transform="translate(-6,2) scale(1,1)"><path d="M 1157.899034090909 47.3 C 1157.899034090909 43.82060576 1160.777435813091 41 1164.328125 41 C 1167.878814186909 41 1170.757215909091 43.82060576 1170.757215909091 47.3 C 1170.757215909091 50.779394239999995 1167.878814186909 53.6 1164.328125 53.6 C 1160.777435813091 53.6 1157.899034090909 50.779394239999995 1157.899034090909 47.3 Z" fill="none" stroke="#000000" stroke-miterlimit="10"/></g><g transform="translate(-6,2) scale(1,1)"><path d="M 1164.328125 53.6 L 1164.328125 66.4" fill="none" stroke="#000000" stroke-miterlimit="10"/></g><g transform="translate(-6,2) scale(1,1)"><path d="M 1157.5208522727273 58.4 L 1171.1353977272727 58.4" fill="none" stroke="#000000" stroke-miterlimit="10"/></g><g transform="translate(-6,2) scale(1,1)"><path d="M 1164.328125 66.4 L 1154.8735795454545 79" fill="none" stroke="#000000" stroke-miterlimit="10"/></g><g transform="translate(-6,2) scale(1,1)"><path d="M 1164.328125 66.4 L 1173.7826704545455 79" fill="none" stroke="#000000" stroke-miterlimit="10"/></g><g transform="translate(-6,2) scale(1,1)"><g><path fill="none" stroke="none"/><text fill="#000000" font-family="Arial" font-size="13px" font-style="normal" font-weight="bold" stroke="none" text-decoration="none" x="1110.8681640625" y="97.5">: DBMS Farmacie</text></g></g><g transform="translate(-6,2) scale(1,1)"><path d="M 1165.5 105 L 1165.5 526" fill="none" stroke="#000000" stroke-dasharray="3" stroke-miterlimit="10"/></g><g transform="translate(-6,2) scale(1,1)"><rect fill="#C0C0C0" height="39" opacity="0.2" stroke="none" width="108.5654296875" x="975" y="47"/></g><g transform="translate(-6,2) scale(1,1)"><rect fill="#ffffff" height="39" stroke="none" width="108.5654296875" x="968" y="40"/></g><g transform="translate(-6,2) scale(1,1)"><path d="M 968 40 L 1076.5654296875 40 L 1076.5654296875 79 L 968 79 L 968 40 Z Z" fill="none" stroke="#000000" stroke-miterlimit="10"/></g><g transform="translate(-6,2) scale(1,1)"><g><path fill="none" stroke="none"/><text fill="#000000" font-family="Arial" font-size="13px" font-style="normal" font-weight="normal" stroke="none" text-decoration="none" x="987.227783203125" y="55.5">«Boundary»</text></g></g><g transform="translate(-6,2) scale(1,1)"><g><path fill="none" stroke="none"/><text fill="#000000" font-family="Arial" font-size="13px" font-style="normal" font-weight="bold" stroke="none" text-decoration="none" x="977.5" y="70.5">DBMSDaemon</text></g></g><g transform="translate(-6,2) scale(1,1)"><path d="M 1023.5 80 L 1023.5 550" fill="none" stroke="#000000" stroke-dasharray="3" stroke-miterlimit="10"/></g><g transform="translate(-6,2) scale(1,1)"><rect fill="#C0C0C0" height="39" opacity="0.2" stroke="none" width="255.17724609375" x="191" y="47"/></g><g transform="translate(-6,2) scale(1,1)"><rect fill="#ffffff" height="39" stroke="none" width="255.17724609375" x="184" y="40"/></g><g transform="translate(-6,2) scale(1,1)"><path d="M 184 40 L 439.17724609375 40 L 439.17724609375 79 L 184 79 L 184 40 Z Z" fill="none" stroke="#000000" stroke-miterlimit="10"/></g><g transform="translate(-6,2) scale(1,1)"><g><path fill="none" stroke="none"/><text fill="#000000" font-family="Arial" font-size="13px" font-style="normal" font-weight="normal" stroke="none" text-decoration="none" x="276.53369140625" y="55.5">«Boundary»</text></g></g><g transform="translate(-6,2) scale(1,1)"><g><path fill="none" stroke="none"/><text fill="#000000" font-family="Arial" font-size="13px" font-style="normal" font-weight="bold" stroke="none" text-decoration="none" x="193.5" y="70.5">: BottoneCaricoMerci[id: codice_lotto]</text></g></g><g transform="translate(-6,2) scale(1,1)"><path d="M 312.5 80 L 312.5 162" fill="none" stroke="#000000" stroke-dasharray="3" stroke-miterlimit="10"/></g><g transform="translate(-6,2) scale(1,1)"><rect fill="#C0C0C0" height="39" opacity="0.2" stroke="none" width="247.26806640625" x="439" y="123"/></g><g transform="translate(-6,2) scale(1,1)"><rect fill="#ffffff" height="39" stroke="none" width="247.26806640625" x="432" y="116"/></g><g transform="translate(-6,2) scale(1,1)"><path d="M 432 116 L 679.26806640625 116 L 679.26806640625 155 L 432 155 L 432 116 Z Z" fill="none" stroke="#000000" stroke-miterlimit="10"/></g><g transform="translate(-6,2) scale(1,1)"><g><path fill="none" stroke="none"/><text fill="#000000" font-family="Arial" font-size="13px" font-style="normal" font-weight="normal" stroke="none" text-decoration="none" x="527.450439453125" y="131.5">«Control»</text></g></g><g transform="translate(-6,2) scale(1,1)"><g><path fill="none" stroke="none"/><text fill="#000000" font-family="Arial" font-size="13px" font-style="normal" font-weight="bold" stroke="none" text-decoration="none" x="441.5" y="146.5">GestoreCaricoMerci[id: codice_lotto]</text></g></g><g transform="translate(-6,2) scale(1,1)"><path d="M 556.5 156 L 556.5 669" fill="none" stroke="#000000" stroke-dasharray="3" stroke-miterlimit="10"/></g><g transform="translate(-6,2) scale(1,1)"><rect fill="#C0C0C0" height="39" opacity="0.2" stroke="none" width="271.10986328125" x="167" y="187"/></g><g transform="translate(-6,2) scale(1,1)"><rect fill="#ffffff" height="39" stroke="none" width="271.10986328125" x="160" y="180"/></g><g transform="translate(-6,2) scale(1,1)"><path d="M 160 180 L 431.10986328125 180 L 431.10986328125 219 L 160 219 L 160 180 Z Z" fill="none" stroke="#000000" stroke-miterlimit="10"/></g><g transform="translate(-6,2) scale(1,1)"><g><path fill="none" stroke="none"/><text fill="#000000" font-family="Arial" font-size="13px" font-style="normal" font-weight="normal" stroke="none" text-decoration="none" x="260.5" y="195.5">«Boundary»</text></g></g><g transform="translate(-6,2) scale(1,1)"><g><path fill="none" stroke="none"/><text fill="#000000" font-family="Arial" font-size="13px" font-style="normal" font-weight="bold" stroke="none" text-decoration="none" x="169.5" y="210.5">: InterfacciaCaricoMerci[id: codice_lotto]</text></g></g><g transform="translate(-6,2) scale(1,1)"><path d="M 296.5 220 L 296.5 669" fill="none" stroke="#000000" stroke-dasharray="3" stroke-miterlimit="10"/></g><g transform="translate(-6,2) scale(1,1)"><rect fill="#C0C0C0" height="39" opacity="0.2" stroke="none" width="165.64990234375" x="327" y="515"/></g><g transform="translate(-6,2) scale(1,1)"><rect fill="#ffffff" height="39" stroke="none" width="165.64990234375" x="320" y="508"/></g><g transform="translate(-6,2) scale(1,1)"><path d="M 320 508 L 485.64990234375 508 L 485.64990234375 547 L 320 547 L 320 508 Z Z" fill="none" stroke="#000000" stroke-miterlimit="10"/></g><g transform="translate(-6,2) scale(1,1)"><g><path fill="none" stroke="none"/><text fill="#000000" font-family="Arial" font-size="13px" font-style="normal" font-weight="normal" stroke="none" text-decoration="none" x="367.77001953125" y="523.5">«Boundary»</text></g></g><g transform="translate(-6,2) scale(1,1)"><g><path fill="none" stroke="none"/><text fill="#000000" font-family="Arial" font-size="13px" font-style="normal" font-weight="bold" stroke="none" text-decoration="none" x="329.5" y="538.5">: InterfacciaDiConferma</text></g></g><g transform="translate(-6,2) scale(1,1)"><path d="M 403.5 548 L 403.5 672" fill="none" stroke="#000000" stroke-dasharray="3" stroke-miterlimit="10"/></g><g transform="translate(-6,2) scale(1,1)"><rect fill="#C0C0C0" height="39" opacity="0.2" stroke="none" width="150.47265625" x="647" y="47"/></g><g transform="translate(-6,2) scale(1,1)"><rect fill="#ffffff" height="39" stroke="none" width="150.47265625" x="640" y="40"/></g><g transform="translate(-6,2) scale(1,1)"><path d="M 640 40 L 790.47265625 40 L 790.47265625 79 L 640 79 L 640 40 Z Z" fill="none" stroke="#000000" stroke-miterlimit="10"/></g><g transform="translate(-6,2) scale(1,1)"><g><path fill="none" stroke="none"/><text fill="#000000" font-family="Arial" font-size="13px" font-style="normal" font-weight="normal" stroke="none" text-decoration="none" x="680.181396484375" y="55.5">«Boundary»</text></g></g><g transform="translate(-6,2) scale(1,1)"><g><path fill="none" stroke="none"/><text fill="#000000" font-family="Arial" font-size="13px" font-style="normal" font-weight="bold" stroke="none" text-decoration="none" x="649.5" y="70.5">: BoundaryDiSistema</text></g></g><g transform="translate(-6,2) scale(1,1)"><path d="M 716.5 80 L 716.5 454" fill="none" stroke="#000000" stroke-dasharray="3" stroke-miterlimit="10"/></g><g transform="translate(-6,2) scale(1,1)"><rect fill="#C0C0C0" height="39" opacity="0.2" stroke="none" width="138.9326171875" x="823" y="47"/></g><g transform="translate(-6,2) scale(1,1)"><rect fill="#ffffff" height="39" stroke="none" width="138.9326171875" x="816" y="40"/></g><g transform="translate(-6,2) scale(1,1)"><path d="M 816 40 L 954.9326171875 40 L 954.9326171875 79 L 816 79 L 816 40 Z Z" fill="none" stroke="#000000" stroke-miterlimit="10"/></g><g transform="translate(-6,2) scale(1,1)"><g><path fill="none" stroke="none"/><text fill="#000000" font-family="Arial" font-size="13px" font-style="normal" font-weight="normal" stroke="none" text-decoration="none" x="857.28271484375" y="55.5">«Control»</text></g></g><g transform="translate(-6,2) scale(1,1)"><g><path fill="none" stroke="none"/><text fill="#000000" font-family="Arial" font-size="13px" font-style="normal" font-weight="bold" stroke="none" text-decoration="none" x="825.5" y="70.5">: GestoreDiSistema</text></g></g><g transform="translate(-6,2) scale(1,1)"><path d="M 886.5 80 L 886.5 447" fill="none" stroke="#000000" stroke-dasharray="3" stroke-miterlimit="10"/></g><g transform="translate(-6,2) scale(1,1)"><path d="M 111 120 L 305 120" fill="none" stroke="#000000" stroke-miterlimit="10"/></g><g transform="translate(-6,2) scale(1,1)"><path d="M 294.83732514237585 124.20951775601598 L 305 120 L 294.83732514237585 115.79048224398402" fill="#000000" stroke="none"/></g><g transform="translate(-6,2) scale(1,1)"><path d="M 294.83732514237585 124.20951775601598 L 305 120 L 294.83732514237585 115.79048224398402 L 294.83732514237585 124.20951775601598" fill="none" stroke="#000000" stroke-miterlimit="10"/></g><g transform="translate(-6,2) scale(1,1)"><g><path fill="none" stroke="none"/><text fill="#000000" font-family="Arial" font-size="13px" font-style="normal" font-weight="normal" stroke="none" text-decoration="none" x="185.851318359375" y="114.5">1 : click</text></g></g><g transform="translate(-6,2) scale(1,1)"><rect fill="#ffffff" height="28" stroke="none" width="13" x="305" y="120"/></g><g transform="translate(-6,2) scale(1,1)"><path d="M 305 120 L 318 120 L 318 148 L 305 148 L 305 120 Z Z" fill="none" stroke="#000000" stroke-miterlimit="10"/></g><g transform="translate(-6,2) scale(1,1)"><path d="M 318 136 L 432 136" fill="none" stroke="#000000" stroke-dasharray="3" stroke-miterlimit="10"/></g><g transform="translate(-6,2) scale(1,1)"><path d="M 421.83732514237585 140.209517756016 L 432 136 L 421.83732514237585 131.790482243984" fill="none" stroke="#000000" stroke-miterlimit="10"/></g><g transform="translate(-6,2) scale(1,1)"><g><path fill="none" stroke="none"/><text fill="#000000" font-family="Arial" font-size="13px" font-style="normal" font-weight="normal" stroke="none" text-decoration="none" x="326.5" y="130.5">2 : (codice_lotto)</text></g></g><g transform="translate(-6,2) scale(1,1)"><g><path fill="none" stroke="none"/><text fill="#000000" font-family="Arial" font-size="13px" font-style="normal" font-weight="normal" stroke="none" text-decoration="none" x="349.5" y="115.5">«create»</text></g></g><g transform="translate(-6,2) scale(1,1)"><path d="M 556 200 L 431.10986328125 200" fill="none" stroke="#000000" stroke-dasharray="3" stroke-miterlimit="10"/></g><g transform="translate(-6,2) scale(1,1)"><path d="M 441.27253813887415 195.790482243984 L 431.10986328125 200 L 441.27253813887415 204.209517756016" fill="none" stroke="#000000" stroke-miterlimit="10"/></g><g transform="translate(-6,2) scale(1,1)"><g><path fill="none" stroke="none"/><text fill="#000000" font-family="Arial" font-size="13px" font-style="normal" font-weight="normal" stroke="none" text-decoration="none" x="443.5" y="214.5">3 : (codice_lotto)</text></g></g><g transform="translate(-6,2) scale(1,1)"><g><path fill="none" stroke="none"/><text fill="#000000" font-family="Arial" font-size="13px" font-style="normal" font-weight="normal" stroke="none" text-decoration="none" x="466.5" y="229.5">«create»</text></g></g><g transform="translate(-6,2) scale(1,1)"><path d="M 111 288 L 289 288" fill="none" stroke="#000000" stroke-miterlimit="10"/></g><g transform="translate(-6,2) scale(1,1)"><path d="M 278.83732514237585 292.209517756016 L 289 288 L 278.83732514237585 283.790482243984" fill="#000000" stroke="none"/></g><g transform="translate(-6,2) scale(1,1)"><path d="M 278.83732514237585 292.209517756016 L 289 288 L 278.83732514237585 283.790482243984 L 278.83732514237585 292.209517756016" fill="none" stroke="#000000" stroke-miterlimit="10"/></g><g transform="translate(-6,2) scale(1,1)"><g><path fill="none" stroke="none"/><text fill="#000000" font-family="Arial" font-size="13px" font-style="normal" font-weight="normal" stroke="none" text-decoration="none" x="102.607666015625" y="282.5">4 : inserisciDatiFarmaco(quantita)</text></g></g><g transform="translate(-6,2) scale(1,1)"><rect fill="#ffffff" height="28" stroke="none" width="13" x="289" y="288"/></g><g transform="translate(-6,2) scale(1,1)"><path d="M 289 288 L 302 288 L 302 316 L 289 316 L 289 288 Z Z" fill="none" stroke="#000000" stroke-miterlimit="10"/></g><g transform="translate(-6,2) scale(1,1)"><path d="M 111 328 L 289 328" fill="none" stroke="#000000" stroke-miterlimit="10"/></g><g transform="translate(-6,2) scale(1,1)"><path d="M 278.83732514237585 332.209517756016 L 289 328 L 278.83732514237585 323.790482243984" fill="#000000" stroke="none"/></g><g transform="translate(-6,2) scale(1,1)"><path d="M 278.83732514237585 332.209517756016 L 289 328 L 278.83732514237585 323.790482243984 L 278.83732514237585 332.209517756016" fill="none" stroke="#000000" stroke-miterlimit="10"/></g><g transform="translate(-6,2) scale(1,1)"><g><path fill="none" stroke="none"/><text fill="#000000" font-family="Arial" font-size="13px" font-style="normal" font-weight="normal" stroke="none" text-decoration="none" x="146.5" y="322.5">5 : cliccaConferma</text></g></g><g transform="translate(-6,2) scale(1,1)"><rect fill="#ffffff" height="28" stroke="none" width="13" x="289" y="328"/></g><g transform="translate(-6,2) scale(1,1)"><path d="M 289 328 L 302 328 L 302 356 L 289 356 L 289 328 Z Z" fill="none" stroke="#000000" stroke-miterlimit="10"/></g><g transform="translate(-6,2) scale(1,1)"><path d="M 302 352 L 549 352" fill="none" stroke="#000000" stroke-miterlimit="10"/></g><g transform="translate(-6,2) scale(1,1)"><path d="M 538.8373251423759 356.209517756016 L 549 352 L 538.8373251423758 347.790482243984" fill="#000000" stroke="none"/></g><g transform="translate(-6,2) scale(1,1)"><path d="M 538.8373251423759 356.209517756016 L 549 352 L 538.8373251423758 347.790482243984 L 538.8373251423759 356.209517756016" fill="none" stroke="#000000" stroke-miterlimit="10"/></g><g transform="translate(-6,2) scale(1,1)"><g><path fill="none" stroke="none"/><text fill="#000000" font-family="Arial" font-size="13px" font-style="normal" font-weight="normal" stroke="none" text-decoration="none" x="370.819580078125" y="329.5">6 : caricaFarmaco(</text><text fill="#000000" font-family="Arial" font-size="13px" font-style="normal" font-weight="normal" stroke="none" text-decoration="none" x="361.40283203125" y="342.5">codice_lotto, quantita)</text></g></g><g transform="translate(-6,2) scale(1,1)"><rect fill="#ffffff" height="28" stroke="none" width="13" x="549" y="352"/></g><g transform="translate(-6,2) scale(1,1)"><path d="M 549 352 L 562 352 L 562 380 L 549 380 L 549 352 Z Z" fill="none" stroke="#000000" stroke-miterlimit="10"/></g><g transform="translate(-6,2) scale(1,1)"><path d="M 562 376 L 709 376" fill="none" stroke="#000000" stroke-miterlimit="10"/></g><g transform="translate(-6,2) scale(1,1)"><path d="M 698.8373251423759 380.209517756016 L 709 376 L 698.8373251423758 371.790482243984" fill="#000000" stroke="none"/></g><g transform="translate(-6,2) scale(1,1)"><path d="M 698.8373251423759 380.209517756016 L 709 376 L 698.8373251423758 371.790482243984 L 698.8373251423759 380.209517756016" fill="none" stroke="#000000" stroke-miterlimit="10"/></g><g transform="translate(-6,2) scale(1,1)"><g><path fill="none" stroke="none"/><text fill="#000000" font-family="Arial" font-size="13px" font-style="normal" font-weight="normal" stroke="none" text-decoration="none" x="595.5" y="370.5">7 : chiediData</text></g></g><g transform="translate(-6,2) scale(1,1)"><rect fill="#ffffff" height="28" stroke="none" width="13" x="709" y="376"/></g><g transform="translate(-6,2) scale(1,1)"><path d="M 709 376 L 722 376 L 722 404 L 709 404 L 709 376 Z Z" fill="none" stroke="#000000" stroke-miterlimit="10"/></g><g transform="translate(-6,2) scale(1,1)"><path d="M 722 392 L 879 392" fill="none" stroke="#000000" stroke-miterlimit="10"/></g><g transform="translate(-6,2) scale(1,1)"><path d="M 868.8373251423759 396.209517756016 L 879 392 L 868.8373251423758 387.790482243984" fill="#000000" stroke="none"/></g><g transform="translate(-6,2) scale(1,1)"><path d="M 868.8373251423759 396.209517756016 L 879 392 L 868.8373251423758 387.790482243984 L 868.8373251423759 396.209517756016" fill="none" stroke="#000000" stroke-miterlimit="10"/></g><g transform="translate(-6,2) scale(1,1)"><g><path fill="none" stroke="none"/><text fill="#000000" font-family="Arial" font-size="13px" font-style="normal" font-weight="normal" stroke="none" text-decoration="none" x="760.5" y="386.5">8 : chiediData</text></g></g><g transform="translate(-6,2) scale(1,1)"><rect fill="#ffffff" height="28" stroke="none" width="13" x="879" y="392"/></g><g transform="translate(-6,2) scale(1,1)"><path d="M 879 392 L 892 392 L 892 420 L 879 420 L 879 392 Z Z" fill="none" stroke="#000000" stroke-miterlimit="10"/></g><g transform="translate(-6,2) scale(1,1)"><path d="M 879 417 L 716 417" fill="none" stroke="#000000" stroke-dasharray="3" stroke-miterlimit="10"/></g><g transform="translate(-6,2) scale(1,1)"><path d="M 726.1626748576241 412.790482243984 L 716 417 L 726.1626748576241 421.209517756016" fill="none" stroke="#000000" stroke-miterlimit="10"/></g><g transform="translate(-6,2) scale(1,1)"><g><path fill="none" stroke="none"/><text fill="#000000" font-family="Arial" font-size="13px" font-style="normal" font-weight="normal" stroke="none" text-decoration="none" x="774.5" y="431.5">9 : data</text></g></g><g transform="translate(-6,2) scale(1,1)"><path d="M 716 424 L 556 424" fill="none" stroke="#000000" stroke-dasharray="3" stroke-miterlimit="10"/></g><g transform="translate(-6,2) scale(1,1)"><path d="M 566.1626748576241 419.790482243984 L 556 424 L 566.1626748576241 428.209517756016" fill="none" stroke="#000000" stroke-miterlimit="10"/></g><g transform="translate(-6,2) scale(1,1)"><g><path fill="none" stroke="none"/><text fill="#000000" font-family="Arial" font-size="13px" font-style="normal" font-weight="normal" stroke="none" text-decoration="none" x="609.5" y="438.5">10 : data</text></g></g><g transform="translate(-6,2) scale(1,1)"><path d="M 556 472 L 1016 472" fill="none" stroke="#000000" stroke-miterlimit="10"/></g><g transform="translate(-6,2) scale(1,1)"><path d="M 1005.8373251423759 476.209517756016 L 1016 472 L 1005.8373251423758 467.790482243984" fill="#000000" stroke="none"/></g><g transform="translate(-6,2) scale(1,1)"><path d="M 1005.8373251423759 476.209517756016 L 1016 472 L 1005.8373251423758 467.790482243984 L 1005.8373251423759 476.209517756016" fill="none" stroke="#000000" stroke-miterlimit="10"/></g><g transform="translate(-6,2) scale(1,1)"><g><path fill="none" stroke="none"/><text fill="#000000" font-family="Arial" font-size="13px" font-style="normal" font-weight="normal" stroke="none" text-decoration="none" x="692.46875" y="449.5">11 : caricaFarmaco(codice_lotto,</text><text fill="#000000" font-family="Arial" font-size="13px" font-style="normal" font-weight="normal" stroke="none" text-decoration="none" x="697.0263671875" y="462.5">quantita, data_di_caricametno)</text></g></g><g transform="translate(-6,2) scale(1,1)"><rect fill="#ffffff" height="28" stroke="none" width="13" x="1016" y="472"/></g><g transform="translate(-6,2) scale(1,1)"><path d="M 1016 472 L 1029 472 L 1029 500 L 1016 500 L 1016 472 Z Z" fill="none" stroke="#000000" stroke-miterlimit="10"/></g><g transform="translate(-6,2) scale(1,1)"><path d="M 1029 496 L 1158 496" fill="none" stroke="#000000" stroke-miterlimit="10"/></g><g transform="translate(-6,2) scale(1,1)"><path d="M 1147.837325142376 500.209517756016 L 1158 496 L 1147.837325142376 491.790482243984" fill="#000000" stroke="none"/></g><g transform="translate(-6,2) scale(1,1)"><path d="M 1147.837325142376 500.209517756016 L 1158 496 L 1147.837325142376 491.790482243984 L 1147.837325142376 500.209517756016" fill="none" stroke="#000000" stroke-miterlimit="10"/></g><g transform="translate(-6,2) scale(1,1)"><g><path fill="none" stroke="none"/><text fill="#000000" font-family="Arial" font-size="13px" font-style="normal" font-weight="normal" stroke="none" text-decoration="none" x="1002.986328125" y="457.5">12 : caricaFarmaco(codice_lotto,</text><text fill="#000000" font-family="Arial" font-size="13px" font-style="normal" font-weight="normal" stroke="none" text-decoration="none" x="1071.982177734375" y="470.5">quantita)</text></g></g><g transform="translate(-6,2) scale(1,1)"><rect fill="#ffffff" height="28" stroke="none" width="13" x="1158" y="496"/></g><g transform="translate(-6,2) scale(1,1)"><path d="M 1158 496 L 1171 496 L 1171 524 L 1158 524 L 1158 496 Z Z" fill="none" stroke="#000000" stroke-miterlimit="10"/></g><g transform="translate(-6,2) scale(1,1)"><path d="M 1158 512 L 1023 512" fill="none" stroke="#000000" stroke-dasharray="3" stroke-miterlimit="10"/></g><g transform="translate(-6,2) scale(1,1)"><path d="M 1033.162674857624 507.790482243984 L 1023 512 L 1033.162674857624 516.209517756016" fill="none" stroke="#000000" stroke-miterlimit="10"/></g><g transform="translate(-6,2) scale(1,1)"><g><path fill="none" stroke="none"/><text fill="#000000" font-family="Arial" font-size="13px" font-style="normal" font-weight="normal" stroke="none" text-decoration="none" x="1062.5" y="526.5">13 : esito</text></g></g><g transform="translate(-6,2) scale(1,1)"><path d="M 1023 520 L 556 520" fill="none" stroke="#000000" stroke-dasharray="3" stroke-miterlimit="10"/></g><g transform="translate(-6,2) scale(1,1)"><path d="M 566.1626748576241 515.790482243984 L 556 520 L 566.1626748576241 524.209517756016" fill="none" stroke="#000000" stroke-miterlimit="10"/></g><g transform="translate(-6,2) scale(1,1)"><g><path fill="none" stroke="none"/><text fill="#000000" font-family="Arial" font-size="13px" font-style="normal" font-weight="normal" stroke="none" text-decoration="none" x="761.5" y="534.5">14 : esito</text></g></g><g transform="translate(-6,2) scale(1,1)"><path d="M 556 528 L 485.64990234375 528" fill="none" stroke="#000000" stroke-dasharray="3" stroke-miterlimit="10"/></g><g transform="translate(-6,2) scale(1,1)"><path d="M 495.81257720137415 523.790482243984 L 485.64990234375 528 L 495.81257720137415 532.209517756016" fill="none" stroke="#000000" stroke-miterlimit="10"/></g><g transform="translate(-6,2) scale(1,1)"><g><path fill="none" stroke="none"/><text fill="#000000" font-family="Arial" font-size="13px" font-style="normal" font-weight="normal" stroke="none" text-decoration="none" x="506.5" y="542.5">15 : </text></g></g><g transform="translate(-6,2) scale(1,1)"><g><path fill="none" stroke="none"/><text fill="#000000" font-family="Arial" font-size="13px" font-style="normal" font-weight="normal" stroke="none" text-decoration="none" x="493.5" y="557.5">«create»</text></g></g><g transform="translate(-6,2) scale(1,1)"><path d="M 111 568 L 396 568" fill="none" stroke="#000000" stroke-miterlimit="10"/></g><g transform="translate(-6,2) scale(1,1)"><path d="M 385.83732514237585 572.209517756016 L 396 568 L 385.83732514237585 563.790482243984" fill="#000000" stroke="none"/></g><g transform="translate(-6,2) scale(1,1)"><path d="M 385.83732514237585 572.209517756016 L 396 568 L 385.83732514237585 563.790482243984 L 385.83732514237585 572.209517756016" fill="none" stroke="#000000" stroke-miterlimit="10"/></g><g transform="translate(-6,2) scale(1,1)"><path d="M 393 662 L 413 682" fill="none" stroke="#000000" stroke-miterlimit="10"/></g><g transform="translate(-6,2) scale(1,1)"><path d="M 413 662 L 393 682" fill="none" stroke="#000000" stroke-miterlimit="10"/></g><g transform="translate(-6,2) scale(1,1)"><g><path fill="none" stroke="none"/><text fill="#000000" font-family="Arial" font-size="13px" font-style="normal" font-weight="normal" stroke="none" text-decoration="none" x="195.5" y="562.5">16 : cliccaConferma</text></g></g><g transform="translate(-6,2) scale(1,1)"><g><path fill="none" stroke="none"/><text fill="#000000" font-family="Arial" font-size="13px" font-style="normal" font-weight="normal" stroke="none" text-decoration="none" x="224.5" y="547.5">«destroy»</text></g></g><g transform="translate(-6,2) scale(1,1)"><rect fill="#ffffff" height="28" stroke="none" width="13" x="396" y="568"/></g><g transform="translate(-6,2) scale(1,1)"><path d="M 396 568 L 409 568 L 409 596 L 396 596 L 396 568 Z Z" fill="none" stroke="#000000" stroke-miterlimit="10"/></g><g transform="translate(-6,2) scale(1,1)"><path d="M 403 608 L 549 608" fill="none" stroke="#000000" stroke-miterlimit="10"/></g><g transform="translate(-6,2) scale(1,1)"><path d="M 538.8373251423759 612.209517756016 L 549 608 L 538.8373251423758 603.790482243984" fill="#000000" stroke="none"/></g><g transform="translate(-6,2) scale(1,1)"><path d="M 538.8373251423759 612.209517756016 L 549 608 L 538.8373251423758 603.790482243984 L 538.8373251423759 612.209517756016" fill="none" stroke="#000000" stroke-miterlimit="10"/></g><g transform="translate(-6,2) scale(1,1)"><path d="M 546 659 L 566 679" fill="none" stroke="#000000" stroke-miterlimit="10"/></g><g transform="translate(-6,2) scale(1,1)"><path d="M 566 659 L 546 679" fill="none" stroke="#000000" stroke-miterlimit="10"/></g><g transform="translate(-6,2) scale(1,1)"><g><path fill="none" stroke="none"/><text fill="#000000" font-family="Arial" font-size="13px" font-style="normal" font-weight="normal" stroke="none" text-decoration="none" x="463.5" y="602.5">17 : </text></g></g><g transform="translate(-6,2) scale(1,1)"><g><path fill="none" stroke="none"/><text fill="#000000" font-family="Arial" font-size="13px" font-style="normal" font-weight="normal" stroke="none" text-decoration="none" x="447.5" y="587.5">«destroy»</text></g></g><g transform="translate(-6,2) scale(1,1)"><rect fill="#ffffff" height="28" stroke="none" width="13" x="549" y="608"/></g><g transform="translate(-6,2) scale(1,1)"><path d="M 549 608 L 562 608 L 562 636 L 549 636 L 549 608 Z Z" fill="none" stroke="#000000" stroke-miterlimit="10"/></g><g transform="translate(-6,2) scale(1,1)"><path d="M 549 624 L 302 624" fill="none" stroke="#000000" stroke-miterlimit="10"/></g><g transform="translate(-6,2) scale(1,1)"><path d="M 312.16267485762415 619.790482243984 L 302 624 L 312.16267485762415 628.209517756016" fill="#000000" stroke="none"/></g><g transform="translate(-6,2) scale(1,1)"><path d="M 312.16267485762415 619.790482243984 L 302 624 L 312.16267485762415 628.209517756016 L 312.16267485762415 619.790482243984" fill="none" stroke="#000000" stroke-miterlimit="10"/></g><g transform="translate(-6,2) scale(1,1)"><path d="M 286 659 L 306 679" fill="none" stroke="#000000" stroke-miterlimit="10"/></g><g transform="translate(-6,2) scale(1,1)"><path d="M 306 659 L 286 679" fill="none" stroke="#000000" stroke-miterlimit="10"/></g><g transform="translate(-6,2) scale(1,1)"><g><path fill="none" stroke="none"/><text fill="#000000" font-family="Arial" font-size="13px" font-style="normal" font-weight="normal" stroke="none" text-decoration="none" x="411.5" y="638.5">18 : </text></g></g><g transform="translate(-6,2) scale(1,1)"><g><path fill="none" stroke="none"/><text fill="#000000" font-family="Arial" font-size="13px" font-style="normal" font-weight="normal" stroke="none" text-decoration="none" x="395.5" y="653.5">«destroy»</text></g></g><g transform="translate(-6,2) scale(1,1)"><rect fill="#ffffff" height="28" stroke="none" width="13" x="289" y="624"/></g><g transform="translate(-6,2) scale(1,1)"><path d="M 289 624 L 302 624 L 302 652 L 289 652 L 289 624 Z Z" fill="none" stroke="#000000" stroke-miterlimit="10"/></g></g></svg>