<?xml version="1.0" encoding="UTF-8" standalone="no"?><svg xmlns="http://www.w3.org/2000/svg" xmlns:xlink="http://www.w3.org/1999/xlink" height="1396" version="1.1" width="1028.65625"><defs/><g><g transform="translate(-38,2) scale(1,1)"><path d="M 48 8 L 1048 8 L 1048 1384 L 48 1384 L 48 8" fill="none" stroke="#000000" stroke-miterlimit="10"/></g><g transform="translate(-38,2) scale(1,1)"><path d="M 48 8 L 48 30 L 157.21533203125 30 L 168.21533203125 19 L 168.21533203125 8 L 48 8" fill="#ffffff" stroke="none"/></g><g transform="translate(-38,2) scale(1,1)"><path d="M 48 8 L 48 30 L 157.21533203125 30 L 168.21533203125 19 L 168.21533203125 8 L 48 8 L 48 8" fill="none" stroke="#000000" stroke-miterlimit="10"/></g><g transform="translate(-38,2) scale(1,1)"><g><path fill="none" stroke="none"/><text fill="#000000" font-family="Arial" font-size="13px" font-style="normal" font-weight="normal" stroke="none" text-decoration="none" x="72.72998046875" y="23.5">Registrazione</text></g></g><g transform="translate(-38,2) scale(1,1)"><g><path fill="none" stroke="none"/><text fill="#000000" font-family="Arial" font-size="13px" font-style="normal" font-weight="bold" stroke="none" text-decoration="none" x="52.279541015625" y="23.5">sd</text></g></g><g transform="translate(-38,2) scale(1,1)"><path d="M 126.0604110440341 47.3 C 126.0604110440341 43.82060576 128.9388127662159 41 132.489501953125 41 C 136.0401911400341 41 138.91859286221592 43.82060576 138.91859286221592 47.3 C 138.91859286221592 50.779394239999995 136.0401911400341 53.6 132.489501953125 53.6 C 128.9388127662159 53.6 126.0604110440341 50.779394239999995 126.0604110440341 47.3 Z" fill="#ffffff" stroke="none"/></g><g transform="translate(-38,2) scale(1,1)"><path d="M 126.0604110440341 47.3 C 126.0604110440341 43.82060576 128.9388127662159 41 132.489501953125 41 C 136.0401911400341 41 138.91859286221592 43.82060576 138.91859286221592 47.3 C 138.91859286221592 50.779394239999995 136.0401911400341 53.6 132.489501953125 53.6 C 128.9388127662159 53.6 126.0604110440341 50.779394239999995 126.0604110440341 47.3 Z" fill="none" stroke="#000000" stroke-miterlimit="10"/></g><g transform="translate(-38,2) scale(1,1)"><path d="M 132.489501953125 53.6 L 132.489501953125 66.4" fill="none" stroke="#000000" stroke-miterlimit="10"/></g><g transform="translate(-38,2) scale(1,1)"><path d="M 125.68222922585228 58.4 L 139.29677468039773 58.4" fill="none" stroke="#000000" stroke-miterlimit="10"/></g><g transform="translate(-38,2) scale(1,1)"><path d="M 132.489501953125 66.4 L 123.03495649857955 79" fill="none" stroke="#000000" stroke-miterlimit="10"/></g><g transform="translate(-38,2) scale(1,1)"><path d="M 132.489501953125 66.4 L 141.94404740767047 79" fill="none" stroke="#000000" stroke-miterlimit="10"/></g><g transform="translate(-38,2) scale(1,1)"><g><path fill="none" stroke="none"/><text fill="#000000" font-family="Arial" font-size="13px" font-style="normal" font-weight="bold" stroke="none" text-decoration="none" x="102.8681640625" y="97.5">: Persona</text></g></g><g transform="translate(-38,2) scale(1,1)"><path d="M 133.5 105 L 133.5 1360" fill="none" stroke="#000000" stroke-dasharray="3" stroke-miterlimit="10"/></g><g transform="translate(-38,2) scale(1,1)"><rect fill="#C0C0C0" height="39" opacity="0.2" stroke="none" width="161.9873046875" x="215" y="47"/></g><g transform="translate(-38,2) scale(1,1)"><rect fill="#ffffff" height="39" stroke="none" width="161.9873046875" x="208" y="40"/></g><g transform="translate(-38,2) scale(1,1)"><path d="M 208 40 L 369.9873046875 40 L 369.9873046875 79 L 208 79 L 208 40 Z Z" fill="none" stroke="#000000" stroke-miterlimit="10"/></g><g transform="translate(-38,2) scale(1,1)"><g><path fill="none" stroke="none"/><text fill="#000000" font-family="Arial" font-size="13px" font-style="normal" font-weight="normal" stroke="none" text-decoration="none" x="253.938720703125" y="55.5">«Boundary»</text></g></g><g transform="translate(-38,2) scale(1,1)"><g><path fill="none" stroke="none"/><text fill="#000000" font-family="Arial" font-size="13px" font-style="normal" font-weight="bold" stroke="none" text-decoration="none" x="246.0390625" y="70.5">:ModuloLogin</text></g></g><g transform="translate(-38,2) scale(1,1)"><path d="M 289.5 80 L 289.5 172" fill="none" stroke="#000000" stroke-dasharray="3" stroke-miterlimit="10"/></g><g transform="translate(-38,2) scale(1,1)"><rect fill="#C0C0C0" height="39" opacity="0.2" stroke="none" width="108.5654296875" x="735" y="47"/></g><g transform="translate(-38,2) scale(1,1)"><rect fill="#ffffff" height="39" stroke="none" width="108.5654296875" x="728" y="40"/></g><g transform="translate(-38,2) scale(1,1)"><path d="M 728 40 L 836.5654296875 40 L 836.5654296875 79 L 728 79 L 728 40 Z Z" fill="none" stroke="#000000" stroke-miterlimit="10"/></g><g transform="translate(-38,2) scale(1,1)"><g><path fill="none" stroke="none"/><text fill="#000000" font-family="Arial" font-size="13px" font-style="normal" font-weight="normal" stroke="none" text-decoration="none" x="747.227783203125" y="55.5">«Boundary»</text></g></g><g transform="translate(-38,2) scale(1,1)"><g><path fill="none" stroke="none"/><text fill="#000000" font-family="Arial" font-size="13px" font-style="normal" font-weight="bold" stroke="none" text-decoration="none" x="737.5" y="70.5">DBMSDaemon</text></g></g><g transform="translate(-38,2) scale(1,1)"><path d="M 783.5 80 L 783.5 1312" fill="none" stroke="#000000" stroke-dasharray="3" stroke-miterlimit="10"/></g><g transform="translate(-38,2) scale(1,1)"><rect fill="#C0C0C0" height="39" opacity="0.2" stroke="none" width="153.37353515625" x="487" y="115"/></g><g transform="translate(-38,2) scale(1,1)"><rect fill="#ffffff" height="39" stroke="none" width="153.37353515625" x="480" y="108"/></g><g transform="translate(-38,2) scale(1,1)"><path d="M 480 108 L 633.37353515625 108 L 633.37353515625 147 L 480 147 L 480 108 Z Z" fill="none" stroke="#000000" stroke-miterlimit="10"/></g><g transform="translate(-38,2) scale(1,1)"><g><path fill="none" stroke="none"/><text fill="#000000" font-family="Arial" font-size="13px" font-style="normal" font-weight="normal" stroke="none" text-decoration="none" x="528.503173828125" y="123.5">«Control»</text></g></g><g transform="translate(-38,2) scale(1,1)"><g><path fill="none" stroke="none"/><text fill="#000000" font-family="Arial" font-size="13px" font-style="normal" font-weight="bold" stroke="none" text-decoration="none" x="489.5" y="138.5">GestoreRegistrazione</text></g></g><g transform="translate(-38,2) scale(1,1)"><path d="M 557.5 148 L 557.5 1368" fill="none" stroke="#000000" stroke-dasharray="3" stroke-miterlimit="10"/></g><g transform="translate(-38,2) scale(1,1)"><rect fill="#C0C0C0" height="39" opacity="0.2" stroke="none" width="150.447265625" x="295" y="187"/></g><g transform="translate(-38,2) scale(1,1)"><rect fill="#ffffff" height="39" stroke="none" width="150.447265625" x="288" y="180"/></g><g transform="translate(-38,2) scale(1,1)"><path d="M 288 180 L 438.447265625 180 L 438.447265625 219 L 288 219 L 288 180 Z Z" fill="none" stroke="#000000" stroke-miterlimit="10"/></g><g transform="translate(-38,2) scale(1,1)"><g><path fill="none" stroke="none"/><text fill="#000000" font-family="Arial" font-size="13px" font-style="normal" font-weight="normal" stroke="none" text-decoration="none" x="328.168701171875" y="195.5">«Boundary»</text></g></g><g transform="translate(-38,2) scale(1,1)"><g><path fill="none" stroke="none"/><text fill="#000000" font-family="Arial" font-size="13px" font-style="normal" font-weight="bold" stroke="none" text-decoration="none" x="297.5" y="210.5">ModuloRegistrazione</text></g></g><g transform="translate(-38,2) scale(1,1)"><path d="M 364.5 220 L 364.5 1368" fill="none" stroke="#000000" stroke-dasharray="3" stroke-miterlimit="10"/></g><g transform="translate(-38,2) scale(1,1)"><rect fill="#C0C0C0" height="39" opacity="0.2" stroke="none" width="112.1962890625" x="391" y="419"/></g><g transform="translate(-38,2) scale(1,1)"><rect fill="#ffffff" height="39" stroke="none" width="112.1962890625" x="384" y="412"/></g><g transform="translate(-38,2) scale(1,1)"><path d="M 384 412 L 496.1962890625 412 L 496.1962890625 451 L 384 451 L 384 412 Z Z" fill="none" stroke="#000000" stroke-miterlimit="10"/></g><g transform="translate(-38,2) scale(1,1)"><g><path fill="none" stroke="none"/><text fill="#000000" font-family="Arial" font-size="13px" font-style="normal" font-weight="normal" stroke="none" text-decoration="none" x="405.043212890625" y="427.5">«Boundary»</text></g></g><g transform="translate(-38,2) scale(1,1)"><g><path fill="none" stroke="none"/><text fill="#000000" font-family="Arial" font-size="13px" font-style="normal" font-weight="bold" stroke="none" text-decoration="none" x="393.5" y="442.5">PannelloErrore</text></g></g><g transform="translate(-38,2) scale(1,1)"><path d="M 441.5 452 L 441.5 528" fill="none" stroke="#000000" stroke-dasharray="3" stroke-miterlimit="10"/></g><g transform="translate(-38,2) scale(1,1)"><path d="M 965.899034090909 47.3 C 965.899034090909 43.82060576 968.777435813091 41 972.328125 41 C 975.878814186909 41 978.7572159090909 43.82060576 978.7572159090909 47.3 C 978.7572159090909 50.779394239999995 975.878814186909 53.6 972.328125 53.6 C 968.777435813091 53.6 965.899034090909 50.779394239999995 965.899034090909 47.3 Z" fill="#ffffff" stroke="none"/></g><g transform="translate(-38,2) scale(1,1)"><path d="M 965.899034090909 47.3 C 965.899034090909 43.82060576 968.777435813091 41 972.328125 41 C 975.878814186909 41 978.7572159090909 43.82060576 978.7572159090909 47.3 C 978.7572159090909 50.779394239999995 975.878814186909 53.6 972.328125 53.6 C 968.777435813091 53.6 965.899034090909 50.779394239999995 965.899034090909 47.3 Z" fill="none" stroke="#000000" stroke-miterlimit="10"/></g><g transform="translate(-38,2) scale(1,1)"><path d="M 972.328125 53.6 L 972.328125 66.4" fill="none" stroke="#000000" stroke-miterlimit="10"/></g><g transform="translate(-38,2) scale(1,1)"><path d="M 965.5208522727272 58.4 L 979.1353977272727 58.4" fill="none" stroke="#000000" stroke-miterlimit="10"/></g><g transform="translate(-38,2) scale(1,1)"><path d="M 972.328125 66.4 L 962.8735795454545 79" fill="none" stroke="#000000" stroke-miterlimit="10"/></g><g transform="translate(-38,2) scale(1,1)"><path d="M 972.328125 66.4 L 981.7826704545454 79" fill="none" stroke="#000000" stroke-miterlimit="10"/></g><g transform="translate(-38,2) scale(1,1)"><g><path fill="none" stroke="none"/><text fill="#000000" font-family="Arial" font-size="13px" font-style="normal" font-weight="bold" stroke="none" text-decoration="none" x="918.8681640625" y="97.5">: DBMS Farmacie</text></g></g><g transform="translate(-38,2) scale(1,1)"><path d="M 973.5 105 L 973.5 1320" fill="none" stroke="#000000" stroke-dasharray="3" stroke-miterlimit="10"/></g><g transform="translate(-38,2) scale(1,1)"><rect fill="#C0C0C0" height="39" opacity="0.2" stroke="none" width="112.1962890625" x="399" y="707"/></g><g transform="translate(-38,2) scale(1,1)"><rect fill="#ffffff" height="39" stroke="none" width="112.1962890625" x="392" y="700"/></g><g transform="translate(-38,2) scale(1,1)"><path d="M 392 700 L 504.1962890625 700 L 504.1962890625 739 L 392 739 L 392 700 Z Z" fill="none" stroke="#000000" stroke-miterlimit="10"/></g><g transform="translate(-38,2) scale(1,1)"><g><path fill="none" stroke="none"/><text fill="#000000" font-family="Arial" font-size="13px" font-style="normal" font-weight="normal" stroke="none" text-decoration="none" x="413.043212890625" y="715.5">«Boundary»</text></g></g><g transform="translate(-38,2) scale(1,1)"><g><path fill="none" stroke="none"/><text fill="#000000" font-family="Arial" font-size="13px" font-style="normal" font-weight="bold" stroke="none" text-decoration="none" x="401.5" y="730.5">PannelloErrore</text></g></g><g transform="translate(-38,2) scale(1,1)"><path d="M 449.5 740 L 449.5 819" fill="none" stroke="#000000" stroke-dasharray="3" stroke-miterlimit="10"/></g><g transform="translate(-38,2) scale(1,1)"><rect fill="#C0C0C0" height="39" opacity="0.2" stroke="none" width="143.24267578125" x="319" y="907"/></g><g transform="translate(-38,2) scale(1,1)"><rect fill="#ffffff" height="39" stroke="none" width="143.24267578125" x="312" y="900"/></g><g transform="translate(-38,2) scale(1,1)"><path d="M 312 900 L 455.24267578125 900 L 455.24267578125 939 L 312 939 L 312 900 Z Z" fill="none" stroke="#000000" stroke-miterlimit="10"/></g><g transform="translate(-38,2) scale(1,1)"><g><path fill="none" stroke="none"/><text fill="#000000" font-family="Arial" font-size="13px" font-style="normal" font-weight="normal" stroke="none" text-decoration="none" x="348.56640625" y="915.5">«Boundary»</text></g></g><g transform="translate(-38,2) scale(1,1)"><g><path fill="none" stroke="none"/><text fill="#000000" font-family="Arial" font-size="13px" font-style="normal" font-weight="bold" stroke="none" text-decoration="none" x="321.5" y="930.5">PannelloCodiceOTP</text></g></g><g transform="translate(-38,2) scale(1,1)"><path d="M 384.5 940 L 384.5 1144" fill="none" stroke="#000000" stroke-dasharray="3" stroke-miterlimit="10"/></g><g transform="translate(-38,2) scale(1,1)"><path d="M 370 312 L 550 312" fill="none" stroke="#000000" stroke-miterlimit="10"/></g><g transform="translate(-38,2) scale(1,1)"><path d="M 539.8373251423759 316.209517756016 L 550 312 L 539.8373251423758 307.790482243984" fill="#000000" stroke="none"/></g><g transform="translate(-38,2) scale(1,1)"><path d="M 539.8373251423759 316.209517756016 L 550 312 L 539.8373251423758 307.790482243984 L 539.8373251423759 316.209517756016" fill="none" stroke="#000000" stroke-miterlimit="10"/></g><g transform="translate(-38,2) scale(1,1)"><g><path fill="none" stroke="none"/><text fill="#000000" font-family="Arial" font-size="13px" font-style="normal" font-weight="normal" stroke="none" text-decoration="none" x="374.5" y="306.5">5 : inserisciCredenziali(creds)</text></g></g><g transform="translate(-38,2) scale(1,1)"><rect fill="#ffffff" height="28" stroke="none" width="13" x="550" y="312"/></g><g transform="translate(-38,2) scale(1,1)"><path d="M 550 312 L 563 312 L 563 340 L 550 340 L 550 312 Z Z" fill="none" stroke="#000000" stroke-miterlimit="10"/></g><g transform="translate(-38,2) scale(1,1)"><path d="M 133 122 L 282 122" fill="none" stroke="#000000" stroke-miterlimit="10"/></g><g transform="translate(-38,2) scale(1,1)"><path d="M 271.83732514237585 126.20951775601598 L 282 122 L 271.83732514237585 117.79048224398402" fill="#000000" stroke="none"/></g><g transform="translate(-38,2) scale(1,1)"><path d="M 271.83732514237585 126.20951775601598 L 282 122 L 271.83732514237585 117.79048224398402 L 271.83732514237585 126.20951775601598" fill="none" stroke="#000000" stroke-miterlimit="10"/></g><g transform="translate(-38,2) scale(1,1)"><g><path fill="none" stroke="none"/><text fill="#000000" font-family="Arial" font-size="13px" font-style="normal" font-weight="normal" stroke="none" text-decoration="none" x="154.5" y="116.5">1 : clickRegistra( )</text></g></g><g transform="translate(-38,2) scale(1,1)"><rect fill="#ffffff" height="28" stroke="none" width="13" x="282" y="122"/></g><g transform="translate(-38,2) scale(1,1)"><path d="M 282 122 L 295 122 L 295 150 L 282 150 L 282 122 Z Z" fill="none" stroke="#000000" stroke-miterlimit="10"/></g><g transform="translate(-38,2) scale(1,1)"><path d="M 295 128 L 480 128" fill="none" stroke="#000000" stroke-dasharray="3" stroke-miterlimit="10"/></g><g transform="translate(-38,2) scale(1,1)"><path d="M 469.83732514237585 132.209517756016 L 480 128 L 469.83732514237585 123.79048224398402" fill="none" stroke="#000000" stroke-miterlimit="10"/></g><g transform="translate(-38,2) scale(1,1)"><g><path fill="none" stroke="none"/><text fill="#000000" font-family="Arial" font-size="13px" font-style="normal" font-weight="normal" stroke="none" text-decoration="none" x="377.5" y="122.5">2 : </text></g></g><g transform="translate(-38,2) scale(1,1)"><g><path fill="none" stroke="none"/><text fill="#000000" font-family="Arial" font-size="13px" font-style="normal" font-weight="normal" stroke="none" text-decoration="none" x="361.5" y="107.5">«create»</text></g></g><g transform="translate(-38,2) scale(1,1)"><path d="M 557 200 L 438.447265625 200" fill="none" stroke="#000000" stroke-dasharray="3" stroke-miterlimit="10"/></g><g transform="translate(-38,2) scale(1,1)"><path d="M 448.60994048262415 195.790482243984 L 438.447265625 200 L 448.60994048262415 204.209517756016" fill="none" stroke="#000000" stroke-miterlimit="10"/></g><g transform="translate(-38,2) scale(1,1)"><g><path fill="none" stroke="none"/><text fill="#000000" font-family="Arial" font-size="13px" font-style="normal" font-weight="normal" stroke="none" text-decoration="none" x="486.5" y="214.5">3 : </text></g></g><g transform="translate(-38,2) scale(1,1)"><g><path fill="none" stroke="none"/><text fill="#000000" font-family="Arial" font-size="13px" font-style="normal" font-weight="normal" stroke="none" text-decoration="none" x="470.5" y="229.5">«create»</text></g></g><g transform="translate(-38,2) scale(1,1)"><path d="M 133 296 L 357 296" fill="none" stroke="#000000" stroke-miterlimit="10"/></g><g transform="translate(-38,2) scale(1,1)"><path d="M 346.83732514237585 300.209517756016 L 357 296 L 346.83732514237585 291.790482243984" fill="#000000" stroke="none"/></g><g transform="translate(-38,2) scale(1,1)"><path d="M 346.83732514237585 300.209517756016 L 357 296 L 346.83732514237585 291.790482243984 L 346.83732514237585 300.209517756016" fill="none" stroke="#000000" stroke-miterlimit="10"/></g><g transform="translate(-38,2) scale(1,1)"><g><path fill="none" stroke="none"/><text fill="#000000" font-family="Arial" font-size="13px" font-style="normal" font-weight="normal" stroke="none" text-decoration="none" x="175.364990234375" y="272.5">4 : inserisciCredenziali(</text><text fill="#000000" font-family="Arial" font-size="13px" font-style="normal" font-weight="normal" stroke="none" text-decoration="none" x="224.495849609375" y="285.5">creds)</text></g></g><g transform="translate(-38,2) scale(1,1)"><rect fill="#ffffff" height="28" stroke="none" width="13" x="357" y="296"/></g><g transform="translate(-38,2) scale(1,1)"><path d="M 357 296 L 370 296 L 370 324 L 357 324 L 357 296 Z Z" fill="none" stroke="#000000" stroke-miterlimit="10"/></g><g transform="translate(-38,2) scale(1,1)"><path d="M 557 344 L 587 344 L 587 364 L 563 364" fill="none" stroke="#000000" stroke-miterlimit="10"/></g><g transform="translate(-38,2) scale(1,1)"><path d="M 573.1626748576241 359.790482243984 L 563 364 L 573.1626748576241 368.209517756016" fill="#000000" stroke="none"/></g><g transform="translate(-38,2) scale(1,1)"><path d="M 573.1626748576241 359.790482243984 L 563 364 L 573.1626748576241 368.209517756016 L 573.1626748576241 359.790482243984" fill="none" stroke="#000000" stroke-miterlimit="10"/></g><g transform="translate(-38,2) scale(1,1)"><g><path fill="none" stroke="none"/><text fill="#000000" font-family="Arial" font-size="13px" font-style="normal" font-weight="normal" stroke="none" text-decoration="none" x="599.5" y="357.5">6 : checkValidPwd( )</text></g></g><g transform="translate(-38,2) scale(1,1)"><rect fill="#ffffff" height="28" stroke="none" width="13" x="550" y="364"/></g><g transform="translate(-38,2) scale(1,1)"><path d="M 550 364 L 563 364 L 563 392 L 550 392 L 550 364 Z Z" fill="none" stroke="#000000" stroke-miterlimit="10"/></g><g transform="translate(-38,2) scale(1,1)"><path d="M 557 432 L 496.1962890625 432" fill="none" stroke="#000000" stroke-dasharray="3" stroke-miterlimit="10"/></g><g transform="translate(-38,2) scale(1,1)"><path d="M 506.35896392012415 427.790482243984 L 496.1962890625 432 L 506.35896392012415 436.209517756016" fill="none" stroke="#000000" stroke-miterlimit="10"/></g><g transform="translate(-38,2) scale(1,1)"><g><path fill="none" stroke="none"/><text fill="#000000" font-family="Arial" font-size="13px" font-style="normal" font-weight="normal" stroke="none" text-decoration="none" x="515.564453125" y="446.5">7 : </text></g></g><g transform="translate(-38,2) scale(1,1)"><g><path fill="none" stroke="none"/><text fill="#000000" font-family="Arial" font-size="13px" font-style="normal" font-weight="normal" stroke="none" text-decoration="none" x="499.5" y="461.5">«create»</text></g></g><g transform="translate(-38,2) scale(1,1)"><path d="M 133 480 L 434 480" fill="none" stroke="#000000" stroke-miterlimit="10"/></g><g transform="translate(-38,2) scale(1,1)"><path d="M 423.83732514237585 484.209517756016 L 434 480 L 423.83732514237585 475.790482243984" fill="#000000" stroke="none"/></g><g transform="translate(-38,2) scale(1,1)"><path d="M 423.83732514237585 484.209517756016 L 434 480 L 423.83732514237585 475.790482243984 L 423.83732514237585 484.209517756016" fill="none" stroke="#000000" stroke-miterlimit="10"/></g><g transform="translate(-38,2) scale(1,1)"><path d="M 431 518 L 451 538" fill="none" stroke="#000000" stroke-miterlimit="10"/></g><g transform="translate(-38,2) scale(1,1)"><path d="M 451 518 L 431 538" fill="none" stroke="#000000" stroke-miterlimit="10"/></g><g transform="translate(-38,2) scale(1,1)"><g><path fill="none" stroke="none"/><text fill="#000000" font-family="Arial" font-size="13px" font-style="normal" font-weight="normal" stroke="none" text-decoration="none" x="221.5" y="474.5">8 : inserisciConferma</text></g></g><g transform="translate(-38,2) scale(1,1)"><g><path fill="none" stroke="none"/><text fill="#000000" font-family="Arial" font-size="13px" font-style="normal" font-weight="normal" stroke="none" text-decoration="none" x="254.5" y="459.5">«destroy»</text></g></g><g transform="translate(-38,2) scale(1,1)"><rect fill="#ffffff" height="28" stroke="none" width="13" x="434" y="480"/></g><g transform="translate(-38,2) scale(1,1)"><path d="M 434 480 L 447 480 L 447 508 L 434 508 L 434 480 Z Z" fill="none" stroke="#000000" stroke-miterlimit="10"/></g><g transform="translate(-38,2) scale(1,1)"><path d="M 557 568 L 776 568" fill="none" stroke="#000000" stroke-miterlimit="10"/></g><g transform="translate(-38,2) scale(1,1)"><path d="M 765.8373251423759 572.209517756016 L 776 568 L 765.8373251423758 563.790482243984" fill="#000000" stroke="none"/></g><g transform="translate(-38,2) scale(1,1)"><path d="M 765.8373251423759 572.209517756016 L 776 568 L 765.8373251423758 563.790482243984 L 765.8373251423759 572.209517756016" fill="none" stroke="#000000" stroke-miterlimit="10"/></g><g transform="translate(-38,2) scale(1,1)"><g><path fill="none" stroke="none"/><text fill="#000000" font-family="Arial" font-size="13px" font-style="normal" font-weight="normal" stroke="none" text-decoration="none" x="613.5" y="562.5">9 : checkMailExists(mail)</text></g></g><g transform="translate(-38,2) scale(1,1)"><rect fill="#ffffff" height="104" stroke="none" width="13" x="776" y="568"/></g><g transform="translate(-38,2) scale(1,1)"><path d="M 776 568 L 789 568 L 789 672 L 776 672 L 776 568 Z Z" fill="none" stroke="#000000" stroke-miterlimit="10"/></g><g transform="translate(-38,2) scale(1,1)"><path d="M 789 584 L 966 584" fill="none" stroke="#000000" stroke-miterlimit="10"/></g><g transform="translate(-38,2) scale(1,1)"><path d="M 955.8373251423759 588.209517756016 L 966 584 L 955.8373251423758 579.790482243984" fill="#000000" stroke="none"/></g><g transform="translate(-38,2) scale(1,1)"><path d="M 955.8373251423759 588.209517756016 L 966 584 L 955.8373251423758 579.790482243984 L 955.8373251423759 588.209517756016" fill="none" stroke="#000000" stroke-miterlimit="10"/></g><g transform="translate(-38,2) scale(1,1)"><g><path fill="none" stroke="none"/><text fill="#000000" font-family="Arial" font-size="13px" font-style="normal" font-weight="normal" stroke="none" text-decoration="none" x="801.8681640625" y="578.5">10 : checkMailExists(mail)</text></g></g><g transform="translate(-38,2) scale(1,1)"><rect fill="#ffffff" height="28" stroke="none" width="13" x="966" y="584"/></g><g transform="translate(-38,2) scale(1,1)"><path d="M 966 584 L 979 584 L 979 612 L 966 612 L 966 584 Z Z" fill="none" stroke="#000000" stroke-miterlimit="10"/></g><g transform="translate(-38,2) scale(1,1)"><path d="M 966 608 L 789 608" fill="none" stroke="#000000" stroke-dasharray="3" stroke-miterlimit="10"/></g><g transform="translate(-38,2) scale(1,1)"><path d="M 799.1626748576241 603.790482243984 L 789 608 L 799.1626748576241 612.209517756016" fill="none" stroke="#000000" stroke-miterlimit="10"/></g><g transform="translate(-38,2) scale(1,1)"><g><path fill="none" stroke="none"/><text fill="#000000" font-family="Arial" font-size="13px" font-style="normal" font-weight="normal" stroke="none" text-decoration="none" x="849.759521484375" y="622.5">11 : esito</text></g></g><g transform="translate(-38,2) scale(1,1)"><path d="M 776 656 L 557 656" fill="none" stroke="#000000" stroke-dasharray="3" stroke-miterlimit="10"/></g><g transform="translate(-38,2) scale(1,1)"><path d="M 567.1626748576241 651.790482243984 L 557 656 L 567.1626748576241 660.209517756016" fill="none" stroke="#000000" stroke-miterlimit="10"/></g><g transform="translate(-38,2) scale(1,1)"><g><path fill="none" stroke="none"/><text fill="#000000" font-family="Arial" font-size="13px" font-style="normal" font-weight="normal" stroke="none" text-decoration="none" x="638.759521484375" y="670.5">12 : esito</text></g></g><g transform="translate(-38,2) scale(1,1)"><path d="M 557 720 L 504.1962890625 720" fill="none" stroke="#000000" stroke-dasharray="3" stroke-miterlimit="10"/></g><g transform="translate(-38,2) scale(1,1)"><path d="M 514.3589639201241 715.790482243984 L 504.1962890625 720 L 514.3589639201241 724.209517756016" fill="none" stroke="#000000" stroke-miterlimit="10"/></g><g transform="translate(-38,2) scale(1,1)"><g><path fill="none" stroke="none"/><text fill="#000000" font-family="Arial" font-size="13px" font-style="normal" font-weight="normal" stroke="none" text-decoration="none" x="516.5" y="734.5">13 : </text></g></g><g transform="translate(-38,2) scale(1,1)"><g><path fill="none" stroke="none"/><text fill="#000000" font-family="Arial" font-size="13px" font-style="normal" font-weight="normal" stroke="none" text-decoration="none" x="503.5" y="749.5">«create»</text></g></g><g transform="translate(-38,2) scale(1,1)"><path d="M 133 777 L 442 777" fill="none" stroke="#000000" stroke-miterlimit="10"/></g><g transform="translate(-38,2) scale(1,1)"><path d="M 431.83732514237585 781.209517756016 L 442 777 L 431.83732514237585 772.790482243984" fill="#000000" stroke="none"/></g><g transform="translate(-38,2) scale(1,1)"><path d="M 431.83732514237585 781.209517756016 L 442 777 L 431.83732514237585 772.790482243984 L 431.83732514237585 781.209517756016" fill="none" stroke="#000000" stroke-miterlimit="10"/></g><g transform="translate(-38,2) scale(1,1)"><path d="M 439 809 L 459 829" fill="none" stroke="#000000" stroke-miterlimit="10"/></g><g transform="translate(-38,2) scale(1,1)"><path d="M 459 809 L 439 829" fill="none" stroke="#000000" stroke-miterlimit="10"/></g><g transform="translate(-38,2) scale(1,1)"><g><path fill="none" stroke="none"/><text fill="#000000" font-family="Arial" font-size="13px" font-style="normal" font-weight="normal" stroke="none" text-decoration="none" x="222.5" y="771.5">14 : inserisciConferma</text></g></g><g transform="translate(-38,2) scale(1,1)"><g><path fill="none" stroke="none"/><text fill="#000000" font-family="Arial" font-size="13px" font-style="normal" font-weight="normal" stroke="none" text-decoration="none" x="258.5" y="756.5">«destroy»</text></g></g><g transform="translate(-38,2) scale(1,1)"><rect fill="#ffffff" height="28" stroke="none" width="13" x="442" y="777"/></g><g transform="translate(-38,2) scale(1,1)"><path d="M 442 777 L 455 777 L 455 805 L 442 805 L 442 777 Z Z" fill="none" stroke="#000000" stroke-miterlimit="10"/></g><g transform="translate(-38,2) scale(1,1)"><path d="M 557 856 L 587 856 L 587 876 L 563 876" fill="none" stroke="#000000" stroke-miterlimit="10"/></g><g transform="translate(-38,2) scale(1,1)"><path d="M 573.1626748576241 871.790482243984 L 563 876 L 573.1626748576241 880.209517756016" fill="#000000" stroke="none"/></g><g transform="translate(-38,2) scale(1,1)"><path d="M 573.1626748576241 871.790482243984 L 563 876 L 573.1626748576241 880.209517756016 L 573.1626748576241 871.790482243984" fill="none" stroke="#000000" stroke-miterlimit="10"/></g><g transform="translate(-38,2) scale(1,1)"><g><path fill="none" stroke="none"/><text fill="#000000" font-family="Arial" font-size="13px" font-style="normal" font-weight="normal" stroke="none" text-decoration="none" x="592.5" y="869.5">15 : inviaMailOTP( )</text></g></g><g transform="translate(-38,2) scale(1,1)"><rect fill="#ffffff" height="28" stroke="none" width="13" x="550" y="876"/></g><g transform="translate(-38,2) scale(1,1)"><path d="M 550 876 L 563 876 L 563 904 L 550 904 L 550 876 Z Z" fill="none" stroke="#000000" stroke-miterlimit="10"/></g><g transform="translate(-38,2) scale(1,1)"><path d="M 557 920 L 455.24267578125 920" fill="none" stroke="#000000" stroke-dasharray="3" stroke-miterlimit="10"/></g><g transform="translate(-38,2) scale(1,1)"><path d="M 465.40535063887415 915.790482243984 L 455.24267578125 920 L 465.40535063887415 924.209517756016" fill="none" stroke="#000000" stroke-miterlimit="10"/></g><g transform="translate(-38,2) scale(1,1)"><g><path fill="none" stroke="none"/><text fill="#000000" font-family="Arial" font-size="13px" font-style="normal" font-weight="normal" stroke="none" text-decoration="none" x="492.5" y="934.5">16 : </text></g></g><g transform="translate(-38,2) scale(1,1)"><g><path fill="none" stroke="none"/><text fill="#000000" font-family="Arial" font-size="13px" font-style="normal" font-weight="normal" stroke="none" text-decoration="none" x="479.5" y="949.5">«create»</text></g></g><g transform="translate(-38,2) scale(1,1)"><path d="M 133 1000 L 377 1000" fill="none" stroke="#000000" stroke-miterlimit="10"/></g><g transform="translate(-38,2) scale(1,1)"><path d="M 366.83732514237585 1004.209517756016 L 377 1000 L 366.83732514237585 995.790482243984" fill="#000000" stroke="none"/></g><g transform="translate(-38,2) scale(1,1)"><path d="M 366.83732514237585 1004.209517756016 L 377 1000 L 366.83732514237585 995.790482243984 L 366.83732514237585 1004.209517756016" fill="none" stroke="#000000" stroke-miterlimit="10"/></g><g transform="translate(-38,2) scale(1,1)"><g><path fill="none" stroke="none"/><text fill="#000000" font-family="Arial" font-size="13px" font-style="normal" font-weight="normal" stroke="none" text-decoration="none" x="192.5" y="994.5">17 : inserisciOTP(otp)</text></g></g><g transform="translate(-38,2) scale(1,1)"><rect fill="#ffffff" height="28" stroke="none" width="13" x="377" y="1000"/></g><g transform="translate(-38,2) scale(1,1)"><path d="M 377 1000 L 390 1000 L 390 1028 L 377 1028 L 377 1000 Z Z" fill="none" stroke="#000000" stroke-miterlimit="10"/></g><g transform="translate(-38,2) scale(1,1)"><path d="M 390 1024 L 550 1024" fill="none" stroke="#000000" stroke-miterlimit="10"/></g><g transform="translate(-38,2) scale(1,1)"><path d="M 539.8373251423759 1028.2095177560159 L 550 1024 L 539.8373251423758 1019.790482243984" fill="#000000" stroke="none"/></g><g transform="translate(-38,2) scale(1,1)"><path d="M 539.8373251423759 1028.2095177560159 L 550 1024 L 539.8373251423758 1019.790482243984 L 539.8373251423759 1028.2095177560159" fill="none" stroke="#000000" stroke-miterlimit="10"/></g><g transform="translate(-38,2) scale(1,1)"><g><path fill="none" stroke="none"/><text fill="#000000" font-family="Arial" font-size="13px" font-style="normal" font-weight="normal" stroke="none" text-decoration="none" x="402.148681640625" y="1017.5">18 : inserisciOTP(otp)</text></g></g><g transform="translate(-38,2) scale(1,1)"><rect fill="#ffffff" height="28" stroke="none" width="13" x="550" y="1024"/></g><g transform="translate(-38,2) scale(1,1)"><path d="M 550 1024 L 563 1024 L 563 1052 L 550 1052 L 550 1024 Z Z" fill="none" stroke="#000000" stroke-miterlimit="10"/></g><g transform="translate(-38,2) scale(1,1)"><path d="M 557 1088 L 390 1088" fill="none" stroke="#000000" stroke-miterlimit="10"/></g><g transform="translate(-38,2) scale(1,1)"><path d="M 400.16267485762415 1083.7904822439841 L 390 1088 L 400.16267485762415 1092.2095177560159" fill="#000000" stroke="none"/></g><g transform="translate(-38,2) scale(1,1)"><path d="M 400.16267485762415 1083.7904822439841 L 390 1088 L 400.16267485762415 1092.2095177560159 L 400.16267485762415 1083.7904822439841" fill="none" stroke="#000000" stroke-miterlimit="10"/></g><g transform="translate(-38,2) scale(1,1)"><path d="M 374 1134 L 394 1154" fill="none" stroke="#000000" stroke-miterlimit="10"/></g><g transform="translate(-38,2) scale(1,1)"><path d="M 394 1134 L 374 1154" fill="none" stroke="#000000" stroke-miterlimit="10"/></g><g transform="translate(-38,2) scale(1,1)"><g><path fill="none" stroke="none"/><text fill="#000000" font-family="Arial" font-size="13px" font-style="normal" font-weight="normal" stroke="none" text-decoration="none" x="459.5" y="1102.5">19 : </text></g></g><g transform="translate(-38,2) scale(1,1)"><g><path fill="none" stroke="none"/><text fill="#000000" font-family="Arial" font-size="13px" font-style="normal" font-weight="normal" stroke="none" text-decoration="none" x="443.5" y="1117.5">«destroy»</text></g></g><g transform="translate(-38,2) scale(1,1)"><rect fill="#ffffff" height="28" stroke="none" width="13" x="377" y="1088"/></g><g transform="translate(-38,2) scale(1,1)"><path d="M 377 1088 L 390 1088 L 390 1116 L 377 1116 L 377 1088 Z Z" fill="none" stroke="#000000" stroke-miterlimit="10"/></g><g transform="translate(-38,2) scale(1,1)"><path d="M 557 1200 L 776 1200" fill="none" stroke="#000000" stroke-miterlimit="10"/></g><g transform="translate(-38,2) scale(1,1)"><path d="M 765.8373251423759 1204.2095177560159 L 776 1200 L 765.8373251423758 1195.7904822439841" fill="#000000" stroke="none"/></g><g transform="translate(-38,2) scale(1,1)"><path d="M 765.8373251423759 1204.2095177560159 L 776 1200 L 765.8373251423758 1195.7904822439841 L 765.8373251423759 1204.2095177560159" fill="none" stroke="#000000" stroke-miterlimit="10"/></g><g transform="translate(-38,2) scale(1,1)"><g><path fill="none" stroke="none"/><text fill="#000000" font-family="Arial" font-size="13px" font-style="normal" font-weight="normal" stroke="none" text-decoration="none" x="587.5" y="1194.5">20 : registraAccount(creds)</text></g></g><g transform="translate(-38,2) scale(1,1)"><rect fill="#ffffff" height="64" stroke="none" width="13" x="776" y="1200"/></g><g transform="translate(-38,2) scale(1,1)"><path d="M 776 1200 L 789 1200 L 789 1264 L 776 1264 L 776 1200 Z Z" fill="none" stroke="#000000" stroke-miterlimit="10"/></g><g transform="translate(-38,2) scale(1,1)"><path d="M 789 1224 L 966 1224" fill="none" stroke="#000000" stroke-miterlimit="10"/></g><g transform="translate(-38,2) scale(1,1)"><path d="M 955.8373251423759 1228.2095177560159 L 966 1224 L 955.8373251423758 1219.7904822439841" fill="#000000" stroke="none"/></g><g transform="translate(-38,2) scale(1,1)"><path d="M 955.8373251423759 1228.2095177560159 L 966 1224 L 955.8373251423758 1219.7904822439841 L 955.8373251423759 1228.2095177560159" fill="none" stroke="#000000" stroke-miterlimit="10"/></g><g transform="translate(-38,2) scale(1,1)"><g><path fill="none" stroke="none"/><text fill="#000000" font-family="Arial" font-size="13px" font-style="normal" font-weight="normal" stroke="none" text-decoration="none" x="807.5" y="1218.5">21 : queryRegAcc(creds)</text></g></g><g transform="translate(-38,2) scale(1,1)"><rect fill="#ffffff" height="28" stroke="none" width="13" x="966" y="1224"/></g><g transform="translate(-38,2) scale(1,1)"><path d="M 966 1224 L 979 1224 L 979 1252 L 966 1252 L 966 1224 Z Z" fill="none" stroke="#000000" stroke-miterlimit="10"/></g><g transform="translate(-38,2) scale(1,1)"><path d="M 966 1248 L 789 1248" fill="none" stroke="#000000" stroke-dasharray="3" stroke-miterlimit="10"/></g><g transform="translate(-38,2) scale(1,1)"><path d="M 799.1626748576241 1243.7904822439841 L 789 1248 L 799.1626748576241 1252.2095177560159" fill="none" stroke="#000000" stroke-miterlimit="10"/></g><g transform="translate(-38,2) scale(1,1)"><g><path fill="none" stroke="none"/><text fill="#000000" font-family="Arial" font-size="13px" font-style="normal" font-weight="normal" stroke="none" text-decoration="none" x="849.759521484375" y="1262.5">22 : esito</text></g></g><g transform="translate(-38,2) scale(1,1)"><path d="M 776 1256 L 557 1256" fill="none" stroke="#000000" stroke-dasharray="3" stroke-miterlimit="10"/></g><g transform="translate(-38,2) scale(1,1)"><path d="M 567.1626748576241 1251.7904822439841 L 557 1256 L 567.1626748576241 1260.2095177560159" fill="none" stroke="#000000" stroke-miterlimit="10"/></g><g transform="translate(-38,2) scale(1,1)"><g><path fill="none" stroke="none"/><text fill="#000000" font-family="Arial" font-size="13px" font-style="normal" font-weight="normal" stroke="none" text-decoration="none" x="638.5" y="1270.5">23 : esito</text></g></g><g transform="translate(-38,2) scale(1,1)"><path d="M 557 1288 L 587 1288 L 587 1308 L 563 1308" fill="none" stroke="#000000" stroke-miterlimit="10"/></g><g transform="translate(-38,2) scale(1,1)"><path d="M 573.1626748576241 1303.7904822439841 L 563 1308 L 573.1626748576241 1312.2095177560159" fill="#000000" stroke="none"/></g><g transform="translate(-38,2) scale(1,1)"><path d="M 573.1626748576241 1303.7904822439841 L 563 1308 L 573.1626748576241 1312.2095177560159 L 573.1626748576241 1303.7904822439841" fill="none" stroke="#000000" stroke-miterlimit="10"/></g><g transform="translate(-38,2) scale(1,1)"><path d="M 547 1358 L 567 1378" fill="none" stroke="#000000" stroke-miterlimit="10"/></g><g transform="translate(-38,2) scale(1,1)"><path d="M 567 1358 L 547 1378" fill="none" stroke="#000000" stroke-miterlimit="10"/></g><g transform="translate(-38,2) scale(1,1)"><g><path fill="none" stroke="none"/><text fill="#000000" font-family="Arial" font-size="13px" font-style="normal" font-weight="normal" stroke="none" text-decoration="none" x="582.5" y="1322.5">24 : </text></g></g><g transform="translate(-38,2) scale(1,1)"><g><path fill="none" stroke="none"/><text fill="#000000" font-family="Arial" font-size="13px" font-style="normal" font-weight="normal" stroke="none" text-decoration="none" x="606.5" y="1322.5">«destroy»</text></g></g><g transform="translate(-38,2) scale(1,1)"><rect fill="#ffffff" height="28" stroke="none" width="13" x="550" y="1308"/></g><g transform="translate(-38,2) scale(1,1)"><path d="M 550 1308 L 563 1308 L 563 1336 L 550 1336 L 550 1308 Z Z" fill="none" stroke="#000000" stroke-miterlimit="10"/></g><g transform="translate(-38,2) scale(1,1)"><path d="M 550 1320 L 370 1320" fill="none" stroke="#000000" stroke-miterlimit="10"/></g><g transform="translate(-38,2) scale(1,1)"><path d="M 380.16267485762415 1315.7904822439841 L 370 1320 L 380.16267485762415 1324.2095177560159" fill="#000000" stroke="none"/></g><g transform="translate(-38,2) scale(1,1)"><path d="M 380.16267485762415 1315.7904822439841 L 370 1320 L 380.16267485762415 1324.2095177560159 L 380.16267485762415 1315.7904822439841" fill="none" stroke="#000000" stroke-miterlimit="10"/></g><g transform="translate(-38,2) scale(1,1)"><path d="M 354 1358 L 374 1378" fill="none" stroke="#000000" stroke-miterlimit="10"/></g><g transform="translate(-38,2) scale(1,1)"><path d="M 374 1358 L 354 1378" fill="none" stroke="#000000" stroke-miterlimit="10"/></g><g transform="translate(-38,2) scale(1,1)"><g><path fill="none" stroke="none"/><text fill="#000000" font-family="Arial" font-size="13px" font-style="normal" font-weight="normal" stroke="none" text-decoration="none" x="446.5" y="1334.5">25 : </text></g></g><g transform="translate(-38,2) scale(1,1)"><g><path fill="none" stroke="none"/><text fill="#000000" font-family="Arial" font-size="13px" font-style="normal" font-weight="normal" stroke="none" text-decoration="none" x="430.5" y="1349.5">«destroy»</text></g></g><g transform="translate(-38,2) scale(1,1)"><rect fill="#ffffff" height="28" stroke="none" width="13" x="357" y="1320"/></g><g transform="translate(-38,2) scale(1,1)"><path d="M 357 1320 L 370 1320 L 370 1348 L 357 1348 L 357 1320 Z Z" fill="none" stroke="#000000" stroke-miterlimit="10"/></g><g transform="translate(-38,2) scale(1,1)"><path d="M 80 232 L 1016 232 L 1016 1160 L 80 1160 L 80 232" fill="none" stroke="#000000" stroke-miterlimit="10"/></g><g transform="translate(-38,2) scale(1,1)"><path d="M 80 232 L 80 254 L 380.705078125 254 L 391.705078125 243 L 391.705078125 232 L 80 232" fill="#ffffff" stroke="none"/></g><g transform="translate(-38,2) scale(1,1)"><path d="M 80 232 L 80 254 L 380.705078125 254 L 391.705078125 243 L 391.705078125 232 L 80 232 L 80 232" fill="none" stroke="#000000" stroke-miterlimit="10"/></g><g transform="translate(-38,2) scale(1,1)"><g><path fill="none" stroke="none"/><text fill="#000000" font-family="Arial" font-size="13px" font-style="normal" font-weight="normal" stroke="none" text-decoration="none" x="115.578125" y="247.5">[ password non valida OR mail già esistente ]</text></g></g><g transform="translate(-38,2) scale(1,1)"><g><path fill="none" stroke="none"/><text fill="#000000" font-family="Arial" font-size="13px" font-style="normal" font-weight="bold" stroke="none" text-decoration="none" x="83.57177734375" y="247.5">loop</text></g></g><g transform="translate(-38,2) scale(1,1)"><path d="M 88 400 L 624 400 L 624 544 L 88 544 L 88 400" fill="none" stroke="#000000" stroke-miterlimit="10"/></g><g transform="translate(-38,2) scale(1,1)"><path d="M 88 400 L 88 422 L 255.0361328125 422 L 266.0361328125 411 L 266.0361328125 400 L 88 400" fill="#ffffff" stroke="none"/></g><g transform="translate(-38,2) scale(1,1)"><path d="M 88 400 L 88 422 L 255.0361328125 422 L 266.0361328125 411 L 266.0361328125 400 L 88 400 L 88 400" fill="none" stroke="#000000" stroke-miterlimit="10"/></g><g transform="translate(-38,2) scale(1,1)"><g><path fill="none" stroke="none"/><text fill="#000000" font-family="Arial" font-size="13px" font-style="normal" font-weight="normal" stroke="none" text-decoration="none" x="117.07177734375" y="415.5">[ password non valida ]</text></g></g><g transform="translate(-38,2) scale(1,1)"><g><path fill="none" stroke="none"/><text fill="#000000" font-family="Arial" font-size="13px" font-style="normal" font-weight="bold" stroke="none" text-decoration="none" x="91.930419921875" y="415.5">opt</text></g></g><g transform="translate(-38,2) scale(1,1)"><path d="M 104 688 L 608 688 L 608 832 L 104 832 L 104 688" fill="none" stroke="#000000" stroke-miterlimit="10"/></g><g transform="translate(-38,2) scale(1,1)"><path d="M 104 688 L 104 710 L 256.56982421875 710 L 267.56982421875 699 L 267.56982421875 688 L 104 688" fill="#ffffff" stroke="none"/></g><g transform="translate(-38,2) scale(1,1)"><path d="M 104 688 L 104 710 L 256.56982421875 710 L 267.56982421875 699 L 267.56982421875 688 L 104 688 L 104 688" fill="none" stroke="#000000" stroke-miterlimit="10"/></g><g transform="translate(-38,2) scale(1,1)"><g><path fill="none" stroke="none"/><text fill="#000000" font-family="Arial" font-size="13px" font-style="normal" font-weight="normal" stroke="none" text-decoration="none" x="133.07177734375" y="703.5">[ mail già esistente  ]</text></g></g><g transform="translate(-38,2) scale(1,1)"><g><path fill="none" stroke="none"/><text fill="#000000" font-family="Arial" font-size="13px" font-style="normal" font-weight="bold" stroke="none" text-decoration="none" x="107.930419921875" y="703.5">opt</text></g></g><g transform="translate(-38,2) scale(1,1)"><path d="M 112 952 L 599 952 L 599 1063 L 112 1063 L 112 952" fill="none" stroke="#000000" stroke-miterlimit="10"/></g><g transform="translate(-38,2) scale(1,1)"><path d="M 112 952 L 112 974 L 251.5888671875 974 L 262.5888671875 963 L 262.5888671875 952 L 112 952" fill="#ffffff" stroke="none"/></g><g transform="translate(-38,2) scale(1,1)"><path d="M 112 952 L 112 974 L 251.5888671875 974 L 262.5888671875 963 L 262.5888671875 952 L 112 952 L 112 952" fill="none" stroke="#000000" stroke-miterlimit="10"/></g><g transform="translate(-38,2) scale(1,1)"><g><path fill="none" stroke="none"/><text fill="#000000" font-family="Arial" font-size="13px" font-style="normal" font-weight="normal" stroke="none" text-decoration="none" x="147.578125" y="967.5"> [ otp non valido ]</text></g></g><g transform="translate(-38,2) scale(1,1)"><g><path fill="none" stroke="none"/><text fill="#000000" font-family="Arial" font-size="13px" font-style="normal" font-weight="bold" stroke="none" text-decoration="none" x="115.57177734375" y="967.5">loop</text></g></g></g></svg>