<?xml version="1.0" encoding="UTF-8" standalone="no"?><svg xmlns="http://www.w3.org/2000/svg" xmlns:xlink="http://www.w3.org/1999/xlink" height="1012" version="1.1" width="1132"><defs/><g><g transform="translate(-14,2) scale(1,1)"><path d="M 24 8 L 1136 8 L 1136 1000 L 24 1000 L 24 8" fill="none" stroke="#000000" stroke-miterlimit="10"/></g><g transform="translate(-14,2) scale(1,1)"><path d="M 24 8 L 24 30 L 202.576171875 30 L 213.576171875 19 L 213.576171875 8 L 24 8" fill="#ffffff" stroke="none"/></g><g transform="translate(-14,2) scale(1,1)"><path d="M 24 8 L 24 30 L 202.576171875 30 L 213.576171875 19 L 213.576171875 8 L 24 8 L 24 8" fill="none" stroke="#000000" stroke-miterlimit="10"/></g><g transform="translate(-14,2) scale(1,1)"><g><path fill="none" stroke="none"/><text fill="#000000" font-family="Arial" font-size="13px" font-style="normal" font-weight="normal" stroke="none" text-decoration="none" x="48.72998046875" y="23.5">Modifica Ordine Periodico</text></g></g><g transform="translate(-14,2) scale(1,1)"><g><path fill="none" stroke="none"/><text fill="#000000" font-family="Arial" font-size="13px" font-style="normal" font-weight="bold" stroke="none" text-decoration="none" x="28.279541015625" y="23.5">sd</text></g></g><g transform="translate(-14,2) scale(1,1)"><path d="M 133.7344833096591 47.3 C 133.7344833096591 43.82060576 136.6128850318409 41 140.16357421875 41 C 143.7142634056591 41 146.59266512784092 43.82060576 146.59266512784092 47.3 C 146.59266512784092 50.779394239999995 143.7142634056591 53.6 140.16357421875 53.6 C 136.6128850318409 53.6 133.7344833096591 50.779394239999995 133.7344833096591 47.3 Z" fill="#ffffff" stroke="none"/></g><g transform="translate(-14,2) scale(1,1)"><path d="M 133.7344833096591 47.3 C 133.7344833096591 43.82060576 136.6128850318409 41 140.16357421875 41 C 143.7142634056591 41 146.59266512784092 43.82060576 146.59266512784092 47.3 C 146.59266512784092 50.779394239999995 143.7142634056591 53.6 140.16357421875 53.6 C 136.6128850318409 53.6 133.7344833096591 50.779394239999995 133.7344833096591 47.3 Z" fill="none" stroke="#000000" stroke-miterlimit="10"/></g><g transform="translate(-14,2) scale(1,1)"><path d="M 140.16357421875 53.6 L 140.16357421875 66.4" fill="none" stroke="#000000" stroke-miterlimit="10"/></g><g transform="translate(-14,2) scale(1,1)"><path d="M 133.3563014914773 58.4 L 146.97084694602273 58.4" fill="none" stroke="#000000" stroke-miterlimit="10"/></g><g transform="translate(-14,2) scale(1,1)"><path d="M 140.16357421875 66.4 L 130.70902876420456 79" fill="none" stroke="#000000" stroke-miterlimit="10"/></g><g transform="translate(-14,2) scale(1,1)"><path d="M 140.16357421875 66.4 L 149.61811967329547 79" fill="none" stroke="#000000" stroke-miterlimit="10"/></g><g transform="translate(-14,2) scale(1,1)"><g><path fill="none" stroke="none"/><text fill="#000000" font-family="Arial" font-size="13px" font-style="normal" font-weight="bold" stroke="none" text-decoration="none" x="101.8681640625" y="97.5">: Farmacista</text></g></g><g transform="translate(-14,2) scale(1,1)"><path d="M 141.5 105 L 141.5 878" fill="none" stroke="#000000" stroke-dasharray="3" stroke-miterlimit="10"/></g><g transform="translate(-14,2) scale(1,1)"><path d="M 989.899034090909 47.3 C 989.899034090909 43.82060576 992.777435813091 41 996.328125 41 C 999.878814186909 41 1002.7572159090909 43.82060576 1002.7572159090909 47.3 C 1002.7572159090909 50.779394239999995 999.878814186909 53.6 996.328125 53.6 C 992.777435813091 53.6 989.899034090909 50.779394239999995 989.899034090909 47.3 Z" fill="#ffffff" stroke="none"/></g><g transform="translate(-14,2) scale(1,1)"><path d="M 989.899034090909 47.3 C 989.899034090909 43.82060576 992.777435813091 41 996.328125 41 C 999.878814186909 41 1002.7572159090909 43.82060576 1002.7572159090909 47.3 C 1002.7572159090909 50.779394239999995 999.878814186909 53.6 996.328125 53.6 C 992.777435813091 53.6 989.899034090909 50.779394239999995 989.899034090909 47.3 Z" fill="none" stroke="#000000" stroke-miterlimit="10"/></g><g transform="translate(-14,2) scale(1,1)"><path d="M 996.328125 53.6 L 996.328125 66.4" fill="none" stroke="#000000" stroke-miterlimit="10"/></g><g transform="translate(-14,2) scale(1,1)"><path d="M 989.5208522727272 58.4 L 1003.1353977272727 58.4" fill="none" stroke="#000000" stroke-miterlimit="10"/></g><g transform="translate(-14,2) scale(1,1)"><path d="M 996.328125 66.4 L 986.8735795454545 79" fill="none" stroke="#000000" stroke-miterlimit="10"/></g><g transform="translate(-14,2) scale(1,1)"><path d="M 996.328125 66.4 L 1005.7826704545454 79" fill="none" stroke="#000000" stroke-miterlimit="10"/></g><g transform="translate(-14,2) scale(1,1)"><g><path fill="none" stroke="none"/><text fill="#000000" font-family="Arial" font-size="13px" font-style="normal" font-weight="bold" stroke="none" text-decoration="none" x="942.8681640625" y="97.5">: DBMS Farmacie</text></g></g><g transform="translate(-14,2) scale(1,1)"><path d="M 997.5 105 L 997.5 815" fill="none" stroke="#000000" stroke-dasharray="3" stroke-miterlimit="10"/></g><g transform="translate(-14,2) scale(1,1)"><rect fill="#C0C0C0" height="39" opacity="0.2" stroke="none" width="108.5654296875" x="743" y="47"/></g><g transform="translate(-14,2) scale(1,1)"><rect fill="#ffffff" height="39" stroke="none" width="108.5654296875" x="736" y="40"/></g><g transform="translate(-14,2) scale(1,1)"><path d="M 736 40 L 844.5654296875 40 L 844.5654296875 79 L 736 79 L 736 40 Z Z" fill="none" stroke="#000000" stroke-miterlimit="10"/></g><g transform="translate(-14,2) scale(1,1)"><g><path fill="none" stroke="none"/><text fill="#000000" font-family="Arial" font-size="13px" font-style="normal" font-weight="normal" stroke="none" text-decoration="none" x="755.227783203125" y="55.5">«Boundary»</text></g></g><g transform="translate(-14,2) scale(1,1)"><g><path fill="none" stroke="none"/><text fill="#000000" font-family="Arial" font-size="13px" font-style="normal" font-weight="bold" stroke="none" text-decoration="none" x="745.5" y="70.5">DBMSDaemon</text></g></g><g transform="translate(-14,2) scale(1,1)"><path d="M 791.5 80 L 791.5 844" fill="none" stroke="#000000" stroke-dasharray="3" stroke-miterlimit="10"/></g><g transform="translate(-14,2) scale(1,1)"><rect fill="#C0C0C0" height="39" opacity="0.2" stroke="none" width="262.115234375" x="223" y="47"/></g><g transform="translate(-14,2) scale(1,1)"><rect fill="#ffffff" height="39" stroke="none" width="262.115234375" x="216" y="40"/></g><g transform="translate(-14,2) scale(1,1)"><path d="M 216 40 L 478.115234375 40 L 478.115234375 79 L 216 79 L 216 40 Z Z" fill="none" stroke="#000000" stroke-miterlimit="10"/></g><g transform="translate(-14,2) scale(1,1)"><g><path fill="none" stroke="none"/><text fill="#000000" font-family="Arial" font-size="13px" font-style="normal" font-weight="normal" stroke="none" text-decoration="none" x="312.002685546875" y="55.5">«Boundary»</text></g></g><g transform="translate(-14,2) scale(1,1)"><g><path fill="none" stroke="none"/><text fill="#000000" font-family="Arial" font-size="13px" font-style="normal" font-weight="bold" stroke="none" text-decoration="none" x="229.11181640625" y="70.5">InterfacciaPrincipale[tipo=Farmacista]</text></g></g><g transform="translate(-14,2) scale(1,1)"><path d="M 348.5 80 L 348.5 239" fill="none" stroke="#000000" stroke-dasharray="3" stroke-miterlimit="10"/></g><g transform="translate(-14,2) scale(1,1)"><rect fill="#C0C0C0" height="39" opacity="0.2" stroke="none" width="221.9853515625" x="447" y="131"/></g><g transform="translate(-14,2) scale(1,1)"><rect fill="#ffffff" height="39" stroke="none" width="221.9853515625" x="440" y="124"/></g><g transform="translate(-14,2) scale(1,1)"><path d="M 440 124 L 661.9853515625 124 L 661.9853515625 163 L 440 163 L 440 124 Z Z" fill="none" stroke="#000000" stroke-miterlimit="10"/></g><g transform="translate(-14,2) scale(1,1)"><g><path fill="none" stroke="none"/><text fill="#000000" font-family="Arial" font-size="13px" font-style="normal" font-weight="normal" stroke="none" text-decoration="none" x="522.80908203125" y="139.5">«Control»</text></g></g><g transform="translate(-14,2) scale(1,1)"><g><path fill="none" stroke="none"/><text fill="#000000" font-family="Arial" font-size="13px" font-style="normal" font-weight="bold" stroke="none" text-decoration="none" x="449.5" y="154.5">GestoreModificaOrdinePeriodico</text></g></g><g transform="translate(-14,2) scale(1,1)"><path d="M 551.5 164 L 551.5 861" fill="none" stroke="#000000" stroke-dasharray="3" stroke-miterlimit="10"/></g><g transform="translate(-14,2) scale(1,1)"><rect fill="#C0C0C0" height="39" opacity="0.2" stroke="none" width="142.525390625" x="375" y="219"/></g><g transform="translate(-14,2) scale(1,1)"><rect fill="#ffffff" height="39" stroke="none" width="142.525390625" x="368" y="212"/></g><g transform="translate(-14,2) scale(1,1)"><path d="M 368 212 L 510.525390625 212 L 510.525390625 251 L 368 251 L 368 212 Z Z" fill="none" stroke="#000000" stroke-miterlimit="10"/></g><g transform="translate(-14,2) scale(1,1)"><g><path fill="none" stroke="none"/><text fill="#000000" font-family="Arial" font-size="13px" font-style="normal" font-weight="normal" stroke="none" text-decoration="none" x="415.7763671875" y="227.5">«Entity»</text></g></g><g transform="translate(-14,2) scale(1,1)"><g><path fill="none" stroke="none"/><text fill="#000000" font-family="Arial" font-size="13px" font-style="normal" font-weight="bold" stroke="none" text-decoration="none" x="377.5" y="242.5">ListaOrdiniPeriodici</text></g></g><g transform="translate(-14,2) scale(1,1)"><path d="M 440.5 252 L 440.5 443" fill="none" stroke="#000000" stroke-dasharray="3" stroke-miterlimit="10"/></g><g transform="translate(-14,2) scale(1,1)"><rect fill="#C0C0C0" height="39" opacity="0.2" stroke="none" width="237.88623046875" x="191" y="275"/></g><g transform="translate(-14,2) scale(1,1)"><rect fill="#ffffff" height="39" stroke="none" width="237.88623046875" x="184" y="268"/></g><g transform="translate(-14,2) scale(1,1)"><path d="M 184 268 L 421.88623046875 268 L 421.88623046875 307 L 184 307 L 184 268 Z Z" fill="none" stroke="#000000" stroke-miterlimit="10"/></g><g transform="translate(-14,2) scale(1,1)"><g><path fill="none" stroke="none"/><text fill="#000000" font-family="Arial" font-size="13px" font-style="normal" font-weight="normal" stroke="none" text-decoration="none" x="267.88818359375" y="283.5">«Boundary»</text></g></g><g transform="translate(-14,2) scale(1,1)"><g><path fill="none" stroke="none"/><text fill="#000000" font-family="Arial" font-size="13px" font-style="normal" font-weight="bold" stroke="none" text-decoration="none" x="193.5" y="298.5">InterfacciaModificaOrdinePeriodico</text></g></g><g transform="translate(-14,2) scale(1,1)"><path d="M 303.5 308 L 303.5 479" fill="none" stroke="#000000" stroke-dasharray="3" stroke-miterlimit="10"/></g><g transform="translate(-14,2) scale(1,1)"><rect fill="#C0C0C0" height="39" opacity="0.2" stroke="none" width="316.57177734375" x="183" y="427"/></g><g transform="translate(-14,2) scale(1,1)"><rect fill="#ffffff" height="39" stroke="none" width="316.57177734375" x="176" y="420"/></g><g transform="translate(-14,2) scale(1,1)"><path d="M 176 420 L 492.57177734375 420 L 492.57177734375 459 L 176 459 L 176 420 Z Z" fill="none" stroke="#000000" stroke-miterlimit="10"/></g><g transform="translate(-14,2) scale(1,1)"><g><path fill="none" stroke="none"/><text fill="#000000" font-family="Arial" font-size="13px" font-style="normal" font-weight="normal" stroke="none" text-decoration="none" x="299.23095703125" y="435.5">«Boundary»</text></g></g><g transform="translate(-14,2) scale(1,1)"><g><path fill="none" stroke="none"/><text fill="#000000" font-family="Arial" font-size="13px" font-style="normal" font-weight="bold" stroke="none" text-decoration="none" x="189.8291015625" y="450.5">BottoneModificaOrdinePeriodico[datiFarmaco]</text></g></g><g transform="translate(-14,2) scale(1,1)"><path d="M 335.5 460 L 335.5 795" fill="none" stroke="#000000" stroke-dasharray="3" stroke-miterlimit="10"/></g><g transform="translate(-14,2) scale(1,1)"><rect fill="#C0C0C0" height="39" opacity="0.2" stroke="none" width="312.61083984375" x="167" y="595"/></g><g transform="translate(-14,2) scale(1,1)"><rect fill="#ffffff" height="39" stroke="none" width="312.61083984375" x="160" y="588"/></g><g transform="translate(-14,2) scale(1,1)"><path d="M 160 588 L 472.61083984375 588 L 472.61083984375 627 L 160 627 L 160 588 Z Z" fill="none" stroke="#000000" stroke-miterlimit="10"/></g><g transform="translate(-14,2) scale(1,1)"><g><path fill="none" stroke="none"/><text fill="#000000" font-family="Arial" font-size="13px" font-style="normal" font-weight="normal" stroke="none" text-decoration="none" x="281.25048828125" y="603.5">«Boundary»</text></g></g><g transform="translate(-14,2) scale(1,1)"><g><path fill="none" stroke="none"/><text fill="#000000" font-family="Arial" font-size="13px" font-style="normal" font-weight="bold" stroke="none" text-decoration="none" x="173.2958984375" y="618.5">ModuloModificaOrdinePeriodico[datiFarmaco]</text></g></g><g transform="translate(-14,2) scale(1,1)"><path d="M 317.5 628 L 317.5 920" fill="none" stroke="#000000" stroke-dasharray="3" stroke-miterlimit="10"/></g><g transform="translate(-14,2) scale(1,1)"><rect fill="#C0C0C0" height="39" opacity="0.2" stroke="none" width="133.8544921875" x="375" y="803"/></g><g transform="translate(-14,2) scale(1,1)"><rect fill="#ffffff" height="39" stroke="none" width="133.8544921875" x="368" y="796"/></g><g transform="translate(-14,2) scale(1,1)"><path d="M 368 796 L 501.8544921875 796 L 501.8544921875 835 L 368 835 L 368 796 Z Z" fill="none" stroke="#000000" stroke-miterlimit="10"/></g><g transform="translate(-14,2) scale(1,1)"><g><path fill="none" stroke="none"/><text fill="#000000" font-family="Arial" font-size="13px" font-style="normal" font-weight="normal" stroke="none" text-decoration="none" x="399.872314453125" y="811.5">«Boundary»</text></g></g><g transform="translate(-14,2) scale(1,1)"><g><path fill="none" stroke="none"/><text fill="#000000" font-family="Arial" font-size="13px" font-style="normal" font-weight="bold" stroke="none" text-decoration="none" x="377.5" y="826.5">PannelloConferma</text></g></g><g transform="translate(-14,2) scale(1,1)"><path d="M 435.5 836 L 435.5 920" fill="none" stroke="#000000" stroke-dasharray="3" stroke-miterlimit="10"/></g><g transform="translate(-14,2) scale(1,1)"><path d="M 141 133 L 341 133" fill="none" stroke="#000000" stroke-miterlimit="10"/></g><g transform="translate(-14,2) scale(1,1)"><path d="M 330.83732514237585 137.209517756016 L 341 133 L 330.83732514237585 128.790482243984" fill="#000000" stroke="none"/></g><g transform="translate(-14,2) scale(1,1)"><path d="M 330.83732514237585 137.209517756016 L 341 133 L 330.83732514237585 128.790482243984 L 330.83732514237585 137.209517756016" fill="none" stroke="#000000" stroke-miterlimit="10"/></g><g transform="translate(-14,2) scale(1,1)"><g><path fill="none" stroke="none"/><text fill="#000000" font-family="Arial" font-size="13px" font-style="normal" font-weight="normal" stroke="none" text-decoration="none" x="144.5" y="127.5">1 : cliccaModificaOrdinePeriodico</text></g></g><g transform="translate(-14,2) scale(1,1)"><rect fill="#ffffff" height="28" stroke="none" width="13" x="341" y="133"/></g><g transform="translate(-14,2) scale(1,1)"><path d="M 341 133 L 354 133 L 354 161 L 341 161 L 341 133 Z Z" fill="none" stroke="#000000" stroke-miterlimit="10"/></g><g transform="translate(-14,2) scale(1,1)"><path d="M 354 144 L 440 144" fill="none" stroke="#000000" stroke-dasharray="3" stroke-miterlimit="10"/></g><g transform="translate(-14,2) scale(1,1)"><path d="M 429.83732514237585 148.209517756016 L 440 144 L 429.83732514237585 139.790482243984" fill="none" stroke="#000000" stroke-miterlimit="10"/></g><g transform="translate(-14,2) scale(1,1)"><g><path fill="none" stroke="none"/><text fill="#000000" font-family="Arial" font-size="13px" font-style="normal" font-weight="normal" stroke="none" text-decoration="none" x="387.5" y="138.5">2 : </text></g></g><g transform="translate(-14,2) scale(1,1)"><g><path fill="none" stroke="none"/><text fill="#000000" font-family="Arial" font-size="13px" font-style="normal" font-weight="normal" stroke="none" text-decoration="none" x="371.5" y="123.5">«create»</text></g></g><g transform="translate(-14,2) scale(1,1)"><path d="M 551 184 L 784 184" fill="none" stroke="#000000" stroke-miterlimit="10"/></g><g transform="translate(-14,2) scale(1,1)"><path d="M 773.8373251423759 188.209517756016 L 784 184 L 773.8373251423758 179.790482243984" fill="#000000" stroke="none"/></g><g transform="translate(-14,2) scale(1,1)"><path d="M 773.8373251423759 188.209517756016 L 784 184 L 773.8373251423758 179.790482243984 L 773.8373251423759 188.209517756016" fill="none" stroke="#000000" stroke-miterlimit="10"/></g><g transform="translate(-14,2) scale(1,1)"><g><path fill="none" stroke="none"/><text fill="#000000" font-family="Arial" font-size="13px" font-style="normal" font-weight="normal" stroke="none" text-decoration="none" x="598.5" y="178.5">3 : chiediOrdiniPeriodici</text></g></g><g transform="translate(-14,2) scale(1,1)"><rect fill="#ffffff" height="48" stroke="none" width="13" x="784" y="184"/></g><g transform="translate(-14,2) scale(1,1)"><path d="M 784 184 L 797 184 L 797 232 L 784 232 L 784 184 Z Z" fill="none" stroke="#000000" stroke-miterlimit="10"/></g><g transform="translate(-14,2) scale(1,1)"><path d="M 797 200 L 990 200" fill="none" stroke="#000000" stroke-miterlimit="10"/></g><g transform="translate(-14,2) scale(1,1)"><path d="M 979.8373251423759 204.209517756016 L 990 200 L 979.8373251423758 195.790482243984" fill="#000000" stroke="none"/></g><g transform="translate(-14,2) scale(1,1)"><path d="M 979.8373251423759 204.209517756016 L 990 200 L 979.8373251423758 195.790482243984 L 979.8373251423759 204.209517756016" fill="none" stroke="#000000" stroke-miterlimit="10"/></g><g transform="translate(-14,2) scale(1,1)"><g><path fill="none" stroke="none"/><text fill="#000000" font-family="Arial" font-size="13px" font-style="normal" font-weight="normal" stroke="none" text-decoration="none" x="825.5" y="194.5">4 : queryOrdiniPeriodici</text></g></g><g transform="translate(-14,2) scale(1,1)"><rect fill="#ffffff" height="28" stroke="none" width="13" x="990" y="200"/></g><g transform="translate(-14,2) scale(1,1)"><path d="M 990 200 L 1003 200 L 1003 228 L 990 228 L 990 200 Z Z" fill="none" stroke="#000000" stroke-miterlimit="10"/></g><g transform="translate(-14,2) scale(1,1)"><path d="M 784 224 L 551 224" fill="none" stroke="#000000" stroke-dasharray="3" stroke-miterlimit="10"/></g><g transform="translate(-14,2) scale(1,1)"><path d="M 561.1626748576241 219.790482243984 L 551 224 L 561.1626748576241 228.209517756016" fill="none" stroke="#000000" stroke-miterlimit="10"/></g><g transform="translate(-14,2) scale(1,1)"><g><path fill="none" stroke="none"/><text fill="#000000" font-family="Arial" font-size="13px" font-style="normal" font-weight="normal" stroke="none" text-decoration="none" x="616.5" y="238.5">5 : ordiniPeriodici</text></g></g><g transform="translate(-14,2) scale(1,1)"><path d="M 990 224 L 797 224" fill="none" stroke="#000000" stroke-dasharray="3" stroke-miterlimit="10"/></g><g transform="translate(-14,2) scale(1,1)"><path d="M 807.1626748576241 219.790482243984 L 797 224 L 807.1626748576241 228.209517756016" fill="none" stroke="#000000" stroke-miterlimit="10"/></g><g transform="translate(-14,2) scale(1,1)"><g><path fill="none" stroke="none"/><text fill="#000000" font-family="Arial" font-size="13px" font-style="normal" font-weight="normal" stroke="none" text-decoration="none" x="842.5" y="238.5">6 : ordiniPeriodici</text></g></g><g transform="translate(-14,2) scale(1,1)"><path d="M 551 232 L 510.525390625 232" fill="none" stroke="#000000" stroke-dasharray="3" stroke-miterlimit="10"/></g><g transform="translate(-14,2) scale(1,1)"><path d="M 520.6880654826241 227.790482243984 L 510.525390625 232 L 520.6880654826241 236.209517756016" fill="none" stroke="#000000" stroke-miterlimit="10"/></g><g transform="translate(-14,2) scale(1,1)"><g><path fill="none" stroke="none"/><text fill="#000000" font-family="Arial" font-size="13px" font-style="normal" font-weight="normal" stroke="none" text-decoration="none" x="519.5" y="246.5">7 : </text></g></g><g transform="translate(-14,2) scale(1,1)"><g><path fill="none" stroke="none"/><text fill="#000000" font-family="Arial" font-size="13px" font-style="normal" font-weight="normal" stroke="none" text-decoration="none" x="503.5" y="261.5">«create»</text></g></g><g transform="translate(-14,2) scale(1,1)"><path d="M 551 288 L 421.88623046875 288" fill="none" stroke="#000000" stroke-dasharray="3" stroke-miterlimit="10"/></g><g transform="translate(-14,2) scale(1,1)"><path d="M 432.04890532637415 283.790482243984 L 421.88623046875 288 L 432.04890532637415 292.209517756016" fill="none" stroke="#000000" stroke-miterlimit="10"/></g><g transform="translate(-14,2) scale(1,1)"><g><path fill="none" stroke="none"/><text fill="#000000" font-family="Arial" font-size="13px" font-style="normal" font-weight="normal" stroke="none" text-decoration="none" x="475.5" y="302.5">8 : </text></g></g><g transform="translate(-14,2) scale(1,1)"><g><path fill="none" stroke="none"/><text fill="#000000" font-family="Arial" font-size="13px" font-style="normal" font-weight="normal" stroke="none" text-decoration="none" x="459.5" y="317.5">«create»</text></g></g><g transform="translate(-14,2) scale(1,1)"><path d="M 551 440 L 492.57177734375 440" fill="none" stroke="#000000" stroke-dasharray="3" stroke-miterlimit="10"/></g><g transform="translate(-14,2) scale(1,1)"><path d="M 502.73445220137415 435.790482243984 L 492.57177734375 440 L 502.73445220137415 444.209517756016" fill="none" stroke="#000000" stroke-miterlimit="10"/></g><g transform="translate(-14,2) scale(1,1)"><g><path fill="none" stroke="none"/><text fill="#000000" font-family="Arial" font-size="13px" font-style="normal" font-weight="normal" stroke="none" text-decoration="none" x="510.5" y="454.5">9 : </text></g></g><g transform="translate(-14,2) scale(1,1)"><g><path fill="none" stroke="none"/><text fill="#000000" font-family="Arial" font-size="13px" font-style="normal" font-weight="normal" stroke="none" text-decoration="none" x="494.5" y="469.5">«create»</text></g></g><g transform="translate(-14,2) scale(1,1)"><path d="M 141 544 L 328 544" fill="none" stroke="#000000" stroke-miterlimit="10"/></g><g transform="translate(-14,2) scale(1,1)"><path d="M 317.83732514237585 548.209517756016 L 328 544 L 317.83732514237585 539.790482243984" fill="#000000" stroke="none"/></g><g transform="translate(-14,2) scale(1,1)"><path d="M 317.83732514237585 548.209517756016 L 328 544 L 317.83732514237585 539.790482243984 L 317.83732514237585 548.209517756016" fill="none" stroke="#000000" stroke-miterlimit="10"/></g><g transform="translate(-14,2) scale(1,1)"><g><path fill="none" stroke="none"/><text fill="#000000" font-family="Arial" font-size="13px" font-style="normal" font-weight="normal" stroke="none" text-decoration="none" x="205.236328125" y="538.5">10 : clicca</text></g></g><g transform="translate(-14,2) scale(1,1)"><rect fill="#ffffff" height="28" stroke="none" width="13" x="328" y="544"/></g><g transform="translate(-14,2) scale(1,1)"><path d="M 328 544 L 341 544 L 341 572 L 328 572 L 328 544 Z Z" fill="none" stroke="#000000" stroke-miterlimit="10"/></g><g transform="translate(-14,2) scale(1,1)"><path d="M 341 568 L 544 568" fill="none" stroke="#000000" stroke-miterlimit="10"/></g><g transform="translate(-14,2) scale(1,1)"><path d="M 533.8373251423759 572.209517756016 L 544 568 L 533.8373251423758 563.790482243984" fill="#000000" stroke="none"/></g><g transform="translate(-14,2) scale(1,1)"><path d="M 533.8373251423759 572.209517756016 L 544 568 L 533.8373251423758 563.790482243984 L 533.8373251423759 572.209517756016" fill="none" stroke="#000000" stroke-miterlimit="10"/></g><g transform="translate(-14,2) scale(1,1)"><g><path fill="none" stroke="none"/><text fill="#000000" font-family="Arial" font-size="13px" font-style="normal" font-weight="normal" stroke="none" text-decoration="none" x="322.982421875" y="561.5">11 : creaModuloModificaOrdinePeriodico</text></g></g><g transform="translate(-14,2) scale(1,1)"><rect fill="#ffffff" height="109" stroke="none" width="13" x="544" y="568"/></g><g transform="translate(-14,2) scale(1,1)"><path d="M 544 568 L 557 568 L 557 677 L 544 677 L 544 568 Z Z" fill="none" stroke="#000000" stroke-miterlimit="10"/></g><g transform="translate(-14,2) scale(1,1)"><path d="M 544 608 L 472.61083984375 608" fill="none" stroke="#000000" stroke-dasharray="3" stroke-miterlimit="10"/></g><g transform="translate(-14,2) scale(1,1)"><path d="M 482.77351470137415 603.790482243984 L 472.61083984375 608 L 482.77351470137415 612.209517756016" fill="none" stroke="#000000" stroke-miterlimit="10"/></g><g transform="translate(-14,2) scale(1,1)"><g><path fill="none" stroke="none"/><text fill="#000000" font-family="Arial" font-size="13px" font-style="normal" font-weight="normal" stroke="none" text-decoration="none" x="494.5" y="622.5">12 : </text></g></g><g transform="translate(-14,2) scale(1,1)"><g><path fill="none" stroke="none"/><text fill="#000000" font-family="Arial" font-size="13px" font-style="normal" font-weight="normal" stroke="none" text-decoration="none" x="481.5" y="637.5">«create»</text></g></g><g transform="translate(-14,2) scale(1,1)"><path d="M 141 672 L 310 672" fill="none" stroke="#000000" stroke-miterlimit="10"/></g><g transform="translate(-14,2) scale(1,1)"><path d="M 299.83732514237585 676.209517756016 L 310 672 L 299.83732514237585 667.790482243984" fill="#000000" stroke="none"/></g><g transform="translate(-14,2) scale(1,1)"><path d="M 299.83732514237585 676.209517756016 L 310 672 L 299.83732514237585 667.790482243984 L 299.83732514237585 676.209517756016" fill="none" stroke="#000000" stroke-miterlimit="10"/></g><g transform="translate(-14,2) scale(1,1)"><g><path fill="none" stroke="none"/><text fill="#000000" font-family="Arial" font-size="13px" font-style="normal" font-weight="normal" stroke="none" text-decoration="none" x="136.5" y="666.5">13 : inserisciQuantita(quantita)</text></g></g><g transform="translate(-14,2) scale(1,1)"><rect fill="#ffffff" height="28" stroke="none" width="13" x="310" y="672"/></g><g transform="translate(-14,2) scale(1,1)"><path d="M 310 672 L 323 672 L 323 700 L 310 700 L 310 672 Z Z" fill="none" stroke="#000000" stroke-miterlimit="10"/></g><g transform="translate(-14,2) scale(1,1)"><path d="M 141 714 L 310 714" fill="none" stroke="#000000" stroke-miterlimit="10"/></g><g transform="translate(-14,2) scale(1,1)"><path d="M 299.83732514237585 718.209517756016 L 310 714 L 299.83732514237585 709.790482243984" fill="#000000" stroke="none"/></g><g transform="translate(-14,2) scale(1,1)"><path d="M 299.83732514237585 718.209517756016 L 310 714 L 299.83732514237585 709.790482243984 L 299.83732514237585 718.209517756016" fill="none" stroke="#000000" stroke-miterlimit="10"/></g><g transform="translate(-14,2) scale(1,1)"><g><path fill="none" stroke="none"/><text fill="#000000" font-family="Arial" font-size="13px" font-style="normal" font-weight="normal" stroke="none" text-decoration="none" x="185.39453125" y="708.5">14 : conferma</text></g></g><g transform="translate(-14,2) scale(1,1)"><rect fill="#ffffff" height="28" stroke="none" width="13" x="310" y="714"/></g><g transform="translate(-14,2) scale(1,1)"><path d="M 310 714 L 323 714 L 323 742 L 310 742 L 310 714 Z Z" fill="none" stroke="#000000" stroke-miterlimit="10"/></g><g transform="translate(-14,2) scale(1,1)"><path d="M 323 736 L 544 736" fill="none" stroke="#000000" stroke-miterlimit="10"/></g><g transform="translate(-14,2) scale(1,1)"><path d="M 533.8373251423759 740.209517756016 L 544 736 L 533.8373251423758 731.790482243984" fill="#000000" stroke="none"/></g><g transform="translate(-14,2) scale(1,1)"><path d="M 533.8373251423759 740.209517756016 L 544 736 L 533.8373251423758 731.790482243984 L 533.8373251423759 740.209517756016" fill="none" stroke="#000000" stroke-miterlimit="10"/></g><g transform="translate(-14,2) scale(1,1)"><g><path fill="none" stroke="none"/><text fill="#000000" font-family="Arial" font-size="13px" font-style="normal" font-weight="normal" stroke="none" text-decoration="none" x="344.5" y="730.5">15 : inserisciQuantita(quantita)</text></g></g><g transform="translate(-14,2) scale(1,1)"><rect fill="#ffffff" height="88" stroke="none" width="13" x="544" y="736"/></g><g transform="translate(-14,2) scale(1,1)"><path d="M 544 736 L 557 736 L 557 824 L 544 824 L 544 736 Z Z" fill="none" stroke="#000000" stroke-miterlimit="10"/></g><g transform="translate(-14,2) scale(1,1)"><path d="M 557 754 L 784 754" fill="none" stroke="#000000" stroke-miterlimit="10"/></g><g transform="translate(-14,2) scale(1,1)"><path d="M 773.8373251423759 758.209517756016 L 784 754 L 773.8373251423758 749.790482243984" fill="#000000" stroke="none"/></g><g transform="translate(-14,2) scale(1,1)"><path d="M 773.8373251423759 758.209517756016 L 784 754 L 773.8373251423758 749.790482243984 L 773.8373251423759 758.209517756016" fill="none" stroke="#000000" stroke-miterlimit="10"/></g><g transform="translate(-14,2) scale(1,1)"><g><path fill="none" stroke="none"/><text fill="#000000" font-family="Arial" font-size="13px" font-style="normal" font-weight="normal" stroke="none" text-decoration="none" x="580.63720703125" y="737.5">16 : aggiornaQuantita(quantita,</text><text fill="#000000" font-family="Arial" font-size="13px" font-style="normal" font-weight="normal" stroke="none" text-decoration="none" x="622.92529296875" y="750.5">ordinePeriodico)</text></g></g><g transform="translate(-14,2) scale(1,1)"><rect fill="#ffffff" height="70" stroke="none" width="13" x="784" y="754"/></g><g transform="translate(-14,2) scale(1,1)"><path d="M 784 754 L 797 754 L 797 824 L 784 824 L 784 754 Z Z" fill="none" stroke="#000000" stroke-miterlimit="10"/></g><g transform="translate(-14,2) scale(1,1)"><path d="M 797 776 L 990 776" fill="none" stroke="#000000" stroke-miterlimit="10"/></g><g transform="translate(-14,2) scale(1,1)"><path d="M 979.8373251423759 780.209517756016 L 990 776 L 979.8373251423758 771.790482243984" fill="#000000" stroke="none"/></g><g transform="translate(-14,2) scale(1,1)"><path d="M 979.8373251423759 780.209517756016 L 990 776 L 979.8373251423758 771.790482243984 L 979.8373251423759 780.209517756016" fill="none" stroke="#000000" stroke-miterlimit="10"/></g><g transform="translate(-14,2) scale(1,1)"><g><path fill="none" stroke="none"/><text fill="#000000" font-family="Arial" font-size="13px" font-style="normal" font-weight="normal" stroke="none" text-decoration="none" x="786.400634765625" y="753.5">17 : queryAggiornaQuantita(quantita,</text><text fill="#000000" font-family="Arial" font-size="13px" font-style="normal" font-weight="normal" stroke="none" text-decoration="none" x="845.668701171875" y="766.5">ordinePeriodico)</text></g></g><g transform="translate(-14,2) scale(1,1)"><rect fill="#ffffff" height="28" stroke="none" width="13" x="990" y="776"/></g><g transform="translate(-14,2) scale(1,1)"><path d="M 990 776 L 1003 776 L 1003 804 L 990 804 L 990 776 Z Z" fill="none" stroke="#000000" stroke-miterlimit="10"/></g><g transform="translate(-14,2) scale(1,1)"><path d="M 990 801 L 797 801" fill="none" stroke="#000000" stroke-dasharray="3" stroke-miterlimit="10"/></g><g transform="translate(-14,2) scale(1,1)"><path d="M 807.1626748576241 796.790482243984 L 797 801 L 807.1626748576241 805.209517756016" fill="none" stroke="#000000" stroke-miterlimit="10"/></g><g transform="translate(-14,2) scale(1,1)"><g><path fill="none" stroke="none"/><text fill="#000000" font-family="Arial" font-size="13px" font-style="normal" font-weight="normal" stroke="none" text-decoration="none" x="865.5" y="815.5">18 : esito</text></g></g><g transform="translate(-14,2) scale(1,1)"><path d="M 784 814 L 557 814" fill="none" stroke="#000000" stroke-dasharray="3" stroke-miterlimit="10"/></g><g transform="translate(-14,2) scale(1,1)"><path d="M 567.1626748576241 809.790482243984 L 557 814 L 567.1626748576241 818.209517756016" fill="none" stroke="#000000" stroke-miterlimit="10"/></g><g transform="translate(-14,2) scale(1,1)"><g><path fill="none" stroke="none"/><text fill="#000000" font-family="Arial" font-size="13px" font-style="normal" font-weight="normal" stroke="none" text-decoration="none" x="642.5" y="828.5">19 : esito</text></g></g><g transform="translate(-14,2) scale(1,1)"><path d="M 544 816 L 501.8544921875 816" fill="none" stroke="#000000" stroke-dasharray="3" stroke-miterlimit="10"/></g><g transform="translate(-14,2) scale(1,1)"><path d="M 512.0171670451241 811.790482243984 L 501.8544921875 816 L 512.0171670451241 820.209517756016" fill="none" stroke="#000000" stroke-miterlimit="10"/></g><g transform="translate(-14,2) scale(1,1)"><g><path fill="none" stroke="none"/><text fill="#000000" font-family="Arial" font-size="13px" font-style="normal" font-weight="normal" stroke="none" text-decoration="none" x="508.5" y="830.5">20 : </text></g></g><g transform="translate(-14,2) scale(1,1)"><g><path fill="none" stroke="none"/><text fill="#000000" font-family="Arial" font-size="13px" font-style="normal" font-weight="normal" stroke="none" text-decoration="none" x="495.5" y="845.5">«create»</text></g></g><g transform="translate(-14,2) scale(1,1)"><path d="M 141 842 L 428 842" fill="none" stroke="#000000" stroke-miterlimit="10"/></g><g transform="translate(-14,2) scale(1,1)"><path d="M 417.83732514237585 846.209517756016 L 428 842 L 417.83732514237585 837.790482243984" fill="#000000" stroke="none"/></g><g transform="translate(-14,2) scale(1,1)"><path d="M 417.83732514237585 846.209517756016 L 428 842 L 417.83732514237585 837.790482243984 L 417.83732514237585 846.209517756016" fill="none" stroke="#000000" stroke-miterlimit="10"/></g><g transform="translate(-14,2) scale(1,1)"><path d="M 425 910 L 445 930" fill="none" stroke="#000000" stroke-miterlimit="10"/></g><g transform="translate(-14,2) scale(1,1)"><path d="M 445 910 L 425 930" fill="none" stroke="#000000" stroke-miterlimit="10"/></g><g transform="translate(-14,2) scale(1,1)"><g><path fill="none" stroke="none"/><text fill="#000000" font-family="Arial" font-size="13px" font-style="normal" font-weight="normal" stroke="none" text-decoration="none" x="244.5" y="836.5">21 : conferma</text></g></g><g transform="translate(-14,2) scale(1,1)"><g><path fill="none" stroke="none"/><text fill="#000000" font-family="Arial" font-size="13px" font-style="normal" font-weight="normal" stroke="none" text-decoration="none" x="255.5" y="821.5">«destroy»</text></g></g><g transform="translate(-14,2) scale(1,1)"><rect fill="#ffffff" height="38" stroke="none" width="13" x="428" y="842"/></g><g transform="translate(-14,2) scale(1,1)"><path d="M 428 842 L 441 842 L 441 880 L 428 880 L 428 842 Z Z" fill="none" stroke="#000000" stroke-miterlimit="10"/></g><g transform="translate(-14,2) scale(1,1)"><path d="M 428 872 L 323 872" fill="none" stroke="#000000" stroke-miterlimit="10"/></g><g transform="translate(-14,2) scale(1,1)"><path d="M 333.16267485762415 867.790482243984 L 323 872 L 333.16267485762415 876.209517756016" fill="#000000" stroke="none"/></g><g transform="translate(-14,2) scale(1,1)"><path d="M 333.16267485762415 867.790482243984 L 323 872 L 333.16267485762415 876.209517756016 L 333.16267485762415 867.790482243984" fill="none" stroke="#000000" stroke-miterlimit="10"/></g><g transform="translate(-14,2) scale(1,1)"><path d="M 307 910 L 327 930" fill="none" stroke="#000000" stroke-miterlimit="10"/></g><g transform="translate(-14,2) scale(1,1)"><path d="M 327 910 L 307 930" fill="none" stroke="#000000" stroke-miterlimit="10"/></g><g transform="translate(-14,2) scale(1,1)"><g><path fill="none" stroke="none"/><text fill="#000000" font-family="Arial" font-size="13px" font-style="normal" font-weight="normal" stroke="none" text-decoration="none" x="361.5" y="886.5">22 : </text></g></g><g transform="translate(-14,2) scale(1,1)"><g><path fill="none" stroke="none"/><text fill="#000000" font-family="Arial" font-size="13px" font-style="normal" font-weight="normal" stroke="none" text-decoration="none" x="345.5" y="901.5">«destroy»</text></g></g><g transform="translate(-14,2) scale(1,1)"><rect fill="#ffffff" height="28" stroke="none" width="13" x="310" y="872"/></g><g transform="translate(-14,2) scale(1,1)"><path d="M 310 872 L 323 872 L 323 900 L 310 900 L 310 872 Z Z" fill="none" stroke="#000000" stroke-miterlimit="10"/></g><g transform="translate(-14,2) scale(1,1)"><path d="M 40 360 L 1120 360 L 1120 960 L 40 960 L 40 360" fill="none" stroke="#000000" stroke-miterlimit="10"/></g><g transform="translate(-14,2) scale(1,1)"><path d="M 40 360 L 40 382 L 80.578125 382 L 91.578125 371 L 91.578125 360 L 40 360" fill="#ffffff" stroke="none"/></g><g transform="translate(-14,2) scale(1,1)"><path d="M 40 360 L 40 382 L 80.578125 382 L 91.578125 371 L 91.578125 360 L 40 360 L 40 360" fill="none" stroke="#000000" stroke-miterlimit="10"/></g><g transform="translate(-14,2) scale(1,1)"><g><path fill="none" stroke="none"/><text fill="#000000" font-family="Arial" font-size="13px" font-style="normal" font-weight="bold" stroke="none" text-decoration="none" x="43.57177734375" y="375.5">loop</text></g></g><g transform="translate(-14,2) scale(1,1)"><g><path fill="none" stroke="none"/><text fill="#000000" font-family="Arial" font-size="13px" font-style="normal" font-weight="normal" stroke="none" text-decoration="none" x="59.5" y="408.5">[Per ogni ordine periodico]</text></g></g><g transform="translate(-14,2) scale(1,1)"><path d="M 88 472 L 1080 472 L 1080 936 L 88 936 L 88 472" fill="none" stroke="#000000" stroke-miterlimit="10"/></g><g transform="translate(-14,2) scale(1,1)"><path d="M 88 472 L 88 494 L 125.68359375 494 L 136.68359375 483 L 136.68359375 472 L 88 472" fill="#ffffff" stroke="none"/></g><g transform="translate(-14,2) scale(1,1)"><path d="M 88 472 L 88 494 L 125.68359375 494 L 136.68359375 483 L 136.68359375 472 L 88 472 L 88 472" fill="none" stroke="#000000" stroke-miterlimit="10"/></g><g transform="translate(-14,2) scale(1,1)"><g><path fill="none" stroke="none"/><text fill="#000000" font-family="Arial" font-size="13px" font-style="normal" font-weight="normal" stroke="none" text-decoration="none" x="117.07177734375" y="483"> </text></g></g><g transform="translate(-14,2) scale(1,1)"><g><path fill="none" stroke="none"/><text fill="#000000" font-family="Arial" font-size="13px" font-style="normal" font-weight="bold" stroke="none" text-decoration="none" x="91.930419921875" y="487.5">opt</text></g></g><g transform="translate(-14,2) scale(1,1)"><g><path fill="none" stroke="none"/><text fill="#000000" font-family="Arial" font-size="13px" font-style="normal" font-weight="normal" stroke="none" text-decoration="none" x="107.5" y="520.5">[Se si vuole modificare l'ordine]</text></g></g></g></svg>