<?xml version="1.0" encoding="UTF-8" standalone="no"?><svg xmlns="http://www.w3.org/2000/svg" xmlns:xlink="http://www.w3.org/1999/xlink" height="916" version="1.1" width="1284.65625"><defs/><g><g transform="translate(2,-6) scale(1,1)"><path d="M 8 16 L 1272 16 L 1272 912 L 8 912 L 8 16" fill="none" stroke="#000000" stroke-miterlimit="10"/></g><g transform="translate(2,-6) scale(1,1)"><path d="M 8 16 L 8 38 L 127.30810546875 38 L 138.30810546875 27 L 138.30810546875 16 L 8 16" fill="#ffffff" stroke="none"/></g><g transform="translate(2,-6) scale(1,1)"><path d="M 8 16 L 8 38 L 127.30810546875 38 L 138.30810546875 27 L 138.30810546875 16 L 8 16 L 8 16" fill="none" stroke="#000000" stroke-miterlimit="10"/></g><g transform="translate(2,-6) scale(1,1)"><g><path fill="none" stroke="none"/><text fill="#000000" font-family="Arial" font-size="13px" font-style="normal" font-weight="normal" stroke="none" text-decoration="none" x="32.72998046875" y="31.5">Cerca Farmaco</text></g></g><g transform="translate(2,-6) scale(1,1)"><g><path fill="none" stroke="none"/><text fill="#000000" font-family="Arial" font-size="13px" font-style="normal" font-weight="bold" stroke="none" text-decoration="none" x="12.279541015625" y="31.5">sd</text></g></g><g transform="translate(2,-6) scale(1,1)"><rect fill="#C0C0C0" height="39" opacity="0.2" stroke="none" width="262.83251953125" x="191" y="47"/></g><g transform="translate(2,-6) scale(1,1)"><rect fill="#ffffff" height="39" stroke="none" width="262.83251953125" x="184" y="40"/></g><g transform="translate(2,-6) scale(1,1)"><path d="M 184 40 L 446.83251953125 40 L 446.83251953125 79 L 184 79 L 184 40 Z Z" fill="none" stroke="#000000" stroke-miterlimit="10"/></g><g transform="translate(2,-6) scale(1,1)"><g><path fill="none" stroke="none"/><text fill="#000000" font-family="Arial" font-size="13px" font-style="normal" font-weight="normal" stroke="none" text-decoration="none" x="280.361328125" y="55.5">«Boundary»</text></g></g><g transform="translate(2,-6) scale(1,1)"><g><path fill="none" stroke="none"/><text fill="#000000" font-family="Arial" font-size="13px" font-style="normal" font-weight="bold" stroke="none" text-decoration="none" x="193.5" y="70.5">: InterfacciaPrincipale[tipo=Farmacista]</text></g></g><g transform="translate(2,-6) scale(1,1)"><path d="M 316.5 80 L 316.5 239" fill="none" stroke="#000000" stroke-dasharray="3" stroke-miterlimit="10"/></g><g transform="translate(2,-6) scale(1,1)"><path d="M 86.7344833096591 47.3 C 86.7344833096591 43.82060576 89.61288503184092 41 93.16357421875 41 C 96.71426340565908 41 99.5926651278409 43.82060576 99.5926651278409 47.3 C 99.5926651278409 50.779394239999995 96.71426340565908 53.6 93.16357421875 53.6 C 89.61288503184092 53.6 86.7344833096591 50.779394239999995 86.7344833096591 47.3 Z" fill="#ffffff" stroke="none"/></g><g transform="translate(2,-6) scale(1,1)"><path d="M 86.7344833096591 47.3 C 86.7344833096591 43.82060576 89.61288503184092 41 93.16357421875 41 C 96.71426340565908 41 99.5926651278409 43.82060576 99.5926651278409 47.3 C 99.5926651278409 50.779394239999995 96.71426340565908 53.6 93.16357421875 53.6 C 89.61288503184092 53.6 86.7344833096591 50.779394239999995 86.7344833096591 47.3 Z" fill="none" stroke="#000000" stroke-miterlimit="10"/></g><g transform="translate(2,-6) scale(1,1)"><path d="M 93.16357421875 53.6 L 93.16357421875 66.4" fill="none" stroke="#000000" stroke-miterlimit="10"/></g><g transform="translate(2,-6) scale(1,1)"><path d="M 86.35630149147727 58.4 L 99.97084694602273 58.4" fill="none" stroke="#000000" stroke-miterlimit="10"/></g><g transform="translate(2,-6) scale(1,1)"><path d="M 93.16357421875 66.4 L 83.70902876420455 79" fill="none" stroke="#000000" stroke-miterlimit="10"/></g><g transform="translate(2,-6) scale(1,1)"><path d="M 93.16357421875 66.4 L 102.61811967329545 79" fill="none" stroke="#000000" stroke-miterlimit="10"/></g><g transform="translate(2,-6) scale(1,1)"><g><path fill="none" stroke="none"/><text fill="#000000" font-family="Arial" font-size="13px" font-style="normal" font-weight="bold" stroke="none" text-decoration="none" x="54.8681640625" y="97.5">: Farmacista</text></g></g><g transform="translate(2,-6) scale(1,1)"><path d="M 94.5 105 L 94.5 880" fill="none" stroke="#000000" stroke-dasharray="3" stroke-miterlimit="10"/></g><g transform="translate(2,-6) scale(1,1)"><rect fill="#C0C0C0" height="39" opacity="0.2" stroke="none" width="173.62890625" x="527" y="147"/></g><g transform="translate(2,-6) scale(1,1)"><rect fill="#ffffff" height="39" stroke="none" width="173.62890625" x="520" y="140"/></g><g transform="translate(2,-6) scale(1,1)"><path d="M 520 140 L 693.62890625 140 L 693.62890625 179 L 520 179 L 520 140 Z Z" fill="none" stroke="#000000" stroke-miterlimit="10"/></g><g transform="translate(2,-6) scale(1,1)"><g><path fill="none" stroke="none"/><text fill="#000000" font-family="Arial" font-size="13px" font-style="normal" font-weight="normal" stroke="none" text-decoration="none" x="580.074951171875" y="155.5">«control»</text></g></g><g transform="translate(2,-6) scale(1,1)"><g><path fill="none" stroke="none"/><text fill="#000000" font-family="Arial" font-size="13px" font-style="normal" font-weight="bold" stroke="none" text-decoration="none" x="531.66455078125" y="170.5">:GestoreRicercaFarmaci</text></g></g><g transform="translate(2,-6) scale(1,1)"><path d="M 607.5 180 L 607.5 880" fill="none" stroke="#000000" stroke-dasharray="3" stroke-miterlimit="10"/></g><g transform="translate(2,-6) scale(1,1)"><rect fill="#C0C0C0" height="39" opacity="0.2" stroke="none" width="185.20068359375" x="311" y="211"/></g><g transform="translate(2,-6) scale(1,1)"><rect fill="#ffffff" height="39" stroke="none" width="185.20068359375" x="304" y="204"/></g><g transform="translate(2,-6) scale(1,1)"><path d="M 304 204 L 489.20068359375 204 L 489.20068359375 243 L 304 243 L 304 204 Z Z" fill="none" stroke="#000000" stroke-miterlimit="10"/></g><g transform="translate(2,-6) scale(1,1)"><g><path fill="none" stroke="none"/><text fill="#000000" font-family="Arial" font-size="13px" font-style="normal" font-weight="normal" stroke="none" text-decoration="none" x="362.265869140625" y="219.5">«boundary»</text></g></g><g transform="translate(2,-6) scale(1,1)"><g><path fill="none" stroke="none"/><text fill="#000000" font-family="Arial" font-size="13px" font-style="normal" font-weight="bold" stroke="none" text-decoration="none" x="313.5" y="234.5">:InterfacciaRicercaFarmaci</text></g></g><g transform="translate(2,-6) scale(1,1)"><path d="M 397.5 244 L 397.5 880" fill="none" stroke="#000000" stroke-dasharray="3" stroke-miterlimit="10"/></g><g transform="translate(2,-6) scale(1,1)"><path d="M 1050.274522372159 47.3 C 1050.274522372159 43.82060576 1053.152924094341 41 1056.70361328125 41 C 1060.254302468159 41 1063.132704190341 43.82060576 1063.132704190341 47.3 C 1063.132704190341 50.779394239999995 1060.254302468159 53.6 1056.70361328125 53.6 C 1053.152924094341 53.6 1050.274522372159 50.779394239999995 1050.274522372159 47.3 Z" fill="#ffffff" stroke="none"/></g><g transform="translate(2,-6) scale(1,1)"><path d="M 1050.274522372159 47.3 C 1050.274522372159 43.82060576 1053.152924094341 41 1056.70361328125 41 C 1060.254302468159 41 1063.132704190341 43.82060576 1063.132704190341 47.3 C 1063.132704190341 50.779394239999995 1060.254302468159 53.6 1056.70361328125 53.6 C 1053.152924094341 53.6 1050.274522372159 50.779394239999995 1050.274522372159 47.3 Z" fill="none" stroke="#000000" stroke-miterlimit="10"/></g><g transform="translate(2,-6) scale(1,1)"><path d="M 1056.70361328125 53.6 L 1056.70361328125 66.4" fill="none" stroke="#000000" stroke-miterlimit="10"/></g><g transform="translate(2,-6) scale(1,1)"><path d="M 1049.8963405539773 58.4 L 1063.5108860085227 58.4" fill="none" stroke="#000000" stroke-miterlimit="10"/></g><g transform="translate(2,-6) scale(1,1)"><path d="M 1056.70361328125 66.4 L 1047.2490678267045 79" fill="none" stroke="#000000" stroke-miterlimit="10"/></g><g transform="translate(2,-6) scale(1,1)"><path d="M 1056.70361328125 66.4 L 1066.1581587357955 79" fill="none" stroke="#000000" stroke-miterlimit="10"/></g><g transform="translate(2,-6) scale(1,1)"><g><path fill="none" stroke="none"/><text fill="#000000" font-family="Arial" font-size="13px" font-style="normal" font-weight="bold" stroke="none" text-decoration="none" x="1006.8681640625" y="97.5">: DBMS Azienda</text></g></g><g transform="translate(2,-6) scale(1,1)"><path d="M 1057.5 105 L 1057.5 712" fill="none" stroke="#000000" stroke-dasharray="3" stroke-miterlimit="10"/></g><g transform="translate(2,-6) scale(1,1)"><path d="M 1181.899034090909 47.3 C 1181.899034090909 43.82060576 1184.777435813091 41 1188.328125 41 C 1191.878814186909 41 1194.757215909091 43.82060576 1194.757215909091 47.3 C 1194.757215909091 50.779394239999995 1191.878814186909 53.6 1188.328125 53.6 C 1184.777435813091 53.6 1181.899034090909 50.779394239999995 1181.899034090909 47.3 Z" fill="#ffffff" stroke="none"/></g><g transform="translate(2,-6) scale(1,1)"><path d="M 1181.899034090909 47.3 C 1181.899034090909 43.82060576 1184.777435813091 41 1188.328125 41 C 1191.878814186909 41 1194.757215909091 43.82060576 1194.757215909091 47.3 C 1194.757215909091 50.779394239999995 1191.878814186909 53.6 1188.328125 53.6 C 1184.777435813091 53.6 1181.899034090909 50.779394239999995 1181.899034090909 47.3 Z" fill="none" stroke="#000000" stroke-miterlimit="10"/></g><g transform="translate(2,-6) scale(1,1)"><path d="M 1188.328125 53.6 L 1188.328125 66.4" fill="none" stroke="#000000" stroke-miterlimit="10"/></g><g transform="translate(2,-6) scale(1,1)"><path d="M 1181.5208522727273 58.4 L 1195.1353977272727 58.4" fill="none" stroke="#000000" stroke-miterlimit="10"/></g><g transform="translate(2,-6) scale(1,1)"><path d="M 1188.328125 66.4 L 1178.8735795454545 79" fill="none" stroke="#000000" stroke-miterlimit="10"/></g><g transform="translate(2,-6) scale(1,1)"><path d="M 1188.328125 66.4 L 1197.7826704545455 79" fill="none" stroke="#000000" stroke-miterlimit="10"/></g><g transform="translate(2,-6) scale(1,1)"><g><path fill="none" stroke="none"/><text fill="#000000" font-family="Arial" font-size="13px" font-style="normal" font-weight="bold" stroke="none" text-decoration="none" x="1134.8681640625" y="97.5">: DBMS Farmacie</text></g></g><g transform="translate(2,-6) scale(1,1)"><path d="M 1189.5 105 L 1189.5 712" fill="none" stroke="#000000" stroke-dasharray="3" stroke-miterlimit="10"/></g><g transform="translate(2,-6) scale(1,1)"><rect fill="#C0C0C0" height="39" opacity="0.2" stroke="none" width="108.5654296875" x="855" y="47"/></g><g transform="translate(2,-6) scale(1,1)"><rect fill="#ffffff" height="39" stroke="none" width="108.5654296875" x="848" y="40"/></g><g transform="translate(2,-6) scale(1,1)"><path d="M 848 40 L 956.5654296875 40 L 956.5654296875 79 L 848 79 L 848 40 Z Z" fill="none" stroke="#000000" stroke-miterlimit="10"/></g><g transform="translate(2,-6) scale(1,1)"><g><path fill="none" stroke="none"/><text fill="#000000" font-family="Arial" font-size="13px" font-style="normal" font-weight="normal" stroke="none" text-decoration="none" x="867.227783203125" y="55.5">«Boundary»</text></g></g><g transform="translate(2,-6) scale(1,1)"><g><path fill="none" stroke="none"/><text fill="#000000" font-family="Arial" font-size="13px" font-style="normal" font-weight="bold" stroke="none" text-decoration="none" x="857.5" y="70.5">DBMSDaemon</text></g></g><g transform="translate(2,-6) scale(1,1)"><path d="M 903.5 80 L 903.5 712" fill="none" stroke="#000000" stroke-dasharray="3" stroke-miterlimit="10"/></g><g transform="translate(2,-6) scale(1,1)"><rect fill="#C0C0C0" height="39" opacity="0.2" stroke="none" width="99.20263671875" x="423" y="499"/></g><g transform="translate(2,-6) scale(1,1)"><rect fill="#ffffff" height="39" stroke="none" width="99.20263671875" x="416" y="492"/></g><g transform="translate(2,-6) scale(1,1)"><path d="M 416 492 L 515.20263671875 492 L 515.20263671875 531 L 416 531 L 416 492 Z Z" fill="none" stroke="#000000" stroke-miterlimit="10"/></g><g transform="translate(2,-6) scale(1,1)"><g><path fill="none" stroke="none"/><text fill="#000000" font-family="Arial" font-size="13px" font-style="normal" font-weight="normal" stroke="none" text-decoration="none" x="442.114990234375" y="507.5">«Entity»</text></g></g><g transform="translate(2,-6) scale(1,1)"><g><path fill="none" stroke="none"/><text fill="#000000" font-family="Arial" font-size="13px" font-style="normal" font-weight="bold" stroke="none" text-decoration="none" x="425.5" y="522.5">ListaFarmaci</text></g></g><g transform="translate(2,-6) scale(1,1)"><path d="M 466.5 532 L 466.5 664" fill="none" stroke="#000000" stroke-dasharray="3" stroke-miterlimit="10"/></g><g transform="translate(2,-6) scale(1,1)"><rect fill="#C0C0C0" height="39" opacity="0.2" stroke="none" width="277.578125" x="207" y="739"/></g><g transform="translate(2,-6) scale(1,1)"><rect fill="#ffffff" height="39" stroke="none" width="277.578125" x="200" y="732"/></g><g transform="translate(2,-6) scale(1,1)"><path d="M 200 732 L 477.578125 732 L 477.578125 771 L 200 771 L 200 732 Z Z" fill="none" stroke="#000000" stroke-miterlimit="10"/></g><g transform="translate(2,-6) scale(1,1)"><g><path fill="none" stroke="none"/><text fill="#000000" font-family="Arial" font-size="13px" font-style="normal" font-weight="normal" stroke="none" text-decoration="none" x="303.734130859375" y="747.5">«Boundary»</text></g></g><g transform="translate(2,-6) scale(1,1)"><g><path fill="none" stroke="none"/><text fill="#000000" font-family="Arial" font-size="13px" font-style="normal" font-weight="bold" stroke="none" text-decoration="none" x="223.21728515625" y="762.5">BottoneOrdinaFarmaco[datiFarmaco]</text></g></g><g transform="translate(2,-6) scale(1,1)"><path d="M 339.5 772 L 339.5 821" fill="none" stroke="#000000" stroke-dasharray="3" stroke-miterlimit="10"/></g><g transform="translate(2,-6) scale(1,1)"><path d="M 94 141 L 309 141" fill="none" stroke="#000000" stroke-miterlimit="10"/></g><g transform="translate(2,-6) scale(1,1)"><path d="M 298.83732514237585 145.209517756016 L 309 141 L 298.83732514237585 136.790482243984" fill="#000000" stroke="none"/></g><g transform="translate(2,-6) scale(1,1)"><path d="M 298.83732514237585 145.209517756016 L 309 141 L 298.83732514237585 136.790482243984 L 298.83732514237585 145.209517756016" fill="none" stroke="#000000" stroke-miterlimit="10"/></g><g transform="translate(2,-6) scale(1,1)"><g><path fill="none" stroke="none"/><text fill="#000000" font-family="Arial" font-size="13px" font-style="normal" font-weight="normal" stroke="none" text-decoration="none" x="132.5" y="135.5">1 : cliccaCercaFarmaco</text></g></g><g transform="translate(2,-6) scale(1,1)"><rect fill="#ffffff" height="28" stroke="none" width="13" x="309" y="141"/></g><g transform="translate(2,-6) scale(1,1)"><path d="M 309 141 L 322 141 L 322 169 L 309 169 L 309 141 Z Z" fill="none" stroke="#000000" stroke-miterlimit="10"/></g><g transform="translate(2,-6) scale(1,1)"><path d="M 322 160 L 520 160" fill="none" stroke="#000000" stroke-dasharray="3" stroke-miterlimit="10"/></g><g transform="translate(2,-6) scale(1,1)"><path d="M 509.83732514237585 164.209517756016 L 520 160 L 509.83732514237585 155.790482243984" fill="none" stroke="#000000" stroke-miterlimit="10"/></g><g transform="translate(2,-6) scale(1,1)"><g><path fill="none" stroke="none"/><text fill="#000000" font-family="Arial" font-size="13px" font-style="normal" font-weight="normal" stroke="none" text-decoration="none" x="412.114990234375" y="154.5">2 : </text></g></g><g transform="translate(2,-6) scale(1,1)"><g><path fill="none" stroke="none"/><text fill="#000000" font-family="Arial" font-size="13px" font-style="normal" font-weight="normal" stroke="none" text-decoration="none" x="395.5" y="139.5">«create»</text></g></g><g transform="translate(2,-6) scale(1,1)"><path d="M 607 224 L 489.20068359375 224" fill="none" stroke="#000000" stroke-dasharray="3" stroke-miterlimit="10"/></g><g transform="translate(2,-6) scale(1,1)"><path d="M 499.36335845137415 219.790482243984 L 489.20068359375 224 L 499.36335845137415 228.209517756016" fill="none" stroke="#000000" stroke-miterlimit="10"/></g><g transform="translate(2,-6) scale(1,1)"><g><path fill="none" stroke="none"/><text fill="#000000" font-family="Arial" font-size="13px" font-style="normal" font-weight="normal" stroke="none" text-decoration="none" x="537.5" y="238.5">3 : </text></g></g><g transform="translate(2,-6) scale(1,1)"><g><path fill="none" stroke="none"/><text fill="#000000" font-family="Arial" font-size="13px" font-style="normal" font-weight="normal" stroke="none" text-decoration="none" x="521.5" y="253.5">«create»</text></g></g><g transform="translate(2,-6) scale(1,1)"><path d="M 94 272 L 390 272" fill="none" stroke="#000000" stroke-miterlimit="10"/></g><g transform="translate(2,-6) scale(1,1)"><path d="M 379.83732514237585 276.209517756016 L 390 272 L 379.83732514237585 267.790482243984" fill="#000000" stroke="none"/></g><g transform="translate(2,-6) scale(1,1)"><path d="M 379.83732514237585 276.209517756016 L 390 272 L 379.83732514237585 267.790482243984 L 379.83732514237585 276.209517756016" fill="none" stroke="#000000" stroke-miterlimit="10"/></g><g transform="translate(2,-6) scale(1,1)"><g><path fill="none" stroke="none"/><text fill="#000000" font-family="Arial" font-size="13px" font-style="normal" font-weight="normal" stroke="none" text-decoration="none" x="112.39453125" y="266.5">4 : inserisciCriteriDiRicerca(nome, princAttivo)</text></g></g><g transform="translate(2,-6) scale(1,1)"><rect fill="#ffffff" height="28" stroke="none" width="13" x="390" y="272"/></g><g transform="translate(2,-6) scale(1,1)"><path d="M 390 272 L 403 272 L 403 300 L 390 300 L 390 272 Z Z" fill="none" stroke="#000000" stroke-miterlimit="10"/></g><g transform="translate(2,-6) scale(1,1)"><path d="M 94 320 L 390 320" fill="none" stroke="#000000" stroke-miterlimit="10"/></g><g transform="translate(2,-6) scale(1,1)"><path d="M 379.83732514237585 324.209517756016 L 390 320 L 379.83732514237585 315.790482243984" fill="#000000" stroke="none"/></g><g transform="translate(2,-6) scale(1,1)"><path d="M 379.83732514237585 324.209517756016 L 390 320 L 379.83732514237585 315.790482243984 L 379.83732514237585 324.209517756016" fill="none" stroke="#000000" stroke-miterlimit="10"/></g><g transform="translate(2,-6) scale(1,1)"><g><path fill="none" stroke="none"/><text fill="#000000" font-family="Arial" font-size="13px" font-style="normal" font-weight="normal" stroke="none" text-decoration="none" x="205.39453125" y="314.5">5 : conferma</text></g></g><g transform="translate(2,-6) scale(1,1)"><rect fill="#ffffff" height="28" stroke="none" width="13" x="390" y="320"/></g><g transform="translate(2,-6) scale(1,1)"><path d="M 390 320 L 403 320 L 403 348 L 390 348 L 390 320 Z Z" fill="none" stroke="#000000" stroke-miterlimit="10"/></g><g transform="translate(2,-6) scale(1,1)"><path d="M 403 336 L 600 336" fill="none" stroke="#000000" stroke-miterlimit="10"/></g><g transform="translate(2,-6) scale(1,1)"><path d="M 589.8373251423759 340.209517756016 L 600 336 L 589.8373251423758 331.790482243984" fill="#000000" stroke="none"/></g><g transform="translate(2,-6) scale(1,1)"><path d="M 589.8373251423759 340.209517756016 L 600 336 L 589.8373251423758 331.790482243984 L 589.8373251423759 340.209517756016" fill="none" stroke="#000000" stroke-miterlimit="10"/></g><g transform="translate(2,-6) scale(1,1)"><g><path fill="none" stroke="none"/><text fill="#000000" font-family="Arial" font-size="13px" font-style="normal" font-weight="normal" stroke="none" text-decoration="none" x="440.8154296875" y="314.5">6 : cercaFarmaco(nome,</text><text fill="#000000" font-family="Arial" font-size="13px" font-style="normal" font-weight="normal" stroke="none" text-decoration="none" x="479.107666015625" y="327.5">princAttivo)</text></g></g><g transform="translate(2,-6) scale(1,1)"><rect fill="#ffffff" height="422" stroke="none" width="13" x="600" y="336"/></g><g transform="translate(2,-6) scale(1,1)"><path d="M 600 336 L 613 336 L 613 758 L 600 758 L 600 336 Z Z" fill="none" stroke="#000000" stroke-miterlimit="10"/></g><g transform="translate(2,-6) scale(1,1)"><path d="M 613 392 L 896 392" fill="none" stroke="#000000" stroke-miterlimit="10"/></g><g transform="translate(2,-6) scale(1,1)"><path d="M 885.8373251423759 396.209517756016 L 896 392 L 885.8373251423758 387.790482243984" fill="#000000" stroke="none"/></g><g transform="translate(2,-6) scale(1,1)"><path d="M 885.8373251423759 396.209517756016 L 896 392 L 885.8373251423758 387.790482243984 L 885.8373251423759 396.209517756016" fill="none" stroke="#000000" stroke-miterlimit="10"/></g><g transform="translate(2,-6) scale(1,1)"><g><path fill="none" stroke="none"/><text fill="#000000" font-family="Arial" font-size="13px" font-style="normal" font-weight="normal" stroke="none" text-decoration="none" x="657.5" y="386.5">7 : cercaFarmaco(nome,princAttivo)</text></g></g><g transform="translate(2,-6) scale(1,1)"><rect fill="#ffffff" height="80" stroke="none" width="13" x="896" y="392"/></g><g transform="translate(2,-6) scale(1,1)"><path d="M 896 392 L 909 392 L 909 472 L 896 472 L 896 392 Z Z" fill="none" stroke="#000000" stroke-miterlimit="10"/></g><g transform="translate(2,-6) scale(1,1)"><path d="M 909 416 L 1050 416" fill="none" stroke="#000000" stroke-miterlimit="10"/></g><g transform="translate(2,-6) scale(1,1)"><path d="M 1039.837325142376 420.209517756016 L 1050 416 L 1039.837325142376 411.790482243984" fill="#000000" stroke="none"/></g><g transform="translate(2,-6) scale(1,1)"><path d="M 1039.837325142376 420.209517756016 L 1050 416 L 1039.837325142376 411.790482243984 L 1039.837325142376 420.209517756016" fill="none" stroke="#000000" stroke-miterlimit="10"/></g><g transform="translate(2,-6) scale(1,1)"><g><path fill="none" stroke="none"/><text fill="#000000" font-family="Arial" font-size="13px" font-style="normal" font-weight="normal" stroke="none" text-decoration="none" x="903.8154296875" y="392.5">8 : queryFarmaci(nome,</text><text fill="#000000" font-family="Arial" font-size="13px" font-style="normal" font-weight="normal" stroke="none" text-decoration="none" x="940.3017578125" y="405.5">princAttivo)</text></g></g><g transform="translate(2,-6) scale(1,1)"><rect fill="#ffffff" height="28" stroke="none" width="13" x="1050" y="416"/></g><g transform="translate(2,-6) scale(1,1)"><path d="M 1050 416 L 1063 416 L 1063 444 L 1050 444 L 1050 416 Z Z" fill="none" stroke="#000000" stroke-miterlimit="10"/></g><g transform="translate(2,-6) scale(1,1)"><path d="M 1057 448 L 909 448" fill="none" stroke="#000000" stroke-dasharray="3" stroke-miterlimit="10"/></g><g transform="translate(2,-6) scale(1,1)"><path d="M 919.1626748576241 443.790482243984 L 909 448 L 919.1626748576241 452.209517756016" fill="none" stroke="#000000" stroke-miterlimit="10"/></g><g transform="translate(2,-6) scale(1,1)"><g><path fill="none" stroke="none"/><text fill="#000000" font-family="Arial" font-size="13px" font-style="normal" font-weight="normal" stroke="none" text-decoration="none" x="959.5" y="462.5">9 : esito</text></g></g><g transform="translate(2,-6) scale(1,1)"><path d="M 896 464 L 613 464" fill="none" stroke="#000000" stroke-dasharray="3" stroke-miterlimit="10"/></g><g transform="translate(2,-6) scale(1,1)"><path d="M 623.1626748576241 459.790482243984 L 613 464 L 623.1626748576241 468.209517756016" fill="none" stroke="#000000" stroke-miterlimit="10"/></g><g transform="translate(2,-6) scale(1,1)"><g><path fill="none" stroke="none"/><text fill="#000000" font-family="Arial" font-size="13px" font-style="normal" font-weight="normal" stroke="none" text-decoration="none" x="726.5" y="478.5">10 : esito</text></g></g><g transform="translate(2,-6) scale(1,1)"><path d="M 600 512 L 515.20263671875 512" fill="none" stroke="#000000" stroke-dasharray="3" stroke-miterlimit="10"/></g><g transform="translate(2,-6) scale(1,1)"><path d="M 525.3653115763741 507.790482243984 L 515.20263671875 512 L 525.3653115763741 516.209517756016" fill="none" stroke="#000000" stroke-miterlimit="10"/></g><g transform="translate(2,-6) scale(1,1)"><g><path fill="none" stroke="none"/><text fill="#000000" font-family="Arial" font-size="13px" font-style="normal" font-weight="normal" stroke="none" text-decoration="none" x="543.982421875" y="526.5">11 : </text></g></g><g transform="translate(2,-6) scale(1,1)"><g><path fill="none" stroke="none"/><text fill="#000000" font-family="Arial" font-size="13px" font-style="normal" font-weight="normal" stroke="none" text-decoration="none" x="530.5" y="541.5">«create»</text></g></g><g transform="translate(2,-6) scale(1,1)"><path d="M 613 536 L 896 536" fill="none" stroke="#000000" stroke-miterlimit="10"/></g><g transform="translate(2,-6) scale(1,1)"><path d="M 885.8373251423759 540.209517756016 L 896 536 L 885.8373251423758 531.790482243984" fill="#000000" stroke="none"/></g><g transform="translate(2,-6) scale(1,1)"><path d="M 885.8373251423759 540.209517756016 L 896 536 L 885.8373251423758 531.790482243984 L 885.8373251423759 540.209517756016" fill="none" stroke="#000000" stroke-miterlimit="10"/></g><g transform="translate(2,-6) scale(1,1)"><g><path fill="none" stroke="none"/><text fill="#000000" font-family="Arial" font-size="13px" font-style="normal" font-weight="normal" stroke="none" text-decoration="none" x="646.5" y="530.5">12 : chiediQuantitaFarmacia(listaFarmaci)</text></g></g><g transform="translate(2,-6) scale(1,1)"><rect fill="#ffffff" height="64" stroke="none" width="13" x="896" y="536"/></g><g transform="translate(2,-6) scale(1,1)"><path d="M 896 536 L 909 536 L 909 600 L 896 600 L 896 536 Z Z" fill="none" stroke="#000000" stroke-miterlimit="10"/></g><g transform="translate(2,-6) scale(1,1)"><path d="M 909 552 L 1182 552" fill="none" stroke="#000000" stroke-miterlimit="10"/></g><g transform="translate(2,-6) scale(1,1)"><path d="M 1171.837325142376 556.209517756016 L 1182 552 L 1171.837325142376 547.790482243984" fill="#000000" stroke="none"/></g><g transform="translate(2,-6) scale(1,1)"><path d="M 1171.837325142376 556.209517756016 L 1182 552 L 1171.837325142376 547.790482243984 L 1171.837325142376 556.209517756016" fill="none" stroke="#000000" stroke-miterlimit="10"/></g><g transform="translate(2,-6) scale(1,1)"><g><path fill="none" stroke="none"/><text fill="#000000" font-family="Arial" font-size="13px" font-style="normal" font-weight="normal" stroke="none" text-decoration="none" x="990.45458984375" y="529.5">13 : queryFarmaci(</text><text fill="#000000" font-family="Arial" font-size="13px" font-style="normal" font-weight="normal" stroke="none" text-decoration="none" x="1007.802734375" y="542.5">listaFarmaci)</text></g></g><g transform="translate(2,-6) scale(1,1)"><rect fill="#ffffff" height="28" stroke="none" width="13" x="1182" y="552"/></g><g transform="translate(2,-6) scale(1,1)"><path d="M 1182 552 L 1195 552 L 1195 580 L 1182 580 L 1182 552 Z Z" fill="none" stroke="#000000" stroke-miterlimit="10"/></g><g transform="translate(2,-6) scale(1,1)"><path d="M 1182 576 L 909 576" fill="none" stroke="#000000" stroke-dasharray="3" stroke-miterlimit="10"/></g><g transform="translate(2,-6) scale(1,1)"><path d="M 919.1626748576241 571.790482243984 L 909 576 L 919.1626748576241 580.209517756016" fill="none" stroke="#000000" stroke-miterlimit="10"/></g><g transform="translate(2,-6) scale(1,1)"><g><path fill="none" stroke="none"/><text fill="#000000" font-family="Arial" font-size="13px" font-style="normal" font-weight="normal" stroke="none" text-decoration="none" x="1017.5" y="590.5">14 : esito</text></g></g><g transform="translate(2,-6) scale(1,1)"><path d="M 896 592 L 613 592" fill="none" stroke="#000000" stroke-dasharray="3" stroke-miterlimit="10"/></g><g transform="translate(2,-6) scale(1,1)"><path d="M 623.1626748576241 587.790482243984 L 613 592 L 623.1626748576241 596.209517756016" fill="none" stroke="#000000" stroke-miterlimit="10"/></g><g transform="translate(2,-6) scale(1,1)"><g><path fill="none" stroke="none"/><text fill="#000000" font-family="Arial" font-size="13px" font-style="normal" font-weight="normal" stroke="none" text-decoration="none" x="726.5" y="606.5">15 : esito</text></g></g><g transform="translate(2,-6) scale(1,1)"><path d="M 600 610 L 472 610" fill="none" stroke="#000000" stroke-miterlimit="10"/></g><g transform="translate(2,-6) scale(1,1)"><path d="M 482.16267485762415 605.790482243984 L 472 610 L 482.16267485762415 614.209517756016" fill="#000000" stroke="none"/></g><g transform="translate(2,-6) scale(1,1)"><path d="M 482.16267485762415 605.790482243984 L 472 610 L 482.16267485762415 614.209517756016 L 482.16267485762415 605.790482243984" fill="none" stroke="#000000" stroke-miterlimit="10"/></g><g transform="translate(2,-6) scale(1,1)"><g><path fill="none" stroke="none"/><text fill="#000000" font-family="Arial" font-size="13px" font-style="normal" font-weight="normal" stroke="none" text-decoration="none" x="476.621337890625" y="627.5">16 : riempiQuantita(</text><text fill="#000000" font-family="Arial" font-size="13px" font-style="normal" font-weight="normal" stroke="none" text-decoration="none" x="484.93359375" y="640.5">quantitaFarmaci)</text></g></g><g transform="translate(2,-6) scale(1,1)"><rect fill="#ffffff" height="28" stroke="none" width="13" x="459" y="610"/></g><g transform="translate(2,-6) scale(1,1)"><path d="M 459 610 L 472 610 L 472 638 L 459 638 L 459 610 Z Z" fill="none" stroke="#000000" stroke-miterlimit="10"/></g><g transform="translate(2,-6) scale(1,1)"><path d="M 600 752 L 477.578125 752" fill="none" stroke="#000000" stroke-dasharray="3" stroke-miterlimit="10"/></g><g transform="translate(2,-6) scale(1,1)"><path d="M 487.74079985762415 747.790482243984 L 477.578125 752 L 487.74079985762415 756.209517756016" fill="none" stroke="#000000" stroke-miterlimit="10"/></g><g transform="translate(2,-6) scale(1,1)"><g><path fill="none" stroke="none"/><text fill="#000000" font-family="Arial" font-size="13px" font-style="normal" font-weight="normal" stroke="none" text-decoration="none" x="484.037109375" y="766.5">17 : (datiFarmaco)</text></g></g><g transform="translate(2,-6) scale(1,1)"><g><path fill="none" stroke="none"/><text fill="#000000" font-family="Arial" font-size="13px" font-style="normal" font-weight="normal" stroke="none" text-decoration="none" x="511.5" y="781.5">«create»</text></g></g><g transform="translate(2,-6) scale(1,1)"><path d="M 24 664 L 1215 664 L 1215 880 L 24 880 L 24 664" fill="none" stroke="#000000" stroke-miterlimit="10"/></g><g transform="translate(2,-6) scale(1,1)"><path d="M 24 664 L 24 686 L 64.578125 686 L 75.578125 675 L 75.578125 664 L 24 664" fill="#ffffff" stroke="none"/></g><g transform="translate(2,-6) scale(1,1)"><path d="M 24 664 L 24 686 L 64.578125 686 L 75.578125 675 L 75.578125 664 L 24 664 L 24 664" fill="none" stroke="#000000" stroke-miterlimit="10"/></g><g transform="translate(2,-6) scale(1,1)"><g><path fill="none" stroke="none"/><text fill="#000000" font-family="Arial" font-size="13px" font-style="normal" font-weight="bold" stroke="none" text-decoration="none" x="27.57177734375" y="679.5">loop</text></g></g><g transform="translate(2,-6) scale(1,1)"><g><path fill="none" stroke="none"/><text fill="#000000" font-family="Arial" font-size="13px" font-style="normal" font-weight="normal" stroke="none" text-decoration="none" x="43.5" y="712.5">[per ogni farmaco in ListaFarmaci]</text></g></g></g></svg>