<?xml version="1.0" encoding="UTF-8" standalone="no"?><svg xmlns="http://www.w3.org/2000/svg" xmlns:xlink="http://www.w3.org/1999/xlink" height="1660" version="1.1" width="1332"><defs/><g><g transform="translate(-6,10) scale(1,1)"><path d="M 16 0 L 1328 0 L 1328 1640 L 16 1640 L 16 0" fill="none" stroke="#000000" stroke-miterlimit="10"/></g><g transform="translate(-6,10) scale(1,1)"><path d="M 16 0 L 16 22 L 174.32080078125 22 L 185.32080078125 11 L 185.32080078125 0 L 16 0" fill="#ffffff" stroke="none"/></g><g transform="translate(-6,10) scale(1,1)"><path d="M 16 0 L 16 22 L 174.32080078125 22 L 185.32080078125 11 L 185.32080078125 0 L 16 0 L 16 0" fill="none" stroke="#000000" stroke-miterlimit="10"/></g><g transform="translate(-6,10) scale(1,1)"><g><path fill="none" stroke="none"/><text fill="#000000" font-family="Arial" font-size="13px" font-style="normal" font-weight="normal" stroke="none" text-decoration="none" x="40.72998046875" y="15.5">Controllo Carico Merci</text></g></g><g transform="translate(-6,10) scale(1,1)"><g><path fill="none" stroke="none"/><text fill="#000000" font-family="Arial" font-size="13px" font-style="normal" font-weight="bold" stroke="none" text-decoration="none" x="20.279541015625" y="15.5">sd</text></g></g><g transform="translate(-6,10) scale(1,1)"><rect fill="#C0C0C0" height="39" opacity="0.2" stroke="none" width="138.9326171875" x="343" y="47"/></g><g transform="translate(-6,10) scale(1,1)"><rect fill="#ffffff" height="39" stroke="none" width="138.9326171875" x="336" y="40"/></g><g transform="translate(-6,10) scale(1,1)"><path d="M 336 40 L 474.9326171875 40 L 474.9326171875 79 L 336 79 L 336 40 Z Z" fill="none" stroke="#000000" stroke-miterlimit="10"/></g><g transform="translate(-6,10) scale(1,1)"><g><path fill="none" stroke="none"/><text fill="#000000" font-family="Arial" font-size="13px" font-style="normal" font-weight="normal" stroke="none" text-decoration="none" x="377.28271484375" y="55.5">«Control»</text></g></g><g transform="translate(-6,10) scale(1,1)"><g><path fill="none" stroke="none"/><text fill="#000000" font-family="Arial" font-size="13px" font-style="normal" font-weight="bold" stroke="none" text-decoration="none" x="345.5" y="70.5">: GestoreDiSistema</text></g></g><g transform="translate(-6,10) scale(1,1)"><path d="M 406.5 80 L 406.5 1434" fill="none" stroke="#000000" stroke-dasharray="3" stroke-miterlimit="10"/></g><g transform="translate(-6,10) scale(1,1)"><path d="M 65.2330184659091 47.3 C 65.2330184659091 43.82060576 68.11142018809092 41 71.662109375 41 C 75.21279856190908 41 78.0912002840909 43.82060576 78.0912002840909 47.3 C 78.0912002840909 50.779394239999995 75.21279856190908 53.6 71.662109375 53.6 C 68.11142018809092 53.6 65.2330184659091 50.779394239999995 65.2330184659091 47.3 Z" fill="#ffffff" stroke="none"/></g><g transform="translate(-6,10) scale(1,1)"><path d="M 65.2330184659091 47.3 C 65.2330184659091 43.82060576 68.11142018809092 41 71.662109375 41 C 75.21279856190908 41 78.0912002840909 43.82060576 78.0912002840909 47.3 C 78.0912002840909 50.779394239999995 75.21279856190908 53.6 71.662109375 53.6 C 68.11142018809092 53.6 65.2330184659091 50.779394239999995 65.2330184659091 47.3 Z" fill="none" stroke="#000000" stroke-miterlimit="10"/></g><g transform="translate(-6,10) scale(1,1)"><path d="M 71.662109375 53.6 L 71.662109375 66.4" fill="none" stroke="#000000" stroke-miterlimit="10"/></g><g transform="translate(-6,10) scale(1,1)"><path d="M 64.85483664772727 58.4 L 78.46938210227273 58.4" fill="none" stroke="#000000" stroke-miterlimit="10"/></g><g transform="translate(-6,10) scale(1,1)"><path d="M 71.662109375 66.4 L 62.20756392045455 79" fill="none" stroke="#000000" stroke-miterlimit="10"/></g><g transform="translate(-6,10) scale(1,1)"><path d="M 71.662109375 66.4 L 81.11665482954545 79" fill="none" stroke="#000000" stroke-miterlimit="10"/></g><g transform="translate(-6,10) scale(1,1)"><g><path fill="none" stroke="none"/><text fill="#000000" font-family="Arial" font-size="13px" font-style="normal" font-weight="bold" stroke="none" text-decoration="none" x="46.8681640625" y="97.5">: Tempo</text></g></g><g transform="translate(-6,10) scale(1,1)"><path d="M 72.5 105 L 72.5 1104" fill="none" stroke="#000000" stroke-dasharray="3" stroke-miterlimit="10"/></g><g transform="translate(-6,10) scale(1,1)"><path d="M 1190.734483309659 47.3 C 1190.734483309659 43.82060576 1193.612885031841 41 1197.16357421875 41 C 1200.714263405659 41 1203.592665127841 43.82060576 1203.592665127841 47.3 C 1203.592665127841 50.779394239999995 1200.714263405659 53.6 1197.16357421875 53.6 C 1193.612885031841 53.6 1190.734483309659 50.779394239999995 1190.734483309659 47.3 Z" fill="#ffffff" stroke="none"/></g><g transform="translate(-6,10) scale(1,1)"><path d="M 1190.734483309659 47.3 C 1190.734483309659 43.82060576 1193.612885031841 41 1197.16357421875 41 C 1200.714263405659 41 1203.592665127841 43.82060576 1203.592665127841 47.3 C 1203.592665127841 50.779394239999995 1200.714263405659 53.6 1197.16357421875 53.6 C 1193.612885031841 53.6 1190.734483309659 50.779394239999995 1190.734483309659 47.3 Z" fill="none" stroke="#000000" stroke-miterlimit="10"/></g><g transform="translate(-6,10) scale(1,1)"><path d="M 1197.16357421875 53.6 L 1197.16357421875 66.4" fill="none" stroke="#000000" stroke-miterlimit="10"/></g><g transform="translate(-6,10) scale(1,1)"><path d="M 1190.3563014914773 58.4 L 1203.9708469460227 58.4" fill="none" stroke="#000000" stroke-miterlimit="10"/></g><g transform="translate(-6,10) scale(1,1)"><path d="M 1197.16357421875 66.4 L 1187.7090287642045 79" fill="none" stroke="#000000" stroke-miterlimit="10"/></g><g transform="translate(-6,10) scale(1,1)"><path d="M 1197.16357421875 66.4 L 1206.6181196732955 79" fill="none" stroke="#000000" stroke-miterlimit="10"/></g><g transform="translate(-6,10) scale(1,1)"><g><path fill="none" stroke="none"/><text fill="#000000" font-family="Arial" font-size="13px" font-style="normal" font-weight="bold" stroke="none" text-decoration="none" x="1158.8681640625" y="97.5">: Farmacista</text></g></g><g transform="translate(-6,10) scale(1,1)"><path d="M 1198.5 105 L 1198.5 1368" fill="none" stroke="#000000" stroke-dasharray="3" stroke-miterlimit="10"/></g><g transform="translate(-6,10) scale(1,1)"><rect fill="#C0C0C0" height="39" opacity="0.2" stroke="none" width="150.47265625" x="151" y="47"/></g><g transform="translate(-6,10) scale(1,1)"><rect fill="#ffffff" height="39" stroke="none" width="150.47265625" x="144" y="40"/></g><g transform="translate(-6,10) scale(1,1)"><path d="M 144 40 L 294.47265625 40 L 294.47265625 79 L 144 79 L 144 40 Z Z" fill="none" stroke="#000000" stroke-miterlimit="10"/></g><g transform="translate(-6,10) scale(1,1)"><g><path fill="none" stroke="none"/><text fill="#000000" font-family="Arial" font-size="13px" font-style="normal" font-weight="normal" stroke="none" text-decoration="none" x="184.181396484375" y="55.5">«Boundary»</text></g></g><g transform="translate(-6,10) scale(1,1)"><g><path fill="none" stroke="none"/><text fill="#000000" font-family="Arial" font-size="13px" font-style="normal" font-weight="bold" stroke="none" text-decoration="none" x="153.5" y="70.5">: BoundaryDiSistema</text></g></g><g transform="translate(-6,10) scale(1,1)"><path d="M 220.5 80 L 220.5 346" fill="none" stroke="#000000" stroke-dasharray="3" stroke-miterlimit="10"/></g><g transform="translate(-6,10) scale(1,1)"><rect fill="#C0C0C0" height="39" opacity="0.2" stroke="none" width="108.5654296875" x="607" y="47"/></g><g transform="translate(-6,10) scale(1,1)"><rect fill="#ffffff" height="39" stroke="none" width="108.5654296875" x="600" y="40"/></g><g transform="translate(-6,10) scale(1,1)"><path d="M 600 40 L 708.5654296875 40 L 708.5654296875 79 L 600 79 L 600 40 Z Z" fill="none" stroke="#000000" stroke-miterlimit="10"/></g><g transform="translate(-6,10) scale(1,1)"><g><path fill="none" stroke="none"/><text fill="#000000" font-family="Arial" font-size="13px" font-style="normal" font-weight="normal" stroke="none" text-decoration="none" x="619.227783203125" y="55.5">«Boundary»</text></g></g><g transform="translate(-6,10) scale(1,1)"><g><path fill="none" stroke="none"/><text fill="#000000" font-family="Arial" font-size="13px" font-style="normal" font-weight="bold" stroke="none" text-decoration="none" x="609.5" y="70.5">DBMSDaemon</text></g></g><g transform="translate(-6,10) scale(1,1)"><path d="M 655.5 80 L 655.5 1458" fill="none" stroke="#000000" stroke-dasharray="3" stroke-miterlimit="10"/></g><g transform="translate(-6,10) scale(1,1)"><path d="M 845.899034090909 47.3 C 845.899034090909 43.82060576 848.777435813091 41 852.328125 41 C 855.878814186909 41 858.7572159090909 43.82060576 858.7572159090909 47.3 C 858.7572159090909 50.779394239999995 855.878814186909 53.6 852.328125 53.6 C 848.777435813091 53.6 845.899034090909 50.779394239999995 845.899034090909 47.3 Z" fill="#ffffff" stroke="none"/></g><g transform="translate(-6,10) scale(1,1)"><path d="M 845.899034090909 47.3 C 845.899034090909 43.82060576 848.777435813091 41 852.328125 41 C 855.878814186909 41 858.7572159090909 43.82060576 858.7572159090909 47.3 C 858.7572159090909 50.779394239999995 855.878814186909 53.6 852.328125 53.6 C 848.777435813091 53.6 845.899034090909 50.779394239999995 845.899034090909 47.3 Z" fill="none" stroke="#000000" stroke-miterlimit="10"/></g><g transform="translate(-6,10) scale(1,1)"><path d="M 852.328125 53.6 L 852.328125 66.4" fill="none" stroke="#000000" stroke-miterlimit="10"/></g><g transform="translate(-6,10) scale(1,1)"><path d="M 845.5208522727272 58.4 L 859.1353977272727 58.4" fill="none" stroke="#000000" stroke-miterlimit="10"/></g><g transform="translate(-6,10) scale(1,1)"><path d="M 852.328125 66.4 L 842.8735795454545 79" fill="none" stroke="#000000" stroke-miterlimit="10"/></g><g transform="translate(-6,10) scale(1,1)"><path d="M 852.328125 66.4 L 861.7826704545454 79" fill="none" stroke="#000000" stroke-miterlimit="10"/></g><g transform="translate(-6,10) scale(1,1)"><g><path fill="none" stroke="none"/><text fill="#000000" font-family="Arial" font-size="13px" font-style="normal" font-weight="bold" stroke="none" text-decoration="none" x="798.8681640625" y="97.5">: DBMS Farmacie</text></g></g><g transform="translate(-6,10) scale(1,1)"><path d="M 853.5 105 L 853.5 1456" fill="none" stroke="#000000" stroke-dasharray="3" stroke-miterlimit="10"/></g><g transform="translate(-6,10) scale(1,1)"><path d="M 1050.274522372159 47.3 C 1050.274522372159 43.82060576 1053.152924094341 41 1056.70361328125 41 C 1060.254302468159 41 1063.132704190341 43.82060576 1063.132704190341 47.3 C 1063.132704190341 50.779394239999995 1060.254302468159 53.6 1056.70361328125 53.6 C 1053.152924094341 53.6 1050.274522372159 50.779394239999995 1050.274522372159 47.3 Z" fill="#ffffff" stroke="none"/></g><g transform="translate(-6,10) scale(1,1)"><path d="M 1050.274522372159 47.3 C 1050.274522372159 43.82060576 1053.152924094341 41 1056.70361328125 41 C 1060.254302468159 41 1063.132704190341 43.82060576 1063.132704190341 47.3 C 1063.132704190341 50.779394239999995 1060.254302468159 53.6 1056.70361328125 53.6 C 1053.152924094341 53.6 1050.274522372159 50.779394239999995 1050.274522372159 47.3 Z" fill="none" stroke="#000000" stroke-miterlimit="10"/></g><g transform="translate(-6,10) scale(1,1)"><path d="M 1056.70361328125 53.6 L 1056.70361328125 66.4" fill="none" stroke="#000000" stroke-miterlimit="10"/></g><g transform="translate(-6,10) scale(1,1)"><path d="M 1049.8963405539773 58.4 L 1063.5108860085227 58.4" fill="none" stroke="#000000" stroke-miterlimit="10"/></g><g transform="translate(-6,10) scale(1,1)"><path d="M 1056.70361328125 66.4 L 1047.2490678267045 79" fill="none" stroke="#000000" stroke-miterlimit="10"/></g><g transform="translate(-6,10) scale(1,1)"><path d="M 1056.70361328125 66.4 L 1066.1581587357955 79" fill="none" stroke="#000000" stroke-miterlimit="10"/></g><g transform="translate(-6,10) scale(1,1)"><g><path fill="none" stroke="none"/><text fill="#000000" font-family="Arial" font-size="13px" font-style="normal" font-weight="bold" stroke="none" text-decoration="none" x="1006.8681640625" y="97.5">: DBMS Azienda</text></g></g><g transform="translate(-6,10) scale(1,1)"><path d="M 1057.5 105 L 1057.5 1442" fill="none" stroke="#000000" stroke-dasharray="3" stroke-miterlimit="10"/></g><g transform="translate(-6,10) scale(1,1)"><rect fill="#C0C0C0" height="39" opacity="0.2" stroke="none" width="87.6181640625" x="215" y="363"/></g><g transform="translate(-6,10) scale(1,1)"><rect fill="#ffffff" height="39" stroke="none" width="87.6181640625" x="208" y="356"/></g><g transform="translate(-6,10) scale(1,1)"><path d="M 208 356 L 295.6181640625 356 L 295.6181640625 395 L 208 395 L 208 356 Z Z" fill="none" stroke="#000000" stroke-miterlimit="10"/></g><g transform="translate(-6,10) scale(1,1)"><g><path fill="none" stroke="none"/><text fill="#000000" font-family="Arial" font-size="13px" font-style="normal" font-weight="bold" stroke="none" text-decoration="none" x="217.5" y="373.5">ListaOrdini</text></g></g><g transform="translate(-6,10) scale(1,1)"><path d="M 252.5 396 L 252.5 472" fill="none" stroke="#000000" stroke-dasharray="3" stroke-miterlimit="10"/></g><g transform="translate(-6,10) scale(1,1)"><rect fill="#C0C0C0" height="39" opacity="0.2" stroke="none" width="107.88623046875" x="231" y="499"/></g><g transform="translate(-6,10) scale(1,1)"><rect fill="#ffffff" height="39" stroke="none" width="107.88623046875" x="224" y="492"/></g><g transform="translate(-6,10) scale(1,1)"><path d="M 224 492 L 331.88623046875 492 L 331.88623046875 531 L 224 531 L 224 492 Z Z" fill="none" stroke="#000000" stroke-miterlimit="10"/></g><g transform="translate(-6,10) scale(1,1)"><g><path fill="none" stroke="none"/><text fill="#000000" font-family="Arial" font-size="13px" font-style="normal" font-weight="bold" stroke="none" text-decoration="none" x="233.5" y="509.5">MerceCaricata</text></g></g><g transform="translate(-6,10) scale(1,1)"><path d="M 278.5 532 L 278.5 584" fill="none" stroke="#000000" stroke-dasharray="3" stroke-miterlimit="10"/></g><g transform="translate(-6,10) scale(1,1)"><rect fill="#C0C0C0" height="39" opacity="0.2" stroke="none" width="254.74560546875" x="447" y="699"/></g><g transform="translate(-6,10) scale(1,1)"><rect fill="#ffffff" height="39" stroke="none" width="254.74560546875" x="440" y="692"/></g><g transform="translate(-6,10) scale(1,1)"><path d="M 440 692 L 694.74560546875 692 L 694.74560546875 731 L 440 731 L 440 692 Z Z" fill="none" stroke="#000000" stroke-miterlimit="10"/></g><g transform="translate(-6,10) scale(1,1)"><g><path fill="none" stroke="none"/><text fill="#000000" font-family="Arial" font-size="13px" font-style="normal" font-weight="normal" stroke="none" text-decoration="none" x="532.31787109375" y="707.5">«Boundary»</text></g></g><g transform="translate(-6,10) scale(1,1)"><g><path fill="none" stroke="none"/><text fill="#000000" font-family="Arial" font-size="13px" font-style="normal" font-weight="bold" stroke="none" text-decoration="none" x="449.5" y="722.5">: PannelloAvvisoMancatoCaricamento</text></g></g><g transform="translate(-6,10) scale(1,1)"><path d="M 568.5 732 L 568.5 882" fill="none" stroke="#000000" stroke-dasharray="3" stroke-miterlimit="10"/></g><g transform="translate(-6,10) scale(1,1)"><rect fill="#C0C0C0" height="39" opacity="0.2" stroke="none" width="87.38330078125" x="287" y="875"/></g><g transform="translate(-6,10) scale(1,1)"><rect fill="#ffffff" height="39" stroke="none" width="87.38330078125" x="280" y="868"/></g><g transform="translate(-6,10) scale(1,1)"><path d="M 280 868 L 367.38330078125 868 L 367.38330078125 907 L 280 907 L 280 868 Z Z" fill="none" stroke="#000000" stroke-miterlimit="10"/></g><g transform="translate(-6,10) scale(1,1)"><g><path fill="none" stroke="none"/><text fill="#000000" font-family="Arial" font-size="13px" font-style="normal" font-weight="bold" stroke="none" text-decoration="none" x="289.5" y="885.5">InizioTimer</text></g></g><g transform="translate(-6,10) scale(1,1)"><path d="M 324.5 908 L 324.5 957" fill="none" stroke="#000000" stroke-dasharray="3" stroke-miterlimit="10"/></g><g transform="translate(-6,10) scale(1,1)"><path d="M 1198 824 L 574 824" fill="none" stroke="#000000" stroke-miterlimit="10"/></g><g transform="translate(-6,10) scale(1,1)"><path d="M 584.1626748576241 819.790482243984 L 574 824 L 584.1626748576241 828.209517756016" fill="#000000" stroke="none"/></g><g transform="translate(-6,10) scale(1,1)"><path d="M 584.1626748576241 819.790482243984 L 574 824 L 584.1626748576241 828.209517756016 L 584.1626748576241 819.790482243984" fill="none" stroke="#000000" stroke-miterlimit="10"/></g><g transform="translate(-6,10) scale(1,1)"><path d="M 558 872 L 578 892" fill="none" stroke="#000000" stroke-miterlimit="10"/></g><g transform="translate(-6,10) scale(1,1)"><path d="M 578 872 L 558 892" fill="none" stroke="#000000" stroke-miterlimit="10"/></g><g transform="translate(-6,10) scale(1,1)"><g><path fill="none" stroke="none"/><text fill="#000000" font-family="Arial" font-size="13px" font-style="normal" font-weight="normal" stroke="none" text-decoration="none" x="845.5" y="838.5">18 : conferma</text></g></g><g transform="translate(-6,10) scale(1,1)"><g><path fill="none" stroke="none"/><text fill="#000000" font-family="Arial" font-size="13px" font-style="normal" font-weight="normal" stroke="none" text-decoration="none" x="856.5" y="853.5">«destroy»</text></g></g><g transform="translate(-6,10) scale(1,1)"><rect fill="#ffffff" height="28" stroke="none" width="13" x="561" y="824"/></g><g transform="translate(-6,10) scale(1,1)"><path d="M 561 824 L 574 824 L 574 852 L 561 852 L 561 824 Z Z" fill="none" stroke="#000000" stroke-miterlimit="10"/></g><g transform="translate(-6,10) scale(1,1)"><path d="M 406 712 L 440 712" fill="none" stroke="#000000" stroke-dasharray="3" stroke-miterlimit="10"/></g><g transform="translate(-6,10) scale(1,1)"><path d="M 429.83732514237585 716.209517756016 L 440 712 L 429.83732514237585 707.790482243984" fill="none" stroke="#000000" stroke-miterlimit="10"/></g><g transform="translate(-6,10) scale(1,1)"><g><path fill="none" stroke="none"/><text fill="#000000" font-family="Arial" font-size="13px" font-style="normal" font-weight="normal" stroke="none" text-decoration="none" x="410.5" y="706.5">17 : </text></g></g><g transform="translate(-6,10) scale(1,1)"><g><path fill="none" stroke="none"/><text fill="#000000" font-family="Arial" font-size="13px" font-style="normal" font-weight="normal" stroke="none" text-decoration="none" x="397.5" y="691.5">«create»</text></g></g><g transform="translate(-6,10) scale(1,1)"><path d="M 561 840 L 412 840" fill="none" stroke="#000000" stroke-miterlimit="10"/></g><g transform="translate(-6,10) scale(1,1)"><path d="M 422.16267485762415 835.790482243984 L 412 840 L 422.16267485762415 844.209517756016" fill="#000000" stroke="none"/></g><g transform="translate(-6,10) scale(1,1)"><path d="M 422.16267485762415 835.790482243984 L 412 840 L 422.16267485762415 844.209517756016 L 422.16267485762415 835.790482243984" fill="none" stroke="#000000" stroke-miterlimit="10"/></g><g transform="translate(-6,10) scale(1,1)"><g><path fill="none" stroke="none"/><text fill="#000000" font-family="Arial" font-size="13px" font-style="normal" font-weight="normal" stroke="none" text-decoration="none" x="441.5" y="854.5">19 : iniziaTimer</text></g></g><g transform="translate(-6,10) scale(1,1)"><rect fill="#ffffff" height="28" stroke="none" width="13" x="399" y="840"/></g><g transform="translate(-6,10) scale(1,1)"><path d="M 399 840 L 412 840 L 412 868 L 399 868 L 399 840 Z Z" fill="none" stroke="#000000" stroke-miterlimit="10"/></g><g transform="translate(-6,10) scale(1,1)"><path d="M 406 888 L 367.38330078125 888" fill="none" stroke="#000000" stroke-dasharray="3" stroke-miterlimit="10"/></g><g transform="translate(-6,10) scale(1,1)"><path d="M 377.54597563887415 883.790482243984 L 367.38330078125 888 L 377.54597563887415 892.209517756016" fill="none" stroke="#000000" stroke-miterlimit="10"/></g><g transform="translate(-6,10) scale(1,1)"><g><path fill="none" stroke="none"/><text fill="#000000" font-family="Arial" font-size="13px" font-style="normal" font-weight="normal" stroke="none" text-decoration="none" x="372.5" y="902.5">20 : </text></g></g><g transform="translate(-6,10) scale(1,1)"><g><path fill="none" stroke="none"/><text fill="#000000" font-family="Arial" font-size="13px" font-style="normal" font-weight="normal" stroke="none" text-decoration="none" x="359.5" y="917.5">«create»</text></g></g><g transform="translate(-6,10) scale(1,1)"><path d="M 406 1156 L 648 1156" fill="none" stroke="#000000" stroke-miterlimit="10"/></g><g transform="translate(-6,10) scale(1,1)"><path d="M 637.8373251423759 1160.2095177560159 L 648 1156 L 637.8373251423758 1151.7904822439841" fill="#000000" stroke="none"/></g><g transform="translate(-6,10) scale(1,1)"><path d="M 637.8373251423759 1160.2095177560159 L 648 1156 L 637.8373251423758 1151.7904822439841 L 637.8373251423759 1160.2095177560159" fill="none" stroke="#000000" stroke-miterlimit="10"/></g><g transform="translate(-6,10) scale(1,1)"><g><path fill="none" stroke="none"/><text fill="#000000" font-family="Arial" font-size="13px" font-style="normal" font-weight="normal" stroke="none" text-decoration="none" x="455.5" y="1150.5">21 : chiediMerceCaricata</text></g></g><g transform="translate(-6,10) scale(1,1)"><rect fill="#ffffff" height="28" stroke="none" width="13" x="648" y="1156"/></g><g transform="translate(-6,10) scale(1,1)"><path d="M 648 1156 L 661 1156 L 661 1184 L 648 1184 L 648 1156 Z Z" fill="none" stroke="#000000" stroke-miterlimit="10"/></g><g transform="translate(-6,10) scale(1,1)"><path d="M 661 1176 L 846 1176" fill="none" stroke="#000000" stroke-miterlimit="10"/></g><g transform="translate(-6,10) scale(1,1)"><path d="M 835.8373251423759 1180.2095177560159 L 846 1176 L 835.8373251423758 1171.7904822439841" fill="#000000" stroke="none"/></g><g transform="translate(-6,10) scale(1,1)"><path d="M 835.8373251423759 1180.2095177560159 L 846 1176 L 835.8373251423758 1171.7904822439841 L 835.8373251423759 1180.2095177560159" fill="none" stroke="#000000" stroke-miterlimit="10"/></g><g transform="translate(-6,10) scale(1,1)"><g><path fill="none" stroke="none"/><text fill="#000000" font-family="Arial" font-size="13px" font-style="normal" font-weight="normal" stroke="none" text-decoration="none" x="681.5" y="1170.5">22 : chiediMerceCaricata</text></g></g><g transform="translate(-6,10) scale(1,1)"><rect fill="#ffffff" height="28" stroke="none" width="13" x="846" y="1176"/></g><g transform="translate(-6,10) scale(1,1)"><path d="M 846 1176 L 859 1176 L 859 1204 L 846 1204 L 846 1176 Z Z" fill="none" stroke="#000000" stroke-miterlimit="10"/></g><g transform="translate(-6,10) scale(1,1)"><path d="M 72 112 L 213 112" fill="none" stroke="#000000" stroke-miterlimit="10"/></g><g transform="translate(-6,10) scale(1,1)"><path d="M 202.83732514237585 116.20951775601598 L 213 112 L 202.83732514237585 107.79048224398402" fill="#000000" stroke="none"/></g><g transform="translate(-6,10) scale(1,1)"><path d="M 202.83732514237585 116.20951775601598 L 213 112 L 202.83732514237585 107.79048224398402 L 202.83732514237585 116.20951775601598" fill="none" stroke="#000000" stroke-miterlimit="10"/></g><g transform="translate(-6,10) scale(1,1)"><g><path fill="none" stroke="none"/><text fill="#000000" font-family="Arial" font-size="13px" font-style="normal" font-weight="normal" stroke="none" text-decoration="none" x="96.5" y="106.5">1 : chiediTempo</text></g></g><g transform="translate(-6,10) scale(1,1)"><rect fill="#ffffff" height="31" stroke="none" width="13" x="213" y="112"/></g><g transform="translate(-6,10) scale(1,1)"><path d="M 213 112 L 226 112 L 226 143 L 213 143 L 213 112 Z Z" fill="none" stroke="#000000" stroke-miterlimit="10"/></g><g transform="translate(-6,10) scale(1,1)"><path d="M 226 128 L 399 128" fill="none" stroke="#000000" stroke-miterlimit="10"/></g><g transform="translate(-6,10) scale(1,1)"><path d="M 388.83732514237585 132.209517756016 L 399 128 L 388.83732514237585 123.79048224398402" fill="#000000" stroke="none"/></g><g transform="translate(-6,10) scale(1,1)"><path d="M 388.83732514237585 132.209517756016 L 399 128 L 388.83732514237585 123.79048224398402 L 388.83732514237585 132.209517756016" fill="none" stroke="#000000" stroke-miterlimit="10"/></g><g transform="translate(-6,10) scale(1,1)"><g><path fill="none" stroke="none"/><text fill="#000000" font-family="Arial" font-size="13px" font-style="normal" font-weight="normal" stroke="none" text-decoration="none" x="266.5" y="122.5">2 : chiediTempo</text></g></g><g transform="translate(-6,10) scale(1,1)"><rect fill="#ffffff" height="28" stroke="none" width="13" x="399" y="128"/></g><g transform="translate(-6,10) scale(1,1)"><path d="M 399 128 L 412 128 L 412 156 L 399 156 L 399 128 Z Z" fill="none" stroke="#000000" stroke-miterlimit="10"/></g><g transform="translate(-6,10) scale(1,1)"><path d="M 406 160 L 436 160 L 436 180 L 412 180" fill="none" stroke="#000000" stroke-miterlimit="10"/></g><g transform="translate(-6,10) scale(1,1)"><path d="M 422.16267485762415 175.790482243984 L 412 180 L 422.16267485762415 184.209517756016" fill="#000000" stroke="none"/></g><g transform="translate(-6,10) scale(1,1)"><path d="M 422.16267485762415 175.790482243984 L 412 180 L 422.16267485762415 184.209517756016 L 422.16267485762415 175.790482243984" fill="none" stroke="#000000" stroke-miterlimit="10"/></g><g transform="translate(-6,10) scale(1,1)"><g><path fill="none" stroke="none"/><text fill="#000000" font-family="Arial" font-size="13px" font-style="normal" font-weight="normal" stroke="none" text-decoration="none" x="393.5" y="173.5">3 : controllaOrario</text></g></g><g transform="translate(-6,10) scale(1,1)"><rect fill="#ffffff" height="28" stroke="none" width="13" x="399" y="180"/></g><g transform="translate(-6,10) scale(1,1)"><path d="M 399 180 L 412 180 L 412 208 L 399 208 L 399 180 Z Z" fill="none" stroke="#000000" stroke-miterlimit="10"/></g><g transform="translate(-6,10) scale(1,1)"><path d="M 72 280 L 213 280" fill="none" stroke="#000000" stroke-miterlimit="10"/></g><g transform="translate(-6,10) scale(1,1)"><path d="M 202.83732514237585 284.209517756016 L 213 280 L 202.83732514237585 275.790482243984" fill="#000000" stroke="none"/></g><g transform="translate(-6,10) scale(1,1)"><path d="M 202.83732514237585 284.209517756016 L 213 280 L 202.83732514237585 275.790482243984 L 202.83732514237585 284.209517756016" fill="none" stroke="#000000" stroke-miterlimit="10"/></g><g transform="translate(-6,10) scale(1,1)"><g><path fill="none" stroke="none"/><text fill="#000000" font-family="Arial" font-size="13px" font-style="normal" font-weight="normal" stroke="none" text-decoration="none" x="70.5" y="274.5">4 : chiediConfrontoOrdini</text></g></g><g transform="translate(-6,10) scale(1,1)"><rect fill="#ffffff" height="28" stroke="none" width="13" x="213" y="280"/></g><g transform="translate(-6,10) scale(1,1)"><path d="M 213 280 L 226 280 L 226 308 L 213 308 L 213 280 Z Z" fill="none" stroke="#000000" stroke-miterlimit="10"/></g><g transform="translate(-6,10) scale(1,1)"><path d="M 226 304 L 399 304" fill="none" stroke="#000000" stroke-miterlimit="10"/></g><g transform="translate(-6,10) scale(1,1)"><path d="M 388.83732514237585 308.209517756016 L 399 304 L 388.83732514237585 299.790482243984" fill="#000000" stroke="none"/></g><g transform="translate(-6,10) scale(1,1)"><path d="M 388.83732514237585 308.209517756016 L 399 304 L 388.83732514237585 299.790482243984 L 388.83732514237585 308.209517756016" fill="none" stroke="#000000" stroke-miterlimit="10"/></g><g transform="translate(-6,10) scale(1,1)"><g><path fill="none" stroke="none"/><text fill="#000000" font-family="Arial" font-size="13px" font-style="normal" font-weight="normal" stroke="none" text-decoration="none" x="240.5" y="298.5">5 : chiediConfrontoOrdini</text></g></g><g transform="translate(-6,10) scale(1,1)"><rect fill="#ffffff" height="28" stroke="none" width="13" x="399" y="304"/></g><g transform="translate(-6,10) scale(1,1)"><path d="M 399 304 L 412 304 L 412 332 L 399 332 L 399 304 Z Z" fill="none" stroke="#000000" stroke-miterlimit="10"/></g><g transform="translate(-6,10) scale(1,1)"><path d="M 412 320 L 648 320" fill="none" stroke="#000000" stroke-miterlimit="10"/></g><g transform="translate(-6,10) scale(1,1)"><path d="M 637.8373251423759 324.209517756016 L 648 320 L 637.8373251423758 315.790482243984" fill="#000000" stroke="none"/></g><g transform="translate(-6,10) scale(1,1)"><path d="M 637.8373251423759 324.209517756016 L 648 320 L 637.8373251423758 315.790482243984 L 637.8373251423759 324.209517756016" fill="none" stroke="#000000" stroke-miterlimit="10"/></g><g transform="translate(-6,10) scale(1,1)"><g><path fill="none" stroke="none"/><text fill="#000000" font-family="Arial" font-size="13px" font-style="normal" font-weight="normal" stroke="none" text-decoration="none" x="486.5" y="314.5">6 : chiediOrdini</text></g></g><g transform="translate(-6,10) scale(1,1)"><rect fill="#ffffff" height="28" stroke="none" width="13" x="648" y="320"/></g><g transform="translate(-6,10) scale(1,1)"><path d="M 648 320 L 661 320 L 661 348 L 648 348 L 648 320 Z Z" fill="none" stroke="#000000" stroke-miterlimit="10"/></g><g transform="translate(-6,10) scale(1,1)"><path d="M 661 336 L 1050 336" fill="none" stroke="#000000" stroke-miterlimit="10"/></g><g transform="translate(-6,10) scale(1,1)"><path d="M 1039.837325142376 340.209517756016 L 1050 336 L 1039.837325142376 331.790482243984" fill="#000000" stroke="none"/></g><g transform="translate(-6,10) scale(1,1)"><path d="M 1039.837325142376 340.209517756016 L 1050 336 L 1039.837325142376 331.790482243984 L 1039.837325142376 340.209517756016" fill="none" stroke="#000000" stroke-miterlimit="10"/></g><g transform="translate(-6,10) scale(1,1)"><g><path fill="none" stroke="none"/><text fill="#000000" font-family="Arial" font-size="13px" font-style="normal" font-weight="normal" stroke="none" text-decoration="none" x="812.5" y="330.5">7 : queryOrdini</text></g></g><g transform="translate(-6,10) scale(1,1)"><rect fill="#ffffff" height="28" stroke="none" width="13" x="1050" y="336"/></g><g transform="translate(-6,10) scale(1,1)"><path d="M 1050 336 L 1063 336 L 1063 364 L 1050 364 L 1050 336 Z Z" fill="none" stroke="#000000" stroke-miterlimit="10"/></g><g transform="translate(-6,10) scale(1,1)"><path d="M 1050 362 L 655 362" fill="none" stroke="#000000" stroke-dasharray="3" stroke-miterlimit="10"/></g><g transform="translate(-6,10) scale(1,1)"><path d="M 665.1626748576241 357.790482243984 L 655 362 L 665.1626748576241 366.209517756016" fill="none" stroke="#000000" stroke-miterlimit="10"/></g><g transform="translate(-6,10) scale(1,1)"><g><path fill="none" stroke="none"/><text fill="#000000" font-family="Arial" font-size="13px" font-style="normal" font-weight="normal" stroke="none" text-decoration="none" x="826.5" y="376.5">8 : ordini</text></g></g><g transform="translate(-6,10) scale(1,1)"><path d="M 655 368 L 406 368" fill="none" stroke="#000000" stroke-dasharray="3" stroke-miterlimit="10"/></g><g transform="translate(-6,10) scale(1,1)"><path d="M 416.16267485762415 363.790482243984 L 406 368 L 416.16267485762415 372.209517756016" fill="none" stroke="#000000" stroke-miterlimit="10"/></g><g transform="translate(-6,10) scale(1,1)"><g><path fill="none" stroke="none"/><text fill="#000000" font-family="Arial" font-size="13px" font-style="normal" font-weight="normal" stroke="none" text-decoration="none" x="504.114990234375" y="382.5">9 : ordini</text></g></g><g transform="translate(-6,10) scale(1,1)"><path d="M 406 376 L 295.6181640625 376" fill="none" stroke="#000000" stroke-dasharray="3" stroke-miterlimit="10"/></g><g transform="translate(-6,10) scale(1,1)"><path d="M 305.78083892012415 371.790482243984 L 295.6181640625 376 L 305.78083892012415 380.209517756016" fill="none" stroke="#000000" stroke-miterlimit="10"/></g><g transform="translate(-6,10) scale(1,1)"><g><path fill="none" stroke="none"/><text fill="#000000" font-family="Arial" font-size="13px" font-style="normal" font-weight="normal" stroke="none" text-decoration="none" x="336.5" y="390.5">10 : </text></g></g><g transform="translate(-6,10) scale(1,1)"><g><path fill="none" stroke="none"/><text fill="#000000" font-family="Arial" font-size="13px" font-style="normal" font-weight="normal" stroke="none" text-decoration="none" x="323.5" y="405.5">«create»</text></g></g><g transform="translate(-6,10) scale(1,1)"><path d="M 406 408 L 648 408" fill="none" stroke="#000000" stroke-miterlimit="10"/></g><g transform="translate(-6,10) scale(1,1)"><path d="M 637.8373251423759 412.209517756016 L 648 408 L 637.8373251423758 403.790482243984" fill="#000000" stroke="none"/></g><g transform="translate(-6,10) scale(1,1)"><path d="M 637.8373251423759 412.209517756016 L 648 408 L 637.8373251423758 403.790482243984 L 637.8373251423759 412.209517756016" fill="none" stroke="#000000" stroke-miterlimit="10"/></g><g transform="translate(-6,10) scale(1,1)"><g><path fill="none" stroke="none"/><text fill="#000000" font-family="Arial" font-size="13px" font-style="normal" font-weight="normal" stroke="none" text-decoration="none" x="455.982421875" y="402.5">11 : chiediMerceCaricata</text></g></g><g transform="translate(-6,10) scale(1,1)"><rect fill="#ffffff" height="28" stroke="none" width="13" x="648" y="408"/></g><g transform="translate(-6,10) scale(1,1)"><path d="M 648 408 L 661 408 L 661 436 L 648 436 L 648 408 Z Z" fill="none" stroke="#000000" stroke-miterlimit="10"/></g><g transform="translate(-6,10) scale(1,1)"><path d="M 655 448 L 846 448" fill="none" stroke="#000000" stroke-miterlimit="10"/></g><g transform="translate(-6,10) scale(1,1)"><path d="M 835.8373251423759 452.209517756016 L 846 448 L 835.8373251423758 443.790482243984" fill="#000000" stroke="none"/></g><g transform="translate(-6,10) scale(1,1)"><path d="M 835.8373251423759 452.209517756016 L 846 448 L 835.8373251423758 443.790482243984 L 835.8373251423759 452.209517756016" fill="none" stroke="#000000" stroke-miterlimit="10"/></g><g transform="translate(-6,10) scale(1,1)"><g><path fill="none" stroke="none"/><text fill="#000000" font-family="Arial" font-size="13px" font-style="normal" font-weight="normal" stroke="none" text-decoration="none" x="678.5" y="442.5">12 : queryMerceCaricata</text></g></g><g transform="translate(-6,10) scale(1,1)"><rect fill="#ffffff" height="28" stroke="none" width="13" x="846" y="448"/></g><g transform="translate(-6,10) scale(1,1)"><path d="M 846 448 L 859 448 L 859 476 L 846 476 L 846 448 Z Z" fill="none" stroke="#000000" stroke-miterlimit="10"/></g><g transform="translate(-6,10) scale(1,1)"><path d="M 846 474 L 655 474" fill="none" stroke="#000000" stroke-dasharray="3" stroke-miterlimit="10"/></g><g transform="translate(-6,10) scale(1,1)"><path d="M 665.1626748576241 469.790482243984 L 655 474 L 665.1626748576241 478.209517756016" fill="none" stroke="#000000" stroke-miterlimit="10"/></g><g transform="translate(-6,10) scale(1,1)"><g><path fill="none" stroke="none"/><text fill="#000000" font-family="Arial" font-size="13px" font-style="normal" font-weight="normal" stroke="none" text-decoration="none" x="694.5" y="488.5">13 : merceCaricata</text></g></g><g transform="translate(-6,10) scale(1,1)"><path d="M 655 496 L 406 496" fill="none" stroke="#000000" stroke-dasharray="3" stroke-miterlimit="10"/></g><g transform="translate(-6,10) scale(1,1)"><path d="M 416.16267485762415 491.790482243984 L 406 496 L 416.16267485762415 500.209517756016" fill="none" stroke="#000000" stroke-miterlimit="10"/></g><g transform="translate(-6,10) scale(1,1)"><g><path fill="none" stroke="none"/><text fill="#000000" font-family="Arial" font-size="13px" font-style="normal" font-weight="normal" stroke="none" text-decoration="none" x="474.5" y="489.5">14 : merceCaricata</text></g></g><g transform="translate(-6,10) scale(1,1)"><path d="M 406 512 L 331.88623046875 512" fill="none" stroke="#000000" stroke-dasharray="3" stroke-miterlimit="10"/></g><g transform="translate(-6,10) scale(1,1)"><path d="M 342.04890532637415 507.790482243984 L 331.88623046875 512 L 342.04890532637415 516.209517756016" fill="none" stroke="#000000" stroke-miterlimit="10"/></g><g transform="translate(-6,10) scale(1,1)"><g><path fill="none" stroke="none"/><text fill="#000000" font-family="Arial" font-size="13px" font-style="normal" font-weight="normal" stroke="none" text-decoration="none" x="354.5" y="526.5">15 : </text></g></g><g transform="translate(-6,10) scale(1,1)"><g><path fill="none" stroke="none"/><text fill="#000000" font-family="Arial" font-size="13px" font-style="normal" font-weight="normal" stroke="none" text-decoration="none" x="341.5" y="541.5">«create»</text></g></g><g transform="translate(-6,10) scale(1,1)"><path d="M 406 536 L 436 536 L 436 556 L 412 556" fill="none" stroke="#000000" stroke-miterlimit="10"/></g><g transform="translate(-6,10) scale(1,1)"><path d="M 422.16267485762415 551.790482243984 L 412 556 L 422.16267485762415 560.209517756016" fill="#000000" stroke="none"/></g><g transform="translate(-6,10) scale(1,1)"><path d="M 422.16267485762415 551.790482243984 L 412 556 L 422.16267485762415 560.209517756016 L 422.16267485762415 551.790482243984" fill="none" stroke="#000000" stroke-miterlimit="10"/></g><g transform="translate(-6,10) scale(1,1)"><g><path fill="none" stroke="none"/><text fill="#000000" font-family="Arial" font-size="13px" font-style="normal" font-weight="normal" stroke="none" text-decoration="none" x="369.5" y="549.5">16 : confrontaOrdiniMerce</text></g></g><g transform="translate(-6,10) scale(1,1)"><rect fill="#ffffff" height="28" stroke="none" width="13" x="399" y="556"/></g><g transform="translate(-6,10) scale(1,1)"><path d="M 399 556 L 412 556 L 412 584 L 399 584 L 399 556 Z Z" fill="none" stroke="#000000" stroke-miterlimit="10"/></g><g transform="translate(-6,10) scale(1,1)"><path d="M 846 1200 L 655 1200" fill="none" stroke="#000000" stroke-dasharray="3" stroke-miterlimit="10"/></g><g transform="translate(-6,10) scale(1,1)"><path d="M 665.1626748576241 1195.7904822439841 L 655 1200 L 665.1626748576241 1204.2095177560159" fill="none" stroke="#000000" stroke-miterlimit="10"/></g><g transform="translate(-6,10) scale(1,1)"><g><path fill="none" stroke="none"/><text fill="#000000" font-family="Arial" font-size="13px" font-style="normal" font-weight="normal" stroke="none" text-decoration="none" x="694.5" y="1214.5">23 : merceCaricata</text></g></g><g transform="translate(-6,10) scale(1,1)"><path d="M 655 1216 L 406 1216" fill="none" stroke="#000000" stroke-dasharray="3" stroke-miterlimit="10"/></g><g transform="translate(-6,10) scale(1,1)"><path d="M 416.16267485762415 1211.7904822439841 L 406 1216 L 416.16267485762415 1220.2095177560159" fill="none" stroke="#000000" stroke-miterlimit="10"/></g><g transform="translate(-6,10) scale(1,1)"><g><path fill="none" stroke="none"/><text fill="#000000" font-family="Arial" font-size="13px" font-style="normal" font-weight="normal" stroke="none" text-decoration="none" x="474.5" y="1230.5">24 : merceCaricata</text></g></g><g transform="translate(-6,10) scale(1,1)"><path d="M 406 1376 L 648 1376" fill="none" stroke="#000000" stroke-miterlimit="10"/></g><g transform="translate(-6,10) scale(1,1)"><path d="M 637.8373251423759 1380.2095177560159 L 648 1376 L 637.8373251423758 1371.7904822439841" fill="#000000" stroke="none"/></g><g transform="translate(-6,10) scale(1,1)"><path d="M 637.8373251423759 1380.2095177560159 L 648 1376 L 637.8373251423758 1371.7904822439841 L 637.8373251423759 1380.2095177560159" fill="none" stroke="#000000" stroke-miterlimit="10"/></g><g transform="translate(-6,10) scale(1,1)"><g><path fill="none" stroke="none"/><text fill="#000000" font-family="Arial" font-size="13px" font-style="normal" font-weight="normal" stroke="none" text-decoration="none" x="420.5" y="1370.5">25 : contrassegnaOrdineDaVerificare</text></g></g><g transform="translate(-6,10) scale(1,1)"><rect fill="#ffffff" height="28" stroke="none" width="13" x="648" y="1376"/></g><g transform="translate(-6,10) scale(1,1)"><path d="M 648 1376 L 661 1376 L 661 1404 L 648 1404 L 648 1376 Z Z" fill="none" stroke="#000000" stroke-miterlimit="10"/></g><g transform="translate(-6,10) scale(1,1)"><path d="M 661 1400 L 1050 1400" fill="none" stroke="#000000" stroke-miterlimit="10"/></g><g transform="translate(-6,10) scale(1,1)"><path d="M 1039.837325142376 1404.2095177560159 L 1050 1400 L 1039.837325142376 1395.7904822439841" fill="#000000" stroke="none"/></g><g transform="translate(-6,10) scale(1,1)"><path d="M 1039.837325142376 1404.2095177560159 L 1050 1400 L 1039.837325142376 1395.7904822439841 L 1039.837325142376 1404.2095177560159" fill="none" stroke="#000000" stroke-miterlimit="10"/></g><g transform="translate(-6,10) scale(1,1)"><g><path fill="none" stroke="none"/><text fill="#000000" font-family="Arial" font-size="13px" font-style="normal" font-weight="normal" stroke="none" text-decoration="none" x="748.5" y="1394.5">26 : contrassegnaOrdineDaVerificare</text></g></g><g transform="translate(-6,10) scale(1,1)"><rect fill="#ffffff" height="28" stroke="none" width="13" x="1050" y="1400"/></g><g transform="translate(-6,10) scale(1,1)"><path d="M 1050 1400 L 1063 1400 L 1063 1428 L 1050 1428 L 1050 1400 Z Z" fill="none" stroke="#000000" stroke-miterlimit="10"/></g><g transform="translate(-6,10) scale(1,1)"><path d="M 264 1080 L 1159 1080 L 1159 1503 L 264 1503 L 264 1080" fill="none" stroke="#000000" stroke-miterlimit="10"/></g><g transform="translate(-6,10) scale(1,1)"><path d="M 264 1080 L 264 1102 L 420.18798828125 1102 L 431.18798828125 1091 L 431.18798828125 1080 L 264 1080" fill="#ffffff" stroke="none"/></g><g transform="translate(-6,10) scale(1,1)"><path d="M 264 1080 L 264 1102 L 420.18798828125 1102 L 431.18798828125 1091 L 431.18798828125 1080 L 264 1080 L 264 1080" fill="none" stroke="#000000" stroke-miterlimit="10"/></g><g transform="translate(-6,10) scale(1,1)"><g><path fill="none" stroke="none"/><text fill="#000000" font-family="Arial" font-size="13px" font-style="normal" font-weight="normal" stroke="none" text-decoration="none" x="293.07177734375" y="1095.5">CombinedFragment3</text></g></g><g transform="translate(-6,10) scale(1,1)"><g><path fill="none" stroke="none"/><text fill="#000000" font-family="Arial" font-size="13px" font-style="normal" font-weight="bold" stroke="none" text-decoration="none" x="267.930419921875" y="1095.5">opt</text></g></g><g transform="translate(-6,10) scale(1,1)"><g><path fill="none" stroke="none"/><text fill="#000000" font-family="Arial" font-size="13px" font-style="normal" font-weight="normal" stroke="none" text-decoration="none" x="283.5" y="1128.5">[Sono passati 15 minuti dal inizioTimer ]</text></g></g><g transform="translate(-6,10) scale(1,1)"><path d="M 24 208 L 1320 208 L 1320 968 L 24 968 L 24 208" fill="none" stroke="#000000" stroke-miterlimit="10"/></g><g transform="translate(-6,10) scale(1,1)"><path d="M 24 208 L 24 230 L 146.21533203125 230 L 157.21533203125 219 L 157.21533203125 208 L 24 208" fill="#ffffff" stroke="none"/></g><g transform="translate(-6,10) scale(1,1)"><path d="M 24 208 L 24 230 L 146.21533203125 230 L 157.21533203125 219 L 157.21533203125 208 L 24 208 L 24 208" fill="none" stroke="#000000" stroke-miterlimit="10"/></g><g transform="translate(-6,10) scale(1,1)"><g><path fill="none" stroke="none"/><text fill="#000000" font-family="Arial" font-size="13px" font-style="normal" font-weight="normal" stroke="none" text-decoration="none" x="53.07177734375" y="223.5">ControlloOrario</text></g></g><g transform="translate(-6,10) scale(1,1)"><g><path fill="none" stroke="none"/><text fill="#000000" font-family="Arial" font-size="13px" font-style="normal" font-weight="bold" stroke="none" text-decoration="none" x="27.930419921875" y="223.5">opt</text></g></g><g transform="translate(-6,10) scale(1,1)"><g><path fill="none" stroke="none"/><text fill="#000000" font-family="Arial" font-size="13px" font-style="normal" font-weight="normal" stroke="none" text-decoration="none" x="43.5" y="256.5">[Sono le 20:00]</text></g></g><g transform="translate(-6,10) scale(1,1)"><path d="M 40 592 L 1264 592 L 1264 944 L 40 944 L 40 592" fill="none" stroke="#000000" stroke-miterlimit="10"/></g><g transform="translate(-6,10) scale(1,1)"><path d="M 40 592 L 40 614 L 178.103515625 614 L 189.103515625 603 L 189.103515625 592 L 40 592" fill="#ffffff" stroke="none"/></g><g transform="translate(-6,10) scale(1,1)"><path d="M 40 592 L 40 614 L 178.103515625 614 L 189.103515625 603 L 189.103515625 592 L 40 592 L 40 592" fill="none" stroke="#000000" stroke-miterlimit="10"/></g><g transform="translate(-6,10) scale(1,1)"><g><path fill="none" stroke="none"/><text fill="#000000" font-family="Arial" font-size="13px" font-style="normal" font-weight="normal" stroke="none" text-decoration="none" x="69.07177734375" y="607.5">MerciNonCaricate</text></g></g><g transform="translate(-6,10) scale(1,1)"><g><path fill="none" stroke="none"/><text fill="#000000" font-family="Arial" font-size="13px" font-style="normal" font-weight="bold" stroke="none" text-decoration="none" x="43.930419921875" y="607.5">opt</text></g></g><g transform="translate(-6,10) scale(1,1)"><g><path fill="none" stroke="none"/><text fill="#000000" font-family="Arial" font-size="13px" font-style="normal" font-weight="normal" stroke="none" text-decoration="none" x="59.5" y="640.5">[ci sono ordini non caricati]</text></g></g><g transform="translate(-6,10) scale(1,1)"><path d="M 320 1240 L 1120 1240 L 1120 1480 L 320 1480 L 320 1240" fill="none" stroke="#000000" stroke-miterlimit="10"/></g><g transform="translate(-6,10) scale(1,1)"><path d="M 320 1240 L 320 1262 L 482.6943359375 1262 L 493.6943359375 1251 L 493.6943359375 1240 L 320 1240" fill="#ffffff" stroke="none"/></g><g transform="translate(-6,10) scale(1,1)"><path d="M 320 1240 L 320 1262 L 482.6943359375 1262 L 493.6943359375 1251 L 493.6943359375 1240 L 320 1240 L 320 1240" fill="none" stroke="#000000" stroke-miterlimit="10"/></g><g transform="translate(-6,10) scale(1,1)"><g><path fill="none" stroke="none"/><text fill="#000000" font-family="Arial" font-size="13px" font-style="normal" font-weight="normal" stroke="none" text-decoration="none" x="355.578125" y="1255.5">CombinedFragment2</text></g></g><g transform="translate(-6,10) scale(1,1)"><g><path fill="none" stroke="none"/><text fill="#000000" font-family="Arial" font-size="13px" font-style="normal" font-weight="bold" stroke="none" text-decoration="none" x="323.57177734375" y="1255.5">loop</text></g></g><g transform="translate(-6,10) scale(1,1)"><g><path fill="none" stroke="none"/><text fill="#000000" font-family="Arial" font-size="13px" font-style="normal" font-weight="normal" stroke="none" text-decoration="none" x="339.5" y="1288.5">[Per Ogni Ordine]</text></g></g><g transform="translate(-6,10) scale(1,1)"><path d="M 368 1304 L 1112 1304 L 1112 1439 L 368 1439 L 368 1304" fill="none" stroke="#000000" stroke-miterlimit="10"/></g><g transform="translate(-6,10) scale(1,1)"><path d="M 368 1304 L 368 1326 L 524.18798828125 1326 L 535.18798828125 1315 L 535.18798828125 1304 L 368 1304" fill="#ffffff" stroke="none"/></g><g transform="translate(-6,10) scale(1,1)"><path d="M 368 1304 L 368 1326 L 524.18798828125 1326 L 535.18798828125 1315 L 535.18798828125 1304 L 368 1304 L 368 1304" fill="none" stroke="#000000" stroke-miterlimit="10"/></g><g transform="translate(-6,10) scale(1,1)"><g><path fill="none" stroke="none"/><text fill="#000000" font-family="Arial" font-size="13px" font-style="normal" font-weight="normal" stroke="none" text-decoration="none" x="397.07177734375" y="1319.5">CombinedFragment1</text></g></g><g transform="translate(-6,10) scale(1,1)"><g><path fill="none" stroke="none"/><text fill="#000000" font-family="Arial" font-size="13px" font-style="normal" font-weight="bold" stroke="none" text-decoration="none" x="371.930419921875" y="1319.5">opt</text></g></g><g transform="translate(-6,10) scale(1,1)"><g><path fill="none" stroke="none"/><text fill="#000000" font-family="Arial" font-size="13px" font-style="normal" font-weight="normal" stroke="none" text-decoration="none" x="387.5" y="1352.5">[Se l'ordine non è completo]</text></g></g></g></svg>