<?xml version="1.0" encoding="UTF-8" standalone="no"?><svg xmlns="http://www.w3.org/2000/svg" xmlns:xlink="http://www.w3.org/1999/xlink" height="948" version="1.1" width="1388"><defs/><g><g transform="translate(2,2) scale(1,1)"><path d="M 8 8 L 1376 8 L 1376 936 L 8 936 L 8 8" fill="none" stroke="#000000" stroke-miterlimit="10"/></g><g transform="translate(2,2) scale(1,1)"><path d="M 8 8 L 8 30 L 200.3125 30 L 211.3125 19 L 211.3125 8 L 8 8" fill="#ffffff" stroke="none"/></g><g transform="translate(2,2) scale(1,1)"><path d="M 8 8 L 8 30 L 200.3125 30 L 211.3125 19 L 211.3125 8 L 8 8 L 8 8" fill="none" stroke="#000000" stroke-miterlimit="10"/></g><g transform="translate(2,2) scale(1,1)"><g><path fill="none" stroke="none"/><text fill="#000000" font-family="Arial" font-size="13px" font-style="normal" font-weight="normal" stroke="none" text-decoration="none" x="32.72998046875" y="23.5">Modifica Produzione Scorte </text></g></g><g transform="translate(2,2) scale(1,1)"><g><path fill="none" stroke="none"/><text fill="#000000" font-family="Arial" font-size="13px" font-style="normal" font-weight="bold" stroke="none" text-decoration="none" x="12.279541015625" y="23.5">sd</text></g></g><g transform="translate(2,2) scale(1,1)"><path d="M 99.1067977627841 47.3 C 99.1067977627841 43.82060576 101.98519948496592 41 105.535888671875 41 C 109.08657785878408 41 111.9649795809659 43.82060576 111.9649795809659 47.3 C 111.9649795809659 50.779394239999995 109.08657785878408 53.6 105.535888671875 53.6 C 101.98519948496592 53.6 99.1067977627841 50.779394239999995 99.1067977627841 47.3 Z" fill="#ffffff" stroke="none"/></g><g transform="translate(2,2) scale(1,1)"><path d="M 99.1067977627841 47.3 C 99.1067977627841 43.82060576 101.98519948496592 41 105.535888671875 41 C 109.08657785878408 41 111.9649795809659 43.82060576 111.9649795809659 47.3 C 111.9649795809659 50.779394239999995 109.08657785878408 53.6 105.535888671875 53.6 C 101.98519948496592 53.6 99.1067977627841 50.779394239999995 99.1067977627841 47.3 Z" fill="none" stroke="#000000" stroke-miterlimit="10"/></g><g transform="translate(2,2) scale(1,1)"><path d="M 105.535888671875 53.6 L 105.535888671875 66.4" fill="none" stroke="#000000" stroke-miterlimit="10"/></g><g transform="translate(2,2) scale(1,1)"><path d="M 98.72861594460227 58.4 L 112.34316139914773 58.4" fill="none" stroke="#000000" stroke-miterlimit="10"/></g><g transform="translate(2,2) scale(1,1)"><path d="M 105.535888671875 66.4 L 96.08134321732955 79" fill="none" stroke="#000000" stroke-miterlimit="10"/></g><g transform="translate(2,2) scale(1,1)"><path d="M 105.535888671875 66.4 L 114.99043412642045 79" fill="none" stroke="#000000" stroke-miterlimit="10"/></g><g transform="translate(2,2) scale(1,1)"><g><path fill="none" stroke="none"/><text fill="#000000" font-family="Arial" font-size="13px" font-style="normal" font-weight="bold" stroke="none" text-decoration="none" x="70.8681640625" y="97.5">: Impiegato</text></g></g><g transform="translate(2,2) scale(1,1)"><path d="M 106.5 105 L 106.5 728" fill="none" stroke="#000000" stroke-dasharray="3" stroke-miterlimit="10"/></g><g transform="translate(2,2) scale(1,1)"><rect fill="#C0C0C0" height="39" opacity="0.2" stroke="none" width="258.23681640625" x="215" y="47"/></g><g transform="translate(2,2) scale(1,1)"><rect fill="#ffffff" height="39" stroke="none" width="258.23681640625" x="208" y="40"/></g><g transform="translate(2,2) scale(1,1)"><path d="M 208 40 L 466.23681640625 40 L 466.23681640625 79 L 208 79 L 208 40 Z Z" fill="none" stroke="#000000" stroke-miterlimit="10"/></g><g transform="translate(2,2) scale(1,1)"><g><path fill="none" stroke="none"/><text fill="#000000" font-family="Arial" font-size="13px" font-style="normal" font-weight="normal" stroke="none" text-decoration="none" x="302.0634765625" y="55.5">«Boundary»</text></g></g><g transform="translate(2,2) scale(1,1)"><g><path fill="none" stroke="none"/><text fill="#000000" font-family="Arial" font-size="13px" font-style="normal" font-weight="bold" stroke="none" text-decoration="none" x="217.5" y="70.5">InterfacciaPrincipale[Tipo = Impiegato]</text></g></g><g transform="translate(2,2) scale(1,1)"><path d="M 338.5 80 L 338.5 239" fill="none" stroke="#000000" stroke-dasharray="3" stroke-miterlimit="10"/></g><g transform="translate(2,2) scale(1,1)"><rect fill="#C0C0C0" height="39" opacity="0.2" stroke="none" width="198.8544921875" x="527" y="115"/></g><g transform="translate(2,2) scale(1,1)"><rect fill="#ffffff" height="39" stroke="none" width="198.8544921875" x="520" y="108"/></g><g transform="translate(2,2) scale(1,1)"><path d="M 520 108 L 718.8544921875 108 L 718.8544921875 147 L 520 147 L 520 108 Z Z" fill="none" stroke="#000000" stroke-miterlimit="10"/></g><g transform="translate(2,2) scale(1,1)"><g><path fill="none" stroke="none"/><text fill="#000000" font-family="Arial" font-size="13px" font-style="normal" font-weight="normal" stroke="none" text-decoration="none" x="591.24365234375" y="123.5">«Control»</text></g></g><g transform="translate(2,2) scale(1,1)"><g><path fill="none" stroke="none"/><text fill="#000000" font-family="Arial" font-size="13px" font-style="normal" font-weight="bold" stroke="none" text-decoration="none" x="533.11181640625" y="138.5">GestoreModificaProduzione</text></g></g><g transform="translate(2,2) scale(1,1)"><path d="M 620.5 148 L 620.5 888" fill="none" stroke="#000000" stroke-dasharray="3" stroke-miterlimit="10"/></g><g transform="translate(2,2) scale(1,1)"><rect fill="#C0C0C0" height="39" opacity="0.2" stroke="none" width="214.75537109375" x="295" y="235"/></g><g transform="translate(2,2) scale(1,1)"><rect fill="#ffffff" height="39" stroke="none" width="214.75537109375" x="288" y="228"/></g><g transform="translate(2,2) scale(1,1)"><path d="M 288 228 L 502.75537109375 228 L 502.75537109375 267 L 288 267 L 288 228 Z Z" fill="none" stroke="#000000" stroke-miterlimit="10"/></g><g transform="translate(2,2) scale(1,1)"><g><path fill="none" stroke="none"/><text fill="#000000" font-family="Arial" font-size="13px" font-style="normal" font-weight="normal" stroke="none" text-decoration="none" x="360.32275390625" y="243.5">«Boundary»</text></g></g><g transform="translate(2,2) scale(1,1)"><g><path fill="none" stroke="none"/><text fill="#000000" font-family="Arial" font-size="13px" font-style="normal" font-weight="bold" stroke="none" text-decoration="none" x="301.11181640625" y="258.5">InterfacciaModificaProduzione</text></g></g><g transform="translate(2,2) scale(1,1)"><path d="M 396.5 268 L 396.5 814" fill="none" stroke="#000000" stroke-dasharray="3" stroke-miterlimit="10"/></g><g transform="translate(2,2) scale(1,1)"><rect fill="#C0C0C0" height="39" opacity="0.2" stroke="none" width="108.5654296875" x="807" y="47"/></g><g transform="translate(2,2) scale(1,1)"><rect fill="#ffffff" height="39" stroke="none" width="108.5654296875" x="800" y="40"/></g><g transform="translate(2,2) scale(1,1)"><path d="M 800 40 L 908.5654296875 40 L 908.5654296875 79 L 800 79 L 800 40 Z Z" fill="none" stroke="#000000" stroke-miterlimit="10"/></g><g transform="translate(2,2) scale(1,1)"><g><path fill="none" stroke="none"/><text fill="#000000" font-family="Arial" font-size="13px" font-style="normal" font-weight="normal" stroke="none" text-decoration="none" x="819.227783203125" y="55.5">«Boundary»</text></g></g><g transform="translate(2,2) scale(1,1)"><g><path fill="none" stroke="none"/><text fill="#000000" font-family="Arial" font-size="13px" font-style="normal" font-weight="bold" stroke="none" text-decoration="none" x="809.5" y="70.5">DBMSDaemon</text></g></g><g transform="translate(2,2) scale(1,1)"><path d="M 855.5 80 L 855.5 896" fill="none" stroke="#000000" stroke-dasharray="3" stroke-miterlimit="10"/></g><g transform="translate(2,2) scale(1,1)"><path d="M 1130.274522372159 47.3 C 1130.274522372159 43.82060576 1133.152924094341 41 1136.70361328125 41 C 1140.254302468159 41 1143.132704190341 43.82060576 1143.132704190341 47.3 C 1143.132704190341 50.779394239999995 1140.254302468159 53.6 1136.70361328125 53.6 C 1133.152924094341 53.6 1130.274522372159 50.779394239999995 1130.274522372159 47.3 Z" fill="#ffffff" stroke="none"/></g><g transform="translate(2,2) scale(1,1)"><path d="M 1130.274522372159 47.3 C 1130.274522372159 43.82060576 1133.152924094341 41 1136.70361328125 41 C 1140.254302468159 41 1143.132704190341 43.82060576 1143.132704190341 47.3 C 1143.132704190341 50.779394239999995 1140.254302468159 53.6 1136.70361328125 53.6 C 1133.152924094341 53.6 1130.274522372159 50.779394239999995 1130.274522372159 47.3 Z" fill="none" stroke="#000000" stroke-miterlimit="10"/></g><g transform="translate(2,2) scale(1,1)"><path d="M 1136.70361328125 53.6 L 1136.70361328125 66.4" fill="none" stroke="#000000" stroke-miterlimit="10"/></g><g transform="translate(2,2) scale(1,1)"><path d="M 1129.8963405539773 58.4 L 1143.5108860085227 58.4" fill="none" stroke="#000000" stroke-miterlimit="10"/></g><g transform="translate(2,2) scale(1,1)"><path d="M 1136.70361328125 66.4 L 1127.2490678267045 79" fill="none" stroke="#000000" stroke-miterlimit="10"/></g><g transform="translate(2,2) scale(1,1)"><path d="M 1136.70361328125 66.4 L 1146.1581587357955 79" fill="none" stroke="#000000" stroke-miterlimit="10"/></g><g transform="translate(2,2) scale(1,1)"><g><path fill="none" stroke="none"/><text fill="#000000" font-family="Arial" font-size="13px" font-style="normal" font-weight="bold" stroke="none" text-decoration="none" x="1086.8681640625" y="97.5">: DBMS Azienda</text></g></g><g transform="translate(2,2) scale(1,1)"><path d="M 1137.5 105 L 1137.5 872" fill="none" stroke="#000000" stroke-dasharray="3" stroke-miterlimit="10"/></g><g transform="translate(2,2) scale(1,1)"><rect fill="#C0C0C0" height="39" opacity="0.2" stroke="none" width="115.80810546875" x="455" y="491"/></g><g transform="translate(2,2) scale(1,1)"><rect fill="#ffffff" height="39" stroke="none" width="115.80810546875" x="448" y="484"/></g><g transform="translate(2,2) scale(1,1)"><path d="M 448 484 L 563.80810546875 484 L 563.80810546875 523 L 448 523 L 448 484 Z Z" fill="none" stroke="#000000" stroke-miterlimit="10"/></g><g transform="translate(2,2) scale(1,1)"><g><path fill="none" stroke="none"/><text fill="#000000" font-family="Arial" font-size="13px" font-style="normal" font-weight="normal" stroke="none" text-decoration="none" x="470.84912109375" y="499.5">«Boundary»</text></g></g><g transform="translate(2,2) scale(1,1)"><g><path fill="none" stroke="none"/><text fill="#000000" font-family="Arial" font-size="13px" font-style="normal" font-weight="bold" stroke="none" text-decoration="none" x="459.305908203125" y="514.5">PannelloErrore</text></g></g><g transform="translate(2,2) scale(1,1)"><path d="M 506.5 524 L 506.5 648" fill="none" stroke="#000000" stroke-dasharray="3" stroke-miterlimit="10"/></g><g transform="translate(2,2) scale(1,1)"><path d="M 106 120 L 331 120" fill="none" stroke="#000000" stroke-miterlimit="10"/></g><g transform="translate(2,2) scale(1,1)"><path d="M 320.83732514237585 124.20951775601598 L 331 120 L 320.83732514237585 115.79048224398402" fill="#000000" stroke="none"/></g><g transform="translate(2,2) scale(1,1)"><path d="M 320.83732514237585 124.20951775601598 L 331 120 L 320.83732514237585 115.79048224398402 L 320.83732514237585 124.20951775601598" fill="none" stroke="#000000" stroke-miterlimit="10"/></g><g transform="translate(2,2) scale(1,1)"><g><path fill="none" stroke="none"/><text fill="#000000" font-family="Arial" font-size="13px" font-style="normal" font-weight="normal" stroke="none" text-decoration="none" x="127.5" y="113.5">1 : cliccaModificaProduzione( )</text></g></g><g transform="translate(2,2) scale(1,1)"><rect fill="#ffffff" height="28" stroke="none" width="13" x="331" y="120"/></g><g transform="translate(2,2) scale(1,1)"><path d="M 331 120 L 344 120 L 344 148 L 331 148 L 331 120 Z Z" fill="none" stroke="#000000" stroke-miterlimit="10"/></g><g transform="translate(2,2) scale(1,1)"><path d="M 344 128 L 520 128" fill="none" stroke="#000000" stroke-dasharray="3" stroke-miterlimit="10"/></g><g transform="translate(2,2) scale(1,1)"><path d="M 509.83732514237585 132.209517756016 L 520 128 L 509.83732514237585 123.79048224398402" fill="none" stroke="#000000" stroke-miterlimit="10"/></g><g transform="translate(2,2) scale(1,1)"><g><path fill="none" stroke="none"/><text fill="#000000" font-family="Arial" font-size="13px" font-style="normal" font-weight="normal" stroke="none" text-decoration="none" x="422.5" y="122.5">2 : </text></g></g><g transform="translate(2,2) scale(1,1)"><g><path fill="none" stroke="none"/><text fill="#000000" font-family="Arial" font-size="13px" font-style="normal" font-weight="normal" stroke="none" text-decoration="none" x="406.5" y="107.5">«create»</text></g></g><g transform="translate(2,2) scale(1,1)"><path d="M 620 248 L 502.75537109375 248" fill="none" stroke="#000000" stroke-dasharray="3" stroke-miterlimit="10"/></g><g transform="translate(2,2) scale(1,1)"><path d="M 512.9180459513741 243.790482243984 L 502.75537109375 248 L 512.9180459513741 252.209517756016" fill="none" stroke="#000000" stroke-miterlimit="10"/></g><g transform="translate(2,2) scale(1,1)"><g><path fill="none" stroke="none"/><text fill="#000000" font-family="Arial" font-size="13px" font-style="normal" font-weight="normal" stroke="none" text-decoration="none" x="550.5" y="262.5">3 : </text></g></g><g transform="translate(2,2) scale(1,1)"><g><path fill="none" stroke="none"/><text fill="#000000" font-family="Arial" font-size="13px" font-style="normal" font-weight="normal" stroke="none" text-decoration="none" x="534.5" y="277.5">«create»</text></g></g><g transform="translate(2,2) scale(1,1)"><path d="M 106 369 L 389 369" fill="none" stroke="#000000" stroke-miterlimit="10"/></g><g transform="translate(2,2) scale(1,1)"><path d="M 378.83732514237585 373.209517756016 L 389 369 L 378.83732514237585 364.790482243984" fill="#000000" stroke="none"/></g><g transform="translate(2,2) scale(1,1)"><path d="M 378.83732514237585 373.209517756016 L 389 369 L 378.83732514237585 364.790482243984 L 378.83732514237585 373.209517756016" fill="none" stroke="#000000" stroke-miterlimit="10"/></g><g transform="translate(2,2) scale(1,1)"><g><path fill="none" stroke="none"/><text fill="#000000" font-family="Arial" font-size="13px" font-style="normal" font-weight="normal" stroke="none" text-decoration="none" x="165.5" y="363.5">4 : inserimentoDati(quantità)</text></g></g><g transform="translate(2,2) scale(1,1)"><rect fill="#ffffff" height="28" stroke="none" width="13" x="389" y="369"/></g><g transform="translate(2,2) scale(1,1)"><path d="M 389 369 L 402 369 L 402 397 L 389 397 L 389 369 Z Z" fill="none" stroke="#000000" stroke-miterlimit="10"/></g><g transform="translate(2,2) scale(1,1)"><path d="M 106 426 L 389 426" fill="none" stroke="#000000" stroke-miterlimit="10"/></g><g transform="translate(2,2) scale(1,1)"><path d="M 378.83732514237585 430.209517756016 L 389 426 L 378.83732514237585 421.790482243984" fill="#000000" stroke="none"/></g><g transform="translate(2,2) scale(1,1)"><path d="M 378.83732514237585 430.209517756016 L 389 426 L 378.83732514237585 421.790482243984 L 378.83732514237585 430.209517756016" fill="none" stroke="#000000" stroke-miterlimit="10"/></g><g transform="translate(2,2) scale(1,1)"><g><path fill="none" stroke="none"/><text fill="#000000" font-family="Arial" font-size="13px" font-style="normal" font-weight="normal" stroke="none" text-decoration="none" x="204.5" y="420.5">5 : conferma( )</text></g></g><g transform="translate(2,2) scale(1,1)"><rect fill="#ffffff" height="28" stroke="none" width="13" x="389" y="426"/></g><g transform="translate(2,2) scale(1,1)"><path d="M 389 426 L 402 426 L 402 454 L 389 454 L 389 426 Z Z" fill="none" stroke="#000000" stroke-miterlimit="10"/></g><g transform="translate(2,2) scale(1,1)"><path d="M 402 448 L 613 448" fill="none" stroke="#000000" stroke-miterlimit="10"/></g><g transform="translate(2,2) scale(1,1)"><path d="M 602.8373251423759 452.209517756016 L 613 448 L 602.8373251423758 443.790482243984" fill="#000000" stroke="none"/></g><g transform="translate(2,2) scale(1,1)"><path d="M 602.8373251423759 452.209517756016 L 613 448 L 602.8373251423758 443.790482243984 L 602.8373251423759 452.209517756016" fill="none" stroke="#000000" stroke-miterlimit="10"/></g><g transform="translate(2,2) scale(1,1)"><g><path fill="none" stroke="none"/><text fill="#000000" font-family="Arial" font-size="13px" font-style="normal" font-weight="normal" stroke="none" text-decoration="none" x="413.5" y="442.5">6 : modificaProduzione(quantità)</text></g></g><g transform="translate(2,2) scale(1,1)"><rect fill="#ffffff" height="352" stroke="none" width="13" x="613" y="448"/></g><g transform="translate(2,2) scale(1,1)"><path d="M 613 448 L 626 448 L 626 800 L 613 800 L 613 448 Z Z" fill="none" stroke="#000000" stroke-miterlimit="10"/></g><g transform="translate(2,2) scale(1,1)"><path d="M 613 504 L 563.80810546875 504" fill="none" stroke="#000000" stroke-dasharray="3" stroke-miterlimit="10"/></g><g transform="translate(2,2) scale(1,1)"><path d="M 573.9707803263741 499.790482243984 L 563.80810546875 504 L 573.9707803263741 508.209517756016" fill="none" stroke="#000000" stroke-miterlimit="10"/></g><g transform="translate(2,2) scale(1,1)"><g><path fill="none" stroke="none"/><text fill="#000000" font-family="Arial" font-size="13px" font-style="normal" font-weight="normal" stroke="none" text-decoration="none" x="577.5" y="518.5">7 : </text></g></g><g transform="translate(2,2) scale(1,1)"><g><path fill="none" stroke="none"/><text fill="#000000" font-family="Arial" font-size="13px" font-style="normal" font-weight="normal" stroke="none" text-decoration="none" x="561.5" y="533.5">«create»</text></g></g><g transform="translate(2,2) scale(1,1)"><path d="M 106 576 L 499 576" fill="none" stroke="#000000" stroke-miterlimit="10"/></g><g transform="translate(2,2) scale(1,1)"><path d="M 488.83732514237585 580.209517756016 L 499 576 L 488.83732514237585 571.790482243984" fill="#000000" stroke="none"/></g><g transform="translate(2,2) scale(1,1)"><path d="M 488.83732514237585 580.209517756016 L 499 576 L 488.83732514237585 571.790482243984 L 488.83732514237585 580.209517756016" fill="none" stroke="#000000" stroke-miterlimit="10"/></g><g transform="translate(2,2) scale(1,1)"><path d="M 496 638 L 516 658" fill="none" stroke="#000000" stroke-miterlimit="10"/></g><g transform="translate(2,2) scale(1,1)"><path d="M 516 638 L 496 658" fill="none" stroke="#000000" stroke-miterlimit="10"/></g><g transform="translate(2,2) scale(1,1)"><g><path fill="none" stroke="none"/><text fill="#000000" font-family="Arial" font-size="13px" font-style="normal" font-weight="normal" stroke="none" text-decoration="none" x="259.5" y="570.5">8 : conferma( )</text></g></g><g transform="translate(2,2) scale(1,1)"><g><path fill="none" stroke="none"/><text fill="#000000" font-family="Arial" font-size="13px" font-style="normal" font-weight="normal" stroke="none" text-decoration="none" x="273.5" y="555.5">«destroy»</text></g></g><g transform="translate(2,2) scale(1,1)"><rect fill="#ffffff" height="28" stroke="none" width="13" x="499" y="576"/></g><g transform="translate(2,2) scale(1,1)"><path d="M 499 576 L 512 576 L 512 604 L 499 604 L 499 576 Z Z" fill="none" stroke="#000000" stroke-miterlimit="10"/></g><g transform="translate(2,2) scale(1,1)"><path d="M 626 704 L 848 704" fill="none" stroke="#000000" stroke-miterlimit="10"/></g><g transform="translate(2,2) scale(1,1)"><path d="M 837.8373251423759 708.209517756016 L 848 704 L 837.8373251423758 699.790482243984" fill="#000000" stroke="none"/></g><g transform="translate(2,2) scale(1,1)"><path d="M 837.8373251423759 708.209517756016 L 848 704 L 837.8373251423758 699.790482243984 L 837.8373251423759 708.209517756016" fill="none" stroke="#000000" stroke-miterlimit="10"/></g><g transform="translate(2,2) scale(1,1)"><g><path fill="none" stroke="none"/><text fill="#000000" font-family="Arial" font-size="13px" font-style="normal" font-weight="normal" stroke="none" text-decoration="none" x="643.5" y="698.5">9 : modificaProduzione(quantità)</text></g></g><g transform="translate(2,2) scale(1,1)"><rect fill="#ffffff" height="96" stroke="none" width="13" x="848" y="704"/></g><g transform="translate(2,2) scale(1,1)"><path d="M 848 704 L 861 704 L 861 800 L 848 800 L 848 704 Z Z" fill="none" stroke="#000000" stroke-miterlimit="10"/></g><g transform="translate(2,2) scale(1,1)"><path d="M 861 730 L 1130 730" fill="none" stroke="#000000" stroke-miterlimit="10"/></g><g transform="translate(2,2) scale(1,1)"><path d="M 1119.837325142376 734.209517756016 L 1130 730 L 1119.837325142376 725.790482243984" fill="#000000" stroke="none"/></g><g transform="translate(2,2) scale(1,1)"><path d="M 1119.837325142376 734.209517756016 L 1130 730 L 1119.837325142376 725.790482243984 L 1119.837325142376 734.209517756016" fill="none" stroke="#000000" stroke-miterlimit="10"/></g><g transform="translate(2,2) scale(1,1)"><g><path fill="none" stroke="none"/><text fill="#000000" font-family="Arial" font-size="13px" font-style="normal" font-weight="normal" stroke="none" text-decoration="none" x="881.5" y="724.5">10 : queryModificaProduzione(quantità)</text></g></g><g transform="translate(2,2) scale(1,1)"><rect fill="#ffffff" height="28" stroke="none" width="13" x="1130" y="730"/></g><g transform="translate(2,2) scale(1,1)"><path d="M 1130 730 L 1143 730 L 1143 758 L 1130 758 L 1130 730 Z Z" fill="none" stroke="#000000" stroke-miterlimit="10"/></g><g transform="translate(2,2) scale(1,1)"><path d="M 1130 751 L 861 751" fill="none" stroke="#000000" stroke-dasharray="3" stroke-miterlimit="10"/></g><g transform="translate(2,2) scale(1,1)"><path d="M 871.1626748576241 746.790482243984 L 861 751 L 871.1626748576241 755.209517756016" fill="none" stroke="#000000" stroke-miterlimit="10"/></g><g transform="translate(2,2) scale(1,1)"><g><path fill="none" stroke="none"/><text fill="#000000" font-family="Arial" font-size="13px" font-style="normal" font-weight="normal" stroke="none" text-decoration="none" x="968.5" y="765.5">11 : esito</text></g></g><g transform="translate(2,2) scale(1,1)"><path d="M 848 785 L 626 785" fill="none" stroke="#000000" stroke-dasharray="3" stroke-miterlimit="10"/></g><g transform="translate(2,2) scale(1,1)"><path d="M 636.1626748576241 780.790482243984 L 626 785 L 636.1626748576241 789.209517756016" fill="none" stroke="#000000" stroke-miterlimit="10"/></g><g transform="translate(2,2) scale(1,1)"><g><path fill="none" stroke="none"/><text fill="#000000" font-family="Arial" font-size="13px" font-style="normal" font-weight="normal" stroke="none" text-decoration="none" x="709.5" y="799.5">12 : esito</text></g></g><g transform="translate(2,2) scale(1,1)"><path d="M 48 288 L 776 288 L 776 672 L 48 672 L 48 288" fill="none" stroke="#000000" stroke-miterlimit="10"/></g><g transform="translate(2,2) scale(1,1)"><path d="M 48 288 L 48 310 L 197.7197265625 310 L 208.7197265625 299 L 208.7197265625 288 L 48 288" fill="#ffffff" stroke="none"/></g><g transform="translate(2,2) scale(1,1)"><path d="M 48 288 L 48 310 L 197.7197265625 310 L 208.7197265625 299 L 208.7197265625 288 L 48 288 L 48 288" fill="none" stroke="#000000" stroke-miterlimit="10"/></g><g transform="translate(2,2) scale(1,1)"><g><path fill="none" stroke="none"/><text fill="#000000" font-family="Arial" font-size="13px" font-style="normal" font-weight="normal" stroke="none" text-decoration="none" x="83.578125" y="303.5">quantità non valida</text></g></g><g transform="translate(2,2) scale(1,1)"><g><path fill="none" stroke="none"/><text fill="#000000" font-family="Arial" font-size="13px" font-style="normal" font-weight="bold" stroke="none" text-decoration="none" x="51.57177734375" y="303.5">loop</text></g></g><g transform="translate(2,2) scale(1,1)"><g><path fill="none" stroke="none"/><text fill="#000000" font-family="Arial" font-size="13px" font-style="normal" font-weight="normal" stroke="none" text-decoration="none" x="67.5" y="336.5">[quantità &gt; quantità_attuale]</text></g></g><g transform="translate(2,2) scale(1,1)"><path d="M 88 472 L 671 472 L 671 663 L 88 663 L 88 472" fill="none" stroke="#000000" stroke-miterlimit="10"/></g><g transform="translate(2,2) scale(1,1)"><path d="M 88 472 L 88 494 L 231.21337890625 494 L 242.21337890625 483 L 242.21337890625 472 L 88 472" fill="#ffffff" stroke="none"/></g><g transform="translate(2,2) scale(1,1)"><path d="M 88 472 L 88 494 L 231.21337890625 494 L 242.21337890625 483 L 242.21337890625 472 L 88 472 L 88 472" fill="none" stroke="#000000" stroke-miterlimit="10"/></g><g transform="translate(2,2) scale(1,1)"><g><path fill="none" stroke="none"/><text fill="#000000" font-family="Arial" font-size="13px" font-style="normal" font-weight="normal" stroke="none" text-decoration="none" x="117.07177734375" y="487.5">quantità non valida</text></g></g><g transform="translate(2,2) scale(1,1)"><g><path fill="none" stroke="none"/><text fill="#000000" font-family="Arial" font-size="13px" font-style="normal" font-weight="bold" stroke="none" text-decoration="none" x="91.930419921875" y="487.5">opt</text></g></g><g transform="translate(2,2) scale(1,1)"><g><path fill="none" stroke="none"/><text fill="#000000" font-family="Arial" font-size="13px" font-style="normal" font-weight="normal" stroke="none" text-decoration="none" x="107.5" y="520.5">[quantità &gt; quantità_attuale]</text></g></g></g></svg>