<?xml version="1.0" encoding="UTF-8" standalone="no"?><svg xmlns="http://www.w3.org/2000/svg" xmlns:xlink="http://www.w3.org/1999/xlink" height="980" version="1.1" width="1156"><defs/><g><g transform="translate(-158,2) scale(1,1)"><path d="M 168 8 L 1304 8 L 1304 968 L 168 968 L 168 8" fill="none" stroke="#000000" stroke-miterlimit="10"/></g><g transform="translate(-158,2) scale(1,1)"><path d="M 168 8 L 168 30 L 276.46630859375 30 L 287.46630859375 19 L 287.46630859375 8 L 168 8" fill="#ffffff" stroke="none"/></g><g transform="translate(-158,2) scale(1,1)"><path d="M 168 8 L 168 30 L 276.46630859375 30 L 287.46630859375 19 L 287.46630859375 8 L 168 8 L 168 8" fill="none" stroke="#000000" stroke-miterlimit="10"/></g><g transform="translate(-158,2) scale(1,1)"><g><path fill="none" stroke="none"/><text fill="#000000" font-family="Arial" font-size="13px" font-style="normal" font-weight="normal" stroke="none" text-decoration="none" x="192.72998046875" y="23.5">Scarico Merci</text></g></g><g transform="translate(-158,2) scale(1,1)"><g><path fill="none" stroke="none"/><text fill="#000000" font-family="Arial" font-size="13px" font-style="normal" font-weight="bold" stroke="none" text-decoration="none" x="172.279541015625" y="23.5">sd</text></g></g><g transform="translate(-158,2) scale(1,1)"><rect fill="#C0C0C0" height="39" opacity="0.2" stroke="none" width="262.83251953125" x="311" y="47"/></g><g transform="translate(-158,2) scale(1,1)"><rect fill="#ffffff" height="39" stroke="none" width="262.83251953125" x="304" y="40"/></g><g transform="translate(-158,2) scale(1,1)"><path d="M 304 40 L 566.83251953125 40 L 566.83251953125 79 L 304 79 L 304 40 Z Z" fill="none" stroke="#000000" stroke-miterlimit="10"/></g><g transform="translate(-158,2) scale(1,1)"><g><path fill="none" stroke="none"/><text fill="#000000" font-family="Arial" font-size="13px" font-style="normal" font-weight="normal" stroke="none" text-decoration="none" x="400.361328125" y="55.5">«Boundary»</text></g></g><g transform="translate(-158,2) scale(1,1)"><g><path fill="none" stroke="none"/><text fill="#000000" font-family="Arial" font-size="13px" font-style="normal" font-weight="bold" stroke="none" text-decoration="none" x="313.5" y="70.5">: InterfacciaPrincipale[tipo=Farmacista]</text></g></g><g transform="translate(-158,2) scale(1,1)"><path d="M 436.5 80 L 436.5 239" fill="none" stroke="#000000" stroke-dasharray="3" stroke-miterlimit="10"/></g><g transform="translate(-158,2) scale(1,1)"><path d="M 237.5709090909091 47.3 C 237.5709090909091 43.82060576 240.4493108130909 41 244 41 C 247.5506891869091 41 250.42909090909092 43.82060576 250.42909090909092 47.3 C 250.42909090909092 50.779394239999995 247.5506891869091 53.6 244 53.6 C 240.4493108130909 53.6 237.5709090909091 50.779394239999995 237.5709090909091 47.3 Z" fill="#ffffff" stroke="none"/></g><g transform="translate(-158,2) scale(1,1)"><path d="M 237.5709090909091 47.3 C 237.5709090909091 43.82060576 240.4493108130909 41 244 41 C 247.5506891869091 41 250.42909090909092 43.82060576 250.42909090909092 47.3 C 250.42909090909092 50.779394239999995 247.5506891869091 53.6 244 53.6 C 240.4493108130909 53.6 237.5709090909091 50.779394239999995 237.5709090909091 47.3 Z" fill="none" stroke="#000000" stroke-miterlimit="10"/></g><g transform="translate(-158,2) scale(1,1)"><path d="M 244 53.6 L 244 66.4" fill="none" stroke="#000000" stroke-miterlimit="10"/></g><g transform="translate(-158,2) scale(1,1)"><path d="M 237.1927272727273 58.4 L 250.80727272727273 58.4" fill="none" stroke="#000000" stroke-miterlimit="10"/></g><g transform="translate(-158,2) scale(1,1)"><path d="M 244 66.4 L 234.54545454545456 79" fill="none" stroke="#000000" stroke-miterlimit="10"/></g><g transform="translate(-158,2) scale(1,1)"><path d="M 244 66.4 L 253.45454545454547 79" fill="none" stroke="#000000" stroke-miterlimit="10"/></g><g transform="translate(-158,2) scale(1,1)"><g><path fill="none" stroke="none"/><text fill="#000000" font-family="Arial" font-size="13px" font-style="normal" font-weight="bold" stroke="none" text-decoration="none" x="205.70458984375" y="97.5">: Farmacista</text></g></g><g transform="translate(-158,2) scale(1,1)"><path d="M 245.5 105 L 245.5 944" fill="none" stroke="#000000" stroke-dasharray="3" stroke-miterlimit="10"/></g><g transform="translate(-158,2) scale(1,1)"><rect fill="#C0C0C0" height="39" opacity="0.2" stroke="none" width="112.20263671875" x="663" y="139"/></g><g transform="translate(-158,2) scale(1,1)"><rect fill="#ffffff" height="39" stroke="none" width="112.20263671875" x="656" y="132"/></g><g transform="translate(-158,2) scale(1,1)"><path d="M 656 132 L 768.20263671875 132 L 768.20263671875 171 L 656 171 L 656 132 Z Z" fill="none" stroke="#000000" stroke-miterlimit="10"/></g><g transform="translate(-158,2) scale(1,1)"><g><path fill="none" stroke="none"/><text fill="#000000" font-family="Arial" font-size="13px" font-style="normal" font-weight="normal" stroke="none" text-decoration="none" x="683.917724609375" y="147.5">«Control»</text></g></g><g transform="translate(-158,2) scale(1,1)"><g><path fill="none" stroke="none"/><text fill="#000000" font-family="Arial" font-size="13px" font-style="normal" font-weight="bold" stroke="none" text-decoration="none" x="667.66455078125" y="162.5">: ScaricoMerci</text></g></g><g transform="translate(-158,2) scale(1,1)"><path d="M 713.5 172 L 713.5 928" fill="none" stroke="#000000" stroke-dasharray="3" stroke-miterlimit="10"/></g><g transform="translate(-158,2) scale(1,1)"><rect fill="#C0C0C0" height="39" opacity="0.2" stroke="none" width="172.9052734375" x="415" y="179"/></g><g transform="translate(-158,2) scale(1,1)"><rect fill="#ffffff" height="39" stroke="none" width="172.9052734375" x="408" y="172"/></g><g transform="translate(-158,2) scale(1,1)"><path d="M 408 172 L 580.9052734375 172 L 580.9052734375 211 L 408 211 L 408 172 Z Z" fill="none" stroke="#000000" stroke-miterlimit="10"/></g><g transform="translate(-158,2) scale(1,1)"><g><path fill="none" stroke="none"/><text fill="#000000" font-family="Arial" font-size="13px" font-style="normal" font-weight="normal" stroke="none" text-decoration="none" x="459.397705078125" y="187.5">«Boundary»</text></g></g><g transform="translate(-158,2) scale(1,1)"><g><path fill="none" stroke="none"/><text fill="#000000" font-family="Arial" font-size="13px" font-style="normal" font-weight="bold" stroke="none" text-decoration="none" x="417.5" y="202.5">: InterfacciaScaricoMerci</text></g></g><g transform="translate(-158,2) scale(1,1)"><path d="M 495.5 212 L 495.5 866" fill="none" stroke="#000000" stroke-dasharray="3" stroke-miterlimit="10"/></g><g transform="translate(-158,2) scale(1,1)"><rect fill="#C0C0C0" height="39" opacity="0.2" stroke="none" width="108.5654296875" x="887" y="47"/></g><g transform="translate(-158,2) scale(1,1)"><rect fill="#ffffff" height="39" stroke="none" width="108.5654296875" x="880" y="40"/></g><g transform="translate(-158,2) scale(1,1)"><path d="M 880 40 L 988.5654296875 40 L 988.5654296875 79 L 880 79 L 880 40 Z Z" fill="none" stroke="#000000" stroke-miterlimit="10"/></g><g transform="translate(-158,2) scale(1,1)"><g><path fill="none" stroke="none"/><text fill="#000000" font-family="Arial" font-size="13px" font-style="normal" font-weight="normal" stroke="none" text-decoration="none" x="899.227783203125" y="55.5">«Boundary»</text></g></g><g transform="translate(-158,2) scale(1,1)"><g><path fill="none" stroke="none"/><text fill="#000000" font-family="Arial" font-size="13px" font-style="normal" font-weight="bold" stroke="none" text-decoration="none" x="889.5" y="70.5">DBMSDaemon</text></g></g><g transform="translate(-158,2) scale(1,1)"><path d="M 935.5 80 L 935.5 588" fill="none" stroke="#000000" stroke-dasharray="3" stroke-miterlimit="10"/></g><g transform="translate(-158,2) scale(1,1)"><path d="M 1165.899034090909 47.3 C 1165.899034090909 43.82060576 1168.777435813091 41 1172.328125 41 C 1175.878814186909 41 1178.757215909091 43.82060576 1178.757215909091 47.3 C 1178.757215909091 50.779394239999995 1175.878814186909 53.6 1172.328125 53.6 C 1168.777435813091 53.6 1165.899034090909 50.779394239999995 1165.899034090909 47.3 Z" fill="#ffffff" stroke="none"/></g><g transform="translate(-158,2) scale(1,1)"><path d="M 1165.899034090909 47.3 C 1165.899034090909 43.82060576 1168.777435813091 41 1172.328125 41 C 1175.878814186909 41 1178.757215909091 43.82060576 1178.757215909091 47.3 C 1178.757215909091 50.779394239999995 1175.878814186909 53.6 1172.328125 53.6 C 1168.777435813091 53.6 1165.899034090909 50.779394239999995 1165.899034090909 47.3 Z" fill="none" stroke="#000000" stroke-miterlimit="10"/></g><g transform="translate(-158,2) scale(1,1)"><path d="M 1172.328125 53.6 L 1172.328125 66.4" fill="none" stroke="#000000" stroke-miterlimit="10"/></g><g transform="translate(-158,2) scale(1,1)"><path d="M 1165.5208522727273 58.4 L 1179.1353977272727 58.4" fill="none" stroke="#000000" stroke-miterlimit="10"/></g><g transform="translate(-158,2) scale(1,1)"><path d="M 1172.328125 66.4 L 1162.8735795454545 79" fill="none" stroke="#000000" stroke-miterlimit="10"/></g><g transform="translate(-158,2) scale(1,1)"><path d="M 1172.328125 66.4 L 1181.7826704545455 79" fill="none" stroke="#000000" stroke-miterlimit="10"/></g><g transform="translate(-158,2) scale(1,1)"><g><path fill="none" stroke="none"/><text fill="#000000" font-family="Arial" font-size="13px" font-style="normal" font-weight="bold" stroke="none" text-decoration="none" x="1118.8681640625" y="97.5">: DBMS Farmacie</text></g></g><g transform="translate(-158,2) scale(1,1)"><path d="M 1173.5 105 L 1173.5 566" fill="none" stroke="#000000" stroke-dasharray="3" stroke-miterlimit="10"/></g><g transform="translate(-158,2) scale(1,1)"><rect fill="#C0C0C0" height="39" opacity="0.2" stroke="none" width="123.2666015625" x="551" y="579"/></g><g transform="translate(-158,2) scale(1,1)"><rect fill="#ffffff" height="39" stroke="none" width="123.2666015625" x="544" y="572"/></g><g transform="translate(-158,2) scale(1,1)"><path d="M 544 572 L 667.2666015625 572 L 667.2666015625 611 L 544 611 L 544 572 Z Z" fill="none" stroke="#000000" stroke-miterlimit="10"/></g><g transform="translate(-158,2) scale(1,1)"><g><path fill="none" stroke="none"/><text fill="#000000" font-family="Arial" font-size="13px" font-style="normal" font-weight="normal" stroke="none" text-decoration="none" x="570.578369140625" y="587.5">«Boundary»</text></g></g><g transform="translate(-158,2) scale(1,1)"><g><path fill="none" stroke="none"/><text fill="#000000" font-family="Arial" font-size="13px" font-style="normal" font-weight="bold" stroke="none" text-decoration="none" x="553.5" y="602.5">: PannelloAvviso</text></g></g><g transform="translate(-158,2) scale(1,1)"><path d="M 606.5 612 L 606.5 680" fill="none" stroke="#000000" stroke-dasharray="3" stroke-miterlimit="10"/></g><g transform="translate(-158,2) scale(1,1)"><path d="M 245 136 L 429 136" fill="none" stroke="#000000" stroke-miterlimit="10"/></g><g transform="translate(-158,2) scale(1,1)"><path d="M 418.83732514237585 140.209517756016 L 429 136 L 418.83732514237585 131.790482243984" fill="#000000" stroke="none"/></g><g transform="translate(-158,2) scale(1,1)"><path d="M 418.83732514237585 140.209517756016 L 429 136 L 418.83732514237585 131.790482243984 L 418.83732514237585 140.209517756016" fill="none" stroke="#000000" stroke-miterlimit="10"/></g><g transform="translate(-158,2) scale(1,1)"><g><path fill="none" stroke="none"/><text fill="#000000" font-family="Arial" font-size="13px" font-style="normal" font-weight="normal" stroke="none" text-decoration="none" x="274.5" y="130.5">1 : cliccaScaricoMerci</text></g></g><g transform="translate(-158,2) scale(1,1)"><rect fill="#ffffff" height="28" stroke="none" width="13" x="429" y="136"/></g><g transform="translate(-158,2) scale(1,1)"><path d="M 429 136 L 442 136 L 442 164 L 429 164 L 429 136 Z Z" fill="none" stroke="#000000" stroke-miterlimit="10"/></g><g transform="translate(-158,2) scale(1,1)"><path d="M 442 152 L 656 152" fill="none" stroke="#000000" stroke-dasharray="3" stroke-miterlimit="10"/></g><g transform="translate(-158,2) scale(1,1)"><path d="M 645.8373251423759 156.209517756016 L 656 152 L 645.8373251423758 147.790482243984" fill="none" stroke="#000000" stroke-miterlimit="10"/></g><g transform="translate(-158,2) scale(1,1)"><g><path fill="none" stroke="none"/><text fill="#000000" font-family="Arial" font-size="13px" font-style="normal" font-weight="normal" stroke="none" text-decoration="none" x="539.5" y="146.5">2 : </text></g></g><g transform="translate(-158,2) scale(1,1)"><g><path fill="none" stroke="none"/><text fill="#000000" font-family="Arial" font-size="13px" font-style="normal" font-weight="normal" stroke="none" text-decoration="none" x="523.5" y="131.5">«create»</text></g></g><g transform="translate(-158,2) scale(1,1)"><path d="M 713 192 L 580.9052734375 192" fill="none" stroke="#000000" stroke-dasharray="3" stroke-miterlimit="10"/></g><g transform="translate(-158,2) scale(1,1)"><path d="M 591.0679482951241 187.790482243984 L 580.9052734375 192 L 591.0679482951241 196.209517756016" fill="none" stroke="#000000" stroke-miterlimit="10"/></g><g transform="translate(-158,2) scale(1,1)"><g><path fill="none" stroke="none"/><text fill="#000000" font-family="Arial" font-size="13px" font-style="normal" font-weight="normal" stroke="none" text-decoration="none" x="635.5" y="206.5">3 : </text></g></g><g transform="translate(-158,2) scale(1,1)"><g><path fill="none" stroke="none"/><text fill="#000000" font-family="Arial" font-size="13px" font-style="normal" font-weight="normal" stroke="none" text-decoration="none" x="619.5" y="221.5">«create»</text></g></g><g transform="translate(-158,2) scale(1,1)"><path d="M 245 304 L 488 304" fill="none" stroke="#000000" stroke-miterlimit="10"/></g><g transform="translate(-158,2) scale(1,1)"><path d="M 477.83732514237585 308.209517756016 L 488 304 L 477.83732514237585 299.790482243984" fill="#000000" stroke="none"/></g><g transform="translate(-158,2) scale(1,1)"><path d="M 477.83732514237585 308.209517756016 L 488 304 L 477.83732514237585 299.790482243984 L 477.83732514237585 308.209517756016" fill="none" stroke="#000000" stroke-miterlimit="10"/></g><g transform="translate(-158,2) scale(1,1)"><g><path fill="none" stroke="none"/><text fill="#000000" font-family="Arial" font-size="13px" font-style="normal" font-weight="normal" stroke="none" text-decoration="none" x="255.5" y="297.5">4 : inserisciDati(codice_lotto, quantita)</text></g></g><g transform="translate(-158,2) scale(1,1)"><rect fill="#ffffff" height="28" stroke="none" width="13" x="488" y="304"/></g><g transform="translate(-158,2) scale(1,1)"><path d="M 488 304 L 501 304 L 501 332 L 488 332 L 488 304 Z Z" fill="none" stroke="#000000" stroke-miterlimit="10"/></g><g transform="translate(-158,2) scale(1,1)"><path d="M 245 360 L 488 360" fill="none" stroke="#000000" stroke-miterlimit="10"/></g><g transform="translate(-158,2) scale(1,1)"><path d="M 477.83732514237585 364.209517756016 L 488 360 L 477.83732514237585 355.790482243984" fill="#000000" stroke="none"/></g><g transform="translate(-158,2) scale(1,1)"><path d="M 477.83732514237585 364.209517756016 L 488 360 L 477.83732514237585 355.790482243984 L 477.83732514237585 364.209517756016" fill="none" stroke="#000000" stroke-miterlimit="10"/></g><g transform="translate(-158,2) scale(1,1)"><g><path fill="none" stroke="none"/><text fill="#000000" font-family="Arial" font-size="13px" font-style="normal" font-weight="normal" stroke="none" text-decoration="none" x="329.39453125" y="354.5">5 : conferma</text></g></g><g transform="translate(-158,2) scale(1,1)"><rect fill="#ffffff" height="28" stroke="none" width="13" x="488" y="360"/></g><g transform="translate(-158,2) scale(1,1)"><path d="M 488 360 L 501 360 L 501 388 L 488 388 L 488 360 Z Z" fill="none" stroke="#000000" stroke-miterlimit="10"/></g><g transform="translate(-158,2) scale(1,1)"><path d="M 501 384 L 706 384" fill="none" stroke="#000000" stroke-miterlimit="10"/></g><g transform="translate(-158,2) scale(1,1)"><path d="M 695.8373251423759 388.209517756016 L 706 384 L 695.8373251423758 379.790482243984" fill="#000000" stroke="none"/></g><g transform="translate(-158,2) scale(1,1)"><path d="M 695.8373251423759 388.209517756016 L 706 384 L 695.8373251423758 379.790482243984 L 695.8373251423759 388.209517756016" fill="none" stroke="#000000" stroke-miterlimit="10"/></g><g transform="translate(-158,2) scale(1,1)"><g><path fill="none" stroke="none"/><text fill="#000000" font-family="Arial" font-size="13px" font-style="normal" font-weight="normal" stroke="none" text-decoration="none" x="514.524169921875" y="360.5">6 : scaricaMerci( codice_lotto,</text><text fill="#000000" font-family="Arial" font-size="13px" font-style="normal" font-weight="normal" stroke="none" text-decoration="none" x="573.398681640625" y="373.5">quantita )</text></g></g><g transform="translate(-158,2) scale(1,1)"><rect fill="#ffffff" height="248" stroke="none" width="13" x="706" y="384"/></g><g transform="translate(-158,2) scale(1,1)"><path d="M 706 384 L 719 384 L 719 632 L 706 632 L 706 384 Z Z" fill="none" stroke="#000000" stroke-miterlimit="10"/></g><g transform="translate(-158,2) scale(1,1)"><path d="M 719 408 L 928 408" fill="none" stroke="#000000" stroke-miterlimit="10"/></g><g transform="translate(-158,2) scale(1,1)"><path d="M 917.8373251423759 412.209517756016 L 928 408 L 917.8373251423758 403.790482243984" fill="#000000" stroke="none"/></g><g transform="translate(-158,2) scale(1,1)"><path d="M 917.8373251423759 412.209517756016 L 928 408 L 917.8373251423758 403.790482243984 L 917.8373251423759 412.209517756016" fill="none" stroke="#000000" stroke-miterlimit="10"/></g><g transform="translate(-158,2) scale(1,1)"><g><path fill="none" stroke="none"/><text fill="#000000" font-family="Arial" font-size="13px" font-style="normal" font-weight="normal" stroke="none" text-decoration="none" x="737.601318359375" y="386.5">7 : scaricaMerci(codice_lotto,</text><text fill="#000000" font-family="Arial" font-size="13px" font-style="normal" font-weight="normal" stroke="none" text-decoration="none" x="796.475830078125" y="399.5">quantita)</text></g></g><g transform="translate(-158,2) scale(1,1)"><rect fill="#ffffff" height="56" stroke="none" width="13" x="928" y="408"/></g><g transform="translate(-158,2) scale(1,1)"><path d="M 928 408 L 941 408 L 941 464 L 928 464 L 928 408 Z Z" fill="none" stroke="#000000" stroke-miterlimit="10"/></g><g transform="translate(-158,2) scale(1,1)"><path d="M 941 432 L 1166 432" fill="none" stroke="#000000" stroke-miterlimit="10"/></g><g transform="translate(-158,2) scale(1,1)"><path d="M 1155.837325142376 436.209517756016 L 1166 432 L 1155.837325142376 427.790482243984" fill="#000000" stroke="none"/></g><g transform="translate(-158,2) scale(1,1)"><path d="M 1155.837325142376 436.209517756016 L 1166 432 L 1155.837325142376 427.790482243984 L 1155.837325142376 436.209517756016" fill="none" stroke="#000000" stroke-miterlimit="10"/></g><g transform="translate(-158,2) scale(1,1)"><g><path fill="none" stroke="none"/><text fill="#000000" font-family="Arial" font-size="13px" font-style="normal" font-weight="normal" stroke="none" text-decoration="none" x="951.601318359375" y="409.5">8 : queryScaricaMerci(codice_lotto,</text><text fill="#000000" font-family="Arial" font-size="13px" font-style="normal" font-weight="normal" stroke="none" text-decoration="none" x="1027.82080078125" y="422.5">quantita)</text></g></g><g transform="translate(-158,2) scale(1,1)"><rect fill="#ffffff" height="28" stroke="none" width="13" x="1166" y="432"/></g><g transform="translate(-158,2) scale(1,1)"><path d="M 1166 432 L 1179 432 L 1179 460 L 1166 460 L 1166 432 Z Z" fill="none" stroke="#000000" stroke-miterlimit="10"/></g><g transform="translate(-158,2) scale(1,1)"><path d="M 928 524 L 719 524" fill="none" stroke="#000000" stroke-dasharray="3" stroke-miterlimit="10"/></g><g transform="translate(-158,2) scale(1,1)"><path d="M 729.1626748576241 519.790482243984 L 719 524 L 729.1626748576241 528.209517756016" fill="none" stroke="#000000" stroke-miterlimit="10"/></g><g transform="translate(-158,2) scale(1,1)"><g><path fill="none" stroke="none"/><text fill="#000000" font-family="Arial" font-size="13px" font-style="normal" font-weight="normal" stroke="none" text-decoration="none" x="786.5" y="538.5">13 : quantita</text></g></g><g transform="translate(-158,2) scale(1,1)"><path d="M 1166 512 L 941 512" fill="none" stroke="#000000" stroke-dasharray="3" stroke-miterlimit="10"/></g><g transform="translate(-158,2) scale(1,1)"><path d="M 951.1626748576241 507.790482243984 L 941 512 L 951.1626748576241 516.209517756016" fill="none" stroke="#000000" stroke-miterlimit="10"/></g><g transform="translate(-158,2) scale(1,1)"><g><path fill="none" stroke="none"/><text fill="#000000" font-family="Arial" font-size="13px" font-style="normal" font-weight="normal" stroke="none" text-decoration="none" x="1016.5" y="526.5">12 : quantita</text></g></g><g transform="translate(-158,2) scale(1,1)"><path d="M 941 496 L 1166 496" fill="none" stroke="#000000" stroke-miterlimit="10"/></g><g transform="translate(-158,2) scale(1,1)"><path d="M 1155.837325142376 500.209517756016 L 1166 496 L 1155.837325142376 491.790482243984" fill="#000000" stroke="none"/></g><g transform="translate(-158,2) scale(1,1)"><path d="M 1155.837325142376 500.209517756016 L 1166 496 L 1155.837325142376 491.790482243984 L 1155.837325142376 500.209517756016" fill="none" stroke="#000000" stroke-miterlimit="10"/></g><g transform="translate(-158,2) scale(1,1)"><g><path fill="none" stroke="none"/><text fill="#000000" font-family="Arial" font-size="13px" font-style="normal" font-weight="normal" stroke="none" text-decoration="none" x="958.982421875" y="490.5">11 : queryQuantita( codice_lotto)</text></g></g><g transform="translate(-158,2) scale(1,1)"><rect fill="#ffffff" height="28" stroke="none" width="13" x="1166" y="496"/></g><g transform="translate(-158,2) scale(1,1)"><path d="M 1166 496 L 1179 496 L 1179 524 L 1166 524 L 1166 496 Z Z" fill="none" stroke="#000000" stroke-miterlimit="10"/></g><g transform="translate(-158,2) scale(1,1)"><path d="M 719 472 L 928 472" fill="none" stroke="#000000" stroke-miterlimit="10"/></g><g transform="translate(-158,2) scale(1,1)"><path d="M 917.8373251423759 476.209517756016 L 928 472 L 917.8373251423758 467.790482243984" fill="#000000" stroke="none"/></g><g transform="translate(-158,2) scale(1,1)"><path d="M 917.8373251423759 476.209517756016 L 928 472 L 917.8373251423758 467.790482243984 L 917.8373251423759 476.209517756016" fill="none" stroke="#000000" stroke-miterlimit="10"/></g><g transform="translate(-158,2) scale(1,1)"><g><path fill="none" stroke="none"/><text fill="#000000" font-family="Arial" font-size="13px" font-style="normal" font-weight="normal" stroke="none" text-decoration="none" x="733.54541015625" y="446.5">10 : controllaScorteFarmaco(</text><text fill="#000000" font-family="Arial" font-size="13px" font-style="normal" font-weight="normal" stroke="none" text-decoration="none" x="780.502197265625" y="459.5">codice_lotto)</text></g></g><g transform="translate(-158,2) scale(1,1)"><rect fill="#ffffff" height="64" stroke="none" width="13" x="928" y="472"/></g><g transform="translate(-158,2) scale(1,1)"><path d="M 928 472 L 941 472 L 941 536 L 928 536 L 928 472 Z Z" fill="none" stroke="#000000" stroke-miterlimit="10"/></g><g transform="translate(-158,2) scale(1,1)"><path d="M 1166 458 L 941 458" fill="none" stroke="#000000" stroke-dasharray="3" stroke-miterlimit="10"/></g><g transform="translate(-158,2) scale(1,1)"><path d="M 951.1626748576241 453.790482243984 L 941 458 L 951.1626748576241 462.209517756016" fill="none" stroke="#000000" stroke-miterlimit="10"/></g><g transform="translate(-158,2) scale(1,1)"><g><path fill="none" stroke="none"/><text fill="#000000" font-family="Arial" font-size="13px" font-style="normal" font-weight="normal" stroke="none" text-decoration="none" x="1029.114990234375" y="472.5">9 : esito</text></g></g><g transform="translate(-158,2) scale(1,1)"><path d="M 706 592 L 667.2666015625 592" fill="none" stroke="#000000" stroke-dasharray="3" stroke-miterlimit="10"/></g><g transform="translate(-158,2) scale(1,1)"><path d="M 677.4292764201241 587.790482243984 L 667.2666015625 592 L 677.4292764201241 596.209517756016" fill="none" stroke="#000000" stroke-miterlimit="10"/></g><g transform="translate(-158,2) scale(1,1)"><g><path fill="none" stroke="none"/><text fill="#000000" font-family="Arial" font-size="13px" font-style="normal" font-weight="normal" stroke="none" text-decoration="none" x="672.5" y="606.5">14 : </text></g></g><g transform="translate(-158,2) scale(1,1)"><g><path fill="none" stroke="none"/><text fill="#000000" font-family="Arial" font-size="13px" font-style="normal" font-weight="normal" stroke="none" text-decoration="none" x="659.5" y="621.5">«create»</text></g></g><g transform="translate(-158,2) scale(1,1)"><path d="M 245 638 L 599 638" fill="none" stroke="#000000" stroke-miterlimit="10"/></g><g transform="translate(-158,2) scale(1,1)"><path d="M 588.8373251423759 642.209517756016 L 599 638 L 588.8373251423758 633.790482243984" fill="#000000" stroke="none"/></g><g transform="translate(-158,2) scale(1,1)"><path d="M 588.8373251423759 642.209517756016 L 599 638 L 588.8373251423758 633.790482243984 L 588.8373251423759 642.209517756016" fill="none" stroke="#000000" stroke-miterlimit="10"/></g><g transform="translate(-158,2) scale(1,1)"><path d="M 596 670 L 616 690" fill="none" stroke="#000000" stroke-miterlimit="10"/></g><g transform="translate(-158,2) scale(1,1)"><path d="M 616 670 L 596 690" fill="none" stroke="#000000" stroke-miterlimit="10"/></g><g transform="translate(-158,2) scale(1,1)"><g><path fill="none" stroke="none"/><text fill="#000000" font-family="Arial" font-size="13px" font-style="normal" font-weight="normal" stroke="none" text-decoration="none" x="382.5" y="632.5">15 : conferma</text></g></g><g transform="translate(-158,2) scale(1,1)"><g><path fill="none" stroke="none"/><text fill="#000000" font-family="Arial" font-size="13px" font-style="normal" font-weight="normal" stroke="none" text-decoration="none" x="393.5" y="617.5">«destroy»</text></g></g><g transform="translate(-158,2) scale(1,1)"><rect fill="#ffffff" height="28" stroke="none" width="13" x="599" y="638"/></g><g transform="translate(-158,2) scale(1,1)"><path d="M 599 638 L 612 638 L 612 666 L 599 666 L 599 638 Z Z" fill="none" stroke="#000000" stroke-miterlimit="10"/></g><g transform="translate(-158,2) scale(1,1)"><path d="M 245 808 L 488 808" fill="none" stroke="#000000" stroke-miterlimit="10"/></g><g transform="translate(-158,2) scale(1,1)"><path d="M 477.83732514237585 812.209517756016 L 488 808 L 477.83732514237585 803.790482243984" fill="#000000" stroke="none"/></g><g transform="translate(-158,2) scale(1,1)"><path d="M 477.83732514237585 812.209517756016 L 488 808 L 477.83732514237585 803.790482243984 L 477.83732514237585 812.209517756016" fill="none" stroke="#000000" stroke-miterlimit="10"/></g><g transform="translate(-158,2) scale(1,1)"><path d="M 485 856 L 505 876" fill="none" stroke="#000000" stroke-miterlimit="10"/></g><g transform="translate(-158,2) scale(1,1)"><path d="M 505 856 L 485 876" fill="none" stroke="#000000" stroke-miterlimit="10"/></g><g transform="translate(-158,2) scale(1,1)"><g><path fill="none" stroke="none"/><text fill="#000000" font-family="Arial" font-size="13px" font-style="normal" font-weight="normal" stroke="none" text-decoration="none" x="319.5" y="802.5">16 : cliccaUscita</text></g></g><g transform="translate(-158,2) scale(1,1)"><g><path fill="none" stroke="none"/><text fill="#000000" font-family="Arial" font-size="13px" font-style="normal" font-weight="normal" stroke="none" text-decoration="none" x="337.5" y="787.5">«destroy»</text></g></g><g transform="translate(-158,2) scale(1,1)"><rect fill="#ffffff" height="28" stroke="none" width="13" x="488" y="808"/></g><g transform="translate(-158,2) scale(1,1)"><path d="M 488 808 L 501 808 L 501 836 L 488 836 L 488 808 Z Z" fill="none" stroke="#000000" stroke-miterlimit="10"/></g><g transform="translate(-158,2) scale(1,1)"><path d="M 501 824 L 706 824" fill="none" stroke="#000000" stroke-miterlimit="10"/></g><g transform="translate(-158,2) scale(1,1)"><path d="M 695.8373251423759 828.209517756016 L 706 824 L 695.8373251423758 819.790482243984" fill="#000000" stroke="none"/></g><g transform="translate(-158,2) scale(1,1)"><path d="M 695.8373251423759 828.209517756016 L 706 824 L 695.8373251423758 819.790482243984 L 695.8373251423759 828.209517756016" fill="none" stroke="#000000" stroke-miterlimit="10"/></g><g transform="translate(-158,2) scale(1,1)"><path d="M 703 918 L 723 938" fill="none" stroke="#000000" stroke-miterlimit="10"/></g><g transform="translate(-158,2) scale(1,1)"><path d="M 723 918 L 703 938" fill="none" stroke="#000000" stroke-miterlimit="10"/></g><g transform="translate(-158,2) scale(1,1)"><g><path fill="none" stroke="none"/><text fill="#000000" font-family="Arial" font-size="13px" font-style="normal" font-weight="normal" stroke="none" text-decoration="none" x="544.5" y="818.5">17 : distruggiControl</text></g></g><g transform="translate(-158,2) scale(1,1)"><g><path fill="none" stroke="none"/><text fill="#000000" font-family="Arial" font-size="13px" font-style="normal" font-weight="normal" stroke="none" text-decoration="none" x="574.5" y="803.5">«destroy»</text></g></g><g transform="translate(-158,2) scale(1,1)"><rect fill="#ffffff" height="28" stroke="none" width="13" x="706" y="824"/></g><g transform="translate(-158,2) scale(1,1)"><path d="M 706 824 L 719 824 L 719 852 L 706 852 L 706 824 Z Z" fill="none" stroke="#000000" stroke-miterlimit="10"/></g><g transform="translate(-158,2) scale(1,1)"><path d="M 192 224 L 1223 224 L 1223 888 L 192 888 L 192 224" fill="none" stroke="#000000" stroke-miterlimit="10"/></g><g transform="translate(-158,2) scale(1,1)"><path d="M 192 224 L 192 246 L 336.62255859375 246 L 347.62255859375 235 L 347.62255859375 224 L 192 224" fill="#ffffff" stroke="none"/></g><g transform="translate(-158,2) scale(1,1)"><path d="M 192 224 L 192 246 L 336.62255859375 246 L 347.62255859375 235 L 347.62255859375 224 L 192 224 L 192 224" fill="none" stroke="#000000" stroke-miterlimit="10"/></g><g transform="translate(-158,2) scale(1,1)"><g><path fill="none" stroke="none"/><text fill="#000000" font-family="Arial" font-size="13px" font-style="normal" font-weight="normal" stroke="none" text-decoration="none" x="227.578125" y="239.5">LoopScaricoMerci</text></g></g><g transform="translate(-158,2) scale(1,1)"><g><path fill="none" stroke="none"/><text fill="#000000" font-family="Arial" font-size="13px" font-style="normal" font-weight="bold" stroke="none" text-decoration="none" x="195.57177734375" y="239.5">loop</text></g></g><g transform="translate(-158,2) scale(1,1)"><g><path fill="none" stroke="none"/><text fill="#000000" font-family="Arial" font-size="13px" font-style="normal" font-weight="normal" stroke="none" text-decoration="none" x="211.5" y="272.5">[Il Farmacista non clicca il bottone di uscita]</text></g></g><g transform="translate(-158,2) scale(1,1)"><path d="M 208 544 L 727 544 L 727 768 L 208 768 L 208 544" fill="none" stroke="#000000" stroke-miterlimit="10"/></g><g transform="translate(-158,2) scale(1,1)"><path d="M 208 544 L 208 566 L 390.6767578125 566 L 401.6767578125 555 L 401.6767578125 544 L 208 544" fill="#ffffff" stroke="none"/></g><g transform="translate(-158,2) scale(1,1)"><path d="M 208 544 L 208 566 L 390.6767578125 566 L 401.6767578125 555 L 401.6767578125 544 L 208 544 L 208 544" fill="none" stroke="#000000" stroke-miterlimit="10"/></g><g transform="translate(-158,2) scale(1,1)"><g><path fill="none" stroke="none"/><text fill="#000000" font-family="Arial" font-size="13px" font-style="normal" font-weight="normal" stroke="none" text-decoration="none" x="237.07177734375" y="559.5">AvvisoEsaurimentoScorte</text></g></g><g transform="translate(-158,2) scale(1,1)"><g><path fill="none" stroke="none"/><text fill="#000000" font-family="Arial" font-size="13px" font-style="normal" font-weight="bold" stroke="none" text-decoration="none" x="211.930419921875" y="559.5">opt</text></g></g><g transform="translate(-158,2) scale(1,1)"><g><path fill="none" stroke="none"/><text fill="#000000" font-family="Arial" font-size="13px" font-style="normal" font-weight="normal" stroke="none" text-decoration="none" x="227.5" y="592.5">[quantita &lt; soglia]</text></g></g></g></svg>