<?xml version="1.0" encoding="UTF-8" standalone="no"?><svg xmlns="http://www.w3.org/2000/svg" xmlns:xlink="http://www.w3.org/1999/xlink" height="1190" version="1.1" width="933.4072265625"><defs/><g><g transform="translate(2,2) scale(1,1)"><path d="M 8 8 L 896 8 L 896 1144 L 8 1144 L 8 8" fill="none" stroke="#000000" stroke-miterlimit="10"/></g><g transform="translate(2,2) scale(1,1)"><path d="M 8 8 L 8 30 L 134.3095703125 30 L 145.3095703125 19 L 145.3095703125 8 L 8 8" fill="#ffffff" stroke="none"/></g><g transform="translate(2,2) scale(1,1)"><path d="M 8 8 L 8 30 L 134.3095703125 30 L 145.3095703125 19 L 145.3095703125 8 L 8 8 L 8 8" fill="none" stroke="#000000" stroke-miterlimit="10"/></g><g transform="translate(2,2) scale(1,1)"><g><path fill="none" stroke="none"/><text fill="#000000" font-family="Arial" font-size="13px" font-style="normal" font-weight="normal" stroke="none" text-decoration="none" x="32.72998046875" y="23.5">Visualizza Ordini</text></g></g><g transform="translate(2,2) scale(1,1)"><g><path fill="none" stroke="none"/><text fill="#000000" font-family="Arial" font-size="13px" font-style="normal" font-weight="bold" stroke="none" text-decoration="none" x="12.279541015625" y="23.5">sd</text></g></g><g transform="translate(2,2) scale(1,1)"><path d="M 78.7344833096591 47.3 C 78.7344833096591 43.82060576 81.61288503184092 41 85.16357421875 41 C 88.71426340565908 41 91.5926651278409 43.82060576 91.5926651278409 47.3 C 91.5926651278409 50.779394239999995 88.71426340565908 53.6 85.16357421875 53.6 C 81.61288503184092 53.6 78.7344833096591 50.779394239999995 78.7344833096591 47.3 Z" fill="#ffffff" stroke="none"/></g><g transform="translate(2,2) scale(1,1)"><path d="M 78.7344833096591 47.3 C 78.7344833096591 43.82060576 81.61288503184092 41 85.16357421875 41 C 88.71426340565908 41 91.5926651278409 43.82060576 91.5926651278409 47.3 C 91.5926651278409 50.779394239999995 88.71426340565908 53.6 85.16357421875 53.6 C 81.61288503184092 53.6 78.7344833096591 50.779394239999995 78.7344833096591 47.3 Z" fill="none" stroke="#000000" stroke-miterlimit="10"/></g><g transform="translate(2,2) scale(1,1)"><path d="M 85.16357421875 53.6 L 85.16357421875 66.4" fill="none" stroke="#000000" stroke-miterlimit="10"/></g><g transform="translate(2,2) scale(1,1)"><path d="M 78.35630149147727 58.4 L 91.97084694602273 58.4" fill="none" stroke="#000000" stroke-miterlimit="10"/></g><g transform="translate(2,2) scale(1,1)"><path d="M 85.16357421875 66.4 L 75.70902876420455 79" fill="none" stroke="#000000" stroke-miterlimit="10"/></g><g transform="translate(2,2) scale(1,1)"><path d="M 85.16357421875 66.4 L 94.61811967329545 79" fill="none" stroke="#000000" stroke-miterlimit="10"/></g><g transform="translate(2,2) scale(1,1)"><g><path fill="none" stroke="none"/><text fill="#000000" font-family="Arial" font-size="13px" font-style="normal" font-weight="bold" stroke="none" text-decoration="none" x="46.8681640625" y="97.5">: Farmacista</text></g></g><g transform="translate(2,2) scale(1,1)"><path d="M 86.5 105 L 86.5 154" fill="none" stroke="#000000" stroke-dasharray="3" stroke-miterlimit="10"/></g><g transform="translate(2,2) scale(1,1)"><rect fill="#C0C0C0" height="39" opacity="0.2" stroke="none" width="176.25048828125" x="415" y="131"/></g><g transform="translate(2,2) scale(1,1)"><rect fill="#ffffff" height="39" stroke="none" width="176.25048828125" x="408" y="124"/></g><g transform="translate(2,2) scale(1,1)"><path d="M 408 124 L 584.25048828125 124 L 584.25048828125 163 L 408 163 L 408 124 Z Z" fill="none" stroke="#000000" stroke-miterlimit="10"/></g><g transform="translate(2,2) scale(1,1)"><g><path fill="none" stroke="none"/><text fill="#000000" font-family="Arial" font-size="13px" font-style="normal" font-weight="normal" stroke="none" text-decoration="none" x="467.941650390625" y="139.5">«Control»</text></g></g><g transform="translate(2,2) scale(1,1)"><g><path fill="none" stroke="none"/><text fill="#000000" font-family="Arial" font-size="13px" font-style="normal" font-weight="bold" stroke="none" text-decoration="none" x="417.5" y="154.5">: GestoreVisualizzaOrdini</text></g></g><g transform="translate(2,2) scale(1,1)"><path d="M 497.5 164 L 497.5 1161" fill="none" stroke="#000000" stroke-dasharray="3" stroke-miterlimit="10"/></g><g transform="translate(2,2) scale(1,1)"><rect fill="#C0C0C0" height="39" opacity="0.2" stroke="none" width="192.1513671875" x="223" y="283"/></g><g transform="translate(2,2) scale(1,1)"><rect fill="#ffffff" height="39" stroke="none" width="192.1513671875" x="216" y="276"/></g><g transform="translate(2,2) scale(1,1)"><path d="M 216 276 L 408.1513671875 276 L 408.1513671875 315 L 216 315 L 216 276 Z Z" fill="none" stroke="#000000" stroke-miterlimit="10"/></g><g transform="translate(2,2) scale(1,1)"><g><path fill="none" stroke="none"/><text fill="#000000" font-family="Arial" font-size="13px" font-style="normal" font-weight="normal" stroke="none" text-decoration="none" x="277.020751953125" y="291.5">«Boundary»</text></g></g><g transform="translate(2,2) scale(1,1)"><g><path fill="none" stroke="none"/><text fill="#000000" font-family="Arial" font-size="13px" font-style="normal" font-weight="bold" stroke="none" text-decoration="none" x="225.5" y="306.5">: InterfacciaVisualizzaOrdini</text></g></g><g transform="translate(2,2) scale(1,1)"><path d="M 313.5 316 L 313.5 453" fill="none" stroke="#000000" stroke-dasharray="3" stroke-miterlimit="10"/></g><g transform="translate(2,2) scale(1,1)"><path d="M 834.274522372159 47.3 C 834.274522372159 43.82060576 837.152924094341 41 840.70361328125 41 C 844.254302468159 41 847.1327041903409 43.82060576 847.1327041903409 47.3 C 847.1327041903409 50.779394239999995 844.254302468159 53.6 840.70361328125 53.6 C 837.152924094341 53.6 834.274522372159 50.779394239999995 834.274522372159 47.3 Z" fill="#ffffff" stroke="none"/></g><g transform="translate(2,2) scale(1,1)"><path d="M 834.274522372159 47.3 C 834.274522372159 43.82060576 837.152924094341 41 840.70361328125 41 C 844.254302468159 41 847.1327041903409 43.82060576 847.1327041903409 47.3 C 847.1327041903409 50.779394239999995 844.254302468159 53.6 840.70361328125 53.6 C 837.152924094341 53.6 834.274522372159 50.779394239999995 834.274522372159 47.3 Z" fill="none" stroke="#000000" stroke-miterlimit="10"/></g><g transform="translate(2,2) scale(1,1)"><path d="M 840.70361328125 53.6 L 840.70361328125 66.4" fill="none" stroke="#000000" stroke-miterlimit="10"/></g><g transform="translate(2,2) scale(1,1)"><path d="M 833.8963405539772 58.4 L 847.5108860085227 58.4" fill="none" stroke="#000000" stroke-miterlimit="10"/></g><g transform="translate(2,2) scale(1,1)"><path d="M 840.70361328125 66.4 L 831.2490678267045 79" fill="none" stroke="#000000" stroke-miterlimit="10"/></g><g transform="translate(2,2) scale(1,1)"><path d="M 840.70361328125 66.4 L 850.1581587357954 79" fill="none" stroke="#000000" stroke-miterlimit="10"/></g><g transform="translate(2,2) scale(1,1)"><g><path fill="none" stroke="none"/><text fill="#000000" font-family="Arial" font-size="13px" font-style="normal" font-weight="bold" stroke="none" text-decoration="none" x="790.8681640625" y="97.5">: DBMS Azienda</text></g></g><g transform="translate(2,2) scale(1,1)"><path d="M 841.5 105 L 841.5 424" fill="none" stroke="#000000" stroke-dasharray="3" stroke-miterlimit="10"/></g><g transform="translate(2,2) scale(1,1)"><rect fill="#C0C0C0" height="39" opacity="0.2" stroke="none" width="108.5654296875" x="631" y="47"/></g><g transform="translate(2,2) scale(1,1)"><rect fill="#ffffff" height="39" stroke="none" width="108.5654296875" x="624" y="40"/></g><g transform="translate(2,2) scale(1,1)"><path d="M 624 40 L 732.5654296875 40 L 732.5654296875 79 L 624 79 L 624 40 Z Z" fill="none" stroke="#000000" stroke-miterlimit="10"/></g><g transform="translate(2,2) scale(1,1)"><g><path fill="none" stroke="none"/><text fill="#000000" font-family="Arial" font-size="13px" font-style="normal" font-weight="normal" stroke="none" text-decoration="none" x="643.227783203125" y="55.5">«Boundary»</text></g></g><g transform="translate(2,2) scale(1,1)"><g><path fill="none" stroke="none"/><text fill="#000000" font-family="Arial" font-size="13px" font-style="normal" font-weight="bold" stroke="none" text-decoration="none" x="633.5" y="70.5">DBMSDaemon</text></g></g><g transform="translate(2,2) scale(1,1)"><path d="M 679.5 80 L 679.5 415" fill="none" stroke="#000000" stroke-dasharray="3" stroke-miterlimit="10"/></g><g transform="translate(2,2) scale(1,1)"><rect fill="#C0C0C0" height="39" opacity="0.2" stroke="none" width="87.6181640625" x="327" y="395"/></g><g transform="translate(2,2) scale(1,1)"><rect fill="#ffffff" height="39" stroke="none" width="87.6181640625" x="320" y="388"/></g><g transform="translate(2,2) scale(1,1)"><path d="M 320 388 L 407.6181640625 388 L 407.6181640625 427 L 320 427 L 320 388 Z Z" fill="none" stroke="#000000" stroke-miterlimit="10"/></g><g transform="translate(2,2) scale(1,1)"><g><path fill="none" stroke="none"/><text fill="#000000" font-family="Arial" font-size="13px" font-style="normal" font-weight="normal" stroke="none" text-decoration="none" x="340.32275390625" y="403.5">«Entity»</text></g></g><g transform="translate(2,2) scale(1,1)"><g><path fill="none" stroke="none"/><text fill="#000000" font-family="Arial" font-size="13px" font-style="normal" font-weight="bold" stroke="none" text-decoration="none" x="329.5" y="418.5">ListaOrdini</text></g></g><g transform="translate(2,2) scale(1,1)"><path d="M 364.5 428 L 364.5 738" fill="none" stroke="#000000" stroke-dasharray="3" stroke-miterlimit="10"/></g><g transform="translate(2,2) scale(1,1)"><rect fill="#C0C0C0" height="39" opacity="0.2" stroke="none" width="71.736328125" x="127" y="243"/></g><g transform="translate(2,2) scale(1,1)"><rect fill="#ffffff" height="39" stroke="none" width="71.736328125" x="120" y="236"/></g><g transform="translate(2,2) scale(1,1)"><path d="M 120 236 L 191.736328125 236 L 191.736328125 275 L 120 275 L 120 236 Z Z" fill="none" stroke="#000000" stroke-miterlimit="10"/></g><g transform="translate(2,2) scale(1,1)"><g><path fill="none" stroke="none"/><text fill="#000000" font-family="Arial" font-size="13px" font-style="normal" font-weight="normal" stroke="none" text-decoration="none" x="132.3818359375" y="251.5">«Entity»</text></g></g><g transform="translate(2,2) scale(1,1)"><g><path fill="none" stroke="none"/><text fill="#000000" font-family="Arial" font-size="13px" font-style="normal" font-weight="bold" stroke="none" text-decoration="none" x="141.779541015625" y="266.5">Data</text></g></g><g transform="translate(2,2) scale(1,1)"><path d="M 156.5 276 L 156.5 467" fill="none" stroke="#000000" stroke-dasharray="3" stroke-miterlimit="10"/></g><g transform="translate(2,2) scale(1,1)"><rect fill="#C0C0C0" height="39" opacity="0.2" stroke="none" width="273.62353515625" x="199" y="843"/></g><g transform="translate(2,2) scale(1,1)"><rect fill="#ffffff" height="39" stroke="none" width="273.62353515625" x="192" y="836"/></g><g transform="translate(2,2) scale(1,1)"><path d="M 192 836 L 465.62353515625 836 L 465.62353515625 875 L 192 875 L 192 836 Z Z" fill="none" stroke="#000000" stroke-miterlimit="10"/></g><g transform="translate(2,2) scale(1,1)"><g><path fill="none" stroke="none"/><text fill="#000000" font-family="Arial" font-size="13px" font-style="normal" font-weight="normal" stroke="none" text-decoration="none" x="293.7568359375" y="851.5">«Boundary»</text></g></g><g transform="translate(2,2) scale(1,1)"><g><path fill="none" stroke="none"/><text fill="#000000" font-family="Arial" font-size="13px" font-style="normal" font-weight="bold" stroke="none" text-decoration="none" x="201.5" y="866.5">: BottoneCaricoMerci[id = codice_ordine]</text></g></g><g transform="translate(2,2) scale(1,1)"><path d="M 329.5 876 L 329.5 925" fill="none" stroke="#000000" stroke-dasharray="3" stroke-miterlimit="10"/></g><g transform="translate(2,2) scale(1,1)"><rect fill="#C0C0C0" height="39" opacity="0.2" stroke="none" width="170.658203125" x="239" y="1019"/></g><g transform="translate(2,2) scale(1,1)"><rect fill="#ffffff" height="39" stroke="none" width="170.658203125" x="232" y="1012"/></g><g transform="translate(2,2) scale(1,1)"><path d="M 232 1012 L 402.658203125 1012 L 402.658203125 1051 L 232 1051 L 232 1012 Z Z" fill="none" stroke="#000000" stroke-miterlimit="10"/></g><g transform="translate(2,2) scale(1,1)"><g><path fill="none" stroke="none"/><text fill="#000000" font-family="Arial" font-size="13px" font-style="normal" font-weight="normal" stroke="none" text-decoration="none" x="282.274169921875" y="1027.5">«Boundary»</text></g></g><g transform="translate(2,2) scale(1,1)"><g><path fill="none" stroke="none"/><text fill="#000000" font-family="Arial" font-size="13px" font-style="normal" font-weight="bold" stroke="none" text-decoration="none" x="241.5" y="1042.5">: BottoneModificaOrdine</text></g></g><g transform="translate(2,2) scale(1,1)"><path d="M 318.5 1052 L 318.5 1178" fill="none" stroke="#000000" stroke-dasharray="3" stroke-miterlimit="10"/></g><g transform="translate(2,2) scale(1,1)"><rect fill="#C0C0C0" height="39" opacity="0.2" stroke="none" width="91.00146484375" x="279" y="651"/></g><g transform="translate(2,2) scale(1,1)"><rect fill="#ffffff" height="39" stroke="none" width="91.00146484375" x="272" y="644"/></g><g transform="translate(2,2) scale(1,1)"><path d="M 272 644 L 363.00146484375 644 L 363.00146484375 683 L 272 683 L 272 644 Z Z" fill="none" stroke="#000000" stroke-miterlimit="10"/></g><g transform="translate(2,2) scale(1,1)"><g><path fill="none" stroke="none"/><text fill="#000000" font-family="Arial" font-size="13px" font-style="normal" font-weight="normal" stroke="none" text-decoration="none" x="282.44580078125" y="659.5">«Boundary»</text></g></g><g transform="translate(2,2) scale(1,1)"><g><path fill="none" stroke="none"/><text fill="#000000" font-family="Arial" font-size="13px" font-style="normal" font-weight="bold" stroke="none" text-decoration="none" x="281.5" y="674.5">VoceOrdine</text></g></g><g transform="translate(2,2) scale(1,1)"><path d="M 318.5 684 L 318.5 760" fill="none" stroke="#000000" stroke-dasharray="3" stroke-miterlimit="10"/></g><g transform="translate(2,2) scale(1,1)"><path d="M 504 664 L 595.8271484375 664 L 605.8271484375 674 L 605.8271484375 752 L 504 752 L 504 664" fill="#ffffff" stroke="none"/></g><g transform="translate(2,2) scale(1,1)"><path d="M 504 664 L 595.8271484375 664 L 605.8271484375 674 L 605.8271484375 752 L 504 752 L 504 664 L 504 664" fill="none" stroke="#000000" stroke-miterlimit="10"/></g><g transform="translate(2,2) scale(1,1)"><path d="M 595.8271484375 664 L 595.8271484375 674 L 605.8271484375 674 L 595.8271484375 664" fill="none" stroke="#000000" stroke-miterlimit="10"/></g><g transform="translate(2,2) scale(1,1)"><g><path fill="none" stroke="none"/><text fill="#000000" font-family="Arial" font-size="13px" font-style="normal" font-weight="normal" stroke="none" text-decoration="none" x="509" y="678">Probabilmente</text><text fill="#000000" font-family="Arial" font-size="13px" font-style="normal" font-weight="normal" stroke="none" text-decoration="none" x="509" y="691">dobbiamo</text><text fill="#000000" font-family="Arial" font-size="13px" font-style="normal" font-weight="normal" stroke="none" text-decoration="none" x="509" y="704">aggiungere una</text><text fill="#000000" font-family="Arial" font-size="13px" font-style="normal" font-weight="normal" stroke="none" text-decoration="none" x="509" y="717">entity Ordine</text></g></g><g transform="translate(2,2) scale(1,1)"><rect fill="#C0C0C0" height="39" opacity="0.2" stroke="none" width="262.83251953125" x="143" y="47"/></g><g transform="translate(2,2) scale(1,1)"><rect fill="#ffffff" height="39" stroke="none" width="262.83251953125" x="136" y="40"/></g><g transform="translate(2,2) scale(1,1)"><path d="M 136 40 L 398.83251953125 40 L 398.83251953125 79 L 136 79 L 136 40 Z Z" fill="none" stroke="#000000" stroke-miterlimit="10"/></g><g transform="translate(2,2) scale(1,1)"><g><path fill="none" stroke="none"/><text fill="#000000" font-family="Arial" font-size="13px" font-style="normal" font-weight="normal" stroke="none" text-decoration="none" x="232.361328125" y="55.5">«Boundary»</text></g></g><g transform="translate(2,2) scale(1,1)"><g><path fill="none" stroke="none"/><text fill="#000000" font-family="Arial" font-size="13px" font-style="normal" font-weight="bold" stroke="none" text-decoration="none" x="145.5" y="70.5">: InterfacciaPrincipale[tipo=Farmacista]</text></g></g><g transform="translate(2,2) scale(1,1)"><path d="M 268.5 80 L 268.5 216" fill="none" stroke="#000000" stroke-dasharray="3" stroke-miterlimit="10"/></g><g transform="translate(2,2) scale(1,1)"><path d="M 86 128 L 261 128" fill="none" stroke="#000000" stroke-miterlimit="10"/></g><g transform="translate(2,2) scale(1,1)"><path d="M 250.83732514237585 132.209517756016 L 261 128 L 250.83732514237585 123.79048224398402" fill="#000000" stroke="none"/></g><g transform="translate(2,2) scale(1,1)"><path d="M 250.83732514237585 132.209517756016 L 261 128 L 250.83732514237585 123.79048224398402 L 250.83732514237585 132.209517756016" fill="none" stroke="#000000" stroke-miterlimit="10"/></g><g transform="translate(2,2) scale(1,1)"><g><path fill="none" stroke="none"/><text fill="#000000" font-family="Arial" font-size="13px" font-style="normal" font-weight="normal" stroke="none" text-decoration="none" x="99.5" y="121.5">1 : cliccaVisualizzaOrdini</text></g></g><g transform="translate(2,2) scale(1,1)"><rect fill="#ffffff" height="28" stroke="none" width="13" x="261" y="128"/></g><g transform="translate(2,2) scale(1,1)"><path d="M 261 128 L 274 128 L 274 156 L 261 156 L 261 128 Z Z" fill="none" stroke="#000000" stroke-miterlimit="10"/></g><g transform="translate(2,2) scale(1,1)"><path d="M 274 144 L 408 144" fill="none" stroke="#000000" stroke-dasharray="3" stroke-miterlimit="10"/></g><g transform="translate(2,2) scale(1,1)"><path d="M 397.83732514237585 148.209517756016 L 408 144 L 397.83732514237585 139.790482243984" fill="none" stroke="#000000" stroke-miterlimit="10"/></g><g transform="translate(2,2) scale(1,1)"><g><path fill="none" stroke="none"/><text fill="#000000" font-family="Arial" font-size="13px" font-style="normal" font-weight="normal" stroke="none" text-decoration="none" x="332.114990234375" y="138.5">2 : </text></g></g><g transform="translate(2,2) scale(1,1)"><g><path fill="none" stroke="none"/><text fill="#000000" font-family="Arial" font-size="13px" font-style="normal" font-weight="normal" stroke="none" text-decoration="none" x="315.5" y="123.5">«create»</text></g></g><g transform="translate(2,2) scale(1,1)"><path d="M 497 184 L 527 184 L 527 204 L 503 204" fill="none" stroke="#000000" stroke-miterlimit="10"/></g><g transform="translate(2,2) scale(1,1)"><path d="M 513.1626748576241 199.790482243984 L 503 204 L 513.1626748576241 208.209517756016" fill="#000000" stroke="none"/></g><g transform="translate(2,2) scale(1,1)"><path d="M 513.1626748576241 199.790482243984 L 503 204 L 513.1626748576241 208.209517756016 L 513.1626748576241 199.790482243984" fill="none" stroke="#000000" stroke-miterlimit="10"/></g><g transform="translate(2,2) scale(1,1)"><g><path fill="none" stroke="none"/><text fill="#000000" font-family="Arial" font-size="13px" font-style="normal" font-weight="normal" stroke="none" text-decoration="none" x="534.5" y="202.5">3 : chiediData</text></g></g><g transform="translate(2,2) scale(1,1)"><rect fill="#ffffff" height="28" stroke="none" width="13" x="490" y="204"/></g><g transform="translate(2,2) scale(1,1)"><path d="M 490 204 L 503 204 L 503 232 L 490 232 L 490 204 Z Z" fill="none" stroke="#000000" stroke-miterlimit="10"/></g><g transform="translate(2,2) scale(1,1)"><path d="M 497 256 L 191.736328125 256" fill="none" stroke="#000000" stroke-dasharray="3" stroke-miterlimit="10"/></g><g transform="translate(2,2) scale(1,1)"><path d="M 201.89900298262415 251.790482243984 L 191.736328125 256 L 201.89900298262415 260.209517756016" fill="none" stroke="#000000" stroke-miterlimit="10"/></g><g transform="translate(2,2) scale(1,1)"><g><path fill="none" stroke="none"/><text fill="#000000" font-family="Arial" font-size="13px" font-style="normal" font-weight="normal" stroke="none" text-decoration="none" x="331.5" y="233.5">4 : </text></g></g><g transform="translate(2,2) scale(1,1)"><g><path fill="none" stroke="none"/><text fill="#000000" font-family="Arial" font-size="13px" font-style="normal" font-weight="normal" stroke="none" text-decoration="none" x="316.5" y="249.5">«create»</text></g></g><g transform="translate(2,2) scale(1,1)"><path d="M 497 296 L 408.1513671875 296" fill="none" stroke="#000000" stroke-dasharray="3" stroke-miterlimit="10"/></g><g transform="translate(2,2) scale(1,1)"><path d="M 418.31404204512415 291.790482243984 L 408.1513671875 296 L 418.31404204512415 300.209517756016" fill="none" stroke="#000000" stroke-miterlimit="10"/></g><g transform="translate(2,2) scale(1,1)"><g><path fill="none" stroke="none"/><text fill="#000000" font-family="Arial" font-size="13px" font-style="normal" font-weight="normal" stroke="none" text-decoration="none" x="442.114990234375" y="310.5">5 : </text></g></g><g transform="translate(2,2) scale(1,1)"><g><path fill="none" stroke="none"/><text fill="#000000" font-family="Arial" font-size="13px" font-style="normal" font-weight="normal" stroke="none" text-decoration="none" x="425.5" y="325.5">«create»</text></g></g><g transform="translate(2,2) scale(1,1)"><path d="M 497 312 L 672 312" fill="none" stroke="#000000" stroke-miterlimit="10"/></g><g transform="translate(2,2) scale(1,1)"><path d="M 661.8373251423759 316.209517756016 L 672 312 L 661.8373251423758 307.790482243984" fill="#000000" stroke="none"/></g><g transform="translate(2,2) scale(1,1)"><path d="M 661.8373251423759 316.209517756016 L 672 312 L 661.8373251423758 307.790482243984 L 661.8373251423759 316.209517756016" fill="none" stroke="#000000" stroke-miterlimit="10"/></g><g transform="translate(2,2) scale(1,1)"><g><path fill="none" stroke="none"/><text fill="#000000" font-family="Arial" font-size="13px" font-style="normal" font-weight="normal" stroke="none" text-decoration="none" x="541.114990234375" y="306.5">6 : chiediOrdini</text></g></g><g transform="translate(2,2) scale(1,1)"><rect fill="#ffffff" height="80" stroke="none" width="13" x="672" y="312"/></g><g transform="translate(2,2) scale(1,1)"><path d="M 672 312 L 685 312 L 685 392 L 672 392 L 672 312 Z Z" fill="none" stroke="#000000" stroke-miterlimit="10"/></g><g transform="translate(2,2) scale(1,1)"><path d="M 685 336 L 834 336" fill="none" stroke="#000000" stroke-miterlimit="10"/></g><g transform="translate(2,2) scale(1,1)"><path d="M 823.8373251423759 340.209517756016 L 834 336 L 823.8373251423758 331.790482243984" fill="#000000" stroke="none"/></g><g transform="translate(2,2) scale(1,1)"><path d="M 823.8373251423759 340.209517756016 L 834 336 L 823.8373251423758 331.790482243984 L 823.8373251423759 340.209517756016" fill="none" stroke="#000000" stroke-miterlimit="10"/></g><g transform="translate(2,2) scale(1,1)"><g><path fill="none" stroke="none"/><text fill="#000000" font-family="Arial" font-size="13px" font-style="normal" font-weight="normal" stroke="none" text-decoration="none" x="715.391357421875" y="330.5">7 : chiediOrdini</text></g></g><g transform="translate(2,2) scale(1,1)"><rect fill="#ffffff" height="56" stroke="none" width="13" x="834" y="336"/></g><g transform="translate(2,2) scale(1,1)"><path d="M 834 336 L 847 336 L 847 392 L 834 392 L 834 336 Z Z" fill="none" stroke="#000000" stroke-miterlimit="10"/></g><g transform="translate(2,2) scale(1,1)"><path d="M 834 376 L 685 376" fill="none" stroke="#000000" stroke-dasharray="3" stroke-miterlimit="10"/></g><g transform="translate(2,2) scale(1,1)"><path d="M 695.1626748576241 371.790482243984 L 685 376 L 695.1626748576241 380.209517756016" fill="none" stroke="#000000" stroke-miterlimit="10"/></g><g transform="translate(2,2) scale(1,1)"><g><path fill="none" stroke="none"/><text fill="#000000" font-family="Arial" font-size="13px" font-style="normal" font-weight="normal" stroke="none" text-decoration="none" x="733.114990234375" y="390.5">8 : ordini</text></g></g><g transform="translate(2,2) scale(1,1)"><path d="M 672 384 L 497 384" fill="none" stroke="#000000" stroke-dasharray="3" stroke-miterlimit="10"/></g><g transform="translate(2,2) scale(1,1)"><path d="M 507.16267485762415 379.790482243984 L 497 384 L 507.16267485762415 388.209517756016" fill="none" stroke="#000000" stroke-miterlimit="10"/></g><g transform="translate(2,2) scale(1,1)"><g><path fill="none" stroke="none"/><text fill="#000000" font-family="Arial" font-size="13px" font-style="normal" font-weight="normal" stroke="none" text-decoration="none" x="558.114990234375" y="398.5">9 : ordini</text></g></g><g transform="translate(2,2) scale(1,1)"><path d="M 497 408 L 407.6181640625 408" fill="none" stroke="#000000" stroke-dasharray="3" stroke-miterlimit="10"/></g><g transform="translate(2,2) scale(1,1)"><path d="M 417.78083892012415 403.790482243984 L 407.6181640625 408 L 417.78083892012415 412.209517756016" fill="none" stroke="#000000" stroke-miterlimit="10"/></g><g transform="translate(2,2) scale(1,1)"><g><path fill="none" stroke="none"/><text fill="#000000" font-family="Arial" font-size="13px" font-style="normal" font-weight="normal" stroke="none" text-decoration="none" x="438.5" y="422.5">10 : </text></g></g><g transform="translate(2,2) scale(1,1)"><g><path fill="none" stroke="none"/><text fill="#000000" font-family="Arial" font-size="13px" font-style="normal" font-weight="normal" stroke="none" text-decoration="none" x="425.5" y="437.5">«create»</text></g></g><g transform="translate(2,2) scale(1,1)"><path d="M 497 584 L 370 584" fill="none" stroke="#000000" stroke-miterlimit="10"/></g><g transform="translate(2,2) scale(1,1)"><path d="M 380.16267485762415 579.790482243984 L 370 584 L 380.16267485762415 588.209517756016" fill="#000000" stroke="none"/></g><g transform="translate(2,2) scale(1,1)"><path d="M 380.16267485762415 579.790482243984 L 370 584 L 380.16267485762415 588.209517756016 L 380.16267485762415 579.790482243984" fill="none" stroke="#000000" stroke-miterlimit="10"/></g><g transform="translate(2,2) scale(1,1)"><g><path fill="none" stroke="none"/><text fill="#000000" font-family="Arial" font-size="13px" font-style="normal" font-weight="normal" stroke="none" text-decoration="none" x="379.982421875" y="598.5">11 : getDatiOrdine</text></g></g><g transform="translate(2,2) scale(1,1)"><rect fill="#ffffff" height="28" stroke="none" width="13" x="357" y="584"/></g><g transform="translate(2,2) scale(1,1)"><path d="M 357 584 L 370 584 L 370 612 L 357 612 L 357 584 Z Z" fill="none" stroke="#000000" stroke-miterlimit="10"/></g><g transform="translate(2,2) scale(1,1)"><path d="M 497 664 L 363.00146484375 664" fill="none" stroke="#000000" stroke-dasharray="3" stroke-miterlimit="10"/></g><g transform="translate(2,2) scale(1,1)"><path d="M 373.16413970137415 659.790482243984 L 363.00146484375 664 L 373.16413970137415 668.209517756016" fill="none" stroke="#000000" stroke-miterlimit="10"/></g><g transform="translate(2,2) scale(1,1)"><g><path fill="none" stroke="none"/><text fill="#000000" font-family="Arial" font-size="13px" font-style="normal" font-weight="normal" stroke="none" text-decoration="none" x="416.5" y="678.5">12 : </text></g></g><g transform="translate(2,2) scale(1,1)"><g><path fill="none" stroke="none"/><text fill="#000000" font-family="Arial" font-size="13px" font-style="normal" font-weight="normal" stroke="none" text-decoration="none" x="403.5" y="693.5">«create»</text></g></g><g transform="translate(2,2) scale(1,1)"><path d="M 497 856 L 465.62353515625 856" fill="none" stroke="#000000" stroke-dasharray="3" stroke-miterlimit="10"/></g><g transform="translate(2,2) scale(1,1)"><path d="M 475.78621001387415 851.790482243984 L 465.62353515625 856 L 475.78621001387415 860.209517756016" fill="none" stroke="#000000" stroke-miterlimit="10"/></g><g transform="translate(2,2) scale(1,1)"><g><path fill="none" stroke="none"/><text fill="#000000" font-family="Arial" font-size="13px" font-style="normal" font-weight="normal" stroke="none" text-decoration="none" x="467.5" y="870.5">13 : </text></g></g><g transform="translate(2,2) scale(1,1)"><g><path fill="none" stroke="none"/><text fill="#000000" font-family="Arial" font-size="13px" font-style="normal" font-weight="normal" stroke="none" text-decoration="none" x="454.5" y="885.5">«create»</text></g></g><g transform="translate(2,2) scale(1,1)"><path d="M 497 1032 L 402.658203125 1032" fill="none" stroke="#000000" stroke-dasharray="3" stroke-miterlimit="10"/></g><g transform="translate(2,2) scale(1,1)"><path d="M 412.82087798262415 1027.7904822439841 L 402.658203125 1032 L 412.82087798262415 1036.2095177560159" fill="none" stroke="#000000" stroke-miterlimit="10"/></g><g transform="translate(2,2) scale(1,1)"><g><path fill="none" stroke="none"/><text fill="#000000" font-family="Arial" font-size="13px" font-style="normal" font-weight="normal" stroke="none" text-decoration="none" x="435.5" y="1046.5">14 : </text></g></g><g transform="translate(2,2) scale(1,1)"><g><path fill="none" stroke="none"/><text fill="#000000" font-family="Arial" font-size="13px" font-style="normal" font-weight="normal" stroke="none" text-decoration="none" x="422.5" y="1061.5">«create»</text></g></g><g transform="translate(2,2) scale(1,1)"><path d="M 32 528 L 616 528 L 616 1128 L 32 1128 L 32 528" fill="none" stroke="#000000" stroke-miterlimit="10"/></g><g transform="translate(2,2) scale(1,1)"><path d="M 32 528 L 32 550 L 159.287109375 550 L 170.287109375 539 L 170.287109375 528 L 32 528" fill="#ffffff" stroke="none"/></g><g transform="translate(2,2) scale(1,1)"><path d="M 32 528 L 32 550 L 159.287109375 550 L 170.287109375 539 L 170.287109375 528 L 32 528 L 32 528" fill="none" stroke="#000000" stroke-miterlimit="10"/></g><g transform="translate(2,2) scale(1,1)"><g><path fill="none" stroke="none"/><text fill="#000000" font-family="Arial" font-size="13px" font-style="normal" font-weight="normal" stroke="none" text-decoration="none" x="67.578125" y="543.5">PerOgniOrdine</text></g></g><g transform="translate(2,2) scale(1,1)"><g><path fill="none" stroke="none"/><text fill="#000000" font-family="Arial" font-size="13px" font-style="normal" font-weight="bold" stroke="none" text-decoration="none" x="35.57177734375" y="543.5">loop</text></g></g><g transform="translate(2,2) scale(1,1)"><g><path fill="none" stroke="none"/><text fill="#000000" font-family="Arial" font-size="13px" font-style="normal" font-weight="normal" stroke="none" text-decoration="none" x="51.5" y="576.5">[per ogni ordine]</text></g></g><g transform="translate(2,2) scale(1,1)"><path d="M 48 776 L 560 776 L 560 920 L 48 920 L 48 776" fill="none" stroke="#000000" stroke-miterlimit="10"/></g><g transform="translate(2,2) scale(1,1)"><path d="M 48 776 L 48 798 L 82.07177734375 798 L 93.07177734375 787 L 93.07177734375 776 L 48 776" fill="#ffffff" stroke="none"/></g><g transform="translate(2,2) scale(1,1)"><path d="M 48 776 L 48 798 L 82.07177734375 798 L 93.07177734375 787 L 93.07177734375 776 L 48 776 L 48 776" fill="none" stroke="#000000" stroke-miterlimit="10"/></g><g transform="translate(2,2) scale(1,1)"><g><path fill="none" stroke="none"/><text fill="#000000" font-family="Arial" font-size="13px" font-style="normal" font-weight="bold" stroke="none" text-decoration="none" x="51.930419921875" y="791.5">opt</text></g></g><g transform="translate(2,2) scale(1,1)"><g><path fill="none" stroke="none"/><text fill="#000000" font-family="Arial" font-size="13px" font-style="normal" font-weight="normal" stroke="none" text-decoration="none" x="67.5" y="824.5">[Data di consegna==Data]</text></g></g><g transform="translate(2,2) scale(1,1)"><path d="M 48 928 L 560 928 L 560 1120 L 48 1120 L 48 928" fill="none" stroke="#000000" stroke-miterlimit="10"/></g><g transform="translate(2,2) scale(1,1)"><path d="M 48 928 L 48 950 L 82.07177734375 950 L 93.07177734375 939 L 93.07177734375 928 L 48 928" fill="#ffffff" stroke="none"/></g><g transform="translate(2,2) scale(1,1)"><path d="M 48 928 L 48 950 L 82.07177734375 950 L 93.07177734375 939 L 93.07177734375 928 L 48 928 L 48 928" fill="none" stroke="#000000" stroke-miterlimit="10"/></g><g transform="translate(2,2) scale(1,1)"><g><path fill="none" stroke="none"/><text fill="#000000" font-family="Arial" font-size="13px" font-style="normal" font-weight="bold" stroke="none" text-decoration="none" x="51.930419921875" y="943.5">opt</text></g></g><g transform="translate(2,2) scale(1,1)"><g><path fill="none" stroke="none"/><text fill="#000000" font-family="Arial" font-size="13px" font-style="normal" font-weight="normal" stroke="none" text-decoration="none" x="67.5" y="976.5">[Intercorrono almeno 2 giorni tra la data di consegna e la data di oggi]</text></g></g></g></svg>