<?xml version="1.0" encoding="UTF-8" standalone="no"?><svg xmlns="http://www.w3.org/2000/svg" xmlns:xlink="http://www.w3.org/1999/xlink" height="572" version="1.1" width="628"><defs/><g><g transform="translate(-302,-278) scale(1,1)"><path d="M 312 288 L 920 288 L 920 840 L 312 840 L 312 288" fill="none" stroke="#000000" stroke-miterlimit="10"/></g><g transform="translate(-302,-278) scale(1,1)"><path d="M 312 288 L 312 310 L 432.05078125 310 L 443.05078125 299 L 443.05078125 288 L 312 288" fill="#ffffff" stroke="none"/></g><g transform="translate(-302,-278) scale(1,1)"><path d="M 312 288 L 312 310 L 432.05078125 310 L 443.05078125 299 L 443.05078125 288 L 312 288 L 312 288" fill="none" stroke="#000000" stroke-miterlimit="10"/></g><g transform="translate(-302,-278) scale(1,1)"><g><path fill="none" stroke="none"/><text fill="#000000" font-family="Arial" font-size="13px" font-style="normal" font-weight="normal" stroke="none" text-decoration="none" x="336.72998046875" y="303.5">Gestione Ordini</text></g></g><g transform="translate(-302,-278) scale(1,1)"><g><path fill="none" stroke="none"/><text fill="#000000" font-family="Arial" font-size="13px" font-style="normal" font-weight="bold" stroke="none" text-decoration="none" x="316.279541015625" y="302.5">uc</text></g></g><g transform="translate(-302,-278) scale(1,1)"><rect fill="#C0C0C0" height="487" opacity="0.2" stroke="none" width="324" x="455" y="335"/></g><g transform="translate(-302,-278) scale(1,1)"><rect fill="#ffffff" height="487" stroke="none" width="324" x="448" y="328"/></g><g transform="translate(-302,-278) scale(1,1)"><path d="M 448 328 L 772 328 L 772 815 L 448 815 L 448 328 Z Z" fill="none" stroke="#000000" stroke-miterlimit="10"/></g><g transform="translate(-302,-278) scale(1,1)"><g><path fill="none" stroke="none"/><text fill="#000000" font-family="Arial" font-size="13px" font-style="normal" font-weight="bold" stroke="none" text-decoration="none" x="585.069580078125" y="345.5">Sistema</text></g></g><g transform="translate(-302,-278) scale(1,1)"><path d="M 365.31022922585225 537.6800000000001 C 365.31022922585225 532.8861679360001 369.19607155079774 529 373.989501953125 529 C 378.78293235545226 529 382.66877468039775 532.8861679360001 382.66877468039775 537.6800000000001 C 382.66877468039775 542.473832064 378.78293235545226 546.36 373.989501953125 546.36 C 369.19607155079774 546.36 365.31022922585225 542.473832064 365.31022922585225 537.6800000000001 Z" fill="#ffffff" stroke="none"/></g><g transform="translate(-302,-278) scale(1,1)"><path d="M 365.31022922585225 537.6800000000001 C 365.31022922585225 532.8861679360001 369.19607155079774 529 373.989501953125 529 C 378.78293235545226 529 382.66877468039775 532.8861679360001 382.66877468039775 537.6800000000001 C 382.66877468039775 542.473832064 378.78293235545226 546.36 373.989501953125 546.36 C 369.19607155079774 546.36 365.31022922585225 542.473832064 365.31022922585225 537.6800000000001 Z" fill="none" stroke="#000000" stroke-miterlimit="10"/></g><g transform="translate(-302,-278) scale(1,1)"><path d="M 373.989501953125 546.36 L 373.989501953125 563.64" fill="none" stroke="#000000" stroke-miterlimit="10"/></g><g transform="translate(-302,-278) scale(1,1)"><path d="M 364.79968377130683 552.84 L 383.17932013494317 552.84" fill="none" stroke="#000000" stroke-miterlimit="10"/></g><g transform="translate(-302,-278) scale(1,1)"><path d="M 373.989501953125 563.64 L 361.22586558948865 581" fill="none" stroke="#000000" stroke-miterlimit="10"/></g><g transform="translate(-302,-278) scale(1,1)"><path d="M 373.989501953125 563.64 L 386.75313831676135 581" fill="none" stroke="#000000" stroke-miterlimit="10"/></g><g transform="translate(-302,-278) scale(1,1)"><g><path fill="none" stroke="none"/><text fill="#000000" font-family="Arial" font-size="13px" font-style="normal" font-weight="bold" stroke="none" text-decoration="none" x="343.292236328125" y="599.5">Impiegato</text></g></g><g transform="translate(-302,-278) scale(1,1)"><path d="M 841.6857175071023 537.6800000000001 C 841.6857175071023 532.8861679360001 845.5715598320477 529 850.364990234375 529 C 855.1584206367023 529 859.0442629616477 532.8861679360001 859.0442629616477 537.6800000000001 C 859.0442629616477 542.473832064 855.1584206367023 546.36 850.364990234375 546.36 C 845.5715598320477 546.36 841.6857175071023 542.473832064 841.6857175071023 537.6800000000001 Z" fill="#ffffff" stroke="none"/></g><g transform="translate(-302,-278) scale(1,1)"><path d="M 841.6857175071023 537.6800000000001 C 841.6857175071023 532.8861679360001 845.5715598320477 529 850.364990234375 529 C 855.1584206367023 529 859.0442629616477 532.8861679360001 859.0442629616477 537.6800000000001 C 859.0442629616477 542.473832064 855.1584206367023 546.36 850.364990234375 546.36 C 845.5715598320477 546.36 841.6857175071023 542.473832064 841.6857175071023 537.6800000000001 Z" fill="none" stroke="#000000" stroke-miterlimit="10"/></g><g transform="translate(-302,-278) scale(1,1)"><path d="M 850.364990234375 546.36 L 850.364990234375 563.64" fill="none" stroke="#000000" stroke-miterlimit="10"/></g><g transform="translate(-302,-278) scale(1,1)"><path d="M 841.1751720525568 552.84 L 859.5548084161932 552.84" fill="none" stroke="#000000" stroke-miterlimit="10"/></g><g transform="translate(-302,-278) scale(1,1)"><path d="M 850.364990234375 563.64 L 837.6013538707386 581" fill="none" stroke="#000000" stroke-miterlimit="10"/></g><g transform="translate(-302,-278) scale(1,1)"><path d="M 850.364990234375 563.64 L 863.1286265980114 581" fill="none" stroke="#000000" stroke-miterlimit="10"/></g><g transform="translate(-302,-278) scale(1,1)"><g><path fill="none" stroke="none"/><text fill="#000000" font-family="Arial" font-size="13px" font-style="normal" font-weight="bold" stroke="none" text-decoration="none" x="804.5" y="599.5">DBMS Azienda</text></g></g><g transform="translate(-302,-278) scale(1,1)"><path d="M 521 578 C 521 568.6111584 566.4430928 561 622.5 561 C 678.5569072 561 724 568.6111584 724 578 C 724 587.3888416 678.5569072 595 622.5 595 C 566.4430928 595 521 587.3888416 521 578 Z" fill="#C0C0C0" opacity="0.2" stroke="none"/></g><g transform="translate(-302,-278) scale(1,1)"><path d="M 514 571 C 514 561.6111584 559.4430928 554 615.5 554 C 671.5569072 554 717 561.6111584 717 571 C 717 580.3888416 671.5569072 588 615.5 588 C 559.4430928 588 514 580.3888416 514 571 Z" fill="#ffffff" stroke="none"/></g><g transform="translate(-302,-278) scale(1,1)"><path d="M 514 571 C 514 561.6111584 559.4430928 554 615.5 554 C 671.5569072 554 717 561.6111584 717 571 C 717 580.3888416 671.5569072 588 615.5 588 C 559.4430928 588 514 580.3888416 514 571 Z" fill="none" stroke="#000000" stroke-miterlimit="10"/></g><g transform="translate(-302,-278) scale(1,1)"><g><path fill="none" stroke="none"/><text fill="#000000" font-family="Arial" font-size="13px" font-style="normal" font-weight="bold" stroke="none" text-decoration="none" x="548.3291015625" y="576">Modifica Stato Ordine</text></g></g><g transform="translate(-302,-278) scale(1,1)"><path d="M 536 680 C 536 670.6111584 574.7273648 663 622.5 663 C 670.2726352 663 709 670.6111584 709 680 C 709 689.3888416 670.2726352 697 622.5 697 C 574.7273648 697 536 689.3888416 536 680 Z" fill="#C0C0C0" opacity="0.2" stroke="none"/></g><g transform="translate(-302,-278) scale(1,1)"><path d="M 529 673 C 529 663.6111584 567.7273648 656 615.5 656 C 663.2726352 656 702 663.6111584 702 673 C 702 682.3888416 663.2726352 690 615.5 690 C 567.7273648 690 529 682.3888416 529 673 Z" fill="#ffffff" stroke="none"/></g><g transform="translate(-302,-278) scale(1,1)"><path d="M 529 673 C 529 663.6111584 567.7273648 656 615.5 656 C 663.2726352 656 702 663.6111584 702 673 C 702 682.3888416 663.2726352 690 615.5 690 C 567.7273648 690 529 682.3888416 529 673 Z" fill="none" stroke="#000000" stroke-miterlimit="10"/></g><g transform="translate(-302,-278) scale(1,1)"><g><path fill="none" stroke="none"/><text fill="#000000" font-family="Arial" font-size="13px" font-style="normal" font-weight="bold" stroke="none" text-decoration="none" x="558.79638671875" y="678">Correzione Ordine</text></g></g><g transform="translate(-302,-278) scale(1,1)"><path d="M 543 472 C 543 462.6111584 578.5933583999999 455 622.5 455 C 666.4066416000001 455 702 462.6111584 702 472 C 702 481.3888416 666.4066416000001 489 622.5 489 C 578.5933583999999 489 543 481.3888416 543 472 Z" fill="#C0C0C0" opacity="0.2" stroke="none"/></g><g transform="translate(-302,-278) scale(1,1)"><path d="M 536 465 C 536 455.6111584 571.5933583999999 448 615.5 448 C 659.4066416000001 448 695 455.6111584 695 465 C 695 474.3888416 659.4066416000001 482 615.5 482 C 571.5933583999999 482 536 474.3888416 536 465 Z" fill="#ffffff" stroke="none"/></g><g transform="translate(-302,-278) scale(1,1)"><path d="M 536 465 C 536 455.6111584 571.5933583999999 448 615.5 448 C 659.4066416000001 448 695 455.6111584 695 465 C 695 474.3888416 659.4066416000001 482 615.5 482 C 571.5933583999999 482 536 474.3888416 536 465 Z" fill="none" stroke="#000000" stroke-miterlimit="10"/></g><g transform="translate(-302,-278) scale(1,1)"><g><path fill="none" stroke="none"/><text fill="#000000" font-family="Arial" font-size="13px" font-style="normal" font-weight="bold" stroke="none" text-decoration="none" x="563.604736328125" y="470">Visualizza Ordini</text></g></g><g transform="translate(-302,-278) scale(1,1)"><path d="M 429 543 L 572 483" fill="none" stroke="#000000" stroke-miterlimit="10"/></g><g transform="translate(-302,-278) scale(1,1)"><path d="M 429 568 L 513 569" fill="none" stroke="#000000" stroke-miterlimit="10"/></g><g transform="translate(-302,-278) scale(1,1)"><path d="M 429 592 L 574 655" fill="none" stroke="#000000" stroke-miterlimit="10"/></g><g transform="translate(-302,-278) scale(1,1)"><path d="M 799 545 L 656 483" fill="none" stroke="#000000" stroke-miterlimit="10"/></g><g transform="translate(-302,-278) scale(1,1)"><path d="M 799 568 L 718 569" fill="none" stroke="#000000" stroke-miterlimit="10"/></g><g transform="translate(-302,-278) scale(1,1)"><path d="M 799 590 L 655 655" fill="none" stroke="#000000" stroke-miterlimit="10"/></g></g></svg>