<?xml version="1.0" encoding="UTF-8" standalone="no"?><svg xmlns="http://www.w3.org/2000/svg" xmlns:xlink="http://www.w3.org/1999/xlink" height="1044" version="1.1" width="933.4072265625"><defs/><g><g transform="translate(2,2) scale(1,1)"><path d="M 8 8 L 896 8 L 896 1032 L 8 1032 L 8 8" fill="none" stroke="#000000" stroke-miterlimit="10"/></g><g transform="translate(2,2) scale(1,1)"><path d="M 8 8 L 8 30 L 192.0986328125 30 L 203.0986328125 19 L 203.0986328125 8 L 8 8" fill="#ffffff" stroke="none"/></g><g transform="translate(2,2) scale(1,1)"><path d="M 8 8 L 8 30 L 192.0986328125 30 L 203.0986328125 19 L 203.0986328125 8 L 8 8 L 8 8" fill="none" stroke="#000000" stroke-miterlimit="10"/></g><g transform="translate(2,2) scale(1,1)"><g><path fill="none" stroke="none"/><text fill="#000000" font-family="Arial" font-size="13px" font-style="normal" font-weight="normal" stroke="none" text-decoration="none" x="32.72998046875" y="23.5">Visualizza Ordini Farmacia</text></g></g><g transform="translate(2,2) scale(1,1)"><g><path fill="none" stroke="none"/><text fill="#000000" font-family="Arial" font-size="13px" font-style="normal" font-weight="bold" stroke="none" text-decoration="none" x="12.279541015625" y="23.5">sd</text></g></g><g transform="translate(2,2) scale(1,1)"><path d="M 78.7344833096591 47.3 C 78.7344833096591 43.82060576 81.61288503184092 41 85.16357421875 41 C 88.71426340565908 41 91.5926651278409 43.82060576 91.5926651278409 47.3 C 91.5926651278409 50.779394239999995 88.71426340565908 53.6 85.16357421875 53.6 C 81.61288503184092 53.6 78.7344833096591 50.779394239999995 78.7344833096591 47.3 Z" fill="#ffffff" stroke="none"/></g><g transform="translate(2,2) scale(1,1)"><path d="M 78.7344833096591 47.3 C 78.7344833096591 43.82060576 81.61288503184092 41 85.16357421875 41 C 88.71426340565908 41 91.5926651278409 43.82060576 91.5926651278409 47.3 C 91.5926651278409 50.779394239999995 88.71426340565908 53.6 85.16357421875 53.6 C 81.61288503184092 53.6 78.7344833096591 50.779394239999995 78.7344833096591 47.3 Z" fill="none" stroke="#000000" stroke-miterlimit="10"/></g><g transform="translate(2,2) scale(1,1)"><path d="M 85.16357421875 53.6 L 85.16357421875 66.4" fill="none" stroke="#000000" stroke-miterlimit="10"/></g><g transform="translate(2,2) scale(1,1)"><path d="M 78.35630149147727 58.4 L 91.97084694602273 58.4" fill="none" stroke="#000000" stroke-miterlimit="10"/></g><g transform="translate(2,2) scale(1,1)"><path d="M 85.16357421875 66.4 L 75.70902876420455 79" fill="none" stroke="#000000" stroke-miterlimit="10"/></g><g transform="translate(2,2) scale(1,1)"><path d="M 85.16357421875 66.4 L 94.61811967329545 79" fill="none" stroke="#000000" stroke-miterlimit="10"/></g><g transform="translate(2,2) scale(1,1)"><g><path fill="none" stroke="none"/><text fill="#000000" font-family="Arial" font-size="13px" font-style="normal" font-weight="bold" stroke="none" text-decoration="none" x="46.8681640625" y="97.5">: Farmacista</text></g></g><g transform="translate(2,2) scale(1,1)"><path d="M 86.5 105 L 86.5 154" fill="none" stroke="#000000" stroke-dasharray="3" stroke-miterlimit="10"/></g><g transform="translate(2,2) scale(1,1)"><rect fill="#C0C0C0" height="39" opacity="0.2" stroke="none" width="176.25048828125" x="415" y="131"/></g><g transform="translate(2,2) scale(1,1)"><rect fill="#ffffff" height="39" stroke="none" width="176.25048828125" x="408" y="124"/></g><g transform="translate(2,2) scale(1,1)"><path d="M 408 124 L 584.25048828125 124 L 584.25048828125 163 L 408 163 L 408 124 Z Z" fill="none" stroke="#000000" stroke-miterlimit="10"/></g><g transform="translate(2,2) scale(1,1)"><g><path fill="none" stroke="none"/><text fill="#000000" font-family="Arial" font-size="13px" font-style="normal" font-weight="normal" stroke="none" text-decoration="none" x="467.941650390625" y="139.5">«Control»</text></g></g><g transform="translate(2,2) scale(1,1)"><g><path fill="none" stroke="none"/><text fill="#000000" font-family="Arial" font-size="13px" font-style="normal" font-weight="bold" stroke="none" text-decoration="none" x="417.5" y="154.5">: GestoreVisualizzaOrdini</text></g></g><g transform="translate(2,2) scale(1,1)"><path d="M 497.5 164 L 497.5 992" fill="none" stroke="#000000" stroke-dasharray="3" stroke-miterlimit="10"/></g><g transform="translate(2,2) scale(1,1)"><rect fill="#C0C0C0" height="39" opacity="0.2" stroke="none" width="192.1513671875" x="223" y="403"/></g><g transform="translate(2,2) scale(1,1)"><rect fill="#ffffff" height="39" stroke="none" width="192.1513671875" x="216" y="396"/></g><g transform="translate(2,2) scale(1,1)"><path d="M 216 396 L 408.1513671875 396 L 408.1513671875 435 L 216 435 L 216 396 Z Z" fill="none" stroke="#000000" stroke-miterlimit="10"/></g><g transform="translate(2,2) scale(1,1)"><g><path fill="none" stroke="none"/><text fill="#000000" font-family="Arial" font-size="13px" font-style="normal" font-weight="normal" stroke="none" text-decoration="none" x="277.020751953125" y="411.5">«Boundary»</text></g></g><g transform="translate(2,2) scale(1,1)"><g><path fill="none" stroke="none"/><text fill="#000000" font-family="Arial" font-size="13px" font-style="normal" font-weight="bold" stroke="none" text-decoration="none" x="225.5" y="426.5">: InterfacciaVisualizzaOrdini</text></g></g><g transform="translate(2,2) scale(1,1)"><path d="M 313.5 436 L 313.5 573" fill="none" stroke="#000000" stroke-dasharray="3" stroke-miterlimit="10"/></g><g transform="translate(2,2) scale(1,1)"><path d="M 834.274522372159 47.3 C 834.274522372159 43.82060576 837.152924094341 41 840.70361328125 41 C 844.254302468159 41 847.1327041903409 43.82060576 847.1327041903409 47.3 C 847.1327041903409 50.779394239999995 844.254302468159 53.6 840.70361328125 53.6 C 837.152924094341 53.6 834.274522372159 50.779394239999995 834.274522372159 47.3 Z" fill="#ffffff" stroke="none"/></g><g transform="translate(2,2) scale(1,1)"><path d="M 834.274522372159 47.3 C 834.274522372159 43.82060576 837.152924094341 41 840.70361328125 41 C 844.254302468159 41 847.1327041903409 43.82060576 847.1327041903409 47.3 C 847.1327041903409 50.779394239999995 844.254302468159 53.6 840.70361328125 53.6 C 837.152924094341 53.6 834.274522372159 50.779394239999995 834.274522372159 47.3 Z" fill="none" stroke="#000000" stroke-miterlimit="10"/></g><g transform="translate(2,2) scale(1,1)"><path d="M 840.70361328125 53.6 L 840.70361328125 66.4" fill="none" stroke="#000000" stroke-miterlimit="10"/></g><g transform="translate(2,2) scale(1,1)"><path d="M 833.8963405539772 58.4 L 847.5108860085227 58.4" fill="none" stroke="#000000" stroke-miterlimit="10"/></g><g transform="translate(2,2) scale(1,1)"><path d="M 840.70361328125 66.4 L 831.2490678267045 79" fill="none" stroke="#000000" stroke-miterlimit="10"/></g><g transform="translate(2,2) scale(1,1)"><path d="M 840.70361328125 66.4 L 850.1581587357954 79" fill="none" stroke="#000000" stroke-miterlimit="10"/></g><g transform="translate(2,2) scale(1,1)"><g><path fill="none" stroke="none"/><text fill="#000000" font-family="Arial" font-size="13px" font-style="normal" font-weight="bold" stroke="none" text-decoration="none" x="790.8681640625" y="97.5">: DBMS Azienda</text></g></g><g transform="translate(2,2) scale(1,1)"><path d="M 841.5 105 L 841.5 424" fill="none" stroke="#000000" stroke-dasharray="3" stroke-miterlimit="10"/></g><g transform="translate(2,2) scale(1,1)"><rect fill="#C0C0C0" height="39" opacity="0.2" stroke="none" width="108.5654296875" x="631" y="47"/></g><g transform="translate(2,2) scale(1,1)"><rect fill="#ffffff" height="39" stroke="none" width="108.5654296875" x="624" y="40"/></g><g transform="translate(2,2) scale(1,1)"><path d="M 624 40 L 732.5654296875 40 L 732.5654296875 79 L 624 79 L 624 40 Z Z" fill="none" stroke="#000000" stroke-miterlimit="10"/></g><g transform="translate(2,2) scale(1,1)"><g><path fill="none" stroke="none"/><text fill="#000000" font-family="Arial" font-size="13px" font-style="normal" font-weight="normal" stroke="none" text-decoration="none" x="643.227783203125" y="55.5">«Boundary»</text></g></g><g transform="translate(2,2) scale(1,1)"><g><path fill="none" stroke="none"/><text fill="#000000" font-family="Arial" font-size="13px" font-style="normal" font-weight="bold" stroke="none" text-decoration="none" x="633.5" y="70.5">DBMSDaemon</text></g></g><g transform="translate(2,2) scale(1,1)"><path d="M 679.5 80 L 679.5 415" fill="none" stroke="#000000" stroke-dasharray="3" stroke-miterlimit="10"/></g><g transform="translate(2,2) scale(1,1)"><rect fill="#C0C0C0" height="39" opacity="0.2" stroke="none" width="87.6181640625" x="327" y="331"/></g><g transform="translate(2,2) scale(1,1)"><rect fill="#ffffff" height="39" stroke="none" width="87.6181640625" x="320" y="324"/></g><g transform="translate(2,2) scale(1,1)"><path d="M 320 324 L 407.6181640625 324 L 407.6181640625 363 L 320 363 L 320 324 Z Z" fill="none" stroke="#000000" stroke-miterlimit="10"/></g><g transform="translate(2,2) scale(1,1)"><g><path fill="none" stroke="none"/><text fill="#000000" font-family="Arial" font-size="13px" font-style="normal" font-weight="normal" stroke="none" text-decoration="none" x="340.32275390625" y="339.5">«Entity»</text></g></g><g transform="translate(2,2) scale(1,1)"><g><path fill="none" stroke="none"/><text fill="#000000" font-family="Arial" font-size="13px" font-style="normal" font-weight="bold" stroke="none" text-decoration="none" x="329.5" y="354.5">ListaOrdini</text></g></g><g transform="translate(2,2) scale(1,1)"><path d="M 364.5 364 L 364.5 674" fill="none" stroke="#000000" stroke-dasharray="3" stroke-miterlimit="10"/></g><g transform="translate(2,2) scale(1,1)"><rect fill="#C0C0C0" height="39" opacity="0.2" stroke="none" width="71.736328125" x="127" y="211"/></g><g transform="translate(2,2) scale(1,1)"><rect fill="#ffffff" height="39" stroke="none" width="71.736328125" x="120" y="204"/></g><g transform="translate(2,2) scale(1,1)"><path d="M 120 204 L 191.736328125 204 L 191.736328125 243 L 120 243 L 120 204 Z Z" fill="none" stroke="#000000" stroke-miterlimit="10"/></g><g transform="translate(2,2) scale(1,1)"><g><path fill="none" stroke="none"/><text fill="#000000" font-family="Arial" font-size="13px" font-style="normal" font-weight="normal" stroke="none" text-decoration="none" x="132.3818359375" y="219.5">«Entity»</text></g></g><g transform="translate(2,2) scale(1,1)"><g><path fill="none" stroke="none"/><text fill="#000000" font-family="Arial" font-size="13px" font-style="normal" font-weight="bold" stroke="none" text-decoration="none" x="141.779541015625" y="234.5">Data</text></g></g><g transform="translate(2,2) scale(1,1)"><path d="M 156.5 244 L 156.5 435" fill="none" stroke="#000000" stroke-dasharray="3" stroke-miterlimit="10"/></g><g transform="translate(2,2) scale(1,1)"><rect fill="#C0C0C0" height="39" opacity="0.2" stroke="none" width="273.62353515625" x="199" y="691"/></g><g transform="translate(2,2) scale(1,1)"><rect fill="#ffffff" height="39" stroke="none" width="273.62353515625" x="192" y="684"/></g><g transform="translate(2,2) scale(1,1)"><path d="M 192 684 L 465.62353515625 684 L 465.62353515625 723 L 192 723 L 192 684 Z Z" fill="none" stroke="#000000" stroke-miterlimit="10"/></g><g transform="translate(2,2) scale(1,1)"><g><path fill="none" stroke="none"/><text fill="#000000" font-family="Arial" font-size="13px" font-style="normal" font-weight="normal" stroke="none" text-decoration="none" x="293.7568359375" y="699.5">«Boundary»</text></g></g><g transform="translate(2,2) scale(1,1)"><g><path fill="none" stroke="none"/><text fill="#000000" font-family="Arial" font-size="13px" font-style="normal" font-weight="bold" stroke="none" text-decoration="none" x="201.5" y="714.5">: BottoneCaricoMerci[id = codice_ordine]</text></g></g><g transform="translate(2,2) scale(1,1)"><path d="M 329.5 724 L 329.5 773" fill="none" stroke="#000000" stroke-dasharray="3" stroke-miterlimit="10"/></g><g transform="translate(2,2) scale(1,1)"><rect fill="#C0C0C0" height="39" opacity="0.2" stroke="none" width="244.32275390625" x="111" y="875"/></g><g transform="translate(2,2) scale(1,1)"><rect fill="#ffffff" height="39" stroke="none" width="244.32275390625" x="104" y="868"/></g><g transform="translate(2,2) scale(1,1)"><path d="M 104 868 L 348.32275390625 868 L 348.32275390625 907 L 104 907 L 104 868 Z Z" fill="none" stroke="#000000" stroke-miterlimit="10"/></g><g transform="translate(2,2) scale(1,1)"><g><path fill="none" stroke="none"/><text fill="#000000" font-family="Arial" font-size="13px" font-style="normal" font-weight="normal" stroke="none" text-decoration="none" x="191.1064453125" y="883.5">«Boundary»</text></g></g><g transform="translate(2,2) scale(1,1)"><g><path fill="none" stroke="none"/><text fill="#000000" font-family="Arial" font-size="13px" font-style="normal" font-weight="bold" stroke="none" text-decoration="none" x="125.1669921875" y="898.5">TastoModificaOrdine[datiOrdine]</text></g></g><g transform="translate(2,2) scale(1,1)"><path d="M 227.5 908 L 227.5 957" fill="none" stroke="#000000" stroke-dasharray="3" stroke-miterlimit="10"/></g><g transform="translate(2,2) scale(1,1)"><rect fill="#C0C0C0" height="39" opacity="0.2" stroke="none" width="262.83251953125" x="143" y="47"/></g><g transform="translate(2,2) scale(1,1)"><rect fill="#ffffff" height="39" stroke="none" width="262.83251953125" x="136" y="40"/></g><g transform="translate(2,2) scale(1,1)"><path d="M 136 40 L 398.83251953125 40 L 398.83251953125 79 L 136 79 L 136 40 Z Z" fill="none" stroke="#000000" stroke-miterlimit="10"/></g><g transform="translate(2,2) scale(1,1)"><g><path fill="none" stroke="none"/><text fill="#000000" font-family="Arial" font-size="13px" font-style="normal" font-weight="normal" stroke="none" text-decoration="none" x="232.361328125" y="55.5">«Boundary»</text></g></g><g transform="translate(2,2) scale(1,1)"><g><path fill="none" stroke="none"/><text fill="#000000" font-family="Arial" font-size="13px" font-style="normal" font-weight="bold" stroke="none" text-decoration="none" x="145.5" y="70.5">: InterfacciaPrincipale[tipo=Farmacista]</text></g></g><g transform="translate(2,2) scale(1,1)"><path d="M 268.5 80 L 268.5 216" fill="none" stroke="#000000" stroke-dasharray="3" stroke-miterlimit="10"/></g><g transform="translate(2,2) scale(1,1)"><path d="M 86 128 L 261 128" fill="none" stroke="#000000" stroke-miterlimit="10"/></g><g transform="translate(2,2) scale(1,1)"><path d="M 250.83732514237585 132.209517756016 L 261 128 L 250.83732514237585 123.79048224398402" fill="#000000" stroke="none"/></g><g transform="translate(2,2) scale(1,1)"><path d="M 250.83732514237585 132.209517756016 L 261 128 L 250.83732514237585 123.79048224398402 L 250.83732514237585 132.209517756016" fill="none" stroke="#000000" stroke-miterlimit="10"/></g><g transform="translate(2,2) scale(1,1)"><g><path fill="none" stroke="none"/><text fill="#000000" font-family="Arial" font-size="13px" font-style="normal" font-weight="normal" stroke="none" text-decoration="none" x="99.5" y="121.5">1 : cliccaVisualizzaOrdini</text></g></g><g transform="translate(2,2) scale(1,1)"><rect fill="#ffffff" height="28" stroke="none" width="13" x="261" y="128"/></g><g transform="translate(2,2) scale(1,1)"><path d="M 261 128 L 274 128 L 274 156 L 261 156 L 261 128 Z Z" fill="none" stroke="#000000" stroke-miterlimit="10"/></g><g transform="translate(2,2) scale(1,1)"><path d="M 274 144 L 408 144" fill="none" stroke="#000000" stroke-dasharray="3" stroke-miterlimit="10"/></g><g transform="translate(2,2) scale(1,1)"><path d="M 397.83732514237585 148.209517756016 L 408 144 L 397.83732514237585 139.790482243984" fill="none" stroke="#000000" stroke-miterlimit="10"/></g><g transform="translate(2,2) scale(1,1)"><g><path fill="none" stroke="none"/><text fill="#000000" font-family="Arial" font-size="13px" font-style="normal" font-weight="normal" stroke="none" text-decoration="none" x="332.114990234375" y="138.5">2 : </text></g></g><g transform="translate(2,2) scale(1,1)"><g><path fill="none" stroke="none"/><text fill="#000000" font-family="Arial" font-size="13px" font-style="normal" font-weight="normal" stroke="none" text-decoration="none" x="315.5" y="123.5">«create»</text></g></g><g transform="translate(2,2) scale(1,1)"><path d="M 497 184 L 527 184 L 527 204 L 503 204" fill="none" stroke="#000000" stroke-miterlimit="10"/></g><g transform="translate(2,2) scale(1,1)"><path d="M 513.1626748576241 199.790482243984 L 503 204 L 513.1626748576241 208.209517756016" fill="#000000" stroke="none"/></g><g transform="translate(2,2) scale(1,1)"><path d="M 513.1626748576241 199.790482243984 L 503 204 L 513.1626748576241 208.209517756016 L 513.1626748576241 199.790482243984" fill="none" stroke="#000000" stroke-miterlimit="10"/></g><g transform="translate(2,2) scale(1,1)"><g><path fill="none" stroke="none"/><text fill="#000000" font-family="Arial" font-size="13px" font-style="normal" font-weight="normal" stroke="none" text-decoration="none" x="534.5" y="202.5">3 : chiediData</text></g></g><g transform="translate(2,2) scale(1,1)"><rect fill="#ffffff" height="28" stroke="none" width="13" x="490" y="204"/></g><g transform="translate(2,2) scale(1,1)"><path d="M 490 204 L 503 204 L 503 232 L 490 232 L 490 204 Z Z" fill="none" stroke="#000000" stroke-miterlimit="10"/></g><g transform="translate(2,2) scale(1,1)"><path d="M 490 224 L 191.736328125 224" fill="none" stroke="#000000" stroke-dasharray="3" stroke-miterlimit="10"/></g><g transform="translate(2,2) scale(1,1)"><path d="M 201.89900298262415 219.790482243984 L 191.736328125 224 L 201.89900298262415 228.209517756016" fill="none" stroke="#000000" stroke-miterlimit="10"/></g><g transform="translate(2,2) scale(1,1)"><g><path fill="none" stroke="none"/><text fill="#000000" font-family="Arial" font-size="13px" font-style="normal" font-weight="normal" stroke="none" text-decoration="none" x="327.5" y="201.5">4 : </text></g></g><g transform="translate(2,2) scale(1,1)"><g><path fill="none" stroke="none"/><text fill="#000000" font-family="Arial" font-size="13px" font-style="normal" font-weight="normal" stroke="none" text-decoration="none" x="312.5" y="217.5">«create»</text></g></g><g transform="translate(2,2) scale(1,1)"><path d="M 497 248 L 672 248" fill="none" stroke="#000000" stroke-miterlimit="10"/></g><g transform="translate(2,2) scale(1,1)"><path d="M 661.8373251423759 252.209517756016 L 672 248 L 661.8373251423758 243.790482243984" fill="#000000" stroke="none"/></g><g transform="translate(2,2) scale(1,1)"><path d="M 661.8373251423759 252.209517756016 L 672 248 L 661.8373251423758 243.790482243984 L 661.8373251423759 252.209517756016" fill="none" stroke="#000000" stroke-miterlimit="10"/></g><g transform="translate(2,2) scale(1,1)"><g><path fill="none" stroke="none"/><text fill="#000000" font-family="Arial" font-size="13px" font-style="normal" font-weight="normal" stroke="none" text-decoration="none" x="504.5" y="242.5">5 : chiediOrdini(idFarmacia)</text></g></g><g transform="translate(2,2) scale(1,1)"><rect fill="#ffffff" height="80" stroke="none" width="13" x="672" y="248"/></g><g transform="translate(2,2) scale(1,1)"><path d="M 672 248 L 685 248 L 685 328 L 672 328 L 672 248 Z Z" fill="none" stroke="#000000" stroke-miterlimit="10"/></g><g transform="translate(2,2) scale(1,1)"><path d="M 685 272 L 834 272" fill="none" stroke="#000000" stroke-miterlimit="10"/></g><g transform="translate(2,2) scale(1,1)"><path d="M 823.8373251423759 276.209517756016 L 834 272 L 823.8373251423758 267.790482243984" fill="#000000" stroke="none"/></g><g transform="translate(2,2) scale(1,1)"><path d="M 823.8373251423759 276.209517756016 L 834 272 L 823.8373251423758 267.790482243984 L 823.8373251423759 276.209517756016" fill="none" stroke="#000000" stroke-miterlimit="10"/></g><g transform="translate(2,2) scale(1,1)"><g><path fill="none" stroke="none"/><text fill="#000000" font-family="Arial" font-size="13px" font-style="normal" font-weight="normal" stroke="none" text-decoration="none" x="679.5" y="266.5">6 : chiediOrdini(idFarmacia)</text></g></g><g transform="translate(2,2) scale(1,1)"><rect fill="#ffffff" height="56" stroke="none" width="13" x="834" y="272"/></g><g transform="translate(2,2) scale(1,1)"><path d="M 834 272 L 847 272 L 847 328 L 834 328 L 834 272 Z Z" fill="none" stroke="#000000" stroke-miterlimit="10"/></g><g transform="translate(2,2) scale(1,1)"><path d="M 834 312 L 685 312" fill="none" stroke="#000000" stroke-dasharray="3" stroke-miterlimit="10"/></g><g transform="translate(2,2) scale(1,1)"><path d="M 695.1626748576241 307.790482243984 L 685 312 L 695.1626748576241 316.209517756016" fill="none" stroke="#000000" stroke-miterlimit="10"/></g><g transform="translate(2,2) scale(1,1)"><g><path fill="none" stroke="none"/><text fill="#000000" font-family="Arial" font-size="13px" font-style="normal" font-weight="normal" stroke="none" text-decoration="none" x="733.114990234375" y="326.5">7 : ordini</text></g></g><g transform="translate(2,2) scale(1,1)"><path d="M 672 320 L 497 320" fill="none" stroke="#000000" stroke-dasharray="3" stroke-miterlimit="10"/></g><g transform="translate(2,2) scale(1,1)"><path d="M 507.16267485762415 315.790482243984 L 497 320 L 507.16267485762415 324.209517756016" fill="none" stroke="#000000" stroke-miterlimit="10"/></g><g transform="translate(2,2) scale(1,1)"><g><path fill="none" stroke="none"/><text fill="#000000" font-family="Arial" font-size="13px" font-style="normal" font-weight="normal" stroke="none" text-decoration="none" x="558.114990234375" y="334.5">8 : ordini</text></g></g><g transform="translate(2,2) scale(1,1)"><path d="M 497 344 L 407.6181640625 344" fill="none" stroke="#000000" stroke-dasharray="3" stroke-miterlimit="10"/></g><g transform="translate(2,2) scale(1,1)"><path d="M 417.78083892012415 339.790482243984 L 407.6181640625 344 L 417.78083892012415 348.209517756016" fill="none" stroke="#000000" stroke-miterlimit="10"/></g><g transform="translate(2,2) scale(1,1)"><g><path fill="none" stroke="none"/><text fill="#000000" font-family="Arial" font-size="13px" font-style="normal" font-weight="normal" stroke="none" text-decoration="none" x="442.114990234375" y="358.5">9 : </text></g></g><g transform="translate(2,2) scale(1,1)"><g><path fill="none" stroke="none"/><text fill="#000000" font-family="Arial" font-size="13px" font-style="normal" font-weight="normal" stroke="none" text-decoration="none" x="425.5" y="373.5">«create»</text></g></g><g transform="translate(2,2) scale(1,1)"><path d="M 497 416 L 408.1513671875 416" fill="none" stroke="#000000" stroke-dasharray="3" stroke-miterlimit="10"/></g><g transform="translate(2,2) scale(1,1)"><path d="M 418.31404204512415 411.790482243984 L 408.1513671875 416 L 418.31404204512415 420.209517756016" fill="none" stroke="#000000" stroke-miterlimit="10"/></g><g transform="translate(2,2) scale(1,1)"><g><path fill="none" stroke="none"/><text fill="#000000" font-family="Arial" font-size="13px" font-style="normal" font-weight="normal" stroke="none" text-decoration="none" x="438.5" y="430.5">10 : </text></g></g><g transform="translate(2,2) scale(1,1)"><g><path fill="none" stroke="none"/><text fill="#000000" font-family="Arial" font-size="13px" font-style="normal" font-weight="normal" stroke="none" text-decoration="none" x="425.5" y="445.5">«create»</text></g></g><g transform="translate(2,2) scale(1,1)"><path d="M 497 568 L 370 568" fill="none" stroke="#000000" stroke-miterlimit="10"/></g><g transform="translate(2,2) scale(1,1)"><path d="M 380.16267485762415 563.790482243984 L 370 568 L 380.16267485762415 572.209517756016" fill="#000000" stroke="none"/></g><g transform="translate(2,2) scale(1,1)"><path d="M 380.16267485762415 563.790482243984 L 370 568 L 380.16267485762415 572.209517756016 L 380.16267485762415 563.790482243984" fill="none" stroke="#000000" stroke-miterlimit="10"/></g><g transform="translate(2,2) scale(1,1)"><g><path fill="none" stroke="none"/><text fill="#000000" font-family="Arial" font-size="13px" font-style="normal" font-weight="normal" stroke="none" text-decoration="none" x="379.982421875" y="582.5">11 : getDatiOrdine</text></g></g><g transform="translate(2,2) scale(1,1)"><rect fill="#ffffff" height="28" stroke="none" width="13" x="357" y="568"/></g><g transform="translate(2,2) scale(1,1)"><path d="M 357 568 L 370 568 L 370 596 L 357 596 L 357 568 Z Z" fill="none" stroke="#000000" stroke-miterlimit="10"/></g><g transform="translate(2,2) scale(1,1)"><path d="M 497 704 L 465.62353515625 704" fill="none" stroke="#000000" stroke-dasharray="3" stroke-miterlimit="10"/></g><g transform="translate(2,2) scale(1,1)"><path d="M 475.78621001387415 699.790482243984 L 465.62353515625 704 L 475.78621001387415 708.209517756016" fill="none" stroke="#000000" stroke-miterlimit="10"/></g><g transform="translate(2,2) scale(1,1)"><g><path fill="none" stroke="none"/><text fill="#000000" font-family="Arial" font-size="13px" font-style="normal" font-weight="normal" stroke="none" text-decoration="none" x="467.5" y="718.5">12 : </text></g></g><g transform="translate(2,2) scale(1,1)"><g><path fill="none" stroke="none"/><text fill="#000000" font-family="Arial" font-size="13px" font-style="normal" font-weight="normal" stroke="none" text-decoration="none" x="454.5" y="733.5">«create»</text></g></g><g transform="translate(2,2) scale(1,1)"><path d="M 497 888 L 348.32275390625 888" fill="none" stroke="#000000" stroke-dasharray="3" stroke-miterlimit="10"/></g><g transform="translate(2,2) scale(1,1)"><path d="M 358.48542876387415 883.790482243984 L 348.32275390625 888 L 358.48542876387415 892.209517756016" fill="none" stroke="#000000" stroke-miterlimit="10"/></g><g transform="translate(2,2) scale(1,1)"><g><path fill="none" stroke="none"/><text fill="#000000" font-family="Arial" font-size="13px" font-style="normal" font-weight="normal" stroke="none" text-decoration="none" x="374.5" y="902.5">13 : (datiOrdine)</text></g></g><g transform="translate(2,2) scale(1,1)"><g><path fill="none" stroke="none"/><text fill="#000000" font-family="Arial" font-size="13px" font-style="normal" font-weight="normal" stroke="none" text-decoration="none" x="395.5" y="917.5">«create»</text></g></g><g transform="translate(2,2) scale(1,1)"><path d="M 32 528 L 616 528 L 616 1016 L 32 1016 L 32 528" fill="none" stroke="#000000" stroke-miterlimit="10"/></g><g transform="translate(2,2) scale(1,1)"><path d="M 32 528 L 32 550 L 159.287109375 550 L 170.287109375 539 L 170.287109375 528 L 32 528" fill="#ffffff" stroke="none"/></g><g transform="translate(2,2) scale(1,1)"><path d="M 32 528 L 32 550 L 159.287109375 550 L 170.287109375 539 L 170.287109375 528 L 32 528 L 32 528" fill="none" stroke="#000000" stroke-miterlimit="10"/></g><g transform="translate(2,2) scale(1,1)"><g><path fill="none" stroke="none"/><text fill="#000000" font-family="Arial" font-size="13px" font-style="normal" font-weight="normal" stroke="none" text-decoration="none" x="67.578125" y="543.5">PerOgniOrdine</text></g></g><g transform="translate(2,2) scale(1,1)"><g><path fill="none" stroke="none"/><text fill="#000000" font-family="Arial" font-size="13px" font-style="normal" font-weight="bold" stroke="none" text-decoration="none" x="35.57177734375" y="543.5">loop</text></g></g><g transform="translate(2,2) scale(1,1)"><g><path fill="none" stroke="none"/><text fill="#000000" font-family="Arial" font-size="13px" font-style="normal" font-weight="normal" stroke="none" text-decoration="none" x="51.5" y="576.5">[per ogni ordine]</text></g></g><g transform="translate(2,2) scale(1,1)"><path d="M 48 632 L 560 632 L 560 776 L 48 776 L 48 632" fill="none" stroke="#000000" stroke-miterlimit="10"/></g><g transform="translate(2,2) scale(1,1)"><path d="M 48 632 L 48 654 L 82.07177734375 654 L 93.07177734375 643 L 93.07177734375 632 L 48 632" fill="#ffffff" stroke="none"/></g><g transform="translate(2,2) scale(1,1)"><path d="M 48 632 L 48 654 L 82.07177734375 654 L 93.07177734375 643 L 93.07177734375 632 L 48 632 L 48 632" fill="none" stroke="#000000" stroke-miterlimit="10"/></g><g transform="translate(2,2) scale(1,1)"><g><path fill="none" stroke="none"/><text fill="#000000" font-family="Arial" font-size="13px" font-style="normal" font-weight="bold" stroke="none" text-decoration="none" x="51.930419921875" y="647.5">opt</text></g></g><g transform="translate(2,2) scale(1,1)"><g><path fill="none" stroke="none"/><text fill="#000000" font-family="Arial" font-size="13px" font-style="normal" font-weight="normal" stroke="none" text-decoration="none" x="67.5" y="680.5">[Data di consegna==Data]</text></g></g><g transform="translate(2,2) scale(1,1)"><path d="M 48 784 L 560 784 L 560 976 L 48 976 L 48 784" fill="none" stroke="#000000" stroke-miterlimit="10"/></g><g transform="translate(2,2) scale(1,1)"><path d="M 48 784 L 48 806 L 82.07177734375 806 L 93.07177734375 795 L 93.07177734375 784 L 48 784" fill="#ffffff" stroke="none"/></g><g transform="translate(2,2) scale(1,1)"><path d="M 48 784 L 48 806 L 82.07177734375 806 L 93.07177734375 795 L 93.07177734375 784 L 48 784 L 48 784" fill="none" stroke="#000000" stroke-miterlimit="10"/></g><g transform="translate(2,2) scale(1,1)"><g><path fill="none" stroke="none"/><text fill="#000000" font-family="Arial" font-size="13px" font-style="normal" font-weight="bold" stroke="none" text-decoration="none" x="51.930419921875" y="799.5">opt</text></g></g><g transform="translate(2,2) scale(1,1)"><g><path fill="none" stroke="none"/><text fill="#000000" font-family="Arial" font-size="13px" font-style="normal" font-weight="normal" stroke="none" text-decoration="none" x="67.5" y="832.5">[Intercorrono almeno 2 giorni tra la data di consegna e la data di oggi]</text></g></g></g></svg>