<?xml version="1.0" encoding="UTF-8" standalone="no"?><svg xmlns="http://www.w3.org/2000/svg" xmlns:xlink="http://www.w3.org/1999/xlink" height="732" version="1.1" width="1284.65625"><defs/><g><g transform="translate(2,-6) scale(1,1)"><path d="M 8 16 L 1272 16 L 1272 728 L 8 728 L 8 16" fill="none" stroke="#000000" stroke-miterlimit="10"/></g><g transform="translate(2,-6) scale(1,1)"><path d="M 8 16 L 8 38 L 127.30810546875 38 L 138.30810546875 27 L 138.30810546875 16 L 8 16" fill="#ffffff" stroke="none"/></g><g transform="translate(2,-6) scale(1,1)"><path d="M 8 16 L 8 38 L 127.30810546875 38 L 138.30810546875 27 L 138.30810546875 16 L 8 16 L 8 16" fill="none" stroke="#000000" stroke-miterlimit="10"/></g><g transform="translate(2,-6) scale(1,1)"><g><path fill="none" stroke="none"/><text fill="#000000" font-family="Arial" font-size="13px" font-style="normal" font-weight="normal" stroke="none" text-decoration="none" x="32.72998046875" y="31.5">Cerca Farmaco</text></g></g><g transform="translate(2,-6) scale(1,1)"><g><path fill="none" stroke="none"/><text fill="#000000" font-family="Arial" font-size="13px" font-style="normal" font-weight="bold" stroke="none" text-decoration="none" x="12.279541015625" y="31.5">sd</text></g></g><g transform="translate(2,-6) scale(1,1)"><path d="M 86.7344833096591 47.3 C 86.7344833096591 43.82060576 89.61288503184092 41 93.16357421875 41 C 96.71426340565908 41 99.5926651278409 43.82060576 99.5926651278409 47.3 C 99.5926651278409 50.779394239999995 96.71426340565908 53.6 93.16357421875 53.6 C 89.61288503184092 53.6 86.7344833096591 50.779394239999995 86.7344833096591 47.3 Z" fill="#ffffff" stroke="none"/></g><g transform="translate(2,-6) scale(1,1)"><path d="M 86.7344833096591 47.3 C 86.7344833096591 43.82060576 89.61288503184092 41 93.16357421875 41 C 96.71426340565908 41 99.5926651278409 43.82060576 99.5926651278409 47.3 C 99.5926651278409 50.779394239999995 96.71426340565908 53.6 93.16357421875 53.6 C 89.61288503184092 53.6 86.7344833096591 50.779394239999995 86.7344833096591 47.3 Z" fill="none" stroke="#000000" stroke-miterlimit="10"/></g><g transform="translate(2,-6) scale(1,1)"><path d="M 93.16357421875 53.6 L 93.16357421875 66.4" fill="none" stroke="#000000" stroke-miterlimit="10"/></g><g transform="translate(2,-6) scale(1,1)"><path d="M 86.35630149147727 58.4 L 99.97084694602273 58.4" fill="none" stroke="#000000" stroke-miterlimit="10"/></g><g transform="translate(2,-6) scale(1,1)"><path d="M 93.16357421875 66.4 L 83.70902876420455 79" fill="none" stroke="#000000" stroke-miterlimit="10"/></g><g transform="translate(2,-6) scale(1,1)"><path d="M 93.16357421875 66.4 L 102.61811967329545 79" fill="none" stroke="#000000" stroke-miterlimit="10"/></g><g transform="translate(2,-6) scale(1,1)"><g><path fill="none" stroke="none"/><text fill="#000000" font-family="Arial" font-size="13px" font-style="normal" font-weight="bold" stroke="none" text-decoration="none" x="54.8681640625" y="97.5">: Farmacista</text></g></g><g transform="translate(2,-6) scale(1,1)"><path d="M 94.5 105 L 94.5 712" fill="none" stroke="#000000" stroke-dasharray="3" stroke-miterlimit="10"/></g><g transform="translate(2,-6) scale(1,1)"><rect fill="#C0C0C0" height="39" opacity="0.2" stroke="none" width="259.220703125" x="159" y="47"/></g><g transform="translate(2,-6) scale(1,1)"><rect fill="#ffffff" height="39" stroke="none" width="259.220703125" x="152" y="40"/></g><g transform="translate(2,-6) scale(1,1)"><path d="M 152 40 L 411.220703125 40 L 411.220703125 79 L 152 79 L 152 40 Z Z" fill="none" stroke="#000000" stroke-miterlimit="10"/></g><g transform="translate(2,-6) scale(1,1)"><g><path fill="none" stroke="none"/><text fill="#000000" font-family="Arial" font-size="13px" font-style="normal" font-weight="normal" stroke="none" text-decoration="none" x="246.555419921875" y="55.5">«Boundary»</text></g></g><g transform="translate(2,-6) scale(1,1)"><g><path fill="none" stroke="none"/><text fill="#000000" font-family="Arial" font-size="13px" font-style="normal" font-weight="bold" stroke="none" text-decoration="none" x="215.861328125" y="70.5">:InterfacciaPrincipale</text></g></g><g transform="translate(2,-6) scale(1,1)"><path d="M 282.5 80 L 282.5 712" fill="none" stroke="#000000" stroke-dasharray="3" stroke-miterlimit="10"/></g><g transform="translate(2,-6) scale(1,1)"><rect fill="#C0C0C0" height="39" opacity="0.2" stroke="none" width="173.62890625" x="527" y="149"/></g><g transform="translate(2,-6) scale(1,1)"><rect fill="#ffffff" height="39" stroke="none" width="173.62890625" x="520" y="142"/></g><g transform="translate(2,-6) scale(1,1)"><path d="M 520 142 L 693.62890625 142 L 693.62890625 181 L 520 181 L 520 142 Z Z" fill="none" stroke="#000000" stroke-miterlimit="10"/></g><g transform="translate(2,-6) scale(1,1)"><g><path fill="none" stroke="none"/><text fill="#000000" font-family="Arial" font-size="13px" font-style="normal" font-weight="normal" stroke="none" text-decoration="none" x="580.074951171875" y="157.5">«control»</text></g></g><g transform="translate(2,-6) scale(1,1)"><g><path fill="none" stroke="none"/><text fill="#000000" font-family="Arial" font-size="13px" font-style="normal" font-weight="bold" stroke="none" text-decoration="none" x="531.66455078125" y="172.5">:GestoreRicercaFarmaci</text></g></g><g transform="translate(2,-6) scale(1,1)"><path d="M 607.5 182 L 607.5 712" fill="none" stroke="#000000" stroke-dasharray="3" stroke-miterlimit="10"/></g><g transform="translate(2,-6) scale(1,1)"><rect fill="#C0C0C0" height="39" opacity="0.2" stroke="none" width="185.20068359375" x="311" y="211"/></g><g transform="translate(2,-6) scale(1,1)"><rect fill="#ffffff" height="39" stroke="none" width="185.20068359375" x="304" y="204"/></g><g transform="translate(2,-6) scale(1,1)"><path d="M 304 204 L 489.20068359375 204 L 489.20068359375 243 L 304 243 L 304 204 Z Z" fill="none" stroke="#000000" stroke-miterlimit="10"/></g><g transform="translate(2,-6) scale(1,1)"><g><path fill="none" stroke="none"/><text fill="#000000" font-family="Arial" font-size="13px" font-style="normal" font-weight="normal" stroke="none" text-decoration="none" x="362.265869140625" y="219.5">«boundary»</text></g></g><g transform="translate(2,-6) scale(1,1)"><g><path fill="none" stroke="none"/><text fill="#000000" font-family="Arial" font-size="13px" font-style="normal" font-weight="bold" stroke="none" text-decoration="none" x="313.5" y="234.5">:InterfacciaRicercaFarmaci</text></g></g><g transform="translate(2,-6) scale(1,1)"><path d="M 397.5 244 L 397.5 712" fill="none" stroke="#000000" stroke-dasharray="3" stroke-miterlimit="10"/></g><g transform="translate(2,-6) scale(1,1)"><path d="M 1050.274522372159 47.3 C 1050.274522372159 43.82060576 1053.152924094341 41 1056.70361328125 41 C 1060.254302468159 41 1063.132704190341 43.82060576 1063.132704190341 47.3 C 1063.132704190341 50.779394239999995 1060.254302468159 53.6 1056.70361328125 53.6 C 1053.152924094341 53.6 1050.274522372159 50.779394239999995 1050.274522372159 47.3 Z" fill="#ffffff" stroke="none"/></g><g transform="translate(2,-6) scale(1,1)"><path d="M 1050.274522372159 47.3 C 1050.274522372159 43.82060576 1053.152924094341 41 1056.70361328125 41 C 1060.254302468159 41 1063.132704190341 43.82060576 1063.132704190341 47.3 C 1063.132704190341 50.779394239999995 1060.254302468159 53.6 1056.70361328125 53.6 C 1053.152924094341 53.6 1050.274522372159 50.779394239999995 1050.274522372159 47.3 Z" fill="none" stroke="#000000" stroke-miterlimit="10"/></g><g transform="translate(2,-6) scale(1,1)"><path d="M 1056.70361328125 53.6 L 1056.70361328125 66.4" fill="none" stroke="#000000" stroke-miterlimit="10"/></g><g transform="translate(2,-6) scale(1,1)"><path d="M 1049.8963405539773 58.4 L 1063.5108860085227 58.4" fill="none" stroke="#000000" stroke-miterlimit="10"/></g><g transform="translate(2,-6) scale(1,1)"><path d="M 1056.70361328125 66.4 L 1047.2490678267045 79" fill="none" stroke="#000000" stroke-miterlimit="10"/></g><g transform="translate(2,-6) scale(1,1)"><path d="M 1056.70361328125 66.4 L 1066.1581587357955 79" fill="none" stroke="#000000" stroke-miterlimit="10"/></g><g transform="translate(2,-6) scale(1,1)"><g><path fill="none" stroke="none"/><text fill="#000000" font-family="Arial" font-size="13px" font-style="normal" font-weight="bold" stroke="none" text-decoration="none" x="1006.8681640625" y="97.5">: DBMS Azienda</text></g></g><g transform="translate(2,-6) scale(1,1)"><path d="M 1057.5 105 L 1057.5 712" fill="none" stroke="#000000" stroke-dasharray="3" stroke-miterlimit="10"/></g><g transform="translate(2,-6) scale(1,1)"><path d="M 1181.899034090909 47.3 C 1181.899034090909 43.82060576 1184.777435813091 41 1188.328125 41 C 1191.878814186909 41 1194.757215909091 43.82060576 1194.757215909091 47.3 C 1194.757215909091 50.779394239999995 1191.878814186909 53.6 1188.328125 53.6 C 1184.777435813091 53.6 1181.899034090909 50.779394239999995 1181.899034090909 47.3 Z" fill="#ffffff" stroke="none"/></g><g transform="translate(2,-6) scale(1,1)"><path d="M 1181.899034090909 47.3 C 1181.899034090909 43.82060576 1184.777435813091 41 1188.328125 41 C 1191.878814186909 41 1194.757215909091 43.82060576 1194.757215909091 47.3 C 1194.757215909091 50.779394239999995 1191.878814186909 53.6 1188.328125 53.6 C 1184.777435813091 53.6 1181.899034090909 50.779394239999995 1181.899034090909 47.3 Z" fill="none" stroke="#000000" stroke-miterlimit="10"/></g><g transform="translate(2,-6) scale(1,1)"><path d="M 1188.328125 53.6 L 1188.328125 66.4" fill="none" stroke="#000000" stroke-miterlimit="10"/></g><g transform="translate(2,-6) scale(1,1)"><path d="M 1181.5208522727273 58.4 L 1195.1353977272727 58.4" fill="none" stroke="#000000" stroke-miterlimit="10"/></g><g transform="translate(2,-6) scale(1,1)"><path d="M 1188.328125 66.4 L 1178.8735795454545 79" fill="none" stroke="#000000" stroke-miterlimit="10"/></g><g transform="translate(2,-6) scale(1,1)"><path d="M 1188.328125 66.4 L 1197.7826704545455 79" fill="none" stroke="#000000" stroke-miterlimit="10"/></g><g transform="translate(2,-6) scale(1,1)"><g><path fill="none" stroke="none"/><text fill="#000000" font-family="Arial" font-size="13px" font-style="normal" font-weight="bold" stroke="none" text-decoration="none" x="1134.8681640625" y="97.5">: DBMS Farmacie</text></g></g><g transform="translate(2,-6) scale(1,1)"><path d="M 1189.5 105 L 1189.5 712" fill="none" stroke="#000000" stroke-dasharray="3" stroke-miterlimit="10"/></g><g transform="translate(2,-6) scale(1,1)"><rect fill="#C0C0C0" height="39" opacity="0.2" stroke="none" width="108.5654296875" x="855" y="47"/></g><g transform="translate(2,-6) scale(1,1)"><rect fill="#ffffff" height="39" stroke="none" width="108.5654296875" x="848" y="40"/></g><g transform="translate(2,-6) scale(1,1)"><path d="M 848 40 L 956.5654296875 40 L 956.5654296875 79 L 848 79 L 848 40 Z Z" fill="none" stroke="#000000" stroke-miterlimit="10"/></g><g transform="translate(2,-6) scale(1,1)"><g><path fill="none" stroke="none"/><text fill="#000000" font-family="Arial" font-size="13px" font-style="normal" font-weight="normal" stroke="none" text-decoration="none" x="867.227783203125" y="55.5">«Boundary»</text></g></g><g transform="translate(2,-6) scale(1,1)"><g><path fill="none" stroke="none"/><text fill="#000000" font-family="Arial" font-size="13px" font-style="normal" font-weight="bold" stroke="none" text-decoration="none" x="857.5" y="70.5">DBMSDaemon</text></g></g><g transform="translate(2,-6) scale(1,1)"><path d="M 903.5 80 L 903.5 712" fill="none" stroke="#000000" stroke-dasharray="3" stroke-miterlimit="10"/></g><g transform="translate(2,-6) scale(1,1)"><rect fill="#C0C0C0" height="39" opacity="0.2" stroke="none" width="99.20263671875" x="439" y="499"/></g><g transform="translate(2,-6) scale(1,1)"><rect fill="#ffffff" height="39" stroke="none" width="99.20263671875" x="432" y="492"/></g><g transform="translate(2,-6) scale(1,1)"><path d="M 432 492 L 531.20263671875 492 L 531.20263671875 531 L 432 531 L 432 492 Z Z" fill="none" stroke="#000000" stroke-miterlimit="10"/></g><g transform="translate(2,-6) scale(1,1)"><g><path fill="none" stroke="none"/><text fill="#000000" font-family="Arial" font-size="13px" font-style="normal" font-weight="normal" stroke="none" text-decoration="none" x="458.114990234375" y="507.5">«Entity»</text></g></g><g transform="translate(2,-6) scale(1,1)"><g><path fill="none" stroke="none"/><text fill="#000000" font-family="Arial" font-size="13px" font-style="normal" font-weight="bold" stroke="none" text-decoration="none" x="441.5" y="522.5">ListaFarmaci</text></g></g><g transform="translate(2,-6) scale(1,1)"><path d="M 482.5 532 L 482.5 712" fill="none" stroke="#000000" stroke-dasharray="3" stroke-miterlimit="10"/></g><g transform="translate(2,-6) scale(1,1)"><path d="M 94 120 L 275 120" fill="none" stroke="#000000" stroke-miterlimit="10"/></g><g transform="translate(2,-6) scale(1,1)"><path d="M 264.83732514237585 124.20951775601598 L 275 120 L 264.83732514237585 115.79048224398402" fill="#000000" stroke="none"/></g><g transform="translate(2,-6) scale(1,1)"><path d="M 264.83732514237585 124.20951775601598 L 275 120 L 264.83732514237585 115.79048224398402 L 264.83732514237585 124.20951775601598" fill="none" stroke="#000000" stroke-miterlimit="10"/></g><g transform="translate(2,-6) scale(1,1)"><g><path fill="none" stroke="none"/><text fill="#000000" font-family="Arial" font-size="13px" font-style="normal" font-weight="normal" stroke="none" text-decoration="none" x="113.5" y="106.5">1 : clickCercaFarmaco( )</text></g></g><g transform="translate(2,-6) scale(1,1)"><rect fill="#ffffff" height="28" stroke="none" width="13" x="275" y="120"/></g><g transform="translate(2,-6) scale(1,1)"><path d="M 275 120 L 288 120 L 288 148 L 275 148 L 275 120 Z Z" fill="none" stroke="#000000" stroke-miterlimit="10"/></g><g transform="translate(2,-6) scale(1,1)"><path d="M 282 162 L 520 162" fill="none" stroke="#000000" stroke-dasharray="3" stroke-miterlimit="10"/></g><g transform="translate(2,-6) scale(1,1)"><path d="M 509.83732514237585 166.209517756016 L 520 162 L 509.83732514237585 157.790482243984" fill="none" stroke="#000000" stroke-miterlimit="10"/></g><g transform="translate(2,-6) scale(1,1)"><g><path fill="none" stroke="none"/><text fill="#000000" font-family="Arial" font-size="13px" font-style="normal" font-weight="normal" stroke="none" text-decoration="none" x="391.5" y="156.5">2 : </text></g></g><g transform="translate(2,-6) scale(1,1)"><g><path fill="none" stroke="none"/><text fill="#000000" font-family="Arial" font-size="13px" font-style="normal" font-weight="normal" stroke="none" text-decoration="none" x="375.5" y="141.5">«create»</text></g></g><g transform="translate(2,-6) scale(1,1)"><path d="M 607 224 L 489.20068359375 224" fill="none" stroke="#000000" stroke-dasharray="3" stroke-miterlimit="10"/></g><g transform="translate(2,-6) scale(1,1)"><path d="M 499.36335845137415 219.790482243984 L 489.20068359375 224 L 499.36335845137415 228.209517756016" fill="none" stroke="#000000" stroke-miterlimit="10"/></g><g transform="translate(2,-6) scale(1,1)"><g><path fill="none" stroke="none"/><text fill="#000000" font-family="Arial" font-size="13px" font-style="normal" font-weight="normal" stroke="none" text-decoration="none" x="537.5" y="238.5">3 : </text></g></g><g transform="translate(2,-6) scale(1,1)"><g><path fill="none" stroke="none"/><text fill="#000000" font-family="Arial" font-size="13px" font-style="normal" font-weight="normal" stroke="none" text-decoration="none" x="521.5" y="253.5">«create»</text></g></g><g transform="translate(2,-6) scale(1,1)"><path d="M 94 312 L 390 312" fill="none" stroke="#000000" stroke-miterlimit="10"/></g><g transform="translate(2,-6) scale(1,1)"><path d="M 379.83732514237585 316.209517756016 L 390 312 L 379.83732514237585 307.790482243984" fill="#000000" stroke="none"/></g><g transform="translate(2,-6) scale(1,1)"><path d="M 379.83732514237585 316.209517756016 L 390 312 L 379.83732514237585 307.790482243984 L 379.83732514237585 316.209517756016" fill="none" stroke="#000000" stroke-miterlimit="10"/></g><g transform="translate(2,-6) scale(1,1)"><g><path fill="none" stroke="none"/><text fill="#000000" font-family="Arial" font-size="13px" font-style="normal" font-weight="normal" stroke="none" text-decoration="none" x="64.7099609375" y="297.5">4 : inserisciCriteriDiRicerca(nome,</text><text fill="#000000" font-family="Arial" font-size="13px" font-style="normal" font-weight="normal" stroke="none" text-decoration="none" x="127.548583984375" y="310.5">princ_attivo)</text></g></g><g transform="translate(2,-6) scale(1,1)"><rect fill="#ffffff" height="28" stroke="none" width="13" x="390" y="312"/></g><g transform="translate(2,-6) scale(1,1)"><path d="M 390 312 L 403 312 L 403 340 L 390 340 L 390 312 Z Z" fill="none" stroke="#000000" stroke-miterlimit="10"/></g><g transform="translate(2,-6) scale(1,1)"><path d="M 397 354 L 600 354" fill="none" stroke="#000000" stroke-miterlimit="10"/></g><g transform="translate(2,-6) scale(1,1)"><path d="M 589.8373251423759 358.209517756016 L 600 354 L 589.8373251423758 349.790482243984" fill="#000000" stroke="none"/></g><g transform="translate(2,-6) scale(1,1)"><path d="M 589.8373251423759 358.209517756016 L 600 354 L 589.8373251423758 349.790482243984 L 589.8373251423759 358.209517756016" fill="none" stroke="#000000" stroke-miterlimit="10"/></g><g transform="translate(2,-6) scale(1,1)"><g><path fill="none" stroke="none"/><text fill="#000000" font-family="Arial" font-size="13px" font-style="normal" font-weight="normal" stroke="none" text-decoration="none" x="389.5" y="348.5">5 : cercaFarmaco(nome, princ_attivo)</text></g></g><g transform="translate(2,-6) scale(1,1)"><rect fill="#ffffff" height="28" stroke="none" width="13" x="600" y="354"/></g><g transform="translate(2,-6) scale(1,1)"><path d="M 600 354 L 613 354 L 613 382 L 600 382 L 600 354 Z Z" fill="none" stroke="#000000" stroke-miterlimit="10"/></g><g transform="translate(2,-6) scale(1,1)"><path d="M 607 392 L 896 392" fill="none" stroke="#000000" stroke-miterlimit="10"/></g><g transform="translate(2,-6) scale(1,1)"><path d="M 885.8373251423759 396.209517756016 L 896 392 L 885.8373251423758 387.790482243984" fill="#000000" stroke="none"/></g><g transform="translate(2,-6) scale(1,1)"><path d="M 885.8373251423759 396.209517756016 L 896 392 L 885.8373251423758 387.790482243984 L 885.8373251423759 396.209517756016" fill="none" stroke="#000000" stroke-miterlimit="10"/></g><g transform="translate(2,-6) scale(1,1)"><g><path fill="none" stroke="none"/><text fill="#000000" font-family="Arial" font-size="13px" font-style="normal" font-weight="normal" stroke="none" text-decoration="none" x="703.5" y="386.5">6 : query(nome,princ_attivo)</text></g></g><g transform="translate(2,-6) scale(1,1)"><rect fill="#ffffff" height="28" stroke="none" width="13" x="896" y="392"/></g><g transform="translate(2,-6) scale(1,1)"><path d="M 896 392 L 909 392 L 909 420 L 896 420 L 896 392 Z Z" fill="none" stroke="#000000" stroke-miterlimit="10"/></g><g transform="translate(2,-6) scale(1,1)"><path d="M 909 416 L 1050 416" fill="none" stroke="#000000" stroke-miterlimit="10"/></g><g transform="translate(2,-6) scale(1,1)"><path d="M 1039.837325142376 420.209517756016 L 1050 416 L 1039.837325142376 411.790482243984" fill="#000000" stroke="none"/></g><g transform="translate(2,-6) scale(1,1)"><path d="M 1039.837325142376 420.209517756016 L 1050 416 L 1039.837325142376 411.790482243984 L 1039.837325142376 420.209517756016" fill="none" stroke="#000000" stroke-miterlimit="10"/></g><g transform="translate(2,-6) scale(1,1)"><g><path fill="none" stroke="none"/><text fill="#000000" font-family="Arial" font-size="13px" font-style="normal" font-weight="normal" stroke="none" text-decoration="none" x="884.09814453125" y="392.5">7 : queryFarmaci( nome,</text><text fill="#000000" font-family="Arial" font-size="13px" font-style="normal" font-weight="normal" stroke="none" text-decoration="none" x="919.495849609375" y="405.5">princ_attivo)</text></g></g><g transform="translate(2,-6) scale(1,1)"><rect fill="#ffffff" height="28" stroke="none" width="13" x="1050" y="416"/></g><g transform="translate(2,-6) scale(1,1)"><path d="M 1050 416 L 1063 416 L 1063 444 L 1050 444 L 1050 416 Z Z" fill="none" stroke="#000000" stroke-miterlimit="10"/></g><g transform="translate(2,-6) scale(1,1)"><path d="M 1057 448 L 903 448" fill="none" stroke="#000000" stroke-dasharray="3" stroke-miterlimit="10"/></g><g transform="translate(2,-6) scale(1,1)"><path d="M 913.1626748576241 443.790482243984 L 903 448 L 913.1626748576241 452.209517756016" fill="none" stroke="#000000" stroke-miterlimit="10"/></g><g transform="translate(2,-6) scale(1,1)"><g><path fill="none" stroke="none"/><text fill="#000000" font-family="Arial" font-size="13px" font-style="normal" font-weight="normal" stroke="none" text-decoration="none" x="956.5" y="462.5">8 : esito</text></g></g><g transform="translate(2,-6) scale(1,1)"><path d="M 903 464 L 607 464" fill="none" stroke="#000000" stroke-dasharray="3" stroke-miterlimit="10"/></g><g transform="translate(2,-6) scale(1,1)"><path d="M 617.1626748576241 459.790482243984 L 607 464 L 617.1626748576241 468.209517756016" fill="none" stroke="#000000" stroke-miterlimit="10"/></g><g transform="translate(2,-6) scale(1,1)"><g><path fill="none" stroke="none"/><text fill="#000000" font-family="Arial" font-size="13px" font-style="normal" font-weight="normal" stroke="none" text-decoration="none" x="731.5" y="478.5">9 : esito</text></g></g><g transform="translate(2,-6) scale(1,1)"><path d="M 607 512 L 531.20263671875 512" fill="none" stroke="#000000" stroke-dasharray="3" stroke-miterlimit="10"/></g><g transform="translate(2,-6) scale(1,1)"><path d="M 541.3653115763741 507.790482243984 L 531.20263671875 512 L 541.3653115763741 516.209517756016" fill="none" stroke="#000000" stroke-miterlimit="10"/></g><g transform="translate(2,-6) scale(1,1)"><g><path fill="none" stroke="none"/><text fill="#000000" font-family="Arial" font-size="13px" font-style="normal" font-weight="normal" stroke="none" text-decoration="none" x="555.5" y="526.5">10 : </text></g></g><g transform="translate(2,-6) scale(1,1)"><g><path fill="none" stroke="none"/><text fill="#000000" font-family="Arial" font-size="13px" font-style="normal" font-weight="normal" stroke="none" text-decoration="none" x="542.5" y="541.5">«create»</text></g></g><g transform="translate(2,-6) scale(1,1)"><path d="M 607 536 L 896 536" fill="none" stroke="#000000" stroke-miterlimit="10"/></g><g transform="translate(2,-6) scale(1,1)"><path d="M 885.8373251423759 540.209517756016 L 896 536 L 885.8373251423758 531.790482243984" fill="#000000" stroke="none"/></g><g transform="translate(2,-6) scale(1,1)"><path d="M 885.8373251423759 540.209517756016 L 896 536 L 885.8373251423758 531.790482243984 L 885.8373251423759 540.209517756016" fill="none" stroke="#000000" stroke-miterlimit="10"/></g><g transform="translate(2,-6) scale(1,1)"><g><path fill="none" stroke="none"/><text fill="#000000" font-family="Arial" font-size="13px" font-style="normal" font-weight="normal" stroke="none" text-decoration="none" x="702.5" y="530.5">11 : queryQuantita(listaFarmaci)</text></g></g><g transform="translate(2,-6) scale(1,1)"><rect fill="#ffffff" height="28" stroke="none" width="13" x="896" y="536"/></g><g transform="translate(2,-6) scale(1,1)"><path d="M 896 536 L 909 536 L 909 564 L 896 564 L 896 536 Z Z" fill="none" stroke="#000000" stroke-miterlimit="10"/></g><g transform="translate(2,-6) scale(1,1)"><path d="M 909 552 L 1182 552" fill="none" stroke="#000000" stroke-miterlimit="10"/></g><g transform="translate(2,-6) scale(1,1)"><path d="M 1171.837325142376 556.209517756016 L 1182 552 L 1171.837325142376 547.790482243984" fill="#000000" stroke="none"/></g><g transform="translate(2,-6) scale(1,1)"><path d="M 1171.837325142376 556.209517756016 L 1182 552 L 1171.837325142376 547.790482243984 L 1171.837325142376 556.209517756016" fill="none" stroke="#000000" stroke-miterlimit="10"/></g><g transform="translate(2,-6) scale(1,1)"><g><path fill="none" stroke="none"/><text fill="#000000" font-family="Arial" font-size="13px" font-style="normal" font-weight="normal" stroke="none" text-decoration="none" x="990.45458984375" y="529.5">12 : queryFarmaci(</text><text fill="#000000" font-family="Arial" font-size="13px" font-style="normal" font-weight="normal" stroke="none" text-decoration="none" x="1007.802734375" y="542.5">listaFarmaci)</text></g></g><g transform="translate(2,-6) scale(1,1)"><rect fill="#ffffff" height="28" stroke="none" width="13" x="1182" y="552"/></g><g transform="translate(2,-6) scale(1,1)"><path d="M 1182 552 L 1195 552 L 1195 580 L 1182 580 L 1182 552 Z Z" fill="none" stroke="#000000" stroke-miterlimit="10"/></g><g transform="translate(2,-6) scale(1,1)"><path d="M 1182 576 L 903 576" fill="none" stroke="#000000" stroke-dasharray="3" stroke-miterlimit="10"/></g><g transform="translate(2,-6) scale(1,1)"><path d="M 913.1626748576241 571.790482243984 L 903 576 L 913.1626748576241 580.209517756016" fill="none" stroke="#000000" stroke-miterlimit="10"/></g><g transform="translate(2,-6) scale(1,1)"><g><path fill="none" stroke="none"/><text fill="#000000" font-family="Arial" font-size="13px" font-style="normal" font-weight="normal" stroke="none" text-decoration="none" x="1014.5" y="590.5">13 : esito</text></g></g><g transform="translate(2,-6) scale(1,1)"><path d="M 903 592 L 607 592" fill="none" stroke="#000000" stroke-dasharray="3" stroke-miterlimit="10"/></g><g transform="translate(2,-6) scale(1,1)"><path d="M 617.1626748576241 587.790482243984 L 607 592 L 617.1626748576241 596.209517756016" fill="none" stroke="#000000" stroke-miterlimit="10"/></g><g transform="translate(2,-6) scale(1,1)"><g><path fill="none" stroke="none"/><text fill="#000000" font-family="Arial" font-size="13px" font-style="normal" font-weight="normal" stroke="none" text-decoration="none" x="727.5" y="606.5">14 : esito</text></g></g><g transform="translate(2,-6) scale(1,1)"><path d="M 607 616 L 488 616" fill="none" stroke="#000000" stroke-miterlimit="10"/></g><g transform="translate(2,-6) scale(1,1)"><path d="M 498.16267485762415 611.790482243984 L 488 616 L 498.16267485762415 620.209517756016" fill="#000000" stroke="none"/></g><g transform="translate(2,-6) scale(1,1)"><path d="M 498.16267485762415 611.790482243984 L 488 616 L 498.16267485762415 620.209517756016 L 498.16267485762415 611.790482243984" fill="none" stroke="#000000" stroke-miterlimit="10"/></g><g transform="translate(2,-6) scale(1,1)"><g><path fill="none" stroke="none"/><text fill="#000000" font-family="Arial" font-size="13px" font-style="normal" font-weight="normal" stroke="none" text-decoration="none" x="487.621337890625" y="633.5">15 : riempiQuantita(</text><text fill="#000000" font-family="Arial" font-size="13px" font-style="normal" font-weight="normal" stroke="none" text-decoration="none" x="495.93359375" y="646.5">quantitaFarmaci)</text></g></g><g transform="translate(2,-6) scale(1,1)"><rect fill="#ffffff" height="28" stroke="none" width="13" x="475" y="616"/></g><g transform="translate(2,-6) scale(1,1)"><path d="M 475 616 L 488 616 L 488 644 L 475 644 L 475 616 Z Z" fill="none" stroke="#000000" stroke-miterlimit="10"/></g></g></svg>