<?xml version="1.0" encoding="UTF-8" standalone="no"?><svg xmlns="http://www.w3.org/2000/svg" xmlns:xlink="http://www.w3.org/1999/xlink" height="380" version="1.1" width="668"><defs/><g><g transform="translate(-254,-110) scale(1,1)"><path d="M 264 120 L 912 120 L 912 480 L 264 480 L 264 120" fill="none" stroke="#000000" stroke-miterlimit="10"/></g><g transform="translate(-254,-110) scale(1,1)"><path d="M 264 120 L 264 142 L 415.1416015625 142 L 426.1416015625 131 L 426.1416015625 120 L 264 120" fill="#ffffff" stroke="none"/></g><g transform="translate(-254,-110) scale(1,1)"><path d="M 264 120 L 264 142 L 415.1416015625 142 L 426.1416015625 131 L 426.1416015625 120 L 264 120 L 264 120" fill="none" stroke="#000000" stroke-miterlimit="10"/></g><g transform="translate(-254,-110) scale(1,1)"><g><path fill="none" stroke="none"/><text fill="#000000" font-family="Arial" font-size="13px" font-style="normal" font-weight="normal" stroke="none" text-decoration="none" x="288.72998046875" y="135.5">Gestione Produzione</text></g></g><g transform="translate(-254,-110) scale(1,1)"><g><path fill="none" stroke="none"/><text fill="#000000" font-family="Arial" font-size="13px" font-style="normal" font-weight="bold" stroke="none" text-decoration="none" x="268.279541015625" y="134.5">uc</text></g></g><g transform="translate(-254,-110) scale(1,1)"><rect fill="#C0C0C0" height="264" opacity="0.2" stroke="none" width="320" x="407" y="175"/></g><g transform="translate(-254,-110) scale(1,1)"><rect fill="#ffffff" height="264" stroke="none" width="320" x="400" y="168"/></g><g transform="translate(-254,-110) scale(1,1)"><path d="M 400 168 L 720 168 L 720 432 L 400 432 L 400 168 Z Z" fill="none" stroke="#000000" stroke-miterlimit="10"/></g><g transform="translate(-254,-110) scale(1,1)"><g><path fill="none" stroke="none"/><text fill="#000000" font-family="Arial" font-size="13px" font-style="normal" font-weight="bold" stroke="none" text-decoration="none" x="535.069580078125" y="185.5">Sistema</text></g></g><g transform="translate(-254,-110) scale(1,1)"><path d="M 321.64421360085225 321.68 C 321.64421360085225 316.886167936 325.53005592579774 313 330.323486328125 313 C 335.11691673045226 313 339.00275905539775 316.886167936 339.00275905539775 321.68 C 339.00275905539775 326.473832064 335.11691673045226 330.36 330.323486328125 330.36 C 325.53005592579774 330.36 321.64421360085225 326.473832064 321.64421360085225 321.68 Z" fill="#ffffff" stroke="none"/></g><g transform="translate(-254,-110) scale(1,1)"><path d="M 321.64421360085225 321.68 C 321.64421360085225 316.886167936 325.53005592579774 313 330.323486328125 313 C 335.11691673045226 313 339.00275905539775 316.886167936 339.00275905539775 321.68 C 339.00275905539775 326.473832064 335.11691673045226 330.36 330.323486328125 330.36 C 325.53005592579774 330.36 321.64421360085225 326.473832064 321.64421360085225 321.68 Z" fill="none" stroke="#000000" stroke-miterlimit="10"/></g><g transform="translate(-254,-110) scale(1,1)"><path d="M 330.323486328125 330.36 L 330.323486328125 347.64" fill="none" stroke="#000000" stroke-miterlimit="10"/></g><g transform="translate(-254,-110) scale(1,1)"><path d="M 321.13366814630683 336.84 L 339.51330450994317 336.84" fill="none" stroke="#000000" stroke-miterlimit="10"/></g><g transform="translate(-254,-110) scale(1,1)"><path d="M 330.323486328125 347.64 L 317.55984996448865 365" fill="none" stroke="#000000" stroke-miterlimit="10"/></g><g transform="translate(-254,-110) scale(1,1)"><path d="M 330.323486328125 347.64 L 343.08712269176135 365" fill="none" stroke="#000000" stroke-miterlimit="10"/></g><g transform="translate(-254,-110) scale(1,1)"><g><path fill="none" stroke="none"/><text fill="#000000" font-family="Arial" font-size="13px" font-style="normal" font-weight="bold" stroke="none" text-decoration="none" x="309.5" y="383.5">Tempo</text></g></g><g transform="translate(-254,-110) scale(1,1)"><path d="M 322.51799289772725 225.68 C 322.51799289772725 220.886167936 326.40383522267274 217 331.197265625 217 C 335.99069602732726 217 339.87653835227275 220.886167936 339.87653835227275 225.68 C 339.87653835227275 230.47383206400002 335.99069602732726 234.36 331.197265625 234.36 C 326.40383522267274 234.36 322.51799289772725 230.47383206400002 322.51799289772725 225.68 Z" fill="#ffffff" stroke="none"/></g><g transform="translate(-254,-110) scale(1,1)"><path d="M 322.51799289772725 225.68 C 322.51799289772725 220.886167936 326.40383522267274 217 331.197265625 217 C 335.99069602732726 217 339.87653835227275 220.886167936 339.87653835227275 225.68 C 339.87653835227275 230.47383206400002 335.99069602732726 234.36 331.197265625 234.36 C 326.40383522267274 234.36 322.51799289772725 230.47383206400002 322.51799289772725 225.68 Z" fill="none" stroke="#000000" stroke-miterlimit="10"/></g><g transform="translate(-254,-110) scale(1,1)"><path d="M 331.197265625 234.36 L 331.197265625 251.64" fill="none" stroke="#000000" stroke-miterlimit="10"/></g><g transform="translate(-254,-110) scale(1,1)"><path d="M 322.00744744318183 240.84 L 340.38708380681817 240.84" fill="none" stroke="#000000" stroke-miterlimit="10"/></g><g transform="translate(-254,-110) scale(1,1)"><path d="M 331.197265625 251.64 L 318.43362926136365 269" fill="none" stroke="#000000" stroke-miterlimit="10"/></g><g transform="translate(-254,-110) scale(1,1)"><path d="M 331.197265625 251.64 L 343.96090198863635 269" fill="none" stroke="#000000" stroke-miterlimit="10"/></g><g transform="translate(-254,-110) scale(1,1)"><g><path fill="none" stroke="none"/><text fill="#000000" font-family="Arial" font-size="13px" font-style="normal" font-weight="bold" stroke="none" text-decoration="none" x="300.5" y="287.5">Impiegato</text></g></g><g transform="translate(-254,-110) scale(1,1)"><path d="M 849.6857175071023 273.68 C 849.6857175071023 268.886167936 853.5715598320477 265 858.364990234375 265 C 863.1584206367023 265 867.0442629616477 268.886167936 867.0442629616477 273.68 C 867.0442629616477 278.473832064 863.1584206367023 282.36 858.364990234375 282.36 C 853.5715598320477 282.36 849.6857175071023 278.473832064 849.6857175071023 273.68 Z" fill="#ffffff" stroke="none"/></g><g transform="translate(-254,-110) scale(1,1)"><path d="M 849.6857175071023 273.68 C 849.6857175071023 268.886167936 853.5715598320477 265 858.364990234375 265 C 863.1584206367023 265 867.0442629616477 268.886167936 867.0442629616477 273.68 C 867.0442629616477 278.473832064 863.1584206367023 282.36 858.364990234375 282.36 C 853.5715598320477 282.36 849.6857175071023 278.473832064 849.6857175071023 273.68 Z" fill="none" stroke="#000000" stroke-miterlimit="10"/></g><g transform="translate(-254,-110) scale(1,1)"><path d="M 858.364990234375 282.36 L 858.364990234375 299.64" fill="none" stroke="#000000" stroke-miterlimit="10"/></g><g transform="translate(-254,-110) scale(1,1)"><path d="M 849.1751720525568 288.84 L 867.5548084161932 288.84" fill="none" stroke="#000000" stroke-miterlimit="10"/></g><g transform="translate(-254,-110) scale(1,1)"><path d="M 858.364990234375 299.64 L 845.6013538707386 317" fill="none" stroke="#000000" stroke-miterlimit="10"/></g><g transform="translate(-254,-110) scale(1,1)"><path d="M 858.364990234375 299.64 L 871.1286265980114 317" fill="none" stroke="#000000" stroke-miterlimit="10"/></g><g transform="translate(-254,-110) scale(1,1)"><g><path fill="none" stroke="none"/><text fill="#000000" font-family="Arial" font-size="13px" font-style="normal" font-weight="bold" stroke="none" text-decoration="none" x="812.5" y="335.5">DBMS Azienda</text></g></g><g transform="translate(-254,-110) scale(1,1)"><path d="M 415 360 C 415 350.6111584 479.0232736 343 558 343 C 636.9767264 343 701 350.6111584 701 360 C 701 369.3888416 636.9767264 377 558 377 C 479.0232736 377 415 369.3888416 415 360 Z" fill="#C0C0C0" opacity="0.2" stroke="none"/></g><g transform="translate(-254,-110) scale(1,1)"><path d="M 408 353 C 408 343.6111584 472.0232736 336 551 336 C 629.9767264 336 694 343.6111584 694 353 C 694 362.3888416 629.9767264 370 551 370 C 472.0232736 370 408 362.3888416 408 353 Z" fill="#ffffff" stroke="none"/></g><g transform="translate(-254,-110) scale(1,1)"><path d="M 408 353 C 408 343.6111584 472.0232736 336 551 336 C 629.9767264 336 694 343.6111584 694 353 C 694 362.3888416 629.9767264 370 551 370 C 472.0232736 370 408 362.3888416 408 353 Z" fill="none" stroke="#000000" stroke-miterlimit="10"/></g><g transform="translate(-254,-110) scale(1,1)"><g><path fill="none" stroke="none"/><text fill="#000000" font-family="Arial" font-size="13px" font-style="normal" font-weight="bold" stroke="none" text-decoration="none" x="454.201416015625" y="358">Aggiornamento Scorte Farmaci</text></g></g><g transform="translate(-254,-110) scale(1,1)"><path d="M 423 264 C 423 254.6111584 487.0232736 247 566 247 C 644.9767264 247 709 254.6111584 709 264 C 709 273.3888416 644.9767264 281 566 281 C 487.0232736 281 423 273.3888416 423 264 Z" fill="#C0C0C0" opacity="0.2" stroke="none"/></g><g transform="translate(-254,-110) scale(1,1)"><path d="M 416 257 C 416 247.6111584 480.0232736 240 559 240 C 637.9767264 240 702 247.6111584 702 257 C 702 266.3888416 637.9767264 274 559 274 C 480.0232736 274 416 266.3888416 416 257 Z" fill="#ffffff" stroke="none"/></g><g transform="translate(-254,-110) scale(1,1)"><path d="M 416 257 C 416 247.6111584 480.0232736 240 559 240 C 637.9767264 240 702 247.6111584 702 257 C 702 266.3888416 637.9767264 274 559 274 C 480.0232736 274 416 266.3888416 416 257 Z" fill="none" stroke="#000000" stroke-miterlimit="10"/></g><g transform="translate(-254,-110) scale(1,1)"><g><path fill="none" stroke="none"/><text fill="#000000" font-family="Arial" font-size="13px" font-style="normal" font-weight="bold" stroke="none" text-decoration="none" x="473.408203125" y="262">Modifica Produzione Scorte</text></g></g><g transform="translate(-254,-110) scale(1,1)"><path d="M 357 351 L 407 352" fill="none" stroke="#000000" stroke-miterlimit="10"/></g><g transform="translate(-254,-110) scale(1,1)"><path d="M 694 353 L 768 353 L 768 312 L 808 312" fill="none" stroke="#000000" stroke-miterlimit="10"/></g><g transform="translate(-254,-110) scale(1,1)"><path d="M 367 255 L 415 256" fill="none" stroke="#000000" stroke-miterlimit="10"/></g><g transform="translate(-254,-110) scale(1,1)"><path d="M 702 257 L 768 257 L 768 296 L 808 296" fill="none" stroke="#000000" stroke-miterlimit="10"/></g></g></svg>