<?xml version="1.0" encoding="UTF-8" standalone="no"?><svg xmlns="http://www.w3.org/2000/svg" xmlns:xlink="http://www.w3.org/1999/xlink" height="948" version="1.1" width="1388"><defs/><g><g transform="translate(2,2) scale(1,1)"><path d="M 8 8 L 1376 8 L 1376 936 L 8 936 L 8 8" fill="none" stroke="#000000" stroke-miterlimit="10"/></g><g transform="translate(2,2) scale(1,1)"><path d="M 8 8 L 8 30 L 200.3125 30 L 211.3125 19 L 211.3125 8 L 8 8" fill="#ffffff" stroke="none"/></g><g transform="translate(2,2) scale(1,1)"><path d="M 8 8 L 8 30 L 200.3125 30 L 211.3125 19 L 211.3125 8 L 8 8 L 8 8" fill="none" stroke="#000000" stroke-miterlimit="10"/></g><g transform="translate(2,2) scale(1,1)"><g><path fill="none" stroke="none"/><text fill="#000000" font-family="Arial" font-size="13px" font-style="normal" font-weight="normal" stroke="none" text-decoration="none" x="32.72998046875" y="23.5">Modifica Produzione Scorte </text></g></g><g transform="translate(2,2) scale(1,1)"><g><path fill="none" stroke="none"/><text fill="#000000" font-family="Arial" font-size="13px" font-style="normal" font-weight="bold" stroke="none" text-decoration="none" x="12.279541015625" y="23.5">sd</text></g></g><g transform="translate(2,2) scale(1,1)"><path d="M 99.1067977627841 47.3 C 99.1067977627841 43.82060576 101.98519948496592 41 105.535888671875 41 C 109.08657785878408 41 111.9649795809659 43.82060576 111.9649795809659 47.3 C 111.9649795809659 50.779394239999995 109.08657785878408 53.6 105.535888671875 53.6 C 101.98519948496592 53.6 99.1067977627841 50.779394239999995 99.1067977627841 47.3 Z" fill="#ffffff" stroke="none"/></g><g transform="translate(2,2) scale(1,1)"><path d="M 99.1067977627841 47.3 C 99.1067977627841 43.82060576 101.98519948496592 41 105.535888671875 41 C 109.08657785878408 41 111.9649795809659 43.82060576 111.9649795809659 47.3 C 111.9649795809659 50.779394239999995 109.08657785878408 53.6 105.535888671875 53.6 C 101.98519948496592 53.6 99.1067977627841 50.779394239999995 99.1067977627841 47.3 Z" fill="none" stroke="#000000" stroke-miterlimit="10"/></g><g transform="translate(2,2) scale(1,1)"><path d="M 105.535888671875 53.6 L 105.535888671875 66.4" fill="none" stroke="#000000" stroke-miterlimit="10"/></g><g transform="translate(2,2) scale(1,1)"><path d="M 98.72861594460227 58.4 L 112.34316139914773 58.4" fill="none" stroke="#000000" stroke-miterlimit="10"/></g><g transform="translate(2,2) scale(1,1)"><path d="M 105.535888671875 66.4 L 96.08134321732955 79" fill="none" stroke="#000000" stroke-miterlimit="10"/></g><g transform="translate(2,2) scale(1,1)"><path d="M 105.535888671875 66.4 L 114.99043412642045 79" fill="none" stroke="#000000" stroke-miterlimit="10"/></g><g transform="translate(2,2) scale(1,1)"><g><path fill="none" stroke="none"/><text fill="#000000" font-family="Arial" font-size="13px" font-style="normal" font-weight="bold" stroke="none" text-decoration="none" x="70.8681640625" y="97.5">: Impiegato</text></g></g><g transform="translate(2,2) scale(1,1)"><path d="M 106.5 105 L 106.5 728" fill="none" stroke="#000000" stroke-dasharray="3" stroke-miterlimit="10"/></g><g transform="translate(2,2) scale(1,1)"><rect fill="#C0C0C0" height="39" opacity="0.2" stroke="none" width="258.23681640625" x="215" y="47"/></g><g transform="translate(2,2) scale(1,1)"><rect fill="#ffffff" height="39" stroke="none" width="258.23681640625" x="208" y="40"/></g><g transform="translate(2,2) scale(1,1)"><path d="M 208 40 L 466.23681640625 40 L 466.23681640625 79 L 208 79 L 208 40 Z Z" fill="none" stroke="#000000" stroke-miterlimit="10"/></g><g transform="translate(2,2) scale(1,1)"><g><path fill="none" stroke="none"/><text fill="#000000" font-family="Arial" font-size="13px" font-style="normal" font-weight="normal" stroke="none" text-decoration="none" x="302.0634765625" y="55.5">«Boundary»</text></g></g><g transform="translate(2,2) scale(1,1)"><g><path fill="none" stroke="none"/><text fill="#000000" font-family="Arial" font-size="13px" font-style="normal" font-weight="bold" stroke="none" text-decoration="none" x="222.80029296875" y="70.5">InterfacciaPrincipale[tipo=Impiegato]</text></g></g><g transform="translate(2,2) scale(1,1)"><path d="M 338.5 80 L 338.5 239" fill="none" stroke="#000000" stroke-dasharray="3" stroke-miterlimit="10"/></g><g transform="translate(2,2) scale(1,1)"><rect fill="#C0C0C0" height="39" opacity="0.2" stroke="none" width="198.8544921875" x="527" y="115"/></g><g transform="translate(2,2) scale(1,1)"><rect fill="#ffffff" height="39" stroke="none" width="198.8544921875" x="520" y="108"/></g><g transform="translate(2,2) scale(1,1)"><path d="M 520 108 L 718.8544921875 108 L 718.8544921875 147 L 520 147 L 520 108 Z Z" fill="none" stroke="#000000" stroke-miterlimit="10"/></g><g transform="translate(2,2) scale(1,1)"><g><path fill="none" stroke="none"/><text fill="#000000" font-family="Arial" font-size="13px" font-style="normal" font-weight="normal" stroke="none" text-decoration="none" x="591.24365234375" y="123.5">«Control»</text></g></g><g transform="translate(2,2) scale(1,1)"><g><path fill="none" stroke="none"/><text fill="#000000" font-family="Arial" font-size="13px" font-style="normal" font-weight="bold" stroke="none" text-decoration="none" x="533.11181640625" y="138.5">GestoreModificaProduzione</text></g></g><g transform="translate(2,2) scale(1,1)"><path d="M 620.5 148 L 620.5 888" fill="none" stroke="#000000" stroke-dasharray="3" stroke-miterlimit="10"/></g><g transform="translate(2,2) scale(1,1)"><rect fill="#C0C0C0" height="39" opacity="0.2" stroke="none" width="214.75537109375" x="295" y="235"/></g><g transform="translate(2,2) scale(1,1)"><rect fill="#ffffff" height="39" stroke="none" width="214.75537109375" x="288" y="228"/></g><g transform="translate(2,2) scale(1,1)"><path d="M 288 228 L 502.75537109375 228 L 502.75537109375 267 L 288 267 L 288 228 Z Z" fill="none" stroke="#000000" stroke-miterlimit="10"/></g><g transform="translate(2,2) scale(1,1)"><g><path fill="none" stroke="none"/><text fill="#000000" font-family="Arial" font-size="13px" font-style="normal" font-weight="normal" stroke="none" text-decoration="none" x="360.32275390625" y="243.5">«Boundary»</text></g></g><g transform="translate(2,2) scale(1,1)"><g><path fill="none" stroke="none"/><text fill="#000000" font-family="Arial" font-size="13px" font-style="normal" font-weight="bold" stroke="none" text-decoration="none" x="301.11181640625" y="258.5">InterfacciaModificaProduzione</text></g></g><g transform="translate(2,2) scale(1,1)"><path d="M 396.5 268 L 396.5 814" fill="none" stroke="#000000" stroke-dasharray="3" stroke-miterlimit="10"/></g><g transform="translate(2,2) scale(1,1)"><rect fill="#C0C0C0" height="39" opacity="0.2" stroke="none" width="108.5654296875" x="807" y="47"/></g><g transform="translate(2,2) scale(1,1)"><rect fill="#ffffff" height="39" stroke="none" width="108.5654296875" x="800" y="40"/></g><g transform="translate(2,2) scale(1,1)"><path d="M 800 40 L 908.5654296875 40 L 908.5654296875 79 L 800 79 L 800 40 Z Z" fill="none" stroke="#000000" stroke-miterlimit="10"/></g><g transform="translate(2,2) scale(1,1)"><g><path fill="none" stroke="none"/><text fill="#000000" font-family="Arial" font-size="13px" font-style="normal" font-weight="normal" stroke="none" text-decoration="none" x="819.227783203125" y="55.5">«Boundary»</text></g></g><g transform="translate(2,2) scale(1,1)"><g><path fill="none" stroke="none"/><text fill="#000000" font-family="Arial" font-size="13px" font-style="normal" font-weight="bold" stroke="none" text-decoration="none" x="809.5" y="70.5">DBMSDaemon</text></g></g><g transform="translate(2,2) scale(1,1)"><path d="M 855.5 80 L 855.5 896" fill="none" stroke="#000000" stroke-dasharray="3" stroke-miterlimit="10"/></g><g transform="translate(2,2) scale(1,1)"><path d="M 1130.274522372159 47.3 C 1130.274522372159 43.82060576 1133.152924094341 41 1136.70361328125 41 C 1140.254302468159 41 1143.132704190341 43.82060576 1143.132704190341 47.3 C 1143.132704190341 50.779394239999995 1140.254302468159 53.6 1136.70361328125 53.6 C 1133.152924094341 53.6 1130.274522372159 50.779394239999995 1130.274522372159 47.3 Z" fill="#ffffff" stroke="none"/></g><g transform="translate(2,2) scale(1,1)"><path d="M 1130.274522372159 47.3 C 1130.274522372159 43.82060576 1133.152924094341 41 1136.70361328125 41 C 1140.254302468159 41 1143.132704190341 43.82060576 1143.132704190341 47.3 C 1143.132704190341 50.779394239999995 1140.254302468159 53.6 1136.70361328125 53.6 C 1133.152924094341 53.6 1130.274522372159 50.779394239999995 1130.274522372159 47.3 Z" fill="none" stroke="#000000" stroke-miterlimit="10"/></g><g transform="translate(2,2) scale(1,1)"><path d="M 1136.70361328125 53.6 L 1136.70361328125 66.4" fill="none" stroke="#000000" stroke-miterlimit="10"/></g><g transform="translate(2,2) scale(1,1)"><path d="M 1129.8963405539773 58.4 L 1143.5108860085227 58.4" fill="none" stroke="#000000" stroke-miterlimit="10"/></g><g transform="translate(2,2) scale(1,1)"><path d="M 1136.70361328125 66.4 L 1127.2490678267045 79" fill="none" stroke="#000000" stroke-miterlimit="10"/></g><g transform="translate(2,2) scale(1,1)"><path d="M 1136.70361328125 66.4 L 1146.1581587357955 79" fill="none" stroke="#000000" stroke-miterlimit="10"/></g><g transform="translate(2,2) scale(1,1)"><g><path fill="none" stroke="none"/><text fill="#000000" font-family="Arial" font-size="13px" font-style="normal" font-weight="bold" stroke="none" text-decoration="none" x="1086.8681640625" y="97.5">: DBMS Azienda</text></g></g><g transform="translate(2,2) scale(1,1)"><path d="M 1137.5 105 L 1137.5 872" fill="none" stroke="#000000" stroke-dasharray="3" stroke-miterlimit="10"/></g><g transform="translate(2,2) scale(1,1)"><rect fill="#C0C0C0" height="39" opacity="0.2" stroke="none" width="115.80810546875" x="455" y="531"/></g><g transform="translate(2,2) scale(1,1)"><rect fill="#ffffff" height="39" stroke="none" width="115.80810546875" x="448" y="524"/></g><g transform="translate(2,2) scale(1,1)"><path d="M 448 524 L 563.80810546875 524 L 563.80810546875 563 L 448 563 L 448 524 Z Z" fill="none" stroke="#000000" stroke-miterlimit="10"/></g><g transform="translate(2,2) scale(1,1)"><g><path fill="none" stroke="none"/><text fill="#000000" font-family="Arial" font-size="13px" font-style="normal" font-weight="normal" stroke="none" text-decoration="none" x="470.84912109375" y="539.5">«Boundary»</text></g></g><g transform="translate(2,2) scale(1,1)"><g><path fill="none" stroke="none"/><text fill="#000000" font-family="Arial" font-size="13px" font-style="normal" font-weight="bold" stroke="none" text-decoration="none" x="459.305908203125" y="554.5">PannelloErrore</text></g></g><g transform="translate(2,2) scale(1,1)"><path d="M 506.5 564 L 506.5 634" fill="none" stroke="#000000" stroke-dasharray="3" stroke-miterlimit="10"/></g><g transform="translate(2,2) scale(1,1)"><path d="M 106 120 L 331 120" fill="none" stroke="#000000" stroke-miterlimit="10"/></g><g transform="translate(2,2) scale(1,1)"><path d="M 320.83732514237585 124.20951775601598 L 331 120 L 320.83732514237585 115.79048224398402" fill="#000000" stroke="none"/></g><g transform="translate(2,2) scale(1,1)"><path d="M 320.83732514237585 124.20951775601598 L 331 120 L 320.83732514237585 115.79048224398402 L 320.83732514237585 124.20951775601598" fill="none" stroke="#000000" stroke-miterlimit="10"/></g><g transform="translate(2,2) scale(1,1)"><g><path fill="none" stroke="none"/><text fill="#000000" font-family="Arial" font-size="13px" font-style="normal" font-weight="normal" stroke="none" text-decoration="none" x="127.5" y="113.5">1 : cliccaModificaProduzione( )</text></g></g><g transform="translate(2,2) scale(1,1)"><rect fill="#ffffff" height="28" stroke="none" width="13" x="331" y="120"/></g><g transform="translate(2,2) scale(1,1)"><path d="M 331 120 L 344 120 L 344 148 L 331 148 L 331 120 Z Z" fill="none" stroke="#000000" stroke-miterlimit="10"/></g><g transform="translate(2,2) scale(1,1)"><path d="M 344 128 L 520 128" fill="none" stroke="#000000" stroke-dasharray="3" stroke-miterlimit="10"/></g><g transform="translate(2,2) scale(1,1)"><path d="M 509.83732514237585 132.209517756016 L 520 128 L 509.83732514237585 123.79048224398402" fill="none" stroke="#000000" stroke-miterlimit="10"/></g><g transform="translate(2,2) scale(1,1)"><g><path fill="none" stroke="none"/><text fill="#000000" font-family="Arial" font-size="13px" font-style="normal" font-weight="normal" stroke="none" text-decoration="none" x="422.5" y="122.5">2 : </text></g></g><g transform="translate(2,2) scale(1,1)"><g><path fill="none" stroke="none"/><text fill="#000000" font-family="Arial" font-size="13px" font-style="normal" font-weight="normal" stroke="none" text-decoration="none" x="406.5" y="107.5">«create»</text></g></g><g transform="translate(2,2) scale(1,1)"><path d="M 620 248 L 502.75537109375 248" fill="none" stroke="#000000" stroke-dasharray="3" stroke-miterlimit="10"/></g><g transform="translate(2,2) scale(1,1)"><path d="M 512.9180459513741 243.790482243984 L 502.75537109375 248 L 512.9180459513741 252.209517756016" fill="none" stroke="#000000" stroke-miterlimit="10"/></g><g transform="translate(2,2) scale(1,1)"><g><path fill="none" stroke="none"/><text fill="#000000" font-family="Arial" font-size="13px" font-style="normal" font-weight="normal" stroke="none" text-decoration="none" x="550.5" y="262.5">3 : </text></g></g><g transform="translate(2,2) scale(1,1)"><g><path fill="none" stroke="none"/><text fill="#000000" font-family="Arial" font-size="13px" font-style="normal" font-weight="normal" stroke="none" text-decoration="none" x="534.5" y="277.5">«create»</text></g></g><g transform="translate(2,2) scale(1,1)"><path d="M 106 369 L 389 369" fill="none" stroke="#000000" stroke-miterlimit="10"/></g><g transform="translate(2,2) scale(1,1)"><path d="M 378.83732514237585 373.209517756016 L 389 369 L 378.83732514237585 364.790482243984" fill="#000000" stroke="none"/></g><g transform="translate(2,2) scale(1,1)"><path d="M 378.83732514237585 373.209517756016 L 389 369 L 378.83732514237585 364.790482243984 L 378.83732514237585 373.209517756016" fill="none" stroke="#000000" stroke-miterlimit="10"/></g><g transform="translate(2,2) scale(1,1)"><g><path fill="none" stroke="none"/><text fill="#000000" font-family="Arial" font-size="13px" font-style="normal" font-weight="normal" stroke="none" text-decoration="none" x="138.5" y="363.5">4 : inserimentoDati(farmaco, quantità)</text></g></g><g transform="translate(2,2) scale(1,1)"><rect fill="#ffffff" height="28" stroke="none" width="13" x="389" y="369"/></g><g transform="translate(2,2) scale(1,1)"><path d="M 389 369 L 402 369 L 402 397 L 389 397 L 389 369 Z Z" fill="none" stroke="#000000" stroke-miterlimit="10"/></g><g transform="translate(2,2) scale(1,1)"><path d="M 106 426 L 389 426" fill="none" stroke="#000000" stroke-miterlimit="10"/></g><g transform="translate(2,2) scale(1,1)"><path d="M 378.83732514237585 430.209517756016 L 389 426 L 378.83732514237585 421.790482243984" fill="#000000" stroke="none"/></g><g transform="translate(2,2) scale(1,1)"><path d="M 378.83732514237585 430.209517756016 L 389 426 L 378.83732514237585 421.790482243984 L 378.83732514237585 430.209517756016" fill="none" stroke="#000000" stroke-miterlimit="10"/></g><g transform="translate(2,2) scale(1,1)"><g><path fill="none" stroke="none"/><text fill="#000000" font-family="Arial" font-size="13px" font-style="normal" font-weight="normal" stroke="none" text-decoration="none" x="204.5" y="420.5">5 : conferma( )</text></g></g><g transform="translate(2,2) scale(1,1)"><rect fill="#ffffff" height="28" stroke="none" width="13" x="389" y="426"/></g><g transform="translate(2,2) scale(1,1)"><path d="M 389 426 L 402 426 L 402 454 L 389 454 L 389 426 Z Z" fill="none" stroke="#000000" stroke-miterlimit="10"/></g><g transform="translate(2,2) scale(1,1)"><path d="M 402 448 L 613 448" fill="none" stroke="#000000" stroke-miterlimit="10"/></g><g transform="translate(2,2) scale(1,1)"><path d="M 602.8373251423759 452.209517756016 L 613 448 L 602.8373251423758 443.790482243984" fill="#000000" stroke="none"/></g><g transform="translate(2,2) scale(1,1)"><path d="M 602.8373251423759 452.209517756016 L 613 448 L 602.8373251423758 443.790482243984 L 602.8373251423759 452.209517756016" fill="none" stroke="#000000" stroke-miterlimit="10"/></g><g transform="translate(2,2) scale(1,1)"><g><path fill="none" stroke="none"/><text fill="#000000" font-family="Arial" font-size="13px" font-style="normal" font-weight="normal" stroke="none" text-decoration="none" x="413.601318359375" y="435.5">6 : modificaProduzione(farmaco,</text><text fill="#000000" font-family="Arial" font-size="13px" font-style="normal" font-weight="normal" stroke="none" text-decoration="none" x="481.876708984375" y="448.5">quantità)</text></g></g><g transform="translate(2,2) scale(1,1)"><rect fill="#ffffff" height="352" stroke="none" width="13" x="613" y="448"/></g><g transform="translate(2,2) scale(1,1)"><path d="M 613 448 L 626 448 L 626 800 L 613 800 L 613 448 Z Z" fill="none" stroke="#000000" stroke-miterlimit="10"/></g><g transform="translate(2,2) scale(1,1)"><path d="M 626 456 L 848 456" fill="none" stroke="#000000" stroke-miterlimit="10"/></g><g transform="translate(2,2) scale(1,1)"><path d="M 837.8373251423759 460.209517756016 L 848 456 L 837.8373251423758 451.790482243984" fill="#000000" stroke="none"/></g><g transform="translate(2,2) scale(1,1)"><path d="M 837.8373251423759 460.209517756016 L 848 456 L 837.8373251423758 451.790482243984 L 837.8373251423759 460.209517756016" fill="none" stroke="#000000" stroke-miterlimit="10"/></g><g transform="translate(2,2) scale(1,1)"><g><path fill="none" stroke="none"/><text fill="#000000" font-family="Arial" font-size="13px" font-style="normal" font-weight="normal" stroke="none" text-decoration="none" x="621.5" y="450.5">7 : controllaEsistenzaFarmaco(farmaco)</text></g></g><g transform="translate(2,2) scale(1,1)"><rect fill="#ffffff" height="40" stroke="none" width="13" x="848" y="456"/></g><g transform="translate(2,2) scale(1,1)"><path d="M 848 456 L 861 456 L 861 496 L 848 496 L 848 456 Z Z" fill="none" stroke="#000000" stroke-miterlimit="10"/></g><g transform="translate(2,2) scale(1,1)"><path d="M 861 466 L 1130 466" fill="none" stroke="#000000" stroke-miterlimit="10"/></g><g transform="translate(2,2) scale(1,1)"><path d="M 1119.837325142376 470.209517756016 L 1130 466 L 1119.837325142376 461.790482243984" fill="#000000" stroke="none"/></g><g transform="translate(2,2) scale(1,1)"><path d="M 1119.837325142376 470.209517756016 L 1130 466 L 1119.837325142376 461.790482243984 L 1119.837325142376 470.209517756016" fill="none" stroke="#000000" stroke-miterlimit="10"/></g><g transform="translate(2,2) scale(1,1)"><g><path fill="none" stroke="none"/><text fill="#000000" font-family="Arial" font-size="13px" font-style="normal" font-weight="normal" stroke="none" text-decoration="none" x="879.5" y="460.5">8 : controlloEsistenzaFarmaco(farmaco)</text></g></g><g transform="translate(2,2) scale(1,1)"><rect fill="#ffffff" height="28" stroke="none" width="13" x="1130" y="466"/></g><g transform="translate(2,2) scale(1,1)"><path d="M 1130 466 L 1143 466 L 1143 494 L 1130 494 L 1130 466 Z Z" fill="none" stroke="#000000" stroke-miterlimit="10"/></g><g transform="translate(2,2) scale(1,1)"><path d="M 1130 486 L 861 486" fill="none" stroke="#000000" stroke-dasharray="3" stroke-miterlimit="10"/></g><g transform="translate(2,2) scale(1,1)"><path d="M 871.1626748576241 481.790482243984 L 861 486 L 871.1626748576241 490.209517756016" fill="none" stroke="#000000" stroke-miterlimit="10"/></g><g transform="translate(2,2) scale(1,1)"><g><path fill="none" stroke="none"/><text fill="#000000" font-family="Arial" font-size="13px" font-style="normal" font-weight="normal" stroke="none" text-decoration="none" x="970.759521484375" y="500.5">9 : esito</text></g></g><g transform="translate(2,2) scale(1,1)"><path d="M 848 488 L 626 488" fill="none" stroke="#000000" stroke-dasharray="3" stroke-miterlimit="10"/></g><g transform="translate(2,2) scale(1,1)"><path d="M 636.1626748576241 483.790482243984 L 626 488 L 636.1626748576241 492.209517756016" fill="none" stroke="#000000" stroke-miterlimit="10"/></g><g transform="translate(2,2) scale(1,1)"><g><path fill="none" stroke="none"/><text fill="#000000" font-family="Arial" font-size="13px" font-style="normal" font-weight="normal" stroke="none" text-decoration="none" x="709.759521484375" y="502.5">10 : esito</text></g></g><g transform="translate(2,2) scale(1,1)"><path d="M 613 544 L 563.80810546875 544" fill="none" stroke="#000000" stroke-dasharray="3" stroke-miterlimit="10"/></g><g transform="translate(2,2) scale(1,1)"><path d="M 573.9707803263741 539.790482243984 L 563.80810546875 544 L 573.9707803263741 548.209517756016" fill="none" stroke="#000000" stroke-miterlimit="10"/></g><g transform="translate(2,2) scale(1,1)"><g><path fill="none" stroke="none"/><text fill="#000000" font-family="Arial" font-size="13px" font-style="normal" font-weight="normal" stroke="none" text-decoration="none" x="574.982421875" y="558.5">11 : </text></g></g><g transform="translate(2,2) scale(1,1)"><g><path fill="none" stroke="none"/><text fill="#000000" font-family="Arial" font-size="13px" font-style="normal" font-weight="normal" stroke="none" text-decoration="none" x="561.5" y="573.5">«create»</text></g></g><g transform="translate(2,2) scale(1,1)"><path d="M 106 576 L 499 576" fill="none" stroke="#000000" stroke-miterlimit="10"/></g><g transform="translate(2,2) scale(1,1)"><path d="M 488.83732514237585 580.209517756016 L 499 576 L 488.83732514237585 571.790482243984" fill="#000000" stroke="none"/></g><g transform="translate(2,2) scale(1,1)"><path d="M 488.83732514237585 580.209517756016 L 499 576 L 488.83732514237585 571.790482243984 L 488.83732514237585 580.209517756016" fill="none" stroke="#000000" stroke-miterlimit="10"/></g><g transform="translate(2,2) scale(1,1)"><path d="M 496 624 L 516 644" fill="none" stroke="#000000" stroke-miterlimit="10"/></g><g transform="translate(2,2) scale(1,1)"><path d="M 516 624 L 496 644" fill="none" stroke="#000000" stroke-miterlimit="10"/></g><g transform="translate(2,2) scale(1,1)"><g><path fill="none" stroke="none"/><text fill="#000000" font-family="Arial" font-size="13px" font-style="normal" font-weight="normal" stroke="none" text-decoration="none" x="256.5" y="570.5">12 : conferma( )</text></g></g><g transform="translate(2,2) scale(1,1)"><g><path fill="none" stroke="none"/><text fill="#000000" font-family="Arial" font-size="13px" font-style="normal" font-weight="normal" stroke="none" text-decoration="none" x="273.5" y="555.5">«destroy»</text></g></g><g transform="translate(2,2) scale(1,1)"><rect fill="#ffffff" height="28" stroke="none" width="13" x="499" y="576"/></g><g transform="translate(2,2) scale(1,1)"><path d="M 499 576 L 512 576 L 512 604 L 499 604 L 499 576 Z Z" fill="none" stroke="#000000" stroke-miterlimit="10"/></g><g transform="translate(2,2) scale(1,1)"><path d="M 626 712 L 848 712" fill="none" stroke="#000000" stroke-miterlimit="10"/></g><g transform="translate(2,2) scale(1,1)"><path d="M 837.8373251423759 716.209517756016 L 848 712 L 837.8373251423758 707.790482243984" fill="#000000" stroke="none"/></g><g transform="translate(2,2) scale(1,1)"><path d="M 837.8373251423759 716.209517756016 L 848 712 L 837.8373251423758 707.790482243984 L 837.8373251423759 716.209517756016" fill="none" stroke="#000000" stroke-miterlimit="10"/></g><g transform="translate(2,2) scale(1,1)"><g><path fill="none" stroke="none"/><text fill="#000000" font-family="Arial" font-size="13px" font-style="normal" font-weight="normal" stroke="none" text-decoration="none" x="641.601318359375" y="689.5">13 : modificaProduzione(farmaco,</text><text fill="#000000" font-family="Arial" font-size="13px" font-style="normal" font-weight="normal" stroke="none" text-decoration="none" x="713.49169921875" y="702.5">quantità)</text></g></g><g transform="translate(2,2) scale(1,1)"><rect fill="#ffffff" height="64" stroke="none" width="13" x="848" y="712"/></g><g transform="translate(2,2) scale(1,1)"><path d="M 848 712 L 861 712 L 861 776 L 848 776 L 848 712 Z Z" fill="none" stroke="#000000" stroke-miterlimit="10"/></g><g transform="translate(2,2) scale(1,1)"><path d="M 861 730 L 1130 730" fill="none" stroke="#000000" stroke-miterlimit="10"/></g><g transform="translate(2,2) scale(1,1)"><path d="M 1119.837325142376 734.209517756016 L 1130 730 L 1119.837325142376 725.790482243984" fill="#000000" stroke="none"/></g><g transform="translate(2,2) scale(1,1)"><path d="M 1119.837325142376 734.209517756016 L 1130 730 L 1119.837325142376 725.790482243984 L 1119.837325142376 734.209517756016" fill="none" stroke="#000000" stroke-miterlimit="10"/></g><g transform="translate(2,2) scale(1,1)"><g><path fill="none" stroke="none"/><text fill="#000000" font-family="Arial" font-size="13px" font-style="normal" font-weight="normal" stroke="none" text-decoration="none" x="870.5" y="724.5">14 : modificaProduzione(farmaco, quantità)</text></g></g><g transform="translate(2,2) scale(1,1)"><rect fill="#ffffff" height="28" stroke="none" width="13" x="1130" y="730"/></g><g transform="translate(2,2) scale(1,1)"><path d="M 1130 730 L 1143 730 L 1143 758 L 1130 758 L 1130 730 Z Z" fill="none" stroke="#000000" stroke-miterlimit="10"/></g><g transform="translate(2,2) scale(1,1)"><path d="M 1130 751 L 861 751" fill="none" stroke="#000000" stroke-dasharray="3" stroke-miterlimit="10"/></g><g transform="translate(2,2) scale(1,1)"><path d="M 871.1626748576241 746.790482243984 L 861 751 L 871.1626748576241 755.209517756016" fill="none" stroke="#000000" stroke-miterlimit="10"/></g><g transform="translate(2,2) scale(1,1)"><g><path fill="none" stroke="none"/><text fill="#000000" font-family="Arial" font-size="13px" font-style="normal" font-weight="normal" stroke="none" text-decoration="none" x="967.5" y="765.5">15 : esito</text></g></g><g transform="translate(2,2) scale(1,1)"><path d="M 848 768 L 626 768" fill="none" stroke="#000000" stroke-dasharray="3" stroke-miterlimit="10"/></g><g transform="translate(2,2) scale(1,1)"><path d="M 636.1626748576241 763.790482243984 L 626 768 L 636.1626748576241 772.209517756016" fill="none" stroke="#000000" stroke-miterlimit="10"/></g><g transform="translate(2,2) scale(1,1)"><g><path fill="none" stroke="none"/><text fill="#000000" font-family="Arial" font-size="13px" font-style="normal" font-weight="normal" stroke="none" text-decoration="none" x="709.5" y="782.5">16 : esito</text></g></g><g transform="translate(2,2) scale(1,1)"><path d="M 48 288 L 776 288 L 776 672 L 48 672 L 48 288" fill="none" stroke="#000000" stroke-miterlimit="10"/></g><g transform="translate(2,2) scale(1,1)"><path d="M 48 288 L 48 310 L 201.2998046875 310 L 212.2998046875 299 L 212.2998046875 288 L 48 288" fill="#ffffff" stroke="none"/></g><g transform="translate(2,2) scale(1,1)"><path d="M 48 288 L 48 310 L 201.2998046875 310 L 212.2998046875 299 L 212.2998046875 288 L 48 288 L 48 288" fill="none" stroke="#000000" stroke-miterlimit="10"/></g><g transform="translate(2,2) scale(1,1)"><g><path fill="none" stroke="none"/><text fill="#000000" font-family="Arial" font-size="13px" font-style="normal" font-weight="normal" stroke="none" text-decoration="none" x="83.578125" y="303.5">farmaco inesistente</text></g></g><g transform="translate(2,2) scale(1,1)"><g><path fill="none" stroke="none"/><text fill="#000000" font-family="Arial" font-size="13px" font-style="normal" font-weight="bold" stroke="none" text-decoration="none" x="51.57177734375" y="303.5">loop</text></g></g><g transform="translate(2,2) scale(1,1)"><g><path fill="none" stroke="none"/><text fill="#000000" font-family="Arial" font-size="13px" font-style="normal" font-weight="normal" stroke="none" text-decoration="none" x="67.5" y="336.5">[farmaco inesistente]</text></g></g><g transform="translate(2,2) scale(1,1)"><path d="M 88 504 L 671 504 L 671 663 L 88 663 L 88 504" fill="none" stroke="#000000" stroke-miterlimit="10"/></g><g transform="translate(2,2) scale(1,1)"><path d="M 88 504 L 88 526 L 122.07177734375 526 L 133.07177734375 515 L 133.07177734375 504 L 88 504" fill="#ffffff" stroke="none"/></g><g transform="translate(2,2) scale(1,1)"><path d="M 88 504 L 88 526 L 122.07177734375 526 L 133.07177734375 515 L 133.07177734375 504 L 88 504 L 88 504" fill="none" stroke="#000000" stroke-miterlimit="10"/></g><g transform="translate(2,2) scale(1,1)"><g><path fill="none" stroke="none"/><text fill="#000000" font-family="Arial" font-size="13px" font-style="normal" font-weight="bold" stroke="none" text-decoration="none" x="91.930419921875" y="519.5">opt</text></g></g><g transform="translate(2,2) scale(1,1)"><g><path fill="none" stroke="none"/><text fill="#000000" font-family="Arial" font-size="13px" font-style="normal" font-weight="normal" stroke="none" text-decoration="none" x="107.5" y="552.5">[farmaco inesistente]</text></g></g></g></svg>