<?xml version="1.0" encoding="UTF-8" standalone="no"?><svg xmlns="http://www.w3.org/2000/svg" xmlns:xlink="http://www.w3.org/1999/xlink" height="644" version="1.1" width="1260"><defs/><g><g transform="translate(2,2) scale(1,1)"><path d="M 8 8 L 1248 8 L 1248 632 L 8 632 L 8 8" fill="none" stroke="#000000" stroke-miterlimit="10"/></g><g transform="translate(2,2) scale(1,1)"><path d="M 8 8 L 8 30 L 133.8271484375 30 L 144.8271484375 19 L 144.8271484375 8 L 8 8" fill="#ffffff" stroke="none"/></g><g transform="translate(2,2) scale(1,1)"><path d="M 8 8 L 8 30 L 133.8271484375 30 L 144.8271484375 19 L 144.8271484375 8 L 8 8 L 8 8" fill="none" stroke="#000000" stroke-miterlimit="10"/></g><g transform="translate(2,2) scale(1,1)"><g><path fill="none" stroke="none"/><text fill="#000000" font-family="Arial" font-size="13px" font-style="normal" font-weight="normal" stroke="none" text-decoration="none" x="32.72998046875" y="23.5">Firma Consegna</text></g></g><g transform="translate(2,2) scale(1,1)"><g><path fill="none" stroke="none"/><text fill="#000000" font-family="Arial" font-size="13px" font-style="normal" font-weight="bold" stroke="none" text-decoration="none" x="12.279541015625" y="23.5">sd</text></g></g><g transform="translate(2,2) scale(1,1)"><path d="M 147.3304305752841 47.3 C 147.3304305752841 43.82060576 150.2088322974659 41 153.759521484375 41 C 157.3102106712841 41 160.18861239346592 43.82060576 160.18861239346592 47.3 C 160.18861239346592 50.779394239999995 157.3102106712841 53.6 153.759521484375 53.6 C 150.2088322974659 53.6 147.3304305752841 50.779394239999995 147.3304305752841 47.3 Z" fill="#ffffff" stroke="none"/></g><g transform="translate(2,2) scale(1,1)"><path d="M 147.3304305752841 47.3 C 147.3304305752841 43.82060576 150.2088322974659 41 153.759521484375 41 C 157.3102106712841 41 160.18861239346592 43.82060576 160.18861239346592 47.3 C 160.18861239346592 50.779394239999995 157.3102106712841 53.6 153.759521484375 53.6 C 150.2088322974659 53.6 147.3304305752841 50.779394239999995 147.3304305752841 47.3 Z" fill="none" stroke="#000000" stroke-miterlimit="10"/></g><g transform="translate(2,2) scale(1,1)"><path d="M 153.759521484375 53.6 L 153.759521484375 66.4" fill="none" stroke="#000000" stroke-miterlimit="10"/></g><g transform="translate(2,2) scale(1,1)"><path d="M 146.9522487571023 58.4 L 160.56679421164773 58.4" fill="none" stroke="#000000" stroke-miterlimit="10"/></g><g transform="translate(2,2) scale(1,1)"><path d="M 153.759521484375 66.4 L 144.30497602982956 79" fill="none" stroke="#000000" stroke-miterlimit="10"/></g><g transform="translate(2,2) scale(1,1)"><path d="M 153.759521484375 66.4 L 163.21406693892047 79" fill="none" stroke="#000000" stroke-miterlimit="10"/></g><g transform="translate(2,2) scale(1,1)"><g><path fill="none" stroke="none"/><text fill="#000000" font-family="Arial" font-size="13px" font-style="normal" font-weight="bold" stroke="none" text-decoration="none" x="124.5" y="97.5">: Corriere</text></g></g><g transform="translate(2,2) scale(1,1)"><path d="M 154.5 105 L 154.5 146" fill="none" stroke="#000000" stroke-dasharray="3" stroke-miterlimit="10"/></g><g transform="translate(2,2) scale(1,1)"><rect fill="#C0C0C0" height="39" opacity="0.2" stroke="none" width="224.47998046875" x="239" y="47"/></g><g transform="translate(2,2) scale(1,1)"><rect fill="#ffffff" height="39" stroke="none" width="224.47998046875" x="232" y="40"/></g><g transform="translate(2,2) scale(1,1)"><path d="M 232 40 L 456.47998046875 40 L 456.47998046875 79 L 232 79 L 232 40 Z Z" fill="none" stroke="#000000" stroke-miterlimit="10"/></g><g transform="translate(2,2) scale(1,1)"><g><path fill="none" stroke="none"/><text fill="#000000" font-family="Arial" font-size="13px" font-style="normal" font-weight="normal" stroke="none" text-decoration="none" x="309.18505859375" y="55.5">«Boundary»</text></g></g><g transform="translate(2,2) scale(1,1)"><g><path fill="none" stroke="none"/><text fill="#000000" font-family="Arial" font-size="13px" font-style="normal" font-weight="bold" stroke="none" text-decoration="none" x="241.5" y="70.5">BottoneFirmaConsegna[id=collo]</text></g></g><g transform="translate(2,2) scale(1,1)"><path d="M 345.5 80 L 345.5 162" fill="none" stroke="#000000" stroke-dasharray="3" stroke-miterlimit="10"/></g><g transform="translate(2,2) scale(1,1)"><rect fill="#C0C0C0" height="39" opacity="0.2" stroke="none" width="166.37353515625" x="527" y="123"/></g><g transform="translate(2,2) scale(1,1)"><rect fill="#ffffff" height="39" stroke="none" width="166.37353515625" x="520" y="116"/></g><g transform="translate(2,2) scale(1,1)"><path d="M 520 116 L 686.37353515625 116 L 686.37353515625 155 L 520 155 L 520 116 Z Z" fill="none" stroke="#000000" stroke-miterlimit="10"/></g><g transform="translate(2,2) scale(1,1)"><g><path fill="none" stroke="none"/><text fill="#000000" font-family="Arial" font-size="13px" font-style="normal" font-weight="normal" stroke="none" text-decoration="none" x="575.003173828125" y="131.5">«Control»</text></g></g><g transform="translate(2,2) scale(1,1)"><g><path fill="none" stroke="none"/><text fill="#000000" font-family="Arial" font-size="13px" font-style="normal" font-weight="bold" stroke="none" text-decoration="none" x="529.5" y="146.5">GestoreFirmaConsegna</text></g></g><g transform="translate(2,2) scale(1,1)"><path d="M 604.5 156 L 604.5 509" fill="none" stroke="#000000" stroke-dasharray="3" stroke-miterlimit="10"/></g><g transform="translate(2,2) scale(1,1)"><rect fill="#C0C0C0" height="39" opacity="0.2" stroke="none" width="182.2744140625" x="223" y="275"/></g><g transform="translate(2,2) scale(1,1)"><rect fill="#ffffff" height="39" stroke="none" width="182.2744140625" x="216" y="268"/></g><g transform="translate(2,2) scale(1,1)"><path d="M 216 268 L 398.2744140625 268 L 398.2744140625 307 L 216 307 L 216 268 Z Z" fill="none" stroke="#000000" stroke-miterlimit="10"/></g><g transform="translate(2,2) scale(1,1)"><g><path fill="none" stroke="none"/><text fill="#000000" font-family="Arial" font-size="13px" font-style="normal" font-weight="normal" stroke="none" text-decoration="none" x="272.082275390625" y="283.5">«Boundary»</text></g></g><g transform="translate(2,2) scale(1,1)"><g><path fill="none" stroke="none"/><text fill="#000000" font-family="Arial" font-size="13px" font-style="normal" font-weight="bold" stroke="none" text-decoration="none" x="225.5" y="298.5">InterfacciaFirmaConsegna</text></g></g><g transform="translate(2,2) scale(1,1)"><path d="M 308.5 308 L 308.5 509" fill="none" stroke="#000000" stroke-dasharray="3" stroke-miterlimit="10"/></g><g transform="translate(2,2) scale(1,1)"><rect fill="#C0C0C0" height="39" opacity="0.2" stroke="none" width="108.5654296875" x="783" y="47"/></g><g transform="translate(2,2) scale(1,1)"><rect fill="#ffffff" height="39" stroke="none" width="108.5654296875" x="776" y="40"/></g><g transform="translate(2,2) scale(1,1)"><path d="M 776 40 L 884.5654296875 40 L 884.5654296875 79 L 776 79 L 776 40 Z Z" fill="none" stroke="#000000" stroke-miterlimit="10"/></g><g transform="translate(2,2) scale(1,1)"><g><path fill="none" stroke="none"/><text fill="#000000" font-family="Arial" font-size="13px" font-style="normal" font-weight="normal" stroke="none" text-decoration="none" x="795.227783203125" y="55.5">«Boundary»</text></g></g><g transform="translate(2,2) scale(1,1)"><g><path fill="none" stroke="none"/><text fill="#000000" font-family="Arial" font-size="13px" font-style="normal" font-weight="bold" stroke="none" text-decoration="none" x="785.5" y="70.5">DBMSDaemon</text></g></g><g transform="translate(2,2) scale(1,1)"><path d="M 831.5 80 L 831.5 438" fill="none" stroke="#000000" stroke-dasharray="3" stroke-miterlimit="10"/></g><g transform="translate(2,2) scale(1,1)"><path d="M 1088.468614169034 47.3 C 1088.468614169034 43.82060576 1091.347015891216 41 1094.897705078125 41 C 1098.448394265034 41 1101.326795987216 43.82060576 1101.326795987216 47.3 C 1101.326795987216 50.779394239999995 1098.448394265034 53.6 1094.897705078125 53.6 C 1091.347015891216 53.6 1088.468614169034 50.779394239999995 1088.468614169034 47.3 Z" fill="#ffffff" stroke="none"/></g><g transform="translate(2,2) scale(1,1)"><path d="M 1088.468614169034 47.3 C 1088.468614169034 43.82060576 1091.347015891216 41 1094.897705078125 41 C 1098.448394265034 41 1101.326795987216 43.82060576 1101.326795987216 47.3 C 1101.326795987216 50.779394239999995 1098.448394265034 53.6 1094.897705078125 53.6 C 1091.347015891216 53.6 1088.468614169034 50.779394239999995 1088.468614169034 47.3 Z" fill="none" stroke="#000000" stroke-miterlimit="10"/></g><g transform="translate(2,2) scale(1,1)"><path d="M 1094.897705078125 53.6 L 1094.897705078125 66.4" fill="none" stroke="#000000" stroke-miterlimit="10"/></g><g transform="translate(2,2) scale(1,1)"><path d="M 1088.0904323508523 58.4 L 1101.7049778053977 58.4" fill="none" stroke="#000000" stroke-miterlimit="10"/></g><g transform="translate(2,2) scale(1,1)"><path d="M 1094.897705078125 66.4 L 1085.4431596235795 79" fill="none" stroke="#000000" stroke-miterlimit="10"/></g><g transform="translate(2,2) scale(1,1)"><path d="M 1094.897705078125 66.4 L 1104.3522505326705 79" fill="none" stroke="#000000" stroke-miterlimit="10"/></g><g transform="translate(2,2) scale(1,1)"><g><path fill="none" stroke="none"/><text fill="#000000" font-family="Arial" font-size="13px" font-style="normal" font-weight="bold" stroke="none" text-decoration="none" x="1046.8681640625" y="97.5">: DBMSAzienda</text></g></g><g transform="translate(2,2) scale(1,1)"><path d="M 1095.5 105 L 1095.5 418" fill="none" stroke="#000000" stroke-dasharray="3" stroke-miterlimit="10"/></g><g transform="translate(2,2) scale(1,1)"><rect fill="#C0C0C0" height="39" opacity="0.2" stroke="none" width="71.736328125" x="663" y="259"/></g><g transform="translate(2,2) scale(1,1)"><rect fill="#ffffff" height="39" stroke="none" width="71.736328125" x="656" y="252"/></g><g transform="translate(2,2) scale(1,1)"><path d="M 656 252 L 727.736328125 252 L 727.736328125 291 L 656 291 L 656 252 Z Z" fill="none" stroke="#000000" stroke-miterlimit="10"/></g><g transform="translate(2,2) scale(1,1)"><g><path fill="none" stroke="none"/><text fill="#000000" font-family="Arial" font-size="13px" font-style="normal" font-weight="normal" stroke="none" text-decoration="none" x="668.3818359375" y="267.5">«Entity»</text></g></g><g transform="translate(2,2) scale(1,1)"><g><path fill="none" stroke="none"/><text fill="#000000" font-family="Arial" font-size="13px" font-style="normal" font-weight="bold" stroke="none" text-decoration="none" x="675.621337890625" y="282.5">Collo</text></g></g><g transform="translate(2,2) scale(1,1)"><path d="M 692.5 292 L 692.5 341" fill="none" stroke="#000000" stroke-dasharray="3" stroke-miterlimit="10"/></g><g transform="translate(2,2) scale(1,1)"><path d="M 60.36631924715909 47.3 C 60.36631924715909 43.82060576 63.24472096934091 41 66.79541015625 41 C 70.3460993431591 41 73.2245010653409 43.82060576 73.2245010653409 47.3 C 73.2245010653409 50.779394239999995 70.3460993431591 53.6 66.79541015625 53.6 C 63.24472096934091 53.6 60.36631924715909 50.779394239999995 60.36631924715909 47.3 Z" fill="#ffffff" stroke="none"/></g><g transform="translate(2,2) scale(1,1)"><path d="M 60.36631924715909 47.3 C 60.36631924715909 43.82060576 63.24472096934091 41 66.79541015625 41 C 70.3460993431591 41 73.2245010653409 43.82060576 73.2245010653409 47.3 C 73.2245010653409 50.779394239999995 70.3460993431591 53.6 66.79541015625 53.6 C 63.24472096934091 53.6 60.36631924715909 50.779394239999995 60.36631924715909 47.3 Z" fill="none" stroke="#000000" stroke-miterlimit="10"/></g><g transform="translate(2,2) scale(1,1)"><path d="M 66.79541015625 53.6 L 66.79541015625 66.4" fill="none" stroke="#000000" stroke-miterlimit="10"/></g><g transform="translate(2,2) scale(1,1)"><path d="M 59.988137428977275 58.4 L 73.60268288352273 58.4" fill="none" stroke="#000000" stroke-miterlimit="10"/></g><g transform="translate(2,2) scale(1,1)"><path d="M 66.79541015625 66.4 L 57.34086470170455 79" fill="none" stroke="#000000" stroke-miterlimit="10"/></g><g transform="translate(2,2) scale(1,1)"><path d="M 66.79541015625 66.4 L 76.24995561079545 79" fill="none" stroke="#000000" stroke-miterlimit="10"/></g><g transform="translate(2,2) scale(1,1)"><g><path fill="none" stroke="none"/><text fill="#000000" font-family="Arial" font-size="13px" font-style="normal" font-weight="bold" stroke="none" text-decoration="none" x="28.5" y="97.5">: Farmacista</text></g></g><g transform="translate(2,2) scale(1,1)"><path d="M 67.5 105 L 67.5 370" fill="none" stroke="#000000" stroke-dasharray="3" stroke-miterlimit="10"/></g><g transform="translate(2,2) scale(1,1)"><path d="M 154 120 L 338 120" fill="none" stroke="#000000" stroke-miterlimit="10"/></g><g transform="translate(2,2) scale(1,1)"><path d="M 327.83732514237585 124.20951775601598 L 338 120 L 327.83732514237585 115.79048224398402" fill="#000000" stroke="none"/></g><g transform="translate(2,2) scale(1,1)"><path d="M 327.83732514237585 124.20951775601598 L 338 120 L 327.83732514237585 115.79048224398402 L 327.83732514237585 124.20951775601598" fill="none" stroke="#000000" stroke-miterlimit="10"/></g><g transform="translate(2,2) scale(1,1)"><g><path fill="none" stroke="none"/><text fill="#000000" font-family="Arial" font-size="13px" font-style="normal" font-weight="normal" stroke="none" text-decoration="none" x="223.851318359375" y="114.5">1 : click</text></g></g><g transform="translate(2,2) scale(1,1)"><rect fill="#ffffff" height="28" stroke="none" width="13" x="338" y="120"/></g><g transform="translate(2,2) scale(1,1)"><path d="M 338 120 L 351 120 L 351 148 L 338 148 L 338 120 Z Z" fill="none" stroke="#000000" stroke-miterlimit="10"/></g><g transform="translate(2,2) scale(1,1)"><path d="M 351 136 L 520 136" fill="none" stroke="#000000" stroke-dasharray="3" stroke-miterlimit="10"/></g><g transform="translate(2,2) scale(1,1)"><path d="M 509.83732514237585 140.209517756016 L 520 136 L 509.83732514237585 131.790482243984" fill="none" stroke="#000000" stroke-miterlimit="10"/></g><g transform="translate(2,2) scale(1,1)"><g><path fill="none" stroke="none"/><text fill="#000000" font-family="Arial" font-size="13px" font-style="normal" font-weight="normal" stroke="none" text-decoration="none" x="425.5" y="130.5">2 : </text></g></g><g transform="translate(2,2) scale(1,1)"><g><path fill="none" stroke="none"/><text fill="#000000" font-family="Arial" font-size="13px" font-style="normal" font-weight="normal" stroke="none" text-decoration="none" x="409.5" y="115.5">«create»</text></g></g><g transform="translate(2,2) scale(1,1)"><path d="M 604 184 L 824 184" fill="none" stroke="#000000" stroke-miterlimit="10"/></g><g transform="translate(2,2) scale(1,1)"><path d="M 813.8373251423759 188.209517756016 L 824 184 L 813.8373251423758 179.790482243984" fill="#000000" stroke="none"/></g><g transform="translate(2,2) scale(1,1)"><path d="M 813.8373251423759 188.209517756016 L 824 184 L 813.8373251423758 179.790482243984 L 813.8373251423759 188.209517756016" fill="none" stroke="#000000" stroke-miterlimit="10"/></g><g transform="translate(2,2) scale(1,1)"><g><path fill="none" stroke="none"/><text fill="#000000" font-family="Arial" font-size="13px" font-style="normal" font-weight="normal" stroke="none" text-decoration="none" x="648.5" y="178.5">3 : chiediDettagli(collo)</text></g></g><g transform="translate(2,2) scale(1,1)"><rect fill="#ffffff" height="48" stroke="none" width="13" x="824" y="184"/></g><g transform="translate(2,2) scale(1,1)"><path d="M 824 184 L 837 184 L 837 232 L 824 232 L 824 184 Z Z" fill="none" stroke="#000000" stroke-miterlimit="10"/></g><g transform="translate(2,2) scale(1,1)"><path d="M 837 192 L 1088 192" fill="none" stroke="#000000" stroke-miterlimit="10"/></g><g transform="translate(2,2) scale(1,1)"><path d="M 1077.837325142376 196.209517756016 L 1088 192 L 1077.837325142376 187.790482243984" fill="#000000" stroke="none"/></g><g transform="translate(2,2) scale(1,1)"><path d="M 1077.837325142376 196.209517756016 L 1088 192 L 1077.837325142376 187.790482243984 L 1077.837325142376 196.209517756016" fill="none" stroke="#000000" stroke-miterlimit="10"/></g><g transform="translate(2,2) scale(1,1)"><g><path fill="none" stroke="none"/><text fill="#000000" font-family="Arial" font-size="13px" font-style="normal" font-weight="normal" stroke="none" text-decoration="none" x="882.5" y="186.5">4 : queryDettagliCollo(collo)</text></g></g><g transform="translate(2,2) scale(1,1)"><rect fill="#ffffff" height="28" stroke="none" width="13" x="1088" y="192"/></g><g transform="translate(2,2) scale(1,1)"><path d="M 1088 192 L 1101 192 L 1101 220 L 1088 220 L 1088 192 Z Z" fill="none" stroke="#000000" stroke-miterlimit="10"/></g><g transform="translate(2,2) scale(1,1)"><path d="M 1088 212 L 837 212" fill="none" stroke="#000000" stroke-dasharray="3" stroke-miterlimit="10"/></g><g transform="translate(2,2) scale(1,1)"><path d="M 847.1626748576241 207.790482243984 L 837 212 L 847.1626748576241 216.209517756016" fill="none" stroke="#000000" stroke-miterlimit="10"/></g><g transform="translate(2,2) scale(1,1)"><g><path fill="none" stroke="none"/><text fill="#000000" font-family="Arial" font-size="13px" font-style="normal" font-weight="normal" stroke="none" text-decoration="none" x="916.5" y="226.5">5 : dettagliCollo</text></g></g><g transform="translate(2,2) scale(1,1)"><path d="M 824 224 L 604 224" fill="none" stroke="#000000" stroke-dasharray="3" stroke-miterlimit="10"/></g><g transform="translate(2,2) scale(1,1)"><path d="M 614.1626748576241 219.790482243984 L 604 224 L 614.1626748576241 228.209517756016" fill="none" stroke="#000000" stroke-miterlimit="10"/></g><g transform="translate(2,2) scale(1,1)"><g><path fill="none" stroke="none"/><text fill="#000000" font-family="Arial" font-size="13px" font-style="normal" font-weight="normal" stroke="none" text-decoration="none" x="668.5" y="238.5">6 : dettagliCollo</text></g></g><g transform="translate(2,2) scale(1,1)"><path d="M 604 272 L 656 272" fill="none" stroke="#000000" stroke-dasharray="3" stroke-miterlimit="10"/></g><g transform="translate(2,2) scale(1,1)"><path d="M 645.8373251423759 276.209517756016 L 656 272 L 645.8373251423758 267.790482243984" fill="none" stroke="#000000" stroke-miterlimit="10"/></g><g transform="translate(2,2) scale(1,1)"><g><path fill="none" stroke="none"/><text fill="#000000" font-family="Arial" font-size="13px" font-style="normal" font-weight="normal" stroke="none" text-decoration="none" x="594.5" y="290.5">7 : </text></g></g><g transform="translate(2,2) scale(1,1)"><g><path fill="none" stroke="none"/><text fill="#000000" font-family="Arial" font-size="13px" font-style="normal" font-weight="normal" stroke="none" text-decoration="none" x="618.5" y="289.5">«create»</text></g></g><g transform="translate(2,2) scale(1,1)"><path d="M 604 288 L 398.2744140625 288" fill="none" stroke="#000000" stroke-dasharray="3" stroke-miterlimit="10"/></g><g transform="translate(2,2) scale(1,1)"><path d="M 408.43708892012415 283.790482243984 L 398.2744140625 288 L 408.43708892012415 292.209517756016" fill="none" stroke="#000000" stroke-miterlimit="10"/></g><g transform="translate(2,2) scale(1,1)"><g><path fill="none" stroke="none"/><text fill="#000000" font-family="Arial" font-size="13px" font-style="normal" font-weight="normal" stroke="none" text-decoration="none" x="490.5" y="302.5">8 : </text></g></g><g transform="translate(2,2) scale(1,1)"><g><path fill="none" stroke="none"/><text fill="#000000" font-family="Arial" font-size="13px" font-style="normal" font-weight="normal" stroke="none" text-decoration="none" x="474.5" y="317.5">«create»</text></g></g><g transform="translate(2,2) scale(1,1)"><path d="M 67 344 L 301 344" fill="none" stroke="#000000" stroke-miterlimit="10"/></g><g transform="translate(2,2) scale(1,1)"><path d="M 290.83732514237585 348.209517756016 L 301 344 L 290.83732514237585 339.790482243984" fill="#000000" stroke="none"/></g><g transform="translate(2,2) scale(1,1)"><path d="M 290.83732514237585 348.209517756016 L 301 344 L 290.83732514237585 339.790482243984 L 290.83732514237585 348.209517756016" fill="none" stroke="#000000" stroke-miterlimit="10"/></g><g transform="translate(2,2) scale(1,1)"><g><path fill="none" stroke="none"/><text fill="#000000" font-family="Arial" font-size="13px" font-style="normal" font-weight="normal" stroke="none" text-decoration="none" x="116.5" y="338.5">9 : inserisciFirma(firma)</text></g></g><g transform="translate(2,2) scale(1,1)"><rect fill="#ffffff" height="28" stroke="none" width="13" x="301" y="344"/></g><g transform="translate(2,2) scale(1,1)"><path d="M 301 344 L 314 344 L 314 372 L 301 372 L 301 344 Z Z" fill="none" stroke="#000000" stroke-miterlimit="10"/></g><g transform="translate(2,2) scale(1,1)"><path d="M 314 360 L 597 360" fill="none" stroke="#000000" stroke-miterlimit="10"/></g><g transform="translate(2,2) scale(1,1)"><path d="M 586.8373251423759 364.209517756016 L 597 360 L 586.8373251423758 355.790482243984" fill="#000000" stroke="none"/></g><g transform="translate(2,2) scale(1,1)"><path d="M 586.8373251423759 364.209517756016 L 597 360 L 586.8373251423758 355.790482243984 L 586.8373251423759 364.209517756016" fill="none" stroke="#000000" stroke-miterlimit="10"/></g><g transform="translate(2,2) scale(1,1)"><g><path fill="none" stroke="none"/><text fill="#000000" font-family="Arial" font-size="13px" font-style="normal" font-weight="normal" stroke="none" text-decoration="none" x="377.5" y="354.5">10 : firmaCollo(firma, collo)</text></g></g><g transform="translate(2,2) scale(1,1)"><rect fill="#ffffff" height="64" stroke="none" width="13" x="597" y="360"/></g><g transform="translate(2,2) scale(1,1)"><path d="M 597 360 L 610 360 L 610 424 L 597 424 L 597 360 Z Z" fill="none" stroke="#000000" stroke-miterlimit="10"/></g><g transform="translate(2,2) scale(1,1)"><path d="M 610 368 L 824 368" fill="none" stroke="#000000" stroke-miterlimit="10"/></g><g transform="translate(2,2) scale(1,1)"><path d="M 813.8373251423759 372.209517756016 L 824 368 L 813.8373251423758 363.790482243984" fill="#000000" stroke="none"/></g><g transform="translate(2,2) scale(1,1)"><path d="M 813.8373251423759 372.209517756016 L 824 368 L 813.8373251423758 363.790482243984 L 813.8373251423759 372.209517756016" fill="none" stroke="#000000" stroke-miterlimit="10"/></g><g transform="translate(2,2) scale(1,1)"><g><path fill="none" stroke="none"/><text fill="#000000" font-family="Arial" font-size="13px" font-style="normal" font-weight="normal" stroke="none" text-decoration="none" x="639.5" y="362.5">11 : firmaCollo(firma, collo)</text></g></g><g transform="translate(2,2) scale(1,1)"><rect fill="#ffffff" height="48" stroke="none" width="13" x="824" y="368"/></g><g transform="translate(2,2) scale(1,1)"><path d="M 824 368 L 837 368 L 837 416 L 824 416 L 824 368 Z Z" fill="none" stroke="#000000" stroke-miterlimit="10"/></g><g transform="translate(2,2) scale(1,1)"><path d="M 837 384 L 1088 384" fill="none" stroke="#000000" stroke-miterlimit="10"/></g><g transform="translate(2,2) scale(1,1)"><path d="M 1077.837325142376 388.209517756016 L 1088 384 L 1077.837325142376 379.790482243984" fill="#000000" stroke="none"/></g><g transform="translate(2,2) scale(1,1)"><path d="M 1077.837325142376 388.209517756016 L 1088 384 L 1077.837325142376 379.790482243984 L 1077.837325142376 388.209517756016" fill="none" stroke="#000000" stroke-miterlimit="10"/></g><g transform="translate(2,2) scale(1,1)"><g><path fill="none" stroke="none"/><text fill="#000000" font-family="Arial" font-size="13px" font-style="normal" font-weight="normal" stroke="none" text-decoration="none" x="865.5" y="378.5">12 : queryFirmaCollo(firma, collo)</text></g></g><g transform="translate(2,2) scale(1,1)"><rect fill="#ffffff" height="28" stroke="none" width="13" x="1088" y="384"/></g><g transform="translate(2,2) scale(1,1)"><path d="M 1088 384 L 1101 384 L 1101 412 L 1088 412 L 1088 384 Z Z" fill="none" stroke="#000000" stroke-miterlimit="10"/></g><g transform="translate(2,2) scale(1,1)"><path d="M 1088 404 L 837 404" fill="none" stroke="#000000" stroke-dasharray="3" stroke-miterlimit="10"/></g><g transform="translate(2,2) scale(1,1)"><path d="M 847.1626748576241 399.790482243984 L 837 404 L 847.1626748576241 408.209517756016" fill="none" stroke="#000000" stroke-miterlimit="10"/></g><g transform="translate(2,2) scale(1,1)"><g><path fill="none" stroke="none"/><text fill="#000000" font-family="Arial" font-size="13px" font-style="normal" font-weight="normal" stroke="none" text-decoration="none" x="934.759521484375" y="418.5">13 : esito</text></g></g><g transform="translate(2,2) scale(1,1)"><path d="M 824 408 L 610 408" fill="none" stroke="#000000" stroke-dasharray="3" stroke-miterlimit="10"/></g><g transform="translate(2,2) scale(1,1)"><path d="M 620.1626748576241 403.790482243984 L 610 408 L 620.1626748576241 412.209517756016" fill="none" stroke="#000000" stroke-miterlimit="10"/></g><g transform="translate(2,2) scale(1,1)"><g><path fill="none" stroke="none"/><text fill="#000000" font-family="Arial" font-size="13px" font-style="normal" font-weight="normal" stroke="none" text-decoration="none" x="689.759521484375" y="422.5">14 : esito</text></g></g><g transform="translate(2,2) scale(1,1)"><path d="M 604 432 L 634 432 L 634 452 L 610 452" fill="none" stroke="#000000" stroke-miterlimit="10"/></g><g transform="translate(2,2) scale(1,1)"><path d="M 620.1626748576241 447.790482243984 L 610 452 L 620.1626748576241 456.209517756016" fill="#000000" stroke="none"/></g><g transform="translate(2,2) scale(1,1)"><path d="M 620.1626748576241 447.790482243984 L 610 452 L 620.1626748576241 456.209517756016 L 620.1626748576241 447.790482243984" fill="none" stroke="#000000" stroke-miterlimit="10"/></g><g transform="translate(2,2) scale(1,1)"><path d="M 594 499 L 614 519" fill="none" stroke="#000000" stroke-miterlimit="10"/></g><g transform="translate(2,2) scale(1,1)"><path d="M 614 499 L 594 519" fill="none" stroke="#000000" stroke-miterlimit="10"/></g><g transform="translate(2,2) scale(1,1)"><g><path fill="none" stroke="none"/><text fill="#000000" font-family="Arial" font-size="13px" font-style="normal" font-weight="normal" stroke="none" text-decoration="none" x="638.5" y="458.5">15 : </text></g></g><g transform="translate(2,2) scale(1,1)"><g><path fill="none" stroke="none"/><text fill="#000000" font-family="Arial" font-size="13px" font-style="normal" font-weight="normal" stroke="none" text-decoration="none" x="670.5" y="458.5">«destroy»</text></g></g><g transform="translate(2,2) scale(1,1)"><rect fill="#ffffff" height="28" stroke="none" width="13" x="597" y="452"/></g><g transform="translate(2,2) scale(1,1)"><path d="M 597 452 L 610 452 L 610 480 L 597 480 L 597 452 Z Z" fill="none" stroke="#000000" stroke-miterlimit="10"/></g><g transform="translate(2,2) scale(1,1)"><path d="M 597 464 L 314 464" fill="none" stroke="#000000" stroke-miterlimit="10"/></g><g transform="translate(2,2) scale(1,1)"><path d="M 324.16267485762415 459.790482243984 L 314 464 L 324.16267485762415 468.209517756016" fill="#000000" stroke="none"/></g><g transform="translate(2,2) scale(1,1)"><path d="M 324.16267485762415 459.790482243984 L 314 464 L 324.16267485762415 468.209517756016 L 324.16267485762415 459.790482243984" fill="none" stroke="#000000" stroke-miterlimit="10"/></g><g transform="translate(2,2) scale(1,1)"><path d="M 298 499 L 318 519" fill="none" stroke="#000000" stroke-miterlimit="10"/></g><g transform="translate(2,2) scale(1,1)"><path d="M 318 499 L 298 519" fill="none" stroke="#000000" stroke-miterlimit="10"/></g><g transform="translate(2,2) scale(1,1)"><g><path fill="none" stroke="none"/><text fill="#000000" font-family="Arial" font-size="13px" font-style="normal" font-weight="normal" stroke="none" text-decoration="none" x="441.5" y="478.5">16 : </text></g></g><g transform="translate(2,2) scale(1,1)"><g><path fill="none" stroke="none"/><text fill="#000000" font-family="Arial" font-size="13px" font-style="normal" font-weight="normal" stroke="none" text-decoration="none" x="425.5" y="493.5">«destroy»</text></g></g><g transform="translate(2,2) scale(1,1)"><rect fill="#ffffff" height="28" stroke="none" width="13" x="301" y="464"/></g><g transform="translate(2,2) scale(1,1)"><path d="M 301 464 L 314 464 L 314 492 L 301 492 L 301 464 Z Z" fill="none" stroke="#000000" stroke-miterlimit="10"/></g></g></svg>