<?xml version="1.0" encoding="UTF-8" standalone="no"?><svg xmlns="http://www.w3.org/2000/svg" xmlns:xlink="http://www.w3.org/1999/xlink" height="1188" version="1.1" width="1372"><defs/><g><g transform="translate(-102,10) scale(1,1)"><path d="M 112 0 L 1464 0 L 1464 1168 L 112 1168 L 112 0" fill="none" stroke="#000000" stroke-miterlimit="10"/></g><g transform="translate(-102,10) scale(1,1)"><path d="M 112 0 L 112 22 L 232.76806640625 22 L 243.76806640625 11 L 243.76806640625 0 L 112 0" fill="#ffffff" stroke="none"/></g><g transform="translate(-102,10) scale(1,1)"><path d="M 112 0 L 112 22 L 232.76806640625 22 L 243.76806640625 11 L 243.76806640625 0 L 112 0 L 112 0" fill="none" stroke="#000000" stroke-miterlimit="10"/></g><g transform="translate(-102,10) scale(1,1)"><g><path fill="none" stroke="none"/><text fill="#000000" font-family="Arial" font-size="13px" font-style="normal" font-weight="normal" stroke="none" text-decoration="none" x="136.72998046875" y="15.5">Modifica Ordine</text></g></g><g transform="translate(-102,10) scale(1,1)"><g><path fill="none" stroke="none"/><text fill="#000000" font-family="Arial" font-size="13px" font-style="normal" font-weight="bold" stroke="none" text-decoration="none" x="116.279541015625" y="15.5">sd</text></g></g><g transform="translate(-102,10) scale(1,1)"><path d="M 230.7344833096591 47.3 C 230.7344833096591 43.82060576 233.6128850318409 41 237.16357421875 41 C 240.7142634056591 41 243.59266512784092 43.82060576 243.59266512784092 47.3 C 243.59266512784092 50.779394239999995 240.7142634056591 53.6 237.16357421875 53.6 C 233.6128850318409 53.6 230.7344833096591 50.779394239999995 230.7344833096591 47.3 Z" fill="#ffffff" stroke="none"/></g><g transform="translate(-102,10) scale(1,1)"><path d="M 230.7344833096591 47.3 C 230.7344833096591 43.82060576 233.6128850318409 41 237.16357421875 41 C 240.7142634056591 41 243.59266512784092 43.82060576 243.59266512784092 47.3 C 243.59266512784092 50.779394239999995 240.7142634056591 53.6 237.16357421875 53.6 C 233.6128850318409 53.6 230.7344833096591 50.779394239999995 230.7344833096591 47.3 Z" fill="none" stroke="#000000" stroke-miterlimit="10"/></g><g transform="translate(-102,10) scale(1,1)"><path d="M 237.16357421875 53.6 L 237.16357421875 66.4" fill="none" stroke="#000000" stroke-miterlimit="10"/></g><g transform="translate(-102,10) scale(1,1)"><path d="M 230.3563014914773 58.4 L 243.97084694602273 58.4" fill="none" stroke="#000000" stroke-miterlimit="10"/></g><g transform="translate(-102,10) scale(1,1)"><path d="M 237.16357421875 66.4 L 227.70902876420456 79" fill="none" stroke="#000000" stroke-miterlimit="10"/></g><g transform="translate(-102,10) scale(1,1)"><path d="M 237.16357421875 66.4 L 246.61811967329547 79" fill="none" stroke="#000000" stroke-miterlimit="10"/></g><g transform="translate(-102,10) scale(1,1)"><g><path fill="none" stroke="none"/><text fill="#000000" font-family="Arial" font-size="13px" font-style="normal" font-weight="bold" stroke="none" text-decoration="none" x="198.8681640625" y="97.5">: Farmacista</text></g></g><g transform="translate(-102,10) scale(1,1)"><path d="M 238.5 105 L 238.5 1042" fill="none" stroke="#000000" stroke-dasharray="3" stroke-miterlimit="10"/></g><g transform="translate(-102,10) scale(1,1)"><rect fill="#C0C0C0" height="39" opacity="0.2" stroke="none" width="170.68994140625" x="543" y="139"/></g><g transform="translate(-102,10) scale(1,1)"><rect fill="#ffffff" height="39" stroke="none" width="170.68994140625" x="536" y="132"/></g><g transform="translate(-102,10) scale(1,1)"><path d="M 536 132 L 706.68994140625 132 L 706.68994140625 171 L 536 171 L 536 132 Z Z" fill="none" stroke="#000000" stroke-miterlimit="10"/></g><g transform="translate(-102,10) scale(1,1)"><g><path fill="none" stroke="none"/><text fill="#000000" font-family="Arial" font-size="13px" font-style="normal" font-weight="normal" stroke="none" text-decoration="none" x="593.161376953125" y="147.5">«Control»</text></g></g><g transform="translate(-102,10) scale(1,1)"><g><path fill="none" stroke="none"/><text fill="#000000" font-family="Arial" font-size="13px" font-style="normal" font-weight="bold" stroke="none" text-decoration="none" x="545.5" y="162.5">: GestoreModificaOrdine</text></g></g><g transform="translate(-102,10) scale(1,1)"><path d="M 622.5 172 L 622.5 1120" fill="none" stroke="#000000" stroke-dasharray="3" stroke-miterlimit="10"/></g><g transform="translate(-102,10) scale(1,1)"><rect fill="#C0C0C0" height="39" opacity="0.2" stroke="none" width="182.97900390625" x="367" y="219"/></g><g transform="translate(-102,10) scale(1,1)"><rect fill="#ffffff" height="39" stroke="none" width="182.97900390625" x="360" y="212"/></g><g transform="translate(-102,10) scale(1,1)"><path d="M 360 212 L 542.97900390625 212 L 542.97900390625 251 L 360 251 L 360 212 Z Z" fill="none" stroke="#000000" stroke-miterlimit="10"/></g><g transform="translate(-102,10) scale(1,1)"><g><path fill="none" stroke="none"/><text fill="#000000" font-family="Arial" font-size="13px" font-style="normal" font-weight="normal" stroke="none" text-decoration="none" x="416.4345703125" y="227.5">«Boundary»</text></g></g><g transform="translate(-102,10) scale(1,1)"><g><path fill="none" stroke="none"/><text fill="#000000" font-family="Arial" font-size="13px" font-style="normal" font-weight="bold" stroke="none" text-decoration="none" x="369.5" y="242.5">:InterfacciaModificaOrdine</text></g></g><g transform="translate(-102,10) scale(1,1)"><path d="M 452.5 252 L 452.5 1117" fill="none" stroke="#000000" stroke-dasharray="3" stroke-miterlimit="10"/></g><g transform="translate(-102,10) scale(1,1)"><rect fill="#C0C0C0" height="39" opacity="0.2" stroke="none" width="108.5654296875" x="991" y="47"/></g><g transform="translate(-102,10) scale(1,1)"><rect fill="#ffffff" height="39" stroke="none" width="108.5654296875" x="984" y="40"/></g><g transform="translate(-102,10) scale(1,1)"><path d="M 984 40 L 1092.5654296875 40 L 1092.5654296875 79 L 984 79 L 984 40 Z Z" fill="none" stroke="#000000" stroke-miterlimit="10"/></g><g transform="translate(-102,10) scale(1,1)"><g><path fill="none" stroke="none"/><text fill="#000000" font-family="Arial" font-size="13px" font-style="normal" font-weight="normal" stroke="none" text-decoration="none" x="1003.227783203125" y="55.5">«Boundary»</text></g></g><g transform="translate(-102,10) scale(1,1)"><g><path fill="none" stroke="none"/><text fill="#000000" font-family="Arial" font-size="13px" font-style="normal" font-weight="bold" stroke="none" text-decoration="none" x="993.5" y="70.5">DBMSDaemon</text></g></g><g transform="translate(-102,10) scale(1,1)"><path d="M 1039.5 80 L 1039.5 944" fill="none" stroke="#000000" stroke-dasharray="3" stroke-miterlimit="10"/></g><g transform="translate(-102,10) scale(1,1)"><path d="M 1298.274522372159 47.3 C 1298.274522372159 43.82060576 1301.152924094341 41 1304.70361328125 41 C 1308.254302468159 41 1311.132704190341 43.82060576 1311.132704190341 47.3 C 1311.132704190341 50.779394239999995 1308.254302468159 53.6 1304.70361328125 53.6 C 1301.152924094341 53.6 1298.274522372159 50.779394239999995 1298.274522372159 47.3 Z" fill="#ffffff" stroke="none"/></g><g transform="translate(-102,10) scale(1,1)"><path d="M 1298.274522372159 47.3 C 1298.274522372159 43.82060576 1301.152924094341 41 1304.70361328125 41 C 1308.254302468159 41 1311.132704190341 43.82060576 1311.132704190341 47.3 C 1311.132704190341 50.779394239999995 1308.254302468159 53.6 1304.70361328125 53.6 C 1301.152924094341 53.6 1298.274522372159 50.779394239999995 1298.274522372159 47.3 Z" fill="none" stroke="#000000" stroke-miterlimit="10"/></g><g transform="translate(-102,10) scale(1,1)"><path d="M 1304.70361328125 53.6 L 1304.70361328125 66.4" fill="none" stroke="#000000" stroke-miterlimit="10"/></g><g transform="translate(-102,10) scale(1,1)"><path d="M 1297.8963405539773 58.4 L 1311.5108860085227 58.4" fill="none" stroke="#000000" stroke-miterlimit="10"/></g><g transform="translate(-102,10) scale(1,1)"><path d="M 1304.70361328125 66.4 L 1295.2490678267045 79" fill="none" stroke="#000000" stroke-miterlimit="10"/></g><g transform="translate(-102,10) scale(1,1)"><path d="M 1304.70361328125 66.4 L 1314.1581587357955 79" fill="none" stroke="#000000" stroke-miterlimit="10"/></g><g transform="translate(-102,10) scale(1,1)"><g><path fill="none" stroke="none"/><text fill="#000000" font-family="Arial" font-size="13px" font-style="normal" font-weight="bold" stroke="none" text-decoration="none" x="1254.8681640625" y="97.5">: DBMS Azienda</text></g></g><g transform="translate(-102,10) scale(1,1)"><path d="M 1305.5 105 L 1305.5 944" fill="none" stroke="#000000" stroke-dasharray="3" stroke-miterlimit="10"/></g><g transform="translate(-102,10) scale(1,1)"><rect fill="#C0C0C0" height="39" opacity="0.2" stroke="none" width="112.1962890625" x="431" y="523"/></g><g transform="translate(-102,10) scale(1,1)"><rect fill="#ffffff" height="39" stroke="none" width="112.1962890625" x="424" y="516"/></g><g transform="translate(-102,10) scale(1,1)"><path d="M 424 516 L 536.1962890625 516 L 536.1962890625 555 L 424 555 L 424 516 Z Z" fill="none" stroke="#000000" stroke-miterlimit="10"/></g><g transform="translate(-102,10) scale(1,1)"><g><path fill="none" stroke="none"/><text fill="#000000" font-family="Arial" font-size="13px" font-style="normal" font-weight="normal" stroke="none" text-decoration="none" x="445.043212890625" y="531.5">«Boundary»</text></g></g><g transform="translate(-102,10) scale(1,1)"><g><path fill="none" stroke="none"/><text fill="#000000" font-family="Arial" font-size="13px" font-style="normal" font-weight="bold" stroke="none" text-decoration="none" x="433.5" y="546.5">PannelloErrore</text></g></g><g transform="translate(-102,10) scale(1,1)"><path d="M 481.5 556 L 481.5 624" fill="none" stroke="#000000" stroke-dasharray="3" stroke-miterlimit="10"/></g><g transform="translate(-102,10) scale(1,1)"><rect fill="#C0C0C0" height="39" opacity="0.2" stroke="none" width="149.76171875" x="423" y="843"/></g><g transform="translate(-102,10) scale(1,1)"><rect fill="#ffffff" height="39" stroke="none" width="149.76171875" x="416" y="836"/></g><g transform="translate(-102,10) scale(1,1)"><path d="M 416 836 L 565.76171875 836 L 565.76171875 875 L 416 875 L 416 836 Z Z" fill="none" stroke="#000000" stroke-miterlimit="10"/></g><g transform="translate(-102,10) scale(1,1)"><g><path fill="none" stroke="none"/><text fill="#000000" font-family="Arial" font-size="13px" font-style="normal" font-weight="normal" stroke="none" text-decoration="none" x="455.825927734375" y="851.5">«Boundary»</text></g></g><g transform="translate(-102,10) scale(1,1)"><g><path fill="none" stroke="none"/><text fill="#000000" font-family="Arial" font-size="13px" font-style="normal" font-weight="bold" stroke="none" text-decoration="none" x="444.28271484375" y="866.5">PannelloErrore</text></g></g><g transform="translate(-102,10) scale(1,1)"><path d="M 491.5 876 L 491.5 944" fill="none" stroke="#000000" stroke-dasharray="3" stroke-miterlimit="10"/></g><g transform="translate(-102,10) scale(1,1)"><rect fill="#C0C0C0" height="39" opacity="0.2" stroke="none" width="244.32275390625" x="295" y="47"/></g><g transform="translate(-102,10) scale(1,1)"><rect fill="#ffffff" height="39" stroke="none" width="244.32275390625" x="288" y="40"/></g><g transform="translate(-102,10) scale(1,1)"><path d="M 288 40 L 532.32275390625 40 L 532.32275390625 79 L 288 79 L 288 40 Z Z" fill="none" stroke="#000000" stroke-miterlimit="10"/></g><g transform="translate(-102,10) scale(1,1)"><g><path fill="none" stroke="none"/><text fill="#000000" font-family="Arial" font-size="13px" font-style="normal" font-weight="normal" stroke="none" text-decoration="none" x="375.1064453125" y="55.5">«Boundary»</text></g></g><g transform="translate(-102,10) scale(1,1)"><g><path fill="none" stroke="none"/><text fill="#000000" font-family="Arial" font-size="13px" font-style="normal" font-weight="bold" stroke="none" text-decoration="none" x="309.1669921875" y="70.5">TastoModificaOrdine[datiOrdine]</text></g></g><g transform="translate(-102,10) scale(1,1)"><path d="M 411.5 80 L 411.5 178" fill="none" stroke="#000000" stroke-dasharray="3" stroke-miterlimit="10"/></g><g transform="translate(-102,10) scale(1,1)"><path d="M 238 136 L 404 136" fill="none" stroke="#000000" stroke-miterlimit="10"/></g><g transform="translate(-102,10) scale(1,1)"><path d="M 393.83732514237585 140.209517756016 L 404 136 L 393.83732514237585 131.790482243984" fill="#000000" stroke="none"/></g><g transform="translate(-102,10) scale(1,1)"><path d="M 393.83732514237585 140.209517756016 L 404 136 L 393.83732514237585 131.790482243984 L 393.83732514237585 140.209517756016" fill="none" stroke="#000000" stroke-miterlimit="10"/></g><g transform="translate(-102,10) scale(1,1)"><g><path fill="none" stroke="none"/><text fill="#000000" font-family="Arial" font-size="13px" font-style="normal" font-weight="normal" stroke="none" text-decoration="none" x="295.236328125" y="130.5">1 : clicca</text></g></g><g transform="translate(-102,10) scale(1,1)"><rect fill="#ffffff" height="28" stroke="none" width="13" x="404" y="136"/></g><g transform="translate(-102,10) scale(1,1)"><path d="M 404 136 L 417 136 L 417 164 L 404 164 L 404 136 Z Z" fill="none" stroke="#000000" stroke-miterlimit="10"/></g><g transform="translate(-102,10) scale(1,1)"><path d="M 417 152 L 536 152" fill="none" stroke="#000000" stroke-dasharray="3" stroke-miterlimit="10"/></g><g transform="translate(-102,10) scale(1,1)"><path d="M 525.8373251423759 156.209517756016 L 536 152 L 525.8373251423758 147.790482243984" fill="none" stroke="#000000" stroke-miterlimit="10"/></g><g transform="translate(-102,10) scale(1,1)"><g><path fill="none" stroke="none"/><text fill="#000000" font-family="Arial" font-size="13px" font-style="normal" font-weight="normal" stroke="none" text-decoration="none" x="466.5" y="146.5">2 : </text></g></g><g transform="translate(-102,10) scale(1,1)"><g><path fill="none" stroke="none"/><text fill="#000000" font-family="Arial" font-size="13px" font-style="normal" font-weight="normal" stroke="none" text-decoration="none" x="450.5" y="131.5">«create»</text></g></g><g transform="translate(-102,10) scale(1,1)"><path d="M 622 232 L 542.97900390625 232" fill="none" stroke="#000000" stroke-dasharray="3" stroke-miterlimit="10"/></g><g transform="translate(-102,10) scale(1,1)"><path d="M 553.1416787638741 227.790482243984 L 542.97900390625 232 L 553.1416787638741 236.209517756016" fill="none" stroke="#000000" stroke-miterlimit="10"/></g><g transform="translate(-102,10) scale(1,1)"><g><path fill="none" stroke="none"/><text fill="#000000" font-family="Arial" font-size="13px" font-style="normal" font-weight="normal" stroke="none" text-decoration="none" x="571.5" y="246.5">3 : </text></g></g><g transform="translate(-102,10) scale(1,1)"><g><path fill="none" stroke="none"/><text fill="#000000" font-family="Arial" font-size="13px" font-style="normal" font-weight="normal" stroke="none" text-decoration="none" x="555.5" y="261.5">«create»</text></g></g><g transform="translate(-102,10) scale(1,1)"><path d="M 238 344 L 445 344" fill="none" stroke="#000000" stroke-miterlimit="10"/></g><g transform="translate(-102,10) scale(1,1)"><path d="M 434.83732514237585 348.209517756016 L 445 344 L 434.83732514237585 339.790482243984" fill="#000000" stroke="none"/></g><g transform="translate(-102,10) scale(1,1)"><path d="M 434.83732514237585 348.209517756016 L 445 344 L 434.83732514237585 339.790482243984 L 434.83732514237585 348.209517756016" fill="none" stroke="#000000" stroke-miterlimit="10"/></g><g transform="translate(-102,10) scale(1,1)"><g><path fill="none" stroke="none"/><text fill="#000000" font-family="Arial" font-size="13px" font-style="normal" font-weight="normal" stroke="none" text-decoration="none" x="215.2099609375" y="338.5">4 : inserisciDati(nuovaQuantita, nuovaData)</text></g></g><g transform="translate(-102,10) scale(1,1)"><rect fill="#ffffff" height="28" stroke="none" width="13" x="445" y="344"/></g><g transform="translate(-102,10) scale(1,1)"><path d="M 445 344 L 458 344 L 458 372 L 445 372 L 445 344 Z Z" fill="none" stroke="#000000" stroke-miterlimit="10"/></g><g transform="translate(-102,10) scale(1,1)"><path d="M 238 376 L 445 376" fill="none" stroke="#000000" stroke-miterlimit="10"/></g><g transform="translate(-102,10) scale(1,1)"><path d="M 434.83732514237585 380.209517756016 L 445 376 L 434.83732514237585 371.790482243984" fill="#000000" stroke="none"/></g><g transform="translate(-102,10) scale(1,1)"><path d="M 434.83732514237585 380.209517756016 L 445 376 L 434.83732514237585 371.790482243984 L 434.83732514237585 380.209517756016" fill="none" stroke="#000000" stroke-miterlimit="10"/></g><g transform="translate(-102,10) scale(1,1)"><g><path fill="none" stroke="none"/><text fill="#000000" font-family="Arial" font-size="13px" font-style="normal" font-weight="normal" stroke="none" text-decoration="none" x="305.009521484375" y="370.5">5 : conferma</text></g></g><g transform="translate(-102,10) scale(1,1)"><rect fill="#ffffff" height="28" stroke="none" width="13" x="445" y="376"/></g><g transform="translate(-102,10) scale(1,1)"><path d="M 445 376 L 458 376 L 458 404 L 445 404 L 445 376 Z Z" fill="none" stroke="#000000" stroke-miterlimit="10"/></g><g transform="translate(-102,10) scale(1,1)"><path d="M 458 392 L 615 392" fill="none" stroke="#000000" stroke-miterlimit="10"/></g><g transform="translate(-102,10) scale(1,1)"><path d="M 604.8373251423759 396.209517756016 L 615 392 L 604.8373251423758 387.790482243984" fill="#000000" stroke="none"/></g><g transform="translate(-102,10) scale(1,1)"><path d="M 604.8373251423759 396.209517756016 L 615 392 L 604.8373251423758 387.790482243984 L 604.8373251423759 396.209517756016" fill="none" stroke="#000000" stroke-miterlimit="10"/></g><g transform="translate(-102,10) scale(1,1)"><g><path fill="none" stroke="none"/><text fill="#000000" font-family="Arial" font-size="13px" font-style="normal" font-weight="normal" stroke="none" text-decoration="none" x="464.15283203125" y="368.5">6 : modificaOrdine(quantita,</text><text fill="#000000" font-family="Arial" font-size="13px" font-style="normal" font-weight="normal" stroke="none" text-decoration="none" x="510.3955078125" y="381.5">nuovaData)</text></g></g><g transform="translate(-102,10) scale(1,1)"><rect fill="#ffffff" height="656" stroke="none" width="13" x="615" y="392"/></g><g transform="translate(-102,10) scale(1,1)"><path d="M 615 392 L 628 392 L 628 1048 L 615 1048 L 615 392 Z Z" fill="none" stroke="#000000" stroke-miterlimit="10"/></g><g transform="translate(-102,10) scale(1,1)"><path d="M 628 400 L 1032 400" fill="none" stroke="#000000" stroke-miterlimit="10"/></g><g transform="translate(-102,10) scale(1,1)"><path d="M 1021.8373251423759 404.209517756016 L 1032 400 L 1021.8373251423758 395.790482243984" fill="#000000" stroke="none"/></g><g transform="translate(-102,10) scale(1,1)"><path d="M 1021.8373251423759 404.209517756016 L 1032 400 L 1021.8373251423758 395.790482243984 L 1021.8373251423759 404.209517756016" fill="none" stroke="#000000" stroke-miterlimit="10"/></g><g transform="translate(-102,10) scale(1,1)"><g><path fill="none" stroke="none"/><text fill="#000000" font-family="Arial" font-size="13px" font-style="normal" font-weight="normal" stroke="none" text-decoration="none" x="690.67626953125" y="394.5">7 : aggiornaQuantitaOrdine(datiOrdine, quantita)</text></g></g><g transform="translate(-102,10) scale(1,1)"><rect fill="#ffffff" height="72" stroke="none" width="13" x="1032" y="400"/></g><g transform="translate(-102,10) scale(1,1)"><path d="M 1032 400 L 1045 400 L 1045 472 L 1032 472 L 1032 400 Z Z" fill="none" stroke="#000000" stroke-miterlimit="10"/></g><g transform="translate(-102,10) scale(1,1)"><path d="M 1045 424 L 1298 424" fill="none" stroke="#000000" stroke-miterlimit="10"/></g><g transform="translate(-102,10) scale(1,1)"><path d="M 1287.837325142376 428.209517756016 L 1298 424 L 1287.837325142376 419.790482243984" fill="#000000" stroke="none"/></g><g transform="translate(-102,10) scale(1,1)"><path d="M 1287.837325142376 428.209517756016 L 1298 424 L 1287.837325142376 419.790482243984 L 1287.837325142376 428.209517756016" fill="none" stroke="#000000" stroke-miterlimit="10"/></g><g transform="translate(-102,10) scale(1,1)"><g><path fill="none" stroke="none"/><text fill="#000000" font-family="Arial" font-size="13px" font-style="normal" font-weight="normal" stroke="none" text-decoration="none" x="1160.273193359375" y="385.5">8 :</text><text fill="#000000" font-family="Arial" font-size="13px" font-style="normal" font-weight="normal" stroke="none" text-decoration="none" x="1064.16015625" y="398.5">aggiornaQuantitaOrdine(datiOrdine,</text><text fill="#000000" font-family="Arial" font-size="13px" font-style="normal" font-weight="normal" stroke="none" text-decoration="none" x="1142.20458984375" y="411.5">quantita)</text></g></g><g transform="translate(-102,10) scale(1,1)"><rect fill="#ffffff" height="28" stroke="none" width="13" x="1298" y="424"/></g><g transform="translate(-102,10) scale(1,1)"><path d="M 1298 424 L 1311 424 L 1311 452 L 1298 452 L 1298 424 Z Z" fill="none" stroke="#000000" stroke-miterlimit="10"/></g><g transform="translate(-102,10) scale(1,1)"><path d="M 1298 450 L 1045 450" fill="none" stroke="#000000" stroke-dasharray="3" stroke-miterlimit="10"/></g><g transform="translate(-102,10) scale(1,1)"><path d="M 1055.162674857624 445.790482243984 L 1045 450 L 1055.162674857624 454.209517756016" fill="none" stroke="#000000" stroke-miterlimit="10"/></g><g transform="translate(-102,10) scale(1,1)"><g><path fill="none" stroke="none"/><text fill="#000000" font-family="Arial" font-size="13px" font-style="normal" font-weight="normal" stroke="none" text-decoration="none" x="1147.114990234375" y="464.5">9 : esito</text></g></g><g transform="translate(-102,10) scale(1,1)"><path d="M 1039 472 L 628 472" fill="none" stroke="#000000" stroke-dasharray="3" stroke-miterlimit="10"/></g><g transform="translate(-102,10) scale(1,1)"><path d="M 638.1626748576241 467.790482243984 L 628 472 L 638.1626748576241 476.209517756016" fill="none" stroke="#000000" stroke-miterlimit="10"/></g><g transform="translate(-102,10) scale(1,1)"><g><path fill="none" stroke="none"/><text fill="#000000" font-family="Arial" font-size="13px" font-style="normal" font-weight="normal" stroke="none" text-decoration="none" x="805.5" y="486.5">10 : esito</text></g></g><g transform="translate(-102,10) scale(1,1)"><path d="M 615 536 L 536.1962890625 536" fill="none" stroke="#000000" stroke-dasharray="3" stroke-miterlimit="10"/></g><g transform="translate(-102,10) scale(1,1)"><path d="M 546.3589639201241 531.790482243984 L 536.1962890625 536 L 546.3589639201241 540.209517756016" fill="none" stroke="#000000" stroke-miterlimit="10"/></g><g transform="translate(-102,10) scale(1,1)"><g><path fill="none" stroke="none"/><text fill="#000000" font-family="Arial" font-size="13px" font-style="normal" font-weight="normal" stroke="none" text-decoration="none" x="561.982421875" y="550.5">11 : </text></g></g><g transform="translate(-102,10) scale(1,1)"><g><path fill="none" stroke="none"/><text fill="#000000" font-family="Arial" font-size="13px" font-style="normal" font-weight="normal" stroke="none" text-decoration="none" x="548.5" y="565.5">«create»</text></g></g><g transform="translate(-102,10) scale(1,1)"><path d="M 238 576 L 474 576" fill="none" stroke="#000000" stroke-miterlimit="10"/></g><g transform="translate(-102,10) scale(1,1)"><path d="M 463.83732514237585 580.209517756016 L 474 576 L 463.83732514237585 571.790482243984" fill="#000000" stroke="none"/></g><g transform="translate(-102,10) scale(1,1)"><path d="M 463.83732514237585 580.209517756016 L 474 576 L 463.83732514237585 571.790482243984 L 463.83732514237585 580.209517756016" fill="none" stroke="#000000" stroke-miterlimit="10"/></g><g transform="translate(-102,10) scale(1,1)"><path d="M 471 614 L 491 634" fill="none" stroke="#000000" stroke-miterlimit="10"/></g><g transform="translate(-102,10) scale(1,1)"><path d="M 491 614 L 471 634" fill="none" stroke="#000000" stroke-miterlimit="10"/></g><g transform="translate(-102,10) scale(1,1)"><g><path fill="none" stroke="none"/><text fill="#000000" font-family="Arial" font-size="13px" font-style="normal" font-weight="normal" stroke="none" text-decoration="none" x="316.5" y="570.5">12 : conferma</text></g></g><g transform="translate(-102,10) scale(1,1)"><g><path fill="none" stroke="none"/><text fill="#000000" font-family="Arial" font-size="13px" font-style="normal" font-weight="normal" stroke="none" text-decoration="none" x="327.5" y="555.5">«destroy»</text></g></g><g transform="translate(-102,10) scale(1,1)"><rect fill="#ffffff" height="28" stroke="none" width="13" x="474" y="576"/></g><g transform="translate(-102,10) scale(1,1)"><path d="M 474 576 L 487 576 L 487 604 L 474 604 L 474 576 Z Z" fill="none" stroke="#000000" stroke-miterlimit="10"/></g><g transform="translate(-102,10) scale(1,1)"><path d="M 628 676 L 1032 676" fill="none" stroke="#000000" stroke-miterlimit="10"/></g><g transform="translate(-102,10) scale(1,1)"><path d="M 1021.8373251423759 680.209517756016 L 1032 676 L 1021.8373251423758 671.790482243984" fill="#000000" stroke="none"/></g><g transform="translate(-102,10) scale(1,1)"><path d="M 1021.8373251423759 680.209517756016 L 1032 676 L 1021.8373251423758 671.790482243984 L 1021.8373251423759 680.209517756016" fill="none" stroke="#000000" stroke-miterlimit="10"/></g><g transform="translate(-102,10) scale(1,1)"><g><path fill="none" stroke="none"/><text fill="#000000" font-family="Arial" font-size="13px" font-style="normal" font-weight="normal" stroke="none" text-decoration="none" x="708.5" y="670.5">13 : aggiornaData(datiOrdine, nuovaData)</text></g></g><g transform="translate(-102,10) scale(1,1)"><rect fill="#ffffff" height="76" stroke="none" width="13" x="1032" y="676"/></g><g transform="translate(-102,10) scale(1,1)"><path d="M 1032 676 L 1045 676 L 1045 752 L 1032 752 L 1032 676 Z Z" fill="none" stroke="#000000" stroke-miterlimit="10"/></g><g transform="translate(-102,10) scale(1,1)"><path d="M 1045 705 L 1298 705" fill="none" stroke="#000000" stroke-miterlimit="10"/></g><g transform="translate(-102,10) scale(1,1)"><path d="M 1287.837325142376 709.209517756016 L 1298 705 L 1287.837325142376 700.790482243984" fill="#000000" stroke="none"/></g><g transform="translate(-102,10) scale(1,1)"><path d="M 1287.837325142376 709.209517756016 L 1298 705 L 1287.837325142376 700.790482243984 L 1287.837325142376 709.209517756016" fill="none" stroke="#000000" stroke-miterlimit="10"/></g><g transform="translate(-102,10) scale(1,1)"><g><path fill="none" stroke="none"/><text fill="#000000" font-family="Arial" font-size="13px" font-style="normal" font-weight="normal" stroke="none" text-decoration="none" x="1049.5" y="699.5">14 : aggiornaData(datiOrdine, nuovaData)</text></g></g><g transform="translate(-102,10) scale(1,1)"><rect fill="#ffffff" height="28" stroke="none" width="13" x="1298" y="705"/></g><g transform="translate(-102,10) scale(1,1)"><path d="M 1298 705 L 1311 705 L 1311 733 L 1298 733 L 1298 705 Z Z" fill="none" stroke="#000000" stroke-miterlimit="10"/></g><g transform="translate(-102,10) scale(1,1)"><path d="M 1305 736 L 1045 736" fill="none" stroke="#000000" stroke-dasharray="3" stroke-miterlimit="10"/></g><g transform="translate(-102,10) scale(1,1)"><path d="M 1055.162674857624 731.790482243984 L 1045 736 L 1055.162674857624 740.209517756016" fill="none" stroke="#000000" stroke-miterlimit="10"/></g><g transform="translate(-102,10) scale(1,1)"><g><path fill="none" stroke="none"/><text fill="#000000" font-family="Arial" font-size="13px" font-style="normal" font-weight="normal" stroke="none" text-decoration="none" x="1147.5" y="750.5">15 : esito</text></g></g><g transform="translate(-102,10) scale(1,1)"><path d="M 1032 745 L 628 745" fill="none" stroke="#000000" stroke-dasharray="3" stroke-miterlimit="10"/></g><g transform="translate(-102,10) scale(1,1)"><path d="M 638.1626748576241 740.790482243984 L 628 745 L 638.1626748576241 749.209517756016" fill="none" stroke="#000000" stroke-miterlimit="10"/></g><g transform="translate(-102,10) scale(1,1)"><g><path fill="none" stroke="none"/><text fill="#000000" font-family="Arial" font-size="13px" font-style="normal" font-weight="normal" stroke="none" text-decoration="none" x="802.5" y="759.5">16 : esito</text></g></g><g transform="translate(-102,10) scale(1,1)"><path d="M 615 856 L 565.76171875 856" fill="none" stroke="#000000" stroke-dasharray="3" stroke-miterlimit="10"/></g><g transform="translate(-102,10) scale(1,1)"><path d="M 575.9243936076241 851.790482243984 L 565.76171875 856 L 575.9243936076241 860.209517756016" fill="none" stroke="#000000" stroke-miterlimit="10"/></g><g transform="translate(-102,10) scale(1,1)"><g><path fill="none" stroke="none"/><text fill="#000000" font-family="Arial" font-size="13px" font-style="normal" font-weight="normal" stroke="none" text-decoration="none" x="576.5" y="870.5">17 : </text></g></g><g transform="translate(-102,10) scale(1,1)"><g><path fill="none" stroke="none"/><text fill="#000000" font-family="Arial" font-size="13px" font-style="normal" font-weight="normal" stroke="none" text-decoration="none" x="563.5" y="885.5">«create»</text></g></g><g transform="translate(-102,10) scale(1,1)"><path d="M 238 896 L 484 896" fill="none" stroke="#000000" stroke-miterlimit="10"/></g><g transform="translate(-102,10) scale(1,1)"><path d="M 473.83732514237585 900.209517756016 L 484 896 L 473.83732514237585 891.790482243984" fill="#000000" stroke="none"/></g><g transform="translate(-102,10) scale(1,1)"><path d="M 473.83732514237585 900.209517756016 L 484 896 L 473.83732514237585 891.790482243984 L 473.83732514237585 900.209517756016" fill="none" stroke="#000000" stroke-miterlimit="10"/></g><g transform="translate(-102,10) scale(1,1)"><path d="M 481 934 L 501 954" fill="none" stroke="#000000" stroke-miterlimit="10"/></g><g transform="translate(-102,10) scale(1,1)"><path d="M 501 934 L 481 954" fill="none" stroke="#000000" stroke-miterlimit="10"/></g><g transform="translate(-102,10) scale(1,1)"><g><path fill="none" stroke="none"/><text fill="#000000" font-family="Arial" font-size="13px" font-style="normal" font-weight="normal" stroke="none" text-decoration="none" x="321.5" y="890.5">18 : conferma</text></g></g><g transform="translate(-102,10) scale(1,1)"><g><path fill="none" stroke="none"/><text fill="#000000" font-family="Arial" font-size="13px" font-style="normal" font-weight="normal" stroke="none" text-decoration="none" x="332.5" y="875.5">«destroy»</text></g></g><g transform="translate(-102,10) scale(1,1)"><rect fill="#ffffff" height="28" stroke="none" width="13" x="484" y="896"/></g><g transform="translate(-102,10) scale(1,1)"><path d="M 484 896 L 497 896 L 497 924 L 484 924 L 484 896 Z Z" fill="none" stroke="#000000" stroke-miterlimit="10"/></g><g transform="translate(-102,10) scale(1,1)"><path d="M 628 1040 L 658 1040 L 658 1060 L 628 1060" fill="none" stroke="#000000" stroke-miterlimit="10"/></g><g transform="translate(-102,10) scale(1,1)"><path d="M 638.1626748576241 1055.7904822439841 L 628 1060 L 638.1626748576241 1064.2095177560159" fill="#000000" stroke="none"/></g><g transform="translate(-102,10) scale(1,1)"><path d="M 638.1626748576241 1055.7904822439841 L 628 1060 L 638.1626748576241 1064.2095177560159 L 638.1626748576241 1055.7904822439841" fill="none" stroke="#000000" stroke-miterlimit="10"/></g><g transform="translate(-102,10) scale(1,1)"><path d="M 612 1110 L 632 1130" fill="none" stroke="#000000" stroke-miterlimit="10"/></g><g transform="translate(-102,10) scale(1,1)"><path d="M 632 1110 L 612 1130" fill="none" stroke="#000000" stroke-miterlimit="10"/></g><g transform="translate(-102,10) scale(1,1)"><g><path fill="none" stroke="none"/><text fill="#000000" font-family="Arial" font-size="13px" font-style="normal" font-weight="normal" stroke="none" text-decoration="none" x="654.5" y="1053.5">19 : </text></g></g><g transform="translate(-102,10) scale(1,1)"><g><path fill="none" stroke="none"/><text fill="#000000" font-family="Arial" font-size="13px" font-style="normal" font-weight="normal" stroke="none" text-decoration="none" x="677.5" y="1050.5">«destroy»</text></g></g><g transform="translate(-102,10) scale(1,1)"><rect fill="#ffffff" height="28" stroke="none" width="13" x="615" y="1060"/></g><g transform="translate(-102,10) scale(1,1)"><path d="M 615 1060 L 628 1060 L 628 1088 L 615 1088 L 615 1060 Z Z" fill="none" stroke="#000000" stroke-miterlimit="10"/></g><g transform="translate(-102,10) scale(1,1)"><path d="M 615 1072 L 458 1072" fill="none" stroke="#000000" stroke-miterlimit="10"/></g><g transform="translate(-102,10) scale(1,1)"><path d="M 468.16267485762415 1067.7904822439841 L 458 1072 L 468.16267485762415 1076.2095177560159" fill="#000000" stroke="none"/></g><g transform="translate(-102,10) scale(1,1)"><path d="M 468.16267485762415 1067.7904822439841 L 458 1072 L 468.16267485762415 1076.2095177560159 L 468.16267485762415 1067.7904822439841" fill="none" stroke="#000000" stroke-miterlimit="10"/></g><g transform="translate(-102,10) scale(1,1)"><path d="M 442 1107 L 462 1127" fill="none" stroke="#000000" stroke-miterlimit="10"/></g><g transform="translate(-102,10) scale(1,1)"><path d="M 462 1107 L 442 1127" fill="none" stroke="#000000" stroke-miterlimit="10"/></g><g transform="translate(-102,10) scale(1,1)"><g><path fill="none" stroke="none"/><text fill="#000000" font-family="Arial" font-size="13px" font-style="normal" font-weight="normal" stroke="none" text-decoration="none" x="522.5" y="1086.5">20 : </text></g></g><g transform="translate(-102,10) scale(1,1)"><g><path fill="none" stroke="none"/><text fill="#000000" font-family="Arial" font-size="13px" font-style="normal" font-weight="normal" stroke="none" text-decoration="none" x="506.5" y="1101.5">«destroy»</text></g></g><g transform="translate(-102,10) scale(1,1)"><rect fill="#ffffff" height="28" stroke="none" width="13" x="445" y="1072"/></g><g transform="translate(-102,10) scale(1,1)"><path d="M 445 1072 L 458 1072 L 458 1100 L 445 1100 L 445 1072 Z Z" fill="none" stroke="#000000" stroke-miterlimit="10"/></g><g transform="translate(-102,10) scale(1,1)"><path d="M 128 264 L 1367 264 L 1367 1007 L 128 1007 L 128 264" fill="none" stroke="#000000" stroke-miterlimit="10"/></g><g transform="translate(-102,10) scale(1,1)"><path d="M 128 264 L 128 286 L 168.578125 286 L 179.578125 275 L 179.578125 264 L 128 264" fill="#ffffff" stroke="none"/></g><g transform="translate(-102,10) scale(1,1)"><path d="M 128 264 L 128 286 L 168.578125 286 L 179.578125 275 L 179.578125 264 L 128 264 L 128 264" fill="none" stroke="#000000" stroke-miterlimit="10"/></g><g transform="translate(-102,10) scale(1,1)"><g><path fill="none" stroke="none"/><text fill="#000000" font-family="Arial" font-size="13px" font-style="normal" font-weight="bold" stroke="none" text-decoration="none" x="131.57177734375" y="279.5">loop</text></g></g><g transform="translate(-102,10) scale(1,1)"><g><path fill="none" stroke="none"/><text fill="#000000" font-family="Arial" font-size="13px" font-style="normal" font-weight="normal" stroke="none" text-decoration="none" x="147.5" y="312.5">[finchè non vengono inseriti dati validi]</text></g></g><g transform="translate(-102,10) scale(1,1)"><path d="M 200 480 L 640 480 L 640 640 L 200 640 L 200 480" fill="none" stroke="#000000" stroke-miterlimit="10"/></g><g transform="translate(-102,10) scale(1,1)"><path d="M 200 480 L 200 502 L 234.07177734375 502 L 245.07177734375 491 L 245.07177734375 480 L 200 480" fill="#ffffff" stroke="none"/></g><g transform="translate(-102,10) scale(1,1)"><path d="M 200 480 L 200 502 L 234.07177734375 502 L 245.07177734375 491 L 245.07177734375 480 L 200 480 L 200 480" fill="none" stroke="#000000" stroke-miterlimit="10"/></g><g transform="translate(-102,10) scale(1,1)"><g><path fill="none" stroke="none"/><text fill="#000000" font-family="Arial" font-size="13px" font-style="normal" font-weight="bold" stroke="none" text-decoration="none" x="203.930419921875" y="495.5">opt</text></g></g><g transform="translate(-102,10) scale(1,1)"><g><path fill="none" stroke="none"/><text fill="#000000" font-family="Arial" font-size="13px" font-style="normal" font-weight="normal" stroke="none" text-decoration="none" x="219.5" y="528.5">[farmaci non disponibili]</text></g></g><g transform="translate(-102,10) scale(1,1)"><path d="M 192 768 L 792 768 L 792 968 L 192 968 L 192 768" fill="none" stroke="#000000" stroke-miterlimit="10"/></g><g transform="translate(-102,10) scale(1,1)"><path d="M 192 768 L 192 790 L 226.07177734375 790 L 237.07177734375 779 L 237.07177734375 768 L 192 768" fill="#ffffff" stroke="none"/></g><g transform="translate(-102,10) scale(1,1)"><path d="M 192 768 L 192 790 L 226.07177734375 790 L 237.07177734375 779 L 237.07177734375 768 L 192 768 L 192 768" fill="none" stroke="#000000" stroke-miterlimit="10"/></g><g transform="translate(-102,10) scale(1,1)"><g><path fill="none" stroke="none"/><text fill="#000000" font-family="Arial" font-size="13px" font-style="normal" font-weight="bold" stroke="none" text-decoration="none" x="195.930419921875" y="783.5">opt</text></g></g><g transform="translate(-102,10) scale(1,1)"><g><path fill="none" stroke="none"/><text fill="#000000" font-family="Arial" font-size="13px" font-style="normal" font-weight="normal" stroke="none" text-decoration="none" x="211.5" y="816.5">[(in attesa disponibilità E nuova data&lt;data prima disponibilità) O (nuova data &lt; data corrente-2)]</text></g></g></g></svg>