<?xml version="1.0" encoding="UTF-8" standalone="no"?><svg xmlns="http://www.w3.org/2000/svg" xmlns:xlink="http://www.w3.org/1999/xlink" height="276" version="1.1" width="628"><defs/><g><g transform="translate(-302,-421) scale(1,1)"><path d="M 312 431 L 920 431 L 920 687 L 312 687 L 312 431" fill="none" stroke="#000000" stroke-miterlimit="10"/></g><g transform="translate(-302,-421) scale(1,1)"><path d="M 312 431 L 312 453 L 432.05078125 453 L 443.05078125 442 L 443.05078125 431 L 312 431" fill="#ffffff" stroke="none"/></g><g transform="translate(-302,-421) scale(1,1)"><path d="M 312 431 L 312 453 L 432.05078125 453 L 443.05078125 442 L 443.05078125 431 L 312 431 L 312 431" fill="none" stroke="#000000" stroke-miterlimit="10"/></g><g transform="translate(-302,-421) scale(1,1)"><g><path fill="none" stroke="none"/><text fill="#000000" font-family="Arial" font-size="13px" font-style="normal" font-weight="normal" stroke="none" text-decoration="none" x="336.72998046875" y="446.5">Gestione Ordini</text></g></g><g transform="translate(-302,-421) scale(1,1)"><g><path fill="none" stroke="none"/><text fill="#000000" font-family="Arial" font-size="13px" font-style="normal" font-weight="bold" stroke="none" text-decoration="none" x="316.279541015625" y="445.5">uc</text></g></g><g transform="translate(-302,-421) scale(1,1)"><rect fill="#C0C0C0" height="224" opacity="0.2" stroke="none" width="324" x="454" y="455"/></g><g transform="translate(-302,-421) scale(1,1)"><rect fill="#ffffff" height="224" stroke="none" width="324" x="447" y="448"/></g><g transform="translate(-302,-421) scale(1,1)"><path d="M 447 448 L 771 448 L 771 672 L 447 672 L 447 448 Z Z" fill="none" stroke="#000000" stroke-miterlimit="10"/></g><g transform="translate(-302,-421) scale(1,1)"><g><path fill="none" stroke="none"/><text fill="#000000" font-family="Arial" font-size="13px" font-style="normal" font-weight="bold" stroke="none" text-decoration="none" x="584.069580078125" y="465.5">Sistema</text></g></g><g transform="translate(-302,-421) scale(1,1)"><path d="M 365.31022922585225 529.6800000000001 C 365.31022922585225 524.8861679360001 369.19607155079774 521 373.989501953125 521 C 378.78293235545226 521 382.66877468039775 524.8861679360001 382.66877468039775 529.6800000000001 C 382.66877468039775 534.473832064 378.78293235545226 538.36 373.989501953125 538.36 C 369.19607155079774 538.36 365.31022922585225 534.473832064 365.31022922585225 529.6800000000001 Z" fill="#ffffff" stroke="none"/></g><g transform="translate(-302,-421) scale(1,1)"><path d="M 365.31022922585225 529.6800000000001 C 365.31022922585225 524.8861679360001 369.19607155079774 521 373.989501953125 521 C 378.78293235545226 521 382.66877468039775 524.8861679360001 382.66877468039775 529.6800000000001 C 382.66877468039775 534.473832064 378.78293235545226 538.36 373.989501953125 538.36 C 369.19607155079774 538.36 365.31022922585225 534.473832064 365.31022922585225 529.6800000000001 Z" fill="none" stroke="#000000" stroke-miterlimit="10"/></g><g transform="translate(-302,-421) scale(1,1)"><path d="M 373.989501953125 538.36 L 373.989501953125 555.64" fill="none" stroke="#000000" stroke-miterlimit="10"/></g><g transform="translate(-302,-421) scale(1,1)"><path d="M 364.79968377130683 544.84 L 383.17932013494317 544.84" fill="none" stroke="#000000" stroke-miterlimit="10"/></g><g transform="translate(-302,-421) scale(1,1)"><path d="M 373.989501953125 555.64 L 361.22586558948865 573" fill="none" stroke="#000000" stroke-miterlimit="10"/></g><g transform="translate(-302,-421) scale(1,1)"><path d="M 373.989501953125 555.64 L 386.75313831676135 573" fill="none" stroke="#000000" stroke-miterlimit="10"/></g><g transform="translate(-302,-421) scale(1,1)"><g><path fill="none" stroke="none"/><text fill="#000000" font-family="Arial" font-size="13px" font-style="normal" font-weight="bold" stroke="none" text-decoration="none" x="343.292236328125" y="591.5">Impiegato</text></g></g><g transform="translate(-302,-421) scale(1,1)"><path d="M 841.6857175071023 529.6800000000001 C 841.6857175071023 524.8861679360001 845.5715598320477 521 850.364990234375 521 C 855.1584206367023 521 859.0442629616477 524.8861679360001 859.0442629616477 529.6800000000001 C 859.0442629616477 534.473832064 855.1584206367023 538.36 850.364990234375 538.36 C 845.5715598320477 538.36 841.6857175071023 534.473832064 841.6857175071023 529.6800000000001 Z" fill="#ffffff" stroke="none"/></g><g transform="translate(-302,-421) scale(1,1)"><path d="M 841.6857175071023 529.6800000000001 C 841.6857175071023 524.8861679360001 845.5715598320477 521 850.364990234375 521 C 855.1584206367023 521 859.0442629616477 524.8861679360001 859.0442629616477 529.6800000000001 C 859.0442629616477 534.473832064 855.1584206367023 538.36 850.364990234375 538.36 C 845.5715598320477 538.36 841.6857175071023 534.473832064 841.6857175071023 529.6800000000001 Z" fill="none" stroke="#000000" stroke-miterlimit="10"/></g><g transform="translate(-302,-421) scale(1,1)"><path d="M 850.364990234375 538.36 L 850.364990234375 555.64" fill="none" stroke="#000000" stroke-miterlimit="10"/></g><g transform="translate(-302,-421) scale(1,1)"><path d="M 841.1751720525568 544.84 L 859.5548084161932 544.84" fill="none" stroke="#000000" stroke-miterlimit="10"/></g><g transform="translate(-302,-421) scale(1,1)"><path d="M 850.364990234375 555.64 L 837.6013538707386 573" fill="none" stroke="#000000" stroke-miterlimit="10"/></g><g transform="translate(-302,-421) scale(1,1)"><path d="M 850.364990234375 555.64 L 863.1286265980114 573" fill="none" stroke="#000000" stroke-miterlimit="10"/></g><g transform="translate(-302,-421) scale(1,1)"><g><path fill="none" stroke="none"/><text fill="#000000" font-family="Arial" font-size="13px" font-style="normal" font-weight="bold" stroke="none" text-decoration="none" x="804.5" y="591.5">DBMS Azienda</text></g></g><g transform="translate(-302,-421) scale(1,1)"><path d="M 530 624 C 530 614.6111584 568.7273648 607 616.5 607 C 664.2726352 607 703 614.6111584 703 624 C 703 633.3888416 664.2726352 641 616.5 641 C 568.7273648 641 530 633.3888416 530 624 Z" fill="#C0C0C0" opacity="0.2" stroke="none"/></g><g transform="translate(-302,-421) scale(1,1)"><path d="M 523 617 C 523 607.6111584 561.7273648 600 609.5 600 C 657.2726352 600 696 607.6111584 696 617 C 696 626.3888416 657.2726352 634 609.5 634 C 561.7273648 634 523 626.3888416 523 617 Z" fill="#ffffff" stroke="none"/></g><g transform="translate(-302,-421) scale(1,1)"><path d="M 523 617 C 523 607.6111584 561.7273648 600 609.5 600 C 657.2726352 600 696 607.6111584 696 617 C 696 626.3888416 657.2726352 634 609.5 634 C 561.7273648 634 523 626.3888416 523 617 Z" fill="none" stroke="#000000" stroke-miterlimit="10"/></g><g transform="translate(-302,-421) scale(1,1)"><g><path fill="none" stroke="none"/><text fill="#000000" font-family="Arial" font-size="13px" font-style="normal" font-weight="bold" stroke="none" text-decoration="none" x="552.79638671875" y="622">Correzione Ordine</text></g></g><g transform="translate(-302,-421) scale(1,1)"><path d="M 530 512 C 530 502.6111584 568.7273648 495 616.5 495 C 664.2726352 495 703 502.6111584 703 512 C 703 521.3888416 664.2726352 529 616.5 529 C 568.7273648 529 530 521.3888416 530 512 Z" fill="#C0C0C0" opacity="0.2" stroke="none"/></g><g transform="translate(-302,-421) scale(1,1)"><path d="M 523 505 C 523 495.6111584 561.7273648 488 609.5 488 C 657.2726352 488 696 495.6111584 696 505 C 696 514.3888416 657.2726352 522 609.5 522 C 561.7273648 522 523 514.3888416 523 505 Z" fill="#ffffff" stroke="none"/></g><g transform="translate(-302,-421) scale(1,1)"><path d="M 523 505 C 523 495.6111584 561.7273648 488 609.5 488 C 657.2726352 488 696 495.6111584 696 505 C 696 514.3888416 657.2726352 522 609.5 522 C 561.7273648 522 523 514.3888416 523 505 Z" fill="none" stroke="#000000" stroke-miterlimit="10"/></g><g transform="translate(-302,-421) scale(1,1)"><g><path fill="none" stroke="none"/><text fill="#000000" font-family="Arial" font-size="13px" font-style="normal" font-weight="bold" stroke="none" text-decoration="none" x="557.604736328125" y="510">Visualizza Ordini</text></g></g><g transform="translate(-302,-421) scale(1,1)"><path d="M 429 546 L 530 523" fill="none" stroke="#000000" stroke-miterlimit="10"/></g><g transform="translate(-302,-421) scale(1,1)"><path d="M 429 573 L 536 599" fill="none" stroke="#000000" stroke-miterlimit="10"/></g><g transform="translate(-302,-421) scale(1,1)"><path d="M 799 548 L 689 523" fill="none" stroke="#000000" stroke-miterlimit="10"/></g><g transform="translate(-302,-421) scale(1,1)"><path d="M 799 571 L 684 599" fill="none" stroke="#000000" stroke-miterlimit="10"/></g></g></svg>