<?xml version="1.0" encoding="UTF-8" standalone="no"?><svg xmlns="http://www.w3.org/2000/svg" xmlns:xlink="http://www.w3.org/1999/xlink" height="1190" version="1.1" width="1532"><defs/><g><g transform="translate(2,2) scale(1,1)"><path d="M 8 8 L 1520 8 L 1520 1144 L 8 1144 L 8 8" fill="none" stroke="#000000" stroke-miterlimit="10"/></g><g transform="translate(2,2) scale(1,1)"><path d="M 8 8 L 8 30 L 134.3095703125 30 L 145.3095703125 19 L 145.3095703125 8 L 8 8" fill="#ffffff" stroke="none"/></g><g transform="translate(2,2) scale(1,1)"><path d="M 8 8 L 8 30 L 134.3095703125 30 L 145.3095703125 19 L 145.3095703125 8 L 8 8 L 8 8" fill="none" stroke="#000000" stroke-miterlimit="10"/></g><g transform="translate(2,2) scale(1,1)"><g><path fill="none" stroke="none"/><text fill="#000000" font-family="Arial" font-size="13px" font-style="normal" font-weight="normal" stroke="none" text-decoration="none" x="32.72998046875" y="23.5">Visualizza Ordini</text></g></g><g transform="translate(2,2) scale(1,1)"><g><path fill="none" stroke="none"/><text fill="#000000" font-family="Arial" font-size="13px" font-style="normal" font-weight="bold" stroke="none" text-decoration="none" x="12.279541015625" y="23.5">sd</text></g></g><g transform="translate(2,2) scale(1,1)"><path d="M 78.7344833096591 47.3 C 78.7344833096591 43.82060576 81.61288503184092 41 85.16357421875 41 C 88.71426340565908 41 91.5926651278409 43.82060576 91.5926651278409 47.3 C 91.5926651278409 50.779394239999995 88.71426340565908 53.6 85.16357421875 53.6 C 81.61288503184092 53.6 78.7344833096591 50.779394239999995 78.7344833096591 47.3 Z" fill="#ffffff" stroke="none"/></g><g transform="translate(2,2) scale(1,1)"><path d="M 78.7344833096591 47.3 C 78.7344833096591 43.82060576 81.61288503184092 41 85.16357421875 41 C 88.71426340565908 41 91.5926651278409 43.82060576 91.5926651278409 47.3 C 91.5926651278409 50.779394239999995 88.71426340565908 53.6 85.16357421875 53.6 C 81.61288503184092 53.6 78.7344833096591 50.779394239999995 78.7344833096591 47.3 Z" fill="none" stroke="#000000" stroke-miterlimit="10"/></g><g transform="translate(2,2) scale(1,1)"><path d="M 85.16357421875 53.6 L 85.16357421875 66.4" fill="none" stroke="#000000" stroke-miterlimit="10"/></g><g transform="translate(2,2) scale(1,1)"><path d="M 78.35630149147727 58.4 L 91.97084694602273 58.4" fill="none" stroke="#000000" stroke-miterlimit="10"/></g><g transform="translate(2,2) scale(1,1)"><path d="M 85.16357421875 66.4 L 75.70902876420455 79" fill="none" stroke="#000000" stroke-miterlimit="10"/></g><g transform="translate(2,2) scale(1,1)"><path d="M 85.16357421875 66.4 L 94.61811967329545 79" fill="none" stroke="#000000" stroke-miterlimit="10"/></g><g transform="translate(2,2) scale(1,1)"><g><path fill="none" stroke="none"/><text fill="#000000" font-family="Arial" font-size="13px" font-style="normal" font-weight="bold" stroke="none" text-decoration="none" x="46.8681640625" y="97.5">: Farmacista</text></g></g><g transform="translate(2,2) scale(1,1)"><path d="M 86.5 105 L 86.5 154" fill="none" stroke="#000000" stroke-dasharray="3" stroke-miterlimit="10"/></g><g transform="translate(2,2) scale(1,1)"><rect fill="#C0C0C0" height="39" opacity="0.2" stroke="none" width="176.25048828125" x="415" y="131"/></g><g transform="translate(2,2) scale(1,1)"><rect fill="#ffffff" height="39" stroke="none" width="176.25048828125" x="408" y="124"/></g><g transform="translate(2,2) scale(1,1)"><path d="M 408 124 L 584.25048828125 124 L 584.25048828125 163 L 408 163 L 408 124 Z Z" fill="none" stroke="#000000" stroke-miterlimit="10"/></g><g transform="translate(2,2) scale(1,1)"><g><path fill="none" stroke="none"/><text fill="#000000" font-family="Arial" font-size="13px" font-style="normal" font-weight="normal" stroke="none" text-decoration="none" x="467.941650390625" y="139.5">«Control»</text></g></g><g transform="translate(2,2) scale(1,1)"><g><path fill="none" stroke="none"/><text fill="#000000" font-family="Arial" font-size="13px" font-style="normal" font-weight="bold" stroke="none" text-decoration="none" x="417.5" y="154.5">: GestoreVisualizzaOrdini</text></g></g><g transform="translate(2,2) scale(1,1)"><path d="M 497.5 164 L 497.5 1137" fill="none" stroke="#000000" stroke-dasharray="3" stroke-miterlimit="10"/></g><g transform="translate(2,2) scale(1,1)"><rect fill="#C0C0C0" height="39" opacity="0.2" stroke="none" width="192.1513671875" x="223" y="283"/></g><g transform="translate(2,2) scale(1,1)"><rect fill="#ffffff" height="39" stroke="none" width="192.1513671875" x="216" y="276"/></g><g transform="translate(2,2) scale(1,1)"><path d="M 216 276 L 408.1513671875 276 L 408.1513671875 315 L 216 315 L 216 276 Z Z" fill="none" stroke="#000000" stroke-miterlimit="10"/></g><g transform="translate(2,2) scale(1,1)"><g><path fill="none" stroke="none"/><text fill="#000000" font-family="Arial" font-size="13px" font-style="normal" font-weight="normal" stroke="none" text-decoration="none" x="277.020751953125" y="291.5">«Boundary»</text></g></g><g transform="translate(2,2) scale(1,1)"><g><path fill="none" stroke="none"/><text fill="#000000" font-family="Arial" font-size="13px" font-style="normal" font-weight="bold" stroke="none" text-decoration="none" x="225.5" y="306.5">: InterfacciaVisualizzaOrdini</text></g></g><g transform="translate(2,2) scale(1,1)"><path d="M 313.5 316 L 313.5 453" fill="none" stroke="#000000" stroke-dasharray="3" stroke-miterlimit="10"/></g><g transform="translate(2,2) scale(1,1)"><rect fill="#C0C0C0" height="39" opacity="0.2" stroke="none" width="150.47265625" x="919" y="47"/></g><g transform="translate(2,2) scale(1,1)"><rect fill="#ffffff" height="39" stroke="none" width="150.47265625" x="912" y="40"/></g><g transform="translate(2,2) scale(1,1)"><path d="M 912 40 L 1062.47265625 40 L 1062.47265625 79 L 912 79 L 912 40 Z Z" fill="none" stroke="#000000" stroke-miterlimit="10"/></g><g transform="translate(2,2) scale(1,1)"><g><path fill="none" stroke="none"/><text fill="#000000" font-family="Arial" font-size="13px" font-style="normal" font-weight="normal" stroke="none" text-decoration="none" x="952.181396484375" y="55.5">«Boundary»</text></g></g><g transform="translate(2,2) scale(1,1)"><g><path fill="none" stroke="none"/><text fill="#000000" font-family="Arial" font-size="13px" font-style="normal" font-weight="bold" stroke="none" text-decoration="none" x="921.5" y="70.5">: BoundaryDiSistema</text></g></g><g transform="translate(2,2) scale(1,1)"><path d="M 988.5 80 L 988.5 262" fill="none" stroke="#000000" stroke-dasharray="3" stroke-miterlimit="10"/></g><g transform="translate(2,2) scale(1,1)"><rect fill="#C0C0C0" height="39" opacity="0.2" stroke="none" width="138.9326171875" x="1087" y="47"/></g><g transform="translate(2,2) scale(1,1)"><rect fill="#ffffff" height="39" stroke="none" width="138.9326171875" x="1080" y="40"/></g><g transform="translate(2,2) scale(1,1)"><path d="M 1080 40 L 1218.9326171875 40 L 1218.9326171875 79 L 1080 79 L 1080 40 Z Z" fill="none" stroke="#000000" stroke-miterlimit="10"/></g><g transform="translate(2,2) scale(1,1)"><g><path fill="none" stroke="none"/><text fill="#000000" font-family="Arial" font-size="13px" font-style="normal" font-weight="normal" stroke="none" text-decoration="none" x="1121.28271484375" y="55.5">«Control»</text></g></g><g transform="translate(2,2) scale(1,1)"><g><path fill="none" stroke="none"/><text fill="#000000" font-family="Arial" font-size="13px" font-style="normal" font-weight="bold" stroke="none" text-decoration="none" x="1089.5" y="70.5">: GestoreDiSistema</text></g></g><g transform="translate(2,2) scale(1,1)"><path d="M 1150.5 80 L 1150.5 252" fill="none" stroke="#000000" stroke-dasharray="3" stroke-miterlimit="10"/></g><g transform="translate(2,2) scale(1,1)"><path d="M 834.274522372159 47.3 C 834.274522372159 43.82060576 837.152924094341 41 840.70361328125 41 C 844.254302468159 41 847.1327041903409 43.82060576 847.1327041903409 47.3 C 847.1327041903409 50.779394239999995 844.254302468159 53.6 840.70361328125 53.6 C 837.152924094341 53.6 834.274522372159 50.779394239999995 834.274522372159 47.3 Z" fill="#ffffff" stroke="none"/></g><g transform="translate(2,2) scale(1,1)"><path d="M 834.274522372159 47.3 C 834.274522372159 43.82060576 837.152924094341 41 840.70361328125 41 C 844.254302468159 41 847.1327041903409 43.82060576 847.1327041903409 47.3 C 847.1327041903409 50.779394239999995 844.254302468159 53.6 840.70361328125 53.6 C 837.152924094341 53.6 834.274522372159 50.779394239999995 834.274522372159 47.3 Z" fill="none" stroke="#000000" stroke-miterlimit="10"/></g><g transform="translate(2,2) scale(1,1)"><path d="M 840.70361328125 53.6 L 840.70361328125 66.4" fill="none" stroke="#000000" stroke-miterlimit="10"/></g><g transform="translate(2,2) scale(1,1)"><path d="M 833.8963405539772 58.4 L 847.5108860085227 58.4" fill="none" stroke="#000000" stroke-miterlimit="10"/></g><g transform="translate(2,2) scale(1,1)"><path d="M 840.70361328125 66.4 L 831.2490678267045 79" fill="none" stroke="#000000" stroke-miterlimit="10"/></g><g transform="translate(2,2) scale(1,1)"><path d="M 840.70361328125 66.4 L 850.1581587357954 79" fill="none" stroke="#000000" stroke-miterlimit="10"/></g><g transform="translate(2,2) scale(1,1)"><g><path fill="none" stroke="none"/><text fill="#000000" font-family="Arial" font-size="13px" font-style="normal" font-weight="bold" stroke="none" text-decoration="none" x="790.8681640625" y="97.5">: DBMS Azienda</text></g></g><g transform="translate(2,2) scale(1,1)"><path d="M 841.5 105 L 841.5 424" fill="none" stroke="#000000" stroke-dasharray="3" stroke-miterlimit="10"/></g><g transform="translate(2,2) scale(1,1)"><rect fill="#C0C0C0" height="39" opacity="0.2" stroke="none" width="108.5654296875" x="631" y="47"/></g><g transform="translate(2,2) scale(1,1)"><rect fill="#ffffff" height="39" stroke="none" width="108.5654296875" x="624" y="40"/></g><g transform="translate(2,2) scale(1,1)"><path d="M 624 40 L 732.5654296875 40 L 732.5654296875 79 L 624 79 L 624 40 Z Z" fill="none" stroke="#000000" stroke-miterlimit="10"/></g><g transform="translate(2,2) scale(1,1)"><g><path fill="none" stroke="none"/><text fill="#000000" font-family="Arial" font-size="13px" font-style="normal" font-weight="normal" stroke="none" text-decoration="none" x="643.227783203125" y="55.5">«Boundary»</text></g></g><g transform="translate(2,2) scale(1,1)"><g><path fill="none" stroke="none"/><text fill="#000000" font-family="Arial" font-size="13px" font-style="normal" font-weight="bold" stroke="none" text-decoration="none" x="633.5" y="70.5">DBMSDaemon</text></g></g><g transform="translate(2,2) scale(1,1)"><path d="M 679.5 80 L 679.5 415" fill="none" stroke="#000000" stroke-dasharray="3" stroke-miterlimit="10"/></g><g transform="translate(2,2) scale(1,1)"><rect fill="#C0C0C0" height="39" opacity="0.2" stroke="none" width="87.6181640625" x="319" y="395"/></g><g transform="translate(2,2) scale(1,1)"><rect fill="#ffffff" height="39" stroke="none" width="87.6181640625" x="312" y="388"/></g><g transform="translate(2,2) scale(1,1)"><path d="M 312 388 L 399.6181640625 388 L 399.6181640625 427 L 312 427 L 312 388 Z Z" fill="none" stroke="#000000" stroke-miterlimit="10"/></g><g transform="translate(2,2) scale(1,1)"><g><path fill="none" stroke="none"/><text fill="#000000" font-family="Arial" font-size="13px" font-style="normal" font-weight="bold" stroke="none" text-decoration="none" x="321.5" y="405.5">ListaOrdini</text></g></g><g transform="translate(2,2) scale(1,1)"><path d="M 356.5 428 L 356.5 738" fill="none" stroke="#000000" stroke-dasharray="3" stroke-miterlimit="10"/></g><g transform="translate(2,2) scale(1,1)"><rect fill="#C0C0C0" height="39" opacity="0.2" stroke="none" width="71.736328125" x="127" y="243"/></g><g transform="translate(2,2) scale(1,1)"><rect fill="#ffffff" height="39" stroke="none" width="71.736328125" x="120" y="236"/></g><g transform="translate(2,2) scale(1,1)"><path d="M 120 236 L 191.736328125 236 L 191.736328125 275 L 120 275 L 120 236 Z Z" fill="none" stroke="#000000" stroke-miterlimit="10"/></g><g transform="translate(2,2) scale(1,1)"><g><path fill="none" stroke="none"/><text fill="#000000" font-family="Arial" font-size="13px" font-style="normal" font-weight="bold" stroke="none" text-decoration="none" x="141.779541015625" y="253.5">Data</text></g></g><g transform="translate(2,2) scale(1,1)"><path d="M 156.5 276 L 156.5 467" fill="none" stroke="#000000" stroke-dasharray="3" stroke-miterlimit="10"/></g><g transform="translate(2,2) scale(1,1)"><rect fill="#C0C0C0" height="39" opacity="0.2" stroke="none" width="255.17724609375" x="215" y="843"/></g><g transform="translate(2,2) scale(1,1)"><rect fill="#ffffff" height="39" stroke="none" width="255.17724609375" x="208" y="836"/></g><g transform="translate(2,2) scale(1,1)"><path d="M 208 836 L 463.17724609375 836 L 463.17724609375 875 L 208 875 L 208 836 Z Z" fill="none" stroke="#000000" stroke-miterlimit="10"/></g><g transform="translate(2,2) scale(1,1)"><g><path fill="none" stroke="none"/><text fill="#000000" font-family="Arial" font-size="13px" font-style="normal" font-weight="normal" stroke="none" text-decoration="none" x="300.53369140625" y="851.5">«Boundary»</text></g></g><g transform="translate(2,2) scale(1,1)"><g><path fill="none" stroke="none"/><text fill="#000000" font-family="Arial" font-size="13px" font-style="normal" font-weight="bold" stroke="none" text-decoration="none" x="217.5" y="866.5">: BottoneCaricoMerci[id: codice_lotto]</text></g></g><g transform="translate(2,2) scale(1,1)"><path d="M 336.5 876 L 336.5 925" fill="none" stroke="#000000" stroke-dasharray="3" stroke-miterlimit="10"/></g><g transform="translate(2,2) scale(1,1)"><rect fill="#C0C0C0" height="39" opacity="0.2" stroke="none" width="170.658203125" x="239" y="1019"/></g><g transform="translate(2,2) scale(1,1)"><rect fill="#ffffff" height="39" stroke="none" width="170.658203125" x="232" y="1012"/></g><g transform="translate(2,2) scale(1,1)"><path d="M 232 1012 L 402.658203125 1012 L 402.658203125 1051 L 232 1051 L 232 1012 Z Z" fill="none" stroke="#000000" stroke-miterlimit="10"/></g><g transform="translate(2,2) scale(1,1)"><g><path fill="none" stroke="none"/><text fill="#000000" font-family="Arial" font-size="13px" font-style="normal" font-weight="normal" stroke="none" text-decoration="none" x="282.274169921875" y="1027.5">«Boundary»</text></g></g><g transform="translate(2,2) scale(1,1)"><g><path fill="none" stroke="none"/><text fill="#000000" font-family="Arial" font-size="13px" font-style="normal" font-weight="bold" stroke="none" text-decoration="none" x="241.5" y="1042.5">: BottoneModificaOrdine</text></g></g><g transform="translate(2,2) scale(1,1)"><path d="M 318.5 1052 L 318.5 1178" fill="none" stroke="#000000" stroke-dasharray="3" stroke-miterlimit="10"/></g><g transform="translate(2,2) scale(1,1)"><rect fill="#C0C0C0" height="39" opacity="0.2" stroke="none" width="91.00146484375" x="279" y="651"/></g><g transform="translate(2,2) scale(1,1)"><rect fill="#ffffff" height="39" stroke="none" width="91.00146484375" x="272" y="644"/></g><g transform="translate(2,2) scale(1,1)"><path d="M 272 644 L 363.00146484375 644 L 363.00146484375 683 L 272 683 L 272 644 Z Z" fill="none" stroke="#000000" stroke-miterlimit="10"/></g><g transform="translate(2,2) scale(1,1)"><g><path fill="none" stroke="none"/><text fill="#000000" font-family="Arial" font-size="13px" font-style="normal" font-weight="normal" stroke="none" text-decoration="none" x="282.44580078125" y="659.5">«Boundary»</text></g></g><g transform="translate(2,2) scale(1,1)"><g><path fill="none" stroke="none"/><text fill="#000000" font-family="Arial" font-size="13px" font-style="normal" font-weight="bold" stroke="none" text-decoration="none" x="281.5" y="674.5">VoceOrdine</text></g></g><g transform="translate(2,2) scale(1,1)"><path d="M 318.5 684 L 318.5 760" fill="none" stroke="#000000" stroke-dasharray="3" stroke-miterlimit="10"/></g><g transform="translate(2,2) scale(1,1)"><path d="M 688 584 L 779.8271484375 584 L 789.8271484375 594 L 789.8271484375 672 L 688 672 L 688 584" fill="#ffffff" stroke="none"/></g><g transform="translate(2,2) scale(1,1)"><path d="M 688 584 L 779.8271484375 584 L 789.8271484375 594 L 789.8271484375 672 L 688 672 L 688 584 L 688 584" fill="none" stroke="#000000" stroke-miterlimit="10"/></g><g transform="translate(2,2) scale(1,1)"><path d="M 779.8271484375 584 L 779.8271484375 594 L 789.8271484375 594 L 779.8271484375 584" fill="none" stroke="#000000" stroke-miterlimit="10"/></g><g transform="translate(2,2) scale(1,1)"><g><path fill="none" stroke="none"/><text fill="#000000" font-family="Arial" font-size="13px" font-style="normal" font-weight="normal" stroke="none" text-decoration="none" x="693" y="598">Probabilmente</text><text fill="#000000" font-family="Arial" font-size="13px" font-style="normal" font-weight="normal" stroke="none" text-decoration="none" x="693" y="611">dobbiamo</text><text fill="#000000" font-family="Arial" font-size="13px" font-style="normal" font-weight="normal" stroke="none" text-decoration="none" x="693" y="624">aggiungere una</text><text fill="#000000" font-family="Arial" font-size="13px" font-style="normal" font-weight="normal" stroke="none" text-decoration="none" x="693" y="637">entity Ordine</text></g></g><g transform="translate(2,2) scale(1,1)"><rect fill="#C0C0C0" height="39" opacity="0.2" stroke="none" width="222.4423828125" x="151" y="47"/></g><g transform="translate(2,2) scale(1,1)"><rect fill="#ffffff" height="39" stroke="none" width="222.4423828125" x="144" y="40"/></g><g transform="translate(2,2) scale(1,1)"><path d="M 144 40 L 366.4423828125 40 L 366.4423828125 79 L 144 79 L 144 40 Z Z" fill="none" stroke="#000000" stroke-miterlimit="10"/></g><g transform="translate(2,2) scale(1,1)"><g><path fill="none" stroke="none"/><text fill="#000000" font-family="Arial" font-size="13px" font-style="normal" font-weight="normal" stroke="none" text-decoration="none" x="220.166259765625" y="55.5">«Boundary»</text></g></g><g transform="translate(2,2) scale(1,1)"><g><path fill="none" stroke="none"/><text fill="#000000" font-family="Arial" font-size="13px" font-style="normal" font-weight="bold" stroke="none" text-decoration="none" x="176.61181640625" y="70.5">: BottoneVisualizzaOrdini</text></g></g><g transform="translate(2,2) scale(1,1)"><path d="M 256.5 80 L 256.5 239" fill="none" stroke="#000000" stroke-dasharray="3" stroke-miterlimit="10"/></g><g transform="translate(2,2) scale(1,1)"><path d="M 86 128 L 249 128" fill="none" stroke="#000000" stroke-miterlimit="10"/></g><g transform="translate(2,2) scale(1,1)"><path d="M 238.83732514237585 132.209517756016 L 249 128 L 238.83732514237585 123.79048224398402" fill="#000000" stroke="none"/></g><g transform="translate(2,2) scale(1,1)"><path d="M 238.83732514237585 132.209517756016 L 249 128 L 238.83732514237585 123.79048224398402 L 238.83732514237585 132.209517756016" fill="none" stroke="#000000" stroke-miterlimit="10"/></g><g transform="translate(2,2) scale(1,1)"><g><path fill="none" stroke="none"/><text fill="#000000" font-family="Arial" font-size="13px" font-style="normal" font-weight="normal" stroke="none" text-decoration="none" x="141.236328125" y="122.5">1 : clicca</text></g></g><g transform="translate(2,2) scale(1,1)"><rect fill="#ffffff" height="28" stroke="none" width="13" x="249" y="128"/></g><g transform="translate(2,2) scale(1,1)"><path d="M 249 128 L 262 128 L 262 156 L 249 156 L 249 128 Z Z" fill="none" stroke="#000000" stroke-miterlimit="10"/></g><g transform="translate(2,2) scale(1,1)"><path d="M 262 144 L 408 144" fill="none" stroke="#000000" stroke-dasharray="3" stroke-miterlimit="10"/></g><g transform="translate(2,2) scale(1,1)"><path d="M 397.83732514237585 148.209517756016 L 408 144 L 397.83732514237585 139.790482243984" fill="none" stroke="#000000" stroke-miterlimit="10"/></g><g transform="translate(2,2) scale(1,1)"><g><path fill="none" stroke="none"/><text fill="#000000" font-family="Arial" font-size="13px" font-style="normal" font-weight="normal" stroke="none" text-decoration="none" x="326.114990234375" y="138.5">2 : </text></g></g><g transform="translate(2,2) scale(1,1)"><g><path fill="none" stroke="none"/><text fill="#000000" font-family="Arial" font-size="13px" font-style="normal" font-weight="normal" stroke="none" text-decoration="none" x="309.5" y="123.5">«create»</text></g></g><g transform="translate(2,2) scale(1,1)"><path d="M 497 172 L 981 172" fill="none" stroke="#000000" stroke-miterlimit="10"/></g><g transform="translate(2,2) scale(1,1)"><path d="M 970.8373251423759 176.209517756016 L 981 172 L 970.8373251423758 167.790482243984" fill="#000000" stroke="none"/></g><g transform="translate(2,2) scale(1,1)"><path d="M 970.8373251423759 176.209517756016 L 981 172 L 970.8373251423758 167.790482243984 L 970.8373251423759 176.209517756016" fill="none" stroke="#000000" stroke-miterlimit="10"/></g><g transform="translate(2,2) scale(1,1)"><g><path fill="none" stroke="none"/><text fill="#000000" font-family="Arial" font-size="13px" font-style="normal" font-weight="normal" stroke="none" text-decoration="none" x="699.5" y="166.5">3 : chiediData</text></g></g><g transform="translate(2,2) scale(1,1)"><rect fill="#ffffff" height="28" stroke="none" width="13" x="981" y="172"/></g><g transform="translate(2,2) scale(1,1)"><path d="M 981 172 L 994 172 L 994 200 L 981 200 L 981 172 Z Z" fill="none" stroke="#000000" stroke-miterlimit="10"/></g><g transform="translate(2,2) scale(1,1)"><path d="M 994 192 L 1143 192" fill="none" stroke="#000000" stroke-miterlimit="10"/></g><g transform="translate(2,2) scale(1,1)"><path d="M 1132.837325142376 196.209517756016 L 1143 192 L 1132.837325142376 187.790482243984" fill="#000000" stroke="none"/></g><g transform="translate(2,2) scale(1,1)"><path d="M 1132.837325142376 196.209517756016 L 1143 192 L 1132.837325142376 187.790482243984 L 1132.837325142376 196.209517756016" fill="none" stroke="#000000" stroke-miterlimit="10"/></g><g transform="translate(2,2) scale(1,1)"><g><path fill="none" stroke="none"/><text fill="#000000" font-family="Arial" font-size="13px" font-style="normal" font-weight="normal" stroke="none" text-decoration="none" x="1028.5" y="186.5">4 : chiediData</text></g></g><g transform="translate(2,2) scale(1,1)"><rect fill="#ffffff" height="28" stroke="none" width="13" x="1143" y="192"/></g><g transform="translate(2,2) scale(1,1)"><path d="M 1143 192 L 1156 192 L 1156 220 L 1143 220 L 1143 192 Z Z" fill="none" stroke="#000000" stroke-miterlimit="10"/></g><g transform="translate(2,2) scale(1,1)"><path d="M 1150 222 L 988 222" fill="none" stroke="#000000" stroke-dasharray="3" stroke-miterlimit="10"/></g><g transform="translate(2,2) scale(1,1)"><path d="M 998.1626748576241 217.790482243984 L 988 222 L 998.1626748576241 226.209517756016" fill="none" stroke="#000000" stroke-miterlimit="10"/></g><g transform="translate(2,2) scale(1,1)"><g><path fill="none" stroke="none"/><text fill="#000000" font-family="Arial" font-size="13px" font-style="normal" font-weight="normal" stroke="none" text-decoration="none" x="1046.5" y="236.5">5 : data</text></g></g><g transform="translate(2,2) scale(1,1)"><path d="M 988 232 L 497 232" fill="none" stroke="#000000" stroke-dasharray="3" stroke-miterlimit="10"/></g><g transform="translate(2,2) scale(1,1)"><path d="M 507.16267485762415 227.790482243984 L 497 232 L 507.16267485762415 236.209517756016" fill="none" stroke="#000000" stroke-miterlimit="10"/></g><g transform="translate(2,2) scale(1,1)"><g><path fill="none" stroke="none"/><text fill="#000000" font-family="Arial" font-size="13px" font-style="normal" font-weight="normal" stroke="none" text-decoration="none" x="719.5" y="246.5">6 : data</text></g></g><g transform="translate(2,2) scale(1,1)"><path d="M 497 256 L 191.736328125 256" fill="none" stroke="#000000" stroke-dasharray="3" stroke-miterlimit="10"/></g><g transform="translate(2,2) scale(1,1)"><path d="M 201.89900298262415 251.790482243984 L 191.736328125 256 L 201.89900298262415 260.209517756016" fill="none" stroke="#000000" stroke-miterlimit="10"/></g><g transform="translate(2,2) scale(1,1)"><g><path fill="none" stroke="none"/><text fill="#000000" font-family="Arial" font-size="13px" font-style="normal" font-weight="normal" stroke="none" text-decoration="none" x="331.5" y="233.5">7 : </text></g></g><g transform="translate(2,2) scale(1,1)"><g><path fill="none" stroke="none"/><text fill="#000000" font-family="Arial" font-size="13px" font-style="normal" font-weight="normal" stroke="none" text-decoration="none" x="316.5" y="249.5">«create»</text></g></g><g transform="translate(2,2) scale(1,1)"><path d="M 497 296 L 408.1513671875 296" fill="none" stroke="#000000" stroke-dasharray="3" stroke-miterlimit="10"/></g><g transform="translate(2,2) scale(1,1)"><path d="M 418.31404204512415 291.790482243984 L 408.1513671875 296 L 418.31404204512415 300.209517756016" fill="none" stroke="#000000" stroke-miterlimit="10"/></g><g transform="translate(2,2) scale(1,1)"><g><path fill="none" stroke="none"/><text fill="#000000" font-family="Arial" font-size="13px" font-style="normal" font-weight="normal" stroke="none" text-decoration="none" x="442.114990234375" y="310.5">8 : </text></g></g><g transform="translate(2,2) scale(1,1)"><g><path fill="none" stroke="none"/><text fill="#000000" font-family="Arial" font-size="13px" font-style="normal" font-weight="normal" stroke="none" text-decoration="none" x="425.5" y="325.5">«create»</text></g></g><g transform="translate(2,2) scale(1,1)"><path d="M 497 312 L 672 312" fill="none" stroke="#000000" stroke-miterlimit="10"/></g><g transform="translate(2,2) scale(1,1)"><path d="M 661.8373251423759 316.209517756016 L 672 312 L 661.8373251423758 307.790482243984" fill="#000000" stroke="none"/></g><g transform="translate(2,2) scale(1,1)"><path d="M 661.8373251423759 316.209517756016 L 672 312 L 661.8373251423758 307.790482243984 L 661.8373251423759 316.209517756016" fill="none" stroke="#000000" stroke-miterlimit="10"/></g><g transform="translate(2,2) scale(1,1)"><g><path fill="none" stroke="none"/><text fill="#000000" font-family="Arial" font-size="13px" font-style="normal" font-weight="normal" stroke="none" text-decoration="none" x="541.114990234375" y="306.5">9 : chiediOrdini</text></g></g><g transform="translate(2,2) scale(1,1)"><rect fill="#ffffff" height="80" stroke="none" width="13" x="672" y="312"/></g><g transform="translate(2,2) scale(1,1)"><path d="M 672 312 L 685 312 L 685 392 L 672 392 L 672 312 Z Z" fill="none" stroke="#000000" stroke-miterlimit="10"/></g><g transform="translate(2,2) scale(1,1)"><path d="M 685 336 L 834 336" fill="none" stroke="#000000" stroke-miterlimit="10"/></g><g transform="translate(2,2) scale(1,1)"><path d="M 823.8373251423759 340.209517756016 L 834 336 L 823.8373251423758 331.790482243984" fill="#000000" stroke="none"/></g><g transform="translate(2,2) scale(1,1)"><path d="M 823.8373251423759 340.209517756016 L 834 336 L 823.8373251423758 331.790482243984 L 823.8373251423759 340.209517756016" fill="none" stroke="#000000" stroke-miterlimit="10"/></g><g transform="translate(2,2) scale(1,1)"><g><path fill="none" stroke="none"/><text fill="#000000" font-family="Arial" font-size="13px" font-style="normal" font-weight="normal" stroke="none" text-decoration="none" x="712.5" y="330.5">10 : queryOrdini</text></g></g><g transform="translate(2,2) scale(1,1)"><rect fill="#ffffff" height="56" stroke="none" width="13" x="834" y="336"/></g><g transform="translate(2,2) scale(1,1)"><path d="M 834 336 L 847 336 L 847 392 L 834 392 L 834 336 Z Z" fill="none" stroke="#000000" stroke-miterlimit="10"/></g><g transform="translate(2,2) scale(1,1)"><path d="M 834 376 L 685 376" fill="none" stroke="#000000" stroke-dasharray="3" stroke-miterlimit="10"/></g><g transform="translate(2,2) scale(1,1)"><path d="M 695.1626748576241 371.790482243984 L 685 376 L 695.1626748576241 380.209517756016" fill="none" stroke="#000000" stroke-miterlimit="10"/></g><g transform="translate(2,2) scale(1,1)"><g><path fill="none" stroke="none"/><text fill="#000000" font-family="Arial" font-size="13px" font-style="normal" font-weight="normal" stroke="none" text-decoration="none" x="729.982421875" y="390.5">11 : ordini</text></g></g><g transform="translate(2,2) scale(1,1)"><path d="M 672 384 L 497 384" fill="none" stroke="#000000" stroke-dasharray="3" stroke-miterlimit="10"/></g><g transform="translate(2,2) scale(1,1)"><path d="M 507.16267485762415 379.790482243984 L 497 384 L 507.16267485762415 388.209517756016" fill="none" stroke="#000000" stroke-miterlimit="10"/></g><g transform="translate(2,2) scale(1,1)"><g><path fill="none" stroke="none"/><text fill="#000000" font-family="Arial" font-size="13px" font-style="normal" font-weight="normal" stroke="none" text-decoration="none" x="554.5" y="398.5">12 : ordini</text></g></g><g transform="translate(2,2) scale(1,1)"><path d="M 497 408 L 399.6181640625 408" fill="none" stroke="#000000" stroke-dasharray="3" stroke-miterlimit="10"/></g><g transform="translate(2,2) scale(1,1)"><path d="M 409.78083892012415 403.790482243984 L 399.6181640625 408 L 409.78083892012415 412.209517756016" fill="none" stroke="#000000" stroke-miterlimit="10"/></g><g transform="translate(2,2) scale(1,1)"><g><path fill="none" stroke="none"/><text fill="#000000" font-family="Arial" font-size="13px" font-style="normal" font-weight="normal" stroke="none" text-decoration="none" x="434.5" y="422.5">13 : </text></g></g><g transform="translate(2,2) scale(1,1)"><g><path fill="none" stroke="none"/><text fill="#000000" font-family="Arial" font-size="13px" font-style="normal" font-weight="normal" stroke="none" text-decoration="none" x="421.5" y="437.5">«create»</text></g></g><g transform="translate(2,2) scale(1,1)"><path d="M 497 584 L 362 584" fill="none" stroke="#000000" stroke-miterlimit="10"/></g><g transform="translate(2,2) scale(1,1)"><path d="M 372.16267485762415 579.790482243984 L 362 584 L 372.16267485762415 588.209517756016" fill="#000000" stroke="none"/></g><g transform="translate(2,2) scale(1,1)"><path d="M 372.16267485762415 579.790482243984 L 362 584 L 372.16267485762415 588.209517756016 L 372.16267485762415 579.790482243984" fill="none" stroke="#000000" stroke-miterlimit="10"/></g><g transform="translate(2,2) scale(1,1)"><g><path fill="none" stroke="none"/><text fill="#000000" font-family="Arial" font-size="13px" font-style="normal" font-weight="normal" stroke="none" text-decoration="none" x="375.5" y="598.5">14 : getDatiOrdine</text></g></g><g transform="translate(2,2) scale(1,1)"><rect fill="#ffffff" height="28" stroke="none" width="13" x="349" y="584"/></g><g transform="translate(2,2) scale(1,1)"><path d="M 349 584 L 362 584 L 362 612 L 349 612 L 349 584 Z Z" fill="none" stroke="#000000" stroke-miterlimit="10"/></g><g transform="translate(2,2) scale(1,1)"><path d="M 497 664 L 363.00146484375 664" fill="none" stroke="#000000" stroke-dasharray="3" stroke-miterlimit="10"/></g><g transform="translate(2,2) scale(1,1)"><path d="M 373.16413970137415 659.790482243984 L 363.00146484375 664 L 373.16413970137415 668.209517756016" fill="none" stroke="#000000" stroke-miterlimit="10"/></g><g transform="translate(2,2) scale(1,1)"><g><path fill="none" stroke="none"/><text fill="#000000" font-family="Arial" font-size="13px" font-style="normal" font-weight="normal" stroke="none" text-decoration="none" x="416.5" y="678.5">15 : </text></g></g><g transform="translate(2,2) scale(1,1)"><g><path fill="none" stroke="none"/><text fill="#000000" font-family="Arial" font-size="13px" font-style="normal" font-weight="normal" stroke="none" text-decoration="none" x="403.5" y="693.5">«create»</text></g></g><g transform="translate(2,2) scale(1,1)"><path d="M 497 856 L 463.17724609375 856" fill="none" stroke="#000000" stroke-dasharray="3" stroke-miterlimit="10"/></g><g transform="translate(2,2) scale(1,1)"><path d="M 473.33992095137415 851.790482243984 L 463.17724609375 856 L 473.33992095137415 860.209517756016" fill="none" stroke="#000000" stroke-miterlimit="10"/></g><g transform="translate(2,2) scale(1,1)"><g><path fill="none" stroke="none"/><text fill="#000000" font-family="Arial" font-size="13px" font-style="normal" font-weight="normal" stroke="none" text-decoration="none" x="466.5" y="870.5">16 : </text></g></g><g transform="translate(2,2) scale(1,1)"><g><path fill="none" stroke="none"/><text fill="#000000" font-family="Arial" font-size="13px" font-style="normal" font-weight="normal" stroke="none" text-decoration="none" x="453.5" y="885.5">«create»</text></g></g><g transform="translate(2,2) scale(1,1)"><path d="M 497 1032 L 402.658203125 1032" fill="none" stroke="#000000" stroke-dasharray="3" stroke-miterlimit="10"/></g><g transform="translate(2,2) scale(1,1)"><path d="M 412.82087798262415 1027.7904822439841 L 402.658203125 1032 L 412.82087798262415 1036.2095177560159" fill="none" stroke="#000000" stroke-miterlimit="10"/></g><g transform="translate(2,2) scale(1,1)"><g><path fill="none" stroke="none"/><text fill="#000000" font-family="Arial" font-size="13px" font-style="normal" font-weight="normal" stroke="none" text-decoration="none" x="435.5" y="1046.5">17 : </text></g></g><g transform="translate(2,2) scale(1,1)"><g><path fill="none" stroke="none"/><text fill="#000000" font-family="Arial" font-size="13px" font-style="normal" font-weight="normal" stroke="none" text-decoration="none" x="422.5" y="1061.5">«create»</text></g></g><g transform="translate(2,2) scale(1,1)"><path d="M 32 528 L 1480 528 L 1480 1128 L 32 1128 L 32 528" fill="none" stroke="#000000" stroke-miterlimit="10"/></g><g transform="translate(2,2) scale(1,1)"><path d="M 32 528 L 32 550 L 159.287109375 550 L 170.287109375 539 L 170.287109375 528 L 32 528" fill="#ffffff" stroke="none"/></g><g transform="translate(2,2) scale(1,1)"><path d="M 32 528 L 32 550 L 159.287109375 550 L 170.287109375 539 L 170.287109375 528 L 32 528 L 32 528" fill="none" stroke="#000000" stroke-miterlimit="10"/></g><g transform="translate(2,2) scale(1,1)"><g><path fill="none" stroke="none"/><text fill="#000000" font-family="Arial" font-size="13px" font-style="normal" font-weight="normal" stroke="none" text-decoration="none" x="67.578125" y="543.5">PerOgniOrdine</text></g></g><g transform="translate(2,2) scale(1,1)"><g><path fill="none" stroke="none"/><text fill="#000000" font-family="Arial" font-size="13px" font-style="normal" font-weight="bold" stroke="none" text-decoration="none" x="35.57177734375" y="543.5">loop</text></g></g><g transform="translate(2,2) scale(1,1)"><g><path fill="none" stroke="none"/><text fill="#000000" font-family="Arial" font-size="13px" font-style="normal" font-weight="normal" stroke="none" text-decoration="none" x="51.5" y="576.5">[per ogni ordine]</text></g></g><g transform="translate(2,2) scale(1,1)"><path d="M 48 776 L 1071 776 L 1071 920 L 48 920 L 48 776" fill="none" stroke="#000000" stroke-miterlimit="10"/></g><g transform="translate(2,2) scale(1,1)"><path d="M 48 776 L 48 798 L 82.07177734375 798 L 93.07177734375 787 L 93.07177734375 776 L 48 776" fill="#ffffff" stroke="none"/></g><g transform="translate(2,2) scale(1,1)"><path d="M 48 776 L 48 798 L 82.07177734375 798 L 93.07177734375 787 L 93.07177734375 776 L 48 776 L 48 776" fill="none" stroke="#000000" stroke-miterlimit="10"/></g><g transform="translate(2,2) scale(1,1)"><g><path fill="none" stroke="none"/><text fill="#000000" font-family="Arial" font-size="13px" font-style="normal" font-weight="bold" stroke="none" text-decoration="none" x="51.930419921875" y="791.5">opt</text></g></g><g transform="translate(2,2) scale(1,1)"><g><path fill="none" stroke="none"/><text fill="#000000" font-family="Arial" font-size="13px" font-style="normal" font-weight="normal" stroke="none" text-decoration="none" x="67.5" y="824.5">[Data di consegna==Data]</text></g></g><g transform="translate(2,2) scale(1,1)"><path d="M 48 928 L 1072 928 L 1072 1120 L 48 1120 L 48 928" fill="none" stroke="#000000" stroke-miterlimit="10"/></g><g transform="translate(2,2) scale(1,1)"><path d="M 48 928 L 48 950 L 82.07177734375 950 L 93.07177734375 939 L 93.07177734375 928 L 48 928" fill="#ffffff" stroke="none"/></g><g transform="translate(2,2) scale(1,1)"><path d="M 48 928 L 48 950 L 82.07177734375 950 L 93.07177734375 939 L 93.07177734375 928 L 48 928 L 48 928" fill="none" stroke="#000000" stroke-miterlimit="10"/></g><g transform="translate(2,2) scale(1,1)"><g><path fill="none" stroke="none"/><text fill="#000000" font-family="Arial" font-size="13px" font-style="normal" font-weight="bold" stroke="none" text-decoration="none" x="51.930419921875" y="943.5">opt</text></g></g><g transform="translate(2,2) scale(1,1)"><g><path fill="none" stroke="none"/><text fill="#000000" font-family="Arial" font-size="13px" font-style="normal" font-weight="normal" stroke="none" text-decoration="none" x="67.5" y="976.5">[Intercorrono almeno 2 giorni tra la data di consegna e la data di oggi]</text></g></g></g></svg>