<?xml version="1.0" encoding="UTF-8" standalone="no"?><svg xmlns="http://www.w3.org/2000/svg" xmlns:xlink="http://www.w3.org/1999/xlink" height="820" version="1.1" width="1212"><defs/><g><g transform="translate(-46,-70) scale(1,1)"><path d="M 56 80 L 1248 80 L 1248 880 L 56 880 L 56 80" fill="none" stroke="#000000" stroke-miterlimit="10"/></g><g transform="translate(-46,-70) scale(1,1)"><path d="M 56 80 L 56 102 L 188.32080078125 102 L 199.32080078125 91 L 199.32080078125 80 L 56 80" fill="#ffffff" stroke="none"/></g><g transform="translate(-46,-70) scale(1,1)"><path d="M 56 80 L 56 102 L 188.32080078125 102 L 199.32080078125 91 L 199.32080078125 80 L 56 80 L 56 80" fill="none" stroke="#000000" stroke-miterlimit="10"/></g><g transform="translate(-46,-70) scale(1,1)"><g><path fill="none" stroke="none"/><text fill="#000000" font-family="Arial" font-size="13px" font-style="normal" font-weight="normal" stroke="none" text-decoration="none" x="80.72998046875" y="95.5">Gestione Farmaci</text></g></g><g transform="translate(-46,-70) scale(1,1)"><g><path fill="none" stroke="none"/><text fill="#000000" font-family="Arial" font-size="13px" font-style="normal" font-weight="bold" stroke="none" text-decoration="none" x="60.279541015625" y="94.5">uc</text></g></g><g transform="translate(-46,-70) scale(1,1)"><rect fill="#C0C0C0" height="760" opacity="0.2" stroke="none" width="624" x="391" y="111"/></g><g transform="translate(-46,-70) scale(1,1)"><rect fill="#ffffff" height="760" stroke="none" width="624" x="384" y="104"/></g><g transform="translate(-46,-70) scale(1,1)"><path d="M 384 104 L 1008 104 L 1008 864 L 384 864 L 384 104 Z Z" fill="none" stroke="#000000" stroke-miterlimit="10"/></g><g transform="translate(-46,-70) scale(1,1)"><g><path fill="none" stroke="none"/><text fill="#000000" font-family="Arial" font-size="13px" font-style="normal" font-weight="bold" stroke="none" text-decoration="none" x="671.069580078125" y="121.5">Sistema</text></g></g><g transform="translate(-46,-70) scale(1,1)"><path d="M 166.14567844460228 449.68 C 166.14567844460228 444.886167936 170.03152076954774 441 174.824951171875 441 C 179.61838157420226 441 183.50422389914772 444.886167936 183.50422389914772 449.68 C 183.50422389914772 454.473832064 179.61838157420226 458.36 174.824951171875 458.36 C 170.03152076954774 458.36 166.14567844460228 454.473832064 166.14567844460228 449.68 Z" fill="#ffffff" stroke="none"/></g><g transform="translate(-46,-70) scale(1,1)"><path d="M 166.14567844460228 449.68 C 166.14567844460228 444.886167936 170.03152076954774 441 174.824951171875 441 C 179.61838157420226 441 183.50422389914772 444.886167936 183.50422389914772 449.68 C 183.50422389914772 454.473832064 179.61838157420226 458.36 174.824951171875 458.36 C 170.03152076954774 458.36 166.14567844460228 454.473832064 166.14567844460228 449.68 Z" fill="none" stroke="#000000" stroke-miterlimit="10"/></g><g transform="translate(-46,-70) scale(1,1)"><path d="M 174.824951171875 458.36 L 174.824951171875 475.64" fill="none" stroke="#000000" stroke-miterlimit="10"/></g><g transform="translate(-46,-70) scale(1,1)"><path d="M 165.63513299005683 464.84 L 184.01476935369317 464.84" fill="none" stroke="#000000" stroke-miterlimit="10"/></g><g transform="translate(-46,-70) scale(1,1)"><path d="M 174.824951171875 475.64 L 162.06131480823865 493" fill="none" stroke="#000000" stroke-miterlimit="10"/></g><g transform="translate(-46,-70) scale(1,1)"><path d="M 174.824951171875 475.64 L 187.58858753551135 493" fill="none" stroke="#000000" stroke-miterlimit="10"/></g><g transform="translate(-46,-70) scale(1,1)"><g><path fill="none" stroke="none"/><text fill="#000000" font-family="Arial" font-size="13px" font-style="normal" font-weight="bold" stroke="none" text-decoration="none" x="140.5" y="511.5">Farmacista</text></g></g><g transform="translate(-46,-70) scale(1,1)"><path d="M 440 441 C 440 421.1177472 494.845112 405 562.5 405 C 630.154888 405 685 421.1177472 685 441 C 685 460.8822528 630.154888 477 562.5 477 C 494.845112 477 440 460.8822528 440 441 Z" fill="#C0C0C0" opacity="0.2" stroke="none"/></g><g transform="translate(-46,-70) scale(1,1)"><path d="M 433 434 C 433 414.1177472 487.845112 398 555.5 398 C 623.154888 398 678 414.1177472 678 434 C 678 453.8822528 623.154888 470 555.5 470 C 487.845112 470 433 453.8822528 433 434 Z" fill="#ffffff" stroke="none"/></g><g transform="translate(-46,-70) scale(1,1)"><path d="M 433 434 C 433 414.1177472 487.845112 398 555.5 398 C 623.154888 398 678 414.1177472 678 434 C 678 453.8822528 623.154888 470 555.5 470 C 487.845112 470 433 453.8822528 433 434 Z" fill="none" stroke="#000000" stroke-miterlimit="10"/></g><g transform="translate(-46,-70) scale(1,1)"><g><path fill="none" stroke="none"/><text fill="#000000" font-family="Arial" font-size="13px" font-style="normal" font-weight="bold" stroke="none" text-decoration="none" x="516.484130859375" y="439">Carico Merci</text></g></g><g transform="translate(-46,-70) scale(1,1)"><path d="M 215 474 L 432 449" fill="none" stroke="#000000" stroke-miterlimit="10"/></g><g transform="translate(-46,-70) scale(1,1)"><path d="M 447 323 C 447 303.1177472 501.845112 287 569.5 287 C 637.154888 287 692 303.1177472 692 323 C 692 342.8822528 637.154888 359 569.5 359 C 501.845112 359 447 342.8822528 447 323 Z" fill="#C0C0C0" opacity="0.2" stroke="none"/></g><g transform="translate(-46,-70) scale(1,1)"><path d="M 440 316 C 440 296.1177472 494.845112 280 562.5 280 C 630.154888 280 685 296.1177472 685 316 C 685 335.8822528 630.154888 352 562.5 352 C 494.845112 352 440 335.8822528 440 316 Z" fill="#ffffff" stroke="none"/></g><g transform="translate(-46,-70) scale(1,1)"><path d="M 440 316 C 440 296.1177472 494.845112 280 562.5 280 C 630.154888 280 685 296.1177472 685 316 C 685 335.8822528 630.154888 352 562.5 352 C 494.845112 352 440 335.8822528 440 316 Z" fill="none" stroke="#000000" stroke-miterlimit="10"/></g><g transform="translate(-46,-70) scale(1,1)"><g><path fill="none" stroke="none"/><text fill="#000000" font-family="Arial" font-size="13px" font-style="normal" font-weight="bold" stroke="none" text-decoration="none" x="515.530517578125" y="321">Cerca Farmaco</text></g></g><g transform="translate(-46,-70) scale(1,1)"><path d="M 215 462 L 474 353" fill="none" stroke="#000000" stroke-miterlimit="10"/></g><g transform="translate(-46,-70) scale(1,1)"><path d="M 447 195 C 447 175.1177472 501.845112 159 569.5 159 C 637.154888 159 692 175.1177472 692 195 C 692 214.8822528 637.154888 231 569.5 231 C 501.845112 231 447 214.8822528 447 195 Z" fill="#C0C0C0" opacity="0.2" stroke="none"/></g><g transform="translate(-46,-70) scale(1,1)"><path d="M 440 188 C 440 168.1177472 494.845112 152 562.5 152 C 630.154888 152 685 168.1177472 685 188 C 685 207.8822528 630.154888 224 562.5 224 C 494.845112 224 440 207.8822528 440 188 Z" fill="#ffffff" stroke="none"/></g><g transform="translate(-46,-70) scale(1,1)"><path d="M 440 188 C 440 168.1177472 494.845112 152 562.5 152 C 630.154888 152 685 168.1177472 685 188 C 685 207.8822528 630.154888 224 562.5 224 C 494.845112 224 440 207.8822528 440 188 Z" fill="none" stroke="#000000" stroke-miterlimit="10"/></g><g transform="translate(-46,-70) scale(1,1)"><g><path fill="none" stroke="none"/><text fill="#000000" font-family="Arial" font-size="13px" font-style="normal" font-weight="bold" stroke="none" text-decoration="none" x="520.227783203125" y="193">Scarico Merci</text></g></g><g transform="translate(-46,-70) scale(1,1)"><path d="M 215 449 L 513 225" fill="none" stroke="#000000" stroke-miterlimit="10"/></g><g transform="translate(-46,-70) scale(1,1)"><path d="M 562 225 L 562 279" fill="none" stroke="#000000" stroke-dasharray="3" stroke-miterlimit="10"/></g><g transform="translate(-46,-70) scale(1,1)"><path d="M 557.790482243984 268.83732514237585 L 562 279 L 566.209517756016 268.83732514237585" fill="none" stroke="#000000" stroke-miterlimit="10"/></g><g transform="translate(-46,-70) scale(1,1)"><g><path fill="none" stroke="none"/><text fill="#000000" font-family="Arial" font-size="13px" font-style="normal" font-weight="normal" stroke="none" text-decoration="none" x="563.5" y="255.5">«include»</text></g></g><g transform="translate(-46,-70) scale(1,1)"><path d="M 440 681 C 440 661.1177472 494.845112 645 562.5 645 C 630.154888 645 685 661.1177472 685 681 C 685 700.8822528 630.154888 717 562.5 717 C 494.845112 717 440 700.8822528 440 681 Z" fill="#C0C0C0" opacity="0.2" stroke="none"/></g><g transform="translate(-46,-70) scale(1,1)"><path d="M 433 674 C 433 654.1177472 487.845112 638 555.5 638 C 623.154888 638 678 654.1177472 678 674 C 678 693.8822528 623.154888 710 555.5 710 C 487.845112 710 433 693.8822528 433 674 Z" fill="#ffffff" stroke="none"/></g><g transform="translate(-46,-70) scale(1,1)"><path d="M 433 674 C 433 654.1177472 487.845112 638 555.5 638 C 623.154888 638 678 654.1177472 678 674 C 678 693.8822528 623.154888 710 555.5 710 C 487.845112 710 433 693.8822528 433 674 Z" fill="none" stroke="#000000" stroke-miterlimit="10"/></g><g transform="translate(-46,-70) scale(1,1)"><g><path fill="none" stroke="none"/><text fill="#000000" font-family="Arial" font-size="13px" font-style="normal" font-weight="bold" stroke="none" text-decoration="none" x="505.65185546875" y="679">Ordina Farmaco</text></g></g><g transform="translate(-46,-70) scale(1,1)"><path d="M 215 500 L 483 637" fill="none" stroke="#000000" stroke-miterlimit="10"/></g><g transform="translate(-46,-70) scale(1,1)"><path d="M 1176.6442136008523 425.68 C 1176.6442136008523 420.886167936 1180.5300559257978 417 1185.323486328125 417 C 1190.1169167304522 417 1194.0027590553977 420.886167936 1194.0027590553977 425.68 C 1194.0027590553977 430.473832064 1190.1169167304522 434.36 1185.323486328125 434.36 C 1180.5300559257978 434.36 1176.6442136008523 430.473832064 1176.6442136008523 425.68 Z" fill="#ffffff" stroke="none"/></g><g transform="translate(-46,-70) scale(1,1)"><path d="M 1176.6442136008523 425.68 C 1176.6442136008523 420.886167936 1180.5300559257978 417 1185.323486328125 417 C 1190.1169167304522 417 1194.0027590553977 420.886167936 1194.0027590553977 425.68 C 1194.0027590553977 430.473832064 1190.1169167304522 434.36 1185.323486328125 434.36 C 1180.5300559257978 434.36 1176.6442136008523 430.473832064 1176.6442136008523 425.68 Z" fill="none" stroke="#000000" stroke-miterlimit="10"/></g><g transform="translate(-46,-70) scale(1,1)"><path d="M 1185.323486328125 434.36 L 1185.323486328125 451.64" fill="none" stroke="#000000" stroke-miterlimit="10"/></g><g transform="translate(-46,-70) scale(1,1)"><path d="M 1176.1336681463067 440.84 L 1194.5133045099433 440.84" fill="none" stroke="#000000" stroke-miterlimit="10"/></g><g transform="translate(-46,-70) scale(1,1)"><path d="M 1185.323486328125 451.64 L 1172.5598499644886 469" fill="none" stroke="#000000" stroke-miterlimit="10"/></g><g transform="translate(-46,-70) scale(1,1)"><path d="M 1185.323486328125 451.64 L 1198.0871226917614 469" fill="none" stroke="#000000" stroke-miterlimit="10"/></g><g transform="translate(-46,-70) scale(1,1)"><g><path fill="none" stroke="none"/><text fill="#000000" font-family="Arial" font-size="13px" font-style="normal" font-weight="bold" stroke="none" text-decoration="none" x="1164.5" y="487.5">Tempo</text></g></g><g transform="translate(-46,-70) scale(1,1)"><path d="M 794 465 C 794 450.6405952 836.9806592 439 890 439 C 943.0193408 439 986 450.6405952 986 465 C 986 479.3594048 943.0193408 491 890 491 C 836.9806592 491 794 479.3594048 794 465 Z" fill="#C0C0C0" opacity="0.2" stroke="none"/></g><g transform="translate(-46,-70) scale(1,1)"><path d="M 787 458 C 787 443.6405952 829.9806592 432 883 432 C 936.0193408 432 979 443.6405952 979 458 C 979 472.3594048 936.0193408 484 883 484 C 829.9806592 484 787 472.3594048 787 458 Z" fill="#ffffff" stroke="none"/></g><g transform="translate(-46,-70) scale(1,1)"><path d="M 787 458 C 787 443.6405952 829.9806592 432 883 432 C 936.0193408 432 979 443.6405952 979 458 C 979 472.3594048 936.0193408 484 883 484 C 829.9806592 484 787 472.3594048 787 458 Z" fill="none" stroke="#000000" stroke-miterlimit="10"/></g><g transform="translate(-46,-70) scale(1,1)"><g><path fill="none" stroke="none"/><text fill="#000000" font-family="Arial" font-size="13px" font-style="normal" font-weight="bold" stroke="none" text-decoration="none" x="854.1181640625" y="456.5">Controllo</text><text fill="#000000" font-family="Arial" font-size="13px" font-style="normal" font-weight="bold" stroke="none" text-decoration="none" x="824.839599609375" y="469.5">Caricamento Merci</text></g></g><g transform="translate(-46,-70) scale(1,1)"><path d="M 1160 456 L 979 456" fill="none" stroke="#000000" stroke-miterlimit="10"/></g><g transform="translate(-46,-70) scale(1,1)"><path d="M 1125.3102292258523 169.68 C 1125.3102292258523 164.886167936 1129.1960715507978 161 1133.989501953125 161 C 1138.7829323554522 161 1142.6687746803977 164.886167936 1142.6687746803977 169.68 C 1142.6687746803977 174.47383206400002 1138.7829323554522 178.36 1133.989501953125 178.36 C 1129.1960715507978 178.36 1125.3102292258523 174.47383206400002 1125.3102292258523 169.68 Z" fill="#ffffff" stroke="none"/></g><g transform="translate(-46,-70) scale(1,1)"><path d="M 1125.3102292258523 169.68 C 1125.3102292258523 164.886167936 1129.1960715507978 161 1133.989501953125 161 C 1138.7829323554522 161 1142.6687746803977 164.886167936 1142.6687746803977 169.68 C 1142.6687746803977 174.47383206400002 1138.7829323554522 178.36 1133.989501953125 178.36 C 1129.1960715507978 178.36 1125.3102292258523 174.47383206400002 1125.3102292258523 169.68 Z" fill="none" stroke="#000000" stroke-miterlimit="10"/></g><g transform="translate(-46,-70) scale(1,1)"><path d="M 1133.989501953125 178.36 L 1133.989501953125 195.64" fill="none" stroke="#000000" stroke-miterlimit="10"/></g><g transform="translate(-46,-70) scale(1,1)"><path d="M 1124.7996837713067 184.84 L 1143.1793201349433 184.84" fill="none" stroke="#000000" stroke-miterlimit="10"/></g><g transform="translate(-46,-70) scale(1,1)"><path d="M 1133.989501953125 195.64 L 1121.2258655894886 213" fill="none" stroke="#000000" stroke-miterlimit="10"/></g><g transform="translate(-46,-70) scale(1,1)"><path d="M 1133.989501953125 195.64 L 1146.7531383167614 213" fill="none" stroke="#000000" stroke-miterlimit="10"/></g><g transform="translate(-46,-70) scale(1,1)"><g><path fill="none" stroke="none"/><text fill="#000000" font-family="Arial" font-size="13px" font-style="normal" font-weight="bold" stroke="none" text-decoration="none" x="1084.5" y="231.5">DBMS Farmacie</text></g></g><g transform="translate(-46,-70) scale(1,1)"><path d="M 1121.6857175071023 689.6800000000001 C 1121.6857175071023 684.8861679360001 1125.5715598320478 681 1130.364990234375 681 C 1135.1584206367022 681 1139.0442629616477 684.8861679360001 1139.0442629616477 689.6800000000001 C 1139.0442629616477 694.473832064 1135.1584206367022 698.36 1130.364990234375 698.36 C 1125.5715598320478 698.36 1121.6857175071023 694.473832064 1121.6857175071023 689.6800000000001 Z" fill="#ffffff" stroke="none"/></g><g transform="translate(-46,-70) scale(1,1)"><path d="M 1121.6857175071023 689.6800000000001 C 1121.6857175071023 684.8861679360001 1125.5715598320478 681 1130.364990234375 681 C 1135.1584206367022 681 1139.0442629616477 684.8861679360001 1139.0442629616477 689.6800000000001 C 1139.0442629616477 694.473832064 1135.1584206367022 698.36 1130.364990234375 698.36 C 1125.5715598320478 698.36 1121.6857175071023 694.473832064 1121.6857175071023 689.6800000000001 Z" fill="none" stroke="#000000" stroke-miterlimit="10"/></g><g transform="translate(-46,-70) scale(1,1)"><path d="M 1130.364990234375 698.36 L 1130.364990234375 715.64" fill="none" stroke="#000000" stroke-miterlimit="10"/></g><g transform="translate(-46,-70) scale(1,1)"><path d="M 1121.1751720525567 704.84 L 1139.5548084161933 704.84" fill="none" stroke="#000000" stroke-miterlimit="10"/></g><g transform="translate(-46,-70) scale(1,1)"><path d="M 1130.364990234375 715.64 L 1117.6013538707386 733" fill="none" stroke="#000000" stroke-miterlimit="10"/></g><g transform="translate(-46,-70) scale(1,1)"><path d="M 1130.364990234375 715.64 L 1143.1286265980114 733" fill="none" stroke="#000000" stroke-miterlimit="10"/></g><g transform="translate(-46,-70) scale(1,1)"><g><path fill="none" stroke="none"/><text fill="#000000" font-family="Arial" font-size="13px" font-style="normal" font-weight="bold" stroke="none" text-decoration="none" x="1084.5" y="751.5">DBMS Azienda</text></g></g><g transform="translate(-46,-70) scale(1,1)"><path d="M 646 397 L 1079 221" fill="none" stroke="#000000" stroke-miterlimit="10"/></g><g transform="translate(-46,-70) scale(1,1)"><path d="M 686 291 L 1079 210" fill="none" stroke="#000000" stroke-miterlimit="10"/></g><g transform="translate(-46,-70) scale(1,1)"><path d="M 686 190 L 1079 198" fill="none" stroke="#000000" stroke-miterlimit="10"/></g><g transform="translate(-46,-70) scale(1,1)"><path d="M 679 684 L 1079 715" fill="none" stroke="#000000" stroke-miterlimit="10"/></g><g transform="translate(-46,-70) scale(1,1)"><path d="M 980 460 Q 1120 464 1128 679" fill="none" stroke="#000000" stroke-miterlimit="10"/></g><g transform="translate(-46,-70) scale(1,1)"><path d="M 630 471 L 1079 694" fill="none" stroke="#000000" stroke-miterlimit="10"/></g><g transform="translate(-46,-70) scale(1,1)"><path d="M 440 556 C 440 536.1177472 494.845112 520 562.5 520 C 630.154888 520 685 536.1177472 685 556 C 685 575.8822528 630.154888 592 562.5 592 C 494.845112 592 440 575.8822528 440 556 Z" fill="#C0C0C0" opacity="0.2" stroke="none"/></g><g transform="translate(-46,-70) scale(1,1)"><path d="M 433 549 C 433 529.1177472 487.845112 513 555.5 513 C 623.154888 513 678 529.1177472 678 549 C 678 568.8822528 623.154888 585 555.5 585 C 487.845112 585 433 568.8822528 433 549 Z" fill="#ffffff" stroke="none"/></g><g transform="translate(-46,-70) scale(1,1)"><path d="M 433 549 C 433 529.1177472 487.845112 513 555.5 513 C 623.154888 513 678 529.1177472 678 549 C 678 568.8822528 623.154888 585 555.5 585 C 487.845112 585 433 568.8822528 433 549 Z" fill="none" stroke="#000000" stroke-miterlimit="10"/></g><g transform="translate(-46,-70) scale(1,1)"><g><path fill="none" stroke="none"/><text fill="#000000" font-family="Arial" font-size="13px" font-style="normal" font-weight="bold" stroke="none" text-decoration="none" x="503.604736328125" y="547.5">Visualizza Ordini</text><text fill="#000000" font-family="Arial" font-size="13px" font-style="normal" font-weight="bold" stroke="none" text-decoration="none" x="526.95458984375" y="560.5">Farmacia</text></g></g><g transform="translate(-46,-70) scale(1,1)"><path d="M 215 486 L 432 526" fill="none" stroke="#000000" stroke-miterlimit="10"/></g><g transform="translate(-46,-70) scale(1,1)"><path d="M 679 586 L 1079 704" fill="none" stroke="#000000" stroke-miterlimit="10"/></g><g transform="translate(-46,-70) scale(1,1)"><path d="M 440 810 C 440 790.1177472 494.845112 774 562.5 774 C 630.154888 774 685 790.1177472 685 810 C 685 829.8822528 630.154888 846 562.5 846 C 494.845112 846 440 829.8822528 440 810 Z" fill="#C0C0C0" opacity="0.2" stroke="none"/></g><g transform="translate(-46,-70) scale(1,1)"><path d="M 433 803 C 433 783.1177472 487.845112 767 555.5 767 C 623.154888 767 678 783.1177472 678 803 C 678 822.8822528 623.154888 839 555.5 839 C 487.845112 839 433 822.8822528 433 803 Z" fill="#ffffff" stroke="none"/></g><g transform="translate(-46,-70) scale(1,1)"><path d="M 433 803 C 433 783.1177472 487.845112 767 555.5 767 C 623.154888 767 678 783.1177472 678 803 C 678 822.8822528 623.154888 839 555.5 839 C 487.845112 839 433 822.8822528 433 803 Z" fill="none" stroke="#000000" stroke-miterlimit="10"/></g><g transform="translate(-46,-70) scale(1,1)"><g><path fill="none" stroke="none"/><text fill="#000000" font-family="Arial" font-size="13px" font-style="normal" font-weight="bold" stroke="none" text-decoration="none" x="510.7236328125" y="808">Annulla Ordini</text></g></g><g transform="translate(-46,-70) scale(1,1)"><path d="M 215 514 L 511 766" fill="none" stroke="#000000" stroke-miterlimit="10"/></g><g transform="translate(-46,-70) scale(1,1)"><path d="M 679 785 L 1079 726" fill="none" stroke="#000000" stroke-miterlimit="10"/></g><g transform="translate(-46,-70) scale(1,1)"><path d="M 555 471 L 555 512" fill="none" stroke="#000000" stroke-dasharray="3" stroke-miterlimit="10"/></g><g transform="translate(-46,-70) scale(1,1)"><path d="M 550.790482243984 501.83732514237585 L 555 512 L 559.209517756016 501.83732514237585" fill="none" stroke="#000000" stroke-miterlimit="10"/></g><g transform="translate(-46,-70) scale(1,1)"><g><path fill="none" stroke="none"/><text fill="#000000" font-family="Arial" font-size="13px" font-style="normal" font-weight="normal" stroke="none" text-decoration="none" x="556.5" y="494.5">«include»</text></g></g><g transform="translate(-46,-70) scale(1,1)"><path d="M 794 377 C 794 362.6405952 836.9806592 351 890 351 C 943.0193408 351 986 362.6405952 986 377 C 986 391.3594048 943.0193408 403 890 403 C 836.9806592 403 794 391.3594048 794 377 Z" fill="#C0C0C0" opacity="0.2" stroke="none"/></g><g transform="translate(-46,-70) scale(1,1)"><path d="M 787 370 C 787 355.6405952 829.9806592 344 883 344 C 936.0193408 344 979 355.6405952 979 370 C 979 384.3594048 936.0193408 396 883 396 C 829.9806592 396 787 384.3594048 787 370 Z" fill="#ffffff" stroke="none"/></g><g transform="translate(-46,-70) scale(1,1)"><path d="M 787 370 C 787 355.6405952 829.9806592 344 883 344 C 936.0193408 344 979 355.6405952 979 370 C 979 384.3594048 936.0193408 396 883 396 C 829.9806592 396 787 384.3594048 787 370 Z" fill="none" stroke="#000000" stroke-miterlimit="10"/></g><g transform="translate(-46,-70) scale(1,1)"><g><path fill="none" stroke="none"/><text fill="#000000" font-family="Arial" font-size="13px" font-style="normal" font-weight="bold" stroke="none" text-decoration="none" x="830.628662109375" y="375">Ordine Periodico</text></g></g><g transform="translate(-46,-70) scale(1,1)"><path d="M 1184 416 L 1184 370 L 979 370" fill="none" stroke="#000000" stroke-miterlimit="10"/></g><g transform="translate(-46,-70) scale(1,1)"><path d="M 980 375 Q 1136 384 1131 679" fill="none" stroke="#000000" stroke-miterlimit="10"/></g><g transform="translate(-46,-70) scale(1,1)"><path d="M 980 369 Q 1136 368 1134 240" fill="none" stroke="#000000" stroke-miterlimit="10"/></g><g transform="translate(-46,-70) scale(1,1)"><path d="M 1133 240 Q 1136 456 980 457" fill="none" stroke="#000000" stroke-miterlimit="10"/></g><g transform="translate(-46,-70) scale(1,1)"><path d="M 614 353 L 1079 683" fill="none" stroke="#000000" stroke-miterlimit="10"/></g><g transform="translate(-46,-70) scale(1,1)"><path d="M 120 184 L 373 184 L 383 194 L 383 263 L 120 263 L 120 184" fill="#ffffff" stroke="none"/></g><g transform="translate(-46,-70) scale(1,1)"><path d="M 120 184 L 373 184 L 383 194 L 383 263 L 120 263 L 120 184 L 120 184" fill="none" stroke="#000000" stroke-miterlimit="10"/></g><g transform="translate(-46,-70) scale(1,1)"><path d="M 373 184 L 373 194 L 383 194 L 373 184" fill="none" stroke="#000000" stroke-miterlimit="10"/></g><g transform="translate(-46,-70) scale(1,1)"><g><path fill="none" stroke="none"/><text fill="#000000" font-family="Arial" font-size="13px" font-style="normal" font-weight="normal" stroke="none" text-decoration="none" x="125" y="198">questi due include potrebbero essere solo</text><text fill="#000000" font-family="Arial" font-size="13px" font-style="normal" font-weight="normal" stroke="none" text-decoration="none" x="125" y="211">delle precondizioni, sono sul treno non</text><text fill="#000000" font-family="Arial" font-size="13px" font-style="normal" font-weight="normal" stroke="none" text-decoration="none" x="125" y="224">posso controllare</text></g></g><g transform="translate(-46,-70) scale(1,1)"><path d="M 248 240 L 561 251" fill="none" stroke="#000000" stroke-miterlimit="10"/></g><g transform="translate(-46,-70) scale(1,1)"><path d="M 550.6957481662976 254.84998625291584 L 561 251 L 550.9914422664234 246.43614504024688" fill="#000000" stroke="none"/></g><g transform="translate(-46,-70) scale(1,1)"><path d="M 550.6957481662976 254.84998625291584 L 561 251 L 550.9914422664234 246.43614504024688 L 550.6957481662976 254.84998625291584" fill="none" stroke="#000000" stroke-miterlimit="10"/></g><g transform="translate(-46,-70) scale(1,1)"><path d="M 248 240 L 553 493" fill="none" stroke="#000000" stroke-miterlimit="10"/></g><g transform="translate(-46,-70) scale(1,1)"><path d="M 542.4905755482883 489.7516161412536 L 553 493 L 547.8656689582434 483.2717604494104" fill="#000000" stroke="none"/></g><g transform="translate(-46,-70) scale(1,1)"><path d="M 542.4905755482883 489.7516161412536 L 553 493 L 547.8656689582434 483.2717604494104 L 542.4905755482883 489.7516161412536" fill="none" stroke="#000000" stroke-miterlimit="10"/></g></g></svg>