<?xml version="1.0" encoding="UTF-8" standalone="no"?><svg xmlns="http://www.w3.org/2000/svg" xmlns:xlink="http://www.w3.org/1999/xlink" height="692" version="1.1" width="1188"><defs/><g><g transform="translate(2,2) scale(1,1)"><path d="M 8 8 L 1176 8 L 1176 680 L 8 680 L 8 8" fill="none" stroke="#000000" stroke-miterlimit="10"/></g><g transform="translate(2,2) scale(1,1)"><path d="M 8 8 L 8 30 L 158.900390625 30 L 169.900390625 19 L 169.900390625 8 L 8 8" fill="#ffffff" stroke="none"/></g><g transform="translate(2,2) scale(1,1)"><path d="M 8 8 L 8 30 L 158.900390625 30 L 169.900390625 19 L 169.900390625 8 L 8 8 L 8 8" fill="none" stroke="#000000" stroke-miterlimit="10"/></g><g transform="translate(2,2) scale(1,1)"><g><path fill="none" stroke="none"/><text fill="#000000" font-family="Arial" font-size="13px" font-style="normal" font-weight="normal" stroke="none" text-decoration="none" x="32.72998046875" y="23.5">Visualizza Consegne</text></g></g><g transform="translate(2,2) scale(1,1)"><g><path fill="none" stroke="none"/><text fill="#000000" font-family="Arial" font-size="13px" font-style="normal" font-weight="bold" stroke="none" text-decoration="none" x="12.279541015625" y="23.5">sd</text></g></g><g transform="translate(2,2) scale(1,1)"><path d="M 61.69859463778409 47.3 C 61.69859463778409 43.82060576 64.5769963599659 41 68.127685546875 41 C 71.6783747337841 41 74.5567764559659 43.82060576 74.5567764559659 47.3 C 74.5567764559659 50.779394239999995 71.6783747337841 53.6 68.127685546875 53.6 C 64.5769963599659 53.6 61.69859463778409 50.779394239999995 61.69859463778409 47.3 Z" fill="#ffffff" stroke="none"/></g><g transform="translate(2,2) scale(1,1)"><path d="M 61.69859463778409 47.3 C 61.69859463778409 43.82060576 64.5769963599659 41 68.127685546875 41 C 71.6783747337841 41 74.5567764559659 43.82060576 74.5567764559659 47.3 C 74.5567764559659 50.779394239999995 71.6783747337841 53.6 68.127685546875 53.6 C 64.5769963599659 53.6 61.69859463778409 50.779394239999995 61.69859463778409 47.3 Z" fill="none" stroke="#000000" stroke-miterlimit="10"/></g><g transform="translate(2,2) scale(1,1)"><path d="M 68.127685546875 53.6 L 68.127685546875 66.4" fill="none" stroke="#000000" stroke-miterlimit="10"/></g><g transform="translate(2,2) scale(1,1)"><path d="M 61.320412819602275 58.4 L 74.93495827414773 58.4" fill="none" stroke="#000000" stroke-miterlimit="10"/></g><g transform="translate(2,2) scale(1,1)"><path d="M 68.127685546875 66.4 L 58.67314009232955 79" fill="none" stroke="#000000" stroke-miterlimit="10"/></g><g transform="translate(2,2) scale(1,1)"><path d="M 68.127685546875 66.4 L 77.58223100142045 79" fill="none" stroke="#000000" stroke-miterlimit="10"/></g><g transform="translate(2,2) scale(1,1)"><g><path fill="none" stroke="none"/><text fill="#000000" font-family="Arial" font-size="13px" font-style="normal" font-weight="bold" stroke="none" text-decoration="none" x="38.8681640625" y="97.5">: Corriere</text></g></g><g transform="translate(2,2) scale(1,1)"><path d="M 69.5 105 L 69.5 664" fill="none" stroke="#000000" stroke-dasharray="3" stroke-miterlimit="10"/></g><g transform="translate(2,2) scale(1,1)"><path d="M 1110.100450106534 47.3 C 1110.100450106534 43.82060576 1112.978851828716 41 1116.529541015625 41 C 1120.080230202534 41 1122.958631924716 43.82060576 1122.958631924716 47.3 C 1122.958631924716 50.779394239999995 1120.080230202534 53.6 1116.529541015625 53.6 C 1112.978851828716 53.6 1110.100450106534 50.779394239999995 1110.100450106534 47.3 Z" fill="#ffffff" stroke="none"/></g><g transform="translate(2,2) scale(1,1)"><path d="M 1110.100450106534 47.3 C 1110.100450106534 43.82060576 1112.978851828716 41 1116.529541015625 41 C 1120.080230202534 41 1122.958631924716 43.82060576 1122.958631924716 47.3 C 1122.958631924716 50.779394239999995 1120.080230202534 53.6 1116.529541015625 53.6 C 1112.978851828716 53.6 1110.100450106534 50.779394239999995 1110.100450106534 47.3 Z" fill="none" stroke="#000000" stroke-miterlimit="10"/></g><g transform="translate(2,2) scale(1,1)"><path d="M 1116.529541015625 53.6 L 1116.529541015625 66.4" fill="none" stroke="#000000" stroke-miterlimit="10"/></g><g transform="translate(2,2) scale(1,1)"><path d="M 1109.7222682883523 58.4 L 1123.3368137428977 58.4" fill="none" stroke="#000000" stroke-miterlimit="10"/></g><g transform="translate(2,2) scale(1,1)"><path d="M 1116.529541015625 66.4 L 1107.0749955610795 79" fill="none" stroke="#000000" stroke-miterlimit="10"/></g><g transform="translate(2,2) scale(1,1)"><path d="M 1116.529541015625 66.4 L 1125.9840864701705 79" fill="none" stroke="#000000" stroke-miterlimit="10"/></g><g transform="translate(2,2) scale(1,1)"><g><path fill="none" stroke="none"/><text fill="#000000" font-family="Arial" font-size="13px" font-style="normal" font-weight="bold" stroke="none" text-decoration="none" x="1068.5" y="97.5">: DBMSAzienda</text></g></g><g transform="translate(2,2) scale(1,1)"><path d="M 1117.5 105 L 1117.5 370" fill="none" stroke="#000000" stroke-dasharray="3" stroke-miterlimit="10"/></g><g transform="translate(2,2) scale(1,1)"><rect fill="#C0C0C0" height="39" opacity="0.2" stroke="none" width="241.87890625" x="159" y="47"/></g><g transform="translate(2,2) scale(1,1)"><rect fill="#ffffff" height="39" stroke="none" width="241.87890625" x="152" y="40"/></g><g transform="translate(2,2) scale(1,1)"><path d="M 152 40 L 393.87890625 40 L 393.87890625 79 L 152 79 L 152 40 Z Z" fill="none" stroke="#000000" stroke-miterlimit="10"/></g><g transform="translate(2,2) scale(1,1)"><g><path fill="none" stroke="none"/><text fill="#000000" font-family="Arial" font-size="13px" font-style="normal" font-weight="normal" stroke="none" text-decoration="none" x="237.884521484375" y="55.5">«Boundary»</text></g></g><g transform="translate(2,2) scale(1,1)"><g><path fill="none" stroke="none"/><text fill="#000000" font-family="Arial" font-size="13px" font-style="normal" font-weight="bold" stroke="none" text-decoration="none" x="164.029541015625" y="70.5">InterfacciaPrincipale[tipo=Corriere]</text></g></g><g transform="translate(2,2) scale(1,1)"><path d="M 273.5 80 L 273.5 171" fill="none" stroke="#000000" stroke-dasharray="3" stroke-miterlimit="10"/></g><g transform="translate(2,2) scale(1,1)"><rect fill="#C0C0C0" height="39" opacity="0.2" stroke="none" width="226.0986328125" x="407" y="131"/></g><g transform="translate(2,2) scale(1,1)"><rect fill="#ffffff" height="39" stroke="none" width="226.0986328125" x="400" y="124"/></g><g transform="translate(2,2) scale(1,1)"><path d="M 400 124 L 626.0986328125 124 L 626.0986328125 163 L 400 163 L 400 124 Z Z" fill="none" stroke="#000000" stroke-miterlimit="10"/></g><g transform="translate(2,2) scale(1,1)"><g><path fill="none" stroke="none"/><text fill="#000000" font-family="Arial" font-size="13px" font-style="normal" font-weight="normal" stroke="none" text-decoration="none" x="484.86572265625" y="139.5">«Control»</text></g></g><g transform="translate(2,2) scale(1,1)"><g><path fill="none" stroke="none"/><text fill="#000000" font-family="Arial" font-size="13px" font-style="normal" font-weight="bold" stroke="none" text-decoration="none" x="409.5" y="154.5">GestoreVisualizzazioneConsegne</text></g></g><g transform="translate(2,2) scale(1,1)"><path d="M 514.5 164 L 514.5 656" fill="none" stroke="#000000" stroke-dasharray="3" stroke-miterlimit="10"/></g><g transform="translate(2,2) scale(1,1)"><rect fill="#C0C0C0" height="39" opacity="0.2" stroke="none" width="208.77587890625" x="159" y="339"/></g><g transform="translate(2,2) scale(1,1)"><rect fill="#ffffff" height="39" stroke="none" width="208.77587890625" x="152" y="332"/></g><g transform="translate(2,2) scale(1,1)"><path d="M 152 332 L 360.77587890625 332 L 360.77587890625 371 L 152 371 L 152 332 Z Z" fill="none" stroke="#000000" stroke-miterlimit="10"/></g><g transform="translate(2,2) scale(1,1)"><g><path fill="none" stroke="none"/><text fill="#000000" font-family="Arial" font-size="13px" font-style="normal" font-weight="normal" stroke="none" text-decoration="none" x="221.3330078125" y="347.5">«Boundary»</text></g></g><g transform="translate(2,2) scale(1,1)"><g><path fill="none" stroke="none"/><text fill="#000000" font-family="Arial" font-size="13px" font-style="normal" font-weight="bold" stroke="none" text-decoration="none" x="161.5" y="362.5">InterfacciaVisualizzaConsegne</text></g></g><g transform="translate(2,2) scale(1,1)"><path d="M 257.5 372 L 257.5 440" fill="none" stroke="#000000" stroke-dasharray="3" stroke-miterlimit="10"/></g><g transform="translate(2,2) scale(1,1)"><rect fill="#C0C0C0" height="39" opacity="0.2" stroke="none" width="108.5654296875" x="927" y="47"/></g><g transform="translate(2,2) scale(1,1)"><rect fill="#ffffff" height="39" stroke="none" width="108.5654296875" x="920" y="40"/></g><g transform="translate(2,2) scale(1,1)"><path d="M 920 40 L 1028.5654296875 40 L 1028.5654296875 79 L 920 79 L 920 40 Z Z" fill="none" stroke="#000000" stroke-miterlimit="10"/></g><g transform="translate(2,2) scale(1,1)"><g><path fill="none" stroke="none"/><text fill="#000000" font-family="Arial" font-size="13px" font-style="normal" font-weight="normal" stroke="none" text-decoration="none" x="939.227783203125" y="55.5">«Boundary»</text></g></g><g transform="translate(2,2) scale(1,1)"><g><path fill="none" stroke="none"/><text fill="#000000" font-family="Arial" font-size="13px" font-style="normal" font-weight="bold" stroke="none" text-decoration="none" x="929.5" y="70.5">DBMSDaemon</text></g></g><g transform="translate(2,2) scale(1,1)"><path d="M 975.5 80 L 975.5 398" fill="none" stroke="#000000" stroke-dasharray="3" stroke-miterlimit="10"/></g><g transform="translate(2,2) scale(1,1)"><rect fill="#C0C0C0" height="39" opacity="0.2" stroke="none" width="77.50634765625" x="575" y="307"/></g><g transform="translate(2,2) scale(1,1)"><rect fill="#ffffff" height="39" stroke="none" width="77.50634765625" x="568" y="300"/></g><g transform="translate(2,2) scale(1,1)"><path d="M 568 300 L 645.50634765625 300 L 645.50634765625 339 L 568 339 L 568 300 Z Z" fill="none" stroke="#000000" stroke-miterlimit="10"/></g><g transform="translate(2,2) scale(1,1)"><g><path fill="none" stroke="none"/><text fill="#000000" font-family="Arial" font-size="13px" font-style="normal" font-weight="normal" stroke="none" text-decoration="none" x="583.266845703125" y="315.5">«Entity»</text></g></g><g transform="translate(2,2) scale(1,1)"><g><path fill="none" stroke="none"/><text fill="#000000" font-family="Arial" font-size="13px" font-style="normal" font-weight="bold" stroke="none" text-decoration="none" x="577.5" y="330.5">ListaColli</text></g></g><g transform="translate(2,2) scale(1,1)"><path d="M 607.5 340 L 607.5 389" fill="none" stroke="#000000" stroke-dasharray="3" stroke-miterlimit="10"/></g><g transform="translate(2,2) scale(1,1)"><rect fill="#C0C0C0" height="39" opacity="0.2" stroke="none" width="224.47998046875" x="247" y="531"/></g><g transform="translate(2,2) scale(1,1)"><rect fill="#ffffff" height="39" stroke="none" width="224.47998046875" x="240" y="524"/></g><g transform="translate(2,2) scale(1,1)"><path d="M 240 524 L 464.47998046875 524 L 464.47998046875 563 L 240 563 L 240 524 Z Z" fill="none" stroke="#000000" stroke-miterlimit="10"/></g><g transform="translate(2,2) scale(1,1)"><g><path fill="none" stroke="none"/><text fill="#000000" font-family="Arial" font-size="13px" font-style="normal" font-weight="normal" stroke="none" text-decoration="none" x="317.18505859375" y="539.5">«Boundary»</text></g></g><g transform="translate(2,2) scale(1,1)"><g><path fill="none" stroke="none"/><text fill="#000000" font-family="Arial" font-size="13px" font-style="normal" font-weight="bold" stroke="none" text-decoration="none" x="257.196533203125" y="554.5">TastoFirmaConsegna[id=collo]</text></g></g><g transform="translate(2,2) scale(1,1)"><path d="M 353.5 564 L 353.5 648" fill="none" stroke="#000000" stroke-dasharray="3" stroke-miterlimit="10"/></g><g transform="translate(2,2) scale(1,1)"><path d="M 69 129 L 266 129" fill="none" stroke="#000000" stroke-miterlimit="10"/></g><g transform="translate(2,2) scale(1,1)"><path d="M 255.83732514237585 133.209517756016 L 266 129 L 255.83732514237585 124.79048224398402" fill="#000000" stroke="none"/></g><g transform="translate(2,2) scale(1,1)"><path d="M 255.83732514237585 133.209517756016 L 266 129 L 255.83732514237585 124.79048224398402 L 255.83732514237585 133.209517756016" fill="none" stroke="#000000" stroke-miterlimit="10"/></g><g transform="translate(2,2) scale(1,1)"><g><path fill="none" stroke="none"/><text fill="#000000" font-family="Arial" font-size="13px" font-style="normal" font-weight="normal" stroke="none" text-decoration="none" x="82.5" y="123.5">1 : cliccaVisualizzaConsegne</text></g></g><g transform="translate(2,2) scale(1,1)"><rect fill="#ffffff" height="28" stroke="none" width="13" x="266" y="129"/></g><g transform="translate(2,2) scale(1,1)"><path d="M 266 129 L 279 129 L 279 157 L 266 157 L 266 129 Z Z" fill="none" stroke="#000000" stroke-miterlimit="10"/></g><g transform="translate(2,2) scale(1,1)"><path d="M 279 144 L 400 144" fill="none" stroke="#000000" stroke-dasharray="3" stroke-miterlimit="10"/></g><g transform="translate(2,2) scale(1,1)"><path d="M 389.83732514237585 148.209517756016 L 400 144 L 389.83732514237585 139.790482243984" fill="none" stroke="#000000" stroke-miterlimit="10"/></g><g transform="translate(2,2) scale(1,1)"><g><path fill="none" stroke="none"/><text fill="#000000" font-family="Arial" font-size="13px" font-style="normal" font-weight="normal" stroke="none" text-decoration="none" x="329.5" y="138.5">2 : </text></g></g><g transform="translate(2,2) scale(1,1)"><g><path fill="none" stroke="none"/><text fill="#000000" font-family="Arial" font-size="13px" font-style="normal" font-weight="normal" stroke="none" text-decoration="none" x="313.5" y="123.5">«create»</text></g></g><g transform="translate(2,2) scale(1,1)"><path d="M 514 176 L 544 176 L 544 196 L 520 196" fill="none" stroke="#000000" stroke-miterlimit="10"/></g><g transform="translate(2,2) scale(1,1)"><path d="M 530.1626748576241 191.790482243984 L 520 196 L 530.1626748576241 200.209517756016" fill="#000000" stroke="none"/></g><g transform="translate(2,2) scale(1,1)"><path d="M 530.1626748576241 191.790482243984 L 520 196 L 530.1626748576241 200.209517756016 L 530.1626748576241 191.790482243984" fill="none" stroke="#000000" stroke-miterlimit="10"/></g><g transform="translate(2,2) scale(1,1)"><g><path fill="none" stroke="none"/><text fill="#000000" font-family="Arial" font-size="13px" font-style="normal" font-weight="normal" stroke="none" text-decoration="none" x="558.5" y="194.5">3 : chiediData</text></g></g><g transform="translate(2,2) scale(1,1)"><rect fill="#ffffff" height="28" stroke="none" width="13" x="507" y="196"/></g><g transform="translate(2,2) scale(1,1)"><path d="M 507 196 L 520 196 L 520 224 L 507 224 L 507 196 Z Z" fill="none" stroke="#000000" stroke-miterlimit="10"/></g><g transform="translate(2,2) scale(1,1)"><path d="M 514 235 L 968 235" fill="none" stroke="#000000" stroke-miterlimit="10"/></g><g transform="translate(2,2) scale(1,1)"><path d="M 957.8373251423759 239.209517756016 L 968 235 L 957.8373251423758 230.790482243984" fill="#000000" stroke="none"/></g><g transform="translate(2,2) scale(1,1)"><path d="M 957.8373251423759 239.209517756016 L 968 235 L 957.8373251423758 230.790482243984 L 957.8373251423759 239.209517756016" fill="none" stroke="#000000" stroke-miterlimit="10"/></g><g transform="translate(2,2) scale(1,1)"><g><path fill="none" stroke="none"/><text fill="#000000" font-family="Arial" font-size="13px" font-style="normal" font-weight="normal" stroke="none" text-decoration="none" x="668.5" y="229.5">4 : chiediConsegne(data)</text></g></g><g transform="translate(2,2) scale(1,1)"><rect fill="#ffffff" height="53" stroke="none" width="13" x="968" y="235"/></g><g transform="translate(2,2) scale(1,1)"><path d="M 968 235 L 981 235 L 981 288 L 968 288 L 968 235 Z Z" fill="none" stroke="#000000" stroke-miterlimit="10"/></g><g transform="translate(2,2) scale(1,1)"><path d="M 981 248 L 1110 248" fill="none" stroke="#000000" stroke-miterlimit="10"/></g><g transform="translate(2,2) scale(1,1)"><path d="M 1099.837325142376 252.209517756016 L 1110 248 L 1099.837325142376 243.790482243984" fill="#000000" stroke="none"/></g><g transform="translate(2,2) scale(1,1)"><path d="M 1099.837325142376 252.209517756016 L 1110 248 L 1099.837325142376 243.790482243984 L 1099.837325142376 252.209517756016" fill="none" stroke="#000000" stroke-miterlimit="10"/></g><g transform="translate(2,2) scale(1,1)"><g><path fill="none" stroke="none"/><text fill="#000000" font-family="Arial" font-size="13px" font-style="normal" font-weight="normal" stroke="none" text-decoration="none" x="987.114990234375" y="242.5">5 : queryConsegne(data)</text></g></g><g transform="translate(2,2) scale(1,1)"><rect fill="#ffffff" height="28" stroke="none" width="13" x="1110" y="248"/></g><g transform="translate(2,2) scale(1,1)"><path d="M 1110 248 L 1123 248 L 1123 276 L 1110 276 L 1110 248 Z Z" fill="none" stroke="#000000" stroke-miterlimit="10"/></g><g transform="translate(2,2) scale(1,1)"><path d="M 1110 268 L 981 268" fill="none" stroke="#000000" stroke-dasharray="3" stroke-miterlimit="10"/></g><g transform="translate(2,2) scale(1,1)"><path d="M 991.1626748576241 263.790482243984 L 981 268 L 991.1626748576241 272.209517756016" fill="none" stroke="#000000" stroke-miterlimit="10"/></g><g transform="translate(2,2) scale(1,1)"><g><path fill="none" stroke="none"/><text fill="#000000" font-family="Arial" font-size="13px" font-style="normal" font-weight="normal" stroke="none" text-decoration="none" x="1010.421630859375" y="282.5">6 : listaColli</text></g></g><g transform="translate(2,2) scale(1,1)"><path d="M 968 280 L 514 280" fill="none" stroke="#000000" stroke-dasharray="3" stroke-miterlimit="10"/></g><g transform="translate(2,2) scale(1,1)"><path d="M 524.1626748576241 275.790482243984 L 514 280 L 524.1626748576241 284.209517756016" fill="none" stroke="#000000" stroke-miterlimit="10"/></g><g transform="translate(2,2) scale(1,1)"><g><path fill="none" stroke="none"/><text fill="#000000" font-family="Arial" font-size="13px" font-style="normal" font-weight="normal" stroke="none" text-decoration="none" x="706.421630859375" y="294.5">7 : listaColli</text></g></g><g transform="translate(2,2) scale(1,1)"><path d="M 514 320 L 568 320" fill="none" stroke="#000000" stroke-dasharray="3" stroke-miterlimit="10"/></g><g transform="translate(2,2) scale(1,1)"><path d="M 557.8373251423759 324.209517756016 L 568 320 L 557.8373251423758 315.790482243984" fill="none" stroke="#000000" stroke-miterlimit="10"/></g><g transform="translate(2,2) scale(1,1)"><g><path fill="none" stroke="none"/><text fill="#000000" font-family="Arial" font-size="13px" font-style="normal" font-weight="normal" stroke="none" text-decoration="none" x="532.114990234375" y="314.5">8 : </text></g></g><g transform="translate(2,2) scale(1,1)"><g><path fill="none" stroke="none"/><text fill="#000000" font-family="Arial" font-size="13px" font-style="normal" font-weight="normal" stroke="none" text-decoration="none" x="515.5" y="299.5">«create»</text></g></g><g transform="translate(2,2) scale(1,1)"><path d="M 514 352 L 360.77587890625 352" fill="none" stroke="#000000" stroke-dasharray="3" stroke-miterlimit="10"/></g><g transform="translate(2,2) scale(1,1)"><path d="M 370.93855376387415 347.790482243984 L 360.77587890625 352 L 370.93855376387415 356.209517756016" fill="none" stroke="#000000" stroke-miterlimit="10"/></g><g transform="translate(2,2) scale(1,1)"><g><path fill="none" stroke="none"/><text fill="#000000" font-family="Arial" font-size="13px" font-style="normal" font-weight="normal" stroke="none" text-decoration="none" x="426.5" y="366.5">9 : </text></g></g><g transform="translate(2,2) scale(1,1)"><g><path fill="none" stroke="none"/><text fill="#000000" font-family="Arial" font-size="13px" font-style="normal" font-weight="normal" stroke="none" text-decoration="none" x="410.5" y="381.5">«create»</text></g></g><g transform="translate(2,2) scale(1,1)"><path d="M 514 544 L 464.47998046875 544" fill="none" stroke="#000000" stroke-dasharray="3" stroke-miterlimit="10"/></g><g transform="translate(2,2) scale(1,1)"><path d="M 474.64265532637415 539.790482243984 L 464.47998046875 544 L 474.64265532637415 548.209517756016" fill="none" stroke="#000000" stroke-miterlimit="10"/></g><g transform="translate(2,2) scale(1,1)"><g><path fill="none" stroke="none"/><text fill="#000000" font-family="Arial" font-size="13px" font-style="normal" font-weight="normal" stroke="none" text-decoration="none" x="475.5" y="558.5">10 : </text></g></g><g transform="translate(2,2) scale(1,1)"><g><path fill="none" stroke="none"/><text fill="#000000" font-family="Arial" font-size="13px" font-style="normal" font-weight="normal" stroke="none" text-decoration="none" x="462.5" y="573.5">«create»</text></g></g><g transform="translate(2,2) scale(1,1)"><path d="M 120 488 L 528 488 L 528 664 L 120 664 L 120 488" fill="none" stroke="#000000" stroke-miterlimit="10"/></g><g transform="translate(2,2) scale(1,1)"><path d="M 120 488 L 120 510 L 237.892578125 510 L 248.892578125 499 L 248.892578125 488 L 120 488" fill="#ffffff" stroke="none"/></g><g transform="translate(2,2) scale(1,1)"><path d="M 120 488 L 120 510 L 237.892578125 510 L 248.892578125 499 L 248.892578125 488 L 120 488 L 120 488" fill="none" stroke="#000000" stroke-miterlimit="10"/></g><g transform="translate(2,2) scale(1,1)"><g><path fill="none" stroke="none"/><text fill="#000000" font-family="Arial" font-size="13px" font-style="normal" font-weight="normal" stroke="none" text-decoration="none" x="155.578125" y="503.5">PerOgniCollo</text></g></g><g transform="translate(2,2) scale(1,1)"><g><path fill="none" stroke="none"/><text fill="#000000" font-family="Arial" font-size="13px" font-style="normal" font-weight="bold" stroke="none" text-decoration="none" x="123.57177734375" y="503.5">loop</text></g></g><g transform="translate(2,2) scale(1,1)"><g><path fill="none" stroke="none"/><text fill="#000000" font-family="Arial" font-size="13px" font-style="normal" font-weight="normal" stroke="none" text-decoration="none" x="139.5" y="536.5">[ per ogni collo ]</text></g></g></g></svg>