<?xml version="1.0" encoding="UTF-8" standalone="no"?><svg xmlns="http://www.w3.org/2000/svg" xmlns:xlink="http://www.w3.org/1999/xlink" height="876" version="1.1" width="1276"><defs/><g><g transform="translate(-78,2) scale(1,1)"><path d="M 88 8 L 1344 8 L 1344 864 L 88 864 L 88 8" fill="none" stroke="#000000" stroke-miterlimit="10"/></g><g transform="translate(-78,2) scale(1,1)"><path d="M 88 8 L 88 30 L 215.99169921875 30 L 226.99169921875 19 L 226.99169921875 8 L 88 8" fill="#ffffff" stroke="none"/></g><g transform="translate(-78,2) scale(1,1)"><path d="M 88 8 L 88 30 L 215.99169921875 30 L 226.99169921875 19 L 226.99169921875 8 L 88 8 L 88 8" fill="none" stroke="#000000" stroke-miterlimit="10"/></g><g transform="translate(-78,2) scale(1,1)"><g><path fill="none" stroke="none"/><text fill="#000000" font-family="Arial" font-size="13px" font-style="normal" font-weight="normal" stroke="none" text-decoration="none" x="112.72998046875" y="23.5">CorrezioneOrdini</text></g></g><g transform="translate(-78,2) scale(1,1)"><g><path fill="none" stroke="none"/><text fill="#000000" font-family="Arial" font-size="13px" font-style="normal" font-weight="bold" stroke="none" text-decoration="none" x="92.279541015625" y="23.5">sd</text></g></g><g transform="translate(-78,2) scale(1,1)"><path d="M 187.1067977627841 47.3 C 187.1067977627841 43.82060576 189.9851994849659 41 193.535888671875 41 C 197.0865778587841 41 199.96497958096592 43.82060576 199.96497958096592 47.3 C 199.96497958096592 50.779394239999995 197.0865778587841 53.6 193.535888671875 53.6 C 189.9851994849659 53.6 187.1067977627841 50.779394239999995 187.1067977627841 47.3 Z" fill="#ffffff" stroke="none"/></g><g transform="translate(-78,2) scale(1,1)"><path d="M 187.1067977627841 47.3 C 187.1067977627841 43.82060576 189.9851994849659 41 193.535888671875 41 C 197.0865778587841 41 199.96497958096592 43.82060576 199.96497958096592 47.3 C 199.96497958096592 50.779394239999995 197.0865778587841 53.6 193.535888671875 53.6 C 189.9851994849659 53.6 187.1067977627841 50.779394239999995 187.1067977627841 47.3 Z" fill="none" stroke="#000000" stroke-miterlimit="10"/></g><g transform="translate(-78,2) scale(1,1)"><path d="M 193.535888671875 53.6 L 193.535888671875 66.4" fill="none" stroke="#000000" stroke-miterlimit="10"/></g><g transform="translate(-78,2) scale(1,1)"><path d="M 186.7286159446023 58.4 L 200.34316139914773 58.4" fill="none" stroke="#000000" stroke-miterlimit="10"/></g><g transform="translate(-78,2) scale(1,1)"><path d="M 193.535888671875 66.4 L 184.08134321732956 79" fill="none" stroke="#000000" stroke-miterlimit="10"/></g><g transform="translate(-78,2) scale(1,1)"><path d="M 193.535888671875 66.4 L 202.99043412642047 79" fill="none" stroke="#000000" stroke-miterlimit="10"/></g><g transform="translate(-78,2) scale(1,1)"><g><path fill="none" stroke="none"/><text fill="#000000" font-family="Arial" font-size="13px" font-style="normal" font-weight="bold" stroke="none" text-decoration="none" x="158.8681640625" y="97.5">: Impiegato</text></g></g><g transform="translate(-78,2) scale(1,1)"><path d="M 194.5 105 L 194.5 544" fill="none" stroke="#000000" stroke-dasharray="3" stroke-miterlimit="10"/></g><g transform="translate(-78,2) scale(1,1)"><rect fill="#C0C0C0" height="39" opacity="0.2" stroke="none" width="234.2109375" x="327" y="47"/></g><g transform="translate(-78,2) scale(1,1)"><rect fill="#ffffff" height="39" stroke="none" width="234.2109375" x="320" y="40"/></g><g transform="translate(-78,2) scale(1,1)"><path d="M 320 40 L 554.2109375 40 L 554.2109375 79 L 320 79 L 320 40 Z Z" fill="none" stroke="#000000" stroke-miterlimit="10"/></g><g transform="translate(-78,2) scale(1,1)"><g><path fill="none" stroke="none"/><text fill="#000000" font-family="Arial" font-size="13px" font-style="normal" font-weight="normal" stroke="none" text-decoration="none" x="402.050537109375" y="55.5">«Boundary»</text></g></g><g transform="translate(-78,2) scale(1,1)"><g><path fill="none" stroke="none"/><text fill="#000000" font-family="Arial" font-size="13px" font-style="normal" font-weight="bold" stroke="none" text-decoration="none" x="329.5" y="70.5">BottoneCorreggiOrdini[datiOrdine]</text></g></g><g transform="translate(-78,2) scale(1,1)"><path d="M 438.5 80 L 438.5 192" fill="none" stroke="#000000" stroke-dasharray="3" stroke-miterlimit="10"/></g><g transform="translate(-78,2) scale(1,1)"><rect fill="#C0C0C0" height="39" opacity="0.2" stroke="none" width="136.03173828125" x="679" y="115"/></g><g transform="translate(-78,2) scale(1,1)"><rect fill="#ffffff" height="39" stroke="none" width="136.03173828125" x="672" y="108"/></g><g transform="translate(-78,2) scale(1,1)"><path d="M 672 108 L 808.03173828125 108 L 808.03173828125 147 L 672 147 L 672 108 Z Z" fill="none" stroke="#000000" stroke-miterlimit="10"/></g><g transform="translate(-78,2) scale(1,1)"><g><path fill="none" stroke="none"/><text fill="#000000" font-family="Arial" font-size="13px" font-style="normal" font-weight="normal" stroke="none" text-decoration="none" x="711.832275390625" y="123.5">«Control»</text></g></g><g transform="translate(-78,2) scale(1,1)"><g><path fill="none" stroke="none"/><text fill="#000000" font-family="Arial" font-size="13px" font-style="normal" font-weight="bold" stroke="none" text-decoration="none" x="681.5" y="138.5">GestoreCorrezione</text></g></g><g transform="translate(-78,2) scale(1,1)"><path d="M 741.5 148 L 741.5 792" fill="none" stroke="#000000" stroke-dasharray="3" stroke-miterlimit="10"/></g><g transform="translate(-78,2) scale(1,1)"><rect fill="#C0C0C0" height="39" opacity="0.2" stroke="none" width="180.0908203125" x="407" y="171"/></g><g transform="translate(-78,2) scale(1,1)"><rect fill="#ffffff" height="39" stroke="none" width="180.0908203125" x="400" y="164"/></g><g transform="translate(-78,2) scale(1,1)"><path d="M 400 164 L 580.0908203125 164 L 580.0908203125 203 L 400 203 L 400 164 Z Z" fill="none" stroke="#000000" stroke-miterlimit="10"/></g><g transform="translate(-78,2) scale(1,1)"><g><path fill="none" stroke="none"/><text fill="#000000" font-family="Arial" font-size="13px" font-style="normal" font-weight="normal" stroke="none" text-decoration="none" x="454.990478515625" y="179.5">«Boundary»</text></g></g><g transform="translate(-78,2) scale(1,1)"><g><path fill="none" stroke="none"/><text fill="#000000" font-family="Arial" font-size="13px" font-style="normal" font-weight="bold" stroke="none" text-decoration="none" x="411.305908203125" y="194.5">InterfacciaCorreggiOrdini</text></g></g><g transform="translate(-78,2) scale(1,1)"><path d="M 491.5 204 L 491.5 789" fill="none" stroke="#000000" stroke-dasharray="3" stroke-miterlimit="10"/></g><g transform="translate(-78,2) scale(1,1)"><rect fill="#C0C0C0" height="39" opacity="0.2" stroke="none" width="112.1962890625" x="583" y="411"/></g><g transform="translate(-78,2) scale(1,1)"><rect fill="#ffffff" height="39" stroke="none" width="112.1962890625" x="576" y="404"/></g><g transform="translate(-78,2) scale(1,1)"><path d="M 576 404 L 688.1962890625 404 L 688.1962890625 443 L 576 443 L 576 404 Z Z" fill="none" stroke="#000000" stroke-miterlimit="10"/></g><g transform="translate(-78,2) scale(1,1)"><g><path fill="none" stroke="none"/><text fill="#000000" font-family="Arial" font-size="13px" font-style="normal" font-weight="normal" stroke="none" text-decoration="none" x="597.043212890625" y="419.5">«Boundary»</text></g></g><g transform="translate(-78,2) scale(1,1)"><g><path fill="none" stroke="none"/><text fill="#000000" font-family="Arial" font-size="13px" font-style="normal" font-weight="bold" stroke="none" text-decoration="none" x="585.5" y="434.5">PannelloErrore</text></g></g><g transform="translate(-78,2) scale(1,1)"><path d="M 633.5 444 L 633.5 536" fill="none" stroke="#000000" stroke-dasharray="3" stroke-miterlimit="10"/></g><g transform="translate(-78,2) scale(1,1)"><rect fill="#C0C0C0" height="39" opacity="0.2" stroke="none" width="108.5654296875" x="959" y="47"/></g><g transform="translate(-78,2) scale(1,1)"><rect fill="#ffffff" height="39" stroke="none" width="108.5654296875" x="952" y="40"/></g><g transform="translate(-78,2) scale(1,1)"><path d="M 952 40 L 1060.5654296875 40 L 1060.5654296875 79 L 952 79 L 952 40 Z Z" fill="none" stroke="#000000" stroke-miterlimit="10"/></g><g transform="translate(-78,2) scale(1,1)"><g><path fill="none" stroke="none"/><text fill="#000000" font-family="Arial" font-size="13px" font-style="normal" font-weight="normal" stroke="none" text-decoration="none" x="971.227783203125" y="55.5">«Boundary»</text></g></g><g transform="translate(-78,2) scale(1,1)"><g><path fill="none" stroke="none"/><text fill="#000000" font-family="Arial" font-size="13px" font-style="normal" font-weight="bold" stroke="none" text-decoration="none" x="961.5" y="70.5">DBMSDaemon</text></g></g><g transform="translate(-78,2) scale(1,1)"><path d="M 1007.5 80 L 1007.5 784" fill="none" stroke="#000000" stroke-dasharray="3" stroke-miterlimit="10"/></g><g transform="translate(-78,2) scale(1,1)"><path d="M 1242.274522372159 47.3 C 1242.274522372159 43.82060576 1245.152924094341 41 1248.70361328125 41 C 1252.254302468159 41 1255.132704190341 43.82060576 1255.132704190341 47.3 C 1255.132704190341 50.779394239999995 1252.254302468159 53.6 1248.70361328125 53.6 C 1245.152924094341 53.6 1242.274522372159 50.779394239999995 1242.274522372159 47.3 Z" fill="#ffffff" stroke="none"/></g><g transform="translate(-78,2) scale(1,1)"><path d="M 1242.274522372159 47.3 C 1242.274522372159 43.82060576 1245.152924094341 41 1248.70361328125 41 C 1252.254302468159 41 1255.132704190341 43.82060576 1255.132704190341 47.3 C 1255.132704190341 50.779394239999995 1252.254302468159 53.6 1248.70361328125 53.6 C 1245.152924094341 53.6 1242.274522372159 50.779394239999995 1242.274522372159 47.3 Z" fill="none" stroke="#000000" stroke-miterlimit="10"/></g><g transform="translate(-78,2) scale(1,1)"><path d="M 1248.70361328125 53.6 L 1248.70361328125 66.4" fill="none" stroke="#000000" stroke-miterlimit="10"/></g><g transform="translate(-78,2) scale(1,1)"><path d="M 1241.8963405539773 58.4 L 1255.5108860085227 58.4" fill="none" stroke="#000000" stroke-miterlimit="10"/></g><g transform="translate(-78,2) scale(1,1)"><path d="M 1248.70361328125 66.4 L 1239.2490678267045 79" fill="none" stroke="#000000" stroke-miterlimit="10"/></g><g transform="translate(-78,2) scale(1,1)"><path d="M 1248.70361328125 66.4 L 1258.1581587357955 79" fill="none" stroke="#000000" stroke-miterlimit="10"/></g><g transform="translate(-78,2) scale(1,1)"><g><path fill="none" stroke="none"/><text fill="#000000" font-family="Arial" font-size="13px" font-style="normal" font-weight="bold" stroke="none" text-decoration="none" x="1198.8681640625" y="97.5">: DBMS Azienda</text></g></g><g transform="translate(-78,2) scale(1,1)"><path d="M 1249.5 105 L 1249.5 699" fill="none" stroke="#000000" stroke-dasharray="3" stroke-miterlimit="10"/></g><g transform="translate(-78,2) scale(1,1)"><path d="M 194 120 L 431 120" fill="none" stroke="#000000" stroke-miterlimit="10"/></g><g transform="translate(-78,2) scale(1,1)"><path d="M 420.83732514237585 124.20951775601598 L 431 120 L 420.83732514237585 115.79048224398402" fill="#000000" stroke="none"/></g><g transform="translate(-78,2) scale(1,1)"><path d="M 420.83732514237585 124.20951775601598 L 431 120 L 420.83732514237585 115.79048224398402 L 420.83732514237585 124.20951775601598" fill="none" stroke="#000000" stroke-miterlimit="10"/></g><g transform="translate(-78,2) scale(1,1)"><g><path fill="none" stroke="none"/><text fill="#000000" font-family="Arial" font-size="13px" font-style="normal" font-weight="normal" stroke="none" text-decoration="none" x="255.5" y="114.5">1 : cliccaCorreggi( )</text></g></g><g transform="translate(-78,2) scale(1,1)"><rect fill="#ffffff" height="28" stroke="none" width="13" x="431" y="120"/></g><g transform="translate(-78,2) scale(1,1)"><path d="M 431 120 L 444 120 L 444 148 L 431 148 L 431 120 Z Z" fill="none" stroke="#000000" stroke-miterlimit="10"/></g><g transform="translate(-78,2) scale(1,1)"><path d="M 444 128 L 672 128" fill="none" stroke="#000000" stroke-dasharray="3" stroke-miterlimit="10"/></g><g transform="translate(-78,2) scale(1,1)"><path d="M 661.8373251423759 132.209517756016 L 672 128 L 661.8373251423758 123.79048224398402" fill="none" stroke="#000000" stroke-miterlimit="10"/></g><g transform="translate(-78,2) scale(1,1)"><g><path fill="none" stroke="none"/><text fill="#000000" font-family="Arial" font-size="13px" font-style="normal" font-weight="normal" stroke="none" text-decoration="none" x="548.5" y="122.5">2 : </text></g></g><g transform="translate(-78,2) scale(1,1)"><g><path fill="none" stroke="none"/><text fill="#000000" font-family="Arial" font-size="13px" font-style="normal" font-weight="normal" stroke="none" text-decoration="none" x="532.5" y="107.5">«create»</text></g></g><g transform="translate(-78,2) scale(1,1)"><path d="M 741 184 L 580.0908203125 184" fill="none" stroke="#000000" stroke-dasharray="3" stroke-miterlimit="10"/></g><g transform="translate(-78,2) scale(1,1)"><path d="M 590.2534951701241 179.790482243984 L 580.0908203125 184 L 590.2534951701241 188.209517756016" fill="none" stroke="#000000" stroke-miterlimit="10"/></g><g transform="translate(-78,2) scale(1,1)"><g><path fill="none" stroke="none"/><text fill="#000000" font-family="Arial" font-size="13px" font-style="normal" font-weight="normal" stroke="none" text-decoration="none" x="649.5" y="198.5">3 : </text></g></g><g transform="translate(-78,2) scale(1,1)"><g><path fill="none" stroke="none"/><text fill="#000000" font-family="Arial" font-size="13px" font-style="normal" font-weight="normal" stroke="none" text-decoration="none" x="633.5" y="213.5">«create»</text></g></g><g transform="translate(-78,2) scale(1,1)"><path d="M 194 296 L 484 296" fill="none" stroke="#000000" stroke-miterlimit="10"/></g><g transform="translate(-78,2) scale(1,1)"><path d="M 473.83732514237585 300.209517756016 L 484 296 L 473.83732514237585 291.790482243984" fill="#000000" stroke="none"/></g><g transform="translate(-78,2) scale(1,1)"><path d="M 473.83732514237585 300.209517756016 L 484 296 L 473.83732514237585 291.790482243984 L 473.83732514237585 300.209517756016" fill="none" stroke="#000000" stroke-miterlimit="10"/></g><g transform="translate(-78,2) scale(1,1)"><g><path fill="none" stroke="none"/><text fill="#000000" font-family="Arial" font-size="13px" font-style="normal" font-weight="normal" stroke="none" text-decoration="none" x="243.71533203125" y="273.5">4 : inserisciDati(quantita_ricevuti,</text><text fill="#000000" font-family="Arial" font-size="13px" font-style="normal" font-weight="normal" stroke="none" text-decoration="none" x="273.679443359375" y="286.5">quantita_da_integrare)</text></g></g><g transform="translate(-78,2) scale(1,1)"><rect fill="#ffffff" height="28" stroke="none" width="13" x="484" y="296"/></g><g transform="translate(-78,2) scale(1,1)"><path d="M 484 296 L 497 296 L 497 324 L 484 324 L 484 296 Z Z" fill="none" stroke="#000000" stroke-miterlimit="10"/></g><g transform="translate(-78,2) scale(1,1)"><path d="M 194 328 L 484 328" fill="none" stroke="#000000" stroke-miterlimit="10"/></g><g transform="translate(-78,2) scale(1,1)"><path d="M 473.83732514237585 332.209517756016 L 484 328 L 473.83732514237585 323.790482243984" fill="#000000" stroke="none"/></g><g transform="translate(-78,2) scale(1,1)"><path d="M 473.83732514237585 332.209517756016 L 484 328 L 473.83732514237585 323.790482243984 L 473.83732514237585 332.209517756016" fill="none" stroke="#000000" stroke-miterlimit="10"/></g><g transform="translate(-78,2) scale(1,1)"><g><path fill="none" stroke="none"/><text fill="#000000" font-family="Arial" font-size="13px" font-style="normal" font-weight="normal" stroke="none" text-decoration="none" x="297.197265625" y="322.5">5 : conferma( )</text></g></g><g transform="translate(-78,2) scale(1,1)"><rect fill="#ffffff" height="28" stroke="none" width="13" x="484" y="328"/></g><g transform="translate(-78,2) scale(1,1)"><path d="M 484 328 L 497 328 L 497 356 L 484 356 L 484 328 Z Z" fill="none" stroke="#000000" stroke-miterlimit="10"/></g><g transform="translate(-78,2) scale(1,1)"><path d="M 497 336 L 734 336" fill="none" stroke="#000000" stroke-miterlimit="10"/></g><g transform="translate(-78,2) scale(1,1)"><path d="M 723.8373251423759 340.209517756016 L 734 336 L 723.8373251423758 331.790482243984" fill="#000000" stroke="none"/></g><g transform="translate(-78,2) scale(1,1)"><path d="M 723.8373251423759 340.209517756016 L 734 336 L 723.8373251423758 331.790482243984 L 723.8373251423759 340.209517756016" fill="none" stroke="#000000" stroke-miterlimit="10"/></g><g transform="translate(-78,2) scale(1,1)"><g><path fill="none" stroke="none"/><text fill="#000000" font-family="Arial" font-size="13px" font-style="normal" font-weight="normal" stroke="none" text-decoration="none" x="510.71533203125" y="314.5">6 : correggiOrdine(quantita_ricevuti,</text><text fill="#000000" font-family="Arial" font-size="13px" font-style="normal" font-weight="normal" stroke="none" text-decoration="none" x="548.63623046875" y="327.5">quantita_da_integrare)</text></g></g><g transform="translate(-78,2) scale(1,1)"><rect fill="#ffffff" height="59" stroke="none" width="13" x="734" y="336"/></g><g transform="translate(-78,2) scale(1,1)"><path d="M 734 336 L 747 336 L 747 395 L 734 395 L 734 336 Z Z" fill="none" stroke="#000000" stroke-miterlimit="10"/></g><g transform="translate(-78,2) scale(1,1)"><path d="M 747 344 L 777 344 L 777 364 L 754 364" fill="none" stroke="#000000" stroke-miterlimit="10"/></g><g transform="translate(-78,2) scale(1,1)"><path d="M 764.1626748576241 359.790482243984 L 754 364 L 764.1626748576241 368.209517756016" fill="#000000" stroke="none"/></g><g transform="translate(-78,2) scale(1,1)"><path d="M 764.1626748576241 359.790482243984 L 754 364 L 764.1626748576241 368.209517756016 L 764.1626748576241 359.790482243984" fill="none" stroke="#000000" stroke-miterlimit="10"/></g><g transform="translate(-78,2) scale(1,1)"><g><path fill="none" stroke="none"/><text fill="#000000" font-family="Arial" font-size="13px" font-style="normal" font-weight="normal" stroke="none" text-decoration="none" x="758.5" y="338.5">7 : controllaQuantita( )</text></g></g><g transform="translate(-78,2) scale(1,1)"><rect fill="#ffffff" height="28" stroke="none" width="13" x="741" y="364"/></g><g transform="translate(-78,2) scale(1,1)"><path d="M 741 364 L 754 364 L 754 392 L 741 392 L 741 364 Z Z" fill="none" stroke="#000000" stroke-miterlimit="10"/></g><g transform="translate(-78,2) scale(1,1)"><path d="M 741 424 L 688.1962890625 424" fill="none" stroke="#000000" stroke-dasharray="3" stroke-miterlimit="10"/></g><g transform="translate(-78,2) scale(1,1)"><path d="M 698.3589639201241 419.790482243984 L 688.1962890625 424 L 698.3589639201241 428.209517756016" fill="none" stroke="#000000" stroke-miterlimit="10"/></g><g transform="translate(-78,2) scale(1,1)"><g><path fill="none" stroke="none"/><text fill="#000000" font-family="Arial" font-size="13px" font-style="normal" font-weight="normal" stroke="none" text-decoration="none" x="703.5" y="438.5">8 : </text></g></g><g transform="translate(-78,2) scale(1,1)"><g><path fill="none" stroke="none"/><text fill="#000000" font-family="Arial" font-size="13px" font-style="normal" font-weight="normal" stroke="none" text-decoration="none" x="687.5" y="453.5">«create»</text></g></g><g transform="translate(-78,2) scale(1,1)"><path d="M 194 480 L 626 480" fill="none" stroke="#000000" stroke-miterlimit="10"/></g><g transform="translate(-78,2) scale(1,1)"><path d="M 615.8373251423759 484.209517756016 L 626 480 L 615.8373251423758 475.790482243984" fill="#000000" stroke="none"/></g><g transform="translate(-78,2) scale(1,1)"><path d="M 615.8373251423759 484.209517756016 L 626 480 L 615.8373251423758 475.790482243984 L 615.8373251423759 484.209517756016" fill="none" stroke="#000000" stroke-miterlimit="10"/></g><g transform="translate(-78,2) scale(1,1)"><path d="M 623 526 L 643 546" fill="none" stroke="#000000" stroke-miterlimit="10"/></g><g transform="translate(-78,2) scale(1,1)"><path d="M 643 526 L 623 546" fill="none" stroke="#000000" stroke-miterlimit="10"/></g><g transform="translate(-78,2) scale(1,1)"><g><path fill="none" stroke="none"/><text fill="#000000" font-family="Arial" font-size="13px" font-style="normal" font-weight="normal" stroke="none" text-decoration="none" x="367.5" y="474.5">9 : conferma( )</text></g></g><g transform="translate(-78,2) scale(1,1)"><g><path fill="none" stroke="none"/><text fill="#000000" font-family="Arial" font-size="13px" font-style="normal" font-weight="normal" stroke="none" text-decoration="none" x="381.5" y="459.5">«destroy»</text></g></g><g transform="translate(-78,2) scale(1,1)"><rect fill="#ffffff" height="28" stroke="none" width="13" x="626" y="480"/></g><g transform="translate(-78,2) scale(1,1)"><path d="M 626 480 L 639 480 L 639 508 L 626 508 L 626 480 Z Z" fill="none" stroke="#000000" stroke-miterlimit="10"/></g><g transform="translate(-78,2) scale(1,1)"><path d="M 741 640 L 1000 640" fill="none" stroke="#000000" stroke-miterlimit="10"/></g><g transform="translate(-78,2) scale(1,1)"><path d="M 989.8373251423759 644.209517756016 L 1000 640 L 989.8373251423758 635.790482243984" fill="#000000" stroke="none"/></g><g transform="translate(-78,2) scale(1,1)"><path d="M 989.8373251423759 644.209517756016 L 1000 640 L 989.8373251423758 635.790482243984 L 989.8373251423759 644.209517756016" fill="none" stroke="#000000" stroke-miterlimit="10"/></g><g transform="translate(-78,2) scale(1,1)"><g><path fill="none" stroke="none"/><text fill="#000000" font-family="Arial" font-size="13px" font-style="normal" font-weight="normal" stroke="none" text-decoration="none" x="768.0546875" y="617.5">10 : correggiOrdine(quantita_ricevuti,</text><text fill="#000000" font-family="Arial" font-size="13px" font-style="normal" font-weight="normal" stroke="none" text-decoration="none" x="773.815185546875" y="630.5">quantita_da_integrare, dati_ordine)</text></g></g><g transform="translate(-78,2) scale(1,1)"><rect fill="#ffffff" height="48" stroke="none" width="13" x="1000" y="640"/></g><g transform="translate(-78,2) scale(1,1)"><path d="M 1000 640 L 1013 640 L 1013 688 L 1000 688 L 1000 640 Z Z" fill="none" stroke="#000000" stroke-miterlimit="10"/></g><g transform="translate(-78,2) scale(1,1)"><path d="M 1013 648 L 1242 648" fill="none" stroke="#000000" stroke-miterlimit="10"/></g><g transform="translate(-78,2) scale(1,1)"><path d="M 1231.837325142376 652.209517756016 L 1242 648 L 1231.837325142376 643.790482243984" fill="#000000" stroke="none"/></g><g transform="translate(-78,2) scale(1,1)"><path d="M 1231.837325142376 652.209517756016 L 1242 648 L 1231.837325142376 643.790482243984 L 1231.837325142376 652.209517756016" fill="none" stroke="#000000" stroke-miterlimit="10"/></g><g transform="translate(-78,2) scale(1,1)"><g><path fill="none" stroke="none"/><text fill="#000000" font-family="Arial" font-size="13px" font-style="normal" font-weight="normal" stroke="none" text-decoration="none" x="1018.537109375" y="624.5">11 : correggiOrdine(quantita_ricevuti,</text><text fill="#000000" font-family="Arial" font-size="13px" font-style="normal" font-weight="normal" stroke="none" text-decoration="none" x="1023.815185546875" y="637.5">quantita_da_integrare, dati_ordine)</text></g></g><g transform="translate(-78,2) scale(1,1)"><rect fill="#ffffff" height="28" stroke="none" width="13" x="1242" y="648"/></g><g transform="translate(-78,2) scale(1,1)"><path d="M 1242 648 L 1255 648 L 1255 676 L 1242 676 L 1242 648 Z Z" fill="none" stroke="#000000" stroke-miterlimit="10"/></g><g transform="translate(-78,2) scale(1,1)"><path d="M 1242 674 L 1013 674" fill="none" stroke="#000000" stroke-dasharray="3" stroke-miterlimit="10"/></g><g transform="translate(-78,2) scale(1,1)"><path d="M 1023.1626748576241 669.790482243984 L 1013 674 L 1023.1626748576241 678.209517756016" fill="none" stroke="#000000" stroke-miterlimit="10"/></g><g transform="translate(-78,2) scale(1,1)"><g><path fill="none" stroke="none"/><text fill="#000000" font-family="Arial" font-size="13px" font-style="normal" font-weight="normal" stroke="none" text-decoration="none" x="1099.5" y="688.5">12 : esito</text></g></g><g transform="translate(-78,2) scale(1,1)"><path d="M 1000 680 L 741 680" fill="none" stroke="#000000" stroke-dasharray="3" stroke-miterlimit="10"/></g><g transform="translate(-78,2) scale(1,1)"><path d="M 751.1626748576241 675.790482243984 L 741 680 L 751.1626748576241 684.209517756016" fill="none" stroke="#000000" stroke-miterlimit="10"/></g><g transform="translate(-78,2) scale(1,1)"><g><path fill="none" stroke="none"/><text fill="#000000" font-family="Arial" font-size="13px" font-style="normal" font-weight="normal" stroke="none" text-decoration="none" x="842.5" y="694.5">13 : esito</text></g></g><g transform="translate(-78,2) scale(1,1)"><path d="M 741 712 L 771 712 L 771 732 L 747 732" fill="none" stroke="#000000" stroke-miterlimit="10"/></g><g transform="translate(-78,2) scale(1,1)"><path d="M 757.1626748576241 727.790482243984 L 747 732 L 757.1626748576241 736.209517756016" fill="#000000" stroke="none"/></g><g transform="translate(-78,2) scale(1,1)"><path d="M 757.1626748576241 727.790482243984 L 747 732 L 757.1626748576241 736.209517756016 L 757.1626748576241 727.790482243984" fill="none" stroke="#000000" stroke-miterlimit="10"/></g><g transform="translate(-78,2) scale(1,1)"><path d="M 731 782 L 751 802" fill="none" stroke="#000000" stroke-miterlimit="10"/></g><g transform="translate(-78,2) scale(1,1)"><path d="M 751 782 L 731 802" fill="none" stroke="#000000" stroke-miterlimit="10"/></g><g transform="translate(-78,2) scale(1,1)"><g><path fill="none" stroke="none"/><text fill="#000000" font-family="Arial" font-size="13px" font-style="normal" font-weight="normal" stroke="none" text-decoration="none" x="775.5" y="725.5">14 : </text></g></g><g transform="translate(-78,2) scale(1,1)"><g><path fill="none" stroke="none"/><text fill="#000000" font-family="Arial" font-size="13px" font-style="normal" font-weight="normal" stroke="none" text-decoration="none" x="758.5" y="746.5">«destroy»</text></g></g><g transform="translate(-78,2) scale(1,1)"><rect fill="#ffffff" height="28" stroke="none" width="13" x="734" y="732"/></g><g transform="translate(-78,2) scale(1,1)"><path d="M 734 732 L 747 732 L 747 760 L 734 760 L 734 732 Z Z" fill="none" stroke="#000000" stroke-miterlimit="10"/></g><g transform="translate(-78,2) scale(1,1)"><path d="M 734 744 L 497 744" fill="none" stroke="#000000" stroke-miterlimit="10"/></g><g transform="translate(-78,2) scale(1,1)"><path d="M 507.16267485762415 739.790482243984 L 497 744 L 507.16267485762415 748.209517756016" fill="#000000" stroke="none"/></g><g transform="translate(-78,2) scale(1,1)"><path d="M 507.16267485762415 739.790482243984 L 497 744 L 507.16267485762415 748.209517756016 L 507.16267485762415 739.790482243984" fill="none" stroke="#000000" stroke-miterlimit="10"/></g><g transform="translate(-78,2) scale(1,1)"><path d="M 481 779 L 501 799" fill="none" stroke="#000000" stroke-miterlimit="10"/></g><g transform="translate(-78,2) scale(1,1)"><path d="M 501 779 L 481 799" fill="none" stroke="#000000" stroke-miterlimit="10"/></g><g transform="translate(-78,2) scale(1,1)"><g><path fill="none" stroke="none"/><text fill="#000000" font-family="Arial" font-size="13px" font-style="normal" font-weight="normal" stroke="none" text-decoration="none" x="601.5" y="758.5">15 : </text></g></g><g transform="translate(-78,2) scale(1,1)"><g><path fill="none" stroke="none"/><text fill="#000000" font-family="Arial" font-size="13px" font-style="normal" font-weight="normal" stroke="none" text-decoration="none" x="585.5" y="773.5">«destroy»</text></g></g><g transform="translate(-78,2) scale(1,1)"><rect fill="#ffffff" height="28" stroke="none" width="13" x="484" y="744"/></g><g transform="translate(-78,2) scale(1,1)"><path d="M 484 744 L 497 744 L 497 772 L 484 772 L 484 744 Z Z" fill="none" stroke="#000000" stroke-miterlimit="10"/></g><g transform="translate(-78,2) scale(1,1)"><path d="M 152 232 L 1095 232 L 1095 592 L 152 592 L 152 232" fill="none" stroke="#000000" stroke-miterlimit="10"/></g><g transform="translate(-78,2) scale(1,1)"><path d="M 152 232 L 152 254 L 308.943359375 254 L 319.943359375 243 L 319.943359375 232 L 152 232" fill="#ffffff" stroke="none"/></g><g transform="translate(-78,2) scale(1,1)"><path d="M 152 232 L 152 254 L 308.943359375 254 L 319.943359375 243 L 319.943359375 232 L 152 232 L 152 232" fill="none" stroke="#000000" stroke-miterlimit="10"/></g><g transform="translate(-78,2) scale(1,1)"><g><path fill="none" stroke="none"/><text fill="#000000" font-family="Arial" font-size="13px" font-style="normal" font-weight="normal" stroke="none" text-decoration="none" x="187.578125" y="247.5">[quantita non valida]</text></g></g><g transform="translate(-78,2) scale(1,1)"><g><path fill="none" stroke="none"/><text fill="#000000" font-family="Arial" font-size="13px" font-style="normal" font-weight="bold" stroke="none" text-decoration="none" x="155.57177734375" y="247.5">loop</text></g></g><g transform="translate(-78,2) scale(1,1)"><path d="M 168 384 L 832 384 L 832 560 L 168 560 L 168 384" fill="none" stroke="#000000" stroke-miterlimit="10"/></g><g transform="translate(-78,2) scale(1,1)"><path d="M 168 384 L 168 406 L 318.43701171875 406 L 329.43701171875 395 L 329.43701171875 384 L 168 384" fill="#ffffff" stroke="none"/></g><g transform="translate(-78,2) scale(1,1)"><path d="M 168 384 L 168 406 L 318.43701171875 406 L 329.43701171875 395 L 329.43701171875 384 L 168 384 L 168 384" fill="none" stroke="#000000" stroke-miterlimit="10"/></g><g transform="translate(-78,2) scale(1,1)"><g><path fill="none" stroke="none"/><text fill="#000000" font-family="Arial" font-size="13px" font-style="normal" font-weight="normal" stroke="none" text-decoration="none" x="197.07177734375" y="399.5">[quantita non valida]</text></g></g><g transform="translate(-78,2) scale(1,1)"><g><path fill="none" stroke="none"/><text fill="#000000" font-family="Arial" font-size="13px" font-style="normal" font-weight="bold" stroke="none" text-decoration="none" x="171.930419921875" y="399.5">opt</text></g></g></g></svg>