<?xml version="1.0" encoding="UTF-8" standalone="no"?><svg xmlns="http://www.w3.org/2000/svg" xmlns:xlink="http://www.w3.org/1999/xlink" height="692" version="1.1" width="1188"><defs/><g><g transform="translate(2,2) scale(1,1)"><path d="M 8 8 L 1176 8 L 1176 680 L 8 680 L 8 8" fill="none" stroke="#000000" stroke-miterlimit="10"/></g><g transform="translate(2,2) scale(1,1)"><path d="M 8 8 L 8 30 L 158.900390625 30 L 169.900390625 19 L 169.900390625 8 L 8 8" fill="#ffffff" stroke="none"/></g><g transform="translate(2,2) scale(1,1)"><path d="M 8 8 L 8 30 L 158.900390625 30 L 169.900390625 19 L 169.900390625 8 L 8 8 L 8 8" fill="none" stroke="#000000" stroke-miterlimit="10"/></g><g transform="translate(2,2) scale(1,1)"><g><path fill="none" stroke="none"/><text fill="#000000" font-family="Arial" font-size="13px" font-style="normal" font-weight="normal" stroke="none" text-decoration="none" x="32.72998046875" y="23.5">Visualizza Consegne</text></g></g><g transform="translate(2,2) scale(1,1)"><g><path fill="none" stroke="none"/><text fill="#000000" font-family="Arial" font-size="13px" font-style="normal" font-weight="bold" stroke="none" text-decoration="none" x="12.279541015625" y="23.5">sd</text></g></g><g transform="translate(2,2) scale(1,1)"><path d="M 85.6985946377841 47.3 C 85.6985946377841 43.82060576 88.57699635996592 41 92.127685546875 41 C 95.67837473378408 41 98.5567764559659 43.82060576 98.5567764559659 47.3 C 98.5567764559659 50.779394239999995 95.67837473378408 53.6 92.127685546875 53.6 C 88.57699635996592 53.6 85.6985946377841 50.779394239999995 85.6985946377841 47.3 Z" fill="#ffffff" stroke="none"/></g><g transform="translate(2,2) scale(1,1)"><path d="M 85.6985946377841 47.3 C 85.6985946377841 43.82060576 88.57699635996592 41 92.127685546875 41 C 95.67837473378408 41 98.5567764559659 43.82060576 98.5567764559659 47.3 C 98.5567764559659 50.779394239999995 95.67837473378408 53.6 92.127685546875 53.6 C 88.57699635996592 53.6 85.6985946377841 50.779394239999995 85.6985946377841 47.3 Z" fill="none" stroke="#000000" stroke-miterlimit="10"/></g><g transform="translate(2,2) scale(1,1)"><path d="M 92.127685546875 53.6 L 92.127685546875 66.4" fill="none" stroke="#000000" stroke-miterlimit="10"/></g><g transform="translate(2,2) scale(1,1)"><path d="M 85.32041281960227 58.4 L 98.93495827414773 58.4" fill="none" stroke="#000000" stroke-miterlimit="10"/></g><g transform="translate(2,2) scale(1,1)"><path d="M 92.127685546875 66.4 L 82.67314009232955 79" fill="none" stroke="#000000" stroke-miterlimit="10"/></g><g transform="translate(2,2) scale(1,1)"><path d="M 92.127685546875 66.4 L 101.58223100142045 79" fill="none" stroke="#000000" stroke-miterlimit="10"/></g><g transform="translate(2,2) scale(1,1)"><g><path fill="none" stroke="none"/><text fill="#000000" font-family="Arial" font-size="13px" font-style="normal" font-weight="bold" stroke="none" text-decoration="none" x="62.8681640625" y="97.5">: Corriere</text></g></g><g transform="translate(2,2) scale(1,1)"><path d="M 93.5 105 L 93.5 155" fill="none" stroke="#000000" stroke-dasharray="3" stroke-miterlimit="10"/></g><g transform="translate(2,2) scale(1,1)"><path d="M 1110.100450106534 47.3 C 1110.100450106534 43.82060576 1112.978851828716 41 1116.529541015625 41 C 1120.080230202534 41 1122.958631924716 43.82060576 1122.958631924716 47.3 C 1122.958631924716 50.779394239999995 1120.080230202534 53.6 1116.529541015625 53.6 C 1112.978851828716 53.6 1110.100450106534 50.779394239999995 1110.100450106534 47.3 Z" fill="#ffffff" stroke="none"/></g><g transform="translate(2,2) scale(1,1)"><path d="M 1110.100450106534 47.3 C 1110.100450106534 43.82060576 1112.978851828716 41 1116.529541015625 41 C 1120.080230202534 41 1122.958631924716 43.82060576 1122.958631924716 47.3 C 1122.958631924716 50.779394239999995 1120.080230202534 53.6 1116.529541015625 53.6 C 1112.978851828716 53.6 1110.100450106534 50.779394239999995 1110.100450106534 47.3 Z" fill="none" stroke="#000000" stroke-miterlimit="10"/></g><g transform="translate(2,2) scale(1,1)"><path d="M 1116.529541015625 53.6 L 1116.529541015625 66.4" fill="none" stroke="#000000" stroke-miterlimit="10"/></g><g transform="translate(2,2) scale(1,1)"><path d="M 1109.7222682883523 58.4 L 1123.3368137428977 58.4" fill="none" stroke="#000000" stroke-miterlimit="10"/></g><g transform="translate(2,2) scale(1,1)"><path d="M 1116.529541015625 66.4 L 1107.0749955610795 79" fill="none" stroke="#000000" stroke-miterlimit="10"/></g><g transform="translate(2,2) scale(1,1)"><path d="M 1116.529541015625 66.4 L 1125.9840864701705 79" fill="none" stroke="#000000" stroke-miterlimit="10"/></g><g transform="translate(2,2) scale(1,1)"><g><path fill="none" stroke="none"/><text fill="#000000" font-family="Arial" font-size="13px" font-style="normal" font-weight="bold" stroke="none" text-decoration="none" x="1068.5" y="97.5">: DBMSAzienda</text></g></g><g transform="translate(2,2) scale(1,1)"><path d="M 1117.5 105 L 1117.5 370" fill="none" stroke="#000000" stroke-dasharray="3" stroke-miterlimit="10"/></g><g transform="translate(2,2) scale(1,1)"><rect fill="#C0C0C0" height="39" opacity="0.2" stroke="none" width="192.84326171875" x="183" y="47"/></g><g transform="translate(2,2) scale(1,1)"><rect fill="#ffffff" height="39" stroke="none" width="192.84326171875" x="176" y="40"/></g><g transform="translate(2,2) scale(1,1)"><path d="M 176 40 L 368.84326171875 40 L 368.84326171875 79 L 176 79 L 176 40 Z Z" fill="none" stroke="#000000" stroke-miterlimit="10"/></g><g transform="translate(2,2) scale(1,1)"><g><path fill="none" stroke="none"/><text fill="#000000" font-family="Arial" font-size="13px" font-style="normal" font-weight="normal" stroke="none" text-decoration="none" x="237.36669921875" y="55.5">«Boundary»</text></g></g><g transform="translate(2,2) scale(1,1)"><g><path fill="none" stroke="none"/><text fill="#000000" font-family="Arial" font-size="13px" font-style="normal" font-weight="bold" stroke="none" text-decoration="none" x="185.5" y="70.5">BottoneVisualizzaConsegne</text></g></g><g transform="translate(2,2) scale(1,1)"><path d="M 273.5 80 L 273.5 171" fill="none" stroke="#000000" stroke-dasharray="3" stroke-miterlimit="10"/></g><g transform="translate(2,2) scale(1,1)"><rect fill="#C0C0C0" height="39" opacity="0.2" stroke="none" width="226.0986328125" x="407" y="131"/></g><g transform="translate(2,2) scale(1,1)"><rect fill="#ffffff" height="39" stroke="none" width="226.0986328125" x="400" y="124"/></g><g transform="translate(2,2) scale(1,1)"><path d="M 400 124 L 626.0986328125 124 L 626.0986328125 163 L 400 163 L 400 124 Z Z" fill="none" stroke="#000000" stroke-miterlimit="10"/></g><g transform="translate(2,2) scale(1,1)"><g><path fill="none" stroke="none"/><text fill="#000000" font-family="Arial" font-size="13px" font-style="normal" font-weight="normal" stroke="none" text-decoration="none" x="484.86572265625" y="139.5">«Control»</text></g></g><g transform="translate(2,2) scale(1,1)"><g><path fill="none" stroke="none"/><text fill="#000000" font-family="Arial" font-size="13px" font-style="normal" font-weight="bold" stroke="none" text-decoration="none" x="409.5" y="154.5">GestoreVisualizzazioneConsegne</text></g></g><g transform="translate(2,2) scale(1,1)"><path d="M 514.5 164 L 514.5 656" fill="none" stroke="#000000" stroke-dasharray="3" stroke-miterlimit="10"/></g><g transform="translate(2,2) scale(1,1)"><rect fill="#C0C0C0" height="39" opacity="0.2" stroke="none" width="208.77587890625" x="159" y="195"/></g><g transform="translate(2,2) scale(1,1)"><rect fill="#ffffff" height="39" stroke="none" width="208.77587890625" x="152" y="188"/></g><g transform="translate(2,2) scale(1,1)"><path d="M 152 188 L 360.77587890625 188 L 360.77587890625 227 L 152 227 L 152 188 Z Z" fill="none" stroke="#000000" stroke-miterlimit="10"/></g><g transform="translate(2,2) scale(1,1)"><g><path fill="none" stroke="none"/><text fill="#000000" font-family="Arial" font-size="13px" font-style="normal" font-weight="normal" stroke="none" text-decoration="none" x="221.3330078125" y="203.5">«Boundary»</text></g></g><g transform="translate(2,2) scale(1,1)"><g><path fill="none" stroke="none"/><text fill="#000000" font-family="Arial" font-size="13px" font-style="normal" font-weight="bold" stroke="none" text-decoration="none" x="161.5" y="218.5">InterfaccaiVisualizzaConsegne</text></g></g><g transform="translate(2,2) scale(1,1)"><path d="M 257.5 228 L 257.5 395" fill="none" stroke="#000000" stroke-dasharray="3" stroke-miterlimit="10"/></g><g transform="translate(2,2) scale(1,1)"><rect fill="#C0C0C0" height="39" opacity="0.2" stroke="none" width="108.5654296875" x="927" y="47"/></g><g transform="translate(2,2) scale(1,1)"><rect fill="#ffffff" height="39" stroke="none" width="108.5654296875" x="920" y="40"/></g><g transform="translate(2,2) scale(1,1)"><path d="M 920 40 L 1028.5654296875 40 L 1028.5654296875 79 L 920 79 L 920 40 Z Z" fill="none" stroke="#000000" stroke-miterlimit="10"/></g><g transform="translate(2,2) scale(1,1)"><g><path fill="none" stroke="none"/><text fill="#000000" font-family="Arial" font-size="13px" font-style="normal" font-weight="normal" stroke="none" text-decoration="none" x="939.227783203125" y="55.5">«Boundary»</text></g></g><g transform="translate(2,2) scale(1,1)"><g><path fill="none" stroke="none"/><text fill="#000000" font-family="Arial" font-size="13px" font-style="normal" font-weight="bold" stroke="none" text-decoration="none" x="929.5" y="70.5">DBMSDaemon</text></g></g><g transform="translate(2,2) scale(1,1)"><path d="M 975.5 80 L 975.5 398" fill="none" stroke="#000000" stroke-dasharray="3" stroke-miterlimit="10"/></g><g transform="translate(2,2) scale(1,1)"><rect fill="#C0C0C0" height="39" opacity="0.2" stroke="none" width="142.53173828125" x="623" y="47"/></g><g transform="translate(2,2) scale(1,1)"><rect fill="#ffffff" height="39" stroke="none" width="142.53173828125" x="616" y="40"/></g><g transform="translate(2,2) scale(1,1)"><path d="M 616 40 L 758.53173828125 40 L 758.53173828125 79 L 616 79 L 616 40 Z Z" fill="none" stroke="#000000" stroke-miterlimit="10"/></g><g transform="translate(2,2) scale(1,1)"><g><path fill="none" stroke="none"/><text fill="#000000" font-family="Arial" font-size="13px" font-style="normal" font-weight="normal" stroke="none" text-decoration="none" x="652.2109375" y="55.5">«Boundary»</text></g></g><g transform="translate(2,2) scale(1,1)"><g><path fill="none" stroke="none"/><text fill="#000000" font-family="Arial" font-size="13px" font-style="normal" font-weight="bold" stroke="none" text-decoration="none" x="625.5" y="70.5">BoundaryDiSistema</text></g></g><g transform="translate(2,2) scale(1,1)"><path d="M 688.5 80 L 688.5 286" fill="none" stroke="#000000" stroke-dasharray="3" stroke-miterlimit="10"/></g><g transform="translate(2,2) scale(1,1)"><rect fill="#C0C0C0" height="39" opacity="0.2" stroke="none" width="130.99169921875" x="783" y="47"/></g><g transform="translate(2,2) scale(1,1)"><rect fill="#ffffff" height="39" stroke="none" width="130.99169921875" x="776" y="40"/></g><g transform="translate(2,2) scale(1,1)"><path d="M 776 40 L 906.99169921875 40 L 906.99169921875 79 L 776 79 L 776 40 Z Z" fill="none" stroke="#000000" stroke-miterlimit="10"/></g><g transform="translate(2,2) scale(1,1)"><g><path fill="none" stroke="none"/><text fill="#000000" font-family="Arial" font-size="13px" font-style="normal" font-weight="normal" stroke="none" text-decoration="none" x="813.312255859375" y="55.5">«Control»</text></g></g><g transform="translate(2,2) scale(1,1)"><g><path fill="none" stroke="none"/><text fill="#000000" font-family="Arial" font-size="13px" font-style="normal" font-weight="bold" stroke="none" text-decoration="none" x="785.5" y="70.5">GestoreDiSistema</text></g></g><g transform="translate(2,2) scale(1,1)"><path d="M 842.5 80 L 842.5 282" fill="none" stroke="#000000" stroke-dasharray="3" stroke-miterlimit="10"/></g><g transform="translate(2,2) scale(1,1)"><rect fill="#C0C0C0" height="39" opacity="0.2" stroke="none" width="71.736328125" x="391" y="267"/></g><g transform="translate(2,2) scale(1,1)"><rect fill="#ffffff" height="39" stroke="none" width="71.736328125" x="384" y="260"/></g><g transform="translate(2,2) scale(1,1)"><path d="M 384 260 L 455.736328125 260 L 455.736328125 299 L 384 299 L 384 260 Z Z" fill="none" stroke="#000000" stroke-miterlimit="10"/></g><g transform="translate(2,2) scale(1,1)"><g><path fill="none" stroke="none"/><text fill="#000000" font-family="Arial" font-size="13px" font-style="normal" font-weight="normal" stroke="none" text-decoration="none" x="396.3818359375" y="275.5">«Entity»</text></g></g><g transform="translate(2,2) scale(1,1)"><g><path fill="none" stroke="none"/><text fill="#000000" font-family="Arial" font-size="13px" font-style="normal" font-weight="bold" stroke="none" text-decoration="none" x="405.779541015625" y="290.5">Data</text></g></g><g transform="translate(2,2) scale(1,1)"><path d="M 420.5 300 L 420.5 352" fill="none" stroke="#000000" stroke-dasharray="3" stroke-miterlimit="10"/></g><g transform="translate(2,2) scale(1,1)"><rect fill="#C0C0C0" height="39" opacity="0.2" stroke="none" width="77.50634765625" x="343" y="371"/></g><g transform="translate(2,2) scale(1,1)"><rect fill="#ffffff" height="39" stroke="none" width="77.50634765625" x="336" y="364"/></g><g transform="translate(2,2) scale(1,1)"><path d="M 336 364 L 413.50634765625 364 L 413.50634765625 403 L 336 403 L 336 364 Z Z" fill="none" stroke="#000000" stroke-miterlimit="10"/></g><g transform="translate(2,2) scale(1,1)"><g><path fill="none" stroke="none"/><text fill="#000000" font-family="Arial" font-size="13px" font-style="normal" font-weight="normal" stroke="none" text-decoration="none" x="351.266845703125" y="379.5">«Entity»</text></g></g><g transform="translate(2,2) scale(1,1)"><g><path fill="none" stroke="none"/><text fill="#000000" font-family="Arial" font-size="13px" font-style="normal" font-weight="bold" stroke="none" text-decoration="none" x="345.5" y="394.5">ListaColli</text></g></g><g transform="translate(2,2) scale(1,1)"><path d="M 375.5 404 L 375.5 453" fill="none" stroke="#000000" stroke-dasharray="3" stroke-miterlimit="10"/></g><g transform="translate(2,2) scale(1,1)"><rect fill="#C0C0C0" height="39" opacity="0.2" stroke="none" width="224.47998046875" x="279" y="531"/></g><g transform="translate(2,2) scale(1,1)"><rect fill="#ffffff" height="39" stroke="none" width="224.47998046875" x="272" y="524"/></g><g transform="translate(2,2) scale(1,1)"><path d="M 272 524 L 496.47998046875 524 L 496.47998046875 563 L 272 563 L 272 524 Z Z" fill="none" stroke="#000000" stroke-miterlimit="10"/></g><g transform="translate(2,2) scale(1,1)"><g><path fill="none" stroke="none"/><text fill="#000000" font-family="Arial" font-size="13px" font-style="normal" font-weight="normal" stroke="none" text-decoration="none" x="349.18505859375" y="539.5">«Boundary»</text></g></g><g transform="translate(2,2) scale(1,1)"><g><path fill="none" stroke="none"/><text fill="#000000" font-family="Arial" font-size="13px" font-style="normal" font-weight="bold" stroke="none" text-decoration="none" x="281.5" y="554.5">BottoneFirmaConsegna[id=collo]</text></g></g><g transform="translate(2,2) scale(1,1)"><path d="M 385.5 564 L 385.5 648" fill="none" stroke="#000000" stroke-dasharray="3" stroke-miterlimit="10"/></g><g transform="translate(2,2) scale(1,1)"><path d="M 93 129 L 266 129" fill="none" stroke="#000000" stroke-miterlimit="10"/></g><g transform="translate(2,2) scale(1,1)"><path d="M 255.83732514237585 133.209517756016 L 266 129 L 255.83732514237585 124.79048224398402" fill="#000000" stroke="none"/></g><g transform="translate(2,2) scale(1,1)"><path d="M 255.83732514237585 133.209517756016 L 266 129 L 255.83732514237585 124.79048224398402 L 255.83732514237585 133.209517756016" fill="none" stroke="#000000" stroke-miterlimit="10"/></g><g transform="translate(2,2) scale(1,1)"><g><path fill="none" stroke="none"/><text fill="#000000" font-family="Arial" font-size="13px" font-style="normal" font-weight="normal" stroke="none" text-decoration="none" x="150.71630859375" y="123.5">1 : click( )</text></g></g><g transform="translate(2,2) scale(1,1)"><rect fill="#ffffff" height="28" stroke="none" width="13" x="266" y="129"/></g><g transform="translate(2,2) scale(1,1)"><path d="M 266 129 L 279 129 L 279 157 L 266 157 L 266 129 Z Z" fill="none" stroke="#000000" stroke-miterlimit="10"/></g><g transform="translate(2,2) scale(1,1)"><path d="M 279 144 L 400 144" fill="none" stroke="#000000" stroke-dasharray="3" stroke-miterlimit="10"/></g><g transform="translate(2,2) scale(1,1)"><path d="M 389.83732514237585 148.209517756016 L 400 144 L 389.83732514237585 139.790482243984" fill="none" stroke="#000000" stroke-miterlimit="10"/></g><g transform="translate(2,2) scale(1,1)"><g><path fill="none" stroke="none"/><text fill="#000000" font-family="Arial" font-size="13px" font-style="normal" font-weight="normal" stroke="none" text-decoration="none" x="329.5" y="138.5">2 : </text></g></g><g transform="translate(2,2) scale(1,1)"><g><path fill="none" stroke="none"/><text fill="#000000" font-family="Arial" font-size="13px" font-style="normal" font-weight="normal" stroke="none" text-decoration="none" x="313.5" y="123.5">«create»</text></g></g><g transform="translate(2,2) scale(1,1)"><path d="M 514 208 L 360.77587890625 208" fill="none" stroke="#000000" stroke-dasharray="3" stroke-miterlimit="10"/></g><g transform="translate(2,2) scale(1,1)"><path d="M 370.93855376387415 203.790482243984 L 360.77587890625 208 L 370.93855376387415 212.209517756016" fill="none" stroke="#000000" stroke-miterlimit="10"/></g><g transform="translate(2,2) scale(1,1)"><g><path fill="none" stroke="none"/><text fill="#000000" font-family="Arial" font-size="13px" font-style="normal" font-weight="normal" stroke="none" text-decoration="none" x="426.5" y="222.5">3 : </text></g></g><g transform="translate(2,2) scale(1,1)"><g><path fill="none" stroke="none"/><text fill="#000000" font-family="Arial" font-size="13px" font-style="normal" font-weight="normal" stroke="none" text-decoration="none" x="410.5" y="237.5">«create»</text></g></g><g transform="translate(2,2) scale(1,1)"><path d="M 514 224 L 681 224" fill="none" stroke="#000000" stroke-miterlimit="10"/></g><g transform="translate(2,2) scale(1,1)"><path d="M 670.8373251423759 228.209517756016 L 681 224 L 670.8373251423758 219.790482243984" fill="#000000" stroke="none"/></g><g transform="translate(2,2) scale(1,1)"><path d="M 670.8373251423759 228.209517756016 L 681 224 L 670.8373251423758 219.790482243984 L 670.8373251423759 228.209517756016" fill="none" stroke="#000000" stroke-miterlimit="10"/></g><g transform="translate(2,2) scale(1,1)"><g><path fill="none" stroke="none"/><text fill="#000000" font-family="Arial" font-size="13px" font-style="normal" font-weight="normal" stroke="none" text-decoration="none" x="557.5" y="218.5">4 : chiediData</text></g></g><g transform="translate(2,2) scale(1,1)"><rect fill="#ffffff" height="40" stroke="none" width="13" x="681" y="224"/></g><g transform="translate(2,2) scale(1,1)"><path d="M 681 224 L 694 224 L 694 264 L 681 264 L 681 224 Z Z" fill="none" stroke="#000000" stroke-miterlimit="10"/></g><g transform="translate(2,2) scale(1,1)"><path d="M 694 232 L 835 232" fill="none" stroke="#000000" stroke-miterlimit="10"/></g><g transform="translate(2,2) scale(1,1)"><path d="M 824.8373251423759 236.209517756016 L 835 232 L 824.8373251423758 227.790482243984" fill="#000000" stroke="none"/></g><g transform="translate(2,2) scale(1,1)"><path d="M 824.8373251423759 236.209517756016 L 835 232 L 824.8373251423758 227.790482243984 L 824.8373251423759 236.209517756016" fill="none" stroke="#000000" stroke-miterlimit="10"/></g><g transform="translate(2,2) scale(1,1)"><g><path fill="none" stroke="none"/><text fill="#000000" font-family="Arial" font-size="13px" font-style="normal" font-weight="normal" stroke="none" text-decoration="none" x="724.5" y="226.5">5 : chiediData</text></g></g><g transform="translate(2,2) scale(1,1)"><rect fill="#ffffff" height="28" stroke="none" width="13" x="835" y="232"/></g><g transform="translate(2,2) scale(1,1)"><path d="M 835 232 L 848 232 L 848 260 L 835 260 L 835 232 Z Z" fill="none" stroke="#000000" stroke-miterlimit="10"/></g><g transform="translate(2,2) scale(1,1)"><path d="M 835 252 L 694 252" fill="none" stroke="#000000" stroke-dasharray="3" stroke-miterlimit="10"/></g><g transform="translate(2,2) scale(1,1)"><path d="M 704.1626748576241 247.790482243984 L 694 252 L 704.1626748576241 256.209517756016" fill="none" stroke="#000000" stroke-miterlimit="10"/></g><g transform="translate(2,2) scale(1,1)"><g><path fill="none" stroke="none"/><text fill="#000000" font-family="Arial" font-size="13px" font-style="normal" font-weight="normal" stroke="none" text-decoration="none" x="740.838623046875" y="266.5">6 : data</text></g></g><g transform="translate(2,2) scale(1,1)"><path d="M 681 256 L 514 256" fill="none" stroke="#000000" stroke-dasharray="3" stroke-miterlimit="10"/></g><g transform="translate(2,2) scale(1,1)"><path d="M 524.1626748576241 251.790482243984 L 514 256 L 524.1626748576241 260.209517756016" fill="none" stroke="#000000" stroke-miterlimit="10"/></g><g transform="translate(2,2) scale(1,1)"><g><path fill="none" stroke="none"/><text fill="#000000" font-family="Arial" font-size="13px" font-style="normal" font-weight="normal" stroke="none" text-decoration="none" x="573.838623046875" y="270.5">7 : data</text></g></g><g transform="translate(2,2) scale(1,1)"><path d="M 514 280 L 455.736328125 280" fill="none" stroke="#000000" stroke-dasharray="3" stroke-miterlimit="10"/></g><g transform="translate(2,2) scale(1,1)"><path d="M 465.89900298262415 275.790482243984 L 455.736328125 280 L 465.89900298262415 284.209517756016" fill="none" stroke="#000000" stroke-miterlimit="10"/></g><g transform="translate(2,2) scale(1,1)"><g><path fill="none" stroke="none"/><text fill="#000000" font-family="Arial" font-size="13px" font-style="normal" font-weight="normal" stroke="none" text-decoration="none" x="473.5" y="294.5">8 : </text></g></g><g transform="translate(2,2) scale(1,1)"><g><path fill="none" stroke="none"/><text fill="#000000" font-family="Arial" font-size="13px" font-style="normal" font-weight="normal" stroke="none" text-decoration="none" x="457.5" y="309.5">«create»</text></g></g><g transform="translate(2,2) scale(1,1)"><path d="M 514 323 L 968 323" fill="none" stroke="#000000" stroke-miterlimit="10"/></g><g transform="translate(2,2) scale(1,1)"><path d="M 957.8373251423759 327.209517756016 L 968 323 L 957.8373251423758 318.790482243984" fill="#000000" stroke="none"/></g><g transform="translate(2,2) scale(1,1)"><path d="M 957.8373251423759 327.209517756016 L 968 323 L 957.8373251423758 318.790482243984 L 957.8373251423759 327.209517756016" fill="none" stroke="#000000" stroke-miterlimit="10"/></g><g transform="translate(2,2) scale(1,1)"><g><path fill="none" stroke="none"/><text fill="#000000" font-family="Arial" font-size="13px" font-style="normal" font-weight="normal" stroke="none" text-decoration="none" x="668.5" y="317.5">9 : chiediConsegne(data)</text></g></g><g transform="translate(2,2) scale(1,1)"><rect fill="#ffffff" height="53" stroke="none" width="13" x="968" y="323"/></g><g transform="translate(2,2) scale(1,1)"><path d="M 968 323 L 981 323 L 981 376 L 968 376 L 968 323 Z Z" fill="none" stroke="#000000" stroke-miterlimit="10"/></g><g transform="translate(2,2) scale(1,1)"><path d="M 981 336 L 1110 336" fill="none" stroke="#000000" stroke-miterlimit="10"/></g><g transform="translate(2,2) scale(1,1)"><path d="M 1099.837325142376 340.209517756016 L 1110 336 L 1099.837325142376 331.790482243984" fill="#000000" stroke="none"/></g><g transform="translate(2,2) scale(1,1)"><path d="M 1099.837325142376 340.209517756016 L 1110 336 L 1099.837325142376 331.790482243984 L 1099.837325142376 340.209517756016" fill="none" stroke="#000000" stroke-miterlimit="10"/></g><g transform="translate(2,2) scale(1,1)"><g><path fill="none" stroke="none"/><text fill="#000000" font-family="Arial" font-size="13px" font-style="normal" font-weight="normal" stroke="none" text-decoration="none" x="983.5" y="330.5">10 : queryConsegne(data)</text></g></g><g transform="translate(2,2) scale(1,1)"><rect fill="#ffffff" height="28" stroke="none" width="13" x="1110" y="336"/></g><g transform="translate(2,2) scale(1,1)"><path d="M 1110 336 L 1123 336 L 1123 364 L 1110 364 L 1110 336 Z Z" fill="none" stroke="#000000" stroke-miterlimit="10"/></g><g transform="translate(2,2) scale(1,1)"><path d="M 1110 356 L 981 356" fill="none" stroke="#000000" stroke-dasharray="3" stroke-miterlimit="10"/></g><g transform="translate(2,2) scale(1,1)"><path d="M 991.1626748576241 351.790482243984 L 981 356 L 991.1626748576241 360.209517756016" fill="none" stroke="#000000" stroke-miterlimit="10"/></g><g transform="translate(2,2) scale(1,1)"><g><path fill="none" stroke="none"/><text fill="#000000" font-family="Arial" font-size="13px" font-style="normal" font-weight="normal" stroke="none" text-decoration="none" x="1007.2890625" y="370.5">11 : listaColli</text></g></g><g transform="translate(2,2) scale(1,1)"><path d="M 968 368 L 514 368" fill="none" stroke="#000000" stroke-dasharray="3" stroke-miterlimit="10"/></g><g transform="translate(2,2) scale(1,1)"><path d="M 524.1626748576241 363.790482243984 L 514 368 L 524.1626748576241 372.209517756016" fill="none" stroke="#000000" stroke-miterlimit="10"/></g><g transform="translate(2,2) scale(1,1)"><g><path fill="none" stroke="none"/><text fill="#000000" font-family="Arial" font-size="13px" font-style="normal" font-weight="normal" stroke="none" text-decoration="none" x="702.806640625" y="382.5">12 : listaColli</text></g></g><g transform="translate(2,2) scale(1,1)"><path d="M 514 384 L 413.50634765625 384" fill="none" stroke="#000000" stroke-dasharray="3" stroke-miterlimit="10"/></g><g transform="translate(2,2) scale(1,1)"><path d="M 423.66902251387415 379.790482243984 L 413.50634765625 384 L 423.66902251387415 388.209517756016" fill="none" stroke="#000000" stroke-miterlimit="10"/></g><g transform="translate(2,2) scale(1,1)"><g><path fill="none" stroke="none"/><text fill="#000000" font-family="Arial" font-size="13px" font-style="normal" font-weight="normal" stroke="none" text-decoration="none" x="449.5" y="398.5">13 : </text></g></g><g transform="translate(2,2) scale(1,1)"><g><path fill="none" stroke="none"/><text fill="#000000" font-family="Arial" font-size="13px" font-style="normal" font-weight="normal" stroke="none" text-decoration="none" x="436.5" y="413.5">«create»</text></g></g><g transform="translate(2,2) scale(1,1)"><path d="M 514 544 L 496.47998046875 544" fill="none" stroke="#000000" stroke-dasharray="3" stroke-miterlimit="10"/></g><g transform="translate(2,2) scale(1,1)"><path d="M 506.64265532637415 539.790482243984 L 496.47998046875 544 L 506.64265532637415 548.209517756016" fill="none" stroke="#000000" stroke-miterlimit="10"/></g><g transform="translate(2,2) scale(1,1)"><g><path fill="none" stroke="none"/><text fill="#000000" font-family="Arial" font-size="13px" font-style="normal" font-weight="normal" stroke="none" text-decoration="none" x="491.5" y="558.5">14 : </text></g></g><g transform="translate(2,2) scale(1,1)"><g><path fill="none" stroke="none"/><text fill="#000000" font-family="Arial" font-size="13px" font-style="normal" font-weight="normal" stroke="none" text-decoration="none" x="478.5" y="573.5">«create»</text></g></g><g transform="translate(2,2) scale(1,1)"><path d="M 136 488 L 535 488 L 535 664 L 136 664 L 136 488" fill="none" stroke="#000000" stroke-miterlimit="10"/></g><g transform="translate(2,2) scale(1,1)"><path d="M 136 488 L 136 510 L 253.892578125 510 L 264.892578125 499 L 264.892578125 488 L 136 488" fill="#ffffff" stroke="none"/></g><g transform="translate(2,2) scale(1,1)"><path d="M 136 488 L 136 510 L 253.892578125 510 L 264.892578125 499 L 264.892578125 488 L 136 488 L 136 488" fill="none" stroke="#000000" stroke-miterlimit="10"/></g><g transform="translate(2,2) scale(1,1)"><g><path fill="none" stroke="none"/><text fill="#000000" font-family="Arial" font-size="13px" font-style="normal" font-weight="normal" stroke="none" text-decoration="none" x="171.578125" y="503.5">PerOgniCollo</text></g></g><g transform="translate(2,2) scale(1,1)"><g><path fill="none" stroke="none"/><text fill="#000000" font-family="Arial" font-size="13px" font-style="normal" font-weight="bold" stroke="none" text-decoration="none" x="139.57177734375" y="503.5">loop</text></g></g><g transform="translate(2,2) scale(1,1)"><g><path fill="none" stroke="none"/><text fill="#000000" font-family="Arial" font-size="13px" font-style="normal" font-weight="normal" stroke="none" text-decoration="none" x="155.5" y="536.5">[ per ogni collo ]</text></g></g></g></svg>