<?xml version="1.0" encoding="UTF-8" standalone="no"?><svg xmlns="http://www.w3.org/2000/svg" xmlns:xlink="http://www.w3.org/1999/xlink" height="611" version="1.1" width="1173.4072265625"><defs/><g><g transform="translate(2,2) scale(1,1)"><path d="M 8 8 L 1160 8 L 1160 599 L 8 599 L 8 8" fill="none" stroke="#000000" stroke-miterlimit="10"/></g><g transform="translate(2,2) scale(1,1)"><path d="M 8 8 L 8 30 L 134.55712890625 30 L 145.55712890625 19 L 145.55712890625 8 L 8 8" fill="#ffffff" stroke="none"/></g><g transform="translate(2,2) scale(1,1)"><path d="M 8 8 L 8 30 L 134.55712890625 30 L 145.55712890625 19 L 145.55712890625 8 L 8 8 L 8 8" fill="none" stroke="#000000" stroke-miterlimit="10"/></g><g transform="translate(2,2) scale(1,1)"><g><path fill="none" stroke="none"/><text fill="#000000" font-family="Arial" font-size="13px" font-style="normal" font-weight="normal" stroke="none" text-decoration="none" x="32.72998046875" y="23.5">Ordine Periodico</text></g></g><g transform="translate(2,2) scale(1,1)"><g><path fill="none" stroke="none"/><text fill="#000000" font-family="Arial" font-size="13px" font-style="normal" font-weight="bold" stroke="none" text-decoration="none" x="12.279541015625" y="23.5">sd</text></g></g><g transform="translate(2,2) scale(1,1)"><path d="M 97.2330184659091 47.3 C 97.2330184659091 43.82060576 100.11142018809092 41 103.662109375 41 C 107.21279856190908 41 110.0912002840909 43.82060576 110.0912002840909 47.3 C 110.0912002840909 50.779394239999995 107.21279856190908 53.6 103.662109375 53.6 C 100.11142018809092 53.6 97.2330184659091 50.779394239999995 97.2330184659091 47.3 Z" fill="#ffffff" stroke="none"/></g><g transform="translate(2,2) scale(1,1)"><path d="M 97.2330184659091 47.3 C 97.2330184659091 43.82060576 100.11142018809092 41 103.662109375 41 C 107.21279856190908 41 110.0912002840909 43.82060576 110.0912002840909 47.3 C 110.0912002840909 50.779394239999995 107.21279856190908 53.6 103.662109375 53.6 C 100.11142018809092 53.6 97.2330184659091 50.779394239999995 97.2330184659091 47.3 Z" fill="none" stroke="#000000" stroke-miterlimit="10"/></g><g transform="translate(2,2) scale(1,1)"><path d="M 103.662109375 53.6 L 103.662109375 66.4" fill="none" stroke="#000000" stroke-miterlimit="10"/></g><g transform="translate(2,2) scale(1,1)"><path d="M 96.85483664772727 58.4 L 110.46938210227273 58.4" fill="none" stroke="#000000" stroke-miterlimit="10"/></g><g transform="translate(2,2) scale(1,1)"><path d="M 103.662109375 66.4 L 94.20756392045455 79" fill="none" stroke="#000000" stroke-miterlimit="10"/></g><g transform="translate(2,2) scale(1,1)"><path d="M 103.662109375 66.4 L 113.11665482954545 79" fill="none" stroke="#000000" stroke-miterlimit="10"/></g><g transform="translate(2,2) scale(1,1)"><g><path fill="none" stroke="none"/><text fill="#000000" font-family="Arial" font-size="13px" font-style="normal" font-weight="bold" stroke="none" text-decoration="none" x="78.8681640625" y="97.5">: Tempo</text></g></g><g transform="translate(2,2) scale(1,1)"><path d="M 104.5 105 L 104.5 576" fill="none" stroke="#000000" stroke-dasharray="3" stroke-miterlimit="10"/></g><g transform="translate(2,2) scale(1,1)"><rect fill="#C0C0C0" height="39" opacity="0.2" stroke="none" width="150.47265625" x="216" y="47"/></g><g transform="translate(2,2) scale(1,1)"><rect fill="#ffffff" height="39" stroke="none" width="150.47265625" x="209" y="40"/></g><g transform="translate(2,2) scale(1,1)"><path d="M 209 40 L 359.47265625 40 L 359.47265625 79 L 209 79 L 209 40 Z Z" fill="none" stroke="#000000" stroke-miterlimit="10"/></g><g transform="translate(2,2) scale(1,1)"><g><path fill="none" stroke="none"/><text fill="#000000" font-family="Arial" font-size="13px" font-style="normal" font-weight="normal" stroke="none" text-decoration="none" x="249.181396484375" y="55.5">«Boundary»</text></g></g><g transform="translate(2,2) scale(1,1)"><g><path fill="none" stroke="none"/><text fill="#000000" font-family="Arial" font-size="13px" font-style="normal" font-weight="bold" stroke="none" text-decoration="none" x="218.5" y="70.5">: BoundaryDiSistema</text></g></g><g transform="translate(2,2) scale(1,1)"><path d="M 285.5 80 L 285.5 560" fill="none" stroke="#000000" stroke-dasharray="3" stroke-miterlimit="10"/></g><g transform="translate(2,2) scale(1,1)"><rect fill="#C0C0C0" height="39" opacity="0.2" stroke="none" width="138.9326171875" x="422" y="47"/></g><g transform="translate(2,2) scale(1,1)"><rect fill="#ffffff" height="39" stroke="none" width="138.9326171875" x="415" y="40"/></g><g transform="translate(2,2) scale(1,1)"><path d="M 415 40 L 553.9326171875 40 L 553.9326171875 79 L 415 79 L 415 40 Z Z" fill="none" stroke="#000000" stroke-miterlimit="10"/></g><g transform="translate(2,2) scale(1,1)"><g><path fill="none" stroke="none"/><text fill="#000000" font-family="Arial" font-size="13px" font-style="normal" font-weight="normal" stroke="none" text-decoration="none" x="456.28271484375" y="55.5">«Control»</text></g></g><g transform="translate(2,2) scale(1,1)"><g><path fill="none" stroke="none"/><text fill="#000000" font-family="Arial" font-size="13px" font-style="normal" font-weight="bold" stroke="none" text-decoration="none" x="424.5" y="70.5">: GestoreDiSistema</text></g></g><g transform="translate(2,2) scale(1,1)"><path d="M 485.5 80 L 485.5 544" fill="none" stroke="#000000" stroke-dasharray="3" stroke-miterlimit="10"/></g><g transform="translate(2,2) scale(1,1)"><rect fill="#C0C0C0" height="39" opacity="0.2" stroke="none" width="108.5654296875" x="743" y="47"/></g><g transform="translate(2,2) scale(1,1)"><rect fill="#ffffff" height="39" stroke="none" width="108.5654296875" x="736" y="40"/></g><g transform="translate(2,2) scale(1,1)"><path d="M 736 40 L 844.5654296875 40 L 844.5654296875 79 L 736 79 L 736 40 Z Z" fill="none" stroke="#000000" stroke-miterlimit="10"/></g><g transform="translate(2,2) scale(1,1)"><g><path fill="none" stroke="none"/><text fill="#000000" font-family="Arial" font-size="13px" font-style="normal" font-weight="normal" stroke="none" text-decoration="none" x="755.227783203125" y="55.5">«Boundary»</text></g></g><g transform="translate(2,2) scale(1,1)"><g><path fill="none" stroke="none"/><text fill="#000000" font-family="Arial" font-size="13px" font-style="normal" font-weight="bold" stroke="none" text-decoration="none" x="745.5" y="70.5">DBMSDaemon</text></g></g><g transform="translate(2,2) scale(1,1)"><path d="M 791.5 80 L 791.5 505" fill="none" stroke="#000000" stroke-dasharray="3" stroke-miterlimit="10"/></g><g transform="translate(2,2) scale(1,1)"><path d="M 1074.274522372159 47.3 C 1074.274522372159 43.82060576 1077.152924094341 41 1080.70361328125 41 C 1084.254302468159 41 1087.132704190341 43.82060576 1087.132704190341 47.3 C 1087.132704190341 50.779394239999995 1084.254302468159 53.6 1080.70361328125 53.6 C 1077.152924094341 53.6 1074.274522372159 50.779394239999995 1074.274522372159 47.3 Z" fill="#ffffff" stroke="none"/></g><g transform="translate(2,2) scale(1,1)"><path d="M 1074.274522372159 47.3 C 1074.274522372159 43.82060576 1077.152924094341 41 1080.70361328125 41 C 1084.254302468159 41 1087.132704190341 43.82060576 1087.132704190341 47.3 C 1087.132704190341 50.779394239999995 1084.254302468159 53.6 1080.70361328125 53.6 C 1077.152924094341 53.6 1074.274522372159 50.779394239999995 1074.274522372159 47.3 Z" fill="none" stroke="#000000" stroke-miterlimit="10"/></g><g transform="translate(2,2) scale(1,1)"><path d="M 1080.70361328125 53.6 L 1080.70361328125 66.4" fill="none" stroke="#000000" stroke-miterlimit="10"/></g><g transform="translate(2,2) scale(1,1)"><path d="M 1073.8963405539773 58.4 L 1087.5108860085227 58.4" fill="none" stroke="#000000" stroke-miterlimit="10"/></g><g transform="translate(2,2) scale(1,1)"><path d="M 1080.70361328125 66.4 L 1071.2490678267045 79" fill="none" stroke="#000000" stroke-miterlimit="10"/></g><g transform="translate(2,2) scale(1,1)"><path d="M 1080.70361328125 66.4 L 1090.1581587357955 79" fill="none" stroke="#000000" stroke-miterlimit="10"/></g><g transform="translate(2,2) scale(1,1)"><g><path fill="none" stroke="none"/><text fill="#000000" font-family="Arial" font-size="13px" font-style="normal" font-weight="bold" stroke="none" text-decoration="none" x="1030.8681640625" y="97.5">: DBMS Azienda</text></g></g><g transform="translate(2,2) scale(1,1)"><path d="M 1081.5 105 L 1081.5 470" fill="none" stroke="#000000" stroke-dasharray="3" stroke-miterlimit="10"/></g><g transform="translate(2,2) scale(1,1)"><path d="M 925.899034090909 47.3 C 925.899034090909 43.82060576 928.777435813091 41 932.328125 41 C 935.878814186909 41 938.7572159090909 43.82060576 938.7572159090909 47.3 C 938.7572159090909 50.779394239999995 935.878814186909 53.6 932.328125 53.6 C 928.777435813091 53.6 925.899034090909 50.779394239999995 925.899034090909 47.3 Z" fill="#ffffff" stroke="none"/></g><g transform="translate(2,2) scale(1,1)"><path d="M 925.899034090909 47.3 C 925.899034090909 43.82060576 928.777435813091 41 932.328125 41 C 935.878814186909 41 938.7572159090909 43.82060576 938.7572159090909 47.3 C 938.7572159090909 50.779394239999995 935.878814186909 53.6 932.328125 53.6 C 928.777435813091 53.6 925.899034090909 50.779394239999995 925.899034090909 47.3 Z" fill="none" stroke="#000000" stroke-miterlimit="10"/></g><g transform="translate(2,2) scale(1,1)"><path d="M 932.328125 53.6 L 932.328125 66.4" fill="none" stroke="#000000" stroke-miterlimit="10"/></g><g transform="translate(2,2) scale(1,1)"><path d="M 925.5208522727272 58.4 L 939.1353977272727 58.4" fill="none" stroke="#000000" stroke-miterlimit="10"/></g><g transform="translate(2,2) scale(1,1)"><path d="M 932.328125 66.4 L 922.8735795454545 79" fill="none" stroke="#000000" stroke-miterlimit="10"/></g><g transform="translate(2,2) scale(1,1)"><path d="M 932.328125 66.4 L 941.7826704545454 79" fill="none" stroke="#000000" stroke-miterlimit="10"/></g><g transform="translate(2,2) scale(1,1)"><g><path fill="none" stroke="none"/><text fill="#000000" font-family="Arial" font-size="13px" font-style="normal" font-weight="bold" stroke="none" text-decoration="none" x="878.8681640625" y="97.5">: DBMS Farmacie</text></g></g><g transform="translate(2,2) scale(1,1)"><path d="M 933.5 105 L 933.5 366" fill="none" stroke="#000000" stroke-dasharray="3" stroke-miterlimit="10"/></g><g transform="translate(2,2) scale(1,1)"><path d="M 104 120 L 278 120" fill="none" stroke="#000000" stroke-miterlimit="10"/></g><g transform="translate(2,2) scale(1,1)"><path d="M 267.83732514237585 124.20951775601598 L 278 120 L 267.83732514237585 115.79048224398402" fill="#000000" stroke="none"/></g><g transform="translate(2,2) scale(1,1)"><path d="M 267.83732514237585 124.20951775601598 L 278 120 L 267.83732514237585 115.79048224398402 L 267.83732514237585 124.20951775601598" fill="none" stroke="#000000" stroke-miterlimit="10"/></g><g transform="translate(2,2) scale(1,1)"><g><path fill="none" stroke="none"/><text fill="#000000" font-family="Arial" font-size="13px" font-style="normal" font-weight="normal" stroke="none" text-decoration="none" x="146.5" y="114.5">1 : chiediOrario</text></g></g><g transform="translate(2,2) scale(1,1)"><rect fill="#ffffff" height="28" stroke="none" width="13" x="278" y="120"/></g><g transform="translate(2,2) scale(1,1)"><path d="M 278 120 L 291 120 L 291 148 L 278 148 L 278 120 Z Z" fill="none" stroke="#000000" stroke-miterlimit="10"/></g><g transform="translate(2,2) scale(1,1)"><path d="M 291 136 L 478 136" fill="none" stroke="#000000" stroke-miterlimit="10"/></g><g transform="translate(2,2) scale(1,1)"><path d="M 467.83732514237585 140.209517756016 L 478 136 L 467.83732514237585 131.790482243984" fill="#000000" stroke="none"/></g><g transform="translate(2,2) scale(1,1)"><path d="M 467.83732514237585 140.209517756016 L 478 136 L 467.83732514237585 131.790482243984 L 467.83732514237585 140.209517756016" fill="none" stroke="#000000" stroke-miterlimit="10"/></g><g transform="translate(2,2) scale(1,1)"><g><path fill="none" stroke="none"/><text fill="#000000" font-family="Arial" font-size="13px" font-style="normal" font-weight="normal" stroke="none" text-decoration="none" x="339.5" y="130.5">2 : chiediOrario</text></g></g><g transform="translate(2,2) scale(1,1)"><rect fill="#ffffff" height="280" stroke="none" width="13" x="478" y="136"/></g><g transform="translate(2,2) scale(1,1)"><path d="M 478 136 L 491 136 L 491 416 L 478 416 L 478 136 Z Z" fill="none" stroke="#000000" stroke-miterlimit="10"/></g><g transform="translate(2,2) scale(1,1)"><path d="M 491 160 L 521 160 L 521 180 L 498 180" fill="none" stroke="#000000" stroke-miterlimit="10"/></g><g transform="translate(2,2) scale(1,1)"><path d="M 508.16267485762415 175.790482243984 L 498 180 L 508.16267485762415 184.209517756016" fill="#000000" stroke="none"/></g><g transform="translate(2,2) scale(1,1)"><path d="M 508.16267485762415 175.790482243984 L 498 180 L 508.16267485762415 184.209517756016 L 508.16267485762415 175.790482243984" fill="none" stroke="#000000" stroke-miterlimit="10"/></g><g transform="translate(2,2) scale(1,1)"><g><path fill="none" stroke="none"/><text fill="#000000" font-family="Arial" font-size="13px" font-style="normal" font-weight="normal" stroke="none" text-decoration="none" x="527.5" y="173.5">3 : controllaOrario</text></g></g><g transform="translate(2,2) scale(1,1)"><rect fill="#ffffff" height="28" stroke="none" width="13" x="485" y="180"/></g><g transform="translate(2,2) scale(1,1)"><path d="M 485 180 L 498 180 L 498 208 L 485 208 L 485 180 Z Z" fill="none" stroke="#000000" stroke-miterlimit="10"/></g><g transform="translate(2,2) scale(1,1)"><path d="M 491 256 L 784 256" fill="none" stroke="#000000" stroke-miterlimit="10"/></g><g transform="translate(2,2) scale(1,1)"><path d="M 773.8373251423759 260.209517756016 L 784 256 L 773.8373251423758 251.790482243984" fill="#000000" stroke="none"/></g><g transform="translate(2,2) scale(1,1)"><path d="M 773.8373251423759 260.209517756016 L 784 256 L 773.8373251423758 251.790482243984 L 773.8373251423759 260.209517756016" fill="none" stroke="#000000" stroke-miterlimit="10"/></g><g transform="translate(2,2) scale(1,1)"><g><path fill="none" stroke="none"/><text fill="#000000" font-family="Arial" font-size="13px" font-style="normal" font-weight="normal" stroke="none" text-decoration="none" x="561.5" y="250.5">4 : controllaOrdiniPeriodici</text></g></g><g transform="translate(2,2) scale(1,1)"><rect fill="#ffffff" height="48" stroke="none" width="13" x="784" y="256"/></g><g transform="translate(2,2) scale(1,1)"><path d="M 784 256 L 797 256 L 797 304 L 784 304 L 784 256 Z Z" fill="none" stroke="#000000" stroke-miterlimit="10"/></g><g transform="translate(2,2) scale(1,1)"><path d="M 797 272 L 926 272" fill="none" stroke="#000000" stroke-miterlimit="10"/></g><g transform="translate(2,2) scale(1,1)"><path d="M 915.8373251423759 276.209517756016 L 926 272 L 915.8373251423758 267.790482243984" fill="#000000" stroke="none"/></g><g transform="translate(2,2) scale(1,1)"><path d="M 915.8373251423759 276.209517756016 L 926 272 L 915.8373251423758 267.790482243984 L 915.8373251423759 276.209517756016" fill="none" stroke="#000000" stroke-miterlimit="10"/></g><g transform="translate(2,2) scale(1,1)"><g><path fill="none" stroke="none"/><text fill="#000000" font-family="Arial" font-size="13px" font-style="normal" font-weight="normal" stroke="none" text-decoration="none" x="794.5" y="266.5">5 : queryOrdiniPeriodici</text></g></g><g transform="translate(2,2) scale(1,1)"><rect fill="#ffffff" height="28" stroke="none" width="13" x="926" y="272"/></g><g transform="translate(2,2) scale(1,1)"><path d="M 926 272 L 939 272 L 939 300 L 926 300 L 926 272 Z Z" fill="none" stroke="#000000" stroke-miterlimit="10"/></g><g transform="translate(2,2) scale(1,1)"><path d="M 926 288 L 797 288" fill="none" stroke="#000000" stroke-dasharray="3" stroke-miterlimit="10"/></g><g transform="translate(2,2) scale(1,1)"><path d="M 807.1626748576241 283.790482243984 L 797 288 L 807.1626748576241 292.209517756016" fill="none" stroke="#000000" stroke-miterlimit="10"/></g><g transform="translate(2,2) scale(1,1)"><g><path fill="none" stroke="none"/><text fill="#000000" font-family="Arial" font-size="13px" font-style="normal" font-weight="normal" stroke="none" text-decoration="none" x="804.5" y="306.5">6 : ordiniDaCreare</text></g></g><g transform="translate(2,2) scale(1,1)"><path d="M 784 296 L 491 296" fill="none" stroke="#000000" stroke-dasharray="3" stroke-miterlimit="10"/></g><g transform="translate(2,2) scale(1,1)"><path d="M 501.16267485762415 291.790482243984 L 491 296 L 501.16267485762415 300.209517756016" fill="none" stroke="#000000" stroke-miterlimit="10"/></g><g transform="translate(2,2) scale(1,1)"><g><path fill="none" stroke="none"/><text fill="#000000" font-family="Arial" font-size="13px" font-style="normal" font-weight="normal" stroke="none" text-decoration="none" x="582.5" y="310.5">7 : ordiniDaCreare</text></g></g><g transform="translate(2,2) scale(1,1)"><path d="M 491 352 L 784 352" fill="none" stroke="#000000" stroke-miterlimit="10"/></g><g transform="translate(2,2) scale(1,1)"><path d="M 773.8373251423759 356.209517756016 L 784 352 L 773.8373251423758 347.790482243984" fill="#000000" stroke="none"/></g><g transform="translate(2,2) scale(1,1)"><path d="M 773.8373251423759 356.209517756016 L 784 352 L 773.8373251423758 347.790482243984 L 773.8373251423759 356.209517756016" fill="none" stroke="#000000" stroke-miterlimit="10"/></g><g transform="translate(2,2) scale(1,1)"><g><path fill="none" stroke="none"/><text fill="#000000" font-family="Arial" font-size="13px" font-style="normal" font-weight="normal" stroke="none" text-decoration="none" x="549.82177734375" y="346.5">8 : creaOrdini(ordiniDaCreare)</text></g></g><g transform="translate(2,2) scale(1,1)"><rect fill="#ffffff" height="81" stroke="none" width="13" x="784" y="352"/></g><g transform="translate(2,2) scale(1,1)"><path d="M 784 352 L 797 352 L 797 433 L 784 433 L 784 352 Z Z" fill="none" stroke="#000000" stroke-miterlimit="10"/></g><g transform="translate(2,2) scale(1,1)"><path d="M 797 368 L 1074 368" fill="none" stroke="#000000" stroke-miterlimit="10"/></g><g transform="translate(2,2) scale(1,1)"><path d="M 1063.837325142376 372.209517756016 L 1074 368 L 1063.837325142376 363.790482243984" fill="#000000" stroke="none"/></g><g transform="translate(2,2) scale(1,1)"><path d="M 1063.837325142376 372.209517756016 L 1074 368 L 1063.837325142376 363.790482243984 L 1063.837325142376 372.209517756016" fill="none" stroke="#000000" stroke-miterlimit="10"/></g><g transform="translate(2,2) scale(1,1)"><g><path fill="none" stroke="none"/><text fill="#000000" font-family="Arial" font-size="13px" font-style="normal" font-weight="normal" stroke="none" text-decoration="none" x="831.33935546875" y="362.5">9 : queryCreaOrdini(ordiniDaCreare)</text></g></g><g transform="translate(2,2) scale(1,1)"><rect fill="#ffffff" height="28" stroke="none" width="13" x="1074" y="368"/></g><g transform="translate(2,2) scale(1,1)"><path d="M 1074 368 L 1087 368 L 1087 396 L 1074 396 L 1074 368 Z Z" fill="none" stroke="#000000" stroke-miterlimit="10"/></g><g transform="translate(2,2) scale(1,1)"><path d="M 1074 392 L 797 392" fill="none" stroke="#000000" stroke-dasharray="3" stroke-miterlimit="10"/></g><g transform="translate(2,2) scale(1,1)"><path d="M 807.1626748576241 387.790482243984 L 797 392 L 807.1626748576241 396.209517756016" fill="none" stroke="#000000" stroke-miterlimit="10"/></g><g transform="translate(2,2) scale(1,1)"><g><path fill="none" stroke="none"/><text fill="#000000" font-family="Arial" font-size="13px" font-style="normal" font-weight="normal" stroke="none" text-decoration="none" x="907.5" y="406.5">10 : esito</text></g></g><g transform="translate(2,2) scale(1,1)"><path d="M 784 408 L 491 408" fill="none" stroke="#000000" stroke-dasharray="3" stroke-miterlimit="10"/></g><g transform="translate(2,2) scale(1,1)"><path d="M 501.16267485762415 403.790482243984 L 491 408 L 501.16267485762415 412.209517756016" fill="none" stroke="#000000" stroke-miterlimit="10"/></g><g transform="translate(2,2) scale(1,1)"><g><path fill="none" stroke="none"/><text fill="#000000" font-family="Arial" font-size="13px" font-style="normal" font-weight="normal" stroke="none" text-decoration="none" x="609.982421875" y="422.5">11 : esito</text></g></g><g transform="translate(2,2) scale(1,1)"><path d="M 24 208 L 1144 208 L 1144 591 L 24 591 L 24 208" fill="none" stroke="#000000" stroke-miterlimit="10"/></g><g transform="translate(2,2) scale(1,1)"><path d="M 24 208 L 24 230 L 58.07177734375 230 L 69.07177734375 219 L 69.07177734375 208 L 24 208" fill="#ffffff" stroke="none"/></g><g transform="translate(2,2) scale(1,1)"><path d="M 24 208 L 24 230 L 58.07177734375 230 L 69.07177734375 219 L 69.07177734375 208 L 24 208 L 24 208" fill="none" stroke="#000000" stroke-miterlimit="10"/></g><g transform="translate(2,2) scale(1,1)"><g><path fill="none" stroke="none"/><text fill="#000000" font-family="Arial" font-size="13px" font-style="normal" font-weight="bold" stroke="none" text-decoration="none" x="27.930419921875" y="223.5">opt</text></g></g><g transform="translate(2,2) scale(1,1)"><g><path fill="none" stroke="none"/><text fill="#000000" font-family="Arial" font-size="13px" font-style="normal" font-weight="normal" stroke="none" text-decoration="none" x="43.5" y="256.5">[Sono le 20:00]</text></g></g></g></svg>