<?xml version="1.0" encoding="UTF-8" standalone="no"?><svg xmlns="http://www.w3.org/2000/svg" xmlns:xlink="http://www.w3.org/1999/xlink" height="1228" version="1.1" width="1156"><defs/><g><g transform="translate(10,2) scale(1,1)"><path d="M 0 8 L 1136 8 L 1136 1216 L 0 1216 L 0 8" fill="none" stroke="#000000" stroke-miterlimit="10"/></g><g transform="translate(10,2) scale(1,1)"><path d="M 0 8 L 0 30 L 108.46630859375 30 L 119.46630859375 19 L 119.46630859375 8 L 0 8" fill="#ffffff" stroke="none"/></g><g transform="translate(10,2) scale(1,1)"><path d="M 0 8 L 0 30 L 108.46630859375 30 L 119.46630859375 19 L 119.46630859375 8 L 0 8 L 0 8" fill="none" stroke="#000000" stroke-miterlimit="10"/></g><g transform="translate(10,2) scale(1,1)"><g><path fill="none" stroke="none"/><text fill="#000000" font-family="Arial" font-size="13px" font-style="normal" font-weight="normal" stroke="none" text-decoration="none" x="24.72998046875" y="23.5">Scarico Merci</text></g></g><g transform="translate(10,2) scale(1,1)"><g><path fill="none" stroke="none"/><text fill="#000000" font-family="Arial" font-size="13px" font-style="normal" font-weight="bold" stroke="none" text-decoration="none" x="4.279541015625" y="23.5">sd</text></g></g><g transform="translate(10,2) scale(1,1)"><rect fill="#C0C0C0" height="39" opacity="0.2" stroke="none" width="262.83251953125" x="143" y="47"/></g><g transform="translate(10,2) scale(1,1)"><rect fill="#ffffff" height="39" stroke="none" width="262.83251953125" x="136" y="40"/></g><g transform="translate(10,2) scale(1,1)"><path d="M 136 40 L 398.83251953125 40 L 398.83251953125 79 L 136 79 L 136 40 Z Z" fill="none" stroke="#000000" stroke-miterlimit="10"/></g><g transform="translate(10,2) scale(1,1)"><g><path fill="none" stroke="none"/><text fill="#000000" font-family="Arial" font-size="13px" font-style="normal" font-weight="normal" stroke="none" text-decoration="none" x="232.361328125" y="55.5">«Boundary»</text></g></g><g transform="translate(10,2) scale(1,1)"><g><path fill="none" stroke="none"/><text fill="#000000" font-family="Arial" font-size="13px" font-style="normal" font-weight="bold" stroke="none" text-decoration="none" x="145.5" y="70.5">: InterfacciaPrincipale[tipo=Farmacista]</text></g></g><g transform="translate(10,2) scale(1,1)"><path d="M 268.5 80 L 268.5 239" fill="none" stroke="#000000" stroke-dasharray="3" stroke-miterlimit="10"/></g><g transform="translate(10,2) scale(1,1)"><path d="M 69.5709090909091 47.3 C 69.5709090909091 43.82060576 72.44931081309092 41 76 41 C 79.55068918690908 41 82.4290909090909 43.82060576 82.4290909090909 47.3 C 82.4290909090909 50.779394239999995 79.55068918690908 53.6 76 53.6 C 72.44931081309092 53.6 69.5709090909091 50.779394239999995 69.5709090909091 47.3 Z" fill="#ffffff" stroke="none"/></g><g transform="translate(10,2) scale(1,1)"><path d="M 69.5709090909091 47.3 C 69.5709090909091 43.82060576 72.44931081309092 41 76 41 C 79.55068918690908 41 82.4290909090909 43.82060576 82.4290909090909 47.3 C 82.4290909090909 50.779394239999995 79.55068918690908 53.6 76 53.6 C 72.44931081309092 53.6 69.5709090909091 50.779394239999995 69.5709090909091 47.3 Z" fill="none" stroke="#000000" stroke-miterlimit="10"/></g><g transform="translate(10,2) scale(1,1)"><path d="M 76 53.6 L 76 66.4" fill="none" stroke="#000000" stroke-miterlimit="10"/></g><g transform="translate(10,2) scale(1,1)"><path d="M 69.19272727272727 58.4 L 82.80727272727273 58.4" fill="none" stroke="#000000" stroke-miterlimit="10"/></g><g transform="translate(10,2) scale(1,1)"><path d="M 76 66.4 L 66.54545454545455 79" fill="none" stroke="#000000" stroke-miterlimit="10"/></g><g transform="translate(10,2) scale(1,1)"><path d="M 76 66.4 L 85.45454545454545 79" fill="none" stroke="#000000" stroke-miterlimit="10"/></g><g transform="translate(10,2) scale(1,1)"><g><path fill="none" stroke="none"/><text fill="#000000" font-family="Arial" font-size="13px" font-style="normal" font-weight="bold" stroke="none" text-decoration="none" x="37.70458984375" y="97.5">: Farmacista</text></g></g><g transform="translate(10,2) scale(1,1)"><path d="M 77.5 105 L 77.5 944" fill="none" stroke="#000000" stroke-dasharray="3" stroke-miterlimit="10"/></g><g transform="translate(10,2) scale(1,1)"><rect fill="#C0C0C0" height="39" opacity="0.2" stroke="none" width="112.20263671875" x="495" y="131"/></g><g transform="translate(10,2) scale(1,1)"><rect fill="#ffffff" height="39" stroke="none" width="112.20263671875" x="488" y="124"/></g><g transform="translate(10,2) scale(1,1)"><path d="M 488 124 L 600.20263671875 124 L 600.20263671875 163 L 488 163 L 488 124 Z Z" fill="none" stroke="#000000" stroke-miterlimit="10"/></g><g transform="translate(10,2) scale(1,1)"><g><path fill="none" stroke="none"/><text fill="#000000" font-family="Arial" font-size="13px" font-style="normal" font-weight="normal" stroke="none" text-decoration="none" x="515.917724609375" y="139.5">«Control»</text></g></g><g transform="translate(10,2) scale(1,1)"><g><path fill="none" stroke="none"/><text fill="#000000" font-family="Arial" font-size="13px" font-style="normal" font-weight="bold" stroke="none" text-decoration="none" x="499.66455078125" y="154.5">: ScaricoMerci</text></g></g><g transform="translate(10,2) scale(1,1)"><path d="M 545.5 164 L 545.5 953" fill="none" stroke="#000000" stroke-dasharray="3" stroke-miterlimit="10"/></g><g transform="translate(10,2) scale(1,1)"><rect fill="#C0C0C0" height="39" opacity="0.2" stroke="none" width="172.9052734375" x="247" y="179"/></g><g transform="translate(10,2) scale(1,1)"><rect fill="#ffffff" height="39" stroke="none" width="172.9052734375" x="240" y="172"/></g><g transform="translate(10,2) scale(1,1)"><path d="M 240 172 L 412.9052734375 172 L 412.9052734375 211 L 240 211 L 240 172 Z Z" fill="none" stroke="#000000" stroke-miterlimit="10"/></g><g transform="translate(10,2) scale(1,1)"><g><path fill="none" stroke="none"/><text fill="#000000" font-family="Arial" font-size="13px" font-style="normal" font-weight="normal" stroke="none" text-decoration="none" x="291.397705078125" y="187.5">«Boundary»</text></g></g><g transform="translate(10,2) scale(1,1)"><g><path fill="none" stroke="none"/><text fill="#000000" font-family="Arial" font-size="13px" font-style="normal" font-weight="bold" stroke="none" text-decoration="none" x="249.5" y="202.5">: InterfacciaScaricoMerci</text></g></g><g transform="translate(10,2) scale(1,1)"><path d="M 327.5 212 L 327.5 866" fill="none" stroke="#000000" stroke-dasharray="3" stroke-miterlimit="10"/></g><g transform="translate(10,2) scale(1,1)"><rect fill="#C0C0C0" height="39" opacity="0.2" stroke="none" width="108.5654296875" x="719" y="47"/></g><g transform="translate(10,2) scale(1,1)"><rect fill="#ffffff" height="39" stroke="none" width="108.5654296875" x="712" y="40"/></g><g transform="translate(10,2) scale(1,1)"><path d="M 712 40 L 820.5654296875 40 L 820.5654296875 79 L 712 79 L 712 40 Z Z" fill="none" stroke="#000000" stroke-miterlimit="10"/></g><g transform="translate(10,2) scale(1,1)"><g><path fill="none" stroke="none"/><text fill="#000000" font-family="Arial" font-size="13px" font-style="normal" font-weight="normal" stroke="none" text-decoration="none" x="731.227783203125" y="55.5">«Boundary»</text></g></g><g transform="translate(10,2) scale(1,1)"><g><path fill="none" stroke="none"/><text fill="#000000" font-family="Arial" font-size="13px" font-style="normal" font-weight="bold" stroke="none" text-decoration="none" x="721.5" y="70.5">DBMSDaemon</text></g></g><g transform="translate(10,2) scale(1,1)"><path d="M 767.5 80 L 767.5 588" fill="none" stroke="#000000" stroke-dasharray="3" stroke-miterlimit="10"/></g><g transform="translate(10,2) scale(1,1)"><path d="M 997.899034090909 47.3 C 997.899034090909 43.82060576 1000.777435813091 41 1004.328125 41 C 1007.878814186909 41 1010.7572159090909 43.82060576 1010.7572159090909 47.3 C 1010.7572159090909 50.779394239999995 1007.878814186909 53.6 1004.328125 53.6 C 1000.777435813091 53.6 997.899034090909 50.779394239999995 997.899034090909 47.3 Z" fill="#ffffff" stroke="none"/></g><g transform="translate(10,2) scale(1,1)"><path d="M 997.899034090909 47.3 C 997.899034090909 43.82060576 1000.777435813091 41 1004.328125 41 C 1007.878814186909 41 1010.7572159090909 43.82060576 1010.7572159090909 47.3 C 1010.7572159090909 50.779394239999995 1007.878814186909 53.6 1004.328125 53.6 C 1000.777435813091 53.6 997.899034090909 50.779394239999995 997.899034090909 47.3 Z" fill="none" stroke="#000000" stroke-miterlimit="10"/></g><g transform="translate(10,2) scale(1,1)"><path d="M 1004.328125 53.6 L 1004.328125 66.4" fill="none" stroke="#000000" stroke-miterlimit="10"/></g><g transform="translate(10,2) scale(1,1)"><path d="M 997.5208522727272 58.4 L 1011.1353977272727 58.4" fill="none" stroke="#000000" stroke-miterlimit="10"/></g><g transform="translate(10,2) scale(1,1)"><path d="M 1004.328125 66.4 L 994.8735795454545 79" fill="none" stroke="#000000" stroke-miterlimit="10"/></g><g transform="translate(10,2) scale(1,1)"><path d="M 1004.328125 66.4 L 1013.7826704545454 79" fill="none" stroke="#000000" stroke-miterlimit="10"/></g><g transform="translate(10,2) scale(1,1)"><g><path fill="none" stroke="none"/><text fill="#000000" font-family="Arial" font-size="13px" font-style="normal" font-weight="bold" stroke="none" text-decoration="none" x="950.8681640625" y="97.5">: DBMS Farmacie</text></g></g><g transform="translate(10,2) scale(1,1)"><path d="M 1005.5 105 L 1005.5 566" fill="none" stroke="#000000" stroke-dasharray="3" stroke-miterlimit="10"/></g><g transform="translate(10,2) scale(1,1)"><rect fill="#C0C0C0" height="39" opacity="0.2" stroke="none" width="123.2666015625" x="383" y="579"/></g><g transform="translate(10,2) scale(1,1)"><rect fill="#ffffff" height="39" stroke="none" width="123.2666015625" x="376" y="572"/></g><g transform="translate(10,2) scale(1,1)"><path d="M 376 572 L 499.2666015625 572 L 499.2666015625 611 L 376 611 L 376 572 Z Z" fill="none" stroke="#000000" stroke-miterlimit="10"/></g><g transform="translate(10,2) scale(1,1)"><g><path fill="none" stroke="none"/><text fill="#000000" font-family="Arial" font-size="13px" font-style="normal" font-weight="normal" stroke="none" text-decoration="none" x="402.578369140625" y="587.5">«Boundary»</text></g></g><g transform="translate(10,2) scale(1,1)"><g><path fill="none" stroke="none"/><text fill="#000000" font-family="Arial" font-size="13px" font-style="normal" font-weight="bold" stroke="none" text-decoration="none" x="385.5" y="602.5">: PannelloAvviso</text></g></g><g transform="translate(10,2) scale(1,1)"><path d="M 438.5 612 L 438.5 718" fill="none" stroke="#000000" stroke-dasharray="3" stroke-miterlimit="10"/></g><g transform="translate(10,2) scale(1,1)"><path d="M 77 136 L 261 136" fill="none" stroke="#000000" stroke-miterlimit="10"/></g><g transform="translate(10,2) scale(1,1)"><path d="M 250.83732514237585 140.209517756016 L 261 136 L 250.83732514237585 131.790482243984" fill="#000000" stroke="none"/></g><g transform="translate(10,2) scale(1,1)"><path d="M 250.83732514237585 140.209517756016 L 261 136 L 250.83732514237585 131.790482243984 L 250.83732514237585 140.209517756016" fill="none" stroke="#000000" stroke-miterlimit="10"/></g><g transform="translate(10,2) scale(1,1)"><g><path fill="none" stroke="none"/><text fill="#000000" font-family="Arial" font-size="13px" font-style="normal" font-weight="normal" stroke="none" text-decoration="none" x="106.5" y="130.5">1 : cliccaScaricoMerci</text></g></g><g transform="translate(10,2) scale(1,1)"><rect fill="#ffffff" height="28" stroke="none" width="13" x="261" y="136"/></g><g transform="translate(10,2) scale(1,1)"><path d="M 261 136 L 274 136 L 274 164 L 261 164 L 261 136 Z Z" fill="none" stroke="#000000" stroke-miterlimit="10"/></g><g transform="translate(10,2) scale(1,1)"><path d="M 274 144 L 488 144" fill="none" stroke="#000000" stroke-dasharray="3" stroke-miterlimit="10"/></g><g transform="translate(10,2) scale(1,1)"><path d="M 477.83732514237585 148.209517756016 L 488 144 L 477.83732514237585 139.790482243984" fill="none" stroke="#000000" stroke-miterlimit="10"/></g><g transform="translate(10,2) scale(1,1)"><g><path fill="none" stroke="none"/><text fill="#000000" font-family="Arial" font-size="13px" font-style="normal" font-weight="normal" stroke="none" text-decoration="none" x="371.5" y="138.5">2 : </text></g></g><g transform="translate(10,2) scale(1,1)"><g><path fill="none" stroke="none"/><text fill="#000000" font-family="Arial" font-size="13px" font-style="normal" font-weight="normal" stroke="none" text-decoration="none" x="355.5" y="123.5">«create»</text></g></g><g transform="translate(10,2) scale(1,1)"><path d="M 545 192 L 412.9052734375 192" fill="none" stroke="#000000" stroke-dasharray="3" stroke-miterlimit="10"/></g><g transform="translate(10,2) scale(1,1)"><path d="M 423.06794829512415 187.790482243984 L 412.9052734375 192 L 423.06794829512415 196.209517756016" fill="none" stroke="#000000" stroke-miterlimit="10"/></g><g transform="translate(10,2) scale(1,1)"><g><path fill="none" stroke="none"/><text fill="#000000" font-family="Arial" font-size="13px" font-style="normal" font-weight="normal" stroke="none" text-decoration="none" x="467.5" y="206.5">3 : </text></g></g><g transform="translate(10,2) scale(1,1)"><g><path fill="none" stroke="none"/><text fill="#000000" font-family="Arial" font-size="13px" font-style="normal" font-weight="normal" stroke="none" text-decoration="none" x="451.5" y="221.5">«create»</text></g></g><g transform="translate(10,2) scale(1,1)"><path d="M 77 304 L 320 304" fill="none" stroke="#000000" stroke-miterlimit="10"/></g><g transform="translate(10,2) scale(1,1)"><path d="M 309.83732514237585 308.209517756016 L 320 304 L 309.83732514237585 299.790482243984" fill="#000000" stroke="none"/></g><g transform="translate(10,2) scale(1,1)"><path d="M 309.83732514237585 308.209517756016 L 320 304 L 309.83732514237585 299.790482243984 L 309.83732514237585 308.209517756016" fill="none" stroke="#000000" stroke-miterlimit="10"/></g><g transform="translate(10,2) scale(1,1)"><g><path fill="none" stroke="none"/><text fill="#000000" font-family="Arial" font-size="13px" font-style="normal" font-weight="normal" stroke="none" text-decoration="none" x="87.5" y="297.5">4 : inserisciDati(codice_lotto, quantita)</text></g></g><g transform="translate(10,2) scale(1,1)"><rect fill="#ffffff" height="28" stroke="none" width="13" x="320" y="304"/></g><g transform="translate(10,2) scale(1,1)"><path d="M 320 304 L 333 304 L 333 332 L 320 332 L 320 304 Z Z" fill="none" stroke="#000000" stroke-miterlimit="10"/></g><g transform="translate(10,2) scale(1,1)"><path d="M 77 360 L 320 360" fill="none" stroke="#000000" stroke-miterlimit="10"/></g><g transform="translate(10,2) scale(1,1)"><path d="M 309.83732514237585 364.209517756016 L 320 360 L 309.83732514237585 355.790482243984" fill="#000000" stroke="none"/></g><g transform="translate(10,2) scale(1,1)"><path d="M 309.83732514237585 364.209517756016 L 320 360 L 309.83732514237585 355.790482243984 L 309.83732514237585 364.209517756016" fill="none" stroke="#000000" stroke-miterlimit="10"/></g><g transform="translate(10,2) scale(1,1)"><g><path fill="none" stroke="none"/><text fill="#000000" font-family="Arial" font-size="13px" font-style="normal" font-weight="normal" stroke="none" text-decoration="none" x="161.39453125" y="354.5">5 : conferma</text></g></g><g transform="translate(10,2) scale(1,1)"><rect fill="#ffffff" height="28" stroke="none" width="13" x="320" y="360"/></g><g transform="translate(10,2) scale(1,1)"><path d="M 320 360 L 333 360 L 333 388 L 320 388 L 320 360 Z Z" fill="none" stroke="#000000" stroke-miterlimit="10"/></g><g transform="translate(10,2) scale(1,1)"><path d="M 333 384 L 538 384" fill="none" stroke="#000000" stroke-miterlimit="10"/></g><g transform="translate(10,2) scale(1,1)"><path d="M 527.8373251423759 388.209517756016 L 538 384 L 527.8373251423758 379.790482243984" fill="#000000" stroke="none"/></g><g transform="translate(10,2) scale(1,1)"><path d="M 527.8373251423759 388.209517756016 L 538 384 L 527.8373251423758 379.790482243984 L 527.8373251423759 388.209517756016" fill="none" stroke="#000000" stroke-miterlimit="10"/></g><g transform="translate(10,2) scale(1,1)"><g><path fill="none" stroke="none"/><text fill="#000000" font-family="Arial" font-size="13px" font-style="normal" font-weight="normal" stroke="none" text-decoration="none" x="346.524169921875" y="360.5">6 : scaricaMerci( codice_lotto,</text><text fill="#000000" font-family="Arial" font-size="13px" font-style="normal" font-weight="normal" stroke="none" text-decoration="none" x="405.398681640625" y="373.5">quantita )</text></g></g><g transform="translate(10,2) scale(1,1)"><rect fill="#ffffff" height="28" stroke="none" width="13" x="538" y="384"/></g><g transform="translate(10,2) scale(1,1)"><path d="M 538 384 L 551 384 L 551 412 L 538 412 L 538 384 Z Z" fill="none" stroke="#000000" stroke-miterlimit="10"/></g><g transform="translate(10,2) scale(1,1)"><path d="M 551 408 L 760 408" fill="none" stroke="#000000" stroke-miterlimit="10"/></g><g transform="translate(10,2) scale(1,1)"><path d="M 749.8373251423759 412.209517756016 L 760 408 L 749.8373251423758 403.790482243984" fill="#000000" stroke="none"/></g><g transform="translate(10,2) scale(1,1)"><path d="M 749.8373251423759 412.209517756016 L 760 408 L 749.8373251423758 403.790482243984 L 749.8373251423759 412.209517756016" fill="none" stroke="#000000" stroke-miterlimit="10"/></g><g transform="translate(10,2) scale(1,1)"><g><path fill="none" stroke="none"/><text fill="#000000" font-family="Arial" font-size="13px" font-style="normal" font-weight="normal" stroke="none" text-decoration="none" x="569.601318359375" y="386.5">7 : scaricaMerci(codice_lotto,</text><text fill="#000000" font-family="Arial" font-size="13px" font-style="normal" font-weight="normal" stroke="none" text-decoration="none" x="628.475830078125" y="399.5">quantita)</text></g></g><g transform="translate(10,2) scale(1,1)"><rect fill="#ffffff" height="28" stroke="none" width="13" x="760" y="408"/></g><g transform="translate(10,2) scale(1,1)"><path d="M 760 408 L 773 408 L 773 436 L 760 436 L 760 408 Z Z" fill="none" stroke="#000000" stroke-miterlimit="10"/></g><g transform="translate(10,2) scale(1,1)"><path d="M 773 432 L 998 432" fill="none" stroke="#000000" stroke-miterlimit="10"/></g><g transform="translate(10,2) scale(1,1)"><path d="M 987.8373251423759 436.209517756016 L 998 432 L 987.8373251423758 427.790482243984" fill="#000000" stroke="none"/></g><g transform="translate(10,2) scale(1,1)"><path d="M 987.8373251423759 436.209517756016 L 998 432 L 987.8373251423758 427.790482243984 L 987.8373251423759 436.209517756016" fill="none" stroke="#000000" stroke-miterlimit="10"/></g><g transform="translate(10,2) scale(1,1)"><g><path fill="none" stroke="none"/><text fill="#000000" font-family="Arial" font-size="13px" font-style="normal" font-weight="normal" stroke="none" text-decoration="none" x="783.601318359375" y="409.5">8 : queryScaricaMerci(codice_lotto,</text><text fill="#000000" font-family="Arial" font-size="13px" font-style="normal" font-weight="normal" stroke="none" text-decoration="none" x="859.82080078125" y="422.5">quantita)</text></g></g><g transform="translate(10,2) scale(1,1)"><rect fill="#ffffff" height="28" stroke="none" width="13" x="998" y="432"/></g><g transform="translate(10,2) scale(1,1)"><path d="M 998 432 L 1011 432 L 1011 460 L 998 460 L 998 432 Z Z" fill="none" stroke="#000000" stroke-miterlimit="10"/></g><g transform="translate(10,2) scale(1,1)"><path d="M 767 524 L 545 524" fill="none" stroke="#000000" stroke-dasharray="3" stroke-miterlimit="10"/></g><g transform="translate(10,2) scale(1,1)"><path d="M 555.1626748576241 519.790482243984 L 545 524 L 555.1626748576241 528.209517756016" fill="none" stroke="#000000" stroke-miterlimit="10"/></g><g transform="translate(10,2) scale(1,1)"><g><path fill="none" stroke="none"/><text fill="#000000" font-family="Arial" font-size="13px" font-style="normal" font-weight="normal" stroke="none" text-decoration="none" x="619.5" y="538.5">13 : quantita</text></g></g><g transform="translate(10,2) scale(1,1)"><path d="M 998 512 L 767 512" fill="none" stroke="#000000" stroke-dasharray="3" stroke-miterlimit="10"/></g><g transform="translate(10,2) scale(1,1)"><path d="M 777.1626748576241 507.790482243984 L 767 512 L 777.1626748576241 516.209517756016" fill="none" stroke="#000000" stroke-miterlimit="10"/></g><g transform="translate(10,2) scale(1,1)"><g><path fill="none" stroke="none"/><text fill="#000000" font-family="Arial" font-size="13px" font-style="normal" font-weight="normal" stroke="none" text-decoration="none" x="845.5" y="526.5">12 : quantita</text></g></g><g transform="translate(10,2) scale(1,1)"><path d="M 773 496 L 998 496" fill="none" stroke="#000000" stroke-miterlimit="10"/></g><g transform="translate(10,2) scale(1,1)"><path d="M 987.8373251423759 500.209517756016 L 998 496 L 987.8373251423758 491.790482243984" fill="#000000" stroke="none"/></g><g transform="translate(10,2) scale(1,1)"><path d="M 987.8373251423759 500.209517756016 L 998 496 L 987.8373251423758 491.790482243984 L 987.8373251423759 500.209517756016" fill="none" stroke="#000000" stroke-miterlimit="10"/></g><g transform="translate(10,2) scale(1,1)"><g><path fill="none" stroke="none"/><text fill="#000000" font-family="Arial" font-size="13px" font-style="normal" font-weight="normal" stroke="none" text-decoration="none" x="790.982421875" y="490.5">11 : queryQuantita( codice_lotto)</text></g></g><g transform="translate(10,2) scale(1,1)"><rect fill="#ffffff" height="28" stroke="none" width="13" x="998" y="496"/></g><g transform="translate(10,2) scale(1,1)"><path d="M 998 496 L 1011 496 L 1011 524 L 998 524 L 998 496 Z Z" fill="none" stroke="#000000" stroke-miterlimit="10"/></g><g transform="translate(10,2) scale(1,1)"><path d="M 545 472 L 760 472" fill="none" stroke="#000000" stroke-miterlimit="10"/></g><g transform="translate(10,2) scale(1,1)"><path d="M 749.8373251423759 476.209517756016 L 760 472 L 749.8373251423758 467.790482243984" fill="#000000" stroke="none"/></g><g transform="translate(10,2) scale(1,1)"><path d="M 749.8373251423759 476.209517756016 L 760 472 L 749.8373251423758 467.790482243984 L 749.8373251423759 476.209517756016" fill="none" stroke="#000000" stroke-miterlimit="10"/></g><g transform="translate(10,2) scale(1,1)"><g><path fill="none" stroke="none"/><text fill="#000000" font-family="Arial" font-size="13px" font-style="normal" font-weight="normal" stroke="none" text-decoration="none" x="562.54541015625" y="446.5">10 : controllaScorteFarmaco(</text><text fill="#000000" font-family="Arial" font-size="13px" font-style="normal" font-weight="normal" stroke="none" text-decoration="none" x="609.502197265625" y="459.5">codice_lotto)</text></g></g><g transform="translate(10,2) scale(1,1)"><rect fill="#ffffff" height="28" stroke="none" width="13" x="760" y="472"/></g><g transform="translate(10,2) scale(1,1)"><path d="M 760 472 L 773 472 L 773 500 L 760 500 L 760 472 Z Z" fill="none" stroke="#000000" stroke-miterlimit="10"/></g><g transform="translate(10,2) scale(1,1)"><path d="M 998 458 L 767 458" fill="none" stroke="#000000" stroke-dasharray="3" stroke-miterlimit="10"/></g><g transform="translate(10,2) scale(1,1)"><path d="M 777.1626748576241 453.790482243984 L 767 458 L 777.1626748576241 462.209517756016" fill="none" stroke="#000000" stroke-miterlimit="10"/></g><g transform="translate(10,2) scale(1,1)"><g><path fill="none" stroke="none"/><text fill="#000000" font-family="Arial" font-size="13px" font-style="normal" font-weight="normal" stroke="none" text-decoration="none" x="858.114990234375" y="472.5">9 : esito</text></g></g><g transform="translate(10,2) scale(1,1)"><path d="M 545 592 L 499.2666015625 592" fill="none" stroke="#000000" stroke-dasharray="3" stroke-miterlimit="10"/></g><g transform="translate(10,2) scale(1,1)"><path d="M 509.42927642012415 587.790482243984 L 499.2666015625 592 L 509.42927642012415 596.209517756016" fill="none" stroke="#000000" stroke-miterlimit="10"/></g><g transform="translate(10,2) scale(1,1)"><g><path fill="none" stroke="none"/><text fill="#000000" font-family="Arial" font-size="13px" font-style="normal" font-weight="normal" stroke="none" text-decoration="none" x="508.5" y="606.5">14 : </text></g></g><g transform="translate(10,2) scale(1,1)"><g><path fill="none" stroke="none"/><text fill="#000000" font-family="Arial" font-size="13px" font-style="normal" font-weight="normal" stroke="none" text-decoration="none" x="495.5" y="621.5">«create»</text></g></g><g transform="translate(10,2) scale(1,1)"><path d="M 77 638 L 431 638" fill="none" stroke="#000000" stroke-miterlimit="10"/></g><g transform="translate(10,2) scale(1,1)"><path d="M 420.83732514237585 642.209517756016 L 431 638 L 420.83732514237585 633.790482243984" fill="#000000" stroke="none"/></g><g transform="translate(10,2) scale(1,1)"><path d="M 420.83732514237585 642.209517756016 L 431 638 L 420.83732514237585 633.790482243984 L 420.83732514237585 642.209517756016" fill="none" stroke="#000000" stroke-miterlimit="10"/></g><g transform="translate(10,2) scale(1,1)"><path d="M 428 708 L 448 728" fill="none" stroke="#000000" stroke-miterlimit="10"/></g><g transform="translate(10,2) scale(1,1)"><path d="M 448 708 L 428 728" fill="none" stroke="#000000" stroke-miterlimit="10"/></g><g transform="translate(10,2) scale(1,1)"><g><path fill="none" stroke="none"/><text fill="#000000" font-family="Arial" font-size="13px" font-style="normal" font-weight="normal" stroke="none" text-decoration="none" x="214.5" y="632.5">15 : conferma</text></g></g><g transform="translate(10,2) scale(1,1)"><g><path fill="none" stroke="none"/><text fill="#000000" font-family="Arial" font-size="13px" font-style="normal" font-weight="normal" stroke="none" text-decoration="none" x="225.5" y="617.5">«destroy»</text></g></g><g transform="translate(10,2) scale(1,1)"><rect fill="#ffffff" height="28" stroke="none" width="13" x="431" y="638"/></g><g transform="translate(10,2) scale(1,1)"><path d="M 431 638 L 444 638 L 444 666 L 431 666 L 431 638 Z Z" fill="none" stroke="#000000" stroke-miterlimit="10"/></g><g transform="translate(10,2) scale(1,1)"><path d="M 77 808 L 320 808" fill="none" stroke="#000000" stroke-miterlimit="10"/></g><g transform="translate(10,2) scale(1,1)"><path d="M 309.83732514237585 812.209517756016 L 320 808 L 309.83732514237585 803.790482243984" fill="#000000" stroke="none"/></g><g transform="translate(10,2) scale(1,1)"><path d="M 309.83732514237585 812.209517756016 L 320 808 L 309.83732514237585 803.790482243984 L 309.83732514237585 812.209517756016" fill="none" stroke="#000000" stroke-miterlimit="10"/></g><g transform="translate(10,2) scale(1,1)"><path d="M 317 856 L 337 876" fill="none" stroke="#000000" stroke-miterlimit="10"/></g><g transform="translate(10,2) scale(1,1)"><path d="M 337 856 L 317 876" fill="none" stroke="#000000" stroke-miterlimit="10"/></g><g transform="translate(10,2) scale(1,1)"><g><path fill="none" stroke="none"/><text fill="#000000" font-family="Arial" font-size="13px" font-style="normal" font-weight="normal" stroke="none" text-decoration="none" x="151.5" y="802.5">16 : cliccaUscita</text></g></g><g transform="translate(10,2) scale(1,1)"><g><path fill="none" stroke="none"/><text fill="#000000" font-family="Arial" font-size="13px" font-style="normal" font-weight="normal" stroke="none" text-decoration="none" x="169.5" y="787.5">«destroy»</text></g></g><g transform="translate(10,2) scale(1,1)"><rect fill="#ffffff" height="28" stroke="none" width="13" x="320" y="808"/></g><g transform="translate(10,2) scale(1,1)"><path d="M 320 808 L 333 808 L 333 836 L 320 836 L 320 808 Z Z" fill="none" stroke="#000000" stroke-miterlimit="10"/></g><g transform="translate(10,2) scale(1,1)"><path d="M 333 824 L 538 824" fill="none" stroke="#000000" stroke-miterlimit="10"/></g><g transform="translate(10,2) scale(1,1)"><path d="M 527.8373251423759 828.209517756016 L 538 824 L 527.8373251423758 819.790482243984" fill="#000000" stroke="none"/></g><g transform="translate(10,2) scale(1,1)"><path d="M 527.8373251423759 828.209517756016 L 538 824 L 527.8373251423758 819.790482243984 L 527.8373251423759 828.209517756016" fill="none" stroke="#000000" stroke-miterlimit="10"/></g><g transform="translate(10,2) scale(1,1)"><path d="M 535 943 L 555 963" fill="none" stroke="#000000" stroke-miterlimit="10"/></g><g transform="translate(10,2) scale(1,1)"><path d="M 555 943 L 535 963" fill="none" stroke="#000000" stroke-miterlimit="10"/></g><g transform="translate(10,2) scale(1,1)"><g><path fill="none" stroke="none"/><text fill="#000000" font-family="Arial" font-size="13px" font-style="normal" font-weight="normal" stroke="none" text-decoration="none" x="376.5" y="818.5">17 : distruggiControl</text></g></g><g transform="translate(10,2) scale(1,1)"><g><path fill="none" stroke="none"/><text fill="#000000" font-family="Arial" font-size="13px" font-style="normal" font-weight="normal" stroke="none" text-decoration="none" x="406.5" y="803.5">«destroy»</text></g></g><g transform="translate(10,2) scale(1,1)"><rect fill="#ffffff" height="28" stroke="none" width="13" x="538" y="824"/></g><g transform="translate(10,2) scale(1,1)"><path d="M 538 824 L 551 824 L 551 852 L 538 852 L 538 824 Z Z" fill="none" stroke="#000000" stroke-miterlimit="10"/></g><g transform="translate(10,2) scale(1,1)"><path d="M 24 224 L 1055 224 L 1055 888 L 24 888 L 24 224" fill="none" stroke="#000000" stroke-miterlimit="10"/></g><g transform="translate(10,2) scale(1,1)"><path d="M 24 224 L 24 246 L 168.62255859375 246 L 179.62255859375 235 L 179.62255859375 224 L 24 224" fill="#ffffff" stroke="none"/></g><g transform="translate(10,2) scale(1,1)"><path d="M 24 224 L 24 246 L 168.62255859375 246 L 179.62255859375 235 L 179.62255859375 224 L 24 224 L 24 224" fill="none" stroke="#000000" stroke-miterlimit="10"/></g><g transform="translate(10,2) scale(1,1)"><g><path fill="none" stroke="none"/><text fill="#000000" font-family="Arial" font-size="13px" font-style="normal" font-weight="normal" stroke="none" text-decoration="none" x="59.578125" y="239.5">LoopScaricoMerci</text></g></g><g transform="translate(10,2) scale(1,1)"><g><path fill="none" stroke="none"/><text fill="#000000" font-family="Arial" font-size="13px" font-style="normal" font-weight="bold" stroke="none" text-decoration="none" x="27.57177734375" y="239.5">loop</text></g></g><g transform="translate(10,2) scale(1,1)"><g><path fill="none" stroke="none"/><text fill="#000000" font-family="Arial" font-size="13px" font-style="normal" font-weight="normal" stroke="none" text-decoration="none" x="43.5" y="272.5">[Il Farmacista non clicca il bottone di uscita]</text></g></g><g transform="translate(10,2) scale(1,1)"><path d="M 40 544 L 559 544 L 559 768 L 40 768 L 40 544" fill="none" stroke="#000000" stroke-miterlimit="10"/></g><g transform="translate(10,2) scale(1,1)"><path d="M 40 544 L 40 566 L 222.6767578125 566 L 233.6767578125 555 L 233.6767578125 544 L 40 544" fill="#ffffff" stroke="none"/></g><g transform="translate(10,2) scale(1,1)"><path d="M 40 544 L 40 566 L 222.6767578125 566 L 233.6767578125 555 L 233.6767578125 544 L 40 544 L 40 544" fill="none" stroke="#000000" stroke-miterlimit="10"/></g><g transform="translate(10,2) scale(1,1)"><g><path fill="none" stroke="none"/><text fill="#000000" font-family="Arial" font-size="13px" font-style="normal" font-weight="normal" stroke="none" text-decoration="none" x="69.07177734375" y="559.5">AvvisoEsaurimentoScorte</text></g></g><g transform="translate(10,2) scale(1,1)"><g><path fill="none" stroke="none"/><text fill="#000000" font-family="Arial" font-size="13px" font-style="normal" font-weight="bold" stroke="none" text-decoration="none" x="43.930419921875" y="559.5">opt</text></g></g><g transform="translate(10,2) scale(1,1)"><g><path fill="none" stroke="none"/><text fill="#000000" font-family="Arial" font-size="13px" font-style="normal" font-weight="normal" stroke="none" text-decoration="none" x="59.5" y="592.5">[quantita &lt; soglia]</text></g></g></g></svg>