<?xml version="1.0" encoding="UTF-8" standalone="no"?><svg xmlns="http://www.w3.org/2000/svg" xmlns:xlink="http://www.w3.org/1999/xlink" height="796" version="1.1" width="1315.736328125"><defs/><g><g transform="translate(-118,2) scale(1,1)"><path d="M 128 8 L 1099 8 L 1099 784 L 128 784 L 128 8" fill="none" stroke="#000000" stroke-miterlimit="10"/></g><g transform="translate(-118,2) scale(1,1)"><path d="M 128 8 L 128 30 L 254.3095703125 30 L 265.3095703125 19 L 265.3095703125 8 L 128 8" fill="#ffffff" stroke="none"/></g><g transform="translate(-118,2) scale(1,1)"><path d="M 128 8 L 128 30 L 254.3095703125 30 L 265.3095703125 19 L 265.3095703125 8 L 128 8 L 128 8" fill="none" stroke="#000000" stroke-miterlimit="10"/></g><g transform="translate(-118,2) scale(1,1)"><g><path fill="none" stroke="none"/><text fill="#000000" font-family="Arial" font-size="13px" font-style="normal" font-weight="normal" stroke="none" text-decoration="none" x="152.72998046875" y="23.5">Visualizza Ordini</text></g></g><g transform="translate(-118,2) scale(1,1)"><g><path fill="none" stroke="none"/><text fill="#000000" font-family="Arial" font-size="13px" font-style="normal" font-weight="bold" stroke="none" text-decoration="none" x="132.279541015625" y="23.5">sd</text></g></g><g transform="translate(-118,2) scale(1,1)"><path d="M 235.1067977627841 47.3 C 235.1067977627841 43.82060576 237.9851994849659 41 241.535888671875 41 C 245.0865778587841 41 247.96497958096592 43.82060576 247.96497958096592 47.3 C 247.96497958096592 50.779394239999995 245.0865778587841 53.6 241.535888671875 53.6 C 237.9851994849659 53.6 235.1067977627841 50.779394239999995 235.1067977627841 47.3 Z" fill="#ffffff" stroke="none"/></g><g transform="translate(-118,2) scale(1,1)"><path d="M 235.1067977627841 47.3 C 235.1067977627841 43.82060576 237.9851994849659 41 241.535888671875 41 C 245.0865778587841 41 247.96497958096592 43.82060576 247.96497958096592 47.3 C 247.96497958096592 50.779394239999995 245.0865778587841 53.6 241.535888671875 53.6 C 237.9851994849659 53.6 235.1067977627841 50.779394239999995 235.1067977627841 47.3 Z" fill="none" stroke="#000000" stroke-miterlimit="10"/></g><g transform="translate(-118,2) scale(1,1)"><path d="M 241.535888671875 53.6 L 241.535888671875 66.4" fill="none" stroke="#000000" stroke-miterlimit="10"/></g><g transform="translate(-118,2) scale(1,1)"><path d="M 234.7286159446023 58.4 L 248.34316139914773 58.4" fill="none" stroke="#000000" stroke-miterlimit="10"/></g><g transform="translate(-118,2) scale(1,1)"><path d="M 241.535888671875 66.4 L 232.08134321732956 79" fill="none" stroke="#000000" stroke-miterlimit="10"/></g><g transform="translate(-118,2) scale(1,1)"><path d="M 241.535888671875 66.4 L 250.99043412642047 79" fill="none" stroke="#000000" stroke-miterlimit="10"/></g><g transform="translate(-118,2) scale(1,1)"><g><path fill="none" stroke="none"/><text fill="#000000" font-family="Arial" font-size="13px" font-style="normal" font-weight="bold" stroke="none" text-decoration="none" x="206.8681640625" y="97.5">: Impiegato</text></g></g><g transform="translate(-118,2) scale(1,1)"><path d="M 242.5 105 L 242.5 240" fill="none" stroke="#000000" stroke-dasharray="3" stroke-miterlimit="10"/></g><g transform="translate(-118,2) scale(1,1)"><rect fill="#C0C0C0" height="39" opacity="0.2" stroke="none" width="146.1689453125" x="383" y="47"/></g><g transform="translate(-118,2) scale(1,1)"><rect fill="#ffffff" height="39" stroke="none" width="146.1689453125" x="376" y="40"/></g><g transform="translate(-118,2) scale(1,1)"><path d="M 376 40 L 522.1689453125 40 L 522.1689453125 79 L 376 79 L 376 40 Z Z" fill="none" stroke="#000000" stroke-miterlimit="10"/></g><g transform="translate(-118,2) scale(1,1)"><g><path fill="none" stroke="none"/><text fill="#000000" font-family="Arial" font-size="13px" font-style="normal" font-weight="normal" stroke="none" text-decoration="none" x="414.029541015625" y="55.5">«Boundary»</text></g></g><g transform="translate(-118,2) scale(1,1)"><g><path fill="none" stroke="none"/><text fill="#000000" font-family="Arial" font-size="13px" font-style="normal" font-weight="bold" stroke="none" text-decoration="none" x="385.5" y="70.5">InterfacciaPrincipale</text></g></g><g transform="translate(-118,2) scale(1,1)"><path d="M 450.5 80 L 450.5 192" fill="none" stroke="#000000" stroke-dasharray="3" stroke-miterlimit="10"/></g><g transform="translate(-118,2) scale(1,1)"><rect fill="#C0C0C0" height="39" opacity="0.2" stroke="none" width="168.3095703125" x="607" y="139"/></g><g transform="translate(-118,2) scale(1,1)"><rect fill="#ffffff" height="39" stroke="none" width="168.3095703125" x="600" y="132"/></g><g transform="translate(-118,2) scale(1,1)"><path d="M 600 132 L 768.3095703125 132 L 768.3095703125 171 L 600 171 L 600 132 Z Z" fill="none" stroke="#000000" stroke-miterlimit="10"/></g><g transform="translate(-118,2) scale(1,1)"><g><path fill="none" stroke="none"/><text fill="#000000" font-family="Arial" font-size="13px" font-style="normal" font-weight="normal" stroke="none" text-decoration="none" x="655.97119140625" y="147.5">«Control»</text></g></g><g transform="translate(-118,2) scale(1,1)"><g><path fill="none" stroke="none"/><text fill="#000000" font-family="Arial" font-size="13px" font-style="normal" font-weight="bold" stroke="none" text-decoration="none" x="609.5" y="162.5">GestoreVisualizzaOrdini</text></g></g><g transform="translate(-118,2) scale(1,1)"><path d="M 685.5 172 L 685.5 549" fill="none" stroke="#000000" stroke-dasharray="3" stroke-miterlimit="10"/></g><g transform="translate(-118,2) scale(1,1)"><rect fill="#C0C0C0" height="39" opacity="0.2" stroke="none" width="179.1513671875" x="367" y="211"/></g><g transform="translate(-118,2) scale(1,1)"><rect fill="#ffffff" height="39" stroke="none" width="179.1513671875" x="360" y="204"/></g><g transform="translate(-118,2) scale(1,1)"><path d="M 360 204 L 539.1513671875 204 L 539.1513671875 243 L 360 243 L 360 204 Z Z" fill="none" stroke="#000000" stroke-miterlimit="10"/></g><g transform="translate(-118,2) scale(1,1)"><g><path fill="none" stroke="none"/><text fill="#000000" font-family="Arial" font-size="13px" font-style="normal" font-weight="normal" stroke="none" text-decoration="none" x="414.520751953125" y="219.5">«Boundary»</text></g></g><g transform="translate(-118,2) scale(1,1)"><g><path fill="none" stroke="none"/><text fill="#000000" font-family="Arial" font-size="13px" font-style="normal" font-weight="bold" stroke="none" text-decoration="none" x="369.5" y="234.5">IntefacciaVisualizzaOrdini</text></g></g><g transform="translate(-118,2) scale(1,1)"><path d="M 450.5 244 L 450.5 293" fill="none" stroke="#000000" stroke-dasharray="3" stroke-miterlimit="10"/></g><g transform="translate(-118,2) scale(1,1)"><path d="M 1050.274522372159 47.3 C 1050.274522372159 43.82060576 1053.152924094341 41 1056.70361328125 41 C 1060.254302468159 41 1063.132704190341 43.82060576 1063.132704190341 47.3 C 1063.132704190341 50.779394239999995 1060.254302468159 53.6 1056.70361328125 53.6 C 1053.152924094341 53.6 1050.274522372159 50.779394239999995 1050.274522372159 47.3 Z" fill="#ffffff" stroke="none"/></g><g transform="translate(-118,2) scale(1,1)"><path d="M 1050.274522372159 47.3 C 1050.274522372159 43.82060576 1053.152924094341 41 1056.70361328125 41 C 1060.254302468159 41 1063.132704190341 43.82060576 1063.132704190341 47.3 C 1063.132704190341 50.779394239999995 1060.254302468159 53.6 1056.70361328125 53.6 C 1053.152924094341 53.6 1050.274522372159 50.779394239999995 1050.274522372159 47.3 Z" fill="none" stroke="#000000" stroke-miterlimit="10"/></g><g transform="translate(-118,2) scale(1,1)"><path d="M 1056.70361328125 53.6 L 1056.70361328125 66.4" fill="none" stroke="#000000" stroke-miterlimit="10"/></g><g transform="translate(-118,2) scale(1,1)"><path d="M 1049.8963405539773 58.4 L 1063.5108860085227 58.4" fill="none" stroke="#000000" stroke-miterlimit="10"/></g><g transform="translate(-118,2) scale(1,1)"><path d="M 1056.70361328125 66.4 L 1047.2490678267045 79" fill="none" stroke="#000000" stroke-miterlimit="10"/></g><g transform="translate(-118,2) scale(1,1)"><path d="M 1056.70361328125 66.4 L 1066.1581587357955 79" fill="none" stroke="#000000" stroke-miterlimit="10"/></g><g transform="translate(-118,2) scale(1,1)"><g><path fill="none" stroke="none"/><text fill="#000000" font-family="Arial" font-size="13px" font-style="normal" font-weight="bold" stroke="none" text-decoration="none" x="1006.8681640625" y="97.5">: DBMS Azienda</text></g></g><g transform="translate(-118,2) scale(1,1)"><path d="M 1057.5 105 L 1057.5 313" fill="none" stroke="#000000" stroke-dasharray="3" stroke-miterlimit="10"/></g><g transform="translate(-118,2) scale(1,1)"><rect fill="#C0C0C0" height="39" opacity="0.2" stroke="none" width="108.5654296875" x="807" y="47"/></g><g transform="translate(-118,2) scale(1,1)"><rect fill="#ffffff" height="39" stroke="none" width="108.5654296875" x="800" y="40"/></g><g transform="translate(-118,2) scale(1,1)"><path d="M 800 40 L 908.5654296875 40 L 908.5654296875 79 L 800 79 L 800 40 Z Z" fill="none" stroke="#000000" stroke-miterlimit="10"/></g><g transform="translate(-118,2) scale(1,1)"><g><path fill="none" stroke="none"/><text fill="#000000" font-family="Arial" font-size="13px" font-style="normal" font-weight="normal" stroke="none" text-decoration="none" x="819.227783203125" y="55.5">«Boundary»</text></g></g><g transform="translate(-118,2) scale(1,1)"><g><path fill="none" stroke="none"/><text fill="#000000" font-family="Arial" font-size="13px" font-style="normal" font-weight="bold" stroke="none" text-decoration="none" x="809.5" y="70.5">DBMSDaemon</text></g></g><g transform="translate(-118,2) scale(1,1)"><path d="M 855.5 80 L 855.5 338" fill="none" stroke="#000000" stroke-dasharray="3" stroke-miterlimit="10"/></g><g transform="translate(-118,2) scale(1,1)"><rect fill="#C0C0C0" height="39" opacity="0.2" stroke="none" width="87.6181640625" x="471" y="331"/></g><g transform="translate(-118,2) scale(1,1)"><rect fill="#ffffff" height="39" stroke="none" width="87.6181640625" x="464" y="324"/></g><g transform="translate(-118,2) scale(1,1)"><path d="M 464 324 L 551.6181640625 324 L 551.6181640625 363 L 464 363 L 464 324 Z Z" fill="none" stroke="#000000" stroke-miterlimit="10"/></g><g transform="translate(-118,2) scale(1,1)"><g><path fill="none" stroke="none"/><text fill="#000000" font-family="Arial" font-size="13px" font-style="normal" font-weight="normal" stroke="none" text-decoration="none" x="484.32275390625" y="339.5">«Entity»</text></g></g><g transform="translate(-118,2) scale(1,1)"><g><path fill="none" stroke="none"/><text fill="#000000" font-family="Arial" font-size="13px" font-style="normal" font-weight="bold" stroke="none" text-decoration="none" x="473.5" y="354.5">ListaOrdini</text></g></g><g transform="translate(-118,2) scale(1,1)"><path d="M 508.5 364 L 508.5 448" fill="none" stroke="#000000" stroke-dasharray="3" stroke-miterlimit="10"/></g><g transform="translate(-118,2) scale(1,1)"><rect fill="#C0C0C0" height="39" opacity="0.2" stroke="none" width="234.2109375" x="335" y="491"/></g><g transform="translate(-118,2) scale(1,1)"><rect fill="#ffffff" height="39" stroke="none" width="234.2109375" x="328" y="484"/></g><g transform="translate(-118,2) scale(1,1)"><path d="M 328 484 L 562.2109375 484 L 562.2109375 523 L 328 523 L 328 484 Z Z" fill="none" stroke="#000000" stroke-miterlimit="10"/></g><g transform="translate(-118,2) scale(1,1)"><g><path fill="none" stroke="none"/><text fill="#000000" font-family="Arial" font-size="13px" font-style="normal" font-weight="normal" stroke="none" text-decoration="none" x="410.050537109375" y="499.5">«Boundary»</text></g></g><g transform="translate(-118,2) scale(1,1)"><g><path fill="none" stroke="none"/><text fill="#000000" font-family="Arial" font-size="13px" font-style="normal" font-weight="bold" stroke="none" text-decoration="none" x="337.5" y="514.5">BottoneCorreggiOrdini[datiOrdine]</text></g></g><g transform="translate(-118,2) scale(1,1)"><path d="M 446.5 524 L 446.5 608" fill="none" stroke="#000000" stroke-dasharray="3" stroke-miterlimit="10"/></g><g transform="translate(-118,2) scale(1,1)"><rect fill="#C0C0C0" height="39" opacity="0.2" stroke="none" width="71.736328125" x="1359" y="47"/></g><g transform="translate(-118,2) scale(1,1)"><rect fill="#ffffff" height="39" stroke="none" width="71.736328125" x="1352" y="40"/></g><g transform="translate(-118,2) scale(1,1)"><path d="M 1352 40 L 1423.736328125 40 L 1423.736328125 79 L 1352 79 L 1352 40 Z Z" fill="none" stroke="#000000" stroke-miterlimit="10"/></g><g transform="translate(-118,2) scale(1,1)"><g><path fill="none" stroke="none"/><text fill="#000000" font-family="Arial" font-size="13px" font-style="normal" font-weight="bold" stroke="none" text-decoration="none" x="1361.5" y="57.5">Lifeline2</text></g></g><g transform="translate(-118,2) scale(1,1)"><path d="M 1388.5 80 L 1388.5 239" fill="none" stroke="#000000" stroke-dasharray="3" stroke-miterlimit="10"/></g><g transform="translate(-118,2) scale(1,1)"><path d="M 242 144 L 443 144" fill="none" stroke="#000000" stroke-miterlimit="10"/></g><g transform="translate(-118,2) scale(1,1)"><path d="M 432.83732514237585 148.209517756016 L 443 144 L 432.83732514237585 139.790482243984" fill="#000000" stroke="none"/></g><g transform="translate(-118,2) scale(1,1)"><path d="M 432.83732514237585 148.209517756016 L 443 144 L 432.83732514237585 139.790482243984 L 432.83732514237585 148.209517756016" fill="none" stroke="#000000" stroke-miterlimit="10"/></g><g transform="translate(-118,2) scale(1,1)"><g><path fill="none" stroke="none"/><text fill="#000000" font-family="Arial" font-size="13px" font-style="normal" font-weight="normal" stroke="none" text-decoration="none" x="264.5" y="138.5">1 : cliccaVisualizzaOrdini( )</text></g></g><g transform="translate(-118,2) scale(1,1)"><rect fill="#ffffff" height="28" stroke="none" width="13" x="443" y="144"/></g><g transform="translate(-118,2) scale(1,1)"><path d="M 443 144 L 456 144 L 456 172 L 443 172 L 443 144 Z Z" fill="none" stroke="#000000" stroke-miterlimit="10"/></g><g transform="translate(-118,2) scale(1,1)"><path d="M 456 152 L 600 152" fill="none" stroke="#000000" stroke-dasharray="3" stroke-miterlimit="10"/></g><g transform="translate(-118,2) scale(1,1)"><path d="M 589.8373251423759 156.209517756016 L 600 152 L 589.8373251423758 147.790482243984" fill="none" stroke="#000000" stroke-miterlimit="10"/></g><g transform="translate(-118,2) scale(1,1)"><g><path fill="none" stroke="none"/><text fill="#000000" font-family="Arial" font-size="13px" font-style="normal" font-weight="normal" stroke="none" text-decoration="none" x="518.5" y="146.5">2 : </text></g></g><g transform="translate(-118,2) scale(1,1)"><g><path fill="none" stroke="none"/><text fill="#000000" font-family="Arial" font-size="13px" font-style="normal" font-weight="normal" stroke="none" text-decoration="none" x="502.5" y="131.5">«create»</text></g></g><g transform="translate(-118,2) scale(1,1)"><path d="M 685 208 L 848 208" fill="none" stroke="#000000" stroke-miterlimit="10"/></g><g transform="translate(-118,2) scale(1,1)"><path d="M 837.8373251423759 212.209517756016 L 848 208 L 837.8373251423758 203.790482243984" fill="#000000" stroke="none"/></g><g transform="translate(-118,2) scale(1,1)"><path d="M 837.8373251423759 212.209517756016 L 848 208 L 837.8373251423758 203.790482243984 L 837.8373251423759 212.209517756016" fill="none" stroke="#000000" stroke-miterlimit="10"/></g><g transform="translate(-118,2) scale(1,1)"><g><path fill="none" stroke="none"/><text fill="#000000" font-family="Arial" font-size="13px" font-style="normal" font-weight="normal" stroke="none" text-decoration="none" x="693.22998046875" y="194.5">3 : chiediOrdiniAzienda( )</text></g></g><g transform="translate(-118,2) scale(1,1)"><rect fill="#ffffff" height="112" stroke="none" width="13" x="848" y="208"/></g><g transform="translate(-118,2) scale(1,1)"><path d="M 848 208 L 861 208 L 861 320 L 848 320 L 848 208 Z Z" fill="none" stroke="#000000" stroke-miterlimit="10"/></g><g transform="translate(-118,2) scale(1,1)"><path d="M 685 224 L 539.1513671875 224" fill="none" stroke="#000000" stroke-dasharray="3" stroke-miterlimit="10"/></g><g transform="translate(-118,2) scale(1,1)"><path d="M 549.3140420451241 219.790482243984 L 539.1513671875 224 L 549.3140420451241 228.209517756016" fill="none" stroke="#000000" stroke-miterlimit="10"/></g><g transform="translate(-118,2) scale(1,1)"><g><path fill="none" stroke="none"/><text fill="#000000" font-family="Arial" font-size="13px" font-style="normal" font-weight="normal" stroke="none" text-decoration="none" x="601.5" y="238.5">4 : </text></g></g><g transform="translate(-118,2) scale(1,1)"><g><path fill="none" stroke="none"/><text fill="#000000" font-family="Arial" font-size="13px" font-style="normal" font-weight="normal" stroke="none" text-decoration="none" x="585.5" y="253.5">«create»</text></g></g><g transform="translate(-118,2) scale(1,1)"><path d="M 861 248 L 1050 248" fill="none" stroke="#000000" stroke-miterlimit="10"/></g><g transform="translate(-118,2) scale(1,1)"><path d="M 1039.837325142376 252.209517756016 L 1050 248 L 1039.837325142376 243.790482243984" fill="#000000" stroke="none"/></g><g transform="translate(-118,2) scale(1,1)"><path d="M 1039.837325142376 252.209517756016 L 1050 248 L 1039.837325142376 243.790482243984 L 1039.837325142376 252.209517756016" fill="none" stroke="#000000" stroke-miterlimit="10"/></g><g transform="translate(-118,2) scale(1,1)"><g><path fill="none" stroke="none"/><text fill="#000000" font-family="Arial" font-size="13px" font-style="normal" font-weight="normal" stroke="none" text-decoration="none" x="888.22998046875" y="234.5">5 : chiediOrdiniAzienda( )</text></g></g><g transform="translate(-118,2) scale(1,1)"><rect fill="#ffffff" height="64" stroke="none" width="13" x="1050" y="248"/></g><g transform="translate(-118,2) scale(1,1)"><path d="M 1050 248 L 1063 248 L 1063 312 L 1050 312 L 1050 248 Z Z" fill="none" stroke="#000000" stroke-miterlimit="10"/></g><g transform="translate(-118,2) scale(1,1)"><path d="M 1050 296 L 861 296" fill="none" stroke="#000000" stroke-dasharray="3" stroke-miterlimit="10"/></g><g transform="translate(-118,2) scale(1,1)"><path d="M 871.1626748576241 291.790482243984 L 861 296 L 871.1626748576241 300.209517756016" fill="none" stroke="#000000" stroke-miterlimit="10"/></g><g transform="translate(-118,2) scale(1,1)"><g><path fill="none" stroke="none"/><text fill="#000000" font-family="Arial" font-size="13px" font-style="normal" font-weight="normal" stroke="none" text-decoration="none" x="904.5" y="313.5">6 : OrdiniAzienda</text></g></g><g transform="translate(-118,2) scale(1,1)"><path d="M 848 298 L 685 298" fill="none" stroke="#000000" stroke-dasharray="3" stroke-miterlimit="10"/></g><g transform="translate(-118,2) scale(1,1)"><path d="M 695.1626748576241 293.790482243984 L 685 298 L 695.1626748576241 302.209517756016" fill="none" stroke="#000000" stroke-miterlimit="10"/></g><g transform="translate(-118,2) scale(1,1)"><g><path fill="none" stroke="none"/><text fill="#000000" font-family="Arial" font-size="13px" font-style="normal" font-weight="normal" stroke="none" text-decoration="none" x="715.5" y="314.5">7 : OrdiniAzienda</text></g></g><g transform="translate(-118,2) scale(1,1)"><path d="M 685 344 L 551.6181640625 344" fill="none" stroke="#000000" stroke-dasharray="3" stroke-miterlimit="10"/></g><g transform="translate(-118,2) scale(1,1)"><path d="M 561.7808389201241 339.790482243984 L 551.6181640625 344 L 561.7808389201241 348.209517756016" fill="none" stroke="#000000" stroke-miterlimit="10"/></g><g transform="translate(-118,2) scale(1,1)"><g><path fill="none" stroke="none"/><text fill="#000000" font-family="Arial" font-size="13px" font-style="normal" font-weight="normal" stroke="none" text-decoration="none" x="607.5" y="358.5">8 : </text></g></g><g transform="translate(-118,2) scale(1,1)"><g><path fill="none" stroke="none"/><text fill="#000000" font-family="Arial" font-size="13px" font-style="normal" font-weight="normal" stroke="none" text-decoration="none" x="591.5" y="373.5">«create»</text></g></g><g transform="translate(-118,2) scale(1,1)"><path d="M 685 504 L 562.2109375 504" fill="none" stroke="#000000" stroke-dasharray="3" stroke-miterlimit="10"/></g><g transform="translate(-118,2) scale(1,1)"><path d="M 572.3736123576241 499.790482243984 L 562.2109375 504 L 572.3736123576241 508.209517756016" fill="none" stroke="#000000" stroke-miterlimit="10"/></g><g transform="translate(-118,2) scale(1,1)"><g><path fill="none" stroke="none"/><text fill="#000000" font-family="Arial" font-size="13px" font-style="normal" font-weight="normal" stroke="none" text-decoration="none" x="612.5" y="518.5">9 : </text></g></g><g transform="translate(-118,2) scale(1,1)"><g><path fill="none" stroke="none"/><text fill="#000000" font-family="Arial" font-size="13px" font-style="normal" font-weight="normal" stroke="none" text-decoration="none" x="596.5" y="533.5">«create»</text></g></g><g transform="translate(-118,2) scale(1,1)"><path d="M 144 408 L 736 408 L 736 632 L 144 632 L 144 408" fill="none" stroke="#000000" stroke-miterlimit="10"/></g><g transform="translate(-118,2) scale(1,1)"><path d="M 144 408 L 144 430 L 188.18994140625 430 L 199.18994140625 419 L 199.18994140625 408 L 144 408" fill="#ffffff" stroke="none"/></g><g transform="translate(-118,2) scale(1,1)"><path d="M 144 408 L 144 430 L 188.18994140625 430 L 199.18994140625 419 L 199.18994140625 408 L 144 408 L 144 408" fill="none" stroke="#000000" stroke-miterlimit="10"/></g><g transform="translate(-118,2) scale(1,1)"><g><path fill="none" stroke="none"/><text fill="#000000" font-family="Arial" font-size="13px" font-style="normal" font-weight="normal" stroke="none" text-decoration="none" x="179.578125" y="419"> </text></g></g><g transform="translate(-118,2) scale(1,1)"><g><path fill="none" stroke="none"/><text fill="#000000" font-family="Arial" font-size="13px" font-style="normal" font-weight="bold" stroke="none" text-decoration="none" x="147.57177734375" y="423.5">loop</text></g></g><g transform="translate(-118,2) scale(1,1)"><g><path fill="none" stroke="none"/><text fill="#000000" font-family="Arial" font-size="13px" font-style="normal" font-weight="normal" stroke="none" text-decoration="none" x="163.5" y="456.5">[Per ogni ordine con stato "Da Verificare"]</text></g></g></g></svg>