<?xml version="1.0" encoding="UTF-8" standalone="no"?><svg xmlns="http://www.w3.org/2000/svg" xmlns:xlink="http://www.w3.org/1999/xlink" height="556" version="1.1" width="1380"><defs/><g><g transform="translate(2,10) scale(1,1)"><path d="M 8 0 L 1368 0 L 1368 536 L 8 536 L 8 0" fill="none" stroke="#000000" stroke-miterlimit="10"/></g><g transform="translate(2,10) scale(1,1)"><path d="M 8 0 L 8 22 L 221.25341796875 22 L 232.25341796875 11 L 232.25341796875 0 L 8 0" fill="#ffffff" stroke="none"/></g><g transform="translate(2,10) scale(1,1)"><path d="M 8 0 L 8 22 L 221.25341796875 22 L 232.25341796875 11 L 232.25341796875 0 L 8 0 L 8 0" fill="none" stroke="#000000" stroke-miterlimit="10"/></g><g transform="translate(2,10) scale(1,1)"><g><path fill="none" stroke="none"/><text fill="#000000" font-family="Arial" font-size="13px" font-style="normal" font-weight="normal" stroke="none" text-decoration="none" x="32.72998046875" y="15.5">Aggiornamento Scorte Farmaci </text></g></g><g transform="translate(2,10) scale(1,1)"><g><path fill="none" stroke="none"/><text fill="#000000" font-family="Arial" font-size="13px" font-style="normal" font-weight="bold" stroke="none" text-decoration="none" x="12.279541015625" y="15.5">sd</text></g></g><g transform="translate(2,10) scale(1,1)"><path d="M 97.2330184659091 47.3 C 97.2330184659091 43.82060576 100.11142018809092 41 103.662109375 41 C 107.21279856190908 41 110.0912002840909 43.82060576 110.0912002840909 47.3 C 110.0912002840909 50.779394239999995 107.21279856190908 53.6 103.662109375 53.6 C 100.11142018809092 53.6 97.2330184659091 50.779394239999995 97.2330184659091 47.3 Z" fill="#ffffff" stroke="none"/></g><g transform="translate(2,10) scale(1,1)"><path d="M 97.2330184659091 47.3 C 97.2330184659091 43.82060576 100.11142018809092 41 103.662109375 41 C 107.21279856190908 41 110.0912002840909 43.82060576 110.0912002840909 47.3 C 110.0912002840909 50.779394239999995 107.21279856190908 53.6 103.662109375 53.6 C 100.11142018809092 53.6 97.2330184659091 50.779394239999995 97.2330184659091 47.3 Z" fill="none" stroke="#000000" stroke-miterlimit="10"/></g><g transform="translate(2,10) scale(1,1)"><path d="M 103.662109375 53.6 L 103.662109375 66.4" fill="none" stroke="#000000" stroke-miterlimit="10"/></g><g transform="translate(2,10) scale(1,1)"><path d="M 96.85483664772727 58.4 L 110.46938210227273 58.4" fill="none" stroke="#000000" stroke-miterlimit="10"/></g><g transform="translate(2,10) scale(1,1)"><path d="M 103.662109375 66.4 L 94.20756392045455 79" fill="none" stroke="#000000" stroke-miterlimit="10"/></g><g transform="translate(2,10) scale(1,1)"><path d="M 103.662109375 66.4 L 113.11665482954545 79" fill="none" stroke="#000000" stroke-miterlimit="10"/></g><g transform="translate(2,10) scale(1,1)"><g><path fill="none" stroke="none"/><text fill="#000000" font-family="Arial" font-size="13px" font-style="normal" font-weight="bold" stroke="none" text-decoration="none" x="78.8681640625" y="97.5">: Tempo</text></g></g><g transform="translate(2,10) scale(1,1)"><path d="M 104.5 105 L 104.5 528" fill="none" stroke="#000000" stroke-dasharray="3" stroke-miterlimit="10"/></g><g transform="translate(2,10) scale(1,1)"><rect fill="#C0C0C0" height="39" opacity="0.2" stroke="none" width="148.30810546875" x="255" y="47"/></g><g transform="translate(2,10) scale(1,1)"><rect fill="#ffffff" height="39" stroke="none" width="148.30810546875" x="248" y="40"/></g><g transform="translate(2,10) scale(1,1)"><path d="M 248 40 L 396.30810546875 40 L 396.30810546875 79 L 248 79 L 248 40 Z Z" fill="none" stroke="#000000" stroke-miterlimit="10"/></g><g transform="translate(2,10) scale(1,1)"><g><path fill="none" stroke="none"/><text fill="#000000" font-family="Arial" font-size="13px" font-style="normal" font-weight="normal" stroke="none" text-decoration="none" x="287.09912109375" y="55.5">«Boundary»</text></g></g><g transform="translate(2,10) scale(1,1)"><g><path fill="none" stroke="none"/><text fill="#000000" font-family="Arial" font-size="13px" font-style="normal" font-weight="bold" stroke="none" text-decoration="none" x="260.38818359375" y="70.5">BoundaryDiSistema</text></g></g><g transform="translate(2,10) scale(1,1)"><path d="M 323.5 80 L 323.5 528" fill="none" stroke="#000000" stroke-dasharray="3" stroke-miterlimit="10"/></g><g transform="translate(2,10) scale(1,1)"><rect fill="#C0C0C0" height="39" opacity="0.2" stroke="none" width="130.99169921875" x="479" y="47"/></g><g transform="translate(2,10) scale(1,1)"><rect fill="#ffffff" height="39" stroke="none" width="130.99169921875" x="472" y="40"/></g><g transform="translate(2,10) scale(1,1)"><path d="M 472 40 L 602.99169921875 40 L 602.99169921875 79 L 472 79 L 472 40 Z Z" fill="none" stroke="#000000" stroke-miterlimit="10"/></g><g transform="translate(2,10) scale(1,1)"><g><path fill="none" stroke="none"/><text fill="#000000" font-family="Arial" font-size="13px" font-style="normal" font-weight="normal" stroke="none" text-decoration="none" x="509.312255859375" y="55.5">«Control»</text></g></g><g transform="translate(2,10) scale(1,1)"><g><path fill="none" stroke="none"/><text fill="#000000" font-family="Arial" font-size="13px" font-style="normal" font-weight="bold" stroke="none" text-decoration="none" x="481.5" y="70.5">GestoreDiSistema</text></g></g><g transform="translate(2,10) scale(1,1)"><path d="M 538.5 80 L 538.5 528" fill="none" stroke="#000000" stroke-dasharray="3" stroke-miterlimit="10"/></g><g transform="translate(2,10) scale(1,1)"><rect fill="#C0C0C0" height="39" opacity="0.2" stroke="none" width="108.5654296875" x="823" y="47"/></g><g transform="translate(2,10) scale(1,1)"><rect fill="#ffffff" height="39" stroke="none" width="108.5654296875" x="816" y="40"/></g><g transform="translate(2,10) scale(1,1)"><path d="M 816 40 L 924.5654296875 40 L 924.5654296875 79 L 816 79 L 816 40 Z Z" fill="none" stroke="#000000" stroke-miterlimit="10"/></g><g transform="translate(2,10) scale(1,1)"><g><path fill="none" stroke="none"/><text fill="#000000" font-family="Arial" font-size="13px" font-style="normal" font-weight="normal" stroke="none" text-decoration="none" x="835.227783203125" y="55.5">«Boundary»</text></g></g><g transform="translate(2,10) scale(1,1)"><g><path fill="none" stroke="none"/><text fill="#000000" font-family="Arial" font-size="13px" font-style="normal" font-weight="bold" stroke="none" text-decoration="none" x="825.5" y="70.5">DBMSDaemon</text></g></g><g transform="translate(2,10) scale(1,1)"><path d="M 871.5 80 L 871.5 520" fill="none" stroke="#000000" stroke-dasharray="3" stroke-miterlimit="10"/></g><g transform="translate(2,10) scale(1,1)"><path d="M 1186.274522372159 47.3 C 1186.274522372159 43.82060576 1189.152924094341 41 1192.70361328125 41 C 1196.254302468159 41 1199.132704190341 43.82060576 1199.132704190341 47.3 C 1199.132704190341 50.779394239999995 1196.254302468159 53.6 1192.70361328125 53.6 C 1189.152924094341 53.6 1186.274522372159 50.779394239999995 1186.274522372159 47.3 Z" fill="#ffffff" stroke="none"/></g><g transform="translate(2,10) scale(1,1)"><path d="M 1186.274522372159 47.3 C 1186.274522372159 43.82060576 1189.152924094341 41 1192.70361328125 41 C 1196.254302468159 41 1199.132704190341 43.82060576 1199.132704190341 47.3 C 1199.132704190341 50.779394239999995 1196.254302468159 53.6 1192.70361328125 53.6 C 1189.152924094341 53.6 1186.274522372159 50.779394239999995 1186.274522372159 47.3 Z" fill="none" stroke="#000000" stroke-miterlimit="10"/></g><g transform="translate(2,10) scale(1,1)"><path d="M 1192.70361328125 53.6 L 1192.70361328125 66.4" fill="none" stroke="#000000" stroke-miterlimit="10"/></g><g transform="translate(2,10) scale(1,1)"><path d="M 1185.8963405539773 58.4 L 1199.5108860085227 58.4" fill="none" stroke="#000000" stroke-miterlimit="10"/></g><g transform="translate(2,10) scale(1,1)"><path d="M 1192.70361328125 66.4 L 1183.2490678267045 79" fill="none" stroke="#000000" stroke-miterlimit="10"/></g><g transform="translate(2,10) scale(1,1)"><path d="M 1192.70361328125 66.4 L 1202.1581587357955 79" fill="none" stroke="#000000" stroke-miterlimit="10"/></g><g transform="translate(2,10) scale(1,1)"><g><path fill="none" stroke="none"/><text fill="#000000" font-family="Arial" font-size="13px" font-style="normal" font-weight="bold" stroke="none" text-decoration="none" x="1142.8681640625" y="97.5">: DBMS Azienda</text></g></g><g transform="translate(2,10) scale(1,1)"><path d="M 1193.5 105 L 1193.5 520" fill="none" stroke="#000000" stroke-dasharray="3" stroke-miterlimit="10"/></g><g transform="translate(2,10) scale(1,1)"><path d="M 104 120 L 316 120" fill="none" stroke="#000000" stroke-miterlimit="10"/></g><g transform="translate(2,10) scale(1,1)"><path d="M 305.83732514237585 124.20951775601598 L 316 120 L 305.83732514237585 115.79048224398402" fill="#000000" stroke="none"/></g><g transform="translate(2,10) scale(1,1)"><path d="M 305.83732514237585 124.20951775601598 L 316 120 L 305.83732514237585 115.79048224398402 L 305.83732514237585 124.20951775601598" fill="none" stroke="#000000" stroke-miterlimit="10"/></g><g transform="translate(2,10) scale(1,1)"><g><path fill="none" stroke="none"/><text fill="#000000" font-family="Arial" font-size="13px" font-style="normal" font-weight="normal" stroke="none" text-decoration="none" x="164.5" y="114.5">1 : chiediData( )</text></g></g><g transform="translate(2,10) scale(1,1)"><rect fill="#ffffff" height="28" stroke="none" width="13" x="316" y="120"/></g><g transform="translate(2,10) scale(1,1)"><path d="M 316 120 L 329 120 L 329 148 L 316 148 L 316 120 Z Z" fill="none" stroke="#000000" stroke-miterlimit="10"/></g><g transform="translate(2,10) scale(1,1)"><path d="M 329 144 L 531 144" fill="none" stroke="#000000" stroke-miterlimit="10"/></g><g transform="translate(2,10) scale(1,1)"><path d="M 520.8373251423759 148.209517756016 L 531 144 L 520.8373251423758 139.790482243984" fill="#000000" stroke="none"/></g><g transform="translate(2,10) scale(1,1)"><path d="M 520.8373251423759 148.209517756016 L 531 144 L 520.8373251423758 139.790482243984 L 520.8373251423759 148.209517756016" fill="none" stroke="#000000" stroke-miterlimit="10"/></g><g transform="translate(2,10) scale(1,1)"><g><path fill="none" stroke="none"/><text fill="#000000" font-family="Arial" font-size="13px" font-style="normal" font-weight="normal" stroke="none" text-decoration="none" x="384.5" y="138.5">2 : chiediData( )</text></g></g><g transform="translate(2,10) scale(1,1)"><rect fill="#ffffff" height="320" stroke="none" width="13" x="531" y="144"/></g><g transform="translate(2,10) scale(1,1)"><path d="M 531 144 L 544 144 L 544 464 L 531 464 L 531 144 Z Z" fill="none" stroke="#000000" stroke-miterlimit="10"/></g><g transform="translate(2,10) scale(1,1)"><path d="M 544 160 L 574 160 L 574 180 L 551 180" fill="none" stroke="#000000" stroke-miterlimit="10"/></g><g transform="translate(2,10) scale(1,1)"><path d="M 561.1626748576241 175.790482243984 L 551 180 L 561.1626748576241 184.209517756016" fill="#000000" stroke="none"/></g><g transform="translate(2,10) scale(1,1)"><path d="M 561.1626748576241 175.790482243984 L 551 180 L 561.1626748576241 184.209517756016 L 561.1626748576241 175.790482243984" fill="none" stroke="#000000" stroke-miterlimit="10"/></g><g transform="translate(2,10) scale(1,1)"><g><path fill="none" stroke="none"/><text fill="#000000" font-family="Arial" font-size="13px" font-style="normal" font-weight="normal" stroke="none" text-decoration="none" x="557.5" y="202.5">3 : controllaData( )</text></g></g><g transform="translate(2,10) scale(1,1)"><rect fill="#ffffff" height="28" stroke="none" width="13" x="538" y="180"/></g><g transform="translate(2,10) scale(1,1)"><path d="M 538 180 L 551 180 L 551 208 L 538 208 L 538 180 Z Z" fill="none" stroke="#000000" stroke-miterlimit="10"/></g><g transform="translate(2,10) scale(1,1)"><path d="M 544 252 L 864 252" fill="none" stroke="#000000" stroke-miterlimit="10"/></g><g transform="translate(2,10) scale(1,1)"><path d="M 853.8373251423759 256.209517756016 L 864 252 L 853.8373251423758 247.790482243984" fill="#000000" stroke="none"/></g><g transform="translate(2,10) scale(1,1)"><path d="M 853.8373251423759 256.209517756016 L 864 252 L 853.8373251423758 247.790482243984 L 853.8373251423759 256.209517756016" fill="none" stroke="#000000" stroke-miterlimit="10"/></g><g transform="translate(2,10) scale(1,1)"><g><path fill="none" stroke="none"/><text fill="#000000" font-family="Arial" font-size="13px" font-style="normal" font-weight="normal" stroke="none" text-decoration="none" x="644.5" y="246.5">4 : aggiornaScorte( )</text></g></g><g transform="translate(2,10) scale(1,1)"><rect fill="#ffffff" height="60" stroke="none" width="13" x="864" y="252"/></g><g transform="translate(2,10) scale(1,1)"><path d="M 864 252 L 877 252 L 877 312 L 864 312 L 864 252 Z Z" fill="none" stroke="#000000" stroke-miterlimit="10"/></g><g transform="translate(2,10) scale(1,1)"><path d="M 877 272 L 1186 272" fill="none" stroke="#000000" stroke-miterlimit="10"/></g><g transform="translate(2,10) scale(1,1)"><path d="M 1175.837325142376 276.209517756016 L 1186 272 L 1175.837325142376 267.790482243984" fill="#000000" stroke="none"/></g><g transform="translate(2,10) scale(1,1)"><path d="M 1175.837325142376 276.209517756016 L 1186 272 L 1175.837325142376 267.790482243984 L 1175.837325142376 276.209517756016" fill="none" stroke="#000000" stroke-miterlimit="10"/></g><g transform="translate(2,10) scale(1,1)"><g><path fill="none" stroke="none"/><text fill="#000000" font-family="Arial" font-size="13px" font-style="normal" font-weight="normal" stroke="none" text-decoration="none" x="971.5" y="266.5">5 : aggiornaScorte( )</text></g></g><g transform="translate(2,10) scale(1,1)"><rect fill="#ffffff" height="28" stroke="none" width="13" x="1186" y="272"/></g><g transform="translate(2,10) scale(1,1)"><path d="M 1186 272 L 1199 272 L 1199 300 L 1186 300 L 1186 272 Z Z" fill="none" stroke="#000000" stroke-miterlimit="10"/></g><g transform="translate(2,10) scale(1,1)"><path d="M 1186 291 L 877 291" fill="none" stroke="#000000" stroke-dasharray="3" stroke-miterlimit="10"/></g><g transform="translate(2,10) scale(1,1)"><path d="M 887.1626748576241 286.790482243984 L 877 291 L 887.1626748576241 295.209517756016" fill="none" stroke="#000000" stroke-miterlimit="10"/></g><g transform="translate(2,10) scale(1,1)"><g><path fill="none" stroke="none"/><text fill="#000000" font-family="Arial" font-size="13px" font-style="normal" font-weight="normal" stroke="none" text-decoration="none" x="1007.5" y="305.5">6 : esito</text></g></g><g transform="translate(2,10) scale(1,1)"><path d="M 864 304 L 544 304" fill="none" stroke="#000000" stroke-dasharray="3" stroke-miterlimit="10"/></g><g transform="translate(2,10) scale(1,1)"><path d="M 554.1626748576241 299.790482243984 L 544 304 L 554.1626748576241 308.209517756016" fill="none" stroke="#000000" stroke-miterlimit="10"/></g><g transform="translate(2,10) scale(1,1)"><g><path fill="none" stroke="none"/><text fill="#000000" font-family="Arial" font-size="13px" font-style="normal" font-weight="normal" stroke="none" text-decoration="none" x="680.5" y="318.5">7 : esito</text></g></g><g transform="translate(2,10) scale(1,1)"><path d="M 544 392 L 864 392" fill="none" stroke="#000000" stroke-miterlimit="10"/></g><g transform="translate(2,10) scale(1,1)"><path d="M 853.8373251423759 396.209517756016 L 864 392 L 853.8373251423758 387.790482243984" fill="#000000" stroke="none"/></g><g transform="translate(2,10) scale(1,1)"><path d="M 853.8373251423759 396.209517756016 L 864 392 L 853.8373251423758 387.790482243984 L 853.8373251423759 396.209517756016" fill="none" stroke="#000000" stroke-miterlimit="10"/></g><g transform="translate(2,10) scale(1,1)"><g><path fill="none" stroke="none"/><text fill="#000000" font-family="Arial" font-size="13px" font-style="normal" font-weight="normal" stroke="none" text-decoration="none" x="578.114990234375" y="386.5">8 : aggiornaDBMS(quantità, in_lavorazione)</text></g></g><g transform="translate(2,10) scale(1,1)"><rect fill="#ffffff" height="48" stroke="none" width="13" x="864" y="392"/></g><g transform="translate(2,10) scale(1,1)"><path d="M 864 392 L 877 392 L 877 440 L 864 440 L 864 392 Z Z" fill="none" stroke="#000000" stroke-miterlimit="10"/></g><g transform="translate(2,10) scale(1,1)"><path d="M 877 412 L 1186 412" fill="none" stroke="#000000" stroke-miterlimit="10"/></g><g transform="translate(2,10) scale(1,1)"><path d="M 1175.837325142376 416.209517756016 L 1186 412 L 1175.837325142376 407.790482243984" fill="#000000" stroke="none"/></g><g transform="translate(2,10) scale(1,1)"><path d="M 1175.837325142376 416.209517756016 L 1186 412 L 1175.837325142376 407.790482243984 L 1175.837325142376 416.209517756016" fill="none" stroke="#000000" stroke-miterlimit="10"/></g><g transform="translate(2,10) scale(1,1)"><g><path fill="none" stroke="none"/><text fill="#000000" font-family="Arial" font-size="13px" font-style="normal" font-weight="normal" stroke="none" text-decoration="none" x="889.114990234375" y="406.5">9 : queryAggiornamento(quantità, in_lavorazione)</text></g></g><g transform="translate(2,10) scale(1,1)"><rect fill="#ffffff" height="28" stroke="none" width="13" x="1186" y="412"/></g><g transform="translate(2,10) scale(1,1)"><path d="M 1186 412 L 1199 412 L 1199 440 L 1186 440 L 1186 412 Z Z" fill="none" stroke="#000000" stroke-miterlimit="10"/></g><g transform="translate(2,10) scale(1,1)"><path d="M 1186 433 L 877 433" fill="none" stroke="#000000" stroke-dasharray="3" stroke-miterlimit="10"/></g><g transform="translate(2,10) scale(1,1)"><path d="M 887.1626748576241 428.790482243984 L 877 433 L 887.1626748576241 437.209517756016" fill="none" stroke="#000000" stroke-miterlimit="10"/></g><g transform="translate(2,10) scale(1,1)"><g><path fill="none" stroke="none"/><text fill="#000000" font-family="Arial" font-size="13px" font-style="normal" font-weight="normal" stroke="none" text-decoration="none" x="1003.5" y="447.5">10 : esito</text></g></g><g transform="translate(2,10) scale(1,1)"><path d="M 871 441 L 544 441" fill="none" stroke="#000000" stroke-dasharray="3" stroke-miterlimit="10"/></g><g transform="translate(2,10) scale(1,1)"><path d="M 554.1626748576241 436.790482243984 L 544 441 L 554.1626748576241 445.209517756016" fill="none" stroke="#000000" stroke-miterlimit="10"/></g><g transform="translate(2,10) scale(1,1)"><g><path fill="none" stroke="none"/><text fill="#000000" font-family="Arial" font-size="13px" font-style="normal" font-weight="normal" stroke="none" text-decoration="none" x="679.982421875" y="455.5">11 : esito</text></g></g><g transform="translate(2,10) scale(1,1)"><path d="M 40 208 L 1272 208 L 1272 504 L 40 504 L 40 208" fill="none" stroke="#000000" stroke-miterlimit="10"/></g><g transform="translate(2,10) scale(1,1)"><path d="M 40 208 L 40 230 L 157.892578125 230 L 168.892578125 219 L 168.892578125 208 L 40 208" fill="#ffffff" stroke="none"/></g><g transform="translate(2,10) scale(1,1)"><path d="M 40 208 L 40 230 L 157.892578125 230 L 168.892578125 219 L 168.892578125 208 L 40 208 L 40 208" fill="none" stroke="#000000" stroke-miterlimit="10"/></g><g transform="translate(2,10) scale(1,1)"><g><path fill="none" stroke="none"/><text fill="#000000" font-family="Arial" font-size="13px" font-style="normal" font-weight="normal" stroke="none" text-decoration="none" x="69.07177734375" y="223.5">giorno corretto</text></g></g><g transform="translate(2,10) scale(1,1)"><g><path fill="none" stroke="none"/><text fill="#000000" font-family="Arial" font-size="13px" font-style="normal" font-weight="bold" stroke="none" text-decoration="none" x="43.930419921875" y="223.5">opt</text></g></g><g transform="translate(2,10) scale(1,1)"><g><path fill="none" stroke="none"/><text fill="#000000" font-family="Arial" font-size="13px" font-style="normal" font-weight="normal" stroke="none" text-decoration="none" x="59.5" y="256.5">[data = data_produzione]</text></g></g><g transform="translate(2,10) scale(1,1)"><path d="M 488 320 L 1224 320 L 1224 480 L 488 480 L 488 320" fill="none" stroke="#000000" stroke-miterlimit="10"/></g><g transform="translate(2,10) scale(1,1)"><path d="M 488 320 L 488 342 L 698.4033203125 342 L 709.4033203125 331 L 709.4033203125 320 L 488 320" fill="#ffffff" stroke="none"/></g><g transform="translate(2,10) scale(1,1)"><path d="M 488 320 L 488 342 L 698.4033203125 342 L 709.4033203125 331 L 709.4033203125 320 L 488 320 L 488 320" fill="none" stroke="#000000" stroke-miterlimit="10"/></g><g transform="translate(2,10) scale(1,1)"><g><path fill="none" stroke="none"/><text fill="#000000" font-family="Arial" font-size="13px" font-style="normal" font-weight="normal" stroke="none" text-decoration="none" x="523.578125" y="335.5">ordini in attesa di disponibilità</text></g></g><g transform="translate(2,10) scale(1,1)"><g><path fill="none" stroke="none"/><text fill="#000000" font-family="Arial" font-size="13px" font-style="normal" font-weight="bold" stroke="none" text-decoration="none" x="491.57177734375" y="335.5">loop</text></g></g><g transform="translate(2,10) scale(1,1)"><g><path fill="none" stroke="none"/><text fill="#000000" font-family="Arial" font-size="13px" font-style="normal" font-weight="normal" stroke="none" text-decoration="none" x="507.5" y="368.5">[per ogni ordine in attesa di disponibilità]</text></g></g></g></svg>