<?xml version="1.0" encoding="UTF-8" standalone="no"?><svg xmlns="http://www.w3.org/2000/svg" xmlns:xlink="http://www.w3.org/1999/xlink" height="1556" version="1.1" width="1332"><defs/><g><g transform="translate(-6,10) scale(1,1)"><path d="M 16 0 L 1328 0 L 1328 1536 L 16 1536 L 16 0" fill="none" stroke="#000000" stroke-miterlimit="10"/></g><g transform="translate(-6,10) scale(1,1)"><path d="M 16 0 L 16 22 L 210.45166015625 22 L 221.45166015625 11 L 221.45166015625 0 L 16 0" fill="#ffffff" stroke="none"/></g><g transform="translate(-6,10) scale(1,1)"><path d="M 16 0 L 16 22 L 210.45166015625 22 L 221.45166015625 11 L 221.45166015625 0 L 16 0 L 16 0" fill="none" stroke="#000000" stroke-miterlimit="10"/></g><g transform="translate(-6,10) scale(1,1)"><g><path fill="none" stroke="none"/><text fill="#000000" font-family="Arial" font-size="13px" font-style="normal" font-weight="normal" stroke="none" text-decoration="none" x="40.72998046875" y="15.5">Controllo Caricamento Merci</text></g></g><g transform="translate(-6,10) scale(1,1)"><g><path fill="none" stroke="none"/><text fill="#000000" font-family="Arial" font-size="13px" font-style="normal" font-weight="bold" stroke="none" text-decoration="none" x="20.279541015625" y="15.5">sd</text></g></g><g transform="translate(-6,10) scale(1,1)"><rect fill="#C0C0C0" height="39" opacity="0.2" stroke="none" width="138.9326171875" x="343" y="47"/></g><g transform="translate(-6,10) scale(1,1)"><rect fill="#ffffff" height="39" stroke="none" width="138.9326171875" x="336" y="40"/></g><g transform="translate(-6,10) scale(1,1)"><path d="M 336 40 L 474.9326171875 40 L 474.9326171875 79 L 336 79 L 336 40 Z Z" fill="none" stroke="#000000" stroke-miterlimit="10"/></g><g transform="translate(-6,10) scale(1,1)"><g><path fill="none" stroke="none"/><text fill="#000000" font-family="Arial" font-size="13px" font-style="normal" font-weight="normal" stroke="none" text-decoration="none" x="377.28271484375" y="55.5">«Control»</text></g></g><g transform="translate(-6,10) scale(1,1)"><g><path fill="none" stroke="none"/><text fill="#000000" font-family="Arial" font-size="13px" font-style="normal" font-weight="bold" stroke="none" text-decoration="none" x="345.5" y="70.5">: GestoreDiSistema</text></g></g><g transform="translate(-6,10) scale(1,1)"><path d="M 406.5 80 L 406.5 1434" fill="none" stroke="#000000" stroke-dasharray="3" stroke-miterlimit="10"/></g><g transform="translate(-6,10) scale(1,1)"><path d="M 65.2330184659091 47.3 C 65.2330184659091 43.82060576 68.11142018809092 41 71.662109375 41 C 75.21279856190908 41 78.0912002840909 43.82060576 78.0912002840909 47.3 C 78.0912002840909 50.779394239999995 75.21279856190908 53.6 71.662109375 53.6 C 68.11142018809092 53.6 65.2330184659091 50.779394239999995 65.2330184659091 47.3 Z" fill="#ffffff" stroke="none"/></g><g transform="translate(-6,10) scale(1,1)"><path d="M 65.2330184659091 47.3 C 65.2330184659091 43.82060576 68.11142018809092 41 71.662109375 41 C 75.21279856190908 41 78.0912002840909 43.82060576 78.0912002840909 47.3 C 78.0912002840909 50.779394239999995 75.21279856190908 53.6 71.662109375 53.6 C 68.11142018809092 53.6 65.2330184659091 50.779394239999995 65.2330184659091 47.3 Z" fill="none" stroke="#000000" stroke-miterlimit="10"/></g><g transform="translate(-6,10) scale(1,1)"><path d="M 71.662109375 53.6 L 71.662109375 66.4" fill="none" stroke="#000000" stroke-miterlimit="10"/></g><g transform="translate(-6,10) scale(1,1)"><path d="M 64.85483664772727 58.4 L 78.46938210227273 58.4" fill="none" stroke="#000000" stroke-miterlimit="10"/></g><g transform="translate(-6,10) scale(1,1)"><path d="M 71.662109375 66.4 L 62.20756392045455 79" fill="none" stroke="#000000" stroke-miterlimit="10"/></g><g transform="translate(-6,10) scale(1,1)"><path d="M 71.662109375 66.4 L 81.11665482954545 79" fill="none" stroke="#000000" stroke-miterlimit="10"/></g><g transform="translate(-6,10) scale(1,1)"><g><path fill="none" stroke="none"/><text fill="#000000" font-family="Arial" font-size="13px" font-style="normal" font-weight="bold" stroke="none" text-decoration="none" x="46.8681640625" y="97.5">: Tempo</text></g></g><g transform="translate(-6,10) scale(1,1)"><path d="M 72.5 105 L 72.5 1104" fill="none" stroke="#000000" stroke-dasharray="3" stroke-miterlimit="10"/></g><g transform="translate(-6,10) scale(1,1)"><path d="M 1190.734483309659 47.3 C 1190.734483309659 43.82060576 1193.612885031841 41 1197.16357421875 41 C 1200.714263405659 41 1203.592665127841 43.82060576 1203.592665127841 47.3 C 1203.592665127841 50.779394239999995 1200.714263405659 53.6 1197.16357421875 53.6 C 1193.612885031841 53.6 1190.734483309659 50.779394239999995 1190.734483309659 47.3 Z" fill="#ffffff" stroke="none"/></g><g transform="translate(-6,10) scale(1,1)"><path d="M 1190.734483309659 47.3 C 1190.734483309659 43.82060576 1193.612885031841 41 1197.16357421875 41 C 1200.714263405659 41 1203.592665127841 43.82060576 1203.592665127841 47.3 C 1203.592665127841 50.779394239999995 1200.714263405659 53.6 1197.16357421875 53.6 C 1193.612885031841 53.6 1190.734483309659 50.779394239999995 1190.734483309659 47.3 Z" fill="none" stroke="#000000" stroke-miterlimit="10"/></g><g transform="translate(-6,10) scale(1,1)"><path d="M 1197.16357421875 53.6 L 1197.16357421875 66.4" fill="none" stroke="#000000" stroke-miterlimit="10"/></g><g transform="translate(-6,10) scale(1,1)"><path d="M 1190.3563014914773 58.4 L 1203.9708469460227 58.4" fill="none" stroke="#000000" stroke-miterlimit="10"/></g><g transform="translate(-6,10) scale(1,1)"><path d="M 1197.16357421875 66.4 L 1187.7090287642045 79" fill="none" stroke="#000000" stroke-miterlimit="10"/></g><g transform="translate(-6,10) scale(1,1)"><path d="M 1197.16357421875 66.4 L 1206.6181196732955 79" fill="none" stroke="#000000" stroke-miterlimit="10"/></g><g transform="translate(-6,10) scale(1,1)"><g><path fill="none" stroke="none"/><text fill="#000000" font-family="Arial" font-size="13px" font-style="normal" font-weight="bold" stroke="none" text-decoration="none" x="1158.8681640625" y="97.5">: Farmacista</text></g></g><g transform="translate(-6,10) scale(1,1)"><path d="M 1198.5 105 L 1198.5 1368" fill="none" stroke="#000000" stroke-dasharray="3" stroke-miterlimit="10"/></g><g transform="translate(-6,10) scale(1,1)"><rect fill="#C0C0C0" height="39" opacity="0.2" stroke="none" width="150.47265625" x="151" y="47"/></g><g transform="translate(-6,10) scale(1,1)"><rect fill="#ffffff" height="39" stroke="none" width="150.47265625" x="144" y="40"/></g><g transform="translate(-6,10) scale(1,1)"><path d="M 144 40 L 294.47265625 40 L 294.47265625 79 L 144 79 L 144 40 Z Z" fill="none" stroke="#000000" stroke-miterlimit="10"/></g><g transform="translate(-6,10) scale(1,1)"><g><path fill="none" stroke="none"/><text fill="#000000" font-family="Arial" font-size="13px" font-style="normal" font-weight="normal" stroke="none" text-decoration="none" x="184.181396484375" y="55.5">«Boundary»</text></g></g><g transform="translate(-6,10) scale(1,1)"><g><path fill="none" stroke="none"/><text fill="#000000" font-family="Arial" font-size="13px" font-style="normal" font-weight="bold" stroke="none" text-decoration="none" x="153.5" y="70.5">: BoundaryDiSistema</text></g></g><g transform="translate(-6,10) scale(1,1)"><path d="M 220.5 80 L 220.5 918" fill="none" stroke="#000000" stroke-dasharray="3" stroke-miterlimit="10"/></g><g transform="translate(-6,10) scale(1,1)"><rect fill="#C0C0C0" height="39" opacity="0.2" stroke="none" width="108.5654296875" x="607" y="47"/></g><g transform="translate(-6,10) scale(1,1)"><rect fill="#ffffff" height="39" stroke="none" width="108.5654296875" x="600" y="40"/></g><g transform="translate(-6,10) scale(1,1)"><path d="M 600 40 L 708.5654296875 40 L 708.5654296875 79 L 600 79 L 600 40 Z Z" fill="none" stroke="#000000" stroke-miterlimit="10"/></g><g transform="translate(-6,10) scale(1,1)"><g><path fill="none" stroke="none"/><text fill="#000000" font-family="Arial" font-size="13px" font-style="normal" font-weight="normal" stroke="none" text-decoration="none" x="619.227783203125" y="55.5">«Boundary»</text></g></g><g transform="translate(-6,10) scale(1,1)"><g><path fill="none" stroke="none"/><text fill="#000000" font-family="Arial" font-size="13px" font-style="normal" font-weight="bold" stroke="none" text-decoration="none" x="609.5" y="70.5">DBMSDaemon</text></g></g><g transform="translate(-6,10) scale(1,1)"><path d="M 655.5 80 L 655.5 1458" fill="none" stroke="#000000" stroke-dasharray="3" stroke-miterlimit="10"/></g><g transform="translate(-6,10) scale(1,1)"><path d="M 845.899034090909 47.3 C 845.899034090909 43.82060576 848.777435813091 41 852.328125 41 C 855.878814186909 41 858.7572159090909 43.82060576 858.7572159090909 47.3 C 858.7572159090909 50.779394239999995 855.878814186909 53.6 852.328125 53.6 C 848.777435813091 53.6 845.899034090909 50.779394239999995 845.899034090909 47.3 Z" fill="#ffffff" stroke="none"/></g><g transform="translate(-6,10) scale(1,1)"><path d="M 845.899034090909 47.3 C 845.899034090909 43.82060576 848.777435813091 41 852.328125 41 C 855.878814186909 41 858.7572159090909 43.82060576 858.7572159090909 47.3 C 858.7572159090909 50.779394239999995 855.878814186909 53.6 852.328125 53.6 C 848.777435813091 53.6 845.899034090909 50.779394239999995 845.899034090909 47.3 Z" fill="none" stroke="#000000" stroke-miterlimit="10"/></g><g transform="translate(-6,10) scale(1,1)"><path d="M 852.328125 53.6 L 852.328125 66.4" fill="none" stroke="#000000" stroke-miterlimit="10"/></g><g transform="translate(-6,10) scale(1,1)"><path d="M 845.5208522727272 58.4 L 859.1353977272727 58.4" fill="none" stroke="#000000" stroke-miterlimit="10"/></g><g transform="translate(-6,10) scale(1,1)"><path d="M 852.328125 66.4 L 842.8735795454545 79" fill="none" stroke="#000000" stroke-miterlimit="10"/></g><g transform="translate(-6,10) scale(1,1)"><path d="M 852.328125 66.4 L 861.7826704545454 79" fill="none" stroke="#000000" stroke-miterlimit="10"/></g><g transform="translate(-6,10) scale(1,1)"><g><path fill="none" stroke="none"/><text fill="#000000" font-family="Arial" font-size="13px" font-style="normal" font-weight="bold" stroke="none" text-decoration="none" x="798.8681640625" y="97.5">: DBMS Farmacie</text></g></g><g transform="translate(-6,10) scale(1,1)"><path d="M 853.5 105 L 853.5 1456" fill="none" stroke="#000000" stroke-dasharray="3" stroke-miterlimit="10"/></g><g transform="translate(-6,10) scale(1,1)"><path d="M 1050.274522372159 47.3 C 1050.274522372159 43.82060576 1053.152924094341 41 1056.70361328125 41 C 1060.254302468159 41 1063.132704190341 43.82060576 1063.132704190341 47.3 C 1063.132704190341 50.779394239999995 1060.254302468159 53.6 1056.70361328125 53.6 C 1053.152924094341 53.6 1050.274522372159 50.779394239999995 1050.274522372159 47.3 Z" fill="#ffffff" stroke="none"/></g><g transform="translate(-6,10) scale(1,1)"><path d="M 1050.274522372159 47.3 C 1050.274522372159 43.82060576 1053.152924094341 41 1056.70361328125 41 C 1060.254302468159 41 1063.132704190341 43.82060576 1063.132704190341 47.3 C 1063.132704190341 50.779394239999995 1060.254302468159 53.6 1056.70361328125 53.6 C 1053.152924094341 53.6 1050.274522372159 50.779394239999995 1050.274522372159 47.3 Z" fill="none" stroke="#000000" stroke-miterlimit="10"/></g><g transform="translate(-6,10) scale(1,1)"><path d="M 1056.70361328125 53.6 L 1056.70361328125 66.4" fill="none" stroke="#000000" stroke-miterlimit="10"/></g><g transform="translate(-6,10) scale(1,1)"><path d="M 1049.8963405539773 58.4 L 1063.5108860085227 58.4" fill="none" stroke="#000000" stroke-miterlimit="10"/></g><g transform="translate(-6,10) scale(1,1)"><path d="M 1056.70361328125 66.4 L 1047.2490678267045 79" fill="none" stroke="#000000" stroke-miterlimit="10"/></g><g transform="translate(-6,10) scale(1,1)"><path d="M 1056.70361328125 66.4 L 1066.1581587357955 79" fill="none" stroke="#000000" stroke-miterlimit="10"/></g><g transform="translate(-6,10) scale(1,1)"><g><path fill="none" stroke="none"/><text fill="#000000" font-family="Arial" font-size="13px" font-style="normal" font-weight="bold" stroke="none" text-decoration="none" x="1006.8681640625" y="97.5">: DBMS Azienda</text></g></g><g transform="translate(-6,10) scale(1,1)"><path d="M 1057.5 105 L 1057.5 1442" fill="none" stroke="#000000" stroke-dasharray="3" stroke-miterlimit="10"/></g><g transform="translate(-6,10) scale(1,1)"><rect fill="#C0C0C0" height="39" opacity="0.2" stroke="none" width="87.6181640625" x="239" y="363"/></g><g transform="translate(-6,10) scale(1,1)"><rect fill="#ffffff" height="39" stroke="none" width="87.6181640625" x="232" y="356"/></g><g transform="translate(-6,10) scale(1,1)"><path d="M 232 356 L 319.6181640625 356 L 319.6181640625 395 L 232 395 L 232 356 Z Z" fill="none" stroke="#000000" stroke-miterlimit="10"/></g><g transform="translate(-6,10) scale(1,1)"><g><path fill="none" stroke="none"/><text fill="#000000" font-family="Arial" font-size="13px" font-style="normal" font-weight="normal" stroke="none" text-decoration="none" x="252.32275390625" y="371.5">«Entity»</text></g></g><g transform="translate(-6,10) scale(1,1)"><g><path fill="none" stroke="none"/><text fill="#000000" font-family="Arial" font-size="13px" font-style="normal" font-weight="bold" stroke="none" text-decoration="none" x="241.5" y="386.5">ListaOrdini</text></g></g><g transform="translate(-6,10) scale(1,1)"><path d="M 276.5 396 L 276.5 472" fill="none" stroke="#000000" stroke-dasharray="3" stroke-miterlimit="10"/></g><g transform="translate(-6,10) scale(1,1)"><rect fill="#C0C0C0" height="39" opacity="0.2" stroke="none" width="107.88623046875" x="231" y="499"/></g><g transform="translate(-6,10) scale(1,1)"><rect fill="#ffffff" height="39" stroke="none" width="107.88623046875" x="224" y="492"/></g><g transform="translate(-6,10) scale(1,1)"><path d="M 224 492 L 331.88623046875 492 L 331.88623046875 531 L 224 531 L 224 492 Z Z" fill="none" stroke="#000000" stroke-miterlimit="10"/></g><g transform="translate(-6,10) scale(1,1)"><g><path fill="none" stroke="none"/><text fill="#000000" font-family="Arial" font-size="13px" font-style="normal" font-weight="normal" stroke="none" text-decoration="none" x="254.456787109375" y="507.5">«Entity»</text></g></g><g transform="translate(-6,10) scale(1,1)"><g><path fill="none" stroke="none"/><text fill="#000000" font-family="Arial" font-size="13px" font-style="normal" font-weight="bold" stroke="none" text-decoration="none" x="233.5" y="522.5">MerceCaricata</text></g></g><g transform="translate(-6,10) scale(1,1)"><path d="M 278.5 532 L 278.5 584" fill="none" stroke="#000000" stroke-dasharray="3" stroke-miterlimit="10"/></g><g transform="translate(-6,10) scale(1,1)"><rect fill="#C0C0C0" height="39" opacity="0.2" stroke="none" width="254.74560546875" x="479" y="699"/></g><g transform="translate(-6,10) scale(1,1)"><rect fill="#ffffff" height="39" stroke="none" width="254.74560546875" x="472" y="692"/></g><g transform="translate(-6,10) scale(1,1)"><path d="M 472 692 L 726.74560546875 692 L 726.74560546875 731 L 472 731 L 472 692 Z Z" fill="none" stroke="#000000" stroke-miterlimit="10"/></g><g transform="translate(-6,10) scale(1,1)"><g><path fill="none" stroke="none"/><text fill="#000000" font-family="Arial" font-size="13px" font-style="normal" font-weight="normal" stroke="none" text-decoration="none" x="564.31787109375" y="707.5">«Boundary»</text></g></g><g transform="translate(-6,10) scale(1,1)"><g><path fill="none" stroke="none"/><text fill="#000000" font-family="Arial" font-size="13px" font-style="normal" font-weight="bold" stroke="none" text-decoration="none" x="481.5" y="722.5">: PannelloAvvisoMancatoCaricamento</text></g></g><g transform="translate(-6,10) scale(1,1)"><path d="M 600.5 732 L 600.5 918" fill="none" stroke="#000000" stroke-dasharray="3" stroke-miterlimit="10"/></g><g transform="translate(-6,10) scale(1,1)"><rect fill="#C0C0C0" height="39" opacity="0.2" stroke="none" width="87.38330078125" x="263" y="811"/></g><g transform="translate(-6,10) scale(1,1)"><rect fill="#ffffff" height="39" stroke="none" width="87.38330078125" x="256" y="804"/></g><g transform="translate(-6,10) scale(1,1)"><path d="M 256 804 L 343.38330078125 804 L 343.38330078125 843 L 256 843 L 256 804 Z Z" fill="none" stroke="#000000" stroke-miterlimit="10"/></g><g transform="translate(-6,10) scale(1,1)"><g><path fill="none" stroke="none"/><text fill="#000000" font-family="Arial" font-size="13px" font-style="normal" font-weight="normal" stroke="none" text-decoration="none" x="276.205322265625" y="819.5">«Entity»</text></g></g><g transform="translate(-6,10) scale(1,1)"><g><path fill="none" stroke="none"/><text fill="#000000" font-family="Arial" font-size="13px" font-style="normal" font-weight="bold" stroke="none" text-decoration="none" x="265.5" y="834.5">InizioTimer</text></g></g><g transform="translate(-6,10) scale(1,1)"><path d="M 300.5 844 L 300.5 893" fill="none" stroke="#000000" stroke-dasharray="3" stroke-miterlimit="10"/></g><g transform="translate(-6,10) scale(1,1)"><rect fill="#ffffff" height="64" stroke="none" width="13" x="399" y="840"/></g><g transform="translate(-6,10) scale(1,1)"><path d="M 399 840 L 412 840 L 412 904 L 399 904 L 399 840 Z Z" fill="none" stroke="#000000" stroke-miterlimit="10"/></g><g transform="translate(-6,10) scale(1,1)"><path d="M 412 712 L 472 712" fill="none" stroke="#000000" stroke-dasharray="3" stroke-miterlimit="10"/></g><g transform="translate(-6,10) scale(1,1)"><path d="M 461.83732514237585 716.209517756016 L 472 712 L 461.83732514237585 707.790482243984" fill="none" stroke="#000000" stroke-miterlimit="10"/></g><g transform="translate(-6,10) scale(1,1)"><g><path fill="none" stroke="none"/><text fill="#000000" font-family="Arial" font-size="13px" font-style="normal" font-weight="normal" stroke="none" text-decoration="none" x="429.5" y="706.5">15 : </text></g></g><g transform="translate(-6,10) scale(1,1)"><g><path fill="none" stroke="none"/><text fill="#000000" font-family="Arial" font-size="13px" font-style="normal" font-weight="normal" stroke="none" text-decoration="none" x="416.5" y="691.5">«create»</text></g></g><g transform="translate(-6,10) scale(1,1)"><path d="M 406 824 L 343.38330078125 824" fill="none" stroke="#000000" stroke-dasharray="3" stroke-miterlimit="10"/></g><g transform="translate(-6,10) scale(1,1)"><path d="M 353.54597563887415 819.790482243984 L 343.38330078125 824 L 353.54597563887415 828.209517756016" fill="none" stroke="#000000" stroke-miterlimit="10"/></g><g transform="translate(-6,10) scale(1,1)"><g><path fill="none" stroke="none"/><text fill="#000000" font-family="Arial" font-size="13px" font-style="normal" font-weight="normal" stroke="none" text-decoration="none" x="360.5" y="838.5">16 : </text></g></g><g transform="translate(-6,10) scale(1,1)"><g><path fill="none" stroke="none"/><text fill="#000000" font-family="Arial" font-size="13px" font-style="normal" font-weight="normal" stroke="none" text-decoration="none" x="347.5" y="853.5">«create»</text></g></g><g transform="translate(-6,10) scale(1,1)"><path d="M 1198 824 L 606 824" fill="none" stroke="#000000" stroke-miterlimit="10"/></g><g transform="translate(-6,10) scale(1,1)"><path d="M 616.1626748576241 819.790482243984 L 606 824 L 616.1626748576241 828.209517756016" fill="#000000" stroke="none"/></g><g transform="translate(-6,10) scale(1,1)"><path d="M 616.1626748576241 819.790482243984 L 606 824 L 616.1626748576241 828.209517756016 L 616.1626748576241 819.790482243984" fill="none" stroke="#000000" stroke-miterlimit="10"/></g><g transform="translate(-6,10) scale(1,1)"><path d="M 590 908 L 610 928" fill="none" stroke="#000000" stroke-miterlimit="10"/></g><g transform="translate(-6,10) scale(1,1)"><path d="M 610 908 L 590 928" fill="none" stroke="#000000" stroke-miterlimit="10"/></g><g transform="translate(-6,10) scale(1,1)"><g><path fill="none" stroke="none"/><text fill="#000000" font-family="Arial" font-size="13px" font-style="normal" font-weight="normal" stroke="none" text-decoration="none" x="861.5" y="838.5">17 : conferma</text></g></g><g transform="translate(-6,10) scale(1,1)"><g><path fill="none" stroke="none"/><text fill="#000000" font-family="Arial" font-size="13px" font-style="normal" font-weight="normal" stroke="none" text-decoration="none" x="872.5" y="853.5">«destroy»</text></g></g><g transform="translate(-6,10) scale(1,1)"><rect fill="#ffffff" height="28" stroke="none" width="13" x="593" y="824"/></g><g transform="translate(-6,10) scale(1,1)"><path d="M 593 824 L 606 824 L 606 852 L 593 852 L 593 824 Z Z" fill="none" stroke="#000000" stroke-miterlimit="10"/></g><g transform="translate(-6,10) scale(1,1)"><path d="M 406 1156 L 648 1156" fill="none" stroke="#000000" stroke-miterlimit="10"/></g><g transform="translate(-6,10) scale(1,1)"><path d="M 637.8373251423759 1160.2095177560159 L 648 1156 L 637.8373251423758 1151.7904822439841" fill="#000000" stroke="none"/></g><g transform="translate(-6,10) scale(1,1)"><path d="M 637.8373251423759 1160.2095177560159 L 648 1156 L 637.8373251423758 1151.7904822439841 L 637.8373251423759 1160.2095177560159" fill="none" stroke="#000000" stroke-miterlimit="10"/></g><g transform="translate(-6,10) scale(1,1)"><g><path fill="none" stroke="none"/><text fill="#000000" font-family="Arial" font-size="13px" font-style="normal" font-weight="normal" stroke="none" text-decoration="none" x="418.5" y="1150.5">19 : chiediMerceCaricata(idFarmacia)</text></g></g><g transform="translate(-6,10) scale(1,1)"><rect fill="#ffffff" height="68" stroke="none" width="13" x="648" y="1156"/></g><g transform="translate(-6,10) scale(1,1)"><path d="M 648 1156 L 661 1156 L 661 1224 L 648 1224 L 648 1156 Z Z" fill="none" stroke="#000000" stroke-miterlimit="10"/></g><g transform="translate(-6,10) scale(1,1)"><path d="M 661 1176 L 846 1176" fill="none" stroke="#000000" stroke-miterlimit="10"/></g><g transform="translate(-6,10) scale(1,1)"><path d="M 835.8373251423759 1180.2095177560159 L 846 1176 L 835.8373251423758 1171.7904822439841" fill="#000000" stroke="none"/></g><g transform="translate(-6,10) scale(1,1)"><path d="M 835.8373251423759 1180.2095177560159 L 846 1176 L 835.8373251423758 1171.7904822439841 L 835.8373251423759 1180.2095177560159" fill="none" stroke="#000000" stroke-miterlimit="10"/></g><g transform="translate(-6,10) scale(1,1)"><g><path fill="none" stroke="none"/><text fill="#000000" font-family="Arial" font-size="13px" font-style="normal" font-weight="normal" stroke="none" text-decoration="none" x="644.5" y="1170.5">20 : chiediMerceCaricata(idFarmacia)</text></g></g><g transform="translate(-6,10) scale(1,1)"><rect fill="#ffffff" height="28" stroke="none" width="13" x="846" y="1176"/></g><g transform="translate(-6,10) scale(1,1)"><path d="M 846 1176 L 859 1176 L 859 1204 L 846 1204 L 846 1176 Z Z" fill="none" stroke="#000000" stroke-miterlimit="10"/></g><g transform="translate(-6,10) scale(1,1)"><path d="M 72 112 L 213 112" fill="none" stroke="#000000" stroke-miterlimit="10"/></g><g transform="translate(-6,10) scale(1,1)"><path d="M 202.83732514237585 116.20951775601598 L 213 112 L 202.83732514237585 107.79048224398402" fill="#000000" stroke="none"/></g><g transform="translate(-6,10) scale(1,1)"><path d="M 202.83732514237585 116.20951775601598 L 213 112 L 202.83732514237585 107.79048224398402 L 202.83732514237585 116.20951775601598" fill="none" stroke="#000000" stroke-miterlimit="10"/></g><g transform="translate(-6,10) scale(1,1)"><g><path fill="none" stroke="none"/><text fill="#000000" font-family="Arial" font-size="13px" font-style="normal" font-weight="normal" stroke="none" text-decoration="none" x="96.5" y="106.5">1 : chiediTempo</text></g></g><g transform="translate(-6,10) scale(1,1)"><rect fill="#ffffff" height="31" stroke="none" width="13" x="213" y="112"/></g><g transform="translate(-6,10) scale(1,1)"><path d="M 213 112 L 226 112 L 226 143 L 213 143 L 213 112 Z Z" fill="none" stroke="#000000" stroke-miterlimit="10"/></g><g transform="translate(-6,10) scale(1,1)"><path d="M 226 128 L 399 128" fill="none" stroke="#000000" stroke-miterlimit="10"/></g><g transform="translate(-6,10) scale(1,1)"><path d="M 388.83732514237585 132.209517756016 L 399 128 L 388.83732514237585 123.79048224398402" fill="#000000" stroke="none"/></g><g transform="translate(-6,10) scale(1,1)"><path d="M 388.83732514237585 132.209517756016 L 399 128 L 388.83732514237585 123.79048224398402 L 388.83732514237585 132.209517756016" fill="none" stroke="#000000" stroke-miterlimit="10"/></g><g transform="translate(-6,10) scale(1,1)"><g><path fill="none" stroke="none"/><text fill="#000000" font-family="Arial" font-size="13px" font-style="normal" font-weight="normal" stroke="none" text-decoration="none" x="266.5" y="122.5">2 : chiediTempo</text></g></g><g transform="translate(-6,10) scale(1,1)"><rect fill="#ffffff" height="28" stroke="none" width="13" x="399" y="128"/></g><g transform="translate(-6,10) scale(1,1)"><path d="M 399 128 L 412 128 L 412 156 L 399 156 L 399 128 Z Z" fill="none" stroke="#000000" stroke-miterlimit="10"/></g><g transform="translate(-6,10) scale(1,1)"><path d="M 406 160 L 436 160 L 436 180 L 412 180" fill="none" stroke="#000000" stroke-miterlimit="10"/></g><g transform="translate(-6,10) scale(1,1)"><path d="M 422.16267485762415 175.790482243984 L 412 180 L 422.16267485762415 184.209517756016" fill="#000000" stroke="none"/></g><g transform="translate(-6,10) scale(1,1)"><path d="M 422.16267485762415 175.790482243984 L 412 180 L 422.16267485762415 184.209517756016 L 422.16267485762415 175.790482243984" fill="none" stroke="#000000" stroke-miterlimit="10"/></g><g transform="translate(-6,10) scale(1,1)"><g><path fill="none" stroke="none"/><text fill="#000000" font-family="Arial" font-size="13px" font-style="normal" font-weight="normal" stroke="none" text-decoration="none" x="393.5" y="173.5">3 : controllaOrario</text></g></g><g transform="translate(-6,10) scale(1,1)"><rect fill="#ffffff" height="580" stroke="none" width="13" x="399" y="180"/></g><g transform="translate(-6,10) scale(1,1)"><path d="M 399 180 L 412 180 L 412 760 L 399 760 L 399 180 Z Z" fill="none" stroke="#000000" stroke-miterlimit="10"/></g><g transform="translate(-6,10) scale(1,1)"><path d="M 412 320 L 648 320" fill="none" stroke="#000000" stroke-miterlimit="10"/></g><g transform="translate(-6,10) scale(1,1)"><path d="M 637.8373251423759 324.209517756016 L 648 320 L 637.8373251423758 315.790482243984" fill="#000000" stroke="none"/></g><g transform="translate(-6,10) scale(1,1)"><path d="M 637.8373251423759 324.209517756016 L 648 320 L 637.8373251423758 315.790482243984 L 637.8373251423759 324.209517756016" fill="none" stroke="#000000" stroke-miterlimit="10"/></g><g transform="translate(-6,10) scale(1,1)"><g><path fill="none" stroke="none"/><text fill="#000000" font-family="Arial" font-size="13px" font-style="normal" font-weight="normal" stroke="none" text-decoration="none" x="450.5" y="314.5">4 : chiediOrdini(idFarmacia)</text></g></g><g transform="translate(-6,10) scale(1,1)"><rect fill="#ffffff" height="28" stroke="none" width="13" x="648" y="320"/></g><g transform="translate(-6,10) scale(1,1)"><path d="M 648 320 L 661 320 L 661 348 L 648 348 L 648 320 Z Z" fill="none" stroke="#000000" stroke-miterlimit="10"/></g><g transform="translate(-6,10) scale(1,1)"><path d="M 661 336 L 1050 336" fill="none" stroke="#000000" stroke-miterlimit="10"/></g><g transform="translate(-6,10) scale(1,1)"><path d="M 1039.837325142376 340.209517756016 L 1050 336 L 1039.837325142376 331.790482243984" fill="#000000" stroke="none"/></g><g transform="translate(-6,10) scale(1,1)"><path d="M 1039.837325142376 340.209517756016 L 1050 336 L 1039.837325142376 331.790482243984 L 1039.837325142376 340.209517756016" fill="none" stroke="#000000" stroke-miterlimit="10"/></g><g transform="translate(-6,10) scale(1,1)"><g><path fill="none" stroke="none"/><text fill="#000000" font-family="Arial" font-size="13px" font-style="normal" font-weight="normal" stroke="none" text-decoration="none" x="775.5" y="330.5">5 : chiediOrdini(idFarmacia)</text></g></g><g transform="translate(-6,10) scale(1,1)"><rect fill="#ffffff" height="28" stroke="none" width="13" x="1050" y="336"/></g><g transform="translate(-6,10) scale(1,1)"><path d="M 1050 336 L 1063 336 L 1063 364 L 1050 364 L 1050 336 Z Z" fill="none" stroke="#000000" stroke-miterlimit="10"/></g><g transform="translate(-6,10) scale(1,1)"><path d="M 1050 362 L 655 362" fill="none" stroke="#000000" stroke-dasharray="3" stroke-miterlimit="10"/></g><g transform="translate(-6,10) scale(1,1)"><path d="M 665.1626748576241 357.790482243984 L 655 362 L 665.1626748576241 366.209517756016" fill="none" stroke="#000000" stroke-miterlimit="10"/></g><g transform="translate(-6,10) scale(1,1)"><g><path fill="none" stroke="none"/><text fill="#000000" font-family="Arial" font-size="13px" font-style="normal" font-weight="normal" stroke="none" text-decoration="none" x="826.5" y="376.5">6 : ordini</text></g></g><g transform="translate(-6,10) scale(1,1)"><path d="M 655 368 L 412 368" fill="none" stroke="#000000" stroke-dasharray="3" stroke-miterlimit="10"/></g><g transform="translate(-6,10) scale(1,1)"><path d="M 422.16267485762415 363.790482243984 L 412 368 L 422.16267485762415 372.209517756016" fill="none" stroke="#000000" stroke-miterlimit="10"/></g><g transform="translate(-6,10) scale(1,1)"><g><path fill="none" stroke="none"/><text fill="#000000" font-family="Arial" font-size="13px" font-style="normal" font-weight="normal" stroke="none" text-decoration="none" x="507.114990234375" y="382.5">7 : ordini</text></g></g><g transform="translate(-6,10) scale(1,1)"><path d="M 399 376 L 319.6181640625 376" fill="none" stroke="#000000" stroke-dasharray="3" stroke-miterlimit="10"/></g><g transform="translate(-6,10) scale(1,1)"><path d="M 329.78083892012415 371.790482243984 L 319.6181640625 376 L 329.78083892012415 380.209517756016" fill="none" stroke="#000000" stroke-miterlimit="10"/></g><g transform="translate(-6,10) scale(1,1)"><g><path fill="none" stroke="none"/><text fill="#000000" font-family="Arial" font-size="13px" font-style="normal" font-weight="normal" stroke="none" text-decoration="none" x="349.114990234375" y="390.5">8 : </text></g></g><g transform="translate(-6,10) scale(1,1)"><g><path fill="none" stroke="none"/><text fill="#000000" font-family="Arial" font-size="13px" font-style="normal" font-weight="normal" stroke="none" text-decoration="none" x="332.5" y="405.5">«create»</text></g></g><g transform="translate(-6,10) scale(1,1)"><path d="M 412 408 L 648 408" fill="none" stroke="#000000" stroke-miterlimit="10"/></g><g transform="translate(-6,10) scale(1,1)"><path d="M 637.8373251423759 412.209517756016 L 648 408 L 637.8373251423758 403.790482243984" fill="#000000" stroke="none"/></g><g transform="translate(-6,10) scale(1,1)"><path d="M 637.8373251423759 412.209517756016 L 648 408 L 637.8373251423758 403.790482243984 L 637.8373251423759 412.209517756016" fill="none" stroke="#000000" stroke-miterlimit="10"/></g><g transform="translate(-6,10) scale(1,1)"><g><path fill="none" stroke="none"/><text fill="#000000" font-family="Arial" font-size="13px" font-style="normal" font-weight="normal" stroke="none" text-decoration="none" x="425.5" y="402.5">9 : chiediMerceCaricata(idFarmacia)</text></g></g><g transform="translate(-6,10) scale(1,1)"><rect fill="#ffffff" height="28" stroke="none" width="13" x="648" y="408"/></g><g transform="translate(-6,10) scale(1,1)"><path d="M 648 408 L 661 408 L 661 436 L 648 436 L 648 408 Z Z" fill="none" stroke="#000000" stroke-miterlimit="10"/></g><g transform="translate(-6,10) scale(1,1)"><path d="M 655 448 L 846 448" fill="none" stroke="#000000" stroke-miterlimit="10"/></g><g transform="translate(-6,10) scale(1,1)"><path d="M 835.8373251423759 452.209517756016 L 846 448 L 835.8373251423758 443.790482243984" fill="#000000" stroke="none"/></g><g transform="translate(-6,10) scale(1,1)"><path d="M 835.8373251423759 452.209517756016 L 846 448 L 835.8373251423758 443.790482243984 L 835.8373251423759 452.209517756016" fill="none" stroke="#000000" stroke-miterlimit="10"/></g><g transform="translate(-6,10) scale(1,1)"><g><path fill="none" stroke="none"/><text fill="#000000" font-family="Arial" font-size="13px" font-style="normal" font-weight="normal" stroke="none" text-decoration="none" x="642.5" y="442.5">10 : queryMerceCaricata(idFarmacia)</text></g></g><g transform="translate(-6,10) scale(1,1)"><rect fill="#ffffff" height="28" stroke="none" width="13" x="846" y="448"/></g><g transform="translate(-6,10) scale(1,1)"><path d="M 846 448 L 859 448 L 859 476 L 846 476 L 846 448 Z Z" fill="none" stroke="#000000" stroke-miterlimit="10"/></g><g transform="translate(-6,10) scale(1,1)"><path d="M 846 474 L 655 474" fill="none" stroke="#000000" stroke-dasharray="3" stroke-miterlimit="10"/></g><g transform="translate(-6,10) scale(1,1)"><path d="M 665.1626748576241 469.790482243984 L 655 474 L 665.1626748576241 478.209517756016" fill="none" stroke="#000000" stroke-miterlimit="10"/></g><g transform="translate(-6,10) scale(1,1)"><g><path fill="none" stroke="none"/><text fill="#000000" font-family="Arial" font-size="13px" font-style="normal" font-weight="normal" stroke="none" text-decoration="none" x="694.982421875" y="488.5">11 : merceCaricata</text></g></g><g transform="translate(-6,10) scale(1,1)"><path d="M 655 496 L 412 496" fill="none" stroke="#000000" stroke-dasharray="3" stroke-miterlimit="10"/></g><g transform="translate(-6,10) scale(1,1)"><path d="M 422.16267485762415 491.790482243984 L 412 496 L 422.16267485762415 500.209517756016" fill="none" stroke="#000000" stroke-miterlimit="10"/></g><g transform="translate(-6,10) scale(1,1)"><g><path fill="none" stroke="none"/><text fill="#000000" font-family="Arial" font-size="13px" font-style="normal" font-weight="normal" stroke="none" text-decoration="none" x="477.5" y="489.5">12 : merceCaricata</text></g></g><g transform="translate(-6,10) scale(1,1)"><path d="M 399 512 L 331.88623046875 512" fill="none" stroke="#000000" stroke-dasharray="3" stroke-miterlimit="10"/></g><g transform="translate(-6,10) scale(1,1)"><path d="M 342.04890532637415 507.790482243984 L 331.88623046875 512 L 342.04890532637415 516.209517756016" fill="none" stroke="#000000" stroke-miterlimit="10"/></g><g transform="translate(-6,10) scale(1,1)"><g><path fill="none" stroke="none"/><text fill="#000000" font-family="Arial" font-size="13px" font-style="normal" font-weight="normal" stroke="none" text-decoration="none" x="351.5" y="526.5">13 : </text></g></g><g transform="translate(-6,10) scale(1,1)"><g><path fill="none" stroke="none"/><text fill="#000000" font-family="Arial" font-size="13px" font-style="normal" font-weight="normal" stroke="none" text-decoration="none" x="338.5" y="541.5">«create»</text></g></g><g transform="translate(-6,10) scale(1,1)"><path d="M 412 536 L 442 536 L 442 556 L 419 556" fill="none" stroke="#000000" stroke-miterlimit="10"/></g><g transform="translate(-6,10) scale(1,1)"><path d="M 429.16267485762415 551.790482243984 L 419 556 L 429.16267485762415 560.209517756016" fill="#000000" stroke="none"/></g><g transform="translate(-6,10) scale(1,1)"><path d="M 429.16267485762415 551.790482243984 L 419 556 L 429.16267485762415 560.209517756016 L 429.16267485762415 551.790482243984" fill="none" stroke="#000000" stroke-miterlimit="10"/></g><g transform="translate(-6,10) scale(1,1)"><g><path fill="none" stroke="none"/><text fill="#000000" font-family="Arial" font-size="13px" font-style="normal" font-weight="normal" stroke="none" text-decoration="none" x="446.5" y="549.5">14 : confrontaOrdiniMerce</text></g></g><g transform="translate(-6,10) scale(1,1)"><rect fill="#ffffff" height="28" stroke="none" width="13" x="406" y="556"/></g><g transform="translate(-6,10) scale(1,1)"><path d="M 406 556 L 419 556 L 419 584 L 406 584 L 406 556 Z Z" fill="none" stroke="#000000" stroke-miterlimit="10"/></g><g transform="translate(-6,10) scale(1,1)"><path d="M 846 1200 L 661 1200" fill="none" stroke="#000000" stroke-dasharray="3" stroke-miterlimit="10"/></g><g transform="translate(-6,10) scale(1,1)"><path d="M 671.1626748576241 1195.7904822439841 L 661 1200 L 671.1626748576241 1204.2095177560159" fill="none" stroke="#000000" stroke-miterlimit="10"/></g><g transform="translate(-6,10) scale(1,1)"><g><path fill="none" stroke="none"/><text fill="#000000" font-family="Arial" font-size="13px" font-style="normal" font-weight="normal" stroke="none" text-decoration="none" x="697.5" y="1214.5">21 : merceCaricata</text></g></g><g transform="translate(-6,10) scale(1,1)"><path d="M 648 1216 L 406 1216" fill="none" stroke="#000000" stroke-dasharray="3" stroke-miterlimit="10"/></g><g transform="translate(-6,10) scale(1,1)"><path d="M 416.16267485762415 1211.7904822439841 L 406 1216 L 416.16267485762415 1220.2095177560159" fill="none" stroke="#000000" stroke-miterlimit="10"/></g><g transform="translate(-6,10) scale(1,1)"><g><path fill="none" stroke="none"/><text fill="#000000" font-family="Arial" font-size="13px" font-style="normal" font-weight="normal" stroke="none" text-decoration="none" x="471.5" y="1230.5">22 : merceCaricata</text></g></g><g transform="translate(-6,10) scale(1,1)"><path d="M 406 1376 L 648 1376" fill="none" stroke="#000000" stroke-miterlimit="10"/></g><g transform="translate(-6,10) scale(1,1)"><path d="M 637.8373251423759 1380.2095177560159 L 648 1376 L 637.8373251423758 1371.7904822439841" fill="#000000" stroke="none"/></g><g transform="translate(-6,10) scale(1,1)"><path d="M 637.8373251423759 1380.2095177560159 L 648 1376 L 637.8373251423758 1371.7904822439841 L 637.8373251423759 1380.2095177560159" fill="none" stroke="#000000" stroke-miterlimit="10"/></g><g transform="translate(-6,10) scale(1,1)"><g><path fill="none" stroke="none"/><text fill="#000000" font-family="Arial" font-size="13px" font-style="normal" font-weight="normal" stroke="none" text-decoration="none" x="398.5" y="1370.5">23 : contrassegnaOrdineDaVerificare(ordine)</text></g></g><g transform="translate(-6,10) scale(1,1)"><rect fill="#ffffff" height="28" stroke="none" width="13" x="648" y="1376"/></g><g transform="translate(-6,10) scale(1,1)"><path d="M 648 1376 L 661 1376 L 661 1404 L 648 1404 L 648 1376 Z Z" fill="none" stroke="#000000" stroke-miterlimit="10"/></g><g transform="translate(-6,10) scale(1,1)"><path d="M 661 1400 L 1050 1400" fill="none" stroke="#000000" stroke-miterlimit="10"/></g><g transform="translate(-6,10) scale(1,1)"><path d="M 1039.837325142376 1404.2095177560159 L 1050 1400 L 1039.837325142376 1395.7904822439841" fill="#000000" stroke="none"/></g><g transform="translate(-6,10) scale(1,1)"><path d="M 1039.837325142376 1404.2095177560159 L 1050 1400 L 1039.837325142376 1395.7904822439841 L 1039.837325142376 1404.2095177560159" fill="none" stroke="#000000" stroke-miterlimit="10"/></g><g transform="translate(-6,10) scale(1,1)"><g><path fill="none" stroke="none"/><text fill="#000000" font-family="Arial" font-size="13px" font-style="normal" font-weight="normal" stroke="none" text-decoration="none" x="726.5" y="1394.5">24 : contrassegnaOrdineDaVerificare(ordine)</text></g></g><g transform="translate(-6,10) scale(1,1)"><rect fill="#ffffff" height="28" stroke="none" width="13" x="1050" y="1400"/></g><g transform="translate(-6,10) scale(1,1)"><path d="M 1050 1400 L 1063 1400 L 1063 1428 L 1050 1428 L 1050 1400 Z Z" fill="none" stroke="#000000" stroke-miterlimit="10"/></g><g transform="translate(-6,10) scale(1,1)"><path d="M 264 1080 L 1159 1080 L 1159 1503 L 264 1503 L 264 1080" fill="none" stroke="#000000" stroke-miterlimit="10"/></g><g transform="translate(-6,10) scale(1,1)"><path d="M 264 1080 L 264 1102 L 298.07177734375 1102 L 309.07177734375 1091 L 309.07177734375 1080 L 264 1080" fill="#ffffff" stroke="none"/></g><g transform="translate(-6,10) scale(1,1)"><path d="M 264 1080 L 264 1102 L 298.07177734375 1102 L 309.07177734375 1091 L 309.07177734375 1080 L 264 1080 L 264 1080" fill="none" stroke="#000000" stroke-miterlimit="10"/></g><g transform="translate(-6,10) scale(1,1)"><g><path fill="none" stroke="none"/><text fill="#000000" font-family="Arial" font-size="13px" font-style="normal" font-weight="bold" stroke="none" text-decoration="none" x="267.930419921875" y="1095.5">opt</text></g></g><g transform="translate(-6,10) scale(1,1)"><g><path fill="none" stroke="none"/><text fill="#000000" font-family="Arial" font-size="13px" font-style="normal" font-weight="normal" stroke="none" text-decoration="none" x="283.5" y="1128.5">[Sono passati 15 minuti dal inizioTimer ]</text></g></g><g transform="translate(-6,10) scale(1,1)"><path d="M 24 208 L 1320 208 L 1320 968 L 24 968 L 24 208" fill="none" stroke="#000000" stroke-miterlimit="10"/></g><g transform="translate(-6,10) scale(1,1)"><path d="M 24 208 L 24 230 L 146.21533203125 230 L 157.21533203125 219 L 157.21533203125 208 L 24 208" fill="#ffffff" stroke="none"/></g><g transform="translate(-6,10) scale(1,1)"><path d="M 24 208 L 24 230 L 146.21533203125 230 L 157.21533203125 219 L 157.21533203125 208 L 24 208 L 24 208" fill="none" stroke="#000000" stroke-miterlimit="10"/></g><g transform="translate(-6,10) scale(1,1)"><g><path fill="none" stroke="none"/><text fill="#000000" font-family="Arial" font-size="13px" font-style="normal" font-weight="normal" stroke="none" text-decoration="none" x="53.07177734375" y="223.5">ControlloOrario</text></g></g><g transform="translate(-6,10) scale(1,1)"><g><path fill="none" stroke="none"/><text fill="#000000" font-family="Arial" font-size="13px" font-style="normal" font-weight="bold" stroke="none" text-decoration="none" x="27.930419921875" y="223.5">opt</text></g></g><g transform="translate(-6,10) scale(1,1)"><g><path fill="none" stroke="none"/><text fill="#000000" font-family="Arial" font-size="13px" font-style="normal" font-weight="normal" stroke="none" text-decoration="none" x="43.5" y="256.5">[Sono le 20:00]</text></g></g><g transform="translate(-6,10) scale(1,1)"><path d="M 40 592 L 1264 592 L 1264 944 L 40 944 L 40 592" fill="none" stroke="#000000" stroke-miterlimit="10"/></g><g transform="translate(-6,10) scale(1,1)"><path d="M 40 592 L 40 614 L 178.103515625 614 L 189.103515625 603 L 189.103515625 592 L 40 592" fill="#ffffff" stroke="none"/></g><g transform="translate(-6,10) scale(1,1)"><path d="M 40 592 L 40 614 L 178.103515625 614 L 189.103515625 603 L 189.103515625 592 L 40 592 L 40 592" fill="none" stroke="#000000" stroke-miterlimit="10"/></g><g transform="translate(-6,10) scale(1,1)"><g><path fill="none" stroke="none"/><text fill="#000000" font-family="Arial" font-size="13px" font-style="normal" font-weight="normal" stroke="none" text-decoration="none" x="69.07177734375" y="607.5">MerciNonCaricate</text></g></g><g transform="translate(-6,10) scale(1,1)"><g><path fill="none" stroke="none"/><text fill="#000000" font-family="Arial" font-size="13px" font-style="normal" font-weight="bold" stroke="none" text-decoration="none" x="43.930419921875" y="607.5">opt</text></g></g><g transform="translate(-6,10) scale(1,1)"><g><path fill="none" stroke="none"/><text fill="#000000" font-family="Arial" font-size="13px" font-style="normal" font-weight="normal" stroke="none" text-decoration="none" x="59.5" y="640.5">[ci sono ordini non caricati]</text></g></g><g transform="translate(-6,10) scale(1,1)"><path d="M 320 1240 L 1120 1240 L 1120 1480 L 320 1480 L 320 1240" fill="none" stroke="#000000" stroke-miterlimit="10"/></g><g transform="translate(-6,10) scale(1,1)"><path d="M 320 1240 L 320 1262 L 360.578125 1262 L 371.578125 1251 L 371.578125 1240 L 320 1240" fill="#ffffff" stroke="none"/></g><g transform="translate(-6,10) scale(1,1)"><path d="M 320 1240 L 320 1262 L 360.578125 1262 L 371.578125 1251 L 371.578125 1240 L 320 1240 L 320 1240" fill="none" stroke="#000000" stroke-miterlimit="10"/></g><g transform="translate(-6,10) scale(1,1)"><g><path fill="none" stroke="none"/><text fill="#000000" font-family="Arial" font-size="13px" font-style="normal" font-weight="bold" stroke="none" text-decoration="none" x="323.57177734375" y="1255.5">loop</text></g></g><g transform="translate(-6,10) scale(1,1)"><g><path fill="none" stroke="none"/><text fill="#000000" font-family="Arial" font-size="13px" font-style="normal" font-weight="normal" stroke="none" text-decoration="none" x="339.5" y="1288.5">[Per Ogni Ordine]</text></g></g><g transform="translate(-6,10) scale(1,1)"><path d="M 368 1304 L 1112 1304 L 1112 1439 L 368 1439 L 368 1304" fill="none" stroke="#000000" stroke-miterlimit="10"/></g><g transform="translate(-6,10) scale(1,1)"><path d="M 368 1304 L 368 1326 L 402.07177734375 1326 L 413.07177734375 1315 L 413.07177734375 1304 L 368 1304" fill="#ffffff" stroke="none"/></g><g transform="translate(-6,10) scale(1,1)"><path d="M 368 1304 L 368 1326 L 402.07177734375 1326 L 413.07177734375 1315 L 413.07177734375 1304 L 368 1304 L 368 1304" fill="none" stroke="#000000" stroke-miterlimit="10"/></g><g transform="translate(-6,10) scale(1,1)"><g><path fill="none" stroke="none"/><text fill="#000000" font-family="Arial" font-size="13px" font-style="normal" font-weight="bold" stroke="none" text-decoration="none" x="371.930419921875" y="1319.5">opt</text></g></g><g transform="translate(-6,10) scale(1,1)"><g><path fill="none" stroke="none"/><text fill="#000000" font-family="Arial" font-size="13px" font-style="normal" font-weight="normal" stroke="none" text-decoration="none" x="387.5" y="1352.5">[Se l'ordine non è completo]</text></g></g></g></svg>