<?xml version="1.0" encoding="UTF-8" standalone="no"?><svg xmlns="http://www.w3.org/2000/svg" xmlns:xlink="http://www.w3.org/1999/xlink" height="884" version="1.1" width="964.65625"><defs/><g><g transform="translate(-70,2) scale(1,1)"><path d="M 80 8 L 1024 8 L 1024 872 L 80 872 L 80 8" fill="none" stroke="#000000" stroke-miterlimit="10"/></g><g transform="translate(-70,2) scale(1,1)"><path d="M 80 8 L 80 30 L 195.0107421875 30 L 206.0107421875 19 L 206.0107421875 8 L 80 8" fill="#ffffff" stroke="none"/></g><g transform="translate(-70,2) scale(1,1)"><path d="M 80 8 L 80 30 L 195.0107421875 30 L 206.0107421875 19 L 206.0107421875 8 L 80 8 L 80 8" fill="none" stroke="#000000" stroke-miterlimit="10"/></g><g transform="translate(-70,2) scale(1,1)"><g><path fill="none" stroke="none"/><text fill="#000000" font-family="Arial" font-size="13px" font-style="normal" font-weight="normal" stroke="none" text-decoration="none" x="104.72998046875" y="23.5">Autenticazione</text></g></g><g transform="translate(-70,2) scale(1,1)"><g><path fill="none" stroke="none"/><text fill="#000000" font-family="Arial" font-size="13px" font-style="normal" font-weight="bold" stroke="none" text-decoration="none" x="84.279541015625" y="23.5">sd</text></g></g><g transform="translate(-70,2) scale(1,1)"><path d="M 142.0604110440341 47.3 C 142.0604110440341 43.82060576 144.9388127662159 41 148.489501953125 41 C 152.0401911400341 41 154.91859286221592 43.82060576 154.91859286221592 47.3 C 154.91859286221592 50.779394239999995 152.0401911400341 53.6 148.489501953125 53.6 C 144.9388127662159 53.6 142.0604110440341 50.779394239999995 142.0604110440341 47.3 Z" fill="#ffffff" stroke="none"/></g><g transform="translate(-70,2) scale(1,1)"><path d="M 142.0604110440341 47.3 C 142.0604110440341 43.82060576 144.9388127662159 41 148.489501953125 41 C 152.0401911400341 41 154.91859286221592 43.82060576 154.91859286221592 47.3 C 154.91859286221592 50.779394239999995 152.0401911400341 53.6 148.489501953125 53.6 C 144.9388127662159 53.6 142.0604110440341 50.779394239999995 142.0604110440341 47.3 Z" fill="none" stroke="#000000" stroke-miterlimit="10"/></g><g transform="translate(-70,2) scale(1,1)"><path d="M 148.489501953125 53.6 L 148.489501953125 66.4" fill="none" stroke="#000000" stroke-miterlimit="10"/></g><g transform="translate(-70,2) scale(1,1)"><path d="M 141.6822292258523 58.4 L 155.29677468039773 58.4" fill="none" stroke="#000000" stroke-miterlimit="10"/></g><g transform="translate(-70,2) scale(1,1)"><path d="M 148.489501953125 66.4 L 139.03495649857956 79" fill="none" stroke="#000000" stroke-miterlimit="10"/></g><g transform="translate(-70,2) scale(1,1)"><path d="M 148.489501953125 66.4 L 157.94404740767047 79" fill="none" stroke="#000000" stroke-miterlimit="10"/></g><g transform="translate(-70,2) scale(1,1)"><g><path fill="none" stroke="none"/><text fill="#000000" font-family="Arial" font-size="13px" font-style="normal" font-weight="bold" stroke="none" text-decoration="none" x="117.062255859375" y="97.5"> : Persona</text></g></g><g transform="translate(-70,2) scale(1,1)"><path d="M 149.5 105 L 149.5 848" fill="none" stroke="#000000" stroke-dasharray="3" stroke-miterlimit="10"/></g><g transform="translate(-70,2) scale(1,1)"><rect fill="#C0C0C0" height="39" opacity="0.2" stroke="none" width="161.9873046875" x="287" y="47"/></g><g transform="translate(-70,2) scale(1,1)"><rect fill="#ffffff" height="39" stroke="none" width="161.9873046875" x="280" y="40"/></g><g transform="translate(-70,2) scale(1,1)"><path d="M 280 40 L 441.9873046875 40 L 441.9873046875 79 L 280 79 L 280 40 Z Z" fill="none" stroke="#000000" stroke-miterlimit="10"/></g><g transform="translate(-70,2) scale(1,1)"><g><path fill="none" stroke="none"/><text fill="#000000" font-family="Arial" font-size="13px" font-style="normal" font-weight="normal" stroke="none" text-decoration="none" x="325.938720703125" y="55.5">«Boundary»</text></g></g><g transform="translate(-70,2) scale(1,1)"><g><path fill="none" stroke="none"/><text fill="#000000" font-family="Arial" font-size="13px" font-style="normal" font-weight="bold" stroke="none" text-decoration="none" x="318.0390625" y="70.5">:ModuloLogin</text></g></g><g transform="translate(-70,2) scale(1,1)"><path d="M 361.5 80 L 361.5 589" fill="none" stroke="#000000" stroke-dasharray="3" stroke-miterlimit="10"/></g><g transform="translate(-70,2) scale(1,1)"><rect fill="#C0C0C0" height="39" opacity="0.2" stroke="none" width="164.91357421875" x="471" y="47"/></g><g transform="translate(-70,2) scale(1,1)"><rect fill="#ffffff" height="39" stroke="none" width="164.91357421875" x="464" y="40"/></g><g transform="translate(-70,2) scale(1,1)"><path d="M 464 40 L 628.91357421875 40 L 628.91357421875 79 L 464 79 L 464 40 Z Z" fill="none" stroke="#000000" stroke-miterlimit="10"/></g><g transform="translate(-70,2) scale(1,1)"><g><path fill="none" stroke="none"/><text fill="#000000" font-family="Arial" font-size="13px" font-style="normal" font-weight="normal" stroke="none" text-decoration="none" x="518.273193359375" y="55.5">«Control»</text></g></g><g transform="translate(-70,2) scale(1,1)"><g><path fill="none" stroke="none"/><text fill="#000000" font-family="Arial" font-size="13px" font-style="normal" font-weight="bold" stroke="none" text-decoration="none" x="473.5" y="70.5">:GestoreAutenticazione</text></g></g><g transform="translate(-70,2) scale(1,1)"><path d="M 547.5 80 L 547.5 661" fill="none" stroke="#000000" stroke-dasharray="3" stroke-miterlimit="10"/></g><g transform="translate(-70,2) scale(1,1)"><rect fill="#C0C0C0" height="39" opacity="0.2" stroke="none" width="116.50634765625" x="743" y="47"/></g><g transform="translate(-70,2) scale(1,1)"><rect fill="#ffffff" height="39" stroke="none" width="116.50634765625" x="736" y="40"/></g><g transform="translate(-70,2) scale(1,1)"><path d="M 736 40 L 852.50634765625 40 L 852.50634765625 79 L 736 79 L 736 40 Z Z" fill="none" stroke="#000000" stroke-miterlimit="10"/></g><g transform="translate(-70,2) scale(1,1)"><g><path fill="none" stroke="none"/><text fill="#000000" font-family="Arial" font-size="13px" font-style="normal" font-weight="normal" stroke="none" text-decoration="none" x="759.1982421875" y="55.5">«Boundary»</text></g></g><g transform="translate(-70,2) scale(1,1)"><g><path fill="none" stroke="none"/><text fill="#000000" font-family="Arial" font-size="13px" font-style="normal" font-weight="bold" stroke="none" text-decoration="none" x="749.470458984375" y="70.5">DBMSDaemon</text></g></g><g transform="translate(-70,2) scale(1,1)"><path d="M 795.5 80 L 795.5 840" fill="none" stroke="#000000" stroke-dasharray="3" stroke-miterlimit="10"/></g><g transform="translate(-70,2) scale(1,1)"><rect fill="#C0C0C0" height="39" opacity="0.2" stroke="none" width="112.1962890625" x="383" y="315"/></g><g transform="translate(-70,2) scale(1,1)"><rect fill="#ffffff" height="39" stroke="none" width="112.1962890625" x="376" y="308"/></g><g transform="translate(-70,2) scale(1,1)"><path d="M 376 308 L 488.1962890625 308 L 488.1962890625 347 L 376 347 L 376 308 Z Z" fill="none" stroke="#000000" stroke-miterlimit="10"/></g><g transform="translate(-70,2) scale(1,1)"><g><path fill="none" stroke="none"/><text fill="#000000" font-family="Arial" font-size="13px" font-style="normal" font-weight="normal" stroke="none" text-decoration="none" x="397.043212890625" y="323.5">«Boundary»</text></g></g><g transform="translate(-70,2) scale(1,1)"><g><path fill="none" stroke="none"/><text fill="#000000" font-family="Arial" font-size="13px" font-style="normal" font-weight="bold" stroke="none" text-decoration="none" x="385.5" y="338.5">PannelloErrore</text></g></g><g transform="translate(-70,2) scale(1,1)"><path d="M 433.5 348 L 433.5 424" fill="none" stroke="#000000" stroke-dasharray="3" stroke-miterlimit="10"/></g><g transform="translate(-70,2) scale(1,1)"><rect fill="#C0C0C0" height="39" opacity="0.2" stroke="none" width="153.7607421875" x="207" y="603"/></g><g transform="translate(-70,2) scale(1,1)"><rect fill="#ffffff" height="39" stroke="none" width="153.7607421875" x="200" y="596"/></g><g transform="translate(-70,2) scale(1,1)"><path d="M 200 596 L 353.7607421875 596 L 353.7607421875 635 L 200 635 L 200 596 Z Z" fill="none" stroke="#000000" stroke-miterlimit="10"/></g><g transform="translate(-70,2) scale(1,1)"><g><path fill="none" stroke="none"/><text fill="#000000" font-family="Arial" font-size="13px" font-style="normal" font-weight="normal" stroke="none" text-decoration="none" x="241.825439453125" y="611.5">«Boundary»</text></g></g><g transform="translate(-70,2) scale(1,1)"><g><path fill="none" stroke="none"/><text fill="#000000" font-family="Arial" font-size="13px" font-style="normal" font-weight="bold" stroke="none" text-decoration="none" x="211.13134765625" y="626.5">:InterfacciaPrincipale</text></g></g><g transform="translate(-70,2) scale(1,1)"><path d="M 277.5 636 L 277.5 696" fill="none" stroke="#000000" stroke-dasharray="3" stroke-miterlimit="10"/></g><g transform="translate(-70,2) scale(1,1)"><path d="M 933.899034090909 47.3 C 933.899034090909 43.82060576 936.777435813091 41 940.328125 41 C 943.878814186909 41 946.7572159090909 43.82060576 946.7572159090909 47.3 C 946.7572159090909 50.779394239999995 943.878814186909 53.6 940.328125 53.6 C 936.777435813091 53.6 933.899034090909 50.779394239999995 933.899034090909 47.3 Z" fill="#ffffff" stroke="none"/></g><g transform="translate(-70,2) scale(1,1)"><path d="M 933.899034090909 47.3 C 933.899034090909 43.82060576 936.777435813091 41 940.328125 41 C 943.878814186909 41 946.7572159090909 43.82060576 946.7572159090909 47.3 C 946.7572159090909 50.779394239999995 943.878814186909 53.6 940.328125 53.6 C 936.777435813091 53.6 933.899034090909 50.779394239999995 933.899034090909 47.3 Z" fill="none" stroke="#000000" stroke-miterlimit="10"/></g><g transform="translate(-70,2) scale(1,1)"><path d="M 940.328125 53.6 L 940.328125 66.4" fill="none" stroke="#000000" stroke-miterlimit="10"/></g><g transform="translate(-70,2) scale(1,1)"><path d="M 933.5208522727272 58.4 L 947.1353977272727 58.4" fill="none" stroke="#000000" stroke-miterlimit="10"/></g><g transform="translate(-70,2) scale(1,1)"><path d="M 940.328125 66.4 L 930.8735795454545 79" fill="none" stroke="#000000" stroke-miterlimit="10"/></g><g transform="translate(-70,2) scale(1,1)"><path d="M 940.328125 66.4 L 949.7826704545454 79" fill="none" stroke="#000000" stroke-miterlimit="10"/></g><g transform="translate(-70,2) scale(1,1)"><g><path fill="none" stroke="none"/><text fill="#000000" font-family="Arial" font-size="13px" font-style="normal" font-weight="bold" stroke="none" text-decoration="none" x="886.8681640625" y="97.5">: DBMS Farmacie</text></g></g><g transform="translate(-70,2) scale(1,1)"><path d="M 941.5 105 L 941.5 416" fill="none" stroke="#000000" stroke-dasharray="3" stroke-miterlimit="10"/></g><g transform="translate(-70,2) scale(1,1)"><rect fill="#C0C0C0" height="39" opacity="0.2" stroke="none" width="71.736328125" x="647" y="467"/></g><g transform="translate(-70,2) scale(1,1)"><rect fill="#ffffff" height="39" stroke="none" width="71.736328125" x="640" y="460"/></g><g transform="translate(-70,2) scale(1,1)"><path d="M 640 460 L 711.736328125 460 L 711.736328125 499 L 640 499 L 640 460 Z Z" fill="none" stroke="#000000" stroke-miterlimit="10"/></g><g transform="translate(-70,2) scale(1,1)"><g><path fill="none" stroke="none"/><text fill="#000000" font-family="Arial" font-size="13px" font-style="normal" font-weight="normal" stroke="none" text-decoration="none" x="652.3818359375" y="475.5">«Entity»</text></g></g><g transform="translate(-70,2) scale(1,1)"><g><path fill="none" stroke="none"/><text fill="#000000" font-family="Arial" font-size="13px" font-style="normal" font-weight="bold" stroke="none" text-decoration="none" x="655.64453125" y="490.5">Utente</text></g></g><g transform="translate(-70,2) scale(1,1)"><path d="M 676.5 500 L 676.5 784" fill="none" stroke="#000000" stroke-dasharray="3" stroke-miterlimit="10"/></g><g transform="translate(-70,2) scale(1,1)"><path d="M 149 183 L 354 183" fill="none" stroke="#000000" stroke-miterlimit="10"/></g><g transform="translate(-70,2) scale(1,1)"><path d="M 343.83732514237585 187.209517756016 L 354 183 L 343.83732514237585 178.790482243984" fill="#000000" stroke="none"/></g><g transform="translate(-70,2) scale(1,1)"><path d="M 343.83732514237585 187.209517756016 L 354 183 L 343.83732514237585 178.790482243984 L 343.83732514237585 187.209517756016" fill="none" stroke="#000000" stroke-miterlimit="10"/></g><g transform="translate(-70,2) scale(1,1)"><g><path fill="none" stroke="none"/><text fill="#000000" font-family="Arial" font-size="13px" font-style="normal" font-weight="normal" stroke="none" text-decoration="none" x="244.273193359375" y="155.5">1 :</text><text fill="#000000" font-family="Arial" font-size="13px" font-style="normal" font-weight="normal" stroke="none" text-decoration="none" x="179.619140625" y="168.5">inserisciCredenziali(mail,</text><text fill="#000000" font-family="Arial" font-size="13px" font-style="normal" font-weight="normal" stroke="none" text-decoration="none" x="221.516845703125" y="181.5">password)</text></g></g><g transform="translate(-70,2) scale(1,1)"><rect fill="#ffffff" height="28" stroke="none" width="13" x="354" y="183"/></g><g transform="translate(-70,2) scale(1,1)"><path d="M 354 183 L 367 183 L 367 211 L 354 211 L 354 183 Z Z" fill="none" stroke="#000000" stroke-miterlimit="10"/></g><g transform="translate(-70,2) scale(1,1)"><path d="M 361 216 L 540 216" fill="none" stroke="#000000" stroke-miterlimit="10"/></g><g transform="translate(-70,2) scale(1,1)"><path d="M 529.8373251423759 220.209517756016 L 540 216 L 529.8373251423758 211.790482243984" fill="#000000" stroke="none"/></g><g transform="translate(-70,2) scale(1,1)"><path d="M 529.8373251423759 220.209517756016 L 540 216 L 529.8373251423758 211.790482243984 L 529.8373251423759 220.209517756016" fill="none" stroke="#000000" stroke-miterlimit="10"/></g><g transform="translate(-70,2) scale(1,1)"><g><path fill="none" stroke="none"/><text fill="#000000" font-family="Arial" font-size="13px" font-style="normal" font-weight="normal" stroke="none" text-decoration="none" x="369.49462890625" y="193.5">2 : controlloCredenziali(mail,</text><text fill="#000000" font-family="Arial" font-size="13px" font-style="normal" font-weight="normal" stroke="none" text-decoration="none" x="421.516845703125" y="206.5">password)</text></g></g><g transform="translate(-70,2) scale(1,1)"><rect fill="#ffffff" height="28" stroke="none" width="13" x="540" y="216"/></g><g transform="translate(-70,2) scale(1,1)"><path d="M 540 216 L 553 216 L 553 244 L 540 244 L 540 216 Z Z" fill="none" stroke="#000000" stroke-miterlimit="10"/></g><g transform="translate(-70,2) scale(1,1)"><path d="M 553 240 L 788 240" fill="none" stroke="#000000" stroke-miterlimit="10"/></g><g transform="translate(-70,2) scale(1,1)"><path d="M 777.8373251423759 244.209517756016 L 788 240 L 777.8373251423758 235.790482243984" fill="#000000" stroke="none"/></g><g transform="translate(-70,2) scale(1,1)"><path d="M 777.8373251423759 244.209517756016 L 788 240 L 777.8373251423758 235.790482243984 L 777.8373251423759 244.209517756016" fill="none" stroke="#000000" stroke-miterlimit="10"/></g><g transform="translate(-70,2) scale(1,1)"><g><path fill="none" stroke="none"/><text fill="#000000" font-family="Arial" font-size="13px" font-style="normal" font-weight="normal" stroke="none" text-decoration="none" x="659.773193359375" y="210.5">3 :</text><text fill="#000000" font-family="Arial" font-size="13px" font-style="normal" font-weight="normal" stroke="none" text-decoration="none" x="594.02734375" y="223.5">controlloCredenziali(mail,</text><text fill="#000000" font-family="Arial" font-size="13px" font-style="normal" font-weight="normal" stroke="none" text-decoration="none" x="637.016845703125" y="236.5">password)</text></g></g><g transform="translate(-70,2) scale(1,1)"><rect fill="#ffffff" height="48" stroke="none" width="13" x="788" y="240"/></g><g transform="translate(-70,2) scale(1,1)"><path d="M 788 240 L 801 240 L 801 288 L 788 288 L 788 240 Z Z" fill="none" stroke="#000000" stroke-miterlimit="10"/></g><g transform="translate(-70,2) scale(1,1)"><path d="M 801 256 L 934 256" fill="none" stroke="#000000" stroke-miterlimit="10"/></g><g transform="translate(-70,2) scale(1,1)"><path d="M 923.8373251423759 260.209517756016 L 934 256 L 923.8373251423758 251.790482243984" fill="#000000" stroke="none"/></g><g transform="translate(-70,2) scale(1,1)"><path d="M 923.8373251423759 260.209517756016 L 934 256 L 923.8373251423758 251.790482243984 L 923.8373251423759 260.209517756016" fill="none" stroke="#000000" stroke-miterlimit="10"/></g><g transform="translate(-70,2) scale(1,1)"><g><path fill="none" stroke="none"/><text fill="#000000" font-family="Arial" font-size="13px" font-style="normal" font-weight="normal" stroke="none" text-decoration="none" x="785.300537109375" y="232.5">4 : controlloCredenziali(mail</text><text fill="#000000" font-family="Arial" font-size="13px" font-style="normal" font-weight="normal" stroke="none" text-decoration="none" x="835.516845703125" y="245.5">password)</text></g></g><g transform="translate(-70,2) scale(1,1)"><rect fill="#ffffff" height="28" stroke="none" width="13" x="934" y="256"/></g><g transform="translate(-70,2) scale(1,1)"><path d="M 934 256 L 947 256 L 947 284 L 934 284 L 934 256 Z Z" fill="none" stroke="#000000" stroke-miterlimit="10"/></g><g transform="translate(-70,2) scale(1,1)"><path d="M 934 272 L 801 272" fill="none" stroke="#000000" stroke-dasharray="3" stroke-miterlimit="10"/></g><g transform="translate(-70,2) scale(1,1)"><path d="M 811.1626748576241 267.790482243984 L 801 272 L 811.1626748576241 276.209517756016" fill="none" stroke="#000000" stroke-miterlimit="10"/></g><g transform="translate(-70,2) scale(1,1)"><g><path fill="none" stroke="none"/><text fill="#000000" font-family="Arial" font-size="13px" font-style="normal" font-weight="normal" stroke="none" text-decoration="none" x="843.5" y="286.5">5 : esito</text></g></g><g transform="translate(-70,2) scale(1,1)"><path d="M 788 280 L 547 280" fill="none" stroke="#000000" stroke-dasharray="3" stroke-miterlimit="10"/></g><g transform="translate(-70,2) scale(1,1)"><path d="M 557.1626748576241 275.790482243984 L 547 280 L 557.1626748576241 284.209517756016" fill="none" stroke="#000000" stroke-miterlimit="10"/></g><g transform="translate(-70,2) scale(1,1)"><g><path fill="none" stroke="none"/><text fill="#000000" font-family="Arial" font-size="13px" font-style="normal" font-weight="normal" stroke="none" text-decoration="none" x="616.5" y="294.5">6 : esitoRichiesta</text></g></g><g transform="translate(-70,2) scale(1,1)"><path d="M 547 328 L 488.1962890625 328" fill="none" stroke="#000000" stroke-dasharray="3" stroke-miterlimit="10"/></g><g transform="translate(-70,2) scale(1,1)"><path d="M 498.35896392012415 323.790482243984 L 488.1962890625 328 L 498.35896392012415 332.209517756016" fill="none" stroke="#000000" stroke-miterlimit="10"/></g><g transform="translate(-70,2) scale(1,1)"><g><path fill="none" stroke="none"/><text fill="#000000" font-family="Arial" font-size="13px" font-style="normal" font-weight="normal" stroke="none" text-decoration="none" x="506.5" y="342.5">7 : </text></g></g><g transform="translate(-70,2) scale(1,1)"><g><path fill="none" stroke="none"/><text fill="#000000" font-family="Arial" font-size="13px" font-style="normal" font-weight="normal" stroke="none" text-decoration="none" x="490.5" y="357.5">«create»</text></g></g><g transform="translate(-70,2) scale(1,1)"><path d="M 149 376 L 426 376" fill="none" stroke="#000000" stroke-miterlimit="10"/></g><g transform="translate(-70,2) scale(1,1)"><path d="M 415.83732514237585 380.209517756016 L 426 376 L 415.83732514237585 371.790482243984" fill="#000000" stroke="none"/></g><g transform="translate(-70,2) scale(1,1)"><path d="M 415.83732514237585 380.209517756016 L 426 376 L 415.83732514237585 371.790482243984 L 415.83732514237585 380.209517756016" fill="none" stroke="#000000" stroke-miterlimit="10"/></g><g transform="translate(-70,2) scale(1,1)"><path d="M 423 414 L 443 434" fill="none" stroke="#000000" stroke-miterlimit="10"/></g><g transform="translate(-70,2) scale(1,1)"><path d="M 443 414 L 423 434" fill="none" stroke="#000000" stroke-miterlimit="10"/></g><g transform="translate(-70,2) scale(1,1)"><g><path fill="none" stroke="none"/><text fill="#000000" font-family="Arial" font-size="13px" font-style="normal" font-weight="normal" stroke="none" text-decoration="none" x="230.114990234375" y="370.5">8 : invioConferma( )</text></g></g><g transform="translate(-70,2) scale(1,1)"><g><path fill="none" stroke="none"/><text fill="#000000" font-family="Arial" font-size="13px" font-style="normal" font-weight="normal" stroke="none" text-decoration="none" x="258.5" y="355.5">«destroy»</text></g></g><g transform="translate(-70,2) scale(1,1)"><rect fill="#ffffff" height="28" stroke="none" width="13" x="426" y="376"/></g><g transform="translate(-70,2) scale(1,1)"><path d="M 426 376 L 439 376 L 439 404 L 426 404 L 426 376 Z Z" fill="none" stroke="#000000" stroke-miterlimit="10"/></g><g transform="translate(-70,2) scale(1,1)"><path d="M 547 480 L 640 480" fill="none" stroke="#000000" stroke-dasharray="3" stroke-miterlimit="10"/></g><g transform="translate(-70,2) scale(1,1)"><path d="M 629.8373251423759 484.209517756016 L 640 480 L 629.8373251423758 475.790482243984" fill="none" stroke="#000000" stroke-miterlimit="10"/></g><g transform="translate(-70,2) scale(1,1)"><g><path fill="none" stroke="none"/><text fill="#000000" font-family="Arial" font-size="13px" font-style="normal" font-weight="normal" stroke="none" text-decoration="none" x="583.5" y="474.5">9 : </text></g></g><g transform="translate(-70,2) scale(1,1)"><g><path fill="none" stroke="none"/><text fill="#000000" font-family="Arial" font-size="13px" font-style="normal" font-weight="normal" stroke="none" text-decoration="none" x="567.5" y="459.5">«create»</text></g></g><g transform="translate(-70,2) scale(1,1)"><path d="M 547 512 L 577 512 L 577 532 L 553 532" fill="none" stroke="#000000" stroke-miterlimit="10"/></g><g transform="translate(-70,2) scale(1,1)"><path d="M 563.1626748576241 527.790482243984 L 553 532 L 563.1626748576241 536.209517756016" fill="#000000" stroke="none"/></g><g transform="translate(-70,2) scale(1,1)"><path d="M 563.1626748576241 527.790482243984 L 553 532 L 563.1626748576241 536.209517756016 L 563.1626748576241 527.790482243984" fill="none" stroke="#000000" stroke-miterlimit="10"/></g><g transform="translate(-70,2) scale(1,1)"><path d="M 537 651 L 557 671" fill="none" stroke="#000000" stroke-miterlimit="10"/></g><g transform="translate(-70,2) scale(1,1)"><path d="M 557 651 L 537 671" fill="none" stroke="#000000" stroke-miterlimit="10"/></g><g transform="translate(-70,2) scale(1,1)"><g><path fill="none" stroke="none"/><text fill="#000000" font-family="Arial" font-size="13px" font-style="normal" font-weight="normal" stroke="none" text-decoration="none" x="575.5" y="525.5">10 : </text></g></g><g transform="translate(-70,2) scale(1,1)"><g><path fill="none" stroke="none"/><text fill="#000000" font-family="Arial" font-size="13px" font-style="normal" font-weight="normal" stroke="none" text-decoration="none" x="598.5" y="522.5">«destroy»</text></g></g><g transform="translate(-70,2) scale(1,1)"><rect fill="#ffffff" height="88" stroke="none" width="13" x="540" y="532"/></g><g transform="translate(-70,2) scale(1,1)"><path d="M 540 532 L 553 532 L 553 620 L 540 620 L 540 532 Z Z" fill="none" stroke="#000000" stroke-miterlimit="10"/></g><g transform="translate(-70,2) scale(1,1)"><path d="M 540 544 L 367 544" fill="none" stroke="#000000" stroke-miterlimit="10"/></g><g transform="translate(-70,2) scale(1,1)"><path d="M 377.16267485762415 539.790482243984 L 367 544 L 377.16267485762415 548.209517756016" fill="#000000" stroke="none"/></g><g transform="translate(-70,2) scale(1,1)"><path d="M 377.16267485762415 539.790482243984 L 367 544 L 377.16267485762415 548.209517756016 L 377.16267485762415 539.790482243984" fill="none" stroke="#000000" stroke-miterlimit="10"/></g><g transform="translate(-70,2) scale(1,1)"><path d="M 351 579 L 371 599" fill="none" stroke="#000000" stroke-miterlimit="10"/></g><g transform="translate(-70,2) scale(1,1)"><path d="M 371 579 L 351 599" fill="none" stroke="#000000" stroke-miterlimit="10"/></g><g transform="translate(-70,2) scale(1,1)"><g><path fill="none" stroke="none"/><text fill="#000000" font-family="Arial" font-size="13px" font-style="normal" font-weight="normal" stroke="none" text-decoration="none" x="439.982421875" y="558.5">11 : </text></g></g><g transform="translate(-70,2) scale(1,1)"><g><path fill="none" stroke="none"/><text fill="#000000" font-family="Arial" font-size="13px" font-style="normal" font-weight="normal" stroke="none" text-decoration="none" x="423.5" y="573.5">«destroy»</text></g></g><g transform="translate(-70,2) scale(1,1)"><rect fill="#ffffff" height="28" stroke="none" width="13" x="354" y="544"/></g><g transform="translate(-70,2) scale(1,1)"><path d="M 354 544 L 367 544 L 367 572 L 354 572 L 354 544 Z Z" fill="none" stroke="#000000" stroke-miterlimit="10"/></g><g transform="translate(-70,2) scale(1,1)"><path d="M 540 616 L 353.7607421875 616" fill="none" stroke="#000000" stroke-dasharray="3" stroke-miterlimit="10"/></g><g transform="translate(-70,2) scale(1,1)"><path d="M 363.92341704512415 611.790482243984 L 353.7607421875 616 L 363.92341704512415 620.209517756016" fill="none" stroke="#000000" stroke-miterlimit="10"/></g><g transform="translate(-70,2) scale(1,1)"><g><path fill="none" stroke="none"/><text fill="#000000" font-family="Arial" font-size="13px" font-style="normal" font-weight="normal" stroke="none" text-decoration="none" x="432.5" y="630.5">12 : </text></g></g><g transform="translate(-70,2) scale(1,1)"><g><path fill="none" stroke="none"/><text fill="#000000" font-family="Arial" font-size="13px" font-style="normal" font-weight="normal" stroke="none" text-decoration="none" x="419.5" y="645.5">«create»</text></g></g><g transform="translate(-70,2) scale(1,1)"><path d="M 112 120 L 968 120 L 968 448 L 112 448 L 112 120" fill="none" stroke="#000000" stroke-miterlimit="10"/></g><g transform="translate(-70,2) scale(1,1)"><path d="M 112 120 L 112 142 L 239.2998046875 142 L 250.2998046875 131 L 250.2998046875 120 L 112 120" fill="#ffffff" stroke="none"/></g><g transform="translate(-70,2) scale(1,1)"><path d="M 112 120 L 112 142 L 239.2998046875 142 L 250.2998046875 131 L 250.2998046875 120 L 112 120 L 112 120" fill="none" stroke="#000000" stroke-miterlimit="10"/></g><g transform="translate(-70,2) scale(1,1)"><g><path fill="none" stroke="none"/><text fill="#000000" font-family="Arial" font-size="13px" font-style="normal" font-weight="normal" stroke="none" text-decoration="none" x="147.578125" y="135.5">[dati non validi]</text></g></g><g transform="translate(-70,2) scale(1,1)"><g><path fill="none" stroke="none"/><text fill="#000000" font-family="Arial" font-size="13px" font-style="normal" font-weight="bold" stroke="none" text-decoration="none" x="115.57177734375" y="135.5">loop</text></g></g><g transform="translate(-70,2) scale(1,1)"><path d="M 136 272 L 584 272 L 584 440 L 136 440 L 136 272" fill="none" stroke="#000000" stroke-miterlimit="10"/></g><g transform="translate(-70,2) scale(1,1)"><path d="M 136 272 L 136 294 L 256.79345703125 294 L 267.79345703125 283 L 267.79345703125 272 L 136 272" fill="#ffffff" stroke="none"/></g><g transform="translate(-70,2) scale(1,1)"><path d="M 136 272 L 136 294 L 256.79345703125 294 L 267.79345703125 283 L 267.79345703125 272 L 136 272 L 136 272" fill="none" stroke="#000000" stroke-miterlimit="10"/></g><g transform="translate(-70,2) scale(1,1)"><g><path fill="none" stroke="none"/><text fill="#000000" font-family="Arial" font-size="13px" font-style="normal" font-weight="normal" stroke="none" text-decoration="none" x="165.07177734375" y="287.5">[dati non validi]</text></g></g><g transform="translate(-70,2) scale(1,1)"><g><path fill="none" stroke="none"/><text fill="#000000" font-family="Arial" font-size="13px" font-style="normal" font-weight="bold" stroke="none" text-decoration="none" x="139.930419921875" y="287.5">opt</text></g></g></g></svg>