<?xml version="1.0" encoding="UTF-8" standalone="no"?><svg xmlns="http://www.w3.org/2000/svg" xmlns:xlink="http://www.w3.org/1999/xlink" height="412" version="1.1" width="628"><defs/><g><g transform="translate(-118,-238) scale(1,1)"><path d="M 128 248 L 736 248 L 736 640 L 128 640 L 128 248" fill="none" stroke="#000000" stroke-miterlimit="10"/></g><g transform="translate(-118,-238) scale(1,1)"><path d="M 128 248 L 128 270 L 220.349609375 270 L 231.349609375 259 L 231.349609375 248 L 128 248" fill="#ffffff" stroke="none"/></g><g transform="translate(-118,-238) scale(1,1)"><path d="M 128 248 L 128 270 L 220.349609375 270 L 231.349609375 259 L 231.349609375 248 L 128 248 L 128 248" fill="none" stroke="#000000" stroke-miterlimit="10"/></g><g transform="translate(-118,-238) scale(1,1)"><g><path fill="none" stroke="none"/><text fill="#000000" font-family="Arial" font-size="13px" font-style="normal" font-weight="normal" stroke="none" text-decoration="none" x="152.72998046875" y="263.5">Vista Attori</text></g></g><g transform="translate(-118,-238) scale(1,1)"><g><path fill="none" stroke="none"/><text fill="#000000" font-family="Arial" font-size="13px" font-style="normal" font-weight="bold" stroke="none" text-decoration="none" x="132.279541015625" y="262.5">uc</text></g></g><g transform="translate(-118,-238) scale(1,1)"><path d="M 369.47160617897725 305.68 C 369.47160617897725 300.886167936 373.35744850392274 297 378.15087890625 297 C 382.94430930857726 297 386.83015163352275 300.886167936 386.83015163352275 305.68 C 386.83015163352275 310.473832064 382.94430930857726 314.36 378.15087890625 314.36 C 373.35744850392274 314.36 369.47160617897725 310.473832064 369.47160617897725 305.68 Z" fill="#ffffff" stroke="none"/></g><g transform="translate(-118,-238) scale(1,1)"><path d="M 369.47160617897725 305.68 C 369.47160617897725 300.886167936 373.35744850392274 297 378.15087890625 297 C 382.94430930857726 297 386.83015163352275 300.886167936 386.83015163352275 305.68 C 386.83015163352275 310.473832064 382.94430930857726 314.36 378.15087890625 314.36 C 373.35744850392274 314.36 369.47160617897725 310.473832064 369.47160617897725 305.68 Z" fill="none" stroke="#000000" stroke-miterlimit="10"/></g><g transform="translate(-118,-238) scale(1,1)"><path d="M 378.15087890625 314.36 L 378.15087890625 331.64" fill="none" stroke="#000000" stroke-miterlimit="10"/></g><g transform="translate(-118,-238) scale(1,1)"><path d="M 368.96106072443183 320.84 L 387.34069708806817 320.84" fill="none" stroke="#000000" stroke-miterlimit="10"/></g><g transform="translate(-118,-238) scale(1,1)"><path d="M 378.15087890625 331.64 L 365.38724254261365 349" fill="none" stroke="#000000" stroke-miterlimit="10"/></g><g transform="translate(-118,-238) scale(1,1)"><path d="M 378.15087890625 331.64 L 390.91451526988635 349" fill="none" stroke="#000000" stroke-miterlimit="10"/></g><g transform="translate(-118,-238) scale(1,1)"><g><path fill="none" stroke="none"/><text fill="#000000" font-family="Arial" font-size="13px" font-style="normal" font-weight="bold" stroke="none" text-decoration="none" x="352.5" y="367.5">Persona</text></g></g><g transform="translate(-118,-238) scale(1,1)"><path d="M 202.51799289772728 549.6800000000001 C 202.51799289772728 544.8861679360001 206.40383522267274 541 211.197265625 541 C 215.99069602732726 541 219.87653835227272 544.8861679360001 219.87653835227272 549.6800000000001 C 219.87653835227272 554.473832064 215.99069602732726 558.36 211.197265625 558.36 C 206.40383522267274 558.36 202.51799289772728 554.473832064 202.51799289772728 549.6800000000001 Z" fill="#ffffff" stroke="none"/></g><g transform="translate(-118,-238) scale(1,1)"><path d="M 202.51799289772728 549.6800000000001 C 202.51799289772728 544.8861679360001 206.40383522267274 541 211.197265625 541 C 215.99069602732726 541 219.87653835227272 544.8861679360001 219.87653835227272 549.6800000000001 C 219.87653835227272 554.473832064 215.99069602732726 558.36 211.197265625 558.36 C 206.40383522267274 558.36 202.51799289772728 554.473832064 202.51799289772728 549.6800000000001 Z" fill="none" stroke="#000000" stroke-miterlimit="10"/></g><g transform="translate(-118,-238) scale(1,1)"><path d="M 211.197265625 558.36 L 211.197265625 575.64" fill="none" stroke="#000000" stroke-miterlimit="10"/></g><g transform="translate(-118,-238) scale(1,1)"><path d="M 202.00744744318183 564.84 L 220.38708380681817 564.84" fill="none" stroke="#000000" stroke-miterlimit="10"/></g><g transform="translate(-118,-238) scale(1,1)"><path d="M 211.197265625 575.64 L 198.43362926136365 593" fill="none" stroke="#000000" stroke-miterlimit="10"/></g><g transform="translate(-118,-238) scale(1,1)"><path d="M 211.197265625 575.64 L 223.96090198863635 593" fill="none" stroke="#000000" stroke-miterlimit="10"/></g><g transform="translate(-118,-238) scale(1,1)"><g><path fill="none" stroke="none"/><text fill="#000000" font-family="Arial" font-size="13px" font-style="normal" font-weight="bold" stroke="none" text-decoration="none" x="180.5" y="611.5">Impiegato</text></g></g><g transform="translate(-118,-238) scale(1,1)"><path d="M 216 540 L 216 328 M 216 328 A 8 8 0 0 1 224 320 L 348 320" fill="none" stroke="#000000" stroke-miterlimit="10"/></g><g transform="translate(-118,-238) scale(1,1)"><path d="M 327.6746502847517 328.419035512032 L 348 320 L 327.6746502847517 311.580964487968" fill="#FFFFFF" stroke="none"/></g><g transform="translate(-118,-238) scale(1,1)"><path d="M 327.6746502847517 328.419035512032 L 348 320 L 327.6746502847517 311.580964487968 L 327.6746502847517 328.419035512032" fill="none" stroke="#000000" stroke-miterlimit="10"/></g><g transform="translate(-118,-238) scale(1,1)"><path d="M 370.14567844460225 549.6800000000001 C 370.14567844460225 544.8861679360001 374.03152076954774 541 378.824951171875 541 C 383.61838157420226 541 387.50422389914775 544.8861679360001 387.50422389914775 549.6800000000001 C 387.50422389914775 554.473832064 383.61838157420226 558.36 378.824951171875 558.36 C 374.03152076954774 558.36 370.14567844460225 554.473832064 370.14567844460225 549.6800000000001 Z" fill="#ffffff" stroke="none"/></g><g transform="translate(-118,-238) scale(1,1)"><path d="M 370.14567844460225 549.6800000000001 C 370.14567844460225 544.8861679360001 374.03152076954774 541 378.824951171875 541 C 383.61838157420226 541 387.50422389914775 544.8861679360001 387.50422389914775 549.6800000000001 C 387.50422389914775 554.473832064 383.61838157420226 558.36 378.824951171875 558.36 C 374.03152076954774 558.36 370.14567844460225 554.473832064 370.14567844460225 549.6800000000001 Z" fill="none" stroke="#000000" stroke-miterlimit="10"/></g><g transform="translate(-118,-238) scale(1,1)"><path d="M 378.824951171875 558.36 L 378.824951171875 575.64" fill="none" stroke="#000000" stroke-miterlimit="10"/></g><g transform="translate(-118,-238) scale(1,1)"><path d="M 369.63513299005683 564.84 L 388.01476935369317 564.84" fill="none" stroke="#000000" stroke-miterlimit="10"/></g><g transform="translate(-118,-238) scale(1,1)"><path d="M 378.824951171875 575.64 L 366.06131480823865 593" fill="none" stroke="#000000" stroke-miterlimit="10"/></g><g transform="translate(-118,-238) scale(1,1)"><path d="M 378.824951171875 575.64 L 391.58858753551135 593" fill="none" stroke="#000000" stroke-miterlimit="10"/></g><g transform="translate(-118,-238) scale(1,1)"><g><path fill="none" stroke="none"/><text fill="#000000" font-family="Arial" font-size="13px" font-style="normal" font-weight="bold" stroke="none" text-decoration="none" x="344.5" y="611.5">Farmacista</text></g></g><g transform="translate(-118,-238) scale(1,1)"><path d="M 376 540 L 376 375" fill="none" stroke="#000000" stroke-miterlimit="10"/></g><g transform="translate(-118,-238) scale(1,1)"><path d="M 384.419035512032 395.3253497152483 L 376 375 L 367.580964487968 395.3253497152483" fill="#FFFFFF" stroke="none"/></g><g transform="translate(-118,-238) scale(1,1)"><path d="M 384.419035512032 395.3253497152483 L 376 375 L 367.580964487968 395.3253497152483 L 384.419035512032 395.3253497152483" fill="none" stroke="#000000" stroke-miterlimit="10"/></g><g transform="translate(-118,-238) scale(1,1)"><path d="M 532.1097897727273 549.6800000000001 C 532.1097897727273 544.8861679360001 535.9956320976727 541 540.7890625 541 C 545.5824929023273 541 549.4683352272727 544.8861679360001 549.4683352272727 549.6800000000001 C 549.4683352272727 554.473832064 545.5824929023273 558.36 540.7890625 558.36 C 535.9956320976727 558.36 532.1097897727273 554.473832064 532.1097897727273 549.6800000000001 Z" fill="#ffffff" stroke="none"/></g><g transform="translate(-118,-238) scale(1,1)"><path d="M 532.1097897727273 549.6800000000001 C 532.1097897727273 544.8861679360001 535.9956320976727 541 540.7890625 541 C 545.5824929023273 541 549.4683352272727 544.8861679360001 549.4683352272727 549.6800000000001 C 549.4683352272727 554.473832064 545.5824929023273 558.36 540.7890625 558.36 C 535.9956320976727 558.36 532.1097897727273 554.473832064 532.1097897727273 549.6800000000001 Z" fill="none" stroke="#000000" stroke-miterlimit="10"/></g><g transform="translate(-118,-238) scale(1,1)"><path d="M 540.7890625 558.36 L 540.7890625 575.64" fill="none" stroke="#000000" stroke-miterlimit="10"/></g><g transform="translate(-118,-238) scale(1,1)"><path d="M 531.5992443181818 564.84 L 549.9788806818182 564.84" fill="none" stroke="#000000" stroke-miterlimit="10"/></g><g transform="translate(-118,-238) scale(1,1)"><path d="M 540.7890625 575.64 L 528.0254261363636 593" fill="none" stroke="#000000" stroke-miterlimit="10"/></g><g transform="translate(-118,-238) scale(1,1)"><path d="M 540.7890625 575.64 L 553.5526988636364 593" fill="none" stroke="#000000" stroke-miterlimit="10"/></g><g transform="translate(-118,-238) scale(1,1)"><g><path fill="none" stroke="none"/><text fill="#000000" font-family="Arial" font-size="13px" font-style="normal" font-weight="bold" stroke="none" text-decoration="none" x="515.5" y="611.5">Corriere</text></g></g><g transform="translate(-118,-238) scale(1,1)"><path d="M 541 540 L 541 328 M 541 328 A 8 8 0 0 0 533 320 L 408 320" fill="none" stroke="#000000" stroke-miterlimit="10"/></g><g transform="translate(-118,-238) scale(1,1)"><path d="M 428.3253497152483 311.580964487968 L 408 320 L 428.3253497152483 328.419035512032" fill="#FFFFFF" stroke="none"/></g><g transform="translate(-118,-238) scale(1,1)"><path d="M 428.3253497152483 311.580964487968 L 408 320 L 428.3253497152483 328.419035512032 L 428.3253497152483 311.580964487968" fill="none" stroke="#000000" stroke-miterlimit="10"/></g><g transform="translate(-118,-238) scale(1,1)"><path d="M 656.6857175071023 553.6800000000001 C 656.6857175071023 548.8861679360001 660.5715598320477 545 665.364990234375 545 C 670.1584206367023 545 674.0442629616477 548.8861679360001 674.0442629616477 553.6800000000001 C 674.0442629616477 558.473832064 670.1584206367023 562.36 665.364990234375 562.36 C 660.5715598320477 562.36 656.6857175071023 558.473832064 656.6857175071023 553.6800000000001 Z" fill="#ffffff" stroke="none"/></g><g transform="translate(-118,-238) scale(1,1)"><path d="M 656.6857175071023 553.6800000000001 C 656.6857175071023 548.8861679360001 660.5715598320477 545 665.364990234375 545 C 670.1584206367023 545 674.0442629616477 548.8861679360001 674.0442629616477 553.6800000000001 C 674.0442629616477 558.473832064 670.1584206367023 562.36 665.364990234375 562.36 C 660.5715598320477 562.36 656.6857175071023 558.473832064 656.6857175071023 553.6800000000001 Z" fill="none" stroke="#000000" stroke-miterlimit="10"/></g><g transform="translate(-118,-238) scale(1,1)"><path d="M 665.364990234375 562.36 L 665.364990234375 579.64" fill="none" stroke="#000000" stroke-miterlimit="10"/></g><g transform="translate(-118,-238) scale(1,1)"><path d="M 656.1751720525568 568.84 L 674.5548084161932 568.84" fill="none" stroke="#000000" stroke-miterlimit="10"/></g><g transform="translate(-118,-238) scale(1,1)"><path d="M 665.364990234375 579.64 L 652.6013538707386 597" fill="none" stroke="#000000" stroke-miterlimit="10"/></g><g transform="translate(-118,-238) scale(1,1)"><path d="M 665.364990234375 579.64 L 678.1286265980114 597" fill="none" stroke="#000000" stroke-miterlimit="10"/></g><g transform="translate(-118,-238) scale(1,1)"><g><path fill="none" stroke="none"/><text fill="#000000" font-family="Arial" font-size="13px" font-style="normal" font-weight="bold" stroke="none" text-decoration="none" x="619.5" y="615.5">DBMS Azienda</text></g></g><g transform="translate(-118,-238) scale(1,1)"><path d="M 657.3102292258523 437.68 C 657.3102292258523 432.886167936 661.1960715507977 429 665.989501953125 429 C 670.7829323554523 429 674.6687746803977 432.886167936 674.6687746803977 437.68 C 674.6687746803977 442.473832064 670.7829323554523 446.36 665.989501953125 446.36 C 661.1960715507977 446.36 657.3102292258523 442.473832064 657.3102292258523 437.68 Z" fill="#ffffff" stroke="none"/></g><g transform="translate(-118,-238) scale(1,1)"><path d="M 657.3102292258523 437.68 C 657.3102292258523 432.886167936 661.1960715507977 429 665.989501953125 429 C 670.7829323554523 429 674.6687746803977 432.886167936 674.6687746803977 437.68 C 674.6687746803977 442.473832064 670.7829323554523 446.36 665.989501953125 446.36 C 661.1960715507977 446.36 657.3102292258523 442.473832064 657.3102292258523 437.68 Z" fill="none" stroke="#000000" stroke-miterlimit="10"/></g><g transform="translate(-118,-238) scale(1,1)"><path d="M 665.989501953125 446.36 L 665.989501953125 463.64" fill="none" stroke="#000000" stroke-miterlimit="10"/></g><g transform="translate(-118,-238) scale(1,1)"><path d="M 656.7996837713068 452.84 L 675.1793201349432 452.84" fill="none" stroke="#000000" stroke-miterlimit="10"/></g><g transform="translate(-118,-238) scale(1,1)"><path d="M 665.989501953125 463.64 L 653.2258655894886 481" fill="none" stroke="#000000" stroke-miterlimit="10"/></g><g transform="translate(-118,-238) scale(1,1)"><path d="M 665.989501953125 463.64 L 678.7531383167614 481" fill="none" stroke="#000000" stroke-miterlimit="10"/></g><g transform="translate(-118,-238) scale(1,1)"><g><path fill="none" stroke="none"/><text fill="#000000" font-family="Arial" font-size="13px" font-style="normal" font-weight="bold" stroke="none" text-decoration="none" x="616.5" y="499.5">DBMS Farmacie</text></g></g><g transform="translate(-118,-238) scale(1,1)"><path d="M 656.6442136008523 321.68 C 656.6442136008523 316.886167936 660.5300559257977 313 665.323486328125 313 C 670.1169167304523 313 674.0027590553977 316.886167936 674.0027590553977 321.68 C 674.0027590553977 326.473832064 670.1169167304523 330.36 665.323486328125 330.36 C 660.5300559257977 330.36 656.6442136008523 326.473832064 656.6442136008523 321.68 Z" fill="#ffffff" stroke="none"/></g><g transform="translate(-118,-238) scale(1,1)"><path d="M 656.6442136008523 321.68 C 656.6442136008523 316.886167936 660.5300559257977 313 665.323486328125 313 C 670.1169167304523 313 674.0027590553977 316.886167936 674.0027590553977 321.68 C 674.0027590553977 326.473832064 670.1169167304523 330.36 665.323486328125 330.36 C 660.5300559257977 330.36 656.6442136008523 326.473832064 656.6442136008523 321.68 Z" fill="none" stroke="#000000" stroke-miterlimit="10"/></g><g transform="translate(-118,-238) scale(1,1)"><path d="M 665.323486328125 330.36 L 665.323486328125 347.64" fill="none" stroke="#000000" stroke-miterlimit="10"/></g><g transform="translate(-118,-238) scale(1,1)"><path d="M 656.1336681463068 336.84 L 674.5133045099432 336.84" fill="none" stroke="#000000" stroke-miterlimit="10"/></g><g transform="translate(-118,-238) scale(1,1)"><path d="M 665.323486328125 347.64 L 652.5598499644886 365" fill="none" stroke="#000000" stroke-miterlimit="10"/></g><g transform="translate(-118,-238) scale(1,1)"><path d="M 665.323486328125 347.64 L 678.0871226917614 365" fill="none" stroke="#000000" stroke-miterlimit="10"/></g><g transform="translate(-118,-238) scale(1,1)"><g><path fill="none" stroke="none"/><text fill="#000000" font-family="Arial" font-size="13px" font-style="normal" font-weight="bold" stroke="none" text-decoration="none" x="644.5" y="383.5">Tempo</text></g></g></g></svg>