<?xml version="1.0" encoding="UTF-8" standalone="no"?><svg xmlns="http://www.w3.org/2000/svg" xmlns:xlink="http://www.w3.org/1999/xlink" height="788" version="1.1" width="1100"><defs/><g><g transform="translate(-222,-70) scale(1,1)"><path d="M 232 80 L 1312 80 L 1312 848 L 232 848 L 232 80" fill="none" stroke="#000000" stroke-miterlimit="10"/></g><g transform="translate(-222,-70) scale(1,1)"><path d="M 232 80 L 232 102 L 349.23876953125 102 L 360.23876953125 91 L 360.23876953125 80 L 232 80" fill="#ffffff" stroke="none"/></g><g transform="translate(-222,-70) scale(1,1)"><path d="M 232 80 L 232 102 L 349.23876953125 102 L 360.23876953125 91 L 360.23876953125 80 L 232 80 L 232 80" fill="none" stroke="#000000" stroke-miterlimit="10"/></g><g transform="translate(-222,-70) scale(1,1)"><g><path fill="none" stroke="none"/><text fill="#000000" font-family="Arial" font-size="13px" font-style="normal" font-weight="normal" stroke="none" text-decoration="none" x="256.72998046875" y="95.5">Vista d'Insieme</text></g></g><g transform="translate(-222,-70) scale(1,1)"><g><path fill="none" stroke="none"/><text fill="#000000" font-family="Arial" font-size="13px" font-style="normal" font-weight="bold" stroke="none" text-decoration="none" x="236.279541015625" y="94.5">uc</text></g></g><g transform="translate(-222,-70) scale(1,1)"><rect fill="#C0C0C0" height="696" opacity="0.2" stroke="none" width="424" x="559" y="143"/></g><g transform="translate(-222,-70) scale(1,1)"><rect fill="#ffffff" height="696" stroke="none" width="424" x="552" y="136"/></g><g transform="translate(-222,-70) scale(1,1)"><path d="M 552 136 L 976 136 L 976 832 L 552 832 L 552 136 Z Z" fill="none" stroke="#000000" stroke-miterlimit="10"/></g><g transform="translate(-222,-70) scale(1,1)"><g><path fill="none" stroke="none"/><text fill="#000000" font-family="Arial" font-size="13px" font-style="normal" font-weight="bold" stroke="none" text-decoration="none" x="739.069580078125" y="153.5">Sistema</text></g></g><g transform="translate(-222,-70) scale(1,1)"><path d="M 754 216 C 754 206.6111584 800.3385232 199 857.5 199 C 914.6614768 199 961 206.6111584 961 216 C 961 225.3888416 914.6614768 233 857.5 233 C 800.3385232 233 754 225.3888416 754 216 Z" fill="#C0C0C0" opacity="0.2" stroke="none"/></g><g transform="translate(-222,-70) scale(1,1)"><path d="M 747 209 C 747 199.6111584 793.3385232 192 850.5 192 C 907.6614768 192 954 199.6111584 954 209 C 954 218.3888416 907.6614768 226 850.5 226 C 793.3385232 226 747 218.3888416 747 209 Z" fill="#ffffff" stroke="none"/></g><g transform="translate(-222,-70) scale(1,1)"><path d="M 747 209 C 747 199.6111584 793.3385232 192 850.5 192 C 907.6614768 192 954 199.6111584 954 209 C 954 218.3888416 907.6614768 226 850.5 226 C 793.3385232 226 747 218.3888416 747 209 Z" fill="none" stroke="#000000" stroke-miterlimit="10"/></g><g transform="translate(-222,-70) scale(1,1)"><g><path fill="none" stroke="none"/><text fill="#000000" font-family="Arial" font-size="13px" font-style="normal" font-weight="bold" stroke="none" text-decoration="none" x="804.273193359375" y="214">Autenticazione</text></g></g><g transform="translate(-222,-70) scale(1,1)"><path d="M 754 464 C 754 454.6111584 800.3385232 447 857.5 447 C 914.6614768 447 961 454.6111584 961 464 C 961 473.3888416 914.6614768 481 857.5 481 C 800.3385232 481 754 473.3888416 754 464 Z" fill="#C0C0C0" opacity="0.2" stroke="none"/></g><g transform="translate(-222,-70) scale(1,1)"><path d="M 747 457 C 747 447.6111584 793.3385232 440 850.5 440 C 907.6614768 440 954 447.6111584 954 457 C 954 466.3888416 907.6614768 474 850.5 474 C 793.3385232 474 747 466.3888416 747 457 Z" fill="#ffffff" stroke="none"/></g><g transform="translate(-222,-70) scale(1,1)"><path d="M 747 457 C 747 447.6111584 793.3385232 440 850.5 440 C 907.6614768 440 954 447.6111584 954 457 C 954 466.3888416 907.6614768 474 850.5 474 C 793.3385232 474 747 466.3888416 747 457 Z" fill="none" stroke="#000000" stroke-miterlimit="10"/></g><g transform="translate(-222,-70) scale(1,1)"><g><path fill="none" stroke="none"/><text fill="#000000" font-family="Arial" font-size="13px" font-style="normal" font-weight="bold" stroke="none" text-decoration="none" x="797.75732421875" y="462">GestioneFarmaci</text></g></g><g transform="translate(-222,-70) scale(1,1)"><path d="M 754 340 C 754 330.6111584 800.3385232 323 857.5 323 C 914.6614768 323 961 330.6111584 961 340 C 961 349.3888416 914.6614768 357 857.5 357 C 800.3385232 357 754 349.3888416 754 340 Z" fill="#C0C0C0" opacity="0.2" stroke="none"/></g><g transform="translate(-222,-70) scale(1,1)"><path d="M 747 333 C 747 323.6111584 793.3385232 316 850.5 316 C 907.6614768 316 954 323.6111584 954 333 C 954 342.3888416 907.6614768 350 850.5 350 C 793.3385232 350 747 342.3888416 747 333 Z" fill="#ffffff" stroke="none"/></g><g transform="translate(-222,-70) scale(1,1)"><path d="M 747 333 C 747 323.6111584 793.3385232 316 850.5 316 C 907.6614768 316 954 323.6111584 954 333 C 954 342.3888416 907.6614768 350 850.5 350 C 793.3385232 350 747 342.3888416 747 333 Z" fill="none" stroke="#000000" stroke-miterlimit="10"/></g><g transform="translate(-222,-70) scale(1,1)"><g><path fill="none" stroke="none"/><text fill="#000000" font-family="Arial" font-size="13px" font-style="normal" font-weight="bold" stroke="none" text-decoration="none" x="791.266845703125" y="338">GestioneConsegna</text></g></g><g transform="translate(-222,-70) scale(1,1)"><path d="M 754 712 C 754 702.6111584 800.3385232 695 857.5 695 C 914.6614768 695 961 702.6111584 961 712 C 961 721.3888416 914.6614768 729 857.5 729 C 800.3385232 729 754 721.3888416 754 712 Z" fill="#C0C0C0" opacity="0.2" stroke="none"/></g><g transform="translate(-222,-70) scale(1,1)"><path d="M 747 705 C 747 695.6111584 793.3385232 688 850.5 688 C 907.6614768 688 954 695.6111584 954 705 C 954 714.3888416 907.6614768 722 850.5 722 C 793.3385232 722 747 714.3888416 747 705 Z" fill="#ffffff" stroke="none"/></g><g transform="translate(-222,-70) scale(1,1)"><path d="M 747 705 C 747 695.6111584 793.3385232 688 850.5 688 C 907.6614768 688 954 695.6111584 954 705 C 954 714.3888416 907.6614768 722 850.5 722 C 793.3385232 722 747 714.3888416 747 705 Z" fill="none" stroke="#000000" stroke-miterlimit="10"/></g><g transform="translate(-222,-70) scale(1,1)"><g><path fill="none" stroke="none"/><text fill="#000000" font-family="Arial" font-size="13px" font-style="normal" font-weight="bold" stroke="none" text-decoration="none" x="801.740478515625" y="710">GestioneOrdine</text></g></g><g transform="translate(-222,-70) scale(1,1)"><path d="M 754 588 C 754 578.6111584 800.3385232 571 857.5 571 C 914.6614768 571 961 578.6111584 961 588 C 961 597.3888416 914.6614768 605 857.5 605 C 800.3385232 605 754 597.3888416 754 588 Z" fill="#C0C0C0" opacity="0.2" stroke="none"/></g><g transform="translate(-222,-70) scale(1,1)"><path d="M 747 581 C 747 571.6111584 793.3385232 564 850.5 564 C 907.6614768 564 954 571.6111584 954 581 C 954 590.3888416 907.6614768 598 850.5 598 C 793.3385232 598 747 590.3888416 747 581 Z" fill="#ffffff" stroke="none"/></g><g transform="translate(-222,-70) scale(1,1)"><path d="M 747 581 C 747 571.6111584 793.3385232 564 850.5 564 C 907.6614768 564 954 571.6111584 954 581 C 954 590.3888416 907.6614768 598 850.5 598 C 793.3385232 598 747 590.3888416 747 581 Z" fill="none" stroke="#000000" stroke-miterlimit="10"/></g><g transform="translate(-222,-70) scale(1,1)"><g><path fill="none" stroke="none"/><text fill="#000000" font-family="Arial" font-size="13px" font-style="normal" font-weight="bold" stroke="none" text-decoration="none" x="787.299560546875" y="586">GestioneProduzione</text></g></g><g transform="translate(-222,-70) scale(1,1)"><path d="M 397.47160617897725 185.68 C 397.47160617897725 180.886167936 401.35744850392274 177 406.15087890625 177 C 410.94430930857726 177 414.83015163352275 180.886167936 414.83015163352275 185.68 C 414.83015163352275 190.47383206400002 410.94430930857726 194.36 406.15087890625 194.36 C 401.35744850392274 194.36 397.47160617897725 190.47383206400002 397.47160617897725 185.68 Z" fill="#ffffff" stroke="none"/></g><g transform="translate(-222,-70) scale(1,1)"><path d="M 397.47160617897725 185.68 C 397.47160617897725 180.886167936 401.35744850392274 177 406.15087890625 177 C 410.94430930857726 177 414.83015163352275 180.886167936 414.83015163352275 185.68 C 414.83015163352275 190.47383206400002 410.94430930857726 194.36 406.15087890625 194.36 C 401.35744850392274 194.36 397.47160617897725 190.47383206400002 397.47160617897725 185.68 Z" fill="none" stroke="#000000" stroke-miterlimit="10"/></g><g transform="translate(-222,-70) scale(1,1)"><path d="M 406.15087890625 194.36 L 406.15087890625 211.64" fill="none" stroke="#000000" stroke-miterlimit="10"/></g><g transform="translate(-222,-70) scale(1,1)"><path d="M 396.96106072443183 200.84 L 415.34069708806817 200.84" fill="none" stroke="#000000" stroke-miterlimit="10"/></g><g transform="translate(-222,-70) scale(1,1)"><path d="M 406.15087890625 211.64 L 393.38724254261365 229" fill="none" stroke="#000000" stroke-miterlimit="10"/></g><g transform="translate(-222,-70) scale(1,1)"><path d="M 406.15087890625 211.64 L 418.91451526988635 229" fill="none" stroke="#000000" stroke-miterlimit="10"/></g><g transform="translate(-222,-70) scale(1,1)"><g><path fill="none" stroke="none"/><text fill="#000000" font-family="Arial" font-size="13px" font-style="normal" font-weight="bold" stroke="none" text-decoration="none" x="380.5" y="247.5">Persona</text></g></g><g transform="translate(-222,-70) scale(1,1)"><path d="M 1245.3102292258523 673.6800000000001 C 1245.3102292258523 668.8861679360001 1249.1960715507978 665 1253.989501953125 665 C 1258.7829323554522 665 1262.6687746803977 668.8861679360001 1262.6687746803977 673.6800000000001 C 1262.6687746803977 678.473832064 1258.7829323554522 682.36 1253.989501953125 682.36 C 1249.1960715507978 682.36 1245.3102292258523 678.473832064 1245.3102292258523 673.6800000000001 Z" fill="#ffffff" stroke="none"/></g><g transform="translate(-222,-70) scale(1,1)"><path d="M 1245.3102292258523 673.6800000000001 C 1245.3102292258523 668.8861679360001 1249.1960715507978 665 1253.989501953125 665 C 1258.7829323554522 665 1262.6687746803977 668.8861679360001 1262.6687746803977 673.6800000000001 C 1262.6687746803977 678.473832064 1258.7829323554522 682.36 1253.989501953125 682.36 C 1249.1960715507978 682.36 1245.3102292258523 678.473832064 1245.3102292258523 673.6800000000001 Z" fill="none" stroke="#000000" stroke-miterlimit="10"/></g><g transform="translate(-222,-70) scale(1,1)"><path d="M 1253.989501953125 682.36 L 1253.989501953125 699.64" fill="none" stroke="#000000" stroke-miterlimit="10"/></g><g transform="translate(-222,-70) scale(1,1)"><path d="M 1244.7996837713067 688.84 L 1263.1793201349433 688.84" fill="none" stroke="#000000" stroke-miterlimit="10"/></g><g transform="translate(-222,-70) scale(1,1)"><path d="M 1253.989501953125 699.64 L 1241.2258655894886 717" fill="none" stroke="#000000" stroke-miterlimit="10"/></g><g transform="translate(-222,-70) scale(1,1)"><path d="M 1253.989501953125 699.64 L 1266.7531383167614 717" fill="none" stroke="#000000" stroke-miterlimit="10"/></g><g transform="translate(-222,-70) scale(1,1)"><g><path fill="none" stroke="none"/><text fill="#000000" font-family="Arial" font-size="13px" font-style="normal" font-weight="bold" stroke="none" text-decoration="none" x="1208.12451171875" y="735.5">DBMS Azienda</text></g></g><g transform="translate(-222,-70) scale(1,1)"><path d="M 1245.3102292258523 177.68 C 1245.3102292258523 172.886167936 1249.1960715507978 169 1253.989501953125 169 C 1258.7829323554522 169 1262.6687746803977 172.886167936 1262.6687746803977 177.68 C 1262.6687746803977 182.47383206400002 1258.7829323554522 186.36 1253.989501953125 186.36 C 1249.1960715507978 186.36 1245.3102292258523 182.47383206400002 1245.3102292258523 177.68 Z" fill="#ffffff" stroke="none"/></g><g transform="translate(-222,-70) scale(1,1)"><path d="M 1245.3102292258523 177.68 C 1245.3102292258523 172.886167936 1249.1960715507978 169 1253.989501953125 169 C 1258.7829323554522 169 1262.6687746803977 172.886167936 1262.6687746803977 177.68 C 1262.6687746803977 182.47383206400002 1258.7829323554522 186.36 1253.989501953125 186.36 C 1249.1960715507978 186.36 1245.3102292258523 182.47383206400002 1245.3102292258523 177.68 Z" fill="none" stroke="#000000" stroke-miterlimit="10"/></g><g transform="translate(-222,-70) scale(1,1)"><path d="M 1253.989501953125 186.36 L 1253.989501953125 203.64" fill="none" stroke="#000000" stroke-miterlimit="10"/></g><g transform="translate(-222,-70) scale(1,1)"><path d="M 1244.7996837713067 192.84 L 1263.1793201349433 192.84" fill="none" stroke="#000000" stroke-miterlimit="10"/></g><g transform="translate(-222,-70) scale(1,1)"><path d="M 1253.989501953125 203.64 L 1241.2258655894886 221" fill="none" stroke="#000000" stroke-miterlimit="10"/></g><g transform="translate(-222,-70) scale(1,1)"><path d="M 1253.989501953125 203.64 L 1266.7531383167614 221" fill="none" stroke="#000000" stroke-miterlimit="10"/></g><g transform="translate(-222,-70) scale(1,1)"><g><path fill="none" stroke="none"/><text fill="#000000" font-family="Arial" font-size="13px" font-style="normal" font-weight="bold" stroke="none" text-decoration="none" x="1204.5" y="239.5">DBMS Farmacie</text></g></g><g transform="translate(-222,-70) scale(1,1)"><path d="M 1237.3102292258523 489.68 C 1237.3102292258523 484.886167936 1241.1960715507978 481 1245.989501953125 481 C 1250.7829323554522 481 1254.6687746803977 484.886167936 1254.6687746803977 489.68 C 1254.6687746803977 494.473832064 1250.7829323554522 498.36 1245.989501953125 498.36 C 1241.1960715507978 498.36 1237.3102292258523 494.473832064 1237.3102292258523 489.68 Z" fill="#ffffff" stroke="none"/></g><g transform="translate(-222,-70) scale(1,1)"><path d="M 1237.3102292258523 489.68 C 1237.3102292258523 484.886167936 1241.1960715507978 481 1245.989501953125 481 C 1250.7829323554522 481 1254.6687746803977 484.886167936 1254.6687746803977 489.68 C 1254.6687746803977 494.473832064 1250.7829323554522 498.36 1245.989501953125 498.36 C 1241.1960715507978 498.36 1237.3102292258523 494.473832064 1237.3102292258523 489.68 Z" fill="none" stroke="#000000" stroke-miterlimit="10"/></g><g transform="translate(-222,-70) scale(1,1)"><path d="M 1245.989501953125 498.36 L 1245.989501953125 515.64" fill="none" stroke="#000000" stroke-miterlimit="10"/></g><g transform="translate(-222,-70) scale(1,1)"><path d="M 1236.7996837713067 504.84 L 1255.1793201349433 504.84" fill="none" stroke="#000000" stroke-miterlimit="10"/></g><g transform="translate(-222,-70) scale(1,1)"><path d="M 1245.989501953125 515.64 L 1233.2258655894886 533" fill="none" stroke="#000000" stroke-miterlimit="10"/></g><g transform="translate(-222,-70) scale(1,1)"><path d="M 1245.989501953125 515.64 L 1258.7531383167614 533" fill="none" stroke="#000000" stroke-miterlimit="10"/></g><g transform="translate(-222,-70) scale(1,1)"><g><path fill="none" stroke="none"/><text fill="#000000" font-family="Arial" font-size="13px" font-style="normal" font-weight="bold" stroke="none" text-decoration="none" x="1225.166015625" y="551.5">Tempo</text></g></g><g transform="translate(-222,-70) scale(1,1)"><path d="M 462.10978977272725 297.68 C 462.10978977272725 292.886167936 465.99563209767274 289 470.7890625 289 C 475.58249290232726 289 479.46833522727275 292.886167936 479.46833522727275 297.68 C 479.46833522727275 302.473832064 475.58249290232726 306.36 470.7890625 306.36 C 465.99563209767274 306.36 462.10978977272725 302.473832064 462.10978977272725 297.68 Z" fill="#ffffff" stroke="none"/></g><g transform="translate(-222,-70) scale(1,1)"><path d="M 462.10978977272725 297.68 C 462.10978977272725 292.886167936 465.99563209767274 289 470.7890625 289 C 475.58249290232726 289 479.46833522727275 292.886167936 479.46833522727275 297.68 C 479.46833522727275 302.473832064 475.58249290232726 306.36 470.7890625 306.36 C 465.99563209767274 306.36 462.10978977272725 302.473832064 462.10978977272725 297.68 Z" fill="none" stroke="#000000" stroke-miterlimit="10"/></g><g transform="translate(-222,-70) scale(1,1)"><path d="M 470.7890625 306.36 L 470.7890625 323.64" fill="none" stroke="#000000" stroke-miterlimit="10"/></g><g transform="translate(-222,-70) scale(1,1)"><path d="M 461.59924431818183 312.84 L 479.97888068181817 312.84" fill="none" stroke="#000000" stroke-miterlimit="10"/></g><g transform="translate(-222,-70) scale(1,1)"><path d="M 470.7890625 323.64 L 458.02542613636365 341" fill="none" stroke="#000000" stroke-miterlimit="10"/></g><g transform="translate(-222,-70) scale(1,1)"><path d="M 470.7890625 323.64 L 483.55269886363635 341" fill="none" stroke="#000000" stroke-miterlimit="10"/></g><g transform="translate(-222,-70) scale(1,1)"><g><path fill="none" stroke="none"/><text fill="#000000" font-family="Arial" font-size="13px" font-style="normal" font-weight="bold" stroke="none" text-decoration="none" x="445.5" y="359.5">Corriere</text></g></g><g transform="translate(-222,-70) scale(1,1)"><path d="M 461.51799289772725 601.6800000000001 C 461.51799289772725 596.8861679360001 465.40383522267274 593 470.197265625 593 C 474.99069602732726 593 478.87653835227275 596.8861679360001 478.87653835227275 601.6800000000001 C 478.87653835227275 606.473832064 474.99069602732726 610.36 470.197265625 610.36 C 465.40383522267274 610.36 461.51799289772725 606.473832064 461.51799289772725 601.6800000000001 Z" fill="#ffffff" stroke="none"/></g><g transform="translate(-222,-70) scale(1,1)"><path d="M 461.51799289772725 601.6800000000001 C 461.51799289772725 596.8861679360001 465.40383522267274 593 470.197265625 593 C 474.99069602732726 593 478.87653835227275 596.8861679360001 478.87653835227275 601.6800000000001 C 478.87653835227275 606.473832064 474.99069602732726 610.36 470.197265625 610.36 C 465.40383522267274 610.36 461.51799289772725 606.473832064 461.51799289772725 601.6800000000001 Z" fill="none" stroke="#000000" stroke-miterlimit="10"/></g><g transform="translate(-222,-70) scale(1,1)"><path d="M 470.197265625 610.36 L 470.197265625 627.64" fill="none" stroke="#000000" stroke-miterlimit="10"/></g><g transform="translate(-222,-70) scale(1,1)"><path d="M 461.00744744318183 616.84 L 479.38708380681817 616.84" fill="none" stroke="#000000" stroke-miterlimit="10"/></g><g transform="translate(-222,-70) scale(1,1)"><path d="M 470.197265625 627.64 L 457.43362926136365 645" fill="none" stroke="#000000" stroke-miterlimit="10"/></g><g transform="translate(-222,-70) scale(1,1)"><path d="M 470.197265625 627.64 L 482.96090198863635 645" fill="none" stroke="#000000" stroke-miterlimit="10"/></g><g transform="translate(-222,-70) scale(1,1)"><g><path fill="none" stroke="none"/><text fill="#000000" font-family="Arial" font-size="13px" font-style="normal" font-weight="bold" stroke="none" text-decoration="none" x="439.5" y="663.5">Impiegato</text></g></g><g transform="translate(-222,-70) scale(1,1)"><path d="M 462.14567844460225 425.68 C 462.14567844460225 420.886167936 466.03152076954774 417 470.824951171875 417 C 475.61838157420226 417 479.50422389914775 420.886167936 479.50422389914775 425.68 C 479.50422389914775 430.473832064 475.61838157420226 434.36 470.824951171875 434.36 C 466.03152076954774 434.36 462.14567844460225 430.473832064 462.14567844460225 425.68 Z" fill="#ffffff" stroke="none"/></g><g transform="translate(-222,-70) scale(1,1)"><path d="M 462.14567844460225 425.68 C 462.14567844460225 420.886167936 466.03152076954774 417 470.824951171875 417 C 475.61838157420226 417 479.50422389914775 420.886167936 479.50422389914775 425.68 C 479.50422389914775 430.473832064 475.61838157420226 434.36 470.824951171875 434.36 C 466.03152076954774 434.36 462.14567844460225 430.473832064 462.14567844460225 425.68 Z" fill="none" stroke="#000000" stroke-miterlimit="10"/></g><g transform="translate(-222,-70) scale(1,1)"><path d="M 470.824951171875 434.36 L 470.824951171875 451.64" fill="none" stroke="#000000" stroke-miterlimit="10"/></g><g transform="translate(-222,-70) scale(1,1)"><path d="M 461.63513299005683 440.84 L 480.01476935369317 440.84" fill="none" stroke="#000000" stroke-miterlimit="10"/></g><g transform="translate(-222,-70) scale(1,1)"><path d="M 470.824951171875 451.64 L 458.06131480823865 469" fill="none" stroke="#000000" stroke-miterlimit="10"/></g><g transform="translate(-222,-70) scale(1,1)"><path d="M 470.824951171875 451.64 L 483.58858753551135 469" fill="none" stroke="#000000" stroke-miterlimit="10"/></g><g transform="translate(-222,-70) scale(1,1)"><g><path fill="none" stroke="none"/><text fill="#000000" font-family="Arial" font-size="13px" font-style="normal" font-weight="bold" stroke="none" text-decoration="none" x="436.5" y="487.5">Farmacista</text></g></g><g transform="translate(-222,-70) scale(1,1)"><path d="M 441 319 L 408 319 L 408 255" fill="none" stroke="#000000" stroke-miterlimit="10"/></g><g transform="translate(-222,-70) scale(1,1)"><path d="M 416.419035512032 275.3253497152483 L 408 255 L 399.580964487968 275.3253497152483" fill="#FFFFFF" stroke="none"/></g><g transform="translate(-222,-70) scale(1,1)"><path d="M 416.419035512032 275.3253497152483 L 408 255 L 399.580964487968 275.3253497152483 L 416.419035512032 275.3253497152483" fill="none" stroke="#000000" stroke-miterlimit="10"/></g><g transform="translate(-222,-70) scale(1,1)"><path d="M 435 655 L 248 655 L 248 200 L 376 200" fill="none" stroke="#000000" stroke-miterlimit="10"/></g><g transform="translate(-222,-70) scale(1,1)"><path d="M 355.6746502847517 208.41903551203197 L 376 200 L 355.6746502847517 191.58096448796803" fill="#FFFFFF" stroke="none"/></g><g transform="translate(-222,-70) scale(1,1)"><path d="M 355.6746502847517 208.41903551203197 L 376 200 L 355.6746502847517 191.58096448796803 L 355.6746502847517 208.41903551203197" fill="none" stroke="#000000" stroke-miterlimit="10"/></g><g transform="translate(-222,-70) scale(1,1)"><path d="M 432 447 L 304 447 L 304 224 L 376 224" fill="none" stroke="#000000" stroke-miterlimit="10"/></g><g transform="translate(-222,-70) scale(1,1)"><path d="M 355.6746502847517 232.41903551203197 L 376 224 L 355.6746502847517 215.58096448796803" fill="#FFFFFF" stroke="none"/></g><g transform="translate(-222,-70) scale(1,1)"><path d="M 355.6746502847517 232.41903551203197 L 376 224 L 355.6746502847517 215.58096448796803 L 355.6746502847517 232.41903551203197" fill="none" stroke="#000000" stroke-miterlimit="10"/></g><g transform="translate(-222,-70) scale(1,1)"><path d="M 437 215 L 746 210" fill="none" stroke="#000000" stroke-miterlimit="10"/></g><g transform="translate(-222,-70) scale(1,1)"><path d="M 883 227 Q 1040 312 1231 663" fill="none" stroke="#000000" stroke-miterlimit="10"/></g><g transform="translate(-222,-70) scale(1,1)"><path d="M 955 208 L 1199 207" fill="none" stroke="#000000" stroke-miterlimit="10"/></g><g transform="translate(-222,-70) scale(1,1)"><path d="M 502 327 L 746 331" fill="none" stroke="#000000" stroke-miterlimit="10"/></g><g transform="translate(-222,-70) scale(1,1)"><path d="M 881 351 Q 1008 424 1218 663" fill="none" stroke="#000000" stroke-miterlimit="10"/></g><g transform="translate(-222,-70) scale(1,1)"><path d="M 955 331 Q 1088 328 1199 247" fill="none" stroke="#000000" stroke-miterlimit="10"/></g><g transform="translate(-222,-70) scale(1,1)"><path d="M 506 626 L 746 595" fill="none" stroke="#000000" stroke-miterlimit="10"/></g><g transform="translate(-222,-70) scale(1,1)"><path d="M 955 583 Q 1008 584 1199 677" fill="none" stroke="#000000" stroke-miterlimit="10"/></g><g transform="translate(-222,-70) scale(1,1)"><path d="M 511 455 L 746 456" fill="none" stroke="#000000" stroke-miterlimit="10"/></g><g transform="translate(-222,-70) scale(1,1)"><path d="M 955 457 Q 1160 456 1238 248" fill="none" stroke="#000000" stroke-miterlimit="10"/></g><g transform="translate(-222,-70) scale(1,1)"><path d="M 955 473 L 1191 511" fill="none" stroke="#000000" stroke-miterlimit="10"/></g><g transform="translate(-222,-70) scale(1,1)"><path d="M 506 638 L 758 687" fill="none" stroke="#000000" stroke-miterlimit="10"/></g><g transform="translate(-222,-70) scale(1,1)"><path d="M 955 704 L 1199 703" fill="none" stroke="#000000" stroke-miterlimit="10"/></g><g transform="translate(-222,-70) scale(1,1)"><path d="M 955 565 L 1191 527" fill="none" stroke="#000000" stroke-miterlimit="10"/></g><g transform="translate(-222,-70) scale(1,1)"><path d="M 919 475 Q 1000 496 1204 663" fill="none" stroke="#000000" stroke-miterlimit="10"/></g><g transform="translate(-222,-70) scale(1,1)"><path d="M 575 794.5 C 575 774.8938896 619.77152 759 675 759 C 730.22848 759 775 774.8938896 775 794.5 C 775 814.1061104 730.22848 830 675 830 C 619.77152 830 575 814.1061104 575 794.5 Z" fill="#C0C0C0" opacity="0.2" stroke="none"/></g><g transform="translate(-222,-70) scale(1,1)"><path d="M 568 787.5 C 568 767.8938896 612.77152 752 668 752 C 723.22848 752 768 767.8938896 768 787.5 C 768 807.1061104 723.22848 823 668 823 C 612.77152 823 568 807.1061104 568 787.5 Z" fill="#ffffff" stroke="none"/></g><g transform="translate(-222,-70) scale(1,1)"><path d="M 568 787.5 C 568 767.8938896 612.77152 752 668 752 C 723.22848 752 768 767.8938896 768 787.5 C 768 807.1061104 723.22848 823 668 823 C 612.77152 823 568 807.1061104 568 787.5 Z" fill="none" stroke="#000000" stroke-miterlimit="10"/></g><g transform="translate(-222,-70) scale(1,1)"><g><path fill="none" stroke="none"/><text fill="#000000" font-family="Arial" font-size="13px" font-style="normal" font-weight="bold" stroke="none" text-decoration="none" x="648.490478515625" y="779.5">Errore</text><text fill="#000000" font-family="Arial" font-size="13px" font-style="normal" font-weight="bold" stroke="none" text-decoration="none" x="619.96728515625" y="792.5">Comunicazione</text><text fill="#000000" font-family="Arial" font-size="13px" font-style="normal" font-weight="bold" stroke="none" text-decoration="none" x="648.86181640625" y="805.5">DBMS</text></g></g><g transform="translate(-222,-70) scale(1,1)"><path d="M 664 752 L 664 656 L 856 656 L 856 598" fill="none" stroke="#000000" stroke-dasharray="3" stroke-miterlimit="10"/></g><g transform="translate(-222,-70) scale(1,1)"><path d="M 860.209517756016 608.1626748576241 L 856 598 L 851.790482243984 608.1626748576241" fill="none" stroke="#000000" stroke-miterlimit="10"/></g><g transform="translate(-222,-70) scale(1,1)"><g><path fill="none" stroke="none"/><text fill="#000000" font-family="Arial" font-size="13px" font-style="normal" font-weight="normal" stroke="none" text-decoration="none" x="807.5" y="538.5">«extend»</text></g></g><g transform="translate(-222,-70) scale(1,1)"><path d="M 664 752 L 664 528 L 848 528 L 848 474" fill="none" stroke="#000000" stroke-dasharray="3" stroke-miterlimit="10"/></g><g transform="translate(-222,-70) scale(1,1)"><path d="M 852.209517756016 484.16267485762415 L 848 474 L 843.790482243984 484.16267485762415" fill="none" stroke="#000000" stroke-miterlimit="10"/></g><g transform="translate(-222,-70) scale(1,1)"><g><path fill="none" stroke="none"/><text fill="#000000" font-family="Arial" font-size="13px" font-style="normal" font-weight="normal" stroke="none" text-decoration="none" x="807.5" y="402.5">«extend»</text></g></g><g transform="translate(-222,-70) scale(1,1)"><path d="M 664 752 L 664 392 L 848 392 L 848 350" fill="none" stroke="#000000" stroke-dasharray="3" stroke-miterlimit="10"/></g><g transform="translate(-222,-70) scale(1,1)"><path d="M 852.209517756016 360.16267485762415 L 848 350 L 843.790482243984 360.16267485762415" fill="none" stroke="#000000" stroke-miterlimit="10"/></g><g transform="translate(-222,-70) scale(1,1)"><g><path fill="none" stroke="none"/><text fill="#000000" font-family="Arial" font-size="13px" font-style="normal" font-weight="normal" stroke="none" text-decoration="none" x="815.5" y="665.5">«extend»</text></g></g><g transform="translate(-222,-70) scale(1,1)"><path d="M 664 752 L 664 264 L 848 264 L 848 226" fill="none" stroke="#000000" stroke-dasharray="3" stroke-miterlimit="10"/></g><g transform="translate(-222,-70) scale(1,1)"><path d="M 852.209517756016 236.16267485762415 L 848 226 L 843.790482243984 236.16267485762415" fill="none" stroke="#000000" stroke-miterlimit="10"/></g><g transform="translate(-222,-70) scale(1,1)"><g><path fill="none" stroke="none"/><text fill="#000000" font-family="Arial" font-size="13px" font-style="normal" font-weight="normal" stroke="none" text-decoration="none" x="807.5" y="273.5">«extend»</text></g></g><g transform="translate(-222,-70) scale(1,1)"><path d="M 768 784 L 848 784 L 848 722" fill="none" stroke="#000000" stroke-dasharray="3" stroke-miterlimit="10"/></g><g transform="translate(-222,-70) scale(1,1)"><path d="M 852.209517756016 732.1626748576241 L 848 722 L 843.790482243984 732.1626748576241" fill="none" stroke="#000000" stroke-miterlimit="10"/></g><g transform="translate(-222,-70) scale(1,1)"><g><path fill="none" stroke="none"/><text fill="#000000" font-family="Arial" font-size="13px" font-style="normal" font-weight="normal" stroke="none" text-decoration="none" x="791.5" y="794.5">«extend»</text></g></g><g transform="translate(-222,-70) scale(1,1)"><path d="M 511 442 L 794 351" fill="none" stroke="#000000" stroke-miterlimit="10"/></g></g></svg>